<svg id="Layer_1" data-name="Layer 1" xmlns="http://www.w3.org/2000/svg" xmlns:xlink="http://www.w3.org/1999/xlink" viewBox="0 0 1050 350"><defs><style>.cls-1,.cls-12,.cls-3,.cls-4,.cls-6{fill:none;}.cls-2{fill:#f59493;}.cls-11,.cls-3,.cls-4{stroke:#f59493;}.cls-11,.cls-3{stroke-miterlimit:10;}.cls-10,.cls-11,.cls-12,.cls-3,.cls-4,.cls-6,.cls-9{stroke-width:3px;}.cls-10,.cls-12,.cls-4,.cls-6,.cls-9{stroke-linecap:round;stroke-linejoin:round;}.cls-5{fill:#d5c52a;}.cls-6{stroke:#fff;}.cls-7{fill:#f4c6c6;}.cls-10,.cls-8{fill:#a4dad0;}.cls-11,.cls-9{fill:#fff;}.cls-10,.cls-12,.cls-9{stroke:#a4dad0;}.cls-13{fill:url(#New_Pattern_3);}</style><pattern id="New_Pattern_3" data-name="New Pattern 3" width="611.28" height="697.01" patternUnits="userSpaceOnUse" viewBox="0 0 611.28 697.01"><rect class="cls-1" width="611.28" height="697.01"/><path class="cls-2" d="M571.21,596.49c-2.5,5.18-2.25,12.12,2.05,15.95,3.75,3.34,9.52,3.45,14.24,1.71s8.66-5,12.68-8a141.74,141.74,0,0,1,26-15.47c3.69-1.69,7.59-3.24,11.65-3.19s13.75,2.43,15.35,6.16c2.08,4.85-23.72,26.72-31.34,32.32-18,13.24-39.06,22.18-53.82,39-6.61,7.53-11.07,19.54-4.51,27.11,6.25,7.21,17.78,5.25,26.83,2.2,2.95-1,6-2.12,8.08-4.44s2.73-6.2.61-8.47c-5.13-5.47-23.8,8.27-29,2.87-3.81-4,9-13.36,13.52-16.5l35.74-24.85c16.85-11.72,35.18-25.73,38-46.06.73-5.16.29-10.71-2.52-15.11-3.64-5.71-10.76-8.5-17.53-8.46s-13.29,2.51-19.42,5.4c-13.79,6.49-29.69,20.15-40.63,30.77-1.77-.4.15-5.9,5.37-13,10.1-13.8,41.42-44,46.86-43.37,29.73,3.39,59.25-14.38,52.49-26.59-13.82-25-61.93,15.19-78.06,30.58C592.37,568,578.44,581.54,571.21,596.49Z"/><path class="cls-3" d="M603.19,675.9c0-.94-.28-2.1.49-2.65s2.32,1.4,2.89.55c4.64-7,12-8.62,15.12-2.19,2.47,5.11-2.9,14.9-12,10.74-2.68-1.23-8.6,3-10.74,3.34a1.52,1.52,0,0,1-.93-.07,1.63,1.63,0,0,1-.62-1.31C596.79,679.52,603.18,680.69,603.19,675.9Z"/><path class="cls-4" d="M605,673.49c1.38,1.22,4.76,4.54,7.22,4.54a4.5,4.5,0,0,0,4.28-3.92c0-2.91-5.29-3.71-9.94-.32"/><circle class="cls-5" cx="609.83" cy="496.8" r="20.08"/><path class="cls-6" d="M590,495.61c4.15-1,6.35-4.91,9.31-8,10.47-10.9,20.47-2.74,23.18.64,4.72,5.9,3.29,12.33-2,16.67s-12.75,5.56-17.15,10.87"/><path class="cls-7" d="M402.06,580c-6.13-.26-8.76,6.39-10.94,10.33-1.19,2.15-7,7.13-4,12.6a6,6,0,0,0,6.89,3.28c2.82-.76,4.58-3,7.45-2.44s6.5,2.64,8.33,2.68c3.26.08,4.65-.64,6.12-3.56,2.12-4.19-1.5-10.06-4.08-12.92C408.22,585.94,409.23,580.25,402.06,580Z"/><path class="cls-7" d="M408.62,564.2c-4.4-.06-7.92,6-4.83,12.12.68,1.36,4.35,2.55,6.35.77C413.86,573.78,413.71,564.27,408.62,564.2Z"/><path class="cls-7" d="M412.52,583.69c0,2.76,1.58,4.31,3.86,3.94,7.21-1.18,7.24-9.37,3.18-11C417.38,575.81,412.54,580.61,412.52,583.69Z"/><path class="cls-7" d="M390.21,566.93c-3.44,1.83-1.67,11,1.54,12.49a5.29,5.29,0,0,0,6.59-1.93C400.11,574.38,395,564.36,390.21,566.93Z"/><path class="cls-7" d="M380.87,579.42c-2.19,2.64-.58,6.53.48,7.77a4.76,4.76,0,0,0,4.35,1.71,3.58,3.58,0,0,0,2.8-3.48C388.5,580.54,382.21,577.81,380.87,579.42Z"/><path class="cls-7" d="M461.77,615.14c5.48-4.28,24,1.06,21.51,29.28-.51,5.7-1.8,9-.19,14.47,1.31,4.48-12.58,6.33-14.41,5.48C464.07,662.23,446.79,626.83,461.77,615.14Z"/><path class="cls-7" d="M485.25,666.77c1.72,1.26,6.14,16,.17,18.71-9,4.13-14-5.22-14.74-14.2C470.5,669.11,483.74,665.67,485.25,666.77Z"/><path class="cls-8" d="M351.89,659.5c-3.38.34-9.52,9.53-.69,15.65,14.46,10,64.8,11.57,81.3-1,11.23-8.54,1.52-18.76-2.7-18.22"/><path class="cls-9" d="M352.65,665.06c7.95,11,67.66,15.26,78.9-2.34,1.06-1.67-6.82-16.47-9.58-21.48-5.54-10.08-56.32-10.78-62.78,1.11C357.44,645.6,350.78,662.73,352.65,665.06Z"/><path class="cls-10" d="M365.66,643.88c4.9,5.07,16.93,5.71,27.45,5.71,8.65,0,20.1-2.3,23.33-7.24"/><path class="cls-2" d="M265.57,596.49c-2.5,5.18-2.25,12.12,2.05,15.95,3.75,3.34,9.52,3.45,14.24,1.71s8.66-5,12.68-8a141.74,141.74,0,0,1,26-15.47c3.69-1.69,7.59-3.24,11.65-3.19s13.75,2.43,15.35,6.16c2.08,4.85-23.72,26.72-31.34,32.32-18,13.24-39.06,22.18-53.82,39-6.61,7.53-11.07,19.54-4.51,27.11,6.25,7.21,17.78,5.25,26.83,2.2,2.95-1,6-2.12,8.08-4.44s2.73-6.2.61-8.47c-5.13-5.47-23.8,8.27-29,2.87-3.81-4,9-13.36,13.52-16.5l35.74-24.85c16.85-11.72,35.18-25.73,38-46.06.73-5.16.29-10.71-2.52-15.11-3.64-5.71-10.76-8.5-17.53-8.46s-13.29,2.51-19.42,5.4c-13.79,6.49-29.69,20.15-40.63,30.77-1.77-.4.15-5.9,5.37-13,10.1-13.8,41.42-44,46.86-43.37,29.73,3.39,59.25-14.38,52.49-26.59-13.82-25-61.93,15.19-78.06,30.58C286.72,568,272.8,581.54,265.57,596.49Z"/><path class="cls-3" d="M297.55,675.9c0-.94-.28-2.1.49-2.65s2.32,1.4,2.89.55c4.64-7,12-8.62,15.12-2.19,2.47,5.11-2.9,14.9-12,10.74-2.68-1.23-8.6,3-10.74,3.34a1.52,1.52,0,0,1-.93-.07,1.63,1.63,0,0,1-.62-1.31C291.15,679.52,297.54,680.69,297.55,675.9Z"/><path class="cls-4" d="M299.36,673.49c1.38,1.22,4.76,4.54,7.22,4.54a4.5,4.5,0,0,0,4.28-3.92c0-2.91-5.29-3.71-9.94-.32"/><path class="cls-11" d="M355.35,523.93c-7,2.22-19.12,11.67-25,17.5,6.72,1.72,35.78.61,41.6-12.61C375.31,521.14,362.22,521.76,355.35,523.93Z"/><circle class="cls-5" cx="532.95" cy="639.2" r="20.08"/><path class="cls-6" d="M519.64,654.16c2.79-4.59,13.8-11.79,23.6-10.21a9.21,9.21,0,0,1,7.09,5.92"/><path class="cls-6" d="M515.3,627.64c11.73-5.71,20.14-2.18,27.91-5.71"/><circle class="cls-5" cx="304.19" cy="496.8" r="20.08"/><path class="cls-6" d="M284.41,495.61c4.15-1,6.35-4.91,9.31-8,10.47-10.9,20.47-2.74,23.18.64,4.72,5.9,3.29,12.33-2,16.67s-12.75,5.56-17.15,10.87"/><circle class="cls-5" cx="468.3" cy="555.72" r="20.08"/><path class="cls-6" d="M484.44,542.13c-2.64-1-7.29,2.08-9.2,10.57-2.08,9.26,3.33,18.48,5.23,19.33"/><path class="cls-6" d="M459.36,536.44c-8.66,3.42-9.47,32.4-4.85,35"/><path class="cls-12" d="M486.88,505.3a16.94,16.94,0,0,1-7.22-2.5c-2.09-1.49-3.59-4.07-3.12-6.6.53-2.81,3.29-4.72,6.08-5.38a29.18,29.18,0,0,1,8.56-.52c6.36.42,38.14-9.42,41.92-12,3.15-2.15,2.72-12.21,9.28-12.13,2.87,0,5.87,1.17,7.1,3.77,1.05,2.23,1.09,6.67.82,9.11"/><path class="cls-12" d="M481.72,505.5c-3,4.35.15,10.39,6.27,9.78,6.9-.68,9-9.17,11.07-12s34.26-14.33,46.58-13.2c4,.37,8.78,1.25,11.58-1.68,2-2.09,2.06-5.57.6-8.06a11.08,11.08,0,0,0-7-4.79"/><path class="cls-7" d="M424.41,496.79c-6-.25-8.56,6.25-10.69,10.1-1.16,2.1-6.79,7-3.91,12.31a5.9,5.9,0,0,0,6.73,3.21c2.76-.74,4.48-2.94,7.28-2.39s6.35,2.58,8.14,2.62c3.19.08,4.54-.63,6-3.48,2.07-4.09-1.47-9.83-4-12.63C430.44,502.65,431.42,497.09,424.41,496.79Z"/><path class="cls-7" d="M430.83,481.4c-4.3-.06-7.74,5.85-4.72,11.85.67,1.33,4.25,2.49,6.2.76C435.95,490.76,435.8,481.47,430.83,481.4Z"/><path class="cls-7" d="M434.64,500.44c0,2.7,1.54,4.21,3.77,3.85,7-1.15,7.08-9.15,3.1-10.71C439.39,492.75,434.66,497.43,434.64,500.44Z"/><path class="cls-7" d="M412.83,484.07c-3.36,1.79-1.63,10.73,1.51,12.2a5.17,5.17,0,0,0,6.44-1.89C422.51,491.35,417.54,481.56,412.83,484.07Z"/><path class="cls-7" d="M403.71,496.27c-2.14,2.58-.57,6.38.47,7.59a4.65,4.65,0,0,0,4.25,1.67,3.49,3.49,0,0,0,2.73-3.4C411.17,497.37,405,494.69,403.71,496.27Z"/><path class="cls-7" d="M543.3,527.2c-5.48-4.28-24,1.06-21.51,29.28.51,5.7,1.8,9,.19,14.47-1.31,4.48,12.58,6.33,14.41,5.48C541,574.3,558.28,538.9,543.3,527.2Z"/><path class="cls-7" d="M519.82,578.84c-1.72,1.26-6.14,16-.17,18.71,9,4.13,14-5.22,14.74-14.2C534.57,581.17,521.32,577.74,519.82,578.84Z"/><path class="cls-7" d="M96.42,580c-6.13-.26-8.76,6.39-10.94,10.33-1.19,2.15-7,7.13-4,12.6a6,6,0,0,0,6.89,3.28c2.82-.76,4.58-3,7.45-2.44s6.5,2.64,8.33,2.68c3.26.08,4.65-.64,6.12-3.56,2.12-4.19-1.5-10.06-4.08-12.92C102.58,585.94,103.58,580.25,96.42,580Z"/><path class="cls-7" d="M103,564.2c-4.4-.06-7.92,6-4.83,12.12.68,1.36,4.35,2.55,6.35.77C108.22,573.78,108.07,564.27,103,564.2Z"/><path class="cls-7" d="M106.88,583.69c0,2.76,1.58,4.31,3.86,3.94,7.21-1.18,7.24-9.37,3.18-11C111.74,575.81,106.9,580.61,106.88,583.69Z"/><path class="cls-7" d="M84.57,566.93c-3.44,1.83-1.67,11,1.54,12.49a5.29,5.29,0,0,0,6.59-1.93C94.47,574.38,89.38,564.36,84.57,566.93Z"/><path class="cls-7" d="M75.23,579.42c-2.19,2.64-.58,6.53.48,7.77a4.76,4.76,0,0,0,4.35,1.71,3.58,3.58,0,0,0,2.8-3.48C82.86,580.54,76.57,577.81,75.23,579.42Z"/><path class="cls-7" d="M156.13,615.14c5.48-4.28,24,1.06,21.51,29.28-.51,5.7-1.8,9-.19,14.47,1.31,4.48-12.58,6.33-14.41,5.48C158.43,662.23,141.15,626.83,156.13,615.14Z"/><path class="cls-7" d="M179.61,666.77c1.72,1.26,6.14,16,.17,18.71-9,4.13-14-5.22-14.74-14.2C164.85,669.11,178.1,665.67,179.61,666.77Z"/><path class="cls-8" d="M46.25,659.5c-3.38.34-9.52,9.53-.69,15.65,14.46,10,64.8,11.57,81.3-1,11.23-8.54,1.52-18.76-2.7-18.22"/><path class="cls-9" d="M47,665.06c7.95,11,67.66,15.26,78.9-2.34,1.06-1.67-6.82-16.47-9.58-21.48-5.54-10.08-56.32-10.78-62.78,1.11C51.8,645.6,45.14,662.73,47,665.06Z"/><path class="cls-10" d="M60,643.88c4.9,5.07,16.93,5.71,27.45,5.71,8.65,0,20.1-2.3,23.33-7.24"/><path class="cls-2" d="M-40.07,596.49c-2.5,5.18-2.25,12.12,2.05,15.95,3.75,3.34,9.52,3.45,14.24,1.71s8.66-5,12.68-8a141.74,141.74,0,0,1,26-15.47c3.69-1.69,7.59-3.24,11.65-3.19s13.75,2.43,15.35,6.16c2.08,4.85-23.72,26.72-31.34,32.32-18,13.24-39.06,22.18-53.82,39-6.61,7.53-11.07,19.54-4.51,27.11,6.25,7.21,17.78,5.25,26.83,2.2,2.95-1,6-2.12,8.08-4.44s2.73-6.2.61-8.47c-5.13-5.47-23.8,8.27-29,2.87-3.81-4,9-13.36,13.52-16.5L8.06,642.87c16.85-11.72,35.18-25.73,38-46.06.73-5.16.29-10.71-2.52-15.11-3.64-5.71-10.76-8.5-17.53-8.46s-13.29,2.51-19.42,5.4C-7.16,585.14-23.07,598.79-34,609.41c-1.77-.4.15-5.9,5.37-13,10.1-13.8,41.42-44,46.86-43.37,29.73,3.39,59.25-14.38,52.49-26.59C56.89,501.45,8.79,541.6-7.34,557-18.92,568-32.84,581.54-40.07,596.49Z"/><path class="cls-3" d="M-8.1,675.9c0-.94-.28-2.1.49-2.65s2.32,1.4,2.89.55c4.64-7,12-8.62,15.12-2.19,2.47,5.11-2.9,14.9-12,10.74-2.68-1.23-8.6,3-10.74,3.34a1.52,1.52,0,0,1-.93-.07,1.63,1.63,0,0,1-.62-1.31C-14.49,679.52-8.11,680.69-8.1,675.9Z"/><path class="cls-4" d="M-6.28,673.49C-4.9,674.71-1.52,678,.94,678a4.5,4.5,0,0,0,4.28-3.92c0-2.91-5.29-3.71-9.94-.32"/><path class="cls-11" d="M49.71,523.93c-7,2.22-19.12,11.67-25,17.5,6.72,1.72,35.78.61,41.6-12.61C69.67,521.14,56.58,521.76,49.71,523.93Z"/><circle class="cls-5" cx="227.31" cy="639.2" r="20.08"/><path class="cls-6" d="M214,654.16c2.79-4.59,13.8-11.79,23.6-10.21a9.21,9.21,0,0,1,7.09,5.92"/><path class="cls-6" d="M209.66,627.64c11.73-5.71,20.14-2.18,27.91-5.71"/><circle class="cls-5" cx="-1.45" cy="496.8" r="20.08"/><path class="cls-6" d="M-21.24,495.61c4.15-1,6.35-4.91,9.31-8,10.47-10.9,20.47-2.74,23.18.64,4.72,5.9,3.29,12.33-2,16.67S-3.45,510.49-7.85,515.8"/><circle class="cls-5" cx="162.66" cy="555.72" r="20.08"/><path class="cls-6" d="M178.8,542.13c-2.64-1-7.29,2.08-9.2,10.57-2.08,9.26,3.33,18.48,5.23,19.33"/><path class="cls-6" d="M153.72,536.44c-8.66,3.42-9.47,32.4-4.85,35"/><path class="cls-12" d="M181.24,505.3a16.94,16.94,0,0,1-7.22-2.5c-2.09-1.49-3.59-4.07-3.12-6.6.53-2.81,3.29-4.72,6.08-5.38a29.18,29.18,0,0,1,8.56-.52c6.36.42,38.14-9.42,41.92-12,3.15-2.15,2.72-12.21,9.28-12.13,2.87,0,5.87,1.17,7.1,3.77,1.05,2.23,1.09,6.67.82,9.11"/><path class="cls-12" d="M176.08,505.5c-3,4.35.15,10.39,6.27,9.78,6.9-.68,9-9.17,11.07-12s34.26-14.33,46.58-13.2c4,.37,8.78,1.25,11.58-1.68,2-2.09,2.06-5.57.6-8.06a11.08,11.08,0,0,0-7-4.79"/><path class="cls-7" d="M118.77,496.79c-6-.25-8.56,6.25-10.69,10.1-1.16,2.1-6.79,7-3.91,12.31a5.9,5.9,0,0,0,6.73,3.21c2.76-.74,4.48-2.94,7.28-2.39s6.35,2.58,8.14,2.62c3.19.08,4.54-.63,6-3.48,2.07-4.09-1.47-9.83-4-12.63C124.8,502.65,125.78,497.09,118.77,496.79Z"/><path class="cls-7" d="M125.19,481.4c-4.3-.06-7.74,5.85-4.72,11.85.67,1.33,4.25,2.49,6.2.76C130.31,490.76,130.16,481.47,125.19,481.4Z"/><path class="cls-7" d="M129,500.44c0,2.7,1.54,4.21,3.77,3.85,7-1.15,7.08-9.15,3.1-10.71C133.75,492.75,129,497.43,129,500.44Z"/><path class="cls-7" d="M107.19,484.07c-3.36,1.79-1.63,10.73,1.51,12.2a5.17,5.17,0,0,0,6.44-1.89C116.87,491.35,111.9,481.56,107.19,484.07Z"/><path class="cls-7" d="M98.07,496.27c-2.14,2.58-.57,6.38.47,7.59a4.65,4.65,0,0,0,4.25,1.67,3.49,3.49,0,0,0,2.73-3.4C105.53,497.37,99.38,494.69,98.07,496.27Z"/><path class="cls-7" d="M237.66,527.2c-5.48-4.28-24,1.06-21.51,29.28.51,5.7,1.8,9,.19,14.47-1.31,4.48,12.58,6.33,14.41,5.48C235.35,574.3,252.64,538.9,237.66,527.2Z"/><path class="cls-7" d="M214.18,578.84c-1.72,1.26-6.14,16-.17,18.71,9,4.13,14-5.22,14.74-14.2C228.93,581.17,215.68,577.74,214.18,578.84Z"/><path class="cls-7" d="M605.82,347.61c-6.13-.26-8.76,6.39-10.94,10.33-1.19,2.15-7,7.13-4,12.6a6,6,0,0,0,6.89,3.28c2.82-.76,4.58-3,7.45-2.44s6.5,2.64,8.33,2.68c3.26.08,4.65-.64,6.12-3.56,2.12-4.19-1.5-10.06-4.08-12.92C612,353.61,613,347.92,605.82,347.61Z"/><path class="cls-7" d="M612.38,331.86c-4.4-.06-7.92,6-4.83,12.12.68,1.36,4.35,2.55,6.35.77C617.62,341.45,617.47,331.93,612.38,331.86Z"/><path class="cls-7" d="M594,334.59c-3.44,1.83-1.67,11,1.54,12.49a5.29,5.29,0,0,0,6.59-1.93C603.87,342,598.79,332,594,334.59Z"/><path class="cls-7" d="M584.63,347.08c-2.19,2.64-.58,6.53.48,7.77a4.76,4.76,0,0,0,4.35,1.71,3.58,3.58,0,0,0,2.8-3.48C592.26,348.21,586,345.47,584.63,347.08Z"/><path class="cls-8" d="M555.65,427.16c-3.38.34-9.52,9.53-.69,15.65,14.46,10,64.8,11.57,81.3-1,11.23-8.54,1.52-18.76-2.7-18.22"/><path class="cls-9" d="M556.42,432.73c7.95,11,67.66,15.26,78.9-2.34,1.06-1.67-6.82-16.47-9.58-21.48C620.2,398.83,569.42,398.12,563,410,561.2,413.27,554.55,430.39,556.42,432.73Z"/><path class="cls-10" d="M569.42,411.54c4.9,5.07,16.93,5.71,27.45,5.71,8.65,0,20.1-2.3,23.33-7.24"/><path class="cls-2" d="M469.33,364.15c-2.5,5.18-2.25,12.12,2.05,15.95,3.75,3.34,9.52,3.45,14.24,1.71s8.66-5,12.68-8a141.74,141.74,0,0,1,26-15.47c3.69-1.69,7.59-3.24,11.65-3.19s13.75,2.43,15.35,6.16c2.08,4.85-23.72,26.72-31.34,32.32-18,13.24-39.06,22.18-53.82,39-6.61,7.53-11.07,19.54-4.51,27.11,6.25,7.21,17.78,5.25,26.83,2.2,2.95-1,6-2.12,8.08-4.44s2.73-6.2.61-8.47c-5.13-5.47-23.8,8.27-29,2.87-3.81-4,9-13.36,13.52-16.5l35.74-24.85c16.85-11.72,35.18-25.73,38-46.06.73-5.16.29-10.71-2.52-15.11-3.64-5.71-10.76-8.5-17.53-8.46s-13.29,2.51-19.42,5.4c-13.79,6.49-29.69,20.15-40.63,30.77-1.77-.4.15-5.9,5.37-13,10.1-13.8,41.42-44,46.86-43.37,29.73,3.39,59.25-14.38,52.49-26.59-13.82-25-61.93,15.19-78.06,30.58C490.48,335.7,476.56,349.2,469.33,364.15Z"/><path class="cls-3" d="M501.31,443.56c0-.94-.28-2.1.49-2.65s2.32,1.4,2.89.55c4.64-7,12-8.62,15.12-2.19,2.47,5.11-2.9,14.9-12,10.74-2.68-1.23-8.6,3-10.74,3.34a1.52,1.52,0,0,1-.93-.07,1.63,1.63,0,0,1-.62-1.31C494.91,447.19,501.3,448.35,501.31,443.56Z"/><path class="cls-4" d="M503.12,441.16c1.38,1.22,4.76,4.54,7.22,4.54a4.5,4.5,0,0,0,4.28-3.92c0-2.91-5.29-3.71-9.94-.32"/><path class="cls-11" d="M559.11,291.6c-7,2.22-19.12,11.67-25,17.5,6.72,1.72,35.78.61,41.6-12.61C579.07,288.8,566,289.42,559.11,291.6Z"/><circle class="cls-5" cx="507.95" cy="264.47" r="20.08"/><path class="cls-6" d="M488.17,263.27c4.15-1,6.35-4.91,9.31-8,10.47-10.9,20.47-2.74,23.18.64,4.72,5.9,3.29,12.33-2,16.67s-12.75,5.56-17.15,10.87"/><path class="cls-7" d="M607.47,263.93c-2.14,2.58-.57,6.38.47,7.59a4.65,4.65,0,0,0,4.25,1.67,3.49,3.49,0,0,0,2.73-3.4C614.93,265,608.78,262.36,607.47,263.93Z"/><path class="cls-7" d="M300.18,347.61c-6.13-.26-8.76,6.39-10.94,10.33-1.19,2.15-7,7.13-4,12.6a6,6,0,0,0,6.89,3.28c2.82-.76,4.58-3,7.45-2.44s6.5,2.64,8.33,2.68c3.26.08,4.65-.64,6.12-3.56,2.12-4.19-1.5-10.06-4.08-12.92C306.34,353.61,307.34,347.92,300.18,347.61Z"/><path class="cls-7" d="M306.74,331.86c-4.4-.06-7.92,6-4.83,12.12.68,1.36,4.35,2.55,6.35.77C312,341.45,311.83,331.93,306.74,331.86Z"/><path class="cls-7" d="M310.64,351.35c0,2.76,1.58,4.31,3.86,3.94,7.21-1.18,7.24-9.37,3.18-11C315.5,343.48,310.66,348.27,310.64,351.35Z"/><path class="cls-7" d="M288.33,334.59c-3.44,1.83-1.67,11,1.54,12.49a5.29,5.29,0,0,0,6.59-1.93C298.23,342,293.15,332,288.33,334.59Z"/><path class="cls-7" d="M279,347.08c-2.19,2.64-.58,6.53.48,7.77a4.76,4.76,0,0,0,4.35,1.71,3.58,3.58,0,0,0,2.8-3.48C286.62,348.21,280.33,345.47,279,347.08Z"/><path class="cls-7" d="M359.89,382.8c5.48-4.28,24,1.06,21.51,29.28-.51,5.7-1.8,9-.19,14.47,1.31,4.48-12.58,6.33-14.41,5.48C362.19,429.89,344.91,394.49,359.89,382.8Z"/><path class="cls-7" d="M383.37,434.43c1.72,1.26,6.14,16,.17,18.71-9,4.13-14-5.22-14.74-14.2C368.61,436.77,381.86,433.34,383.37,434.43Z"/><path class="cls-8" d="M250,427.16c-3.38.34-9.52,9.53-.69,15.65,14.46,10,64.8,11.57,81.3-1,11.23-8.54,1.52-18.76-2.7-18.22"/><path class="cls-9" d="M250.77,432.73c7.95,11,67.66,15.26,78.9-2.34,1.06-1.67-6.82-16.47-9.58-21.48-5.54-10.08-56.32-10.78-62.78,1.11C255.56,413.27,248.9,430.39,250.77,432.73Z"/><path class="cls-10" d="M263.78,411.54c4.9,5.07,16.93,5.71,27.45,5.71,8.65,0,20.1-2.3,23.33-7.24"/><path class="cls-2" d="M163.69,364.15c-2.5,5.18-2.25,12.12,2.05,15.95,3.75,3.34,9.52,3.45,14.24,1.71s8.66-5,12.68-8a141.74,141.74,0,0,1,26-15.47c3.69-1.69,7.59-3.24,11.65-3.19s13.75,2.43,15.35,6.16c2.08,4.85-23.72,26.72-31.34,32.32-18,13.24-39.06,22.18-53.82,39-6.61,7.53-11.07,19.54-4.51,27.11,6.25,7.21,17.78,5.25,26.83,2.2,2.95-1,6-2.12,8.08-4.44s2.73-6.2.61-8.47c-5.13-5.47-23.8,8.27-29,2.87-3.81-4,9-13.36,13.52-16.5l35.74-24.85c16.85-11.72,35.18-25.73,38-46.06.73-5.16.29-10.71-2.52-15.11-3.64-5.71-10.76-8.5-17.53-8.46s-13.29,2.51-19.42,5.4c-13.79,6.49-29.69,20.15-40.63,30.77-1.77-.4.15-5.9,5.37-13,10.1-13.8,41.42-44,46.86-43.37,29.73,3.39,59.25-14.38,52.49-26.59-13.82-25-61.93,15.19-78.06,30.58C184.84,335.7,170.92,349.2,163.69,364.15Z"/><path class="cls-3" d="M195.67,443.56c0-.94-.28-2.1.49-2.65s2.32,1.4,2.89.55c4.64-7,12-8.62,15.12-2.19,2.47,5.11-2.9,14.9-12,10.74-2.68-1.23-8.6,3-10.74,3.34a1.52,1.52,0,0,1-.93-.07,1.63,1.63,0,0,1-.62-1.31C189.27,447.19,195.66,448.35,195.67,443.56Z"/><path class="cls-4" d="M197.48,441.16c1.38,1.22,4.76,4.54,7.22,4.54a4.5,4.5,0,0,0,4.28-3.92c0-2.91-5.29-3.71-9.94-.32"/><path class="cls-11" d="M253.47,291.6c-7,2.22-19.12,11.67-25,17.5,6.72,1.72,35.78.61,41.6-12.61C273.43,288.8,260.34,289.42,253.47,291.6Z"/><circle class="cls-5" cx="431.07" cy="406.86" r="20.08"/><path class="cls-6" d="M417.76,421.82c2.79-4.59,13.8-11.79,23.6-10.21a9.21,9.21,0,0,1,7.09,5.92"/><path class="cls-6" d="M413.42,395.3c11.73-5.71,20.14-2.18,27.91-5.71"/><circle class="cls-5" cx="202.31" cy="264.47" r="20.08"/><path class="cls-6" d="M182.53,263.27c4.15-1,6.35-4.91,9.31-8,10.47-10.9,20.47-2.74,23.18.64,4.72,5.9,3.29,12.33-2,16.67s-12.75,5.56-17.15,10.87"/><circle class="cls-5" cx="366.42" cy="323.39" r="20.08"/><path class="cls-6" d="M382.56,309.79c-2.64-1-7.29,2.08-9.2,10.57-2.08,9.26,3.33,18.48,5.23,19.33"/><path class="cls-6" d="M357.48,304.1c-8.66,3.42-9.47,32.4-4.85,35"/><path class="cls-12" d="M385,273a16.94,16.94,0,0,1-7.22-2.5c-2.09-1.49-3.59-4.07-3.12-6.6.53-2.81,3.29-4.72,6.08-5.38a29.18,29.18,0,0,1,8.56-.52c6.36.42,38.14-9.42,41.92-12,3.15-2.15,2.72-12.21,9.28-12.13,2.87,0,5.87,1.17,7.1,3.77,1.05,2.23,1.09,6.67.82,9.11"/><path class="cls-12" d="M379.84,273.16c-3,4.35.15,10.39,6.27,9.78,6.9-.68,9-9.17,11.07-12s34.26-14.33,46.58-13.2c4,.37,8.78,1.25,11.58-1.68,2-2.09,2.06-5.57.6-8.06a11.08,11.08,0,0,0-7-4.79"/><path class="cls-7" d="M322.53,264.45c-6-.25-8.56,6.25-10.69,10.1-1.16,2.1-6.79,7-3.91,12.31a5.9,5.9,0,0,0,6.73,3.21c2.76-.74,4.48-2.94,7.28-2.39s6.35,2.58,8.14,2.62c3.19.08,4.54-.63,6-3.48,2.07-4.09-1.47-9.83-4-12.63C328.56,270.31,329.54,264.75,322.53,264.45Z"/><path class="cls-7" d="M328.95,249.06c-4.3-.06-7.74,5.85-4.72,11.85.67,1.33,4.25,2.49,6.2.76C334.07,258.43,333.92,249.13,328.95,249.06Z"/><path class="cls-7" d="M332.76,268.11c0,2.7,1.54,4.21,3.77,3.85,7-1.15,7.08-9.15,3.1-10.71C337.51,260.41,332.78,265.1,332.76,268.11Z"/><path class="cls-7" d="M311,251.73c-3.36,1.79-1.63,10.73,1.51,12.2A5.17,5.17,0,0,0,318.9,262C320.63,259,315.66,249.22,311,251.73Z"/><path class="cls-7" d="M301.83,263.93c-2.14,2.58-.57,6.38.47,7.59a4.65,4.65,0,0,0,4.25,1.67,3.49,3.49,0,0,0,2.73-3.4C309.29,265,303.14,262.36,301.83,263.93Z"/><path class="cls-7" d="M441.42,294.87c-5.48-4.28-24,1.06-21.51,29.28.51,5.7,1.8,9,.19,14.47-1.31,4.48,12.58,6.33,14.41,5.48C439.11,342,456.4,306.56,441.42,294.87Z"/><path class="cls-7" d="M417.94,346.5c-1.72,1.26-6.14,16-.17,18.71,9,4.13,14-5.22,14.74-14.2C432.69,348.84,419.44,345.4,417.94,346.5Z"/><path class="cls-7" d="M-5.47,347.61c-6.13-.26-8.76,6.39-10.94,10.33-1.19,2.15-7,7.13-4,12.6a6,6,0,0,0,6.89,3.28c2.82-.76,4.58-3,7.45-2.44s6.5,2.64,8.33,2.68c3.26.08,4.65-.64,6.12-3.56,2.12-4.19-1.5-10.06-4.08-12.92C.7,353.61,1.7,347.92-5.47,347.61Z"/><path class="cls-7" d="M1.1,331.86c-4.4-.06-7.92,6-4.83,12.12.68,1.36,4.35,2.55,6.35.77C6.34,341.45,6.19,331.93,1.1,331.86Z"/><path class="cls-7" d="M5,351.35c0,2.76,1.58,4.31,3.86,3.94,7.21-1.18,7.24-9.37,3.18-11C9.86,343.48,5,348.27,5,351.35Z"/><path class="cls-7" d="M54.25,382.8c5.48-4.28,24,1.06,21.51,29.28-.51,5.7-1.8,9-.19,14.47C76.88,431,63,432.88,61.16,432,56.55,429.89,39.27,394.49,54.25,382.8Z"/><path class="cls-7" d="M77.73,434.43c1.72,1.26,6.14,16,.17,18.71-9,4.13-14-5.22-14.74-14.2C63,436.77,76.22,433.34,77.73,434.43Z"/><path class="cls-8" d="M-55.63,427.16c-3.38.34-9.52,9.53-.69,15.65,14.46,10,64.8,11.57,81.3-1,11.23-8.54,1.52-18.76-2.7-18.22"/><path class="cls-9" d="M-54.87,432.73c7.95,11,67.66,15.26,78.9-2.34,1.06-1.67-6.82-16.47-9.58-21.48C8.92,398.83-41.87,398.12-48.32,410-50.08,413.27-56.74,430.39-54.87,432.73Z"/><path class="cls-10" d="M-41.87,411.54c4.9,5.07,16.93,5.71,27.45,5.71,8.65,0,20.1-2.3,23.33-7.24"/><circle class="cls-5" cx="125.43" cy="406.86" r="20.08"/><path class="cls-6" d="M112.12,421.82c2.79-4.59,13.8-11.79,23.6-10.21a9.21,9.21,0,0,1,7.09,5.92"/><path class="cls-6" d="M107.78,395.3c11.73-5.71,20.14-2.18,27.91-5.71"/><circle class="cls-5" cx="60.78" cy="323.39" r="20.08"/><path class="cls-6" d="M76.92,309.79c-2.64-1-7.29,2.08-9.2,10.57-2.08,9.26,3.33,18.48,5.23,19.33"/><path class="cls-6" d="M51.84,304.1c-8.66,3.42-9.47,32.4-4.85,35"/><path class="cls-12" d="M79.36,273a16.94,16.94,0,0,1-7.22-2.5c-2.09-1.49-3.59-4.07-3.12-6.6.53-2.81,3.29-4.72,6.08-5.38a29.18,29.18,0,0,1,8.56-.52c6.36.42,38.14-9.42,41.92-12,3.15-2.15,2.72-12.21,9.28-12.13,2.87,0,5.87,1.17,7.1,3.77,1.05,2.23,1.09,6.67.82,9.11"/><path class="cls-12" d="M74.2,273.16c-3,4.35.15,10.39,6.27,9.78,6.9-.68,9-9.17,11.07-12s34.26-14.33,46.58-13.2c4,.37,8.78,1.25,11.58-1.68,2-2.09,2.06-5.57.6-8.06a11.08,11.08,0,0,0-7-4.79"/><path class="cls-7" d="M16.89,264.45c-6-.25-8.56,6.25-10.69,10.1-1.16,2.1-6.79,7-3.91,12.31A5.9,5.9,0,0,0,9,290.07c2.76-.74,4.48-2.94,7.28-2.39s6.35,2.58,8.14,2.62c3.19.08,4.54-.63,6-3.48,2.07-4.09-1.47-9.83-4-12.63C22.92,270.31,23.9,264.75,16.89,264.45Z"/><path class="cls-7" d="M23.31,249.06c-4.3-.06-7.74,5.85-4.72,11.85.67,1.33,4.25,2.49,6.2.76C28.43,258.43,28.28,249.13,23.31,249.06Z"/><path class="cls-7" d="M27.12,268.11c0,2.7,1.54,4.21,3.77,3.85,7-1.15,7.08-9.15,3.1-10.71C31.87,260.41,27.14,265.1,27.12,268.11Z"/><path class="cls-7" d="M5.31,251.73c-3.36,1.79-1.63,10.73,1.51,12.2A5.17,5.17,0,0,0,13.26,262C15,259,10,249.22,5.31,251.73Z"/><path class="cls-7" d="M-3.81,263.93c-2.14,2.58-.57,6.38.47,7.59a4.65,4.65,0,0,0,4.25,1.67,3.49,3.49,0,0,0,2.73-3.4C3.65,265-2.5,262.36-3.81,263.93Z"/><path class="cls-7" d="M135.78,294.87c-5.48-4.28-24,1.06-21.51,29.28.51,5.7,1.8,9,.19,14.47-1.31,4.48,12.58,6.33,14.41,5.48C133.47,342,150.76,306.56,135.78,294.87Z"/><path class="cls-7" d="M112.3,346.5c-1.72,1.26-6.14,16-.17,18.71,9,4.13,14-5.22,14.74-14.2C127,348.84,113.8,345.4,112.3,346.5Z"/><path class="cls-7" d="M503.94,115.28c-6.13-.26-8.76,6.39-10.94,10.33-1.19,2.15-7,7.13-4,12.6a6,6,0,0,0,6.89,3.28c2.82-.76,4.58-3,7.45-2.44s6.5,2.64,8.33,2.68c3.26.08,4.65-.64,6.12-3.56,2.12-4.19-1.5-10.06-4.08-12.92C510.1,121.27,511.11,115.58,503.94,115.28Z"/><path class="cls-7" d="M510.5,99.53c-4.4-.06-7.92,6-4.83,12.12.68,1.36,4.35,2.55,6.35.77C515.74,109.11,515.59,99.6,510.5,99.53Z"/><path class="cls-7" d="M514.4,119c0,2.76,1.58,4.31,3.86,3.94,7.21-1.18,7.24-9.37,3.18-11C519.26,111.14,514.42,115.93,514.4,119Z"/><path class="cls-7" d="M492.09,102.26c-3.44,1.83-1.67,11,1.54,12.49a5.29,5.29,0,0,0,6.59-1.93C502,109.7,496.91,99.69,492.09,102.26Z"/><path class="cls-7" d="M482.75,114.74c-2.19,2.64-.58,6.53.48,7.77a4.76,4.76,0,0,0,4.35,1.71,3.58,3.58,0,0,0,2.8-3.48C490.38,115.87,484.09,113.13,482.75,114.74Z"/><path class="cls-7" d="M563.65,150.46c5.48-4.28,24,1.06,21.51,29.28-.51,5.7-1.8,9-.19,14.47,1.31,4.48-12.58,6.33-14.41,5.48C566,197.56,548.67,162.16,563.65,150.46Z"/><path class="cls-7" d="M587.13,202.1c1.72,1.26,6.14,16,.17,18.71-9,4.13-14-5.22-14.74-14.2C572.38,204.44,585.62,201,587.13,202.1Z"/><path class="cls-8" d="M453.77,194.83c-3.38.34-9.52,9.53-.69,15.65,14.46,10,64.8,11.57,81.3-1,11.23-8.54,1.52-18.76-2.7-18.22"/><path class="cls-9" d="M454.54,200.39c7.95,11,67.66,15.26,78.9-2.34,1.06-1.67-6.82-16.47-9.58-21.48-5.54-10.08-56.32-10.78-62.78,1.11C459.32,180.93,452.66,198.05,454.54,200.39Z"/><path class="cls-10" d="M467.54,179.21c4.9,5.07,16.93,5.71,27.45,5.71,8.65,0,20.1-2.3,23.33-7.24"/><path class="cls-2" d="M367.45,131.81c-2.5,5.18-2.25,12.12,2.05,15.95,3.75,3.34,9.52,3.45,14.24,1.71s8.66-5,12.68-8a141.74,141.74,0,0,1,26-15.47c3.69-1.69,7.59-3.24,11.65-3.19s13.75,2.43,15.35,6.16c2.08,4.85-23.72,26.72-31.34,32.32-18,13.24-39.06,22.18-53.82,39-6.61,7.53-11.07,19.54-4.51,27.11,6.25,7.21,17.78,5.25,26.83,2.2,2.95-1,6-2.12,8.08-4.44s2.73-6.2.61-8.47c-5.13-5.47-23.8,8.27-29,2.87-3.81-4,9-13.36,13.52-16.5l35.74-24.85c16.85-11.72,35.18-25.73,38-46.06.73-5.16.29-10.71-2.52-15.11-3.64-5.71-10.76-8.5-17.53-8.46s-13.29,2.51-19.42,5.4c-13.79,6.49-29.69,20.15-40.63,30.77-1.77-.4.15-5.9,5.37-13,10.1-13.8,41.42-44,46.86-43.37C455.48,91.71,485,74,478.24,61.74c-13.82-25-61.93,15.19-78.06,30.58C388.6,103.36,374.68,116.86,367.45,131.81Z"/><path class="cls-3" d="M399.43,211.22c0-.94-.28-2.1.49-2.65s2.32,1.4,2.89.55c4.64-7,12-8.62,15.12-2.19,2.47,5.11-2.9,14.9-12,10.74-2.68-1.23-8.6,3-10.74,3.34a1.52,1.52,0,0,1-.93-.07,1.63,1.63,0,0,1-.62-1.31C393,214.85,399.42,216,399.43,211.22Z"/><path class="cls-4" d="M401.24,208.82c1.38,1.22,4.76,4.54,7.22,4.54a4.5,4.5,0,0,0,4.28-3.92c0-2.91-5.29-3.71-9.94-.32"/><path class="cls-11" d="M457.23,59.26c-7,2.22-19.12,11.67-25,17.5,6.72,1.72,35.78.61,41.6-12.61C477.19,56.47,464.1,57.09,457.23,59.26Z"/><circle class="cls-5" cx="406.07" cy="32.13" r="20.08"/><path class="cls-6" d="M386.29,30.93c4.15-1,6.35-4.91,9.31-8,10.47-10.9,20.47-2.74,23.18.64,4.72,5.9,3.29,12.33-2,16.67s-12.75,5.56-17.15,10.87"/><circle class="cls-5" cx="570.18" cy="91.05" r="20.08"/><path class="cls-6" d="M586.32,77.46c-2.64-1-7.29,2.08-9.2,10.57-2.08,9.26,3.33,18.48,5.23,19.33"/><path class="cls-6" d="M561.24,71.76c-8.66,3.42-9.47,32.4-4.85,35"/><path class="cls-12" d="M588.76,40.63a16.94,16.94,0,0,1-7.22-2.5c-2.09-1.49-3.59-4.07-3.12-6.6.53-2.81,3.29-4.72,6.08-5.38a29.18,29.18,0,0,1,8.56-.52c6.36.42,38.14-9.42,41.92-12,3.15-2.15,2.72-12.21,9.28-12.13,2.87,0,5.87,1.17,7.1,3.77,1.05,2.23,1.09,6.67.82,9.11"/><path class="cls-12" d="M583.6,40.83c-3,4.35.15,10.39,6.27,9.78,6.9-.68,9-9.17,11.07-12s34.26-14.33,46.58-13.2c4,.37,8.78,1.25,11.58-1.68,2-2.09,2.06-5.57.6-8.06a11.08,11.08,0,0,0-7-4.79"/><path class="cls-7" d="M526.29,32.12c-6-.25-8.56,6.25-10.69,10.1-1.16,2.1-6.79,7-3.91,12.31a5.9,5.9,0,0,0,6.73,3.21c2.76-.74,4.48-2.94,7.28-2.39s6.35,2.58,8.14,2.62c3.19.08,4.54-.63,6-3.48,2.07-4.09-1.47-9.83-4-12.63C532.32,38,533.3,32.41,526.29,32.12Z"/><path class="cls-7" d="M532.71,16.73c-4.3-.06-7.74,5.85-4.72,11.85.67,1.33,4.25,2.49,6.2.76C537.83,26.09,537.68,16.79,532.71,16.73Z"/><path class="cls-7" d="M536.52,35.77c0,2.7,1.54,4.21,3.77,3.85,7-1.15,7.08-9.15,3.1-10.71C541.27,28.07,536.54,32.76,536.52,35.77Z"/><path class="cls-7" d="M514.72,19.39c-3.36,1.79-1.63,10.73,1.51,12.2a5.17,5.17,0,0,0,6.44-1.89C524.39,26.67,519.42,16.89,514.72,19.39Z"/><path class="cls-7" d="M505.59,31.6c-2.14,2.58-.57,6.38.47,7.59a4.65,4.65,0,0,0,4.25,1.67,3.49,3.49,0,0,0,2.73-3.4C513,32.7,506.9,30,505.59,31.6Z"/><path class="cls-7" d="M198.3,115.28c-6.13-.26-8.76,6.39-10.94,10.33-1.19,2.15-7,7.13-4,12.6a6,6,0,0,0,6.89,3.28c2.82-.76,4.58-3,7.45-2.44s6.5,2.64,8.33,2.68c3.26.08,4.65-.64,6.12-3.56,2.12-4.19-1.5-10.06-4.08-12.92C204.46,121.27,205.46,115.58,198.3,115.28Z"/><path class="cls-7" d="M204.86,99.53c-4.4-.06-7.92,6-4.83,12.12.68,1.36,4.35,2.55,6.35.77C210.1,109.11,209.95,99.6,204.86,99.53Z"/><path class="cls-7" d="M208.76,119c0,2.76,1.58,4.31,3.86,3.94,7.21-1.18,7.24-9.37,3.18-11C213.62,111.14,208.78,115.93,208.76,119Z"/><path class="cls-7" d="M186.45,102.26c-3.44,1.83-1.67,11,1.54,12.49a5.29,5.29,0,0,0,6.59-1.93C196.35,109.7,191.27,99.69,186.45,102.26Z"/><path class="cls-7" d="M177.11,114.74c-2.19,2.64-.58,6.53.48,7.77a4.76,4.76,0,0,0,4.35,1.71,3.58,3.58,0,0,0,2.8-3.48C184.74,115.87,178.45,113.13,177.11,114.74Z"/><path class="cls-7" d="M258,150.46c5.48-4.28,24,1.06,21.51,29.28-.51,5.7-1.8,9-.19,14.47,1.31,4.48-12.58,6.33-14.41,5.48C260.31,197.56,243,162.16,258,150.46Z"/><path class="cls-7" d="M281.49,202.1c1.72,1.26,6.14,16,.17,18.71-9,4.13-14-5.22-14.74-14.2C266.73,204.44,280,201,281.49,202.1Z"/><path class="cls-8" d="M148.13,194.83c-3.38.34-9.52,9.53-.69,15.65,14.46,10,64.8,11.57,81.3-1,11.23-8.54,1.52-18.76-2.7-18.22"/><path class="cls-9" d="M148.89,200.39c7.95,11,67.66,15.26,78.9-2.34,1.06-1.67-6.82-16.47-9.58-21.48-5.54-10.08-56.32-10.78-62.78,1.11C153.68,180.93,147,198.05,148.89,200.39Z"/><path class="cls-10" d="M161.89,179.21c4.9,5.07,16.93,5.71,27.45,5.71,8.65,0,20.1-2.3,23.33-7.24"/><path class="cls-2" d="M61.81,131.81c-2.5,5.18-2.25,12.12,2.05,15.95,3.75,3.34,9.52,3.45,14.24,1.71s8.66-5,12.68-8a141.74,141.74,0,0,1,26-15.47c3.69-1.69,7.59-3.24,11.65-3.19s13.75,2.43,15.35,6.16c2.08,4.85-23.72,26.72-31.34,32.32-18,13.24-39.06,22.18-53.82,39-6.61,7.53-11.07,19.54-4.51,27.11,6.25,7.21,17.78,5.25,26.83,2.2,2.95-1,6-2.12,8.08-4.44s2.73-6.2.61-8.47c-5.13-5.47-23.8,8.27-29,2.87-3.81-4,9-13.36,13.52-16.5l35.74-24.85c16.85-11.72,35.18-25.73,38-46.06.73-5.16.29-10.71-2.52-15.11-3.64-5.71-10.76-8.5-17.53-8.46s-13.29,2.51-19.42,5.4c-13.79,6.49-29.69,20.15-40.63,30.77-1.77-.4.15-5.9,5.37-13,10.1-13.8,41.42-44,46.86-43.37C149.84,91.71,179.36,74,172.6,61.74c-13.82-25-61.93,15.19-78.06,30.58C83,103.36,69,116.86,61.81,131.81Z"/><path class="cls-3" d="M93.79,211.22c0-.94-.28-2.1.49-2.65s2.32,1.4,2.89.55c4.64-7,12-8.62,15.12-2.19,2.47,5.11-2.9,14.9-12,10.74-2.68-1.23-8.6,3-10.74,3.34a1.52,1.52,0,0,1-.93-.07,1.63,1.63,0,0,1-.62-1.31C87.39,214.85,93.77,216,93.79,211.22Z"/><path class="cls-4" d="M95.6,208.82c1.38,1.22,4.76,4.54,7.22,4.54a4.5,4.5,0,0,0,4.28-3.92c0-2.91-5.29-3.71-9.94-.32"/><path class="cls-11" d="M151.59,59.26c-7,2.22-19.12,11.67-25,17.5,6.72,1.72,35.78.61,41.6-12.61C171.55,56.47,158.46,57.09,151.59,59.26Z"/><circle class="cls-5" cx="329.19" cy="174.53" r="20.08"/><path class="cls-6" d="M315.88,189.49c2.79-4.59,13.8-11.79,23.6-10.21a9.21,9.21,0,0,1,7.09,5.92"/><path class="cls-6" d="M311.54,163c11.73-5.71,20.14-2.18,27.91-5.71"/><circle class="cls-5" cx="100.43" cy="32.13" r="20.08"/><path class="cls-6" d="M80.64,30.93c4.15-1,6.35-4.91,9.31-8,10.47-10.9,20.47-2.74,23.18.64,4.72,5.9,3.29,12.33-2,16.67S98.43,45.82,94,51.12"/><circle class="cls-5" cx="264.54" cy="91.05" r="20.08"/><path class="cls-6" d="M280.68,77.46c-2.64-1-7.29,2.08-9.2,10.57-2.08,9.26,3.33,18.48,5.23,19.33"/><path class="cls-6" d="M255.6,71.76c-8.66,3.42-9.47,32.4-4.85,35"/><path class="cls-12" d="M283.12,40.63a16.94,16.94,0,0,1-7.22-2.5c-2.09-1.49-3.59-4.07-3.12-6.6.53-2.81,3.29-4.72,6.08-5.38a29.18,29.18,0,0,1,8.56-.52c6.36.42,38.14-9.42,41.92-12,3.15-2.15,2.72-12.21,9.28-12.13,2.87,0,5.87,1.17,7.1,3.77,1.05,2.23,1.09,6.67.82,9.11"/><path class="cls-12" d="M278,40.83c-3,4.35.15,10.39,6.27,9.78,6.9-.68,9-9.17,11.07-12s34.26-14.33,46.58-13.2c4,.37,8.78,1.25,11.58-1.68,2-2.09,2.06-5.57.6-8.06a11.08,11.08,0,0,0-7-4.79"/><path class="cls-7" d="M220.65,32.12c-6-.25-8.56,6.25-10.69,10.1-1.16,2.1-6.79,7-3.91,12.31a5.9,5.9,0,0,0,6.73,3.21c2.76-.74,4.48-2.94,7.28-2.39s6.35,2.58,8.14,2.62c3.19.08,4.54-.63,6-3.48,2.07-4.09-1.47-9.83-4-12.63C226.68,38,227.66,32.41,220.65,32.12Z"/><path class="cls-7" d="M227.07,16.73c-4.3-.06-7.74,5.85-4.72,11.85.67,1.33,4.25,2.49,6.2.76C232.19,26.09,232,16.79,227.07,16.73Z"/><path class="cls-7" d="M230.88,35.77c0,2.7,1.54,4.21,3.77,3.85,7-1.15,7.08-9.15,3.1-10.71C235.63,28.07,230.9,32.76,230.88,35.77Z"/><path class="cls-7" d="M209.07,19.39c-3.36,1.79-1.63,10.73,1.51,12.2A5.17,5.17,0,0,0,217,29.7C218.75,26.67,213.78,16.89,209.07,19.39Z"/><path class="cls-7" d="M200,31.6c-2.14,2.58-.57,6.38.47,7.59a4.65,4.65,0,0,0,4.25,1.67,3.49,3.49,0,0,0,2.73-3.4C207.41,32.7,201.26,30,200,31.6Z"/><path class="cls-7" d="M339.54,62.53c-5.48-4.28-24,1.06-21.51,29.28.51,5.7,1.8,9,.19,14.47-1.31,4.48,12.58,6.33,14.41,5.48C337.23,109.62,354.52,74.22,339.54,62.53Z"/><path class="cls-7" d="M316.06,114.16c-1.72,1.26-6.14,16-.17,18.71,9,4.13,14-5.22,14.74-14.2C330.81,116.5,317.56,113.07,316.06,114.16Z"/><circle class="cls-5" cx="23.55" cy="174.53" r="20.08"/><path class="cls-6" d="M10.24,189.49C13,184.9,24,177.69,33.84,179.28a9.21,9.21,0,0,1,7.09,5.92"/><path class="cls-6" d="M5.89,163c11.73-5.71,20.14-2.18,27.91-5.71"/><path class="cls-12" d="M-22.52,40.63a16.94,16.94,0,0,1-7.22-2.5c-2.09-1.49-3.59-4.07-3.12-6.6.53-2.81,3.29-4.72,6.08-5.38a29.18,29.18,0,0,1,8.56-.52c6.36.42,38.14-9.42,41.92-12C26.85,11.48,26.43,1.43,33,1.5c2.87,0,5.87,1.17,7.1,3.77,1.05,2.23,1.09,6.67.82,9.11"/><path class="cls-12" d="M-27.68,40.83c-3,4.35.15,10.39,6.27,9.78,6.9-.68,9-9.17,11.07-12s34.26-14.33,46.58-13.2c4,.37,8.78,1.25,11.58-1.68,2-2.09,2.06-5.57.6-8.06a11.08,11.08,0,0,0-7-4.79"/><path class="cls-7" d="M33.9,62.53c-5.48-4.28-24,1.06-21.51,29.28.51,5.7,1.8,9,.19,14.47-1.31,4.48,12.58,6.33,14.41,5.48C31.59,109.62,48.87,74.22,33.9,62.53Z"/><path class="cls-7" d="M10.42,114.16c-1.72,1.26-6.14,16-.17,18.71,9,4.13,14-5.22,14.74-14.2C25.17,116.5,11.92,113.07,10.42,114.16Z"/></pattern></defs><title>barks_rec_pattern</title><rect class="cls-13" width="1050" height="350"/></svg>