<svg xmlns="http://www.w3.org/2000/svg" viewBox="0 0 576 432"><defs><style>.cls-1,.cls-3{fill:none;stroke:#f59493;stroke-linejoin:round;stroke-width:5px;}.cls-2,.cls-8{fill:#f59493;}.cls-3{stroke-linecap:round;}.cls-4{font-size:59.68px;fill:#f59089;}.cls-4,.cls-8{font-family:Baloo-Regular, Baloo;}.cls-5{letter-spacing:-0.01em;}.cls-6{letter-spacing:0em;}.cls-7{letter-spacing:-0.01em;}.cls-8{font-size:26.43px;}.cls-9{letter-spacing:-0.02em;}.cls-10{letter-spacing:-0.02em;}.cls-11{letter-spacing:-0.01em;}.cls-12{letter-spacing:0em;}.cls-13{letter-spacing:-0.01em;}.cls-14{letter-spacing:0em;}.cls-15{letter-spacing:-0.02em;}</style></defs><title>barks_rec2</title><g id="Layer_3" data-name="Layer 3"><path class="cls-1" d="M537.93,121.85c-6.57-13.4-42.52-45.16-72-58.15-18.73-8.25-37.9-8.43-51.33-6.27s-28.92,6.85-32.33,9.6c-31-5.65-77.24,40.88-71.83,73.77,3.57,21.71-27,83-9.5,94.62,22,14.67,13.79-11.75,41.36-31.71,14.28-10.34,46-54.53,42.58-62.1,24.95-1.82,35.5-1.6,55.39,13.57,26.67,20.33,53,134.3,98.67,161.67C538.51,316.6,543.41,133,537.93,121.85Z"/><path class="cls-2" d="M389.06,58.69c8.36,1.68,16.06,5.63,23.65,9.52l16.16,8.31c-14.4,18-39.79,15.42-59.15,8.37C342.26,74.9,370.23,54.9,389.06,58.69Z"/><path class="cls-3" d="M342.46,181.16c-2.06,14.71-7.25,28.81-16.69,40.28"/><path class="cls-3" d="M334.46,127.85c-.72,6.94-1.52,15.67-11.38,21.35"/><path class="cls-2" d="M308.39,227.24c2,2.44,4.4,4.51,7.5,5,.82.14,2.38-.17,1.94.54a24.45,24.45,0,0,1-5.94,5.84c-1.11.64-7.64-.47-10.33-1.72-1.42-.66-5.43-4.15-5.1-6.13.21-1.24,4.05-2.28,7.94-4.32A3.35,3.35,0,0,1,308.39,227.24Z"/><path class="cls-1" d="M38.07,121.85c6.57-13.4,42.52-45.16,72-58.15,18.73-8.25,37.9-8.43,51.33-6.27s28.92,6.85,32.33,9.6c31-5.65,77.24,40.88,71.83,73.77-3.57,21.71,27,83,9.5,94.62-22,14.67-13.79-11.75-41.36-31.71-14.28-10.34-46-54.53-42.58-62.1-24.95-1.82-35.5-1.6-55.39,13.57-26.67,20.33-53,134.3-98.67,161.67C37.49,316.6,32.59,133,38.07,121.85Z"/><path class="cls-2" d="M186.94,58.69c-8.36,1.68-16.06,5.63-23.65,9.52l-16.16,8.31c14.4,18,39.79,15.42,59.15,8.37C233.74,74.9,205.77,54.9,186.94,58.69Z"/><path class="cls-3" d="M233.54,181.16c2.06,14.71,7.25,28.81,16.69,40.28"/><path class="cls-3" d="M241.54,127.85c.72,6.94,1.52,15.67,11.38,21.35"/><path class="cls-2" d="M267.61,227.24c-2,2.44-4.4,4.51-7.5,5-.82.14-2.38-.17-1.94.54a24.45,24.45,0,0,0,5.94,5.84c1.11.64,7.64-.47,10.33-1.72,1.42-.66,5.43-4.15,5.1-6.13-.21-1.24-4.05-2.28-7.94-4.32A3.35,3.35,0,0,0,267.61,227.24Z"/><text class="cls-4" transform="translate(129.74 316.31)">Bar<tspan class="cls-5" x="93.93" y="0">k</tspan><tspan class="cls-6" x="126.33" y="0">s &amp; </tspan><tspan class="cls-7" x="219.72" y="0">R</tspan><tspan x="255.17" y="0">ec</tspan></text><text class="cls-8" transform="translate(133.13 361.88)"><tspan class="cls-9">P</tspan><tspan class="cls-10" x="14.83" y="0">r</tspan><tspan x="25.19" y="0">emier </tspan><tspan class="cls-11" x="100.18" y="0">P</tspan><tspan class="cls-12" x="115.14" y="0">ooch </tspan><tspan class="cls-13" x="179.79" y="0">P</tspan><tspan class="cls-14" x="194.89" y="0">ampe</tspan><tspan class="cls-15" x="261.6" y="0">r</tspan><tspan x="271.96" y="0">ers</tspan></text></g></svg>