<svg id="bjk_Image" data-name="bjk Image" xmlns="http://www.w3.org/2000/svg" viewBox="0 0 554.28 496.8"><title>billie_jean_king_bw</title><path d="M75.84,175.94a7.08,7.08,0,0,1,1.36-1.16,19.06,19.06,0,0,0,4.73-3.63,3,3,0,0,0,1.07-2c.21-2,.49-4,.72-5.94a56.25,56.25,0,0,1,.82-6.89,10.31,10.31,0,0,0-.33-6.36c-.53-.17-.71.2-.89.55s-.46,1-.73,1.51a2.76,2.76,0,0,1-3,1.46,4.09,4.09,0,0,1-2.82-1.6,8,8,0,0,1-2-5c0-1.28,0-2.56,0-3.84a1.72,1.72,0,0,0-.63-1.48,31,31,0,0,1-4.54-4.59c-.66-.8-1.32-1.6-2-2.4a16.67,16.67,0,0,0-1.49-1.87c-2.41-2.23-3.14-5.13-3.26-8.23a29.39,29.39,0,0,1,.4-6.69,27.77,27.77,0,0,0,.27-9.07,8.92,8.92,0,0,1-.07-1.2,3.1,3.1,0,0,1,1.45-2.85,9.39,9.39,0,0,0,.84-.69c0-.65,0-1.36,0-2.07a29.64,29.64,0,0,1,.42-6.92,10.52,10.52,0,0,1,2.09-4.78,5.31,5.31,0,0,0,1.28-4.21c-.2-1.91-.35-3.82-.55-5.73a23,23,0,0,1,1.78-12c.53-1.17,1.09-2.32,1.62-3.48a10.77,10.77,0,0,1,2.35-3.3c.63-.61,1.18-1.31,1.81-1.92a8.29,8.29,0,0,0,2.24-3.89,11.49,11.49,0,0,1,5.13-7,4.23,4.23,0,0,0,1.81-2.41,40.77,40.77,0,0,1,6-11.12,10.29,10.29,0,0,1,4.33-3.7A3.44,3.44,0,0,0,97.61,30a19.41,19.41,0,0,1,4.45-4.79,6.35,6.35,0,0,1,2-4.9,9.24,9.24,0,0,1,6.33-3,4.15,4.15,0,0,0,3.08-1.08,10.14,10.14,0,0,1,5.1-2.5,14,14,0,0,0,3.45-.92,12.21,12.21,0,0,0,2.55-2.49,4.94,4.94,0,0,1,5.71-1.25A9.28,9.28,0,0,1,134.64,12c1.14,1.44,2.4,2.78,3.62,4.16a3.07,3.07,0,0,0,.56.4,3.08,3.08,0,0,0,1.24-2,5.77,5.77,0,0,1,2.53-3.08c.67-.44,1.34-.87,2-1.26a2.35,2.35,0,0,1,3.25.42,10.6,10.6,0,0,1,1.69,2c1,1.62,1.92,3.3,3,5.14.19,0,.56,0,.94-.06a12.15,12.15,0,0,1,2.83-.26c2,.3,4.07.77,6.09,1.26a3.47,3.47,0,0,1,1.4.88,32.88,32.88,0,0,1,3.06,3,6,6,0,0,0,2.46,1.81,13.4,13.4,0,0,1,5.61,4c1.2,1.49,2.67,2.77,3.81,4.29a45.78,45.78,0,0,1,5.63,8.59,7.59,7.59,0,0,1,.75,4.63,3.58,3.58,0,0,0,.81,3.1,40.6,40.6,0,0,1,5.4,9.3,2.23,2.23,0,0,0,.22.43c2,2.89,2.81,6.2,3.49,9.59a30.06,30.06,0,0,1,.84,5.91c0,1,0,1.91,0,2.85-.17,2.07-.45,4.13-.61,6.21a28.13,28.13,0,0,0,.29,7.4,63.55,63.55,0,0,1,.81,9.55c.14,3.91.35,7.82.5,11.73a29.13,29.13,0,0,1-.13,3.1c0,.55-.23,1.1-.24,1.66,0,5.21-1.64,10.05-3.48,14.85a24.28,24.28,0,0,1-2.26,5.26,8.91,8.91,0,0,1-.48.83c-2.09,2.43-3.07,5.38-4,8.35-.49,1.52-1.05,3-1.58,4.53-.21.6-.4,1.2-.63,1.92a9.21,9.21,0,0,0,1.38.52c1.17.24,2.36.42,3.54.62a37.8,37.8,0,0,1,6,1.53,107.6,107.6,0,0,1,12.93,5.11,31.55,31.55,0,0,1,3.34,1.88c3.2,2.11,6.41,4.22,9.53,6.45a30.48,30.48,0,0,1,4.14,3.61c1.72,1.78,3.29,3.7,4.92,5.56.32.36.59.76.94,1.09,3.1,3,5.32,6.58,7.51,10.21a35.26,35.26,0,0,0,9.36,10.17,38,38,0,0,0,4.29,2.62q5.45,3,11,5.94a53,53,0,0,1,7.28,5c.51.39,1,.82,1.51,1.17,5,3.29,9.22,7.39,13.48,11.51S293.75,233.8,298,238c1.43,1.39,2.79,2.86,4.28,4.18a28.83,28.83,0,0,0,10.47,5.68,32.41,32.41,0,0,0,4.24.69c3.14.56,6.29,1.14,9.43,1.72,1.33.25,2.66.49,4,.78,1,.22,2,.58,3,.77a42.27,42.27,0,0,1,11.4,4.25c3.42,1.73,6.88,3.41,10.2,5.31s6.59,3.59,10,5.2a1,1,0,0,1,.21.11c2.69,2.23,6.06,3.21,9,4.9a5,5,0,0,0,4.34.6,14.07,14.07,0,0,1,1.56-.37,15.52,15.52,0,0,0,.39-1.79c.49-4.69,1-9.38,1.4-14.08a38.64,38.64,0,0,0,.2-5.27,101.56,101.56,0,0,1,.94-16.26c.33-2.94.54-5.89.85-8.83.14-1.35.38-2.69.6-4,.17-1,.4-2,.58-3.06a112.6,112.6,0,0,1,3.52-14.43c.57-1.83,1-3.71,1.61-5.53,1-3,2.17-6,3.29-9,.36-1,.81-1.91,1.16-2.89a100.82,100.82,0,0,1,5.81-13.15c2.49-4.76,5.54-9.16,8.3-13.75,1.28-2.12,2.47-4.31,3.92-6.31A81.17,81.17,0,0,1,424.27,140q1.17-1,2.25-2.16a36.59,36.59,0,0,1,5.14-4.3c2.2-1.58,4.33-3.28,6.44-5a72.84,72.84,0,0,1,8-5.31c1.23-.74,2.36-1.64,3.59-2.38a25,25,0,0,1,2.78-1.39q2.85-1.27,5.72-2.48c1.92-.8,3.9-1.45,5.76-2.38,2.3-1.14,4.75-1.89,7.11-2.85a61.2,61.2,0,0,1,21.55-4.17A38.88,38.88,0,0,1,504,109.16a13.32,13.32,0,0,1,2.2.93c.79.38,1.55.84,2.34,1.21a49.08,49.08,0,0,1,5.64,3.15c1.74,1.13,3.58,2.1,5.37,3.16a87.12,87.12,0,0,1,9.59,6.75,27.22,27.22,0,0,1,4.66,4.46,6.72,6.72,0,0,0,1,1,18.46,18.46,0,0,1,5.57,8.21,79.1,79.1,0,0,1,2.82,9.15,56.22,56.22,0,0,1,1.77,12.07c.05,3.52.15,7-.14,10.53-.27,3.26-.72,6.52-1.3,9.74-.72,4-1.61,8-2.48,12a39.8,39.8,0,0,1-2.57,8c-1.35,3-2.47,6.07-3.85,9a56.86,56.86,0,0,1-7.37,11.18,95.43,95.43,0,0,1-7.72,8.84c-1,1-2.07,2-3.12,3-.76.71-1.57,1.37-2.29,2.11a77.54,77.54,0,0,1-10.31,9,138.86,138.86,0,0,1-15.15,10.1c-3,1.62-5.88,3.51-8.87,5.18-2.3,1.28-4.65,2.48-7,3.6-3.33,1.56-6.71,3-10.06,4.5l-5,2.25a5.12,5.12,0,0,0-1.08.5,27.94,27.94,0,0,1-5.06,2.71q-2.69,1.32-5.34,2.71c-.55.29-1.07.65-1.65,1a3.83,3.83,0,0,0,2.1,2c2.51,1.23,5,2.55,7.6,3.54a57.69,57.69,0,0,0,6.93,1.9c1.4.34,2.84.47,4.24.8,2.72.63,5.43,1.33,8.14,2,1.63.4,3.27.76,4.89,1.21a12.14,12.14,0,0,1,6.38,4.84,3,3,0,0,1,.56,2.71,2.76,2.76,0,0,1-2.49,2.24,8.44,8.44,0,0,1-1.43,0c-2.24-.12-4.48-.17-6.7-.4-2.86-.3-5.7-.75-8.55-1.12s-5.7-.76-8.56-1.09a10.24,10.24,0,0,0-1.77.08c-.25.61,0,1,.33,1.16a8.13,8.13,0,0,0,2.43,1c3.66.43,7.21,1.4,10.82,2.1,3.77.73,7.47,1.74,11.2,2.64a26.31,26.31,0,0,1,8.34,3.58,26.63,26.63,0,0,1,2.59,2.11,3.28,3.28,0,0,1,1.09,3.25c-.54,3.05-.26,3.13-3.34,4.27a13.25,13.25,0,0,1-7.09.37c-2.59-.47-5.16-1-7.73-1.63q-7.13-1.62-14.24-3.31a5.78,5.78,0,0,0-2.73-.1c-.25.92.29,1.35.75,1.76,1.5,1.32,3,2.7,4.57,3.87,1.8,1.32,3.75,2.44,5.63,3.64,2.69,1.71,5.53,3.2,7.87,5.44a9.17,9.17,0,0,1,2,3,3.89,3.89,0,0,1-2.66,5.05,11.62,11.62,0,0,1-6.6-.57,76.43,76.43,0,0,1-16.59-9c-.65-.46-1.2-1.06-1.84-1.53a12.1,12.1,0,0,0-2-1.28c-1.09-.51-1.22-.43-2.46.68-.08.74.45,1.13.91,1.57,1.16,1.1,2.33,2.19,3.48,3.29a5.72,5.72,0,0,1,1,1.06,28.23,28.23,0,0,1,3.64,7.25,10.59,10.59,0,0,1,.41,2.58c0,1.64-.69,2.29-2.3,2.45a9.46,9.46,0,0,1-7.28-2.48c-2-1.71-3.95-3.5-5.83-5.35A102.21,102.21,0,0,0,429.91,322a20.25,20.25,0,0,0-5.59-2.69,33.9,33.9,0,0,0-8.67-1.72c-1-.08-1.9-.23-2.86-.32-4.77-.47-9.54-1-14.24-1.91-3.35-.65-6.78-1.11-9.95-2.56a19.68,19.68,0,0,0-2.94-.84,17.93,17.93,0,0,0-3.7,6,70.2,70.2,0,0,1-6.89,12.3c-1.16,1.62-2.22,3.31-3.33,5l-3.46,5.17c-.31.46-.63.92-.91,1.4-.84,1.45-1.66,2.92-2.49,4.37-1.31,2.29-2.59,4.59-3.94,6.85-.74,1.23-1.58,2.4-2.4,3.58a3.64,3.64,0,0,0-.65,2,10.76,10.76,0,0,1-2.17,6c-.28.38-.43.85-.68,1.25-.86,1.44-1.69,2.9-2.6,4.3a4.52,4.52,0,0,1-4.4,2.37,2.85,2.85,0,0,0-.71.09,2.5,2.5,0,0,0-.36.14,5.07,5.07,0,0,0-.29,1.26c0,2.64,0,5.28.18,7.91.15,2.35-.92,4.34-1.59,6.46a1.36,1.36,0,0,1-.39.6c-1.7,1.45-2.86,3.45-4.74,4.71a2.27,2.27,0,0,0-.92,1.34,4.11,4.11,0,0,1-2.36,2.57c-1.28.62-2.49,1.48-4.12,1.21-1.71,3.16-4.87,4.11-8,4.94a42.61,42.61,0,0,0-6.55,2.24c-.36.16-.71.37-1.08.5-1,.38-2.08.73-3.38,1.18-2.11-.5-4.62-.59-6.83-1.87l-1.84-1a6.22,6.22,0,0,0-.8-.5,11,11,0,0,1-3.94-2.65,5.77,5.77,0,0,0-1.43-.8c-1.1.65-2.11,1.29-3.16,1.85a10.17,10.17,0,0,1-5,1.26,48.27,48.27,0,0,1-11.82-1.8c-2.54-.66-5.17-1-7.76-1.52-1.72-.32-3.44-.6-5.3-.93a16.91,16.91,0,0,1-4.58,1.54c-2.53.72-5.08,1.36-7.63,2a15.37,15.37,0,0,1-5.21.6,13.67,13.67,0,0,0-3.58.08,20.37,20.37,0,0,1-10.84-1.09c-1-.35-2-.72-2.91-1.13a10.19,10.19,0,0,1-5.11-4.38c-2.13-.4-4.15-.81-6.19-1.15a38.74,38.74,0,0,0-6.18-.59,5.4,5.4,0,0,0-.58,2.83,57.32,57.32,0,0,0,.66,11c.68,5.56,1.32,11.12,2.28,16.63a160.25,160.25,0,0,1,1.78,16.44,49.77,49.77,0,0,1-.35,13.15,33.74,33.74,0,0,1-1.31,4.35c-.24.7-.67.92-1,.72s-.43-.64-.37-1a9.47,9.47,0,0,1,.29-1.41,34.48,34.48,0,0,0,1.19-10.68,67.34,67.34,0,0,0-1-12.65c-.28-1.4-.23-2.87-.47-4.28-.91-5.44-1.87-10.86-2.81-16.29a28.39,28.39,0,0,1-.72-6.66,7.48,7.48,0,0,0-.11-1.43,56.69,56.69,0,0,1-.4-9.34c0-.55,0-1.09-.07-1.63a9.92,9.92,0,0,0-4-1.19c-2.14-.26-4.29-.47-6.43-.68-.54-.05-1.08,0-1.7,0a7.61,7.61,0,0,0-.56,1.65,28.76,28.76,0,0,0-.23,4.78,37,37,0,0,0,1.35,7.78c.39,1.3.7,2.62,1.08,3.92a32,32,0,0,1,.76,6.89,34.17,34.17,0,0,0,1.89,9.34,28.37,28.37,0,0,1,1.1,4.41,83.19,83.19,0,0,1,1.23,15c0,2.55-.07,5.11-.14,7.66a8.17,8.17,0,0,1-.3,2.13c-.12.39-.56.67-1,1.21a9.58,9.58,0,0,1-.53-1.78c-.17-2.39-.34-4.78-.4-7.18-.15-6-.29-12-1-18a10.73,10.73,0,0,0-.43-2.1,64.6,64.6,0,0,1-2.64-12.4c-.51-3.88-1.27-7.72-2-11.57-.63-3.31-1.21-6.61-.47-10a3.06,3.06,0,0,0-.17-2.26c-3-1-5.94-2.39-9.5-1.83a8.29,8.29,0,0,0-.27,1.27c-.13,2-.22,4-.34,6a7.18,7.18,0,0,1-.22,1.41c-.11.4-.44.61-.94.92-.52-1.76.06-3.32,0-4.86s0-3.19,0-4.8c-1-.91-2.24-.92-3.38-1.11-2.68-.44-5.39-.7-8.06-1.17-2.2-.39-4.36-1-6.54-1.47l-3.19-.77a7,7,0,0,0,0,1.28c.16.94.37,1.88.56,2.82a12.29,12.29,0,0,1,.21,4.76c-.13.7-.08,1.43-.15,2.14a22.92,22.92,0,0,1-.31,2.37c-.55,2.66-1.14,5.31-1.69,8a9.73,9.73,0,0,0-.22,1.9,77.76,77.76,0,0,0,.26,9.09c.38,3.42,1.17,6.75,1.7,10.13.3,1.89.67,3.77,1.13,5.63.56,2.24,1.3,4.44,1.88,6.68.42,1.62.77,3.27,1.06,4.92.44,2.6.85,5.21,1.18,7.82.25,2,.36,4,.53,6a.74.74,0,0,1-.07.47c-.18.23-.39.55-.64.6a1.11,1.11,0,0,1-.86-.27,1.48,1.48,0,0,1-.35-.85,7.69,7.69,0,0,1-.06-1.68,5,5,0,0,0-1.55-4.05c-2.36-2.7-4.45-5.64-6.67-8.47-.59-.75-1.23-1.47-1.82-2.22-1.09-1.38-2.24-2.72-3.23-4.17a29.67,29.67,0,0,0-3.51-4.24,51.68,51.68,0,0,0-7.49-6.34c-2.25-1.52-4.42-3.16-6.61-4.77a7.6,7.6,0,0,1-1.6-1.44,5.88,5.88,0,0,1-.9-1.91.89.89,0,0,1,1.23-1,3.78,3.78,0,0,1,1,.65c3.64,3.11,7.24,6.28,10.94,9.32a85.73,85.73,0,0,0,7.83,5.92c2.62,1.7,5,3.72,7.59,5.43.38.25.79.45,1.44.81a8.48,8.48,0,0,0,0-1.58c-.58-2.9-1.2-5.79-1.81-8.68-.43-2-.9-4.06-1.28-6.1a19,19,0,0,1-.51-4,11,11,0,0,0-3.09-7.83,43.87,43.87,0,0,0-9.51-8.35c-2-1.27-3.87-2.81-5.78-4.26s-3.5-2.78-5.31-4.09a19.87,19.87,0,0,1-4-3.75c-1.24-1.56-2.63-3-3.94-4.51-1.88-2.17-3.78-4.34-5.61-6.56-1.16-1.4-1.26-3.24-1.88-4.73.35-.64.77-.59,1.11-.36,1,.67,2,1.35,2.9,2.12,2,1.63,3.89,3.31,5.81,5,1,.84,1.87,1.75,2.86,2.55s1.83,1.27,2.73,1.92a43.75,43.75,0,0,0,8.29,4.76c2.64,1.14,5.35,2.14,7.94,3.38,2.23,1.06,4.34,2.37,6.5,3.58.48.27.93.6,1.33.86.63-.12.63-.54.67-.93.18-1.83.4-3.66.51-5.49a22.48,22.48,0,0,0-.88-6.86,2.89,2.89,0,0,0-2.39-2.35,40.68,40.68,0,0,1-7.65-2.73c-2.64-1.14-5.23-2.37-7.85-3.57-1-.46-2-1-3.05-1.39-1.49-.55-3-1-4.55-1.47-1.15-.34-2.32-.59-3.49-.87-2.18-.51-4.35-1.05-6.53-1.51a16.43,16.43,0,0,1-7.48-3.54,54.31,54.31,0,0,1-4.21-4.25c-1.25-1.34-2.45-2.73-3.66-4.11a4.52,4.52,0,0,1-.72-.95,20.22,20.22,0,0,0-3-4c-2-2.38-3.95-4.82-6-7.18-1.46-1.69-3-3.3-4.54-4.94q-3.1-3.33-6.22-6.65c-.87-.93-1.71-1.91-2.64-2.78A82.58,82.58,0,0,1,77.89,325a2.65,2.65,0,0,0-.53-.37,3.58,3.58,0,0,0-.62.84c-.7,2-1.36,3.92-2,5.89-.36,1.06-.74,2.11-1.1,3.17a10.39,10.39,0,0,0-.36,1.14c-1.25,5.7-2.91,11.29-3.89,17.06a25.21,25.21,0,0,1-2.7,7.63,16.94,16.94,0,0,1-3.24,4.12c-1.2,1.17-2.45,2.29-3.72,3.4-2.85,2.49-5.06,5.54-7.44,8.44-2.12,2.59-4.31,5.13-6.43,7.72-2.38,2.91-4.74,5.83-7,8.8a18.87,18.87,0,0,0-1.65,2.91c-.4.78-.7,1.61-1.11,2.39a8.57,8.57,0,0,0,.34,9.11,14.82,14.82,0,0,1,2,5.08,7,7,0,0,1,.08,2.83A7.25,7.25,0,0,0,39.66,421,7.16,7.16,0,0,1,41,424.79a3.15,3.15,0,0,1-.57,2.24,8.94,8.94,0,0,0-1.88,4.59,4.3,4.3,0,0,0,.3,2.09,13.65,13.65,0,0,0,2.57,4,10.1,10.1,0,0,1,1.24,1.46c.84,1.44,1.24,2.95.19,4.48Q42,445,41.09,446.2c-1.14,1.54-2.29,3.07-3.44,4.6a4.56,4.56,0,0,0-.43,4.77,21.34,21.34,0,0,0,4.86,6.77c.48.5,1.2.81,1.32,1.59a.81.81,0,0,1-1,.46.82.82,0,0,1-.42-.23c-1.94-1.9-3.91-3.77-5.8-5.73a6.48,6.48,0,0,1-1.74-4.84,4.37,4.37,0,0,1,.68-2.49c1.71-2.51,3.38-5,5.06-7.56.26-.39.47-.81.72-1.25a14.89,14.89,0,0,0-.81-1.51c-1.13-1.64-2.22-3.31-3.46-4.87a5.31,5.31,0,0,1-.83-5.42c.68-1.86,1.16-3.84,2.49-5.41a2.1,2.1,0,0,0,.23-.69c-.66-1.7-1.33-3.4-2-5.11a7,7,0,0,1-.5-3.53A6.59,6.59,0,0,0,34.83,411q-1.25-1.9-2.53-3.79a7.64,7.64,0,0,1,0-9.17c.13-.2.25-.4.37-.61a1.08,1.08,0,0,0,.07-.23A20.25,20.25,0,0,1,31.36,395a23.63,23.63,0,0,1-.65-2.3,159.53,159.53,0,0,1-4.24-17.47c-.76-3.75-1.1-7.59-1.52-11.4-.27-2.46-.37-4.94-.51-7.41-.2-3.67-.11-7.38-.6-11-.63-4.74-1.1-9.52-2.47-14.15-.77-2.6-1.23-5.29-1.88-7.93-.73-2.95-1.56-5.87-2.27-8.82-.54-2.25-1-4.53-1.43-6.79a61,61,0,0,1-1.05-10.49c-.1-3.35-.18-6.71-.34-10.05-.12-2.31-.4-4.61-.55-6.92-.09-1.35-.08-2.72-.12-4.07s-.07-2.87-.11-4.31a3.88,3.88,0,0,1,0-.48c.45-4.55-.32-9.1,0-13.66.17-2.47.37-4.94.57-7.41.07-.88.17-1.75.22-2.63.14-2.23.24-4.47.38-6.7A49.35,49.35,0,0,1,16.6,230.1c.93-3.14,1.59-6.37,2.62-9.47,1.48-4.48,3.16-8.87,6.06-12.7,1.59-2.1,2.87-4.42,4.39-6.58a37.54,37.54,0,0,1,8.56-8.66,112.62,112.62,0,0,1,12.31-7.89c1.26-.69,2.56-1.3,3.86-1.9,4.28-2,8.56-4,12.87-5.87a41.49,41.49,0,0,1,5-1.75A4.67,4.67,0,0,1,75.84,175.94Zm71.87-69a12.73,12.73,0,0,0-7.66,3,4.07,4.07,0,0,0-1.63,2.76,14.19,14.19,0,0,0,0,2.38,28.87,28.87,0,0,0,2,7.86,25.34,25.34,0,0,0,4.26,7.45,9.33,9.33,0,0,0,6.2,3.72c2.61.3,5.16,1.08,7.76,1.49a13.27,13.27,0,0,0,6.61-.57c1-.35,1.93-.75,2.89-1.14a9.26,9.26,0,0,0,5.24-4.65,42.21,42.21,0,0,0,1.79-4.18,3.42,3.42,0,0,1,2.93-2.46c.54-.09,1.07-.23,1.71-.37l.36-2.28h-3.32c0-.87-.07-1.58,0-2.28.18-2.64-1.08-4.78-2.42-6.87a2.17,2.17,0,0,0-1.08-.9c-2.35-.66-4.53-2.1-7.14-1.55a2.55,2.55,0,0,1-.95-.06c-1.8-.33-3.6-.7-5.41-1-1.56-.27-3.14-.48-4.71-.71,1,.5,2,.64,2.92,1.06s2.24.12,3.21,1.16c-1.69.43-3.34.31-5,1.21.58.36.94.64,1.34.84a30.8,30.8,0,0,1,8.67,6.69,7.68,7.68,0,0,1,1,1.32,1.45,1.45,0,0,1-.93,2.22,6.67,6.67,0,0,1-3.78,0,4.72,4.72,0,0,0-3.72.33,24.8,24.8,0,0,1-4.68,1.8,7.77,7.77,0,0,1-5.38,0c-1.36-.46-2.74-.86-4.13-1.27a3.9,3.9,0,0,0-.94,0,3.66,3.66,0,0,0,1.48,2,2.16,2.16,0,0,1,.67,2.36,4.7,4.7,0,0,1-2.66-1.58,3.7,3.7,0,0,1-.66-2.71,2.81,2.81,0,0,0-.26-1.82c-.16-.35-.27-.74-.44-1.24,1-1,2-2.06,3.09-3a11.05,11.05,0,0,1,10-2.87c.17,0,.39-.11.71-.2a4.39,4.39,0,0,0-4.74-1.67,12.78,12.78,0,0,0-5.47,2.86,15.27,15.27,0,0,1-3.43,2.17c-.26.13-.6.25-.76-.33,2.2-1.58,4.7-2.86,6.47-5.08l-2-2,2-1.81a.76.76,0,0,0,.19,0,.5.5,0,0,0,.16-.05Zm25.64,169.09a44.46,44.46,0,0,1-8.42-7.09c-1.26-1.45-2.5-2.91-3.82-4.3a158.66,158.66,0,0,1-11.94-13.76c-2.74-3.64-5.8-7-8-11.06-.23-.42-.56-.78-.82-1.18-1.69-2.55-4-4.53-6-6.84s-4.26-4.77-6.24-7.27c-4.68-5.9-9.53-11.6-15.66-16.09-2.05-1.51-3.89-3.31-5.85-4.95-.92-.77-1.91-1.45-2.84-2.2a55.76,55.76,0,0,0-7.26-5.06,47.24,47.24,0,0,1-6.26-4,60.62,60.62,0,0,1-5.88-5.63c-2.53-2.66-4.94-5.43-7.44-8.13A3.37,3.37,0,0,0,73,177.41a42.52,42.52,0,0,0-7.12,2.8,16.86,16.86,0,0,1-2.22.89,36.9,36.9,0,0,0-5.91,2.61,17.42,17.42,0,0,1-3.69,1.69,18.31,18.31,0,0,0-3.85,1.91c-2.46,1.49-4.89,3-7.41,4.39a31.48,31.48,0,0,0-10.48,9,44.13,44.13,0,0,0-2.72,4.21c-1.83,3.16-4.14,6-5.49,9.47a17.56,17.56,0,0,1-1.1,2.12A15.54,15.54,0,0,0,21,222.29a6,6,0,0,1-.2.69q-1,4.19-2,8.38a15.28,15.28,0,0,1-.32,1.65c-1.34,3.75-1.34,7.71-1.72,11.59s-.25,7.82-.38,11.74-.21,8-.49,12a43.49,43.49,0,0,0,.13,8.62c.6,4.69.49,9.4.76,14.1.2,3.43.42,6.86.66,10.28.08,1.12.18,2.23.34,3.34a67.22,67.22,0,0,0,1.3,8.28c1.14,4.16,2.18,8.35,3.32,12.5a66.9,66.9,0,0,1,2.7,14.34c.11,2.15.21,4.31.37,6.46.2,2.63.5,5.25.67,7.88a64.64,64.64,0,0,0,1.47,11.16,11,11,0,0,1,.19,1.66c.16,1.91.3,3.83.48,5.74a42.41,42.41,0,0,0,2.45,11.2,62.84,62.84,0,0,1,2.47,7.75,5.16,5.16,0,0,0,1.49,2.78c.32-.36.59-.64.84-.93,1.76-2.07,3.51-4.15,5.28-6.21s3.43-4,5.19-6c3.55-4,5.95-8.7,8.94-13,1.27-1.84,2.54-3.68,3.86-5.48a41.39,41.39,0,0,0,5.73-9.94c1.39-3.75,2.75-7.52,3.8-11.36A91.84,91.84,0,0,1,74,327.25c.73-1.59,1.45-3.18,2.18-4.78-.5-.69-.9-1.29-1.34-1.85q-1.73-2.14-3.51-4.25a9,9,0,0,0-.84-.78,48.41,48.41,0,0,1-3.91,4.4,23.7,23.7,0,0,0-5.18,7.13,76.38,76.38,0,0,1-4.8,8.57,8.44,8.44,0,0,0-.65,1.28c-.37.8-.71,1.61-1.08,2.4a23.26,23.26,0,0,1-4,6,1.54,1.54,0,0,1-2.34.3,8.15,8.15,0,0,1,1-2.64,14.65,14.65,0,0,0,1.14-2.63c.89-3.83,2.49-7.42,3.68-11.15a14,14,0,0,1,2.29-4.45A57,57,0,0,0,63.49,313a21.38,21.38,0,0,0,1-3.67A2.35,2.35,0,0,0,64,307c-.79-.9-1.59-1.8-2.39-2.69a1.56,1.56,0,0,0-1.73-.47c-1.92.54-3.85,1.05-5.77,1.59a7.87,7.87,0,0,0-4.46,3.05q-.7,1-1.46,1.9a2.24,2.24,0,0,1-.73.59.81.81,0,0,1-.68,0,.87.87,0,0,1-.29-.61,1.23,1.23,0,0,1,.17-.69,18.57,18.57,0,0,1,4-5,26.35,26.35,0,0,1,5.75-3.39c.56-.26,1.23-.41,1.39-1.29a17.6,17.6,0,0,0-1.22-1.95c-.9-1.11-1.77-2.37-3.21-2.78a49.53,49.53,0,0,0-7.89-2,18.77,18.77,0,0,1-3-.71q-3.22-.93-6.42-1.94a8.35,8.35,0,0,1-2.19-.95c-1.64-1.13-3.25-2.32-4.8-3.58a4.11,4.11,0,0,1-1.19-1.75c-.85-2.41-1.72-4.82-2.35-7.29-1.23-4.88-2.32-9.79-3.42-14.7a39.5,39.5,0,0,1-.61-4.26c-.24-2.15-.42-4.3-.62-6.44,0-.32-.09-.63-.09-.95,0-2.23,0-4.47-.08-6.7a48.43,48.43,0,0,1,.67-10.26,83.9,83.9,0,0,1,5.44-17.84c1-2.45,2.32-4.73,3.49-7.09a44.33,44.33,0,0,1,4.09-6.16,11,11,0,0,1,3.78-3.27c2.74-1.47,5.46-3,8.24-4.39a11.76,11.76,0,0,1,3-.93c1.56-.32,3.16-.47,4.73-.76a24.33,24.33,0,0,1,5.25-.27c2.65.09,5.25.52,7.87.78a9.72,9.72,0,0,1,5.6,2.39,38.81,38.81,0,0,0,6.63,4.72c1,.53,1.88,1.22,2.84,1.8a20.86,20.86,0,0,1,7.05,7.37c1,1.64,2.08,3.22,3.11,4.84.9,1.41,1.82,2.82,2.68,4.26,2.22,3.72,3.67,7.81,5.55,11.69a15.85,15.85,0,0,1,1,2.45,138.43,138.43,0,0,0,5.67,15c.84,2,1.44,4.09,3,5.71a20.82,20.82,0,0,1,2.8,4.45c.88,1.61,1.76,3.22,2.51,4.89a80.62,80.62,0,0,0,6,10.36c1.86,2.89,3.54,5.89,5.39,8.78a65.16,65.16,0,0,1,4.09,6.76c.69,1.44,1.3,2.92,2.06,4.33,2,3.8,4,7.67,5.68,11.62,1.09,2.49,2.19,5,3.24,7.48.83,2,1.57,4,2.41,6a36.25,36.25,0,0,0,3.47,6.56,6.33,6.33,0,0,0,3.49,2.72c3.14.93,6.24,2,9.36,3,.51.16,1,.45,1.63-.13-.22-1.83-.41-3.73-.67-5.62s.14-4-.81-5.91a10.5,10.5,0,0,1-1.48,0,6.87,6.87,0,0,1-4-1.49,17,17,0,0,1-4.3-5.7c-.66-1.62-1.51-3.16-2.26-4.75q-.67-1.41-1.3-2.83c-.74-1.68-1.42-3.39-2.21-5-1.68-3.54-3.17-7.15-4.59-10.8-1.27-3.27-2.35-6.62-3.74-9.84-1.26-2.95-2.2-6-3.24-9a18.3,18.3,0,0,0-3.32-6.32,15.34,15.34,0,0,1-1.64-2.35c-.21-.36-.1-.78.66-.77,1.46,2.36,3.25,4.62,4.32,7.32,1.33,3.34,2.65,6.69,3.93,10.05.82,2.16,1.44,4.41,2.34,6.54,1.63,3.82,3.38,7.59,5.12,11.36a44.32,44.32,0,0,0,3.92,7.14c1.94,2.74,3.83,5.52,5.89,8.17a34,34,0,0,0,3.7,3.74,1.22,1.22,0,0,0,1.78.23c0-.49.1-1,.09-1.6-.07-3.11-.19-6.22-.44-9.33a21.45,21.45,0,0,0-3.77-10.95c-1.51-2.15-2.73-4.5-4.19-6.69a40.77,40.77,0,0,0-2.82-3.56c-1.33-1.59-2.73-3.12-4-4.73-.69-.85-.62-1.06.3-2.29a14,14,0,0,1,2.94,2.78q2.92,3.65,5.72,7.39a40.82,40.82,0,0,1,4.73,6.91,6.27,6.27,0,0,0,.6.75c1.18,1.72,2.29,3.45,2.28,5.67,0,1,.21,1.91.27,2.86.56,8.29.79,16.61,1.77,24.88.2,1.65.32,3.31.49,5.09,2.37.85,4.68,1.72,7,2.5,2.66.87,5.36,1.62,8,2.49,4.93,1.61,9.83,3.33,14.87,4.59a11.83,11.83,0,0,1,1.15.33l13.07,4.74c1,.36,1.93.79,2.92,1.1a5.75,5.75,0,0,0,1.51,0c.12-1.14.2-2.16.36-3.18a32.44,32.44,0,0,1,.66-3.27c.35-1.31.95-2.56,1.17-3.89.53-3.23,1.58-6.36,1.71-9.66a5.05,5.05,0,0,1,.16-.7c.53-2.83,1.1-5.65,1.57-8.48.52-3.15,1-6.31,1.4-9.48.28-2.14.55-4.28.66-6.44.28-5,.07-10.06,0-15.08,0-.48-.08-1-.11-1.43-.09-1.75-.18-3.51-.26-5.26a44,44,0,0,0-.28-6,61.05,61.05,0,0,1-.58-8.35c-.18-4.16-.91-8.24-1.4-12.36-.33-2.78-1-5.52-1.19-8.3a74.53,74.53,0,0,0-1.48-8.22c-.66-3.29-1.49-6.54-2.16-9.83a37,37,0,0,1-.42-4c-.06-.72-.07-1.44-.13-2.15a26.22,26.22,0,0,1,.05-6.93,5.78,5.78,0,0,0-.79-4.82,2.73,2.73,0,0,1-.34-.89q-1.15-3.91-2.28-7.82l-.86-3a80.56,80.56,0,0,0-4.08-10.75,8.56,8.56,0,0,1-.56-2.06c-.06-.37,0-.81.74-.79a13.74,13.74,0,0,1,.84,1.6q1.91,5,3.76,10.11c1.34,3.68,2.62,7.38,3.95,11.06.21.59.38,1.24,1.25,1.48a21.9,21.9,0,0,0,2.33-1c2.84-1.55,5.86-1.34,8.9-1,.2,0,.51.23.53.39a1.13,1.13,0,0,1-.2.85,6.91,6.91,0,0,1-1.16.83,9.82,9.82,0,0,0-2.63,2.76,4,4,0,0,0-.29,4.33c1.51,2.84,3.28,5.43,6.19,7.14,4.47,2.64,8.82,5.48,13.22,8.24,1.76,1.1,3.46,2.29,5.26,3.33s3.69,1.91,5.52,2.88a6.39,6.39,0,0,1,1.37,1c2.53,2.38,5.79,3.7,8.51,5.8a6.1,6.1,0,0,0,1.09.49l9.48,4.6c.36.17.71.38,1,.58,3.44,2.07,4.52,3.54,5.41,7.45a10.62,10.62,0,0,1,.21,1.9,3.21,3.21,0,0,0,.92,2.13c2,2.25,4,4.57,6.89,5.84a2.37,2.37,0,0,1,.6.4,13.41,13.41,0,0,0,4.14,2.34,35,35,0,0,1,6.18,3.58c2,1.29,3.92,2.75,6,4a3.4,3.4,0,0,1,1.77,3.39c-.05,1-.11,2.08-.14,3.12a3.88,3.88,0,0,0,2.22,3.69,4.39,4.39,0,0,0,3.91.47c1.4-.56,2.79-1.18,4.13-1.88a17.76,17.76,0,0,1,5.11-1.93,15.62,15.62,0,0,1,4.77-.09c2.37.31,4.73.74,7.1,1.1,1.1.17,2.21.33,3.32.48,1.34.18,2.7.3,4,.54,1.18.21,2.32.61,3.5.81a5.39,5.39,0,0,1,2.4,1,31.12,31.12,0,0,0,7,3.71,14.54,14.54,0,0,0,7.74,1,1.63,1.63,0,0,0,1.57-1.5,38,38,0,0,1,2.2-7.83,9.33,9.33,0,0,1,2.42-3.8c2-1.73,4-3.42,6-5.12.47-.4,1.13-.63,1.15-1.52a5.2,5.2,0,0,0-1.93-1.21c-3.87-1.89-7.88-3.51-11.58-5.74a3.35,3.35,0,0,0-.43-.2c-4.06-1.71-7.78-4.09-11.69-6.09A100.81,100.81,0,0,0,336.23,255c-1.57-.56-3.2-.9-4.76-1.56a36.25,36.25,0,0,0-5.74-1.72c-2-.48-4.05-.78-6.08-1.16-.16,0-.32,0-.48,0a41,41,0,0,1-11.59-2.78,20.72,20.72,0,0,1-4.1-2.44,105,105,0,0,1-9.17-8.41c-1.54-1.51-3-3.07-4.58-4.57-2.65-2.54-5.51-4.84-8.17-7.38-2.36-2.26-4.74-4.51-7.26-6.62a51.83,51.83,0,0,0-4.83-3.91c-2.12-1.38-4-3.18-6.59-3.79a3.09,3.09,0,0,1-1.54-1.1,7.68,7.68,0,0,0-2.23-1.78c-3.85-2.28-7.72-4.53-11.57-6.81a24,24,0,0,1-7.65-7.14c-1.49-2.18-2.89-4.42-4.47-6.52-2.35-3.13-4.74-6.24-7.29-9.2a52.37,52.37,0,0,0-6.25-6.28A66.55,66.55,0,0,0,208,163c-1.23-.58-2.48-1.11-3.72-1.64-2.5-1.07-4.94-2.32-7.51-3.15-3.11-1-6.33-1.68-9.51-2.47-1.38-.34-2.78-.61-4.28-.94a15,15,0,0,0-1,1.64,27.93,27.93,0,0,1-5.16,8.3,11.47,11.47,0,0,1-3.61,2.7c-.73.33-1.48.61-2.23.89a10.6,10.6,0,0,1-2.48.85,8.39,8.39,0,0,1-2.34-.43,22,22,0,0,0-1.53,5.54c-.27,1.57-.53,3.15-.81,4.72A103.64,103.64,0,0,1,161,190.61a49.32,49.32,0,0,1-2.54,7.48c-1.18,2.44-2.37,4.89-3.39,7.4-1.3,3.18-2.46,6.42-2.4,9.94a1.43,1.43,0,0,1-.09.7,1.38,1.38,0,0,1-.63.58c-.14.05-.46-.15-.58-.32a1.53,1.53,0,0,1-.35-.86c.1-1.82,0-3.69.66-5.43,1.57-3.94,3.07-7.9,4.75-11.79a16.81,16.81,0,0,0,1.26-7.48,3.49,3.49,0,0,0-.37-1c-.3.11-.49.13-.59.23a53.17,53.17,0,0,0-6.48,7.68,12.33,12.33,0,0,0-1.6,3.46c-.72,2.45-1.23,5-1.91,7.43a11.34,11.34,0,0,0-.17,4.75,14.94,14.94,0,0,0,3.12,7.17,3.79,3.79,0,0,1,.75,3.58,34,34,0,0,1-1.48,4,6.12,6.12,0,0,1-1.08,1.58,2.64,2.64,0,0,1-3.84.52,13.12,13.12,0,0,1-1.08-1,22.1,22.1,0,0,0-2-1.64,5.79,5.79,0,0,1-1.92-2.1c-1.32-2.37-2.61-4.75-3.93-7.12a5,5,0,0,1-.7-2.76,18,18,0,0,1,2.08-8.29c1.14-1.93,2.31-3.84,3.55-5.7a15.75,15.75,0,0,1,2-2.38c1.35-1.36,2.73-2.7,4.17-4a15.14,15.14,0,0,0,4.25-6.57,8.91,8.91,0,0,0,.23-1.2,5.36,5.36,0,0,0-2.44.65c-1.15.55-2.28,1.15-3.43,1.71a14.12,14.12,0,0,1-2.18,1,119.74,119.74,0,0,1-12,3.24,12.38,12.38,0,0,1-6.76-.82c-2.47-.93-4.84-2.1-7.28-3.1-.32-.13-.75-.58-1.29-.08a14.71,14.71,0,0,0,1.34,1.09c4.06,2.57,6.74,6.53,9.94,10a3.21,3.21,0,0,1,.66,1,60.45,60.45,0,0,1,2.22,6.06,47.19,47.19,0,0,1,1.28,10.21,4.75,4.75,0,0,0,.54,2.29c1.15,1.92,2.12,3.93,3.15,5.91a13.09,13.09,0,0,0,1.75,2.27,44.75,44.75,0,0,0,5.67,5.14,9.43,9.43,0,0,1,3.61,5.74,10.79,10.79,0,0,0,.9,3,44,44,0,0,0,5.48,8.7c2,2.39,3.86,4.87,6,7.11,2.89,3,5.48,6.25,8.26,9.33,1.28,1.42,2.68,2.75,4.08,4.05a23.24,23.24,0,0,0,2.26,1.66,3.55,3.55,0,0,0,2.6-3.51c0-1-.06-2.07-.11-3.1,0-.64-.1-1.27-.15-1.91-.22-2.95-.36-5.9-.68-8.84-.53-5-1.14-10-1.77-15a30.43,30.43,0,0,0-1.16-6c-.38.71-.62,1.11-.8,1.53-.25.59-.38,1.23-.68,1.79-1.48,2.83-3,5.64-4.51,8.45a9.59,9.59,0,0,1-3.06,3.32.9.9,0,0,1-1.4-.21c.33-1.26.75-2.63,1-4,.71-3.44,1.44-6.88,2-10.35.3-1.88.25-3.82.41-5.73a12.75,12.75,0,0,0-.53-5c-.81-2.59-1.63-5.18-2.41-7.78a28.69,28.69,0,0,1-1.57-8q0-4.19-.36-8.38a6.74,6.74,0,0,1,.54-3.25,36.76,36.76,0,0,0,2.56-7.22c.05-.27.33-.5.49-.74.92.3,1,1.06,1.19,1.74.68,2.38,1.28,4.79,2.08,7.13,1.48,4.3,3.09,8.56,4.63,12.85.24.67.38,1.38.58,2.07a25.77,25.77,0,0,0,1.06,3.42c1.19,2.63,1.8,5.46,2.88,8.12a8.9,8.9,0,0,1,.31,1.16c.57,2.24,1.17,4.48,1.71,6.73q.87,3.6,1.66,7.23a48.42,48.42,0,0,1,1.18,8.29c.1,2.47.5,4.92.7,7.39a13.1,13.1,0,0,1-.14,2.63,44.82,44.82,0,0,1-3,10.81C176.66,271.89,175,273.87,173.35,276.07Zm-70.27,62.5a6.19,6.19,0,0,0,3.78,3.22c2.68,1.05,5.34,2.18,8.08,3a21.47,21.47,0,0,0,8.72,1.3c2.3-.24,4.64-.25,6.93-.57a55.28,55.28,0,0,1,7.66-.37,46.29,46.29,0,0,1,16,2.48c.52.19,1,.41,1.54.65a1.45,1.45,0,0,1,.9,1.32c0,.65-.48,1-1,1.22a2.68,2.68,0,0,1-.45.15c-1.54.44-3.08.85-4.61,1.32a25.5,25.5,0,0,0-2.92,1.07,5.75,5.75,0,0,0-2.44,2.25,1.76,1.76,0,0,0,.8,2.77,21.45,21.45,0,0,0,3.14,1.17c2.08.57,4.18,1.1,6.29,1.52a20.14,20.14,0,0,1,4.75,1.61,57.16,57.16,0,0,0,8.33,3,44.18,44.18,0,0,1,12.89,6.22,19.66,19.66,0,0,0,7.62,3.38,65.38,65.38,0,0,0,7.6,1.07c7.19.52,14.29,1.66,21.41,2.69.95.14,1.9.25,2.84.45s2,.5,3.06.78a65.71,65.71,0,0,1,6.39-11c2.51-3.48,5.15-6.87,7.8-10.39a5.14,5.14,0,0,0-1-.71c-1.51-.52-3-1-4.56-1.48-2.84-.81-5.73-1.47-8.54-2.35-6.63-2.07-13.23-4.2-19.83-6.35-2.2-.72-4.35-1.6-6.52-2.4a19.82,19.82,0,0,1-3.35-1.26,30.33,30.33,0,0,0-6-2.44c-.76-.26-1.54-.43-2.29-.7-5.11-1.83-10.19-3.74-15.38-5.34-1.22-.38-2.42-.82-3.64-1.19-.68-.21-1.39-.36-2.09-.52-1.09-.25-2.2-.42-3.26-.75-2.21-.69-4.38-1.49-6.58-2.21a31.55,31.55,0,0,0-3.22-.9c-2.53-.54-4.94-1.31-6.78-3.27a4.1,4.1,0,0,0-.76-.59,27.13,27.13,0,0,1-5.91-5.57,10.34,10.34,0,0,1-2.1-4c-.57-2.16-1.17-4.33-1.54-6.54-.93-5.54-3-10.78-4.08-16.27a6.12,6.12,0,0,0-.69-1.52c-1.17-2.27-2.33-4.55-3.54-6.81-.79-1.48-1.63-2.93-2.51-4.36-1.89-3.06-3.84-6.08-5.72-9.14-1.13-1.84-2.2-3.71-3.27-5.59s-2.19-3.9-3.29-5.84c-.31-.56-.63-1.12-1-1.66-.56-.87-1.14-1.72-1.72-2.58a116.36,116.36,0,0,0-7.77-10.94,13.62,13.62,0,0,1-3.5-8.69,29.47,29.47,0,0,0-1.43-9.45c-.88-2.4-1.71-4.82-2.74-7.15a17.37,17.37,0,0,0-6.09-7.53c-3.1-2.13-6.2-4.25-9.2-6.51-2.67-2-4.95-4.54-8.08-5.92a1.08,1.08,0,0,1-.4-.26c-1.43-1.73-3.51-2.47-5.39-3.49-2.44-1.33-5.17-1.61-7.85-2.06-1.39-.23-2.66.4-4,.6-.79.12-1.58.26-2.36.4a18.31,18.31,0,0,0-5,1.69,33.58,33.58,0,0,0-7.68,5.28,17,17,0,0,0-2.14,2.24A83,83,0,0,0,30.31,212,24.53,24.53,0,0,0,28,216.42c-.82,2.25-1.56,4.53-2.31,6.81-.57,1.74-1.17,3.48-1.64,5.26A39.58,39.58,0,0,0,23,233.65a62.2,62.2,0,0,0-.72,8.58,26.25,26.25,0,0,0,1.16,8c.77,2.27,1.33,4.6,2.07,6.88.56,1.74,1.23,3.46,1.9,5.17a7.05,7.05,0,0,1,.44,3.53,32.16,32.16,0,0,0,.12,6.46c.18,2.3.26,4.61.42,6.92a3.8,3.8,0,0,0,.28,1.15,22,22,0,0,0,1.07,2.41c1.89,3.43,1.59,3.15,5.56,3.47q2.51.2,5,.32c.7,0,1.41,0,2.08,0,.36-.61.68-1.07.93-1.57,1.51-3,.82-5.27-1.37-7.36-1.38-1.32-2.72-2.68-4.09-4-.31-.31-.54-.72-.2-1a1.51,1.51,0,0,1,1.08-.19,3.58,3.58,0,0,1,1.12.42c1.42.72,2.87,1.41,4.24,2.21a12.63,12.63,0,0,1,2.68,2,48.08,48.08,0,0,1,6.49,8.58c1.42,2.32,2.89,4.59,4.49,6.79a60.79,60.79,0,0,0,8.77,9.48A6,6,0,0,0,68.31,303c2.17.81,4.34,1.62,6.56,2.27,2.91.86,5.86,1.6,8.8,2.34a9.65,9.65,0,0,1,4,2.14,77.19,77.19,0,0,1,6.24,5.6c2.57,2.76,5.48,5.13,8.28,7.62a16.64,16.64,0,0,1,3.73,4c1.2,2.13,2,4.32,1.16,6.85-.63,1.92-1.55,3.5-3.54,4.25C103.39,338.12,103.31,338.3,103.08,338.57ZM219.9,248.71a15.48,15.48,0,0,0,.17,4.82,93.4,93.4,0,0,1,1.68,14,13.37,13.37,0,0,0,.18,1.91,85.47,85.47,0,0,1,1,12.89c.17,5.19.08,10.39.14,15.59a124.59,124.59,0,0,1-2.58,26.68c-1.64,8-3.41,15.93-5.12,23.9,0,.07,0,.15.07.29s.31.33.52.38c3.41.85,6.63,2.37,10.12,3a2.46,2.46,0,0,1,1.13.35c1.41,1.17,3.19,1.44,4.82,2.08,2.6,1,5.22,2,7.73,2.92,1.22-.59,2.28-1.14,3.38-1.61a5.82,5.82,0,0,1,3-.57,56.79,56.79,0,0,1,6.16.9c2.32.57,4.57,1.44,6.84,2.23,3.25,1.13,6.46,2.34,9.72,3.42,1.51.5,3.1.75,4.64,1.17,1.13.31,2.4.26,3.35,1.13-1.39,1.44-2.12,1.28-3.43.9-3-.86-6-1.75-9-2.62s-6-1.81-9-2.61c-2.7-.72-5.46-1.21-8.16-1.93a6,6,0,0,0-4.83.68,29.26,29.26,0,0,0-8.13,7.34,48.74,48.74,0,0,0-5.23,8.3c-1.2,2.44-2.45,4.85-3.51,7.35a12.48,12.48,0,0,0-1,5.85A13.72,13.72,0,0,0,226,393c.41.77.65,1.63,1,2.43,1.08,2.31,2.59,4.22,5.13,5,1.14.36,2.32.59,3.46,1a22.72,22.72,0,0,0,9,.83,53.94,53.94,0,0,0,7.81-1.21c3-.67,6.13-1.09,9.19-1.66a8.39,8.39,0,0,0,3.57-1.2,4.11,4.11,0,0,0-.09-.78c-1.25-3.71-.51-7.24,1-10.7.44-1,1-2,1.46-3,2-4,3.89-8.06,5.91-12a36.6,36.6,0,0,1,2.54-4.06,6.48,6.48,0,0,1,4.21-2.94c1.41-.26,2.82-.58,4.23-.85a19.64,19.64,0,0,0,6-2.24c.56-.32,1.1-.66,1.66-1a18.82,18.82,0,0,0,5.48-4.21c1.85-2.1,3.7-4.19,5.5-6.34a14,14,0,0,1,7.79-4.83,95.13,95.13,0,0,1,11.65-1.48c3.34-.37,6.67-.71,10-1.34a4.71,4.71,0,0,0,3.31-2.08c1.7-2.52,3.5-5,5.18-7.5,2.62-3.92,5.15-7.9,7.79-11.82a40.84,40.84,0,0,1,2.86-3.53c.72-.85,1.55-1.6,2.24-2.48,1.08-1.39,2.11-2.82,3.08-4.28a4.32,4.32,0,0,0,1.07-3c-1.49,0-2.91,0-4.34,0-1.2,0-2.4-.17-3.59-.1a97.5,97.5,0,0,1-9.81.15c-1,0-2.08.21-3.11.11-2.14-.2-4.27-.56-6.41-.83q-1.54-.2-3.1-.33c-1.91-.16-3.82-.29-5.72-.45-1.35-.12-2.7-.38-4-.41a30.94,30.94,0,0,1-6.41-.86c-2.26-.51-4.49-1.18-6.86-.91A2.21,2.21,0,0,1,304,304c-5.07-1.13-10.14-2.29-14.84-4.63-2.08-1-4.26-1.86-6.25-3a55.36,55.36,0,0,1-7.32-5c-5.09-4.25-10-8.75-15-13.08-2.66-2.3-5.41-4.5-8.18-6.67s-5.45-3.93-8-6.05c-6.38-5.23-13.42-9.54-20.07-14.39A17.27,17.27,0,0,0,219.9,248.71ZM140.12,134.36c1.1-1.16,1.15-1.22,1-2.31a14.17,14.17,0,0,0-.32-1.89c-.29-1.23-.92-2.39-.56-3.74.08-.32-.19-.76-.34-1.12-.33-.82-.72-1.61-1-2.43a25.09,25.09,0,0,1-1.57-4.75c-.24-1.64-1.2-3.1-1-4.87a2.39,2.39,0,0,0-2-2.62,14.34,14.34,0,0,0-3.32-.3,2.36,2.36,0,0,0-2.08,1.41,14.68,14.68,0,0,0-1.58,4.51,66.41,66.41,0,0,1-2.26,8.32,9.25,9.25,0,0,1-2.65,4.22,31.24,31.24,0,0,1-4.52,3.53,7.56,7.56,0,0,1-3.11,1.17c-1.74.22-3.48.46-5.23.68a39.76,39.76,0,0,1-9.3-.33,20.48,20.48,0,0,1-6.36-2.06,8.85,8.85,0,0,1-5.24-6.7c-.35-1.88-.62-3.78-.95-5.67-.06-.37-.08-.81-.71-.75-.19.91-.41,1.84-.59,2.77a24.2,24.2,0,0,0-.63,3.78c-.08,3-.33,6.06.31,9.07a1.18,1.18,0,0,1-.12.9c-.65.71-.41,1.48-.3,2.27.2,1.42.45,2.85.55,4.28a61.45,61.45,0,0,0,1.65,10.17,12.66,12.66,0,0,1,.56,2.81c0,2.21,1,4.19,1.34,6.31a3.52,3.52,0,0,0,.51,1.08c1.08,1.87,2.1,3.77,3.27,5.58a73.17,73.17,0,0,0,4.24,6.1c3.32,4.17,7.55,7.32,12,10.22a14.17,14.17,0,0,0,1.27.67c1.91,1,3.86,1.92,5.73,3a40.28,40.28,0,0,0,8.73,3.26,3.37,3.37,0,0,0,.71.07l5.48.38a22.7,22.7,0,0,0,11.16-2.21,48.57,48.57,0,0,0,10.87-7.37,8.27,8.27,0,0,0,1-1.06l6.78-8.09a10.6,10.6,0,0,0,1-1.33A34.09,34.09,0,0,0,166.1,163c1-3.77,1.81-7.62,2.78-11.41.83-3.25,1.7-6.49,2.7-9.69a25.83,25.83,0,0,0,1-8.73c0-.06-.09-.11-.17-.2-.81-.11-1.27.55-1.82.95a14.75,14.75,0,0,1-8,2.84,37.82,37.82,0,0,1-10.49-.53,13.73,13.73,0,0,1-7.82-4.28,4.41,4.41,0,0,0-.66-.7,5,5,0,0,0-.9-.42,8.43,8.43,0,0,0,0,1.13,6.35,6.35,0,0,1-.09,3.54,1.52,1.52,0,0,0,.23,1.12,13.26,13.26,0,0,0,1.11,1.56,4.46,4.46,0,0,1,1,2.64,9.34,9.34,0,0,0,1.56,4.47c.31.55.62,1.11.9,1.69a1.29,1.29,0,0,1-.07,1.56c-.29.33-.76.2-1.43-.41a11.46,11.46,0,0,1-.86-.83,30.34,30.34,0,0,0-4.57-4.22c-.15-.11-.17-.41-.26-.68.39-.2.76-.35,1.09-.56,1.62-1,1.87-1.68,1.07-3.36C141.75,137.1,140.94,135.81,140.12,134.36Zm216.3,181.85c2.74.23,5.27.47,7.81.65,1.35.1,2.72.14,4.07.12a6.5,6.5,0,0,0,2.34-.33c2-.82,3.94-1.75,5.87-2.71a5.83,5.83,0,0,0,1.48-1.18c2.58-2.62,5.07-5.32,7.72-7.86,2.13-2,4.41-3.93,6.69-5.81a87.69,87.69,0,0,1,10.09-7.31c3.14-1.91,6.33-3.74,9.5-5.59,1.31-.77,2.6-1.58,4-2.26,4-2,8-4,12-5.95,1.58-.78,3.14-1.58,4.72-2.35,3.45-1.68,7-3.19,10.33-5.07,4.33-2.44,8.9-4.33,13.37-6.45,4.91-2.33,9.87-4.54,14.83-6.75a126.86,126.86,0,0,0,14.8-7.9c4.35-2.68,8.52-5.65,12.76-8.51.4-.27.74-.61,1.11-.91l8.5-7c2.28-1.88,4.58-3.72,6.81-5.65a24,24,0,0,0,2.83-2.92c2.08-2.53,4.05-5.15,6.13-7.68a44.73,44.73,0,0,0,5.11-8.09,123.34,123.34,0,0,0,9.17-23.89c1-3.56,1.42-7.21,2-10.83a47.18,47.18,0,0,0,.58-12.42c-.45-4.85-1.11-9.68-1.7-14.52a5.54,5.54,0,0,0-.29-1.16c-1-2.71-1.78-5.48-2.92-8.12-1.37-3.15-2.9-6.24-5.58-8.57a12.56,12.56,0,0,1-1.07-1.28,7.5,7.5,0,0,0-1.14-1.2c-3.3-2.38-6.18-5.29-9.8-7.28-3.28-1.8-6.24-4.18-9.9-5.28a3.24,3.24,0,0,1-.43-.21,20.09,20.09,0,0,0-8.27-2.16c-1.35,0-2.69-.36-4-.5a20.38,20.38,0,0,0-3.81-.25c-5.17.45-10.38.57-15.46,1.78a53.86,53.86,0,0,0-9.42,2.73c-2.78,1.23-5.58,2.39-8.29,3.76-5.19,2.63-10.52,5-15.44,8.17-1.61,1-3.26,2-4.77,3.21-2.65,2.06-5.23,4.2-7.78,6.38a78.38,78.38,0,0,0-8.29,7.94c-3.37,3.86-6.4,8-9.48,12.05a146,146,0,0,0-9.93,15.54c-.64,1.11-1.29,2.21-1.89,3.34a145.38,145.38,0,0,0-7.44,17.4c-.62,1.64-1.11,3.34-1.58,5-.71,2.54-1.2,5.15-2.06,7.63a76.67,76.67,0,0,0-2.91,12.35c-.5,3-.94,6-1.34,9s-.77,5.86-1,8.81c-.16,2,0,4-.07,6q-.1,4.07-.3,8.14a22.8,22.8,0,0,1-.36,2.61c-.37,2.2-.94,4.39-1.09,6.61-.39,5.67-1.09,11.3-1.88,16.92a58.56,58.56,0,0,1-2.19,10.07,16.8,16.8,0,0,1-2.15,4.79c-1.17,1.62-2.37,3.22-3.47,4.88a15.75,15.75,0,0,1-3.8,3.94c-3.08,2.3-6.06,4.69-8.14,8-1.14,1.83-2.47,3.53-3.73,5.29A6,6,0,0,0,356.42,316.21Zm-24.57,39c1.2-.15,2.15-.21,3.08-.39,1.33-.26,2.64-.61,4-.92a2.23,2.23,0,0,1,2.42.56,7.62,7.62,0,0,0,.78.55,16.22,16.22,0,0,1,4.59,5.4c.55,1.23,1.08,2.47,1.57,3.6a3.91,3.91,0,0,0,2.71.08c3.25-.65,2.34-.16,4.12-3.31a3.68,3.68,0,0,0,.08-3.66,41.4,41.4,0,0,0-4.27-7.2,5.13,5.13,0,0,0-1.57-1.43,3.38,3.38,0,0,1-1.84-2.34,5,5,0,0,0-1.06-1.85,2.36,2.36,0,0,0-1.38-.85c-2.21-.18-4.43-.7-6.65,0a16.38,16.38,0,0,1-3,.68q-8.55,1.13-17.11,2.18c-1.58.2-3.18.33-4.76.5a10.45,10.45,0,0,0-7.14,4c-1.88,2.28-3.91,4.42-5.91,6.59a23.9,23.9,0,0,1-7.82,5.43c-2.1,1-4.34,1.59-6.52,2.37-1.43.51-2.89.94-4.27,1.56a23.65,23.65,0,0,0-3.3,1.93,2.39,2.39,0,0,0-1.27,2l3,1.29c-.15.35-.17.64-.33.76-1.49,1.06-3,2.14-4.53,3.12a6.35,6.35,0,0,0-3,3.83c-.36,1.39-.79,2.77-1.16,4.15a6.37,6.37,0,0,1-1.39,2.74,18.57,18.57,0,0,0-1.77,2.26,9.2,9.2,0,0,0-1.7,5.72,21.5,21.5,0,0,0,7.57,3.3c2.24.59,4.55.89,6.78,1.5a19.23,19.23,0,0,0,11.54-.79,15.44,15.44,0,0,0,5.62-3.13c2-1.84,3.91-3.75,5.86-5.64.4-.39.78-.8,1.18-1.19A5.78,5.78,0,0,1,308.5,387a30,30,0,0,1,3.35-.15,3.33,3.33,0,0,1,1.54.53,12,12,0,0,1,1.47,1.23,35.8,35.8,0,0,0,7.1,4.64c1.35-1,3.14-1.27,4.22-2.6s2.54-2.24,2.87-4a4,4,0,0,0-.37-.67c-3.31-3.9-6.58-7.83-10-11.65a15.69,15.69,0,0,0-4.24-3.48,5.27,5.27,0,0,0-5.45,0c-1.47.81-3,1.51-4.5,2.26a1.53,1.53,0,0,1-1.72,0,4.76,4.76,0,0,1,.79-.8c1.7-1,3.42-2.06,5.14-3.07a6.18,6.18,0,0,1,3.16-1,3,3,0,0,1,1.8.51c2.48,1.74,5.13,3.26,6.92,5.82a4.45,4.45,0,0,0,.34.33c1,1.14,2,2.27,3,3.42,1.54,1.83,3.05,3.69,4.6,5.51.66.78,1.39,1.5,2.15,2.32.38-.25.64-.57.88-.56,1.4,0,2.32-1,3.46-1.49a3.79,3.79,0,0,0,1.83-1.83c1.26-2.47,1.15-2.46-.29-4.27q-2.91-3.65-5.91-7.23a11.42,11.42,0,0,0-2.27-2.12,34.1,34.1,0,0,1-7.28-6.89c-.61-.74-1.31-1.4-1.91-2.14a2.93,2.93,0,0,0-3-1,17.93,17.93,0,0,0-5,1.64c-1.79.87-3.56,1.79-5.34,2.68a2.11,2.11,0,0,1-.58.07l-1-.94a8.73,8.73,0,0,1,.85-1c.55-.45,1.2-.8,1.7-1.3a21.68,21.68,0,0,1,4-3c2.23-1.37,4.41-1.82,6.73-.32a2,2,0,0,0,.45.15,5.27,5.27,0,0,1,3.84,3.85,2.11,2.11,0,0,0,.5.77c.52.6,1,1.21,1.59,1.77a24.82,24.82,0,0,0,3.26,3.15c3.53,2.45,7.17,4.74,10.71,7.05,2.57-.73,4.9-1.53,5.3-4.73a44.21,44.21,0,0,0-8.36-7.68,8.08,8.08,0,0,1-3.11-4.63A3,3,0,0,1,331.85,355.23ZM173,108.69a3.73,3.73,0,0,0,.33-.74c.42-4.53,1-9,.6-13.63a14.23,14.23,0,0,0-4.49-9,14.85,14.85,0,0,0-9-4c-4.44-.5-8.89-1-13.34-1.39-1.27-.13-2.55-.1-3.83-.22-2.15-.19-4.29-.43-6.43-.68a3.3,3.3,0,0,1-1.13-.38c-2.46-1.31-5.08-2.34-7.29-4.13-2.73-2.21-5.54-4.32-8.23-6.56a37.36,37.36,0,0,1-3.38-3.4,3.14,3.14,0,0,0-2.94-1.12,17,17,0,0,0-3.93.91c-.9.32-1.82.61-2.72.93a13.31,13.31,0,0,0-2,.79A31.8,31.8,0,0,0,97.7,72.3a6.81,6.81,0,0,0-.83,1.17c-.75,1.23-1.49,2.46-2.21,3.71a39.23,39.23,0,0,0-5.25,18.24c-.16,3.91-.37,7.82-.54,11.73,0,.25-.19.67.41.7.4-.55.79-1.16,1.25-1.69,1.27-1.46,2.61-2.85,4.63-3.21a22.12,22.12,0,0,1,5.71-.62L115,103.52c1,.09,2.07.15,3.1.3a13.31,13.31,0,0,1,2.33.55c.9.31,1.34-.7,2.22-.61,1.51.14,3-.06,4.55.1,4.62.51,9.25.52,13.88.63a27.71,27.71,0,0,1,6.91.54,4.07,4.07,0,0,0,1.86-.23,15.54,15.54,0,0,1,6-.11c2.21.33,4.42.66,6.61,1.09s4.38.93,6.54,1.5C170.28,107.64,171.6,108.2,173,108.69Zm260.46,213c.63.64,1.17,1.22,1.74,1.77a28.87,28.87,0,0,1,3.12,3,62.15,62.15,0,0,0,6.22,6.3,37.89,37.89,0,0,0,3.69,3.06,7.3,7.3,0,0,0,4,1.57c1.55.1,2.27-.58,2.18-2.11a6.61,6.61,0,0,0-.48-2.06,23.85,23.85,0,0,0-4.62-6.66q-1.34-1.53-2.65-3.09c-1.39-1.65-2.76-3.31-4.14-5-.67-.79-.51-1.84.44-2.09a21.14,21.14,0,0,1,3.76-.62,3.06,3.06,0,0,1,1.54.53,8,8,0,0,1,1.33,1,85.69,85.69,0,0,0,7.82,5.89A32.44,32.44,0,0,0,464,327c2.07.81,4,2,6,2.9a8.15,8.15,0,0,0,5.64.28,1,1,0,0,0,.8-1.07,4.37,4.37,0,0,0-.46-1.8,8.06,8.06,0,0,0-2.8-2.91,21,21,0,0,1-1.77-1.22c-2.81-2.11-5.56-4.31-8.43-6.32s-5.62-4.21-8.29-6.5a5.11,5.11,0,0,1-1-1,1.87,1.87,0,0,1,.57-2.71,3.36,3.36,0,0,1,3.59-.41,31.93,31.93,0,0,0,7.07,2.25,85.51,85.51,0,0,1,8.36,2.11,57.75,57.75,0,0,0,11.05,2.09,13.2,13.2,0,0,0,5-.53,2.56,2.56,0,0,0,.9-4.54,17.19,17.19,0,0,0-3.24-2c-2.34-1-4.73-1.93-7.15-2.76a24.37,24.37,0,0,0-4-.89,28.69,28.69,0,0,1-6.48-1.68,30.61,30.61,0,0,0-7.13-2c-1.94-.3-3.92-.8-5.92-.28a1.35,1.35,0,0,1-.92-.11c-1.35-.77-2.46-1.68-2.58-3.47-.13-2,.24-3,2.86-3a6.77,6.77,0,0,1,1.18.21,92,92,0,0,1,11.29,2.19,2.57,2.57,0,0,0,.47.08c3.81.42,7.62.85,11.44,1.23a9.34,9.34,0,0,0,2.39-.07,1.55,1.55,0,0,0,1-2.57,8.48,8.48,0,0,0-3.76-2.88c-2.82-.87-5.64-1.72-8.48-2.53-1.38-.39-2.8-.63-4.19-1-4.23-1.12-8.61-1.68-12.63-3.53a2.83,2.83,0,0,0-.9-.3,12,12,0,0,1-4-1.44,18.76,18.76,0,0,0-6.55-2.18c-1.2-.08-2.4-.11-3.59-.22a7.73,7.73,0,0,0-5.19,1.45c-1.18.8-2.5,1.41-3.77,2.1-.49.27-1,.46-1.49.77a2.25,2.25,0,0,0-1.12,2.47,2.65,2.65,0,0,0,1,.14,29.78,29.78,0,0,0,2.94-1c1.78-.7,3.51-1.54,5.32-2.16a10.29,10.29,0,0,1,3.06-.42,1.47,1.47,0,0,1,1.62,1.12c-.4.77-1.19.73-1.85.93-1.61.47-3.22.9-4.82,1.4a2.75,2.75,0,0,0-1.21.7,1.4,1.4,0,0,0-.18,1.09.89.89,0,0,0,.68.52,12.16,12.16,0,0,0,4.94-.71c2.06-1,4.31-1.12,6.52-1.49a1.55,1.55,0,0,1,.93.12,1,1,0,0,1,.53.7c0,.19-.36.51-.6.56-1,.21-2.06.28-3.07.51a5,5,0,0,0-3.47,2.33c-.52.89-1.09,1.76-1.62,2.66a23.82,23.82,0,0,1-5.91,6.85,40.6,40.6,0,0,1-8.84,4.75,23.07,23.07,0,0,0-4.19,2.28c-.78.56-1.5,1.2-2.28,1.74a5.9,5.9,0,0,1-1.26.49,13.3,13.3,0,0,1-1.64-3.58,8.37,8.37,0,0,0-.82-1.71,1.57,1.57,0,0,0-2.09-.6,19.69,19.69,0,0,0-2.84,1.26c-1.32.75-2.6,1.57-3.84,2.44a1.45,1.45,0,0,1-2.09-.13c0-.9.56-1.36,1.06-1.85s1.31-1.17,1.93-1.8a1.19,1.19,0,0,0-.18-2,4,4,0,0,0-1.76-.66,18.19,18.19,0,0,0-3.57.18c-2.06.32-3.55,1.75-5.17,2.89a15.47,15.47,0,0,0-2.25,2.14,1.82,1.82,0,0,0-.48,1.78,9.75,9.75,0,0,0,3.65,5.75,8.77,8.77,0,0,0,4.5,1.46c2.63.22,5.26.43,7.89.6a10.36,10.36,0,0,0,2.38-.08c1.57-.27,3.11-.65,4.68-.95a4.81,4.81,0,0,1,1.16.06,7.77,7.77,0,0,1,.31,1,2,2,0,0,0,1.93,1.8,32.24,32.24,0,0,1,3.29.64,2.58,2.58,0,0,0,2.87-1.22c.39-.5.64-1.11,1-1.65.21-.32.42-.71,1-.46a3.35,3.35,0,0,1,0,2.28,1.78,1.78,0,0,0,.14,1.83A2.78,2.78,0,0,0,429,319l.94-1.27.34,2.38,1.62.53a11,11,0,0,1,1.31-1.51,15.43,15.43,0,0,1,2.38-1.56c.68-.36,1.38-.17,1.45.26.1.62-.41.8-.81,1A5.51,5.51,0,0,0,433.48,321.69Zm-268.71-293c1.25-1.33,3-1.34,4.64-1.85a18.51,18.51,0,0,0-2-.79,20.14,20.14,0,0,0-7.5-1.4c-1.84,0-3.67,0-5.51.05a9.15,9.15,0,0,1-2.72-.07c.38-.26.55-.46.75-.5a30,30,0,0,1,7.88-.38c.48,0,1,.1,1.43.09a.84.84,0,0,0,.82-1,3.3,3.3,0,0,0-1.8-2.91,11.07,11.07,0,0,0-12.3,1.67,12.23,12.23,0,0,1-2.57,1.74A17.45,17.45,0,0,0,142.19,26c-.92.76-1.84,1.53-2.79,2.26a3.41,3.41,0,0,0-1.67,3.23c.08.71.06,1.44.11,2.15.08,1.1.18,2.19.27,3.33-.63.23-1.16.39-1.66.62a5,5,0,0,0-1.44.81c-1.88,1.85-3.9,3.56-5.22,5.91A14.25,14.25,0,0,1,127,47.86a5.84,5.84,0,0,0-.64,1.08c.81-.27,1.25-.38,1.67-.56,2.05-.88,4.08-1.82,6.15-2.66A33.57,33.57,0,0,1,146.48,43a10.94,10.94,0,0,1,4.94.76q2.81,1.34,5.59,2.75a7.14,7.14,0,0,0,6,.05c.11,0,.15-.26.23-.41a2.1,2.1,0,0,0-1-1.53,2.61,2.61,0,0,1-1-2.09,10.83,10.83,0,0,1,0-1.2,4.43,4.43,0,0,0-1.56-3.62c-.92-.87-1.93-1.65-2.89-2.48a5.62,5.62,0,0,1-.59-.75c.4-.14.63-.32.82-.28,2.42.48,4.92.7,7.19,1.75a50.14,50.14,0,0,1,6.57,3.41c1.81,1.19,3.47,2.54,5.17,3.85a10.94,10.94,0,0,1,2.49,2.57,47.49,47.49,0,0,0,5.72,6.45c2.2,2.31,3.48,5.12,4.8,7.93.34.72.5,1.52.84,2.23a15.11,15.11,0,0,1,1.41,5.79c.12,2.32.22,4.63.36,6.95a17.59,17.59,0,0,1,.22,3.1,17.31,17.31,0,0,0,0,3.33,4.94,4.94,0,0,1-.31,2.32,4.65,4.65,0,0,0-.35,2.79,7.75,7.75,0,0,1,.08,1.67,63.54,63.54,0,0,0,.48,9.81c.21,2.46.74,4.91.81,7.37a127.76,127.76,0,0,1-1,19.87,3.92,3.92,0,0,1-.41,1.6,6,6,0,0,0-.76,2.49,12.38,12.38,0,0,1-1.83,4.65c-.5.81-1,1.6-1.47,2.45-1.1,2.21-2.21,4.42-3.17,6.69a29.47,29.47,0,0,0-1.52,4.78,17.11,17.11,0,0,1-.76,2.49c-.77,1.93-1.45,3.89-2.11,5.86-.13.39-.3.94.46,1.26a5.35,5.35,0,0,0,.65-.89,55.23,55.23,0,0,0,3.52-9.41,29,29,0,0,1,2.28-6.54c.79-1.48,1.48-3,2.16-4.54a50.27,50.27,0,0,1,3.26-6.93,10.77,10.77,0,0,0,.74-1.76,34.65,34.65,0,0,0,2.18-11.26,120.64,120.64,0,0,0-.53-20.83c-.34-2.78-.57-5.56-1.13-8.31a8.06,8.06,0,0,1-.12-1.9c.13-3.43.26-6.87.45-10.3a51.45,51.45,0,0,0-.48-8.37,9.94,9.94,0,0,0-1.47-4c-1.56-2.6-3-5.26-4.59-7.87-1.18-2-2.37-4-3.68-5.89-.81-1.18-1.91-2.14-2.19-3.65a4.56,4.56,0,0,0-.71-1.24,21.13,21.13,0,0,0-8.73-8A13.69,13.69,0,0,1,164.77,28.72Zm-57.85,75.58a13,13,0,0,1-2.14-.15,27.81,27.81,0,0,0-7.87-.27c-3.23.17-5.28,2-6.38,4.92a19.76,19.76,0,0,0-.72,2.78c-.15.7-.18,1.43-.32,2.13a26.33,26.33,0,0,0,.15,10.48A10.54,10.54,0,0,0,91.1,128c1.64,2.45,4.09,3.48,6.82,4,.94.19,1.9.25,2.84.47a24.15,24.15,0,0,0,7.6.63c2.07-.19,4.12-.5,6.19-.69a6.71,6.71,0,0,0,3.9-1.68c1.14-1,2.26-2,3.33-3.11a11,11,0,0,0,3.07-5.59c.5-2.43,1-4.85,1.7-7.23a4.41,4.41,0,0,0-.68-4.07c-.33-.45-.57-1-.89-1.42a5.8,5.8,0,0,0-3.57-2.58c-1.22,1.64-2.19,2-4.07,1.54-.54-.14-1.06-.36-1.59-.53A47.42,47.42,0,0,0,110,106a29.06,29.06,0,0,0-10-.15,3,3,0,0,1-.84-.12c.14-.3.17-.5.28-.56a6.56,6.56,0,0,1,1.1-.45C102.64,104.13,104.8,104.57,106.93,104.29ZM100.4,36.19a16.07,16.07,0,0,1,4.14-3.82,4.21,4.21,0,0,1,2.05-.48,31.36,31.36,0,0,1,8.5,1.25,10.23,10.23,0,0,0,5,.1c1.38-.33,1.74-.77,1.66-2.17,0-.56-.19-1.1-.24-1.66s0-.92,0-1.37a3.33,3.33,0,0,1,.71-.36,5.34,5.34,0,0,0,3-2.14,28.84,28.84,0,0,1,4.48-5,3.38,3.38,0,0,0,1.38-2.67,3.67,3.67,0,0,1,.42-1.06,5.36,5.36,0,0,1,4.16,3.7,9.3,9.3,0,0,0,.42,1.37,1.47,1.47,0,0,0,.92.58c.47.08.62-.37.79-.74a2.13,2.13,0,0,0,0-1.63A17.3,17.3,0,0,0,134.18,14,8.61,8.61,0,0,0,129,11.09a4.13,4.13,0,0,0-3.21.63c-.81.6-1.4,1.33-.75,2.43.06.1-.06.29-.1.49a3.16,3.16,0,0,1-.63.21c-1.51.18-3,.3-4.52.52a8,8,0,0,0-4.33,1.9l-2.87,2.56a6.56,6.56,0,0,0-5.15.45c-1.45.85-3.14,1.59-3.7,3.62l1.29.12c.42,0,.85.15.86.63a1.1,1.1,0,0,1-.47.75c-1.12.76-2.31,1.43-3.42,2.22a22.54,22.54,0,0,0-2.16,1.89,1.82,1.82,0,0,0-.29.58c.89.77,2.23-.54,3.05.81-1,.55-1.86,1.07-2.77,1.54-.49.26-1,.44-1.55.64A14.61,14.61,0,0,0,91,39c-1.4,2.32-2.49,4.82-3.7,7.26a3.17,3.17,0,0,0-.07,1c1.2-.58,2.19-1.07,3.19-1.54,3-1.42,6.36-1.46,9.55-2.11,2.8-.57,5.57.1,8.34.43a9.54,9.54,0,0,1,3,.87,40.5,40.5,0,0,0,4,1.54,7.59,7.59,0,0,0,1.55.16,7.15,7.15,0,0,0-2.45-3.19c-.43-.27-1-.62-.63-1.46,2.27-.19,4.65,1.11,7-.15a1.22,1.22,0,0,0-.39-1.47,6.49,6.49,0,0,0-1.43-.86q-2.9-1.14-5.84-2.18a14.77,14.77,0,0,0-5.66-.78c-1.76.08-3.52,0-5.28,0A14.78,14.78,0,0,1,100.4,36.19Zm259.92,269a7.54,7.54,0,0,0,.49-1.25c.26-1.49.5-3,.71-4.49a7.19,7.19,0,0,0,0-1.17,7.54,7.54,0,0,0-1.09-.08c-1.35.12-2.71.2-4,.41-3,.47-6.07.29-8.95,1.44a9,9,0,0,1-2.12.35,23.87,23.87,0,0,0-3.69.51,55.65,55.65,0,0,1-5.86,1.09c-2.69.51-5.42.25-8.13.44a31.53,31.53,0,0,1-7.14-.59c-1.26-.2-2.51-.42-3.76-.66a16.33,16.33,0,0,1-3.25-.74c-4.34-1.84-8.74-3.52-13.24-4.93-2.59-.81-5.19-1.58-7.82-2.23-3.17-.78-6.46-1.11-9.53-2.31a4.38,4.38,0,0,0-1.17-.26c-.36,0-.82-.18-1,.48.81.7,1.64,1.44,2.5,2.14.43.35.93.62,1.38,1,2.53,1.88,5.51,2.87,8.3,4.22a29.57,29.57,0,0,0,7,2.5q6.45,1.31,12.95,2.42c6.23,1.07,12.54,1.4,18.82,2,2.15.19,4.31.31,6.46.3,6.79-.06,13.58-.2,20.37-.32C359,305.32,359.58,305.22,360.32,305.15Zm3.2,18.13a14.28,14.28,0,0,0-6.93-4.52,3,3,0,0,0-3.28.91,23.49,23.49,0,0,0-1.82,2.21c-1.28,1.83-2.5,3.7-3.74,5.55-.67,1-1.38,2-2,3q-2.88,4.69-5.7,9.42a5.13,5.13,0,0,0-.34,1.33c.49.06.8.11,1.12.12,1.67.09,3.34.23,5,.23a2.59,2.59,0,0,1,1.93.76c.66.65,1.29,1.33,2,2.07,1.9-2,3.06-4.5,4.51-6.77.86-1.34,1.59-2.76,2.48-4.08,2-3,4.08-5.91,6.1-8.88A11,11,0,0,0,363.52,323.28Zm-277-168.34c-.12.82-.22,1.27-.25,1.71-.16,2.31-.3,4.62-.46,6.93a16.24,16.24,0,0,1-.25,2.13c-.35,1.72-.73,3.43-1.16,5.13a3.12,3.12,0,0,1-.75,1.43A15.08,15.08,0,0,1,78.17,176c-.41.14-1,.09-1.14.82,1,1.21,2.07,2.53,3.24,3.71a7.47,7.47,0,0,0,3.12,2.16,4.54,4.54,0,0,1,1.43.84c1.06.84,2.13,1.69,3.12,2.6a4,4,0,0,0,2.52,1.22,37.92,37.92,0,0,0,4.52.32,6.34,6.34,0,0,1,4.41,1.5c.38.29.72.64,1.1.92a2.67,2.67,0,0,0,1.91.58,19.68,19.68,0,0,0-5-4.57c-1.79-1.34-3.48-2.78-5.19-4.25a5.84,5.84,0,0,0-1.64-4.6,7.25,7.25,0,0,1-1.49-2.84.82.82,0,0,1,1.23-.53,23.31,23.31,0,0,1,3.06,1.85A20.63,20.63,0,0,0,98,178.25c.16.06.39-.07.83-.15-.68-.8-1.24-1.45-1.79-2.11s-1-1.22-1.51-1.86a64.31,64.31,0,0,1-6.14-11.07,20.07,20.07,0,0,1-1-2.95c-.41-1.38-.79-2.76-1.21-4.14A6.1,6.1,0,0,0,86.55,154.94ZM364.38,301.21a19.13,19.13,0,0,0,5.92-4.27,19.34,19.34,0,0,0,4-5.93c.44-1,.92-2,1.4-3a70.35,70.35,0,0,0,3.84-10.57,12.67,12.67,0,0,0,.37-2.12,3.76,3.76,0,0,0-.17-1,7.81,7.81,0,0,0-3.62,1.37c-2.1,1.44-4.14,3-6.19,4.5a5.38,5.38,0,0,0-1,1,21.61,21.61,0,0,0-4,8.86,49.86,49.86,0,0,0-.81,6.89A8.62,8.62,0,0,0,364.38,301.21ZM82.39,57.69c-.66.54-1.1.85-1.5,1.23-.69.66-1.31,1.41-2,2a19,19,0,0,0-7,12.41c0,.31-.19.62-.22.93a9.71,9.71,0,0,0,.64,5.62A6.58,6.58,0,0,1,72.85,82c.2,1.34.3,2.7.46,4a4.48,4.48,0,0,1-1.22,3.72,12.21,12.21,0,0,0-3.38,7.22c-.19,2.37-.73,4.73-.19,7.13a3,3,0,0,0,3,.68,5.29,5.29,0,0,1-.48-3.59,42.63,42.63,0,0,1,.83-4.22c.54-1.91,1.2-3.79,1.92-5.65A3.77,3.77,0,0,1,75,89.85a2.3,2.3,0,0,0,.89-2.1c0-.48,0-1-.06-1.44-.19-2.22-.41-4.45-.58-6.67a14.82,14.82,0,0,1,1.8-9,7.61,7.61,0,0,0,1.08-4.11,9,9,0,0,1,.56-3A6.4,6.4,0,0,1,81.45,60,1.79,1.79,0,0,0,82.39,57.69Zm71.46-.28.09-.44a5.31,5.31,0,0,0-.78-.4,14.26,14.26,0,0,1-2.06-.6,47.36,47.36,0,0,0-10.85-3.66A24.47,24.47,0,0,0,130,52.24c-2,.4-4.13.61-5.94,1.73-.32.2-.73.4-.45,1a15.2,15.2,0,0,0,2.3.31,29.3,29.3,0,0,1,8.7,1.53,28.79,28.79,0,0,0,9.46,1.22c2.87-.11,5.74-.29,8.61-.45A9.25,9.25,0,0,0,153.85,57.41ZM81.16,104c-.83.3-1.52.49-2.15.78a16.21,16.21,0,0,1-5.49,1.57c-1.5.13-3,.12-4.52.15-2.52,0-2.74.23-3,2.64,0,.24,0,.48-.06.72-.28,3.49-.45,7-.86,10.48a25.89,25.89,0,0,0,.67,8.77,4,4,0,0,0,1.34,2.2c.24.21.68.2,1.06.3a5.66,5.66,0,0,0,.14-3.22,15.8,15.8,0,0,1-.12-5.7,11.27,11.27,0,0,0-.44-5.43c-.12-.38-.22-.77-.31-1.16A3.72,3.72,0,0,1,70,111.37c.74-.27,1.55-.34,2.32-.56a22.35,22.35,0,0,0,3.17-1c1.15-.53,2.22-1.26,3.33-1.89A4.21,4.21,0,0,0,81.16,104ZM406,294.53a4.28,4.28,0,0,0,2.58.64,10.1,10.1,0,0,0,6.26-2,5.81,5.81,0,0,1,3.08-1.16c2.42-.08,4.68-.9,7-1.38a5.65,5.65,0,0,0,3.06-1.76,3.54,3.54,0,0,0,.43-1,10.42,10.42,0,0,0-3.92-.59,8.32,8.32,0,0,1-1.9,0c-2.28-.6-4.2.17-6.12,1.28-2.76,1.58-5.6,3-8.38,4.56C407.33,293.45,406.41,293.65,406,294.53ZM127.65,110.62c2.64-1.59,2.78-1.63,5.46-1.31a21.74,21.74,0,0,1,2.84.4,3.9,3.9,0,0,0,3.38-.73,16.94,16.94,0,0,1,4.3-2.55c.08,0,.1-.26.19-.53a7,7,0,0,0-.89-.12c-5.75-.07-11.49-.16-17.23-.63a15.45,15.45,0,0,0-1.68-.05c-.36,0-.81-.13-1.08.48C124.41,107.28,126.48,108.44,127.65,110.62ZM144.06,23.4c.92-.53,1.61-.92,2.29-1.34a2.17,2.17,0,0,0,1-2.48,5.65,5.65,0,0,1-.2-.68c-.06-1-.13-2.06-.11-3.08,0-.46.19-1,.8-1s.66.38.8.76c.3.82.59,1.65.9,2.47a4.8,4.8,0,0,0,.4.85.48.48,0,0,0,.4.2c.21-.06.51-.19.56-.35a2.19,2.19,0,0,0,.07-1.15,11.69,11.69,0,0,0-2-4.06,17.58,17.58,0,0,0-2-2.08,1.21,1.21,0,0,0-1.74-.09c-.94.74-1.86,1.51-2.75,2.31a2.21,2.21,0,0,0-.62,1A8.5,8.5,0,0,0,144.06,23.4ZM332,387.56a21.68,21.68,0,0,1,.59,2.48,26,26,0,0,1,0,2.62c0,.79,0,1.59,0,2.38a7.31,7.31,0,0,0,.35,1.31,3.24,3.24,0,0,0,3-.61,3.85,3.85,0,0,0,1.74-2.46c.23-1.25.62-2.46.93-3.69.34-1.39.7-2.77,1-4.17a2.18,2.18,0,0,0-.26-2.15c-1.24.65-2.26,1.67-3.49,2.33S333.44,386.86,332,387.56Zm8.85,3.1a7.94,7.94,0,0,0,1.2-1.21c.8-1.38,1.55-2.78,2.29-4.19a6.31,6.31,0,0,0,.64-3,32.51,32.51,0,0,0-1-7.81,6.19,6.19,0,0,0-.7-1.27,29.39,29.39,0,0,0-2.67,1.32c-1.22.76-1.41,2.08-1.45,3.35,0,.85.87,1,1.46,1.42a2.38,2.38,0,0,1,.37.41c.24,1.72,1,3.41.7,5.32A30.31,30.31,0,0,0,340.88,390.66Zm-16.56,10.59a11.54,11.54,0,0,0,5.32-2.1,2.84,2.84,0,0,0,1.41-2.37c0-1.4-.16-2.8-.24-4.22a4.63,4.63,0,0,0-3.18,0l-4.55,1.79a17.47,17.47,0,0,1,1.19,3.14A23.25,23.25,0,0,1,324.32,401.26ZM151.08,114.78a19,19,0,0,0-2.5.21,2.43,2.43,0,0,0-2.14,2c-.18,1.28-.27,2.56,1,3.46a6.16,6.16,0,0,0,3.79,1.28c2.16-.06,4-1.42,3-4.14C153.75,116.09,152.12,114.78,151.08,114.78ZM353.89,365.1a4.7,4.7,0,0,0-2.6.13c-3.45.59-3.48.62-4.57,3.92a7,7,0,0,0-.11,1.68c.87.09,1.57.19,2.28.22a2.75,2.75,0,0,0,2.16-.87,11.88,11.88,0,0,0,2.89-4.36A2.16,2.16,0,0,0,353.89,365.1Zm-36.52,33a5.9,5.9,0,0,0-3.62-1.27c-1.42,1.45-3.32,2.38-4.53,4.35,1.25.59,2.36,1.16,3.52,1.63a1.25,1.25,0,0,0,1.08-.23A13.92,13.92,0,0,0,317.37,398.06ZM77.15,143.66a3.06,3.06,0,0,0-.21.76,21.16,21.16,0,0,0,.47,3.06,10.23,10.23,0,0,0,1.18,2.58,1.57,1.57,0,0,0,2.75-.09A9.75,9.75,0,0,0,82,148.2a1.27,1.27,0,0,0-.47-1.49q-1.71-1.3-3.45-2.56A7.79,7.79,0,0,0,77.15,143.66Zm230.31,256a31.87,31.87,0,0,0,3.17-2.95,1.22,1.22,0,0,0-.6-2.07,3.32,3.32,0,0,0-1.38-.22,7.52,7.52,0,0,0-4.08,3ZM159.61,120a6.51,6.51,0,0,0-2.74-3.42,3.23,3.23,0,0,0-1.13-.2,16.81,16.81,0,0,0,0,4.92A9.62,9.62,0,0,0,159.61,120ZM88,114a2.85,2.85,0,0,0-2.28.53,4.89,4.89,0,0,0,0,2.49c.89.34,1.68.32,2.08-.53A3.2,3.2,0,0,0,88,114Zm56.74,3.37c-.9.43-1.56.86-1.62,1.89l1.13.54c.31.14.56.61,1,.13ZM160,115.44c.09.67.4,1.09,1.48,1.37Zm-47.13-10.61.41.07s0,0,0-.07Zm50,13.73.1-.14-.15,0Z"/><path d="M110.56,424.74c-1.87,1-3.45,1.94-5.07,2.76a13.74,13.74,0,0,1-4.24,1.54c-2.61.37-5.2.84-7.79,1.29s-5.08-.08-7.6-.49c-2.83-.46-5.67-.94-8.52-1.23a33.4,33.4,0,0,0-15.5,2.22c-1.34.51-2.68,1-4,1.65a19.6,19.6,0,0,0-2.63,1.64A26.22,26.22,0,0,1,51,436.34c-3.16,1.45-8.79-1.43-10.15-4.13a1,1,0,0,1,.57-1.54,12.83,12.83,0,0,1,4.15-1c2.55-.09,5.1-.33,7.64-.53a6.63,6.63,0,0,0,1.63-.35c4-1.39,8-2.86,12-4.2,1.81-.61,3.69-1,5.55-1.48,4.27-1,8.57-1.93,12.84-3a51.31,51.31,0,0,1,9.9-1.62,11.61,11.61,0,0,1,3.79.4c2.3.67,4.62,1.24,6.91,1.95A9.16,9.16,0,0,1,110.56,424.74Z"/><path d="M155.35,462.36c0,.15,0,.36-.07.45-.38.4-.81.76-1.13,1.06l-5.38-.32c-1.67-.09-3.34-.25-5-.22s-3.49.23-5.25.36a13.72,13.72,0,0,1-2.75-3.92c-.49-.82-.87-1.71-1.32-2.55a16,16,0,0,0-2.7-3.63c-2-2-3.77-4.12-5.69-6.16a4.54,4.54,0,0,1-1.33-3.92c.13-1,.13-2.07.18-3.11a5.76,5.76,0,0,1,.05-1c.15-.68,0-1.6.82-1.87.95-.32,1.31.62,1.85,1.18,1.32,1.38,2.65,2.75,4,4.08,2.81,2.72,5.58,5.48,8.49,8.09a62.86,62.86,0,0,0,7.88,6.2c2.41,1.55,4.76,3.21,7.12,4.83C155.24,462,155.28,462.22,155.35,462.36Z"/><path d="M41.62,453.36c.8.13,1.74.31,2.69.45a9.41,9.41,0,0,0,2.13.24,39.86,39.86,0,0,0,6.4-.76c3.33-.84,6.49-.26,9.7.46,2.88.64,5.28,2.25,7.67,3.82a59.22,59.22,0,0,0,9.34,4.81c1.39.59,2.73,1.31,4.08,2a2.13,2.13,0,0,1,.7.63.8.8,0,0,1,.15.64c-.06.16-.35.23-.55.33a.36.36,0,0,1-.23,0c-3.64-1.18-7.51-1.52-11.06-3.07a35,35,0,0,0-4.1-1.31c-2.14-.63-4.28-1.3-6.44-1.84a17.87,17.87,0,0,0-10.37.15c-1,.34-1.94.75-2.93,1a5.69,5.69,0,0,1-5.63-1,38.73,38.73,0,0,1-3-3,3.84,3.84,0,0,1-.71-1.24A1.61,1.61,0,0,1,41,453.32C41.15,453.32,41.31,453.34,41.62,453.36Z"/><path d="M47.2,420.7a3.28,3.28,0,0,1,1.23-2.06,75.73,75.73,0,0,1,5.81-5,12.56,12.56,0,0,1,7-2.18,19.19,19.19,0,0,0,6.08-1,27.1,27.1,0,0,1,3.72-.87,5.25,5.25,0,0,1,2.83.22,2.11,2.11,0,0,1,1.32,1.67,7.84,7.84,0,0,1-1.17.42c-1.88.33-3.76.71-5.66.91A12.61,12.61,0,0,0,62.55,415q-3.58,2.38-7.25,4.63a8.12,8.12,0,0,1-2.18.91c-1.23.32-2.49.54-3.74.76A2.3,2.3,0,0,1,47.2,420.7Z"/><path d="M63.16,378.11a6.39,6.39,0,0,1-1.26,3.1c-1.65,2.34-3.27,4.72-5,7-1.31,1.7-2.91,3.19-4.19,4.92-1.42,1.92-3.39,3.1-5.23,4.48a3.59,3.59,0,0,1-1.27.65,4.5,4.5,0,0,1-1.28-.06c-.11-.77.38-1,.76-1.23,3.6-2,6.1-5.08,8.64-8.17s5-6,7.15-9.29C61.83,379,62.13,378.23,63.16,378.11Z"/><path d="M186,423.15a4.08,4.08,0,0,0,.05,3.45.89.89,0,0,1-.2.82.7.7,0,0,1-1-.2,3.66,3.66,0,0,1-.62-1.49,37.27,37.27,0,0,1-.23-4.05,4.64,4.64,0,0,1,2.15-4,1.87,1.87,0,0,1,2.94,1.48,3.12,3.12,0,0,1-1.55,3.24C187,422.63,186.48,422.88,186,423.15Z"/><path d="M189.72,452.19a11.22,11.22,0,0,1,2,1c1.42,1,1.39,2.43,0,3.59-.77.66-1.82.93-2.39,1.9-.27.45-.86.27-1.28,0a3.65,3.65,0,0,1-1.32-2.7,4.49,4.49,0,0,1,2.09-3.53A5.64,5.64,0,0,1,189.72,452.19Z"/><path d="M279.67,242c2.11.24,3.76.39,5.4.63a2.47,2.47,0,0,1,1.26.59,24,24,0,0,1,2.48,2.59,11.75,11.75,0,0,0,3.87,3.15c2.27,1.17,4.61,2.2,6.84,3.43a31.19,31.19,0,0,0,10.62,3.51,5.87,5.87,0,0,1,3.45,1.51,1,1,0,0,1-.14,1.61c-1.09.67-2.18,1.32-3.3,1.94a10.4,10.4,0,0,0-4.34,4c-.1.18-.36.27-.66.5l-1-.87c-3.52-2.89-6.9-5.93-10.6-8.61-3-2.15-5.92-4.34-9.06-6.26a21.27,21.27,0,0,1-2.42-2,1.48,1.48,0,0,1-.46-.54C281,245.6,280.39,244,279.67,242Z"/><path d="M199.8,330.9c1.27-2.05,2.5-3.92,3.6-5.85a17.55,17.55,0,0,0,1.14-2.88,13.12,13.12,0,0,1,1.75-3.86c.23.41.49.65.49.89a6.27,6.27,0,0,1-.18,2.12,60.58,60.58,0,0,1-3.75,9.31,47.87,47.87,0,0,0-2.5,6.21c-.46,1.19-.88,2.4-1.35,3.58-.07.18-.43.41-.54.36s-.58-.37-.59-.59c-.06-1.75-.15-3.51-.05-5.26a79.46,79.46,0,0,0,0-8.38A148.89,148.89,0,0,0,196,309.89c-.5-3.07-.93-6.16-1.33-9.25a43.57,43.57,0,0,1,.23-13.13,11.46,11.46,0,0,1,.61-2c.05-.13.42-.24.6-.2a.71.71,0,0,1,.46.45,3.06,3.06,0,0,1-.11.93,38,38,0,0,0-.49,9.06c.37,5.1.88,10.19,1.61,15.25.22,1.5.49,3,.77,4.48a54.87,54.87,0,0,1,1.07,14.06,2.82,2.82,0,0,0,0,.71A3.79,3.79,0,0,0,199.8,330.9Z"/><path d="M92,202.55a7.51,7.51,0,0,1,1.13.52c3.39,2.52,6.79,5,10.14,7.6a17,17,0,0,1,3.66,4.08c2.41,3.56,4.81,7.13,6.93,10.89,1.21,2.15,2.69,4.14,4.06,6.19.35.53.84,1,.63,1.8a8.36,8.36,0,0,1-2.88,0c-.33-.5-.72-1-1-1.56-1.83-3.45-3.54-7-5.47-10.36-1.49-2.63-3.19-5.15-4.88-7.65A14.9,14.9,0,0,0,99.63,210a43.65,43.65,0,0,1-6.18-4.5A3.36,3.36,0,0,1,92,202.55Z"/><path d="M183.6,325.85c-.46-1.93-.9-3.69-1.29-5.46a4.25,4.25,0,0,1,.9-3.79,2.63,2.63,0,0,1,4.35.41c.95,1.83.61,3-1.2,3.9a15.18,15.18,0,0,1-1.6.61,6,6,0,0,0,.29,3C185.29,325.47,185.07,325.66,183.6,325.85Z"/><path d="M180,289.33c-.39-.93-.68-1.75-1.07-2.52s-.94-1.66-1.42-2.49a3.22,3.22,0,0,1-.43-.84.89.89,0,0,1,.24-.61.46.46,0,0,1,.44,0c.5.36,1,.76,1.45,1.14.11-.15.19-.21.19-.28a2.15,2.15,0,0,1,1.57-2.17,2.92,2.92,0,0,1,2.79,1,1.42,1.42,0,0,1,.15,2c-.7.94-1.52,1.66-2.83,1.3a2.75,2.75,0,0,0-.69,0c-.4.9.29,1.54.44,2.28C180.92,288.65,180.75,289,180,289.33Z"/><path d="M133.28,156.92a5.29,5.29,0,0,1,5.47,1.12,34.24,34.24,0,0,0,5.25,3.33,8.32,8.32,0,0,1,3.62,3.48,3.15,3.15,0,0,1-3.13,1.64,12.55,12.55,0,0,1-4.94-.76c-.52-.2-1-.44-1.56-.62a9.1,9.1,0,0,0-4.19-.52,14.86,14.86,0,0,1-8.41-1.15,7.24,7.24,0,0,0-3.25-.64c-1.75,0-3.5.12-5.25.12a17.59,17.59,0,0,1-3.58-.21,13.48,13.48,0,0,1-2.67-1.15.89.89,0,0,1,.58-1.07,38,38,0,0,1,4.37-1.92c2.58-.83,5.2-1.53,7.83-2.18a12.44,12.44,0,0,1,5.23-.08c1,.18,2.06.18,3.09.31a15.3,15.3,0,0,1,1.6.37,20.44,20.44,0,0,1-6.66,0,8.44,8.44,0,0,0-4.44.62,33.51,33.51,0,0,1-7.53,2.36c-.31,0-.59.37-1,.63a5.69,5.69,0,0,0,3.65.41c3-.28,5.91-.39,8.76.68.3.11.62.14.93.23a12.08,12.08,0,0,0,4.5.38,17.26,17.26,0,0,1,4.05.05,32.17,32.17,0,0,1,3.43,1,10.11,10.11,0,0,0,2.35.35,1.9,1.9,0,0,0,1.85-.66c-.19-.26-.35-.65-.63-.83-1.34-.86-2.69-1.71-4.08-2.49C136.82,158.76,135,157.86,133.28,156.92Z"/><path d="M121.43,173a7.3,7.3,0,0,1,2.11-2.71,2.34,2.34,0,0,1,1.52-.49c1.11,0,2.22.17,3.32.29.95.11,1.89.27,2.83.37a4.68,4.68,0,0,1,4.29,3.8,7.6,7.6,0,0,1,.15,1.18.88.88,0,0,1-1.05,1,7.23,7.23,0,0,1-4.31-1.85,3.36,3.36,0,0,0-3-1.07c-1.42.14-2.84-.2-4.27.1C122.6,173.69,122.07,173.27,121.43,173Z"/><path d="M108.77,154.45a5.4,5.4,0,0,1,.12-1c.16-.45.4-.87.56-1.32,1.51-4.11,4.2-7.48,6.87-10.86.2-.25.4-.5.61-.74a2.71,2.71,0,0,0,.69-2.39,6.42,6.42,0,0,1,3.47-6.3.89.89,0,0,1,.45-.14,1,1,0,0,1,.62.22.7.7,0,0,1,0,.63,4.07,4.07,0,0,1-.65.69,7.49,7.49,0,0,0-2,5c0,.55,0,1.11,0,1.67a22.4,22.4,0,0,0-3.91,5.16,17.81,17.81,0,0,1-1.25,1.75,18.45,18.45,0,0,0-3.51,6.17C110.67,153.65,110.61,153.63,108.77,154.45Z"/><path d="M126,143.63a3.53,3.53,0,0,1-2.93-1.12l-.47-.54c-1.47-1.68-1.4-3,.23-4.49a1.47,1.47,0,0,1,1.53-.38,2.59,2.59,0,0,1,1.06.51,15.28,15.28,0,0,1,2.93,4.26.85.85,0,0,1-.48,1.19A18.4,18.4,0,0,1,126,143.63Z"/><path d="M132.73,145.63a1.23,1.23,0,0,1-.8-1.74,7.14,7.14,0,0,1,3.16-3.72,1.87,1.87,0,0,1,2.22.12,15.25,15.25,0,0,1,2,2,1.42,1.42,0,0,1-.28,2.1,16.38,16.38,0,0,1-2,1.13,10.51,10.51,0,0,1-.94-.5c-1-.67-1.88-.79-2.71.25C133.19,145.49,132.92,145.54,132.73,145.63Z"/><path d="M536.12,160.59a60.92,60.92,0,0,1-.8,12.61c-.3,1.65-.37,3.33-.65,5a66.85,66.85,0,0,1-4.39,14.91c-1.7,4-3.66,7.81-5.49,11.72a42.54,42.54,0,0,1-5,8.45,3.7,3.7,0,0,0-.64,1c-.63,1.8-2,3-3.23,4.41a102.65,102.65,0,0,1-8.24,8.35c-2.57,2.27-5.22,4.48-8,6.51-4,2.94-8,5.8-12.19,8.49a122.56,122.56,0,0,1-11.9,7.17c-1.71.85-3.36,1.83-5.1,2.63a83.56,83.56,0,0,1-16.59,5.47c-3.58.82-7.22,1.34-10.82,2.08a9.54,9.54,0,0,1-4.5-.16,77.6,77.6,0,0,1-12.94-5c-3.13-1.48-5.89-3.52-8.85-5.25-1.93-1.13-3.82-2.34-5.84-3.3a46,46,0,0,1-11.77-8.57,23.39,23.39,0,0,1-5.39-7.86,10.58,10.58,0,0,1-.65-3.5,32.81,32.81,0,0,1,.26-8.13c.34-1.72.35-3.5.64-5.23.57-3.3,1.24-6.59,1.88-9.88a2.31,2.31,0,0,1,.15-.45c1.59-3.76,2.51-7.75,4-11.55a68.43,68.43,0,0,1,3.58-7.58c2.39-4.52,4.83-9,7.38-13.44a55.37,55.37,0,0,1,5.92-8.71c2.19-2.54,4.2-5.23,6.31-7.84,1-1.24,2-2.45,3.09-3.66a30.64,30.64,0,0,1,4.83-4.64,17.93,17.93,0,0,0,2.55-2.18,67.73,67.73,0,0,1,7.09-6,83.21,83.21,0,0,1,10.84-7.46c1.86-1.1,3.65-2.3,5.47-3.45a5,5,0,0,1,.62-.37c3.79-1.68,7.35-3.88,11.33-5.15a3.06,3.06,0,0,0,.67-.26c2-1.22,4.3-1.68,6.45-2.52a42.29,42.29,0,0,1,9.55-2.19c1.11-.15,2.23-.25,3.33-.42a11.16,11.16,0,0,1,4.52,0,8.68,8.68,0,0,0,1.91.17,23.72,23.72,0,0,1,11.14,3.31c4.54,2.52,8.9,5.35,13.21,8.24,1.53,1,3.13,1.93,4.61,3a36,36,0,0,1,3,2.71,13.55,13.55,0,0,0,1.18,1.19c2.07,1.48,3,3.7,3.84,5.93A52.42,52.42,0,0,1,536.12,160.59ZM487.62,239c1.85-.22,2.83-1.66,3.93-2.88s2.13-2.58,3.16-3.9c.54-.68,1-1.41,1.48-2.06-1.13-2.16-3.22-3.13-4.84-4.59-.91-.82-1.65-.6-2.41.41q-2.79,3.73-5.56,7.48a10.66,10.66,0,0,0-.7,1.32c.52.4.92.76,1.37,1,.87.57,1.76,1.1,2.64,1.64a2.06,2.06,0,0,1,1,1.58,5.66,5.66,0,0,1-3.28-1.28,10.29,10.29,0,0,0-2.58-1.6c-3,2.22-6,6.29-6.84,9a1.54,1.54,0,0,0,2.28.44c3-1.74,6.1-3.47,9.11-5.26A6.74,6.74,0,0,0,487.62,239ZM430,253.81c.14.25.18.44.3.51a25.72,25.72,0,0,0,9.37,3.43,2.16,2.16,0,0,0,2.25-1c3-3.84,6-7.64,9-11.46.08-.11.06-.3.11-.6a4.43,4.43,0,0,0-.88-.95c-3-1.8-5.79-3.9-9.08-5.41-3.14,3.62-5.54,7.69-8.49,11.33A37.8,37.8,0,0,0,430,253.81ZM419.81,248a5.1,5.1,0,0,0,2.63,2.43c1,.52,2,.95,3,1.46a12.75,12.75,0,0,0,2.84,1.4A109.52,109.52,0,0,0,439.85,238c-.33-1-1.09-1.27-1.8-1.65-1.61-.88-3.22-1.75-4.77-2.73A3.15,3.15,0,0,0,431,233c-1.5,1.45-2.37,3.38-3.6,5s-2.39,3.4-3.65,5.05S421.16,246.33,419.81,248Zm2.85-19.56c-.26.25-.56.5-.82.8-1.71,2-3.4,4-5.12,6s-3.38,3.84-5.05,5.77a11.93,11.93,0,0,0-.82,1.25c2.6,1.88,4.89,4,7.59,5.29,1.4-.62,1.52-2.07,2.44-2.8a11.37,11.37,0,0,0,2.52-2.53c2.1-3.1,4.22-6.19,6.32-9.3.11-.17.07-.44.11-.72-1.85-1.14-3.67-2.27-5.5-3.38a3.52,3.52,0,0,0-.88-.36A4.17,4.17,0,0,0,422.66,228.44ZM513.31,124c-1.55-1-2.81-1.8-4.12-2.54a24.06,24.06,0,0,0-2.81-1.34c-3.53-1.44-7.27-1.73-11-1.94a1.45,1.45,0,0,0-1.07.4,12.66,12.66,0,0,0-2.63,4c2.6,1.93,4.88,4.19,7.88,5.4a8.84,8.84,0,0,0,2.26-2.58c.89-1.32,1.78-2.65,2.71-4a1.46,1.46,0,0,1,1.74-.7c-1.64,2.89-3.66,5.35-5.2,8.16a11.92,11.92,0,0,0,2.85,2.29,7.9,7.9,0,0,0,3.25,1.75C509.25,130.1,511.65,127.45,513.31,124ZM465.49,225.15a6.86,6.86,0,0,0,.76-.89,22.56,22.56,0,0,1,3.58-4.75,22.87,22.87,0,0,0,2.3-3.05,7.71,7.71,0,0,0,.58-1.46c-1.95-.8-3.17-2.46-5.13-3.13s-3.76-1.63-5.7-2.5c-.55.65-1.05,1.16-1.46,1.74q-2.71,3.79-5.37,7.62a2.84,2.84,0,0,0-.21.79A52.91,52.91,0,0,0,465.49,225.15ZM413.2,222.9c-1.8,2.25-3.2,4.57-4.74,6.79s-3.6,4.27-4.58,7.08a24.57,24.57,0,0,0,5.9,4.52,3.94,3.94,0,0,0,.53-.38q2.8-3.09,5.59-6.2c1.43-1.59,2.83-3.21,4.26-4.8a6.8,6.8,0,0,0,1.21-2.48C418.88,225.64,416.09,224.5,413.2,222.9Zm26.56-68.14c.22.28.29.45.42.52,2.37,1.31,4.74,2.62,7.13,3.9a1.42,1.42,0,0,0,1.89-.53c.91-1.11,1.82-2.22,2.7-3.36,1.55-2,3.09-4.06,4.6-6.13a1.41,1.41,0,0,0-.23-2.12,4.08,4.08,0,0,0-.76-.58c-2.41-1.41-5.07-2.23-7.61-3.42-2.46,3.33-4.82,6.54-7.17,9.74A10.38,10.38,0,0,0,440,154,4,4,0,0,0,439.75,154.76Zm47.84,39.69c2.81-2.73,4.46-6.15,6.81-9a3.55,3.55,0,0,0,.38-.6,1.48,1.48,0,0,0,.14-.46,3,3,0,0,0,0-.46c-.45-.88-1.35-1.09-2.12-1.49-1.63-.85-3.27-1.67-4.91-2.5a5.54,5.54,0,0,0-2.64-.67,99.2,99.2,0,0,0-7,9.35,2.59,2.59,0,0,0-.12.84C481.18,191.24,484.42,192.74,487.6,194.45Zm-7.08,10.12c-4.08-3-7.68-4.74-10.64-5-2.15,2.8-4.54,5.55-6.71,8.46,1.6,1.49,8.48,5.08,10.67,5.57C476.44,211,478.13,207.6,480.51,204.57Zm15.29-21.8a23.61,23.61,0,0,0,2.5-2.69c1.3-1.91,2.6-3.81,4-5.65a3.47,3.47,0,0,0,1.15-2.33,7.29,7.29,0,0,0-.94-.7c-2.11-1.11-4.22-2.22-6.35-3.29-1.23-.61-1.53-.55-2.43.57q-3.36,4.2-6.65,8.45a4.39,4.39,0,0,0-.43,1.08Zm-37.35-34.29c-2.79,3.56-5.64,7.2-8.47,10.85a2,2,0,0,0-.2.65c2.18,1.68,6.39,3.5,8.52,3.68.28-.31.62-.64.91-1a88.85,88.85,0,0,1,6.47-7.7,4.92,4.92,0,0,0,.71-1,1.37,1.37,0,0,0-.66-2.16c-1.48-.78-3-1.58-4.45-2.34A5.17,5.17,0,0,0,458.45,148.48ZM476,172.95a5.93,5.93,0,0,0,.82.6c2.08,1,4.16,2,6.26,3s2.57.91,3.91-1.07l.39-.6a23.38,23.38,0,0,1,3.89-4.82,8.22,8.22,0,0,0,2.07-3c-.25-.32-.43-.74-.74-.91q-3.12-1.76-6.29-3.43a4.66,4.66,0,0,0-1.21-.25c-3,3-5.72,6.26-8.52,9.41A5.52,5.52,0,0,0,476,172.95Zm-15.48,35.93c-2.36-1.28-4.49-2.5-6.67-3.59a20.25,20.25,0,0,0-2.94-1,34,34,0,0,0-3.6,4.58c-1.18,1.56-2.6,3-3.22,4.86a61.85,61.85,0,0,0,7.84,4.72,13,13,0,0,0,1.62.47c2.51-2.68,3.8-6.13,6.23-8.77A8,8,0,0,0,460.56,208.88Zm7.8-55.45a50.09,50.09,0,0,0-4.59,5.41c-1.36,1.93-3.2,3.49-4.56,5.8,2.5,1.09,4.54,2.62,6.9,3.57,1.15.46,1.37.37,2.27-.59,2.11-2.27,4.26-4.51,6.35-6.8a6.65,6.65,0,0,0,1.69-2.53c-1.12-1.49-1.11-1.53-2.26-2.1C472.32,155.28,470.45,154.42,468.36,153.43ZM458,146.58a2.3,2.3,0,0,0,.57-.36,29,29,0,0,0,3.53-4.49,22.78,22.78,0,0,1,2-2.68,3,3,0,0,0,.84-2.25,39.46,39.46,0,0,0-8.87-4.7c-.27.11-.48.13-.55.24q-3.21,4.44-6.39,8.91a2.09,2.09,0,0,0-.2.63A53,53,0,0,0,458,146.58Zm9.34,37a4.21,4.21,0,0,0,.73.68c2.59,1.41,5.4,2.39,7.85,4.08.58.4,1.12.12,1.62-.55,2-2.78,4-5.55,6-8.33a6.8,6.8,0,0,0,.52-1.13c-.8-.44-1.47-.86-2.18-1.2-1.95-.93-3.91-1.82-5.87-2.72a1.39,1.39,0,0,0-1.74.32c-.16.18-.34.34-.49.53q-3,3.72-6,7.45A5.29,5.29,0,0,0,467.29,183.57Zm-13.75,37.16c-1.1,1.45-2.14,2.75-3.1,4.11s-2.17,2.54-2.6,4.26a28.17,28.17,0,0,0,5.22,3c1.75.87,3.35,2.07,5.28,2.53.41-.46.75-.79,1-1.17,1.47-2,2.93-4,4.4-6l.14-.19a1.07,1.07,0,0,0-.55-1.73,15.76,15.76,0,0,1-3.6-1.84A28.71,28.71,0,0,0,453.54,220.73Zm-31.24-44L430,166.14c-1.34-1.26-1.83-1.43-9.44-3.37a5.91,5.91,0,0,0-1.86,2.05q-2.15,3.3-4.2,6.66a6.24,6.24,0,0,0-.44,1.59C416.62,174.75,419.44,175.56,422.3,176.78Zm17.39-6c-2.3-2.35-5.18-3.24-8.08-4.42a33.59,33.59,0,0,0-2.92,3.52,39.66,39.66,0,0,0-2.53,3.48c-.73,1.28-1.81,2.39-2.26,4a44.38,44.38,0,0,0,8.35,3.67c.15-.24.3-.52.49-.78Zm29.68-18.44c1.51.82,2.88,1.62,4.29,2.32s2.58,1.86,4.19,2.17a4.89,4.89,0,0,0,.81-.63q3-3.58,5.88-7.18a9,9,0,0,0,.64-1.06,4.31,4.31,0,0,0-.74-1,55.49,55.49,0,0,0-8.13-4.21A49.07,49.07,0,0,0,469.37,152.38Zm6.34,37.53c-2.59-2.84-5.88-4-9.14-5.36A11.39,11.39,0,0,0,464,187.4c-.75.92-1.51,1.86-2.17,2.85a12.89,12.89,0,0,0-2.12,3.21,6.89,6.89,0,0,0,1,.69q4,1.65,8,3.25c1,.42,1.34.33,2-.57,1.31-1.69,2.6-3.41,3.87-5.14C475,191.18,475.29,190.62,475.71,189.91Zm-23.53,13c.48.3.86.58,1.28.8q3.31,1.68,6.64,3.33c1.48.73,2.1.65,3.09-.66,1.83-2.41,3.57-4.87,5.34-7.3-.2-.76-.82-.94-1.41-1.17-1.41-.56-2.8-1.15-4.21-1.71l-4.31-1.71c-2.18,2.34-3.85,5-5.87,7.33A5.63,5.63,0,0,0,452.18,202.91Zm37.14-79.77a7.79,7.79,0,0,0-1-1c-1.05-.72-2.17-1.36-3.22-2.08a3.1,3.1,0,0,0-3-.38c-1.59.54-3.21,1-4.78,1.55a3.92,3.92,0,0,0-1.53,1.06,10.31,10.31,0,0,0-1.29,2,6.8,6.8,0,0,0-1.14,2.4,13.09,13.09,0,0,0,1.37,1c1.47.81,2.92,1.66,4.45,2.35A14.24,14.24,0,0,0,483,131.6,40,40,0,0,0,489.32,123.14ZM459.5,147.25c2.35,1.85,6.66,3.94,8.62,4.18,2.1-3,5-5.42,6.38-9-2.28-2.33-5.17-3.48-7.79-4.86-.94.23-1.26.9-1.66,1.48-1.77,2.55-3.25,5.29-5.34,7.61A2.14,2.14,0,0,0,459.5,147.25Zm-17.35,52.7c-2.84-1.49-5.49-3-8.29-4.25a11.57,11.57,0,0,0-2.7,2.87c-.83,1.07-1.73,2.09-2.48,3.22a11.89,11.89,0,0,0-2,3.35c2.24,1.18,4.41,2.32,6.58,3.45a13.12,13.12,0,0,0,1.52.68,2.07,2.07,0,0,0,.68,0C438.15,206.2,441.3,201.9,442.15,199.95Zm-11-35.25a20.16,20.16,0,0,0,3.24-4.53c.95-1.62,2.43-2.93,3-4.88a47.89,47.89,0,0,0-6.37-3.45,1.75,1.75,0,0,0-2.18.37,64.06,64.06,0,0,0-6.74,8.08,2,2,0,0,0-.18.66A55.35,55.35,0,0,0,431.19,164.7Zm26.21,71a34,34,0,0,0-10.48-5.41,33.94,33.94,0,0,0-4.76,6.87,4.55,4.55,0,0,0,.62.62c1.7,1.19,3.4,2.38,5.13,3.52a31.71,31.71,0,0,0,3.09,1.82c1,.49,1.38.39,2.09-.45a14.65,14.65,0,0,0,1.69-2.31C455.63,238.87,456.82,237.54,457.4,235.74ZM450.26,175c.29.33.44.63.69.76q3,1.55,6,3a5.36,5.36,0,0,0,1.11.28c.87-.83,1.74-1.54,2.47-2.37q2.53-2.86,5-5.82a1.31,1.31,0,0,0-.37-2.07c-1.36-.83-2.75-1.63-4.18-2.34a5.55,5.55,0,0,0-2.66-.9C455.37,168.38,453,171.75,450.26,175Zm48.61-45.56c-2.17-1.71-4.46-3-6.5-4.66a10.74,10.74,0,0,0-1.7-.92c-2.27,2.28-3.65,5.13-5.75,7.42a7,7,0,0,0-.74,1.34c2.86,2,5.55,4.11,8.74,5.33a72.8,72.8,0,0,0,5.44-7.31C498.5,130.36,498.6,130.06,498.87,129.43Zm-58.4,40.44c.66-.77,1.14-1.29,1.57-1.85,1.66-2.13,3.31-4.27,4.94-6.43a1,1,0,0,0-.3-1.62,43.93,43.93,0,0,0-7.74-4,52.6,52.6,0,0,0-6.4,9.4Zm9.44,19.5a8.8,8.8,0,0,0,2.82-2.81c1-1.54,2.08-3,3.1-4.52.39-.57.93-1.1.8-1.88-3-2.32-4.6-3.12-7.37-3.69a51.28,51.28,0,0,0-7.5,9.14A27.84,27.84,0,0,0,449.91,189.37Zm16.9,36.13c0,.08,0,.18.07.22a33.39,33.39,0,0,0,6.56,3.84,1.1,1.1,0,0,0,1.31-.29,9.23,9.23,0,0,0,.94-1.08q2.25-3.09,4.48-6.19a10.15,10.15,0,0,0,.75-1.22,1.15,1.15,0,0,0-.48-1.8c-1-.56-1.91-1.14-2.9-1.65s-2.28-1.1-3.35-1.62A61.5,61.5,0,0,0,466.8,225.5Zm14.58-22.28,3.18-4.19c.62-.83,1.24-1.66,1.85-2.5a1,1,0,0,0,0-1.33,4.12,4.12,0,0,0-1-.94c-1.09-.64-2.21-1.26-3.35-1.82a23.76,23.76,0,0,0-4.68-2.21,50.75,50.75,0,0,0-5.82,7.85c.38.71,1.13.83,1.77,1.11a27.3,27.3,0,0,1,5.75,2.89A14.31,14.31,0,0,0,481.38,203.22ZM505,170.88c1.82-2.36,3.58-4.62,5.32-6.9a1.21,1.21,0,0,0-.34-2q-2.33-1.46-4.71-2.83a11.69,11.69,0,0,0-2.73-1.27,47.33,47.33,0,0,0-6.57,8.48A40.09,40.09,0,0,0,505,170.88Zm-37.82-34.55a7.16,7.16,0,0,0,2.64,1.76c1,.55,1.93,1.13,2.91,1.67a7,7,0,0,0,2.92,1.12,7.27,7.27,0,0,0,.88-.81c1.63-2.07,3.25-4.14,4.83-6.25a3.47,3.47,0,0,0,.3-1.16,62.23,62.23,0,0,0-9.22-4.88c-2,2.13-3,4.8-4.57,7.07A8.77,8.77,0,0,0,467.17,136.33Zm-14.8,83.79c-3.09-1.48-5.92-3.52-9.29-5.16-.23.33-.46.66-.69,1-1.46,2.19-2.93,4.38-4.38,6.59a2.72,2.72,0,0,0-.23.82c2.73,2.28,6.64,4.48,8.73,4.94A37.71,37.71,0,0,0,452.37,220.12Zm-10.93-49.62c2.72,1.53,5,3.09,7.77,4.06,2.3-2.8,4.57-5.54,6.83-8.31a9.24,9.24,0,0,0,.72-1.22c-.93-.55-1.72-1.06-2.55-1.5-1.41-.73-2.83-1.45-4.29-2.09-1-.42-1.4-.25-2,.6-1.3,1.71-2.59,3.43-3.89,5.14C443.21,168.2,442.44,169.19,441.44,170.49Zm41.93-36.76a44.51,44.51,0,0,0-6.14,8,5.5,5.5,0,0,0,.85.72c2.36,1.32,4.73,2.63,7.11,3.9.83.44,1.4.28,2.07-.56,1.42-1.82,2.8-3.67,4.17-5.52a6.85,6.85,0,0,0,.52-1,10.79,10.79,0,0,0-2.88-1.87c-.95-.58-1.83-1.27-2.76-1.87S484.42,134.37,483.37,133.74Zm-72.9,62.79a20.77,20.77,0,0,0,7.62,4c2.21-2.88,4.35-5.9,6.42-8.94-1.47-1.5-5.17-3.4-8-4.16A44.17,44.17,0,0,0,410.47,196.53Zm1.28,25.84c-1.37-1.49-3.15-2.11-4.63-3.18a3.84,3.84,0,0,0-1.21-.33c-3,3.78-4.84,8.27-7.78,12.1a12.31,12.31,0,0,0,4.05,4.58A102,102,0,0,0,411.75,222.37ZM494,152.55c-.43.22-.7.28-.84.44q-3.17,3.73-6.3,7.48a5.13,5.13,0,0,0-.47.95,20.6,20.6,0,0,0,3.94,2.23,16.46,16.46,0,0,0,4.15,2A11.53,11.53,0,0,0,496,164.2c1.62-2.33,3.64-4.39,5-6.84-.11-.28-.13-.49-.24-.56C498.48,155.39,496.27,154,494,152.55ZM440.25,185.1a6.57,6.57,0,0,0,1.2-1.19,34,34,0,0,1,3.9-4.82c.67-.79,1.39-1.53,2-2.35s.54-1.42-.34-2l-3.44-2.15A8.36,8.36,0,0,0,441,171.4a4,4,0,0,0-.77.62q-3.26,4.42-6.48,8.86a2.37,2.37,0,0,0-.23.64A21.71,21.71,0,0,0,440.25,185.1ZM529,136.77c-1.95-3.08-4.88-5.95-6.78-6.71a52.3,52.3,0,0,0-6,9.12,2,2,0,0,0,.4.53q3.19,2.1,6.41,4.17a6,6,0,0,0,.92.39c.26-.19.6-.32.76-.56C526,141.42,527.8,139.34,529,136.77ZM497.5,228.14a2.3,2.3,0,0,0,.35-.23,68.56,68.56,0,0,0,6.07-9.12,1,1,0,0,0-.47-1.42q-2.35-1.41-4.73-2.77c-1-.59-1.5-.48-2.19.53q-2.5,3.64-5,7.3a15.81,15.81,0,0,0-.76,1.4A27.82,27.82,0,0,0,497.5,228.14Zm14.62-51.5a30.63,30.63,0,0,0-4.06,5.31c-1.09,1.81-2.62,3.38-3.16,5.46a23.32,23.32,0,0,0,6.68,3.26,53,53,0,0,0,6.7-9.78,2,2,0,0,0-.41-.54C516,179.14,514.15,177.94,512.12,176.64ZM481.65,205a34.1,34.1,0,0,0-3.36,4.64c-1.06,1.53-2.66,2.71-3.17,4.6.93,1.22,2.3,1.58,3.44,2.27a23.52,23.52,0,0,0,3.81,2,11,11,0,0,0,1.37-1.77,15.08,15.08,0,0,1,2.53-3.43,16.23,16.23,0,0,0,2.46-3.74A25.2,25.2,0,0,0,481.65,205Zm14.47-6.74c.9-1.3,1.87-2.65,2.79-4,1.05-1.59,2.11-3.18,3.08-4.82.73-1.23.48-1.86-.74-2.47-.85-.42-1.67-.9-2.51-1.35l-2.06-1.13c-1.33.92-1.94,2.25-2.77,3.39s-1.68,2.32-2.47,3.52-1.86,2.15-2.31,3.5A18.48,18.48,0,0,0,496.12,198.29Zm-53.21,59.17a7.24,7.24,0,0,0,1.32.07q4.69-.89,9.38-1.82a3,3,0,0,0,2-1.22c1-1.51,2.06-3,3.07-4.55.11-.17.07-.45.1-.68a9.55,9.55,0,0,0-3.2-2.08c-1.1-.59-2-1.57-3.52-1.67-2.84,3.18-5.31,6.7-8,10A18.54,18.54,0,0,0,442.92,257.46Zm67.74-65.25c-2-1.83-4.21-2.64-6.36-3.6-.26.18-.52.27-.64.45q-3,4.49-5.93,9a3.91,3.91,0,0,0-.33,1,21.48,21.48,0,0,0,6.94,3C506.38,198.91,509,196,510.65,192.21Zm-42.06-23.1a14.33,14.33,0,0,0,6.11,2.94c3-2.84,5.59-6.21,8.53-9.21a3.44,3.44,0,0,0,.44-.91,19.49,19.49,0,0,0-5.53-3.42c-3,2.77-5.35,6.12-8.24,8.95A15.6,15.6,0,0,0,468.6,169.11ZM430.85,150.8c2.54,1.09,4.85,2.43,7.37,3.24.3-.27.49-.41.65-.59,2.52-2.8,4.37-6.09,6.6-9.09a4,4,0,0,0,.46-.83,1.13,1.13,0,0,0-.6-1.59c-1-.45-2-.86-3.17-1.33A11.36,11.36,0,0,0,440,142.1a58.34,58.34,0,0,1-6,5.17A10.8,10.8,0,0,0,430.85,150.8Zm3.74,43.57c2.79,1.62,5.36,2.86,7.95,4.08a1.34,1.34,0,0,0,1.88-.5,5.42,5.42,0,0,0,.49-.81,27.1,27.1,0,0,1,3.54-5.37,1.12,1.12,0,0,0,.33-1.39c-1.27-.58-2.63-1.23-4-1.83a25.77,25.77,0,0,0-4.25-1.79A63.47,63.47,0,0,0,434.6,194.37Zm-9.13,12a63,63,0,0,0-5.12,7.12,22.62,22.62,0,0,0,8.38,4.92c.92-1.21,1.84-2.49,2.83-3.72s2.13-2.33,2.5-3.93c-2.15-1.93-4.78-2.72-7.12-4A5.9,5.9,0,0,0,425.46,206.37ZM473,231.48a16.88,16.88,0,0,0-7.51-4.38c-1.76,1.82-3.18,4-4.83,6.06a3.68,3.68,0,0,0-1.1,2.17c.16.2.3.53.55.68,2,1.24,4.09,2.46,6.14,3.67.11.07.31,0,.68,0C468.91,237.08,471,234.42,473,231.48ZM517.82,153a27.28,27.28,0,0,0,5-7.66,36.6,36.6,0,0,0-7.61-4.82,36,36,0,0,0-5.67,7.69,6.4,6.4,0,0,0,1.08.84C513,150.29,515.13,152,517.82,153Zm-6.18,8.57c1-.4,1.43-1.41,2.07-2.19s1.17-1.51,1.7-2.31,1.51-1.45,1.52-2.78c-2.65-1.82-5.56-3.24-8.32-4.84a25.23,25.23,0,0,0-5.11,7.2A31.91,31.91,0,0,0,511.64,161.61Zm-29.23,59a33.79,33.79,0,0,0-3.42,4.78c-1.13,1.71-2.7,3.12-3.54,5a20.58,20.58,0,0,0,6.28,3.47,39.85,39.85,0,0,0,6.78-9.41A16.5,16.5,0,0,0,482.41,220.64Zm22.29-17c-1.52,1.42-2.26,3.13-3.31,4.63s-2.39,2.76-2.91,4.53a22.52,22.52,0,0,0,6.59,3.6c1.45-1.24,2.31-3,3.43-4.49a22.45,22.45,0,0,0,3-4.86A34.77,34.77,0,0,0,504.7,203.66Zm-58.88,26a66.88,66.88,0,0,0-9.11-5.05c-1.1,1.48-2.24,3-3.36,4.53-.42.58-.8,1.19-1.16,1.81a2.87,2.87,0,0,0-.16.79,41.66,41.66,0,0,0,8.61,4.72c1.07-.52,1.33-1.51,1.89-2.27s1.06-1.39,1.62-2.06A5.69,5.69,0,0,0,445.81,229.67Zm64.83-53.28a16.11,16.11,0,0,0-5.68-3.25c-1.78,1.66-6.84,8.69-7.46,10.41a16.53,16.53,0,0,0,5.77,3c2.7-2.8,4.46-6.14,6.8-9A6.25,6.25,0,0,0,510.64,176.39Zm3.91-38.19A52.4,52.4,0,0,0,521,129a26.65,26.65,0,0,0-6.16-4,2.8,2.8,0,0,0-.61.46q-2.82,3.87-5.61,7.77a3.89,3.89,0,0,0-.29.88C510.5,135.25,512.13,137.32,514.55,138.21Zm-97,47.66a24.43,24.43,0,0,0,8.15,4c1.53-1.92,3.14-3.9,4.69-5.92a5.84,5.84,0,0,0,.58-1.58,4.4,4.4,0,0,0-.75-.67q-2.65-1.38-5.33-2.71a4.32,4.32,0,0,0-1.14-.35,5.19,5.19,0,0,0-.93,0A43.17,43.17,0,0,0,417.58,185.87Zm55.94-12.24a19.8,19.8,0,0,0-4.45-2.91,1.79,1.79,0,0,0-2.53.57q-3.15,3.59-6.23,7.23a6.45,6.45,0,0,0-.64,1.17,10.41,10.41,0,0,0,3.11,2c1,.52,2,1.38,3.3,1.28,1.25-1.56,2.51-3.1,3.73-4.66A45.25,45.25,0,0,0,473.52,173.63Zm38.07,19.31c-1.86,2.81-3.67,5.53-5.45,8.27a9.11,9.11,0,0,0-.63,1.55c2.4,1,4.5,2.3,7,3,1-1.62,1.86-3.18,2.8-4.74s2.24-2.83,2.8-4.54A19.31,19.31,0,0,0,511.6,192.93Zm-59.9-2.77a16.78,16.78,0,0,0,6.36,2.58,19.47,19.47,0,0,0,3.51-4.09c1.07-1.52,2.55-2.75,3.37-4.43a14,14,0,0,0-6.19-3.55A52.5,52.5,0,0,0,451.7,190.17Zm-29.09,36.25a10,10,0,0,0,1.76-2.35c.47-.73,1.07-1.38,1.56-2.1a5.43,5.43,0,0,0,1.29-2.49,73.29,73.29,0,0,0-7.9-4.78,18.33,18.33,0,0,0-5,7.18A49.29,49.29,0,0,0,422.61,226.42Zm73.7-12.7a25.33,25.33,0,0,0-6.2-3.63c-1.12.68-1.55,2-2.29,3s-1.52,2.06-2.27,3.09-1.71,1.87-2,3.21c1.12.71,2.14,1.32,3.12,2s1.77,1.63,3.22,1.67C492.24,220.17,494,216.87,496.31,213.72Zm23-32.08c-1.19,1.6-2.42,3.07-3.45,4.67a25.73,25.73,0,0,0-3.08,5.15,22.45,22.45,0,0,0,6.23,3.4,35.26,35.26,0,0,0,5.51-9.57A13.67,13.67,0,0,0,519.36,181.64Zm-29.88,26.27c2.43-2.2,5.19-6.25,5.68-8.34a17.84,17.84,0,0,1-2.37-1.45,8.51,8.51,0,0,0-4.54-1.81,37.48,37.48,0,0,0-5.51,7.45A24.4,24.4,0,0,0,489.48,207.91Zm-52.71,2.48c1.61.87,3.07,1.69,4.56,2.44,1,.51,1.39.39,2.06-.44s1.59-1.79,2.25-2.77c1.33-2,2.93-3.76,3.77-6.11-.33-.38-.57-.86-.95-1.05a17,17,0,0,0-4.61-1.74,2.94,2.94,0,0,0-.64.47q-3.06,4.13-6.1,8.28A4.89,4.89,0,0,0,436.77,210.39Zm76.11-2.61c-1.7,1.76-2.77,3.92-4.18,5.84a17.4,17.4,0,0,0-2.32,3.67,16.22,16.22,0,0,0,4.44,2.91,1.54,1.54,0,0,0,1.91-.57,41.21,41.21,0,0,0,5.36-7.05,9.25,9.25,0,0,0,.54-1.53A16.59,16.59,0,0,0,512.89,207.78Zm-101.7,1.56c.31-.16.5-.19.59-.31,1.59-2,3.17-4,4.73-6a2.93,2.93,0,0,0,.31-1,18,18,0,0,0-7.65-3.74c-2.93,3.62-4.26,5.76-4.86,7.87A26,26,0,0,0,411.19,209.35Zm8-7.87,5.89,2.56a3.59,3.59,0,0,0,.8-.56q2.91-3.63,5.77-7.3a6.09,6.09,0,0,0,.54-1.1,7.24,7.24,0,0,0-1-.79c-1.32-.73-2.64-1.45-4-2.1a5,5,0,0,0-1.49-.18c-2,2.73-3.93,5.44-5.87,8.15A11.46,11.46,0,0,0,419.18,201.47Zm48.62,39a15.11,15.11,0,0,0,5.87,3.65c1.91-3.07,4.88-5.35,6.89-8.47-.33-.42-.51-.83-.82-1-1.36-.82-2.76-1.59-4.16-2.33a7.42,7.42,0,0,0-1.33-.42A89.92,89.92,0,0,0,467.8,240.44Zm40.31-93c1.83-2.13,3.35-4.37,5.06-6.46a4.55,4.55,0,0,0,.46-1.43c-2.15-1.44-3.88-3.36-6.41-4.22a17.6,17.6,0,0,0-3,3.72c-.92,1.27-2.21,2.29-2.74,3.92C503.36,144.91,505.7,146.05,508.11,147.4Zm-21.35,1.11a103.49,103.49,0,0,0-7.69,9,21.18,21.18,0,0,0,4.8,2.88,1.44,1.44,0,0,0,1.94-.29c.33-.35.67-.69,1-1.06q2.5-3.06,5-6.13a4.36,4.36,0,0,0,.41-.78A21.52,21.52,0,0,0,486.76,148.51Zm10.56,63.74c2.1-3,4.38-5.72,5.72-9.16-.32-.32-.54-.7-.87-.85-1.44-.67-2.9-1.31-4.38-1.88a1.33,1.33,0,0,0-1.84.64q-2.22,3.26-4.37,6.57a5.68,5.68,0,0,0-.46,1.23A17.46,17.46,0,0,0,497.31,212.25Zm-26.16-85.19c-2.79-2.41-2.32-2.14-5.51-1.28a6.23,6.23,0,0,0-1.32.55q-3.45,1.87-6.88,3.78a4.74,4.74,0,0,0-.77.75c1.11.6,2.08,1.11,3,1.64,1.67.92,3.31,1.89,5,2.77,1,.5,1.44.35,2-.55q1.93-3,3.78-6.08A11,11,0,0,0,471.15,127.06Zm29.13,17.31a2.6,2.6,0,0,0-.55.4c-1.66,2-3.32,4.09-5,6.16a2.9,2.9,0,0,0-.26,1c2.58,1.38,4.81,3.21,7.73,4,1.59-2.46,3.27-4.76,4.68-7.18A20.92,20.92,0,0,0,500.28,144.37Zm-47.14,99.88a50.66,50.66,0,0,0,6.19,3.44c.58.3,1.06-.08,1.44-.54l2.46-2.92c.61-.73,1.25-1.45,1.82-2.21.75-1,.63-1.86-.42-2.36a21.31,21.31,0,0,1-3.23-2,5.51,5.51,0,0,0-2.88-1.32c-1.48,2.12-3,4.26-4.47,6.4C453.79,243.13,453.56,243.55,453.14,244.25ZM409,181.61a34.07,34.07,0,0,0,5.77,3.44c1,.39,1.34.31,2-.61q2.17-3,4.3-6a2.44,2.44,0,0,0,.18-.77,6.72,6.72,0,0,0-1-.62c-1.68-.72-3.36-1.41-5.05-2.1-.37-.15-.76-.23-1.14-.36a1.36,1.36,0,0,0-1.63.63C411,177.19,410.15,179.5,409,181.61Zm-.68,1.6a4.64,4.64,0,0,0-1.29,2.44c-.76,2.08-1.16,4.3-2.67,6.05a2.54,2.54,0,0,0-.32.64c-.51,1.15-.44,1.53.49,2.26a6.87,6.87,0,0,0,3,1.42c1.07.21,1.41.1,2-.79.92-1.39,1.88-2.75,2.75-4.17a20.68,20.68,0,0,0,2.36-4.25A39.82,39.82,0,0,0,408.33,183.22Zm111.23-3.84c.91-1.42,1.79-2.65,2.51-4s2.1-2.4,2.43-4.07a24.79,24.79,0,0,0-4.65-3.46,4.15,4.15,0,0,0-1.16-.29,41.47,41.47,0,0,0-5.39,7.1,3.25,3.25,0,0,0-.24,1C515.17,176.88,517,178.48,519.56,179.38Zm-25.26-40.75a53,53,0,0,0,5.57,3.5,28.27,28.27,0,0,0,6-7.74c-1.56-1.89-3.64-2.89-5.5-4.16A48.72,48.72,0,0,0,494.29,138.63Zm-58.72,85.66a2.39,2.39,0,0,0-1.47-1.69c-1.67-.73-3.35-1.44-5.17-2.22a50.59,50.59,0,0,0-4.28,5.08,9.64,9.64,0,0,0-.91,1.71,21.87,21.87,0,0,0,7.32,3.8Zm9.35-24.89c1.36.77,2.59,1.51,3.85,2.18,2,1,2.34.52,3.25-.65,1.47-1.89,3-3.76,4.42-5.65a7.85,7.85,0,0,0,.65-1.29,4.23,4.23,0,0,0-.83-.61c-1.86-.7-3.73-1.36-5.5-2C449.22,192.58,446.65,196.12,444.92,199.4Zm-5.66-13.31c-2.34-1-4.11-2.65-6.44-3.32a4.87,4.87,0,0,0-.78.66q-2.28,3.06-4.51,6.15a3.34,3.34,0,0,0-.32.82,15.61,15.61,0,0,0,6.07,3.17A56.12,56.12,0,0,0,439.25,186.09Zm80.18,23.8c1.95-1.87,2-4.4,3.24-6.34a23.19,23.19,0,0,0,1.53-3.6c-1.73-.88-2.88-2.41-4.7-2.78-2.21,2.49-5,7.15-5.57,9.21.09.13.14.32.26.39C515.9,207.78,517.6,208.8,519.44,209.89Zm-78,5a3.39,3.39,0,0,0-1.9-1.52c-.7-.36-1.44-.67-2.1-1.09-1.33-.82-1.7-.86-2.61.25-1.51,1.84-3,3.74-4.4,5.63a5.16,5.16,0,0,0-.47,1.08,26.47,26.47,0,0,0,6.5,3.32C438.27,220,440.44,217.81,441.46,214.9Zm51.85-75.07c-1.8,2.29-3.52,4.46-5.22,6.65a4.22,4.22,0,0,0-.43,1A25,25,0,0,0,493.3,151a40.81,40.81,0,0,0,2.89-3.65c.83-1.31,2.24-2.28,2.54-4C497.38,141.62,495.5,140.78,493.31,139.83Zm-95.83,75.51c-1.13,4.4-1.41,11.68.22,13.81a13.93,13.93,0,0,0,1.89-2.71c.55-1,1.06-2,1.63-2.91s1.18-1.88,1.82-2.8,1.47-1.67,1.58-2.91a4.59,4.59,0,0,0-.71-.63c-1.17-.67-2.36-1.31-3.54-2A2.54,2.54,0,0,0,397.48,215.34Zm114.18-40.48c1.92-2.47,3.69-4.71,5.42-7a1.16,1.16,0,0,0-.34-1.85,17.84,17.84,0,0,0-4.42-2.39,4.4,4.4,0,0,0-.74.61q-2.51,3.19-5,6.41a6.31,6.31,0,0,0-.53,1.09A58.62,58.62,0,0,0,511.66,174.85Zm14.13,9c2.42-2.51,3.55-5.39,5-8.06-.9-1.61-2.63-2-3.76-3.07a4.19,4.19,0,0,0-1.35-.54,20.26,20.26,0,0,0-1.4,1.7q-1.64,2.49-3.19,5a6.74,6.74,0,0,0-.47,1.3A18.37,18.37,0,0,0,525.79,183.81Zm-.71-13.56c3.14-3.8,4.22-5.39,5.05-7.42A15.1,15.1,0,0,0,525,159c-1.86,2.5-3.84,4.77-5.53,7.29.28.37.42.69.67.85C521.74,168.18,523.36,169.17,525.08,170.24Zm-63.76,78.41c3.09,2.68,4,2.84,7.33,1.31a10.07,10.07,0,0,0,1.28-.64,3.65,3.65,0,0,0,1.07-.91c.61-.91,1.13-1.88,1.66-2.78a15.52,15.52,0,0,0-5.35-4.09A28.48,28.48,0,0,0,461.31,248.65Zm-43-46c-1.8,2.3-3.48,4.43-5.14,6.58a2.59,2.59,0,0,0-.24.75,22.43,22.43,0,0,0,4.84,2.55,1.38,1.38,0,0,0,1.74-.37,14.56,14.56,0,0,0,1.3-1.39c.93-1.39,1.81-2.83,2.67-4.27a5.85,5.85,0,0,0,.39-1.12A17.93,17.93,0,0,0,418.31,202.66ZM417.73,214c-2.1-1.23-3.83-2.48-6.17-2.77-1.43,2.2-3.52,3.88-4.66,6.31a14.18,14.18,0,0,0,5.83,3.53Zm83.63,16.16a56.24,56.24,0,0,0,8.07-7,7.64,7.64,0,0,0,.82-1.31,9,9,0,0,0-4.59-3.13,2.11,2.11,0,0,0-.55.41q-3,4.33-5.91,8.68a5.59,5.59,0,0,0-.4,1A5.33,5.33,0,0,0,501.36,230.17Zm22.27-71.59c-.63-1.23-1.63-1.47-2.42-2a4.84,4.84,0,0,0-2.94-1.26,82,82,0,0,0-5.21,7.08,23.36,23.36,0,0,0,5.18,3.28Zm.6-12.12a24.52,24.52,0,0,0-4.68,7.43c1,.61,2,1.27,3,1.85.68.39,1.42.67,2.18,1,2.2-1.72,3.36-4,4.65-6.4a4.81,4.81,0,0,0-.89-1.11C527.09,148.34,525.92,147.11,524.22,146.46Zm.86,52a42.33,42.33,0,0,0,4.25-9.92,5.4,5.4,0,0,0-3.06-2.47,6.41,6.41,0,0,0-.75.83q-2.39,3.73-4.73,7.49a6.66,6.66,0,0,0-.44,1.17A22.09,22.09,0,0,0,525.08,198.49Zm-121.89,9.08a22,22,0,0,0-3.11,4.67,6,6,0,0,0-.3,1.44c2,1,3.6,2.48,5.75,2.82,3.22-3.3,4.19-4.58,4.59-6.05A18.8,18.8,0,0,0,403.19,207.57Zm128.5-33c2-2.47,2.47-4,2.55-8.44l-2.89-2.27a24.22,24.22,0,0,0-4.67,7.34,14.84,14.84,0,0,0,1.25,1C529.12,173,530.34,173.78,531.68,174.62Zm-.85-13.16a29.45,29.45,0,0,0,2.83-3.51,4.45,4.45,0,0,0-.16-4.56,5.31,5.31,0,0,0-2.69-2.14,32.88,32.88,0,0,0-4.51,6.66Zm-5.72-16.25a23.37,23.37,0,0,0,5.07,3.41l1.58-1.53a2.4,2.4,0,0,0,.64-2.38,28.93,28.93,0,0,0-1.8-5.66c-.1-.26-.39-.44-.59-.65A23.82,23.82,0,0,0,525.11,145.21ZM402.6,205.36l4.91-7.2c-.52-1.05-1.52-1.07-2.24-1.54a3.2,3.2,0,0,0-2.51-.92,26.56,26.56,0,0,0-1.55,4.2c-.32,1.45-1.21,2.78-1,4.45Zm41.23-65.9c.29.81,1,1,1.66,1.29,1.44.73,1.88.62,2.82-.62,1.15-1.52,2.3-3,3.44-4.57a4.39,4.39,0,0,0,1.07-2.64c-1.7,1.15-3.14,2.1-4.55,3.07s-2.73,1.91-4.08,2.89C444,139,443.95,139.27,443.83,139.46Zm88.78,37.22c-.4.1-.67.09-.79.21a41.45,41.45,0,0,0-4.52,7.82,4.91,4.91,0,0,0,2.69,1.71A52.93,52.93,0,0,0,532.61,176.68Zm-46.29-58c.09.34.07.64.2.75a9.86,9.86,0,0,0,3.88,2.17,5.86,5.86,0,0,0,1.7-2.13,4.73,4.73,0,0,0,.16-1.26ZM458.15,253.79c2.43-.33,3.27-.69,4.73-2a4.59,4.59,0,0,0-2.58-1.95A9.87,9.87,0,0,0,458.15,253.79ZM399.32,206c-.28,1.14-.6,2.19-.79,3.26a9.28,9.28,0,0,0-.51,3.51c1.19-2.21,2.66-3.76,3.55-5.64A1.85,1.85,0,0,0,399.32,206Zm98.21,24.2a14.8,14.8,0,0,0-1,1.19c-.6.84-1.16,1.7-1.72,2.57-.06.09,0,.28.1.56a18.19,18.19,0,0,0,4.58-3.13A2,2,0,0,0,497.53,230.2ZM474,122.24c-1.58.64-2.92.89-3.9,2.05a2.87,2.87,0,0,0,2.12,1.39C472.74,124.67,473.67,123.9,474,122.24Zm60.26,38.47a4,4,0,0,0-1.91,2l1.64,1.43A4.34,4.34,0,0,0,534.28,160.71Zm-1.44-12.59c-.44.57-.83.89-.93,1.29a1.3,1.3,0,0,0,.43,1,.82.82,0,0,0,.8.11,1,1,0,0,0,.21-.83A10.49,10.49,0,0,0,532.85,148.12Zm-59.57,99.25a1.9,1.9,0,0,0,.4-.05c.31-.15.79-.12.72-.67a.25.25,0,0,0-.14-.16c-.47-.16-.66.2-.88.48C473.33,247,473.34,247.11,473.28,247.37Z"/><path d="M381.86,294.21a10.59,10.59,0,0,1,.29-1.68,71.89,71.89,0,0,0,2.64-10.93c.68-3.28,1.42-6.56,2.06-9.85.54-2.74,1-5.5,1.46-8.25.36-2.29.55-4.6,1-6.88s.89-4.55,1.52-6.77a8,8,0,0,1,3.15-4.38,5.11,5.11,0,0,1,5.85-.36,31.52,31.52,0,0,1,5.56,3.74c1.39,1.2,2.82,2.35,4.25,3.5a64,64,0,0,0,11.83,7.23,3,3,0,0,0,2.32.19,11.6,11.6,0,0,0,1.13-.37c3-1.32,5.81,1.42,6,3.71a19.71,19.71,0,0,1,.06,3.59,5.32,5.32,0,0,1-2.08,3.4,28.86,28.86,0,0,1-4.69,3.28c-4.68,2.58-9.5,4.92-14.15,7.56-4.09,2.32-8,4.89-12,7.42-2,1.28-4,2.66-5.91,4.08a10.53,10.53,0,0,1-8.12,2.08Zm20.46-20.6a15.15,15.15,0,0,1,7.67-1.94,29.31,29.31,0,0,0,3.56-.41,5.49,5.49,0,0,0,4.23-3.17l2.85-5.9c-.36-.29-.7-.61-1.08-.87-.66-.44-1.38-.8-2-1.26q-5-3.53-9.91-7.11c-1.87-1.36-3.69-2.8-5.56-4.16a10.63,10.63,0,0,0-5-2.16,2,2,0,0,0-1.93.69,10.45,10.45,0,0,0-2.37,3.84,18.39,18.39,0,0,0-.75,3.74c-.22,4.78-.34,9.57-.47,14.35a2,2,0,0,0,.27.76c1.93.31,3.73.6,5.54.88S400.54,272.6,402.31,273.6Zm20.12-1.84c.85-2.6,1.56-4.71,2.22-6.84a2.66,2.66,0,0,1,1.71-1.84,7.56,7.56,0,0,0,1.52-.68.75.75,0,0,0,.16-1.07,1.17,1.17,0,0,0-1.19-.64c-2,.23-3.72.87-4.51,3A33.94,33.94,0,0,1,421,267a32.44,32.44,0,0,1-2.2,4,6.75,6.75,0,0,1-5.14,3.12,45.48,45.48,0,0,1-4.78.08,16.58,16.58,0,0,0-6.5,1.39,2.18,2.18,0,0,0-.93.7,26.17,26.17,0,0,0-4.57,8.62,16.67,16.67,0,0,0-.26,1.76,4.56,4.56,0,0,0,1.09-.29C405.8,281.14,414.32,276.59,422.44,271.77ZM400,274.53c-2.74-1.28-5.39-2.75-8.56-1.51a8.94,8.94,0,0,0-.26,1c-.2,1.58-.38,3.17-.55,4.75q-.45,4.17-.86,8.33a9.1,9.1,0,0,0,0,1.91,5.09,5.09,0,0,0,.46,1.22,5.1,5.1,0,0,0,4.42-4,29.55,29.55,0,0,1,4.13-8.87A5.25,5.25,0,0,0,400,274.53Z"/><path d="M122.06,118.24a2.17,2.17,0,0,1-.24.4,17.14,17.14,0,0,1-6.94,3,13.46,13.46,0,0,1-5.68-.39,71.77,71.77,0,0,1-8.86-2.77c-.83-.28-1.67-.52-2.49-.8a7.24,7.24,0,0,1-.73-.33c0-.26,0-.38,0-.4,2.25-1,3.69-3,5.27-4.73a12.63,12.63,0,0,1,8.77-4.28,15,15,0,0,1,2.39-.12,7.86,7.86,0,0,1,5.31,2.34,26.55,26.55,0,0,0,4.76,4.35c.23.15.36.46.63.82a1.79,1.79,0,0,1-2.29-.05,21.68,21.68,0,0,1-2.79-2.6,12.38,12.38,0,0,0-2.34-2,4.74,4.74,0,0,0-2.42-.93c-1-.08-1.9-.19-2.86-.27-3.2-.25-5.64,1.2-8,3.56.48,0,.76.14.88,0a9.16,9.16,0,0,1,6.07-1.8,14.66,14.66,0,0,1,9.09,3.14A7.76,7.76,0,0,1,122.06,118.24Zm-14.5-5.52c-.16.7-.31,1.24-.4,1.78-.32,2,.64,3.37,2,4.6a1.38,1.38,0,0,0,.85.38,28.06,28.06,0,0,0,3.32-.25,1.49,1.49,0,0,0,1.34-1.47,10.35,10.35,0,0,0-.42-4.76A9.11,9.11,0,0,0,107.56,112.73Zm8.66,6.49c2.31-.92,2.85-1.54,2.67-2.82a2.25,2.25,0,0,0-2.35-2.07c0,.78,0,1.56,0,2.33S116.34,118.2,116.21,119.22ZM105.55,114c-1.38.41-1.73.77-1.82,1.84-.12,1.36.36,2.13,1.82,2.89Z"/><path d="M172.34,126a6.53,6.53,0,0,1-.46-1.08,12.19,12.19,0,0,0-.32-1.87c-1-2.44-.59-4.85,0-7.28.21-.92.4-1.84.61-2.81a1.11,1.11,0,0,1,1.6.43,8.18,8.18,0,0,1,1.42,3.25,16.43,16.43,0,0,1-.1,6.18A4.12,4.12,0,0,1,172.34,126Z"/><path d="M149.75,119.94c-.86,0-1.52-1-1.44-2.13a1.43,1.43,0,0,1,1.39-1.35c1,.07,2.08.87,2.16,1.59S150.75,120,149.75,119.94Z"/><path d="M112,115.69a1.47,1.47,0,0,1-1.49,1.5,1.49,1.49,0,0,1-1.59-1.39,1.62,1.62,0,0,1,1.63-1.65A1.49,1.49,0,0,1,112,115.69Z"/></svg>