<svg xmlns="http://www.w3.org/2000/svg" viewBox="0 0 144 144"><defs><style>.cls-1{fill:none;stroke:#a4dad0;stroke-linecap:round;stroke-linejoin:round;stroke-width:3px;}.cls-2{font-size:31px;fill:#f59493;font-family:Baloo-Regular, Baloo;}.cls-3{letter-spacing:-0.01em;}.cls-4{letter-spacing:0em;}.cls-5{letter-spacing:-0.01em;}.cls-6{font-size:13px;fill:#808285;font-family:Lato-Bold, Lato;font-weight:700;}.cls-7{letter-spacing:-0.03em;}</style></defs><title>cozy</title><g id="Layer_3" data-name="Layer 3"><path class="cls-1" d="M41.23,43.35A16.94,16.94,0,0,1,34,40.85c-2.09-1.49-3.59-4.07-3.12-6.6.53-2.81,3.29-4.72,6.08-5.38a29.18,29.18,0,0,1,8.56-.52c6.36.42,38.14-9.42,41.92-12,3.15-2.15,2.72-12.21,9.28-12.13,2.87,0,5.87,1.17,7.1,3.77,1.05,2.23,1.09,6.67.82,9.11"/><path class="cls-1" d="M36.07,43.55c-3,4.35.15,10.39,6.27,9.78,6.9-.68,9-9.17,11.07-12S87.67,27,100,28.12c4,.37,8.78,1.25,11.58-1.68,2-2.09,2.06-5.57.6-8.06a11.08,11.08,0,0,0-7-4.79"/><text class="cls-2" transform="translate(35.34 87.13)"><tspan class="cls-3">C</tspan><tspan class="cls-4" x="17.3" y="0">o</tspan><tspan class="cls-5" x="35.34" y="0">z</tspan><tspan x="50.03" y="0">y </tspan></text><text class="cls-6" transform="translate(26.18 111.83) scale(0.79 1)">comfy digs and 24/7<tspan x="-13.51" y="15.6" xml:space="preserve"> care that feels li</tspan><tspan class="cls-7" x="80.75" y="15.6">k</tspan><tspan x="87.53" y="15.6">e home</tspan></text></g></svg>