<svg xmlns="http://www.w3.org/2000/svg" viewBox="0 0 144 144"><defs><style>.cls-1{fill:#f4c6c6;}.cls-2{font-size:31px;fill:#f59493;font-family:Baloo-Regular, Baloo;}.cls-3{letter-spacing:-0.01em;}.cls-4{letter-spacing:-0.01em;}.cls-5{font-size:13px;fill:#808285;font-family:Lato-Bold, Lato;font-weight:700;}</style></defs><title>custom</title><g id="Layer_3" data-name="Layer 3"><path class="cls-1" d="M73,23.57c-6-.25-8.56,6.25-10.69,10.1-1.16,2.1-6.79,7-3.91,12.31a5.9,5.9,0,0,0,6.73,3.21c2.76-.74,4.48-2.94,7.28-2.39s6.35,2.58,8.14,2.62c3.19.08,4.54-.63,6-3.48,2.07-4.09-1.47-9.83-4-12.63C79,29.42,80,23.86,73,23.57Z"/><path class="cls-1" d="M79.42,8.18C75.12,8.12,71.68,14,74.7,20c.67,1.33,4.25,2.49,6.2.76C84.54,17.54,84.39,8.24,79.42,8.18Z"/><path class="cls-1" d="M83.23,27.22c0,2.7,1.54,4.21,3.77,3.85,7-1.15,7.08-9.15,3.1-10.71C88,19.52,83.25,24.21,83.23,27.22Z"/><path class="cls-1" d="M61.42,10.84c-3.36,1.79-1.63,10.73,1.51,12.2a5.17,5.17,0,0,0,6.44-1.89C71.1,18.12,66.13,8.34,61.42,10.84Z"/><path class="cls-1" d="M52.3,23c-2.14,2.58-.57,6.38.47,7.59A4.65,4.65,0,0,0,57,32.3a3.49,3.49,0,0,0,2.73-3.4C59.76,24.15,53.61,21.47,52.3,23Z"/><text class="cls-2" transform="translate(18.28 87.13)"><tspan class="cls-3">C</tspan><tspan x="17.55" y="0">us</tspan><tspan class="cls-4" x="50.84" y="0">t</tspan><tspan x="63.05" y="0">om</tspan></text><text class="cls-5" transform="translate(21.08 111.82) scale(0.79 1)">maintain usual eating, <tspan x="-19.74" y="15.6">sleeping, and walking routine</tspan></text></g></svg>