<svg id="Layer_2" data-name="Layer 2" xmlns="http://www.w3.org/2000/svg" viewBox="0 0 350 350"><defs><style>.cls-1{font-size:15px;letter-spacing:0.07em;}.cls-1,.cls-5,.cls-6,.cls-7,.cls-8,.cls-9{fill:#141414;}.cls-1,.cls-6{font-family:ChippewaFalls, Chippewa Falls;}.cls-2{letter-spacing:0.05em;}.cls-3{letter-spacing:0.07em;}.cls-4{fill:none;}.cls-4,.cls-5,.cls-9{stroke:#141414;}.cls-4,.cls-9{stroke-linecap:round;stroke-linejoin:round;stroke-width:3px;}.cls-5{stroke-miterlimit:10;stroke-width:0.5px;}.cls-6{font-size:18px;letter-spacing:0.1em;}.cls-7{font-size:25px;font-family:Montebello-Script, Montebello;}.cls-10{fill:#fff;}</style></defs><title>dolla_dolla_biel</title><text class="cls-1" transform="translate(74.85 296.34)">Proudly based in Akr<tspan class="cls-2" x="145.51" y="0">o</tspan><tspan class="cls-3" x="153.21" y="0">n, Ohio</tspan></text><path class="cls-4" d="M58.17,220.13c-1.88,9.8-2.82,14.71-4.7,24.51,7.86,1.5,11.8,2.2,19.7,3.46"/><path class="cls-4" d="M277,249l1.83,12.18c7-6,10.49-9.12,17.22-15.35C288.44,247.17,284.63,247.81,277,249Z"/><path class="cls-4" d="M322,213.8c-10,2.35-20.09,4.44-30.19,6.25,1.78,10.28,2.66,15.42,4.43,25.7-6.82,6.25-10.31,9.33-17.45,15.39,10.43-1.58,15.63-2.47,26-4.46s15.55-3.08,25.87-5.48c-7.3-6.18-10.88-9.33-17.89-15.7C316.68,226.84,318.52,222.5,322,213.8Z"/><path class="cls-4" d="M72.73,248.3,70.9,260.48c-7-6-10.47-9.12-17.2-15.34C61.3,246.51,65.1,247.15,72.73,248.3Z"/><path class="cls-4" d="M27.74,213.15c10,2.35,20.07,4.44,30.16,6.25-1.78,10.28-2.66,15.42-4.43,25.7,6.81,6.24,10.3,9.32,17.43,15.38-10.42-1.58-15.62-2.47-26-4.45s-15.54-3.08-25.85-5.48c7.3-6.19,10.87-9.33,17.87-15.7C33.09,226.19,31.25,221.85,27.74,213.15Z"/><path class="cls-4" d="M73.17,248.1A703.25,703.25,0,0,0,277,249"/><path class="cls-4" d="M291.84,220.06l-2.2-12.12a657.19,657.19,0,0,1-228.95-1l-2.52,13.19"/><path class="cls-5" d="M70.43,221.5l4.55.76a18.87,18.87,0,0,1,4.61,1.18,7,7,0,0,1,4.14,7.67,7,7,0,0,1-3.45,5.22,8.64,8.64,0,0,1-4.68,1.22,28.36,28.36,0,0,1-4-.43l-3.79-.64Zm3.29,15.05.32.06.26,0a7.84,7.84,0,0,0,5.46-1,6.26,6.26,0,0,0,3-4.68,6.69,6.69,0,0,0-.45-3.71,6.21,6.21,0,0,0-4.06-3.49,18.22,18.22,0,0,0-2.4-.57Z"/><path class="cls-5" d="M87,233.61a5.54,5.54,0,0,1,.81-2.26,5.81,5.81,0,0,1,1.58-1.64,6.62,6.62,0,0,1,4.78-1A6.38,6.38,0,0,1,98.55,231a5.93,5.93,0,0,1-1.08,8.31,6.41,6.41,0,0,1-4.86,1.14,6.5,6.5,0,0,1-4.34-2.27A5.61,5.61,0,0,1,87,233.61Zm5.37,6,.18,0,.16,0a5.6,5.6,0,0,0,4-.84,4.79,4.79,0,0,0,2.11-3.57,4.89,4.89,0,0,0-1.06-3.89,5.52,5.52,0,0,0-3.69-1.9l-.17,0h-.16Z"/><path class="cls-5" d="M105.39,226.49l4.74.52-1.62,15.11-4.85-.54Z"/><path class="cls-5" d="M115.42,227.56l4.74.45-1.38,15.14-4.86-.46Z"/><path class="cls-5" d="M131.82,243.49a6.46,6.46,0,0,1-6.94-.73,3.82,3.82,0,0,1-1.2-3.3,3.64,3.64,0,0,1,1.69-2.83,6.13,6.13,0,0,1,4-.86,7.84,7.84,0,0,1,3,.81l.21-2.95a6.94,6.94,0,0,0-1.77-.41,11.58,11.58,0,0,0-1.31,0,7.32,7.32,0,0,0-1,.12,3.92,3.92,0,0,0-1.63.63.9.9,0,0,1-.59.23.55.55,0,0,1-.38-.16.36.36,0,0,1-.11-.28.66.66,0,0,1,.08-.27.74.74,0,0,1,.23-.23,3.86,3.86,0,0,1,1.16-.47,9.52,9.52,0,0,1,3.28-.34c3.29.24,5.34,1.13,6.15,2.71a5.13,5.13,0,0,1,.43,2.69l-.43,6.72-4.84-.32Zm.43-6.09a6.7,6.7,0,0,0-2.76-.86,2.6,2.6,0,0,0-.43,0l-.52,6.81.12,0h.14a5.11,5.11,0,0,0,3.08-.82Z"/><path class="cls-5" d="M149.53,230l4.6.19a18.77,18.77,0,0,1,4.71.6,7.28,7.28,0,0,1,2.62,1.39,7.07,7.07,0,0,1,2.44,5.7,7,7,0,0,1-2.77,5.61,8.61,8.61,0,0,1-4.48,1.79,28.24,28.24,0,0,1-4,.06l-3.83-.16C149.12,239.11,149.26,236.07,149.53,230Zm5.13,14.53.33,0h.26a7.82,7.82,0,0,0,5.29-1.65,6.26,6.26,0,0,0,2.41-5,6.7,6.7,0,0,0-.91-3.62,6.2,6.2,0,0,0-4.45-3,18,18,0,0,0-2.44-.26C154.95,236.43,154.85,239.13,154.65,244.52Z"/><path class="cls-5" d="M167.47,239.94a5.55,5.55,0,0,1,.53-2.34,5.82,5.82,0,0,1,1.36-1.82,6.61,6.61,0,0,1,4.61-1.63,6.36,6.36,0,0,1,4.59,1.75,5.94,5.94,0,0,1,0,8.38,6.4,6.4,0,0,1-4.67,1.74,6.49,6.49,0,0,1-4.58-1.71A5.62,5.62,0,0,1,167.47,239.94Zm6.06,5.27h.34a5.59,5.59,0,0,0,3.84-1.33,4.8,4.8,0,0,0,1.64-3.8,4.89,4.89,0,0,0-1.54-3.73,5.51,5.51,0,0,0-3.89-1.43h-.32C173.58,239,173.57,241.1,173.54,245.21Z"/><path class="cls-5" d="M184.77,230.59l4.76-.07c.11,6.08.17,9.12.27,15.2l-4.87.07C184.87,239.71,184.84,236.67,184.77,230.59Z"/><path class="cls-5" d="M194.85,230.4l4.76-.15c.21,6.08.31,9.11.51,15.19l-4.87.15C195.1,239.51,195,236.47,194.85,230.4Z"/><path class="cls-5" d="M213.12,244.16a6.47,6.47,0,0,1-7,.14,3.82,3.82,0,0,1-1.6-3.13,3.64,3.64,0,0,1,1.33-3,6.13,6.13,0,0,1,3.83-1.35,7.86,7.86,0,0,1,3.05.43l-.16-2.95a6.9,6.9,0,0,0-1.8-.18,11.38,11.38,0,0,0-1.3.13,7.47,7.47,0,0,0-1,.24,3.93,3.93,0,0,0-1.54.83.9.9,0,0,1-.56.3.56.56,0,0,1-.4-.11.37.37,0,0,1-.15-.27.65.65,0,0,1,0-.28.75.75,0,0,1,.2-.26,3.87,3.87,0,0,1,1.09-.61,9.56,9.56,0,0,1,3.21-.75c3.29-.17,5.44.46,6.44,1.92a5.13,5.13,0,0,1,.77,2.61l.41,6.72-4.85.28Zm-.33-6.09a6.72,6.72,0,0,0-2.85-.51,2.61,2.61,0,0,0-.42.05l.33,6.82h.26a5.11,5.11,0,0,0,3-1.2Z"/><path class="cls-5" d="M229,228.56l4.75-.4,2.14-.18a7,7,0,0,1,2.34.15,3.93,3.93,0,0,1,1.14.55,2.63,2.63,0,0,1,1,1.88,2.82,2.82,0,0,1-.64,2.09,2.61,2.61,0,0,1-.55.52,5.54,5.54,0,0,1,3.12,1.17,4.11,4.11,0,0,1,1.57,2.9,4.54,4.54,0,0,1-.86,3.25,7.07,7.07,0,0,1-4.93,2.49q-.88.12-1.74.2c-2.47.22-3.7.33-6.16.53C229.75,237.65,229.5,234.62,229,228.56Zm7.73,4.64h.57l.18,0a2.13,2.13,0,0,0,1.47-.76,2.17,2.17,0,0,0,.53-1.69,2,2,0,0,0-1.23-1.71,2.62,2.62,0,0,0-1.09-.28h-.83c-.41,0-1,0-1.63.1l1.21,13.58,1.25-.11a9.55,9.55,0,0,0,3.08-.74,5,5,0,0,0,2.14-1.74,3.29,3.29,0,0,0,.59-2.16,4.51,4.51,0,0,0-.52-1.8,3.48,3.48,0,0,0-1.1-1.18,5.53,5.53,0,0,0-3.71-.73l-.76.14a.81.81,0,0,1-.54-.09.41.41,0,0,1-.2-.3Q236.13,233.26,236.75,233.2Z"/><path class="cls-5" d="M249.78,228.4a2.87,2.87,0,0,1-1.83-.29,1.55,1.55,0,0,1-.78-1.22,1.4,1.4,0,0,1,.58-1.23,2.8,2.8,0,0,1,1.53-.69,4.12,4.12,0,0,1,1.31,0,2.62,2.62,0,0,1,.82.33,1.55,1.55,0,0,1,.78,1.14,1.4,1.4,0,0,1-.59,1.26A3.34,3.34,0,0,1,249.78,228.4Zm-2.12,2.13,4.77-.54,1.33,11.4-4.85.55Z"/><path class="cls-5" d="M269.28,236.74q.44-.06.49.32a1.08,1.08,0,0,1-.3.74,6.7,6.7,0,0,1-4.63,2.4,7,7,0,0,1-4.89-1,5.24,5.24,0,0,1-2.49-3.93,5.67,5.67,0,0,1,1.23-4.46,7,7,0,0,1,4.69-2.41,6.24,6.24,0,0,1,4.33.87,5.14,5.14,0,0,1,2.39,3.79c0,.24.06.5.09.77-2.95.43-4.42.63-7.37,1l.6,4.57a9,9,0,0,0,1.74-.08,5,5,0,0,0,3.28-1.74,4.21,4.21,0,0,0,.35-.49A.73.73,0,0,1,269.28,236.74Zm-4.09-7.57a6.13,6.13,0,0,0-1.66,0,7.14,7.14,0,0,0-1.43.31l.61,4.59,3.09-.42Z"/><path class="cls-5" d="M273.29,223.43l4.72-.73,2.39,15-4.84.75Z"/><text class="cls-6" transform="translate(212.9 138)">2010</text><text class="cls-6" transform="translate(102.33 138)">Est.</text><text class="cls-7" transform="translate(75.96 135.92) rotate(-71.24) scale(0.96 1)">Q</text><text class="cls-7" transform="translate(81.66 119.39) rotate(-62.32) scale(0.96 1)">u</text><text class="cls-7" transform="translate(88.1 106.9) rotate(-53.98) scale(0.96 1)">a</text><text class="cls-7" transform="matrix(0.64, -0.71, 0.74, 0.67, 97.5, 94.35)">l</text><text class="cls-7" transform="translate(102.24 89.13) rotate(-43.7) scale(0.96 1)">i</text><text class="cls-7" transform="translate(107.31 84.27) rotate(-39.76) scale(0.96 1)">t</text><text class="cls-7" transform="translate(112.52 79.71) rotate(-34.05) scale(0.96 1)">y</text><text class="cls-7" transform="translate(123.65 72.33) rotate(-28.05) scale(0.96 1)"> </text><text class="cls-7" transform="translate(130.75 68.53) rotate(-23.49) scale(0.96 1)"> </text><text class="cls-7" transform="translate(137.86 65.11) rotate(-16.44) scale(0.96 1)">V</text><text class="cls-7" transform="translate(154.17 60.57) rotate(-9.7) scale(0.96 1)">i</text><text class="cls-7" transform="translate(160.96 59.23) rotate(-3.97) scale(0.96 1)">n</text><text class="cls-7" transform="matrix(0.96, 0.03, -0.03, 1, 174.41, 58.44)">t</text><text class="cls-7" transform="matrix(0.95, 0.13, -0.14, 0.99, 181.28, 58.37)">a</text><text class="cls-7" transform="translate(196.7 60.55) rotate(16.43) scale(0.96 1)">g</text><text class="cls-7" transform="translate(210.3 64.63) rotate(23.58) scale(0.96 1)">e</text><text class="cls-7" transform="matrix(0.84, 0.46, -0.48, 0.87, 220.46, 69.13)"> </text><text class="cls-7" transform="matrix(0.8, 0.53, -0.55, 0.83, 227.5, 73.01)"> </text><text class="cls-7" transform="matrix(0.73, 0.62, -0.65, 0.76, 234.26, 77.13)">G</text><text class="cls-7" transform="translate(246.91 88.07) rotate(48.67) scale(0.96 1)">o</text><text class="cls-7" transform="matrix(0.54, 0.79, -0.83, 0.56, 255.28, 97.54)">o</text><text class="cls-7" transform="matrix(0.42, 0.86, -0.9, 0.44, 262.47, 107.85)">d</text><text class="cls-7" transform="matrix(0.31, 0.91, -0.95, 0.32, 269.27, 121.84)">s</text><polygon class="cls-8" points="130.11 63.21 132.09 62.19 134.06 63.24 133.7 61.04 135.3 59.5 133.1 59.16 132.13 57.16 131.13 59.15 128.92 59.45 130.5 61.02 130.11 63.21"/><polygon class="cls-8" points="230.76 70.73 232.74 69.71 234.71 70.76 234.35 68.56 235.95 67.02 233.75 66.68 232.78 64.68 231.78 66.67 229.57 66.97 231.15 68.54 230.76 70.73"/><path class="cls-9" d="M175,159.45c7.38,0,13.36-5.72,13.36-12.78a12.34,12.34,0,0,0-2.27-7.12,36.42,36.42,0,0,0-22.17,0,12.34,12.34,0,0,0-2.29,7.16C161.68,153.72,167.66,159.45,175,159.45Z"/><path class="cls-4" d="M212.62,166.82l-6.73-13.63c-.22.4-.45.79-.69,1.18a35.65,35.65,0,0,1-60.32-.13c-.24-.4-.48-.8-.7-1.21l-6.83,13.84a58.49,58.49,0,0,0,75.27-.06Z"/><path class="cls-4" d="M217.32,176.34l-4.7-9.52a58.49,58.49,0,0,1-75.27.06l-4.67,9.46a56.47,56.47,0,0,0,15,11.51h54.57A56.47,56.47,0,0,0,217.32,176.34Z"/><path class="cls-4" d="M132.68,176.34,127,187.85h20.72A56.47,56.47,0,0,1,132.68,176.34Z"/><path class="cls-4" d="M217.32,176.34a56.47,56.47,0,0,1-15,11.5H223Z"/><path class="cls-4" d="M181.9,104.6l-6.9-14-7,14.17a37.34,37.34,0,0,1,7-.77A35.15,35.15,0,0,1,181.9,104.6Z"/><path class="cls-4" d="M196,133.15l-7.63-15.45a36.5,36.5,0,0,0-26.72,0L154.05,133a36.26,36.26,0,0,1,41.94.11Z"/><path class="cls-4" d="M186.14,139.54a34.83,34.83,0,0,1,19.06,14.84c.24-.39.47-.79.69-1.18l-9.9-20a36.26,36.26,0,0,0-41.94-.11l-9.87,20c.22.4.46.81.7,1.21A34.81,34.81,0,0,1,164,139.5"/><path class="cls-4" d="M188.37,117.71,181.9,104.6A35.15,35.15,0,0,0,175,104a37.34,37.34,0,0,0-7,.77l-6.36,12.88a36.5,36.5,0,0,1,26.72,0Z"/><ellipse class="cls-10" cx="172.52" cy="146.81" rx="5.1" ry="4.88"/></svg>