<svg id="dolores_huerta_fixed_Image" data-name="dolores_huerta_fixed Image" xmlns="http://www.w3.org/2000/svg" viewBox="0 0 700 700"><title>dolores_huerta_bw</title><path d="M662.23,347.07c.31,2.22.34,2.36-1.66,2.78-6.4,1.32-12.78,2.88-19.25,3.71-12.7,1.63-25.45,2.94-38.2,4.18-7.52.74-15,.08-22.54-.55-16.86-1.4-33.23-5.33-49.63-9.14a14.59,14.59,0,0,0-9.41.8c-18.78,7.94-33.15,20.91-44.31,37.82-7,10.63-10.83,22.33-13,34.7a36.18,36.18,0,0,0-.26,4c.87.33,1.66.69,2.49.94a8.24,8.24,0,0,1,5.53,5.1,23,23,0,0,1,0,17.31c-1.49,3.81-4.49,6.17-8.24,7.63-2.83,1.1-2.83,1.11-2.85,4A205.52,205.52,0,0,0,463.35,490a18.52,18.52,0,0,0,4.32,9.7c11.25,13,22.5,26,33.88,39a113,113,0,0,1,9,11.39,145,145,0,0,1,13.77,25.49c3.38,8.1,7,16.12,10.44,24.18.79,1.84.77,1.84-1.09,2.78l-6.94-15.25a11.93,11.93,0,0,0-1.5.83c-7.79,6-15.57,12.07-24.08,17.13-4.39,2.61-8.54,5.6-12.78,8.45a13.46,13.46,0,0,0-5.21,6.32c-1.86,4.66-3.93,9.23-5.79,13.89a5.21,5.21,0,0,1-3.09,3.07,316.27,316.27,0,0,1-130.4,25.44A310.85,310.85,0,0,1,150,589.62c-4.31-3.62-8.22-7.73-12.18-11.74q-9.07-9.17-18-18.53c-4-4.15-7.9-8.31-11.64-12.65-24.14-28-41.1-60.05-53.27-94.78a308.89,308.89,0,0,1-12.62-49.41,6.53,6.53,0,0,1,.57-4.16c2-4.1,3.83-8.3,6-12.33a6.64,6.64,0,0,0-.42-7.51c-2.93-4.4-5.81-8.83-8.48-13.39a42.28,42.28,0,0,1-3.63-8.06c-2.79-8.51-5.39-17.08-8-25.63-2.19-7-3.13-14.33-4.16-21.6-1.23-8.7-2.33-17.39-1.84-26.23,1.3-23.23,6.74-45.31,18.25-65.68,6-10.69,12.31-21.24,18.48-31.86,4.93-8.49,11.37-15.86,17.32-23.61,7.9-10.29,17.18-19.24,26.79-27.87A115,115,0,0,1,120.93,122a121.55,121.55,0,0,0,10.65-7.24,117.57,117.57,0,0,1,19.94-12.14A211.19,211.19,0,0,1,178.1,91.73a68.4,68.4,0,0,1,10.47-2.25c4.59-.72,9-1.3,13.29-3.73,6.28-3.6,13-6.42,19.51-9.64,10.83-5.38,21.58-10.93,32.47-16.19,6.37-3.08,12.89-5.84,19.42-8.56a84.62,84.62,0,0,1,22.11-5.44,109.28,109.28,0,0,1,24.4-.54C326.1,46,332.4,46.8,338.43,49a38.61,38.61,0,0,1,14.95,9.75q2.58,2.73,5.35,5.3a18.91,18.91,0,0,1,4.7,6.48c3.46,8.16,7,16.29,10.26,24.53C378,106,382.07,117,386.25,128c2.09,5.48,2.6,6,8.31,7a160.34,160.34,0,0,0,27.82,2.33,18.79,18.79,0,0,1,10.06,2.37,5.4,5.4,0,0,0,4.11.53c5.71-1.12,11.4-2.43,17.17-3.1,12-1.39,24-1.54,35.87.76A57.28,57.28,0,0,1,506,144.28a28.77,28.77,0,0,1,4.82,3.82c2.37,2.06,2.79,4.62,1.86,7.57a67.32,67.32,0,0,1-7,15.06c-7.23,11.77-15,23.15-23.12,34.33-11.85,16.31-23.35,32.89-35.94,48.66-.61.77-1.08,1.67-1.75,2.38-1.88,2-2,4.11-1.18,6.68a179.17,179.17,0,0,0,18.1,40.94c4.94,8.1,10.28,16,15.28,24a15.16,15.16,0,0,0,7.07,6.18c9.23,4.16,18.28,8.7,27.4,13.09a.91.91,0,0,1,.24.12c2.57,2.47,5.22,1.81,8.06.41,7.4-3.65,6-2.73,13-1.16,16.09,3.56,32.25,6.76,48.69,8.35,6.7.65,13.38,1.46,20.1.91,5-.41,10-1.12,14.95-1.72,8.54-1,17.1-1.86,25.6-3.13,6.45-1,12.82-2.47,19.23-3.73A3.92,3.92,0,0,1,662.23,347.07ZM251.13,151.79c-.14-1.38.85-1.61,1.6-2,4.48-2.26,8.91-4.63,13.47-6.71,11.51-5.25,22.55-11.37,33.59-17.51a18.57,18.57,0,0,1,11.6-2.41c2.85.34,5.71.47,8.57.76,6.59.66,13.21,1.16,19.77,2.11,5.66.81,11.23,2.23,16.87,3.23,8.55,1.51,17.13,2.91,25.7,4.32,1.36.22,2.74.26,4.49.42-.6-1.3-1-2.19-1.42-3a122.62,122.62,0,0,1-7.78-17.4c-1.46-4.33-3-8.62-4.5-12.94a221.72,221.72,0,0,0-9.44-24C358.79,66.41,350,60.26,341.33,53.89a2.66,2.66,0,0,0-.47-.26c-8.17-3.74-16.69-6-25.72-5.86-6.36.13-12.72.48-19.06.93a64.56,64.56,0,0,0-10.63,1.43,146.44,146.44,0,0,0-32,12.3c-15.08,7.7-30,15.75-45,23.66-.65.34-1.24.81-1.92,1.27.37.32.49.51.63.52A13.78,13.78,0,0,0,209,88c13.89-.5,27.28,2.33,40.46,6.24,11.12,3.29,21,9.12,30.39,15.8a13.46,13.46,0,0,1,2,1.78c3.43,3.67,6.86,7.33,10.22,11.06a26.93,26.93,0,0,1,2.17,3.21c-1.3,1-1.92.35-2.53-.37-5.83-7-13.22-12.08-20.47-17.32a58.32,58.32,0,0,0-10.82-5.9c-5.08-2.23-10.4-3.91-15.54-6-8.74-3.58-18-5-27.25-5.73-14.1-1.18-27.9,1-41.46,4.65-9.67,2.62-18.59,7.07-27.05,12.36-9,5.65-17.88,11.63-26.9,17.31A165.12,165.12,0,0,0,87.67,154.7a288.17,288.17,0,0,0-51,80.47,147.67,147.67,0,0,0-11.45,49.52c-.79,13.11,1.42,26,4.6,38.56,2.76,10.92,6.81,21.51,10,32.33,2.52,8.54,8,15.33,12.57,22.7.08.12.29.17.53.3,2.31-4.85,4.74-9.64,6.9-14.55A213.54,213.54,0,0,1,75,336.48c3.39-5.38,6.43-11,9.69-16.44,3.44-5.77,6.88-11.54,10.49-17.21,1.48-2.33,3.61-4.24,5.08-6.57a201.49,201.49,0,0,1,26.72-34c.88-.89,1.7-1.85,2.54-2.78a173.68,173.68,0,0,1,37.38-31.33c3.27-2,6.67-3.91,9.73-6.23,9-6.82,19.06-11.71,28.74-17.3,1.31-.76,2.74-1.34,4.11-2l11.9-5.63c13-6.19,26.18-12.18,40-16.43,11-3.37,22-6.34,33.09-9.38a231.88,231.88,0,0,1,50.34-7.9,101.81,101.81,0,0,1,21.72.83c7.24,1.2,14.48,2.46,21.73,3.62a37.88,37.88,0,0,1,13.33,4.77c3.63,2.13,7.27,4.25,11,6.24a24.22,24.22,0,0,1,9,8.25c.83,1.28,1.69,2.54,2.6,3.76a11.07,11.07,0,0,1,2.18,6,101.64,101.64,0,0,0,3.12,18.53c1.44,5.64,3.21,11.18,4.82,16.78,2,7.06,4,14.12,6.08,21.17a31.52,31.52,0,0,0,1.39,3.28c.8-.88,1.32-1.37,1.74-1.93,8.81-11.87,18.17-23.34,26.22-35.77,2.19-3.38,4.5-6.69,6.89-9.94,5.94-8.09,12-16.09,17.92-24.2a129.67,129.67,0,0,0,14.51-26c.48-1.12,1.13-2.27,0-3.64-.92.29-1.87.51-2.75.87-8,3.28-16.25,3.61-24.59,2.23a176.41,176.41,0,0,1-50.55-16.78,16.16,16.16,0,0,0-7.47-1.8c-4.57,0-9.16.05-13.69-.39q-11.76-1.14-23.46-2.88c-12.14-1.79-24.25-3.8-36.37-5.72-6-1-12-2.12-18-2.85-7.2-.87-14.45-1.31-21.67-2.06a17.76,17.76,0,0,0-10.57,2.22q-19.9,10.65-40,21a59.66,59.66,0,0,1-7.25,2.78A6,6,0,0,1,251.13,151.79ZM401.07,337c4.26-3,8.08-5.81,12-8.44a62.41,62.41,0,0,1,16.59-8.15,3.64,3.64,0,0,0,2.74-2.89,45.35,45.35,0,0,0-.11-25c-2-6.86-4.36-13.64-6.86-20.35-2.37-6.38-3.94-12.81-3.5-19.68.21-3.3.13-6.63.09-9.95a36.4,36.4,0,0,0-.4-5.08c-.75-4.86-2.9-9.2-5.26-13.43a78.64,78.64,0,0,1-8.09-20.41,57.2,57.2,0,0,0-5.06-13.85,20.27,20.27,0,0,0-7.83-8.28c-2.94-1.71-5.86-3.48-8.67-5.39a73.85,73.85,0,0,0-17.5-8.73,15.09,15.09,0,0,0-4.42-1c-7.43-.19-14.87-.41-22.3-.28a92.23,92.23,0,0,0-34.55,7.06c-18.61,7.85-36.23,17.62-53.5,28-5.45,3.28-9.66,8-13.24,13.2s-6.93,10.45-10.49,15.61a54.75,54.75,0,0,1-6.34,8.31,83,83,0,0,0-12.84,16.83A32.87,32.87,0,0,0,207,266.57c-1.05,6.17-2,12.38-2.7,18.6-.47,4-.35,8.06-.76,12.06a92.89,92.89,0,0,0,0,19c.53,5.08,1.09,10.16,1.35,15.25.31,5.9.33,11.82.43,17.73a19.37,19.37,0,0,0,2.51,9.23c.82,1.49,1.58,3,2.27,4.57a226.61,226.61,0,0,0,17,31.72c8.77,13.57,19.83,25.18,31.07,36.64a32.38,32.38,0,0,0,3.49,2.94c8.22,6.29,17.24,11.14,26.63,15.53a337.17,337.17,0,0,0,35.37,14.22,45.13,45.13,0,0,0,8.29,2.2c6.65.89,13.33,1.71,20,2.06a79.73,79.73,0,0,0,14.21-.61c6.17-.79,11.9-3.28,17.53-5.81,3.7-1.66,6-4.91,8.23-8.32-1.25-1.63-2.34-3.16-3.55-4.59a41.68,41.68,0,0,1-5.64-8.78c-1.65-3.38-3.52-6.65-5.16-10a3,3,0,0,0-3.18-1.83,13.38,13.38,0,0,0-6.81,2.22c-1.44.91-2.85,1.87-4.33,2.71a5.65,5.65,0,0,1-2.49.89,2.65,2.65,0,0,1-1.95-1,2.09,2.09,0,0,1,.38-1.87,37.2,37.2,0,0,1,2.91-2.78c3.34-3.19,2-3.79-.59-5.33a42.47,42.47,0,0,1-10.29-8.56,25.5,25.5,0,0,0-3.66-3.48c-3.51-2.63-7.26-5-10.66-7.73-6.84-5.54-13.06-11.69-17.61-19.37-1.61-2.71-1.76-5.15.25-7.68,1.51-1.89,2.83-3.93,4.39-5.78a15.32,15.32,0,0,1,3.32-3c4-2.58,8.11-4.94,12.1-7.52A70.43,70.43,0,0,1,353,353.17c4.37-1.64,8.76-2.6,13.36-.87a2.88,2.88,0,0,0,3.37-1,39,39,0,0,1,3.93-4c6.54-5.41,13.4-10.21,22.34-10.57.15,0,.29-.18.66-.42a26.05,26.05,0,0,0-3.27-12.54c-1.8,1.7-3.32,3.19-4.92,4.59a1.82,1.82,0,0,1-3-.2,30.16,30.16,0,0,1,2.57-2.38c3.45-2.53,4.38-5.87,3.61-10-.52-2.76-1.69-4.77-4.43-5.89-3.24-1.32-3.9-3.2-2.6-7a15.51,15.51,0,0,1,2.28,1.72c1.27,1.39,2.41,2.89,3.6,4.34a13.49,13.49,0,0,1,3.12,7,6.9,6.9,0,0,0,.93,2.77c2.58,4.09,3.9,8.62,5,13.27C400,333.67,400.58,335.27,401.07,337ZM380.32,468.14l-.3-.63c-1,.28-2.06.49-3,.84a62.61,62.61,0,0,1-24.62,3.22,156,156,0,0,1-17.3-2.21c-9.46-1.62-18.77-3.78-27.54-7.9-10.62-5-21.33-9.79-32-14.61a68.08,68.08,0,0,1-16-10.22c-9.15-7.73-16.89-16.81-24.48-26a146.52,146.52,0,0,1-20-32.4,25.87,25.87,0,0,0-4.85-7.69,10.18,10.18,0,0,0-4.22-2.79c-.06,1.18-.15,2-.13,2.9q.28,18.55.59,37.09c.1,6.36.17,12.73.35,19.09.33,11.55-.47,23-4.56,33.87-1.61,4.29-2.79,8.68-4,13.07a8,8,0,0,0,.8,6.42A112.29,112.29,0,0,0,212.6,499.1a17,17,0,0,0,12.58,6.15c7.6.49,15.18,1.24,22.76,1.94,5.81.54,11.63,1.18,17.44.55,8.63-.94,17.29-1.83,25.84-3.3,11.81-2,23.63-4.18,34.9-8.54,4.09-1.58,8.27-3,12.49-4.15a95.47,95.47,0,0,0,31.81-15.86C373.76,473.37,377,470.73,380.32,468.14ZM511.11,570.82c.65-3,1.05-5.34,1.72-7.64a6,6,0,0,0-1-5.29,199.25,199.25,0,0,0-19.78-25.75Q478.89,517.59,466,502.84a25.58,25.58,0,0,1-4.54-6.9c-1.14-2.78-3.16-4.19-5.54-5.5a1.91,1.91,0,0,0-2.79.59c-1.21,1.55-2.47,3.07-3.71,4.6a12.45,12.45,0,0,1-7.68,4.55,72.58,72.58,0,0,0-7.87,1.7c-3.64,1.09-6.25-.08-8.37-3q-2.74-3.82-5.65-7.51c-4-5-5.11-10.71-4.18-16.94a29.3,29.3,0,0,0,.29-4c0-.43-.37-.87-.6-1.36-1.34.45-1.46,1.53-1.66,2.42-1.05,4.71-2,9.46-3.06,14.16a5.31,5.31,0,0,0,2.12,6.1c2.79,2.09,5.46,4.35,8.17,6.55,7,5.7,14,11.49,21.06,17.1,6,4.72,12.22,9.09,18.14,13.87s12,9.91,17.76,15.18c9.26,8.5,19.48,15.78,29.28,23.59C508.26,568.86,509.45,569.63,511.11,570.82ZM398.53,340.36c-2.89-1.77-4-1.92-6.91-.82-5.85,2.22-10.87,5.8-15.67,9.73a40,40,0,0,0-12,16.87,48.71,48.71,0,0,0-3.13,22.14,39.44,39.44,0,0,0,4,13.87,9.59,9.59,0,0,0,8.19,5.59c.07-1.17.13-2.13.19-3.09.44-7.87.69-15.78,2.4-23.49a75.61,75.61,0,0,1,16.08-32.69C393.85,345.81,396.13,343.17,398.53,340.36ZM509.85,151.69a12.22,12.22,0,0,0-4.8-5.51c-5.35-3.11-10.85-5.92-17.14-6.64-3.91-.44-7.82-.91-11.74-1.27-10.42-.95-20.73.18-31,1.87a11.78,11.78,0,0,0-6.14,2.75c3.09,1.32,5.76,2.53,8.48,3.61,1.74.69,3.61,1.05,5.34,1.77a115.71,115.71,0,0,0,20.69,6.56c9.06,1.93,18.18,3,27.37.75A22.54,22.54,0,0,0,509.85,151.69ZM163.77,345.2a9.09,9.09,0,0,0,1.07,1.37c4.56,3.61,9.06,7.31,13.76,10.75a11.63,11.63,0,0,0,8.23,1.91c4.45-.49,8.87-1.2,13.29-1.95a23.35,23.35,0,0,0,3.78-1.28l-9.42-21.36c-1.48,2.24-.83,4.86-2.83,7.1-.36-1.4-.69-2.36-.83-3.36s0-1.79,0-2.68c-.11-2.41-1.76-3.56-3.7-4.5s-3.05,0-4.29,1.22c-1,1-2.17,1.87-3.24,2.82s-2.21,2-3.29,3l1.87,2.63c-2.7.33-5.13.29-7.34,1S166.29,344,163.77,345.2ZM418.89,471.52c-.11.13-.27.26-.31.41a19.71,19.71,0,0,0-.43,2.11c-.62,5-.71,9.91,2.24,14.28,2.2,3.27,4.64,6.37,7,9.52a4.18,4.18,0,0,0,4.73,1.66c3.39-.85,6.81-1.54,10.21-2.36,3.79-.92,7.76-4.71,9.19-8.83l-5-2.71c-.94,1-1.75,1.94-2.66,2.78a9.67,9.67,0,0,1-12.58.7c-3.49-2.57-3.66-6.21-.43-9.06l1.71-1.53C430.08,476.05,421.89,472,418.89,471.52Zm-259.76-163c-.71.12-1.42.18-2.11.35-2.72.69-3.22,1.33-2.41,4a70.55,70.55,0,0,0,3.72,10.31,47.92,47.92,0,0,0,5.3,7.69,3.08,3.08,0,0,0,2.26,1.08,4.25,4.25,0,0,0,3.8-5.09c-1.28-5.3-2.68-10.56-4-15.84-.24-.92-.66-1.67-1.72-1.81Zm295,142.82c1.1,2.21,2.58,3.22,4.77,3.14,5.58-.19,11.37-5.48,11.83-11a40.68,40.68,0,0,0-.12-7.51,9,9,0,0,0-7.2-7.71c-2.47-.56-6.76,1.29-8.29,3.65l2.94-.65c3.17-.71,5.11,0,6.93,2.68,2.56,3.72,2.32,7.65.52,11.51-1.7,3.67-5,5.23-8.83,5.73C456,451.27,455.2,451.29,454.17,451.37Zm-2.53-10c0,.53,0,1.07.11,1.6.26,2.15,1.07,4.05,3.21,4.87a6.14,6.14,0,0,0,6.07-1,8.88,8.88,0,0,0,1.8-11.59,3.09,3.09,0,0,0-1.7-1.15C455.08,432.82,451.43,437,451.64,441.33ZM143.78,321.48a10.76,10.76,0,0,0,.79,1.79c3.15,4,6.25,8,9.51,11.92,1.78,2.12,3.62,1.89,5.82-.41a1.41,1.41,0,0,0,0-.52c-2-4-4-8-6-11.94-.75-1.44-1.62-1.85-3.38-1.29A10.83,10.83,0,0,1,143.78,321.48Zm37.31-9.59a31.92,31.92,0,0,0-8.81,3.31,3.66,3.66,0,0,0-.72.78c-1.82,2.75-1.35,8.41,1.14,11.3,1-1,2.3-1.83,2.87-3C177.48,320.37,179.13,316.33,181.08,311.89Zm175,57.95c-2.6,0-5,0-7.4,0a26.17,26.17,0,0,0-2.93.28,6.06,6.06,0,0,0-1.56.37c-1,.42-1.4,1.16-.74,2.12a4.71,4.71,0,0,0,1.5,1.45c1.48.81,3,1.51,4.57,2.22a4.25,4.25,0,0,0,5.14-1C356.16,373.81,357,372.17,356.09,369.84ZM159,297c-1.79,1.88-3.56,3.51-5,5.37-1.16,1.46-.6,2.8,1.05,3.35,3.14,1,8.23-.72,10.37-3.74C163.7,299.87,161.24,298.79,159,297ZM443.07,485c-2.73-2.87-8.11-3.42-10.92-1.24-.68.53-.89,1.26-.31,1.85a10.19,10.19,0,0,0,2.89,2.27C437.52,489.06,440.63,487.92,443.07,485ZM167.59,334a29.09,29.09,0,0,0,3.29,2.43,2.69,2.69,0,0,0,2.19.21c2.39-1.38,4.69-2.93,7-4.5.41-.28.58-.93.86-1.41l-.32-.49c-1.33.38-2.69.69-4,1.17s-2.42.81-3.61.09a2.29,2.29,0,0,0-3.12.51C169.22,332.64,168.53,333.21,167.59,334Zm-14.82-15.2-4.07-8.95c-1.11,2.2-2,3.73-2.67,5.36-.86,2.18.41,4,2.75,4C149.9,319.24,151,319,152.77,318.84ZM358.7,396.68a18.65,18.65,0,0,0-.24-3.47c-.15-.56-.9-1.39-1.35-1.37-2.47.09-4.94.38-7.41.68-.3,0-.54.54-1,1C352,394.89,354.86,396.62,358.7,396.68Zm-178.8-73.28.33.61c1.39.3,2.77.63,4.16.9a1.54,1.54,0,0,0,2-1.34c.35-1.47.74-2.94,1-4.43.14-.78.2-1.65-.52-1.81Zm-13,16.48c-1.95-3.46-5.5-3.64-8.53-.57,1,2.26,1.13,2.38,3.33,1.92C163.47,340.86,165.18,340.34,166.93,339.88Zm167.67,34.7A37.26,37.26,0,0,0,339,375c2.26-.07,2.69-.88,1.94-3.36A9.12,9.12,0,0,0,334.6,374.57Z"/><path d="M553.78,520.72a5.39,5.39,0,0,0-1.23.13c-3,1.18-5.23,0-7.19-2.15a9.8,9.8,0,0,1-2.76-6.82c0-9,2.92-16.86,10-22.81a10.89,10.89,0,0,1,9.49-2.62,9.39,9.39,0,0,1,5.63,3.73,7.91,7.91,0,0,0,1.2-1.45c.8-1.7,1.52-3.43,2.24-5.16a5.34,5.34,0,0,0,0-4.68,3.08,3.08,0,0,1,1.91-4.33,14,14,0,0,1,9.47-.11c1.63.57,2.08,1.52,1.52,3.16a36,36,0,0,1-2.12,4.92C576.35,493.15,571.19,504,566.56,515c-1.1,2.62-1.82,5.15-1,8,.58,2-.18,3.21-2.11,4.09a9.49,9.49,0,0,1-7.32.24c-2.48-.88-3.14-2.2-2.62-4.77C553.63,522.06,553.68,521.47,553.78,520.72Zm9.46-21.27a3,3,0,0,0-4.2-2.93c-3.15,1.13-6.61,5.8-6.73,9.09a3.34,3.34,0,0,0,4.85,3.39C560.22,507.65,563.3,502.81,563.24,499.44Z"/><path d="M570.5,411.56c-.65-2.46-1.14-4.64-1.8-6.76s-1.53-4-2.14-6.08c-1.64-5.54.06-10.7,4.78-14,5.48-3.77,11.54-4.09,17.75-2.23,2.53.76,3.14,2.26,2.43,4.8a12,12,0,0,1-.75,2c-1.32,2.69-2.48,3-5.06,1.58-3.89-2.21-7.84.08-7.73,4.56a16.78,16.78,0,0,0,.86,4.18c.43,1.46,1,2.86,1.56,4.29,2.88,8,1,15-4.24,21.3s-15,6.58-21,1c-6.55-6.15-2.68-15.53,3.07-18.36a5.28,5.28,0,0,1,1.79-.5c2.19-.21,3,.7,2.52,2.82a24.33,24.33,0,0,0-.67,3.68,3.78,3.78,0,0,0,2.54,4,3.62,3.62,0,0,0,4.36-1.79A28.71,28.71,0,0,0,570.5,411.56Z"/><path d="M578.09,523.12c-1.88,2.74-1.44,6,1.06,7.59a6.34,6.34,0,0,0,2.78.6,3.08,3.08,0,0,0,1.52-.48c3-1.58,4.83.08,4.21,3.52a11.24,11.24,0,0,1-5.49,7.92c-2,1.18-4.14.95-6.24.26-4.89-1.6-8.27-6.24-8.63-11.86a28.07,28.07,0,0,1,1.51-11.1,41,41,0,0,1,6.78-12.42,16.9,16.9,0,0,1,6.56-5A10.06,10.06,0,0,1,593,503.61a9.77,9.77,0,0,1,3.73,9.77,17.67,17.67,0,0,1-3,7.67,10,10,0,0,1-13,3.4C579.77,524,578.93,523.56,578.09,523.12Zm5.41-6.07c2.09.07,4.6-1.8,5.51-3.95.48-1.13.66-2.25-.35-3.21a2.43,2.43,0,0,0-3.42-.08,28.78,28.78,0,0,0-4,4.59c-.73,1-.3,1.77.92,2.26A10.83,10.83,0,0,0,583.51,517.06Z"/><path d="M495.56,456.28c-2.27-.45-4.56-.82-6.8-1.36-2.5-.61-3.45-.35-4.47,2-.95,2.21-1.66,4.53-2.39,6.82-.64,2-1.31,2.72-3.26,2.18a25.13,25.13,0,0,1-6.34-2.72c-2.08-1.27-2.15-2.41-.75-4.47a110.6,110.6,0,0,0,11.78-23.16,7.48,7.48,0,0,0,.43-4.19c-.5-2.71.25-3.61,3.11-3.55a28.23,28.23,0,0,1,16,5.5,24.17,24.17,0,0,1,4.16,3.78,9.47,9.47,0,0,1,1.63,10.75C506.16,453.5,501.68,456,495.56,456.28Zm4-16.68a3.54,3.54,0,0,0-2.15-3.41,2.94,2.94,0,0,0-3.75,1.27,91.26,91.26,0,0,0-4.43,8.26c-1.05,2.21-.05,3.36,2.4,3C495.38,448.2,499.63,443.3,499.59,439.6Z"/><path d="M524.27,370.57c2.54.49,5.09.88,7.6,1.5,1.31.33,2.53,1.08,2.56,2.72a4.71,4.71,0,0,1-1.89,4.23,4.08,4.08,0,0,1-2.76.09c-.94-.2-1.76-.88-2.69-1.16a4.16,4.16,0,0,0-4.44,1.14,3.62,3.62,0,0,0-.68,4.23c.79,1.8,1.62,3.58,2.54,5.32a15.11,15.11,0,0,1,1.94,9.8c-1.35,8.12-8.16,12.82-16.26,11.2a17.51,17.51,0,0,1-9.24-4.57c-2.52-2.51-3.73-5.48-2.37-9a7.87,7.87,0,0,1,5.83-5.07c2.53-.58,3.67.59,3.29,3.09a9.77,9.77,0,0,0-.13,2.4,3.89,3.89,0,0,0,3.54,3.46,3.48,3.48,0,0,0,4-2.77,10,10,0,0,0-.3-4.45,39.67,39.67,0,0,0-2.43-5.36c-.58-1.21-1.29-2.36-1.8-3.6-1.77-4.34-.49-8.18,3.55-10.58C517.24,371.33,520.67,370.84,524.27,370.57Z"/><path d="M579.55,428.71c.34-1.84.53-3.72,1.05-5.51a34,34,0,0,1,7.24-13,21.17,21.17,0,0,1,7.6-5.39,14.45,14.45,0,0,1,7.35-1.11c6.8.68,9.55,5.15,7.08,11.51a13.68,13.68,0,0,1-13.81,9.05,20.77,20.77,0,0,1-2.93-.35c-2.51-.47-3.6.76-2.8,3.22a4.16,4.16,0,0,0,5,2.57,22.56,22.56,0,0,0,3.21-1.33c1.09-.48,2.25-.92,3.29-.07s.89,2.21.53,3.47c-2.39,8.22-13.52,11.09-19.6,5A11.14,11.14,0,0,1,579.55,428.71Zm14.1-12.31c.19.29.24.51.38.58,3.55,1.82,8-2.11,8.53-4.66a1.51,1.51,0,0,0-1.29-2,4.76,4.76,0,0,0-2.78.43A11.24,11.24,0,0,0,593.66,416.4Z"/><path d="M508.94,485.16a8.34,8.34,0,0,0-1.2.15,8.29,8.29,0,0,1-10.75-8.1,17.78,17.78,0,0,1,1.41-5.94c1.07-2.74,2.46-5.36,3.74-8a10.86,10.86,0,0,0,1.23-6.21c-.26-2.07.41-2.82,2.47-2.94a13.41,13.41,0,0,1,6.82,1.1c2.21,1.08,2.75,2.35,1.71,4.56-1.18,2.51-2.66,4.87-3.86,7.37a39.62,39.62,0,0,0-2.13,5.47,4.75,4.75,0,0,0,0,2.61c.65,2.18,2.44,2.68,4.11,1.13a12.18,12.18,0,0,0,2.29-2.95,18.21,18.21,0,0,0,2.81-8.57c0-1.74.78-2.6,2.5-2.43a25.1,25.1,0,0,1,6.45,1.5c1.85.71,2.14,1.88,1.28,3.7-.95,2-2.1,3.95-3.12,5.94-1.47,2.86-3,5.7-4.31,8.64s-2.33,6.18-1,9.59c.53,1.36-.24,2.34-1.83,2.66-2.8.57-5-.64-7.14-2.33a4.87,4.87,0,0,1-1.61-5.54A7.58,7.58,0,0,0,508.94,485.16Z"/><path d="M531.63,490.76c-1.45,1.94-.89,3.7.18,5.31a4.36,4.36,0,0,0,4.81,2.17c.44-.1.85-.28,1.29-.37,2.69-.52,4.09.85,3.71,3.62a7.57,7.57,0,0,1-10,6.38,14.48,14.48,0,0,1-9.9-13.13,24.41,24.41,0,0,1,7.64-18.87c4.92-4.87,12.25-4.56,17.1.38,3.53,3.59,3.75,8.93.58,13.58-2.49,3.64-7,4.78-11.51,2.86C534.2,492.15,533,491.44,531.63,490.76Zm6-4.6a17.85,17.85,0,0,0,2.94-1.71c1.53-1.29,1.79-2.87.89-4a3,3,0,0,0-4.31-.24,13.4,13.4,0,0,0-2.57,2.7c-1,1.32-.67,2,.87,2.65A21,21,0,0,0,537.67,486.16Z"/><path d="M539.7,388.5a32.2,32.2,0,0,1,3.78.51c1.65.43,2,1.24,1.41,2.79-.55,1.32-1.31,2.54-1.92,3.83-1.81,3.78-3.68,7.54-5.35,11.38-.92,2.12-1.62,4.34-.87,6.76.38,1.22-.49,2-1.46,2.58-2.3,1.3-8.54.2-10.37-1.78a2,2,0,0,1-.27-2.69c.52-.84,1.08-1.64,1.62-2.46a60.42,60.42,0,0,0,6.23-13,5.28,5.28,0,0,0-.1-3.06c-.64-2.14-.47-3,1.62-3.66A51.44,51.44,0,0,1,539.7,388.5Z"/><path d="M543.37,384.55a30.55,30.55,0,0,1-4.5-1.43c-1.58-.77-1.7-2.19-.55-3.54a3.48,3.48,0,0,1,1-.86,11.09,11.09,0,0,1,9.28-.79c2.47.94,2.74,3,.66,4.7C547.57,384,545.53,384.22,543.37,384.55Z"/><path d="M373,258.84c7.4-4,19-8,24.61-8.65-3.84-1.2-7.78-2.42-11.71-3.66a6.17,6.17,0,0,0-5,.36,16.86,16.86,0,0,0-4,2.62,49.16,49.16,0,0,0-5.17,6.14,8,8,0,0,0-.63,8.21c1.32,2.93,2.92,5.73,4.5,8.53,1,1.84,2.3,3.57,2.63,6.08l-2.65-.43c-1.46,3,1.05,6.08-.22,9.35-1.65-1.12-2-2.63-2.33-4-1.14-4.33-2.17-8.69-3.32-13-1.08-4.07-2.09-8.16-3.4-12.16-2.32-7.07-.23-13.19,3.69-19,.2-.29.49-.53.7-.82a21.35,21.35,0,0,1,8.66-7,60.71,60.71,0,0,0,8.53-5.08,13.9,13.9,0,0,1,12.79-1.89,53.87,53.87,0,0,1,12.8,6.13,10,10,0,0,1,4.62,7.23c.3,2.39.42,4.8.54,7.21a6.91,6.91,0,0,1-.65,1.9,20,20,0,0,1-2.38-2.39A17.73,17.73,0,0,0,404.89,237a16.43,16.43,0,0,0-5.82-.31c-3.45.46-6.86,1.25-10.26,2-1.09.25-2.32.58-2.65,2.2a7.68,7.68,0,0,0,3.61,2.36c5,2.16,10.08,4.22,15.07,6.45a55,55,0,0,1,6.6,3.56,11.4,11.4,0,0,1,4.62,5.11,4.07,4.07,0,0,0,.84,1.37c2.26,2.11,2.18,4.52,1,7.24a2.26,2.26,0,0,1-.94,0c-1.71-.81-3.29-.4-4.89.36a18.71,18.71,0,0,1-10.42,1.94c-1.51-.19-3-.52-4.5-.76-4.06-.66-8.11-1.36-12.18-1.94-4.73-.67-8.8-2.4-11.39-6.68A10.89,10.89,0,0,1,373,258.84Zm16.84,4.5c-.61-1.61-1.19-3.28-1.88-4.9a2.12,2.12,0,0,0-2.32-1.47,58.55,58.55,0,0,0-9.63,2.8C379.41,263.85,385.85,265.5,389.88,263.34Zm9.63-5.74c0-1.75-.77-2.42-2.73-2.37s-3.28,1-3.28,2.66a3,3,0,0,0,2.82,3.23A3.3,3.3,0,0,0,399.52,257.59Zm11,2.2c-2.14,2-4.3,5.15-4.74,6.92,2.67.3,5-.54,5.75-2.23A3.68,3.68,0,0,0,410.48,259.8Z"/><path d="M320.61,214.86c2.42,0,4.84-.05,7.25,0a20.3,20.3,0,0,1,4,.48c1.37.32,3.07.68,3.28,2.32a4.66,4.66,0,0,1-1.87,4.25,7.16,7.16,0,0,1-1.63.91,63.82,63.82,0,0,1-24.55,4.95c-4.57,0-9.14.16-13.7.1a17.88,17.88,0,0,0-10.66,3c-3.85,2.62-7.83,5-11.76,7.53a21.89,21.89,0,0,1-2.1,1.19c-4.74,2.32-9.49,4.65-14.26,6.91-1.15.55-2.45,1.75-3.69.72-1.58-1.32-.18-2.83.35-4.14a14.46,14.46,0,0,1,6-7c7.39-4.56,14.59-9.49,22.58-13s16.24-6.81,24.93-8.18c5.17-.81,10.51-.48,15.78-.67Z"/><path d="M320.79,255.06c-4,1.1-7.47,1.71-10.7-1.08a56.54,56.54,0,0,0-4.66-3.26c-.43,2.47-.45,4.79-1.3,6.74s-2.49,3.36-3.93,5.19a49.46,49.46,0,0,0,9.51-2.54,45.76,45.76,0,0,1,6.53-1.33,9.12,9.12,0,0,1,2.17.34,16.49,16.49,0,0,1-2.33,1.12c-7.27,1.91-14.53,3.87-21.83,5.62-3.55.85-7.16,0-10.68-.57-3.88-.67-7.71-1.59-11.54-2.51a10.6,10.6,0,0,0-5.55-.19,3.16,3.16,0,0,1-4.08-1.7,26.78,26.78,0,0,1,2.57-2.47A111.84,111.84,0,0,1,284.09,247a26.54,26.54,0,0,1,14.6-2.74,25.65,25.65,0,0,1,9.31,3.3q6,3.29,12,6.58C320.21,254.24,320.33,254.5,320.79,255.06ZM273,259.81c4.58,2.26,9.12,3.53,14.25,2.93-3.34-2.25-4.13-6.11-6.12-9.33C278.16,255.35,275.37,257,273,259.81Zm20.52-3.18v-.14c1.06.07,2.13.1,3.19.21,2.44.25,3.06-.2,3.3-2.59a10.68,10.68,0,0,0,0-2.39c-.22-1.76-.67-2.11-2.46-2-3,.26-5.24,2.13-7.38,4a2.11,2.11,0,0,0-.34,1.92,2.44,2.44,0,0,0,1.61,1A7.79,7.79,0,0,0,293.55,256.63Z"/><path d="M257.38,258.5c1.41-1.07,2.39-1.94,3.49-2.63,5.17-3.21,10.4-6.34,15.56-9.56a110.34,110.34,0,0,1,27-12.47,75.25,75.25,0,0,0,7.66-2.49c3-1.25,6-1,9-.55a6.08,6.08,0,0,1,4.59,4.41,2.21,2.21,0,0,1-.43,1.7,13.79,13.79,0,0,1-7,4.21,3.09,3.09,0,0,1-3.36-1.19c-2.94-4.39-7-4.42-11.45-3.11A81.83,81.83,0,0,0,293,240a107.6,107.6,0,0,0-22.2,13,80.88,80.88,0,0,1-9.2,5.49A4.06,4.06,0,0,1,257.38,258.5Z"/><path d="M332.88,233.7a7.61,7.61,0,0,1,.92,4.73c-.34,4.65-.56,9.31-1.14,13.93a18.58,18.58,0,0,1-1.93,6.09c-2.83,5.49-5.94,10.84-8.85,16.28a30.06,30.06,0,0,1-12.35,12.38c-2.28,1.25-4.6,2.43-7,3.5a13.47,13.47,0,0,1-8.15,1c-2.53-.46-5.13-.68-7.47-2.17.51-1.27,1.59-1.14,2.48-1.23,2.58-.28,5.18-.42,7.75-.74a39.71,39.71,0,0,0,15.12-5.3,19,19,0,0,0,7.14-7.13c2.91-5.14,5.88-10.25,8.81-15.38,2.18-3.82,2-8.11,2.32-12.29.33-3.93.59-7.86.92-11.78C331.56,234.83,331.46,233.89,332.88,233.7Z"/><path d="M316,183.79c-.17-1.84,1-2.06,2-2.39,5.24-1.83,10.44-3.82,15.76-5.35a125.41,125.41,0,0,1,13.37-2.86,16.36,16.36,0,0,1,11.35,2.32c5.62,3.35,11.2,6.75,16.78,10.15.71.43,1.34,1,2,1.53-.91,1.2-1.7.73-2.35.38-4.56-2.47-9.46-4.51-13.56-7.62-6-4.52-12.26-5.34-19.27-4a111.23,111.23,0,0,0-17,5.07c-2.18.8-4.37,1.6-6.59,2.31A17,17,0,0,1,316,183.79Z"/><path d="M304.08,353a12.89,12.89,0,0,1,.34-2.33c1.6-4.65,3.35-9.24,4.87-13.91a65.12,65.12,0,0,1,6.4-14.15,37.73,37.73,0,0,1,9-10.19c1-.76,1.85-1.69,2.8-2.5.77-.65,1.6-1.24,2.41-1.86l.57.5a15.47,15.47,0,0,1-1.53,2.56c-1.48,1.67-3,3.28-4.66,4.82a36,36,0,0,0-7.25,9.59,107.15,107.15,0,0,0-7.76,19.12c-.68,2.31-1.54,4.58-2.29,6.87C306.62,352.65,305.93,353.29,304.08,353Z"/><path d="M337.8,323a33.19,33.19,0,0,1,3.33-2.19,30.31,30.31,0,0,1,11.15-2.75,4.47,4.47,0,0,1,2.32.43,25.28,25.28,0,0,1,7.77,6.52c.15.18.12.5.24,1.06a9.44,9.44,0,0,1-2,.41,6,6,0,0,1-2.11-.38,28.79,28.79,0,0,0-15.09-1.21A6.28,6.28,0,0,1,337.8,323Z"/><path d="M385.29,325.22,383.46,324c-1.42,1-2.83,2-4.35,2.89-1.75,1-3.45.52-5.19-.7-1.35,1.19-2.69,2.35-4,3.54a6,6,0,0,1-6,1.34,1.7,1.7,0,0,1-.66-.42c-.12-.11-.15-.31-.38-.8a11.15,11.15,0,0,1,1.89-.54,10.74,10.74,0,0,0,6.75-3.45c2.25-2.29,4.62-4.46,7.08-6.53,1.8-1.51,3.62-1.31,5.53.24C385.91,321,386.31,322.73,385.29,325.22Z"/><path d="M349.48,234.65l-1-12.49-4.06,2.54c-.13-.65-.32-1-.23-1.28a5.7,5.7,0,0,1,.82-1.67c3.43-4.47,4.2-9.51,3.52-15a52.71,52.71,0,0,1,0-6.4c1.47-.48,1.9.41,2,1.42a59,59,0,0,1,.75,7.46c0,7.42-.14,14.83-.26,22.25C351,232.57,351.34,233.85,349.48,234.65Z"/><path d="M327.91,318.43c.38-5.56,3.61-9,7.73-11.85a1.42,1.42,0,0,1,2.14.22c.6.79,0,1.32-.46,1.86-1.53,1.75-3.12,3.45-4.6,5.24a7.5,7.5,0,0,0,.75,10.56c.52.49,1.16.86,1.63,1.39.25.28.46,1,.31,1.14-.3.33-1,.7-1.29.58-1.8-.62-3.53-1.53-4.31-3.36S328.53,320.36,327.91,318.43Z"/><path d="M370.41,231.58c-1.4-3.76-1.71-7.51-2.12-11.21-.52-4.7-.75-9.44-1.06-14.16,0-.25.37-.53.87-1.2a13.36,13.36,0,0,1,1.48,3,43,43,0,0,1,.81,6.37,48.83,48.83,0,0,0,2,13.49C373.18,230.12,372.86,230.59,370.41,231.58Z"/><path d="M379.9,212.3a5.5,5.5,0,0,1,1.66.58c1.85,1.61,4.11,2.07,6.42,2.42a8.09,8.09,0,0,1,5,2.29c.74.8,1.43,1.67.46,2.9a36.63,36.63,0,0,0-4.18-2.05c-1.51-.53-3.15-.63-4.68-1.1a15.56,15.56,0,0,1-3.41-1.53A2.7,2.7,0,0,1,379.9,212.3Z"/><path d="M347.49,257.31c-.22,3.15-.6,3.84-8.11,15a4.88,4.88,0,0,1-2.76,2.49c-.18-1.9,1-3.24,1.73-4.65C341.44,264.46,345.77,258.35,347.49,257.31Z"/><path d="M330.29,195.28c2.1,2.7,1.78,5.86-.81,7.25A38.69,38.69,0,0,1,323,205c-.51.17-1.21-.23-1.82-.37l-.1-.64c.71-.43,1.4-.92,2.14-1.29,1.11-.56,2.29-1,3.4-1.55a4.82,4.82,0,0,0,2.95-3.84A9.58,9.58,0,0,1,330.29,195.28Z"/></svg>