<svg id="fundi_fixed_Image" data-name="fundi_fixed Image" xmlns="http://www.w3.org/2000/svg" viewBox="0 0 550 550"><defs><style>.cls-1{fill:#af2b08;stroke:#af2b08;}.cls-1,.cls-30{stroke-linecap:round;stroke-linejoin:round;stroke-width:6px;}.cls-2{fill:#38230f;}.cls-3{fill:#f09d05;}.cls-4{fill:#78290e;}.cls-5{fill:#ef9c05;}.cls-6{fill:#f9f5e3;}.cls-7{fill:#f4ae0c;}.cls-8{fill:#f4ae0d;}.cls-9{fill:#73250e;}.cls-10{fill:#d5ba9d;}.cls-11{fill:#9a4914;}.cls-12{fill:#c5915b;}.cls-13{fill:#b26e3a;}.cls-14{fill:#a48450;}.cls-15{fill:#a3824f;}.cls-16{fill:#a48350;}.cls-17{fill:#f9f5e2;}.cls-18{fill:#f8f4e2;}.cls-19{fill:#b16d39;}.cls-20{fill:#c48f59;}.cls-21{fill:#f6f1de;}.cls-22{fill:#c38e58;}.cls-23{fill:#6b260c;}.cls-24{fill:#6d270c;}.cls-25{fill:#3a2410;}.cls-26{fill:#76250b;}.cls-27{fill:#402711;}.cls-28{fill:#74240b;}.cls-29{fill:#9e5c19;}.cls-30{fill:none;stroke:#862a0d;}</style></defs><title>ella_baker</title><rect class="cls-1" x="55" y="55" width="440" height="440"/><path class="cls-2" d="M116.3,259.56a32.44,32.44,0,0,1-3.28-9.19c-1-5.24-1-10.55-1.36-15.83a5.59,5.59,0,0,0-.87-2.74c-.93-1.49-1.7-3.08-2.5-4.65-.54-1-.92-2.18-1.52-3.19-2.55-4.33-3.58-9.1-4.31-14-.09-.58-.24-1.16-.3-1.74a8.23,8.23,0,0,1,.86-5.29,13.87,13.87,0,0,0,2.13-6.61A9.21,9.21,0,0,0,105,195c-.34-3-.69-5.93-1-8.88,1.06-.29,1.33.45,1.73.9.57.64,1,1.36,1.62,2,.83.88,1.64.72,2.08-.4a4.46,4.46,0,0,0,.24-1.35c.11-1.77.24-3.53.26-5.3a20.35,20.35,0,0,1,1.23-6.33,56.92,56.92,0,0,0,1.82-6,40.9,40.9,0,0,1,4.9-11.73,11.3,11.3,0,0,1,2.18-2.5,2.86,2.86,0,0,0,1-2,33.37,33.37,0,0,1,.66-3.66,8.68,8.68,0,0,1,3.81-5.3,31.21,31.21,0,0,1,2.92-2,5.53,5.53,0,0,0,2.7-3.91c.67-3,1.3-6,2-9a35.51,35.51,0,0,1,4.49-10.63c3-4.81,6.23-9.4,10.56-13.12a4.93,4.93,0,0,0,.68-.71c3.64-4.69,8.79-6.41,14.37-7.2a13.26,13.26,0,0,1,3.33.45l.74-1.46c.89-1.74,1.74-3.5,2.67-5.22a23.33,23.33,0,0,0,2-3.38c.69-2.08,2.42-3,4-4.17a14.18,14.18,0,0,0,1.81-1.37c2.54-2.64,4.06-5.93,5.76-9.11a25.3,25.3,0,0,1,1.62-2.69,9.35,9.35,0,0,1,6.28-4,67.48,67.48,0,0,1,11.73-1.08,30.61,30.61,0,0,0,4.88-.44,8.43,8.43,0,0,0,4.74-2.61c1.46-1.52,1.44-2.13-.07-3.58-.41-.39-.78-.82-1.37-1.43a16.27,16.27,0,0,1,1.82-1,12.12,12.12,0,0,1,5.4-.77,15.7,15.7,0,0,0,5.42-.73,10.68,10.68,0,0,0,6.27-4.44c.62-.93,1.28-1.83,2-2.69,1.74-2.14,3.51-2.56,6.08-1.51.66.27,1.35.48,2,.71,1.61.53,3,.48,4.23-1a4.45,4.45,0,0,1,1.84-1.08c5.69-2.24,11.48-3.08,17.48-1.3a51.86,51.86,0,0,0,5.75,1.27,18.86,18.86,0,0,0,6.45.28c3-.49,5.69.4,8.32,1.64a3.39,3.39,0,0,1,.93.91c.25.29.44.85.69.88,1.64.16,3.34.73,4.91,0a7.73,7.73,0,0,1,4.18-.72,16.2,16.2,0,0,1,9.31,4.27c2.11,2,4.16,4,6.25,6,.52.5,1,1,1.58,1.48A45,45,0,0,1,320,68a21.79,21.79,0,0,0,6.46,5.56c2.18-1.93,2.57-1.92,4.43,0,5.95,6.25,10.55,13.33,13,21.69a39.66,39.66,0,0,1,1.7,14.33c-.35,4.25-.88,8.46-1.52,12.67a66.68,66.68,0,0,0-.65,18,18.89,18.89,0,0,0,.65,2.47c2.21-1,1.41-3.82,3.54-4.66.95,3.85,1.84,7.54.28,11.29a4.46,4.46,0,0,1-.18.56c-2.9,4.91-2.78,10.24-2.21,15.65a42.63,42.63,0,0,1,.16,5.88c-.13,3.87-.38,7.73-.58,11.59a32.15,32.15,0,0,1-2.17,10.14A89.29,89.29,0,0,1,336.06,207c-1.29,2.12-2.51,4.29-3.76,6.44h-3.6l-.51-1.21c0-1.83-.11-3.66,0-5.48.11-2.28.48-4.56.54-6.84a39,39,0,0,0-.34-5.29c-.39-3.57-.45-7.19-1.5-10.67-.3-1-.62-2-.84-3a67.93,67.93,0,0,0-6-16.57c-1.5-2.91-2.87-5.86-5.06-8.38-1.54-1.77-2.59-4-4.26-5.62-2.57-2.5-5.47-4.67-8.27-6.93a39.52,39.52,0,0,0-11.34-6.15C286.15,135.5,281,135,275.91,134c-6-1.09-12.06-1.64-18.07-2.55-5.54-.84-11.11-.66-16.68-.66A5.56,5.56,0,0,0,240,131c-6.6,1.43-13.16,2.91-19.05,6.5-3,1.8-6.15,3.23-9.2,4.89a12,12,0,0,0-1.81,1.48l-.34.38,0,0-.34.36,0,0-.52.66,0,0a13.08,13.08,0,0,0-2.79,1.66,87.37,87.37,0,0,0-6.41,6.9,32.09,32.09,0,0,0-4.18,6.41A107.28,107.28,0,0,0,191.07,171a65.61,65.61,0,0,0-3.24,16.31,26.58,26.58,0,0,1-1.11,6.36c-1.83,5.45-3.53,11-7,15.7-.63.84-1.18,1.73-1.73,2.63-2,3.3-4,6.59-4.87,10.45a10.89,10.89,0,0,1-1.41,3.64,21.65,21.65,0,0,0-3,8.85,47.41,47.41,0,0,1-2.05,8.76,4.06,4.06,0,0,1-4,2.9,13.14,13.14,0,0,1-5.73-1.07,18.21,18.21,0,0,0-2.05-.61l0,0-.38-.32c-2.34-.54-4.67-1.16-7-1.56a10.63,10.63,0,0,0-2.87.29c-1.42-.45-2.86-.84-4.26-1.36-2-.74-3.94-1.73-6-2.34-3.35-1-6.69-1-9.8.94a4.33,4.33,0,0,1-.71.33,8.46,8.46,0,0,0-4.77,4.4,25.32,25.32,0,0,0-2.41,10.57C116.63,257.13,116.41,258.34,116.3,259.56ZM203.64,92.29l-.5.29a13.5,13.5,0,0,0-1.48-1.19c-1.45-.87-2.9-1.75-4.42-2.49-.9-.44-1.63.13-2.2.84a1.54,1.54,0,0,0,.07,2.13,42.27,42.27,0,0,0,9,9c2.29,1.63,4.64,3.19,7,4.76a2.08,2.08,0,0,0,2.15.51,9.51,9.51,0,0,0-.68-2.05c-.86-1.39-1.85-2.69-2.76-4-.41-.62-.75-1.29-1.12-1.93l.29-.39a7.35,7.35,0,0,1,1.72.48c.85.48,1.6,1.15,2.43,1.66,2.06,1.27,4.13,2.52,6.24,3.72a2.67,2.67,0,0,0,2.92.08c-1-4.44-4.81-7.26-7-11.28a2.59,2.59,0,0,1,2.34,1c1,1,2,2.08,3,3.07a11.58,11.58,0,0,0,1.52,1.05,5.08,5.08,0,0,0,.62-4.3,11,11,0,0,1-.22-3.1c.13-1.26,1.05-1.63,2.11-.9a22.31,22.31,0,0,1,3.22,2.57c2.5,2.52,5.51,2.24,8.67,1.91a4.28,4.28,0,0,0,.2-1,12.2,12.2,0,0,1,1.11-5.32,8.77,8.77,0,0,0,.24-3.46c0-.84-.45-1.66-.49-2.49a5.61,5.61,0,0,0-2.82-4.47c-2.53-1.75-5-3.53-7.59-5.23a1.88,1.88,0,0,0-1.44-.15c-3.06,1-4,2.39-4,5.64a2,2,0,0,1,0,.39c-.15.74-.08,1.76-.53,2.14a8.1,8.1,0,0,1-3.1,1.5,4.54,4.54,0,0,1-2.28-.38,4.42,4.42,0,0,0-3.25,0,6,6,0,0,1-1.52.37c-1.68.23-3.58,0-5,.76s-2.45,2.48-3.65,3.78l-.14.14a2.23,2.23,0,0,0-.41,2.87c.33.71.8,1.35,1.16,2.05A15.68,15.68,0,0,1,203.64,92.29ZM318.51,115c.13,1.09.24,2,.35,2.87s-.26,1.85.63,2.08c.56.15,1.43-.42,2-.87a37,37,0,0,1,6.1-4.27,7.58,7.58,0,0,0,2.51-2.41,25.84,25.84,0,0,0,2.07-3.78c.32-.66.49-1.37,1.4-1.42a1.85,1.85,0,0,1,1.92,1.12c.84,1.91,1.65,3.84,2.31,5.82a25.15,25.15,0,0,1,.64,3.74c1.89-1,3.3-2.14,3.73-4.22a45.48,45.48,0,0,1,1.39-4.91c.86-2.59.41-5.08-.28-7.79-1.47,1.4-.79,3.64-2.4,4.79-.91-1.08-.62-2.13-.52-3.15s.22-1.82.23-2.73a1.09,1.09,0,0,0-1.09-1.26c-1,1.75-.15,4.15-1.89,6a6.08,6.08,0,0,1-.88-1.58c-.68-3.86-1.33-7.73-1.9-11.61-.17-1.14.73-1.69,1.76-1.15a6.42,6.42,0,0,1,1.54,1.19c1.31,1.34,2.58,2.72,3.87,4.09a6.4,6.4,0,0,0-.49-2.67,51.17,51.17,0,0,0-2.75-5.42,29.16,29.16,0,0,0-3-3.83,2,2,0,0,0-2.69-.34c-1.89,1.08-3.51,2.35-3.16,4.91.09.64,0,1.31,0,2a63.05,63.05,0,0,1-1.54,14.61,9.27,9.27,0,0,1-1.78,3.4,1.83,1.83,0,0,1-1.73.45c-.4-.2-.63-1.08-.64-1.67,0-1,.23-2.08.23-3.12a6.93,6.93,0,0,0-.48-1.75c-1.87.62-1.58,2.91-3.44,3.47a48.68,48.68,0,0,0-2.68-11.13l-2,3.35-.48-.08-1.26-6.62c-1.05.09-1.58.45-1.83,1.36-.43,1.57-1,3.1-1.47,4.67-1,3.32-2,6.62-2.86,10a7.35,7.35,0,0,0,3.48,7.71c.49-1.08.93-2.17,1.47-3.21.15-.29.68-.64.9-.56a1.63,1.63,0,0,1,.84.91,5.22,5.22,0,0,1,.07,1.36c.13,1.86.7,2.28,2.5,1.91C317.5,115.13,317.82,115.09,318.51,115ZM290.4,98.31a2.15,2.15,0,0,0,2.16-1.81A3,3,0,0,1,295,94.05a3.15,3.15,0,0,0,2.32-2c.89-2,1.72-4,2.54-5.95a2.81,2.81,0,0,0-.37-2.79c-.92-1.35-1.79-2.74-2.72-4.09A19.73,19.73,0,0,0,289.57,73a6,6,0,0,0-1.25-.35c-1.31,1.61-.52,3.84-1.82,5.31-1-.12-1.27-.74-1.42-1.49-.26-1.28-.49-2.57-.78-3.85a20.38,20.38,0,0,0-7.46-11.91,20.71,20.71,0,0,0-2-1.22,19.13,19.13,0,0,0,1,6.92c1,2.9,2.28,5.71,3.4,8.57.36.93,1.15,1.79.68,2.9-.2.05-.33.13-.44.11-2-.39-2.36-.14-2.57,1.91-.11,1-.21,2.08-.33,3.12-.43,3.72.29,7,3.27,9.6.47.4.91.82,1.64,1.48.38-1.44.65-2.5,1-3.55a22.35,22.35,0,0,1,1-3c.13-.28.76-.49,1.14-.46s.62.5.66.81c.09.83,0,1.67,0,2.51,0,1.47.69,2,2.12,1.75a5.5,5.5,0,0,0,1.53-.79c.46-.28.9-.59,1.45-1C291.38,93.22,289.75,95.74,290.4,98.31ZM134.6,145a3.52,3.52,0,0,0,2.54-3.72c0-1.44,0-2.88,0-4.33a34.37,34.37,0,0,1,2.56-12,4.29,4.29,0,0,1,.84-1.32c.24-.26.75-.61.94-.51a1.79,1.79,0,0,1,.73,1c.45,1.29.76,2.64,1.26,3.91.4,1,1.06,1.09,1.82.37a3.39,3.39,0,0,0,.69-.94c.89-1.82,1.78-3.65,2.61-5.5.42-.93.74-1.91,1.14-3,.86.22,1.55.38,2.23.57a4.58,4.58,0,0,0,4.7-1.23q2.65-2.62,5.22-5.33c3.25-3.44,3.25-3.45,3.89-8,.18-1.31.26-2.64.4-4.06a4.3,4.3,0,0,0-2.85,1.27,6.85,6.85,0,0,1-4.58,1.47c-3-.24-5.3,1-7.45,2.92a57.09,57.09,0,0,0-8.52,8.93c-3.83,5.16-6.87,10.66-8.18,17-.55,2.69-1.09,5.39-1.88,8-.46,1.53-.4,2.65.93,3.59A11.43,11.43,0,0,1,134.6,145Zm84.31-30.37.11-.53a28.81,28.81,0,0,1-2.91-2.52,38,38,0,0,0-8.36-6.78c-1.39-.87-2.7-1.86-4-2.77-3.57-2.42-7-5.08-11.08-6.67a2.12,2.12,0,0,0-2.77.53,11.52,11.52,0,0,1-.82.85,2,2,0,0,0-.51,2.47c.83,2.13,1.48,4.33,2.27,6.48a4.81,4.81,0,0,0,.92,1.49A62.28,62.28,0,0,0,208.6,121.1a12.55,12.55,0,0,0,1.37.55,2.64,2.64,0,0,0,1.17-2.27c0-.59,0-1.18,0-1.77,0-1.53.1-1.61,1.66-1.79,1.17-.13,2.35-.19,3.5-.41A21.65,21.65,0,0,0,218.9,114.62Zm45-22a5.27,5.27,0,0,0,3.1-5,54,54,0,0,0-.95-11.92,13.82,13.82,0,0,0-1.5-4.63c-2-3.29-4.3-6.42-6.57-9.55a2.27,2.27,0,0,0-1.75-.94c-.51.11-1,1-1.22,1.58a26.37,26.37,0,0,0-.87,4.22c-.35,2.79-1,5.61-.8,8.38.27,4.36,1.13,8.68,1.68,13a9.87,9.87,0,0,0,2.88,5.46c1.21,1.31,2,1.24,2.92-.27a30.28,30.28,0,0,0,1.4-2.9Zm-16.59-4.3c1.43,1,1.49,2.78,2.43,4a19.2,19.2,0,0,0,3.24,4c.12-.87.22-1.42.26-2a63.72,63.72,0,0,0-2.41-20.35c-1-3.69-3.08-6.78-5.37-9.73-.95-1.22-2-1.14-2.84.15a3.34,3.34,0,0,0-.48,1.83,12.9,12.9,0,0,0,.48,3.68c.91,2.61-.49,4.39-1.92,6.2a6.4,6.4,0,0,1-1.13,1.08,2.08,2.08,0,0,0-.78,2.24c.3,1.87.39,3.77.71,5.63a6.51,6.51,0,0,0,1,2.5c1.47,2.17,3,4.27,4.6,6.36a16.14,16.14,0,0,0,1.69,1.63C247.9,93,246.88,90.71,247.34,88.35Zm86.15,63.14c.53,1.82-.36,3.27-.74,4.83a15.61,15.61,0,0,0-.48,1.89,2.8,2.8,0,0,0,1.76,2.57c1.05.33,1.52-.45,2-1.13l1.27-1.74c.6,1.24.63,1.25.18,2.47A7.82,7.82,0,0,0,338,167a41.65,41.65,0,0,1,2.47,6.17c.87,2.74,1.52,5.54,2.29,8.32.06.21.26.38.59.83a22.37,22.37,0,0,0,.38-2.59c.06-2.88.06-5.76.08-8.65a34.25,34.25,0,0,0-1.51-9.46c-1-3.46-1.88-6.94-2.69-10.43a12.26,12.26,0,0,1-.4-4.26c.57-4.33,1.41-8.63,2.06-13a7.48,7.48,0,0,0-.81-5.32c-.45.77-.8,1.3-1.08,1.87-3.4,6.86-6.64,13.8-9.48,20.92a3.85,3.85,0,0,0-.33,1.51,4.94,4.94,0,0,0,.46,1.36,4.35,4.35,0,0,0,1.36-.55C332.14,153.06,332.79,152.25,333.49,151.49Zm-129.1-28.8a7.56,7.56,0,0,0-3.23-5,75.56,75.56,0,0,1-6.08-5.25c-1.89-1.81-3.6-3.81-5.4-5.7a17.35,17.35,0,0,0-1.33-1.15c-.88-.75-1.77-1.5-2.64-2.26-.39-.35-.7-.79-1.11-1.1-1.2-.92-2-.64-2.16.82a4.31,4.31,0,0,0,0,1.75,6.92,6.92,0,0,1,0,4,3.77,3.77,0,0,0,.19,2.27,23.79,23.79,0,0,0,8.6,11.2,17.21,17.21,0,0,0,6.93,3.06,2.91,2.91,0,0,0,1.69-.06C201.42,124.53,202.89,123.59,204.39,122.7Zm107-54.5a3.92,3.92,0,0,0-.1-4.34c-1.18-1.65-2.35-3.32-3.68-4.84a4.15,4.15,0,0,0-2.3-1.3,22.3,22.3,0,0,1-5.53-1.91,28.91,28.91,0,0,0-5.4-1.68c-1.33-.29-1.79.23-1.8,1.61a15.87,15.87,0,0,0,.2,2.54c.67,4.34,2.86,8.12,4.45,12.12a3.84,3.84,0,0,0,.52.83,2,2,0,0,0,2,.93,1.88,1.88,0,0,0,1.54-1.58c.17-.64.44-1.26.78-2.17a17.29,17.29,0,0,0,7.54,5.3c.91-1.92.83-2.7-.44-4.06a21.09,21.09,0,0,0-7.41-5.38A5.63,5.63,0,0,1,298.17,60a4.33,4.33,0,0,1,1.43.21c2.52,1.52,5,3.07,7.5,4.67a5.28,5.28,0,0,1,1.48,1.55A4.1,4.1,0,0,0,311.38,68.2Zm-1,22-2.1.92a2.69,2.69,0,0,1-1.15-2.49c0-2.35-1.18-4.25-2.44-6.09a5.92,5.92,0,0,0-1.43-1.05c-.28.68-.46,1.09-.61,1.51a107.94,107.94,0,0,0-3.45,13.48,12.13,12.13,0,0,0,2,9.69c1.06,1.62,1.66,1.79,3.41,1a3.66,3.66,0,0,0,2-2.25c.31-.86.58-1.74.92-2.59,1.05-2.68,2.16-5.34,3.18-8A3.9,3.9,0,0,0,310.4,90.19Zm-136,20-.56.16a6,6,0,0,0-.3,1.79,63.79,63.79,0,0,0,1.1,6.37c.49,2,1,4.21,2.6,5.63,3.84,3.3,7.76,6.59,13.45,5.17.37-.09.79,0,1.17-.09a8.8,8.8,0,0,0,4.22-1.49,10.9,10.9,0,0,0-1.61-.92c-4.34-1.51-7.63-4.5-10.79-7.65-1.81-1.8-3.51-3.71-5.34-5.49C177.07,112.47,175.7,111.38,174.38,110.22ZM270,93.31a10.59,10.59,0,0,1,2.28-1.88,4.22,4.22,0,0,0,2.56-3.23,13.66,13.66,0,0,0,.15-5.83c-.53-2.76-.8-5.57-1.32-8.33a8.77,8.77,0,0,0-4.61-6.19c-1.19,1.79-2.63,3.36-2.22,5.56a58.74,58.74,0,0,1,1,12.7A12.19,12.19,0,0,0,270,93.31ZM145.36,182.26c-.42-3.83-.79-7.24-1.2-10.65a2.89,2.89,0,0,0-.52-1q-2.31-3.76-4.64-7.5a3.79,3.79,0,0,0-1.59-1.7,6.48,6.48,0,0,0,.1,1.39c.82,2.47,1.36,5.07,3,7.17.41.51.83,1,.14,1.82-3.16-1.29-5.24-4-7.7-6.23-1,1-.71,2-.24,2.95a35,35,0,0,0,10.7,12.84A15.2,15.2,0,0,0,145.36,182.26Zm22.15-65a20.25,20.25,0,0,0,1.81,10,11.08,11.08,0,0,0,4.41,4.85,9.54,9.54,0,0,0,4.84,1.39c1.42,0,2.12-.81,1.72-2.14a4.62,4.62,0,0,0-1.33-2.09,59.84,59.84,0,0,1-6.43-6.84C171.06,120.71,169.37,119.18,167.51,117.29Zm-2.72,52.29.67-6a5.88,5.88,0,0,0-.86-3.75c-1.93-3.23-4.79-5.42-8.25-7.57C157.15,159.2,159.56,164.91,164.79,169.58Zm-20.44,48.75a5.29,5.29,0,0,0-2.11,3.42c-.71,4.34,1.45,7.68,3.94,10.89a.3.3,0,0,0,.15.12c.55.1,1.23.42,1.61.21s.53-1,.52-1.49c0-1.17-.4-2.34-.32-3.49C148.42,224.19,146,221.58,144.35,218.32Zm-4.25,5.52h-.42a17.2,17.2,0,0,0-2.1,6.63,8.23,8.23,0,0,0,.38,3.07c.87,2.6,4.78,5,7.32,4.62a1.11,1.11,0,0,0,.66-.36,2.49,2.49,0,0,0-.83-3.16,5.79,5.79,0,0,1-3.51-4.39c-.15-.57-.34-1.13-.47-1.7C140.77,227,140.44,225.41,140.1,223.84Zm16.16-58.64a33.77,33.77,0,0,0-2-8.56,2.25,2.25,0,0,0-.32-.49c-1.22-1.62-2.43-3.24-3.66-4.85a6,6,0,0,0-3.81-2.14c1.53,3.43,3,6.56,4.32,9.75C151.91,161.61,154.14,163.3,156.26,165.2Zm174.32,47.28c.54-.4.94-.55,1.09-.84,3.36-6.26,7.16-12.3,9.74-19.17-.37.13-.52.14-.59.21a94.14,94.14,0,0,0-9,12.88A9,9,0,0,0,330.58,212.48ZM151.89,223.57a6.28,6.28,0,0,0-.11-3.75c-1-3.84-4.14-6.38-6-9.73-.25,2.53-.76,5,1.19,7.21C148.66,219.24,150.17,221.37,151.89,223.57Zm21.29-56.17c3.12-1.39,3.65-3,1.94-5.32a8.88,8.88,0,0,0-4.85-3.25Zm-22,38.95c-1.77.9-2.15,1.28-1.81,2.05a16.79,16.79,0,0,0,4,5.91l1.43-2.87Z"/><path class="cls-3" d="M230.73,496a12.08,12.08,0,0,1-4.47,3c-4.79,2.17-9.9,3.34-14.91,4.76a39.53,39.53,0,0,1-8.54,1c-5.61.31-11.24.45-16.86.66a37.34,37.34,0,0,1-8.57-.75c-3.78-.74-7.56-1.43-11.34-2.17-2-.39-3.93-.91-6-.28a3.92,3.92,0,0,1-2.32-.11,36.57,36.57,0,0,1-7.38-3.12c-2.48-1.57-5-3.07-7.62-4.43a36.21,36.21,0,0,1-10.94-9.11c-1.21-1.44-2.19-3.07-3.32-4.58-1.32-1.76-2.7-3.48-4-5.24-.82-1.1-1.58-2.24-2.37-3.36-2.74-3.9-5.33-7.91-8.29-11.64-1.47-1.85-3.58-3.19-5.44-4.7s-3.88-3.07-5.83-4.59c-1.28-1-2.54-2-3.85-3a38.66,38.66,0,0,0-9.3-4.5c-2.52-1-4.48-2.88-6.55-4.59-3.52-2.91-5.48-6.94-7.75-10.74-.73-1.23-1.35-2.53-2.07-3.77A23.61,23.61,0,0,1,70.63,418c.56-.33,1.13-.65,1.68-1a46.24,46.24,0,0,0,5.1-3.3c5.13-4.29,10.15-8.7,15.19-13.09,4.58-4,9.46-7.47,15.26-9.49.38-.13.78-.22,1.33-.38a9.64,9.64,0,0,1-.22,1,9.9,9.9,0,0,0,1.74,10,112.34,112.34,0,0,0,7.44,8.63,61,61,0,0,1,5.68,7.26c1.9,2.75,3.56,5.66,5.34,8.49a62.18,62.18,0,0,1,5.71,10.75c.91,2.38,2,4.7,2.93,7.08,1.39,3.6,2.85,7.18,3.34,11.07a18,18,0,0,0,4.79,10.56c.41.42.77.89,1.16,1.34a52.26,52.26,0,0,1,7.79,12.7c.75,1.68.54,2.6-.8,3.86-.91.85-1.79,1.73-2.73,2.55a3.4,3.4,0,0,0-1.06,4.09c1.29,3.08,2.68,6.13,4.23,9.08,1,1.88,3.69,2.29,5.8,1-.32-.67-.62-1.38-1-2.06-1.18-2.27-2.4-4.51-3.56-6.79a5.93,5.93,0,0,1,.67-6.65c.75-1,1-1,2.13-.43,1.45.76,2.85,1.63,4.34,2.3,2.69,1.2,5.38,2.4,8.15,3.4a8.83,8.83,0,0,0,8.45-1,23.24,23.24,0,0,1,7.27-3.8c.62-.17,1.43-.4,1.39-1.62a15.92,15.92,0,0,0-2.11,0c-1.68.23-3.37.45-5,.84-3.6.84-6.75-.28-9.68-2.2-2.25-1.47-4.43-3.05-6.57-4.66-2.31-1.73-4.66-3.43-6.78-5.37-2.32-2.12-4.35-4.55-6.59-6.76a34.52,34.52,0,0,1-5.94-8,14.31,14.31,0,0,1-1.3-4.08c-.56-2.82-.89-5.69-1.46-8.51-.9-4.44-3.37-8.23-5.4-12.17-3.27-6.37-7.56-12.11-11.61-18a27.4,27.4,0,0,0-3.1-3.54c-3.44-3.51-7.07-6.84-10.35-10.5a8,8,0,0,1-1.32-9c1.3-3,2.45-6.06,3.68-9.08,1.36-3.34,2.67-6.69,4.12-10,2.2-5,4.67-10,6.71-15.08,2-4.92,3.47-10,5.34-15a13.21,13.21,0,0,1,2.64-4.53,75.6,75.6,0,0,1,6.29-5.3l.29.32c-.83,1-1.71,2-2.48,3a5.7,5.7,0,0,0-1.18,2.2,9.17,9.17,0,0,0,.47,5.41,70.4,70.4,0,0,0,3.57,7.21,112.17,112.17,0,0,0,6.34,9.46c4.81,6.38,9.53,12.83,13.7,19.66,2.69,4.42,5.45,8.79,8.21,13.16,2.38,3.76,4.75,7.54,7.26,11.21,2.33,3.41,4.8,6.71,7.29,10a59.62,59.62,0,0,0,4.4,5.28,39.1,39.1,0,0,1,6.34,8.72c2.67,5,5.16,10.17,7.84,15.19,4.35,8.14,8.51,16.4,13.26,24.31,4.85,8.08,10.06,16,14.56,24.26.31.56,1,.9,1.57,1.34a6.27,6.27,0,0,0,.26.93A1.15,1.15,0,0,1,230.73,496Z"/><path class="cls-4" d="M231.19,493.36c-.53-.44-1.27-.78-1.57-1.34-4.5-8.3-9.7-16.17-14.56-24.26-4.75-7.91-8.91-16.16-13.26-24.31-2.68-5-5.17-10.16-7.84-15.19a39.1,39.1,0,0,0-6.34-8.72,59.62,59.62,0,0,1-4.4-5.28c-2.49-3.29-5-6.6-7.29-10-2.51-3.67-4.88-7.45-7.26-11.21-2.77-4.37-5.52-8.75-8.21-13.16-4.17-6.83-8.88-13.28-13.7-19.66a112.17,112.17,0,0,1-6.34-9.46,70.4,70.4,0,0,1-3.57-7.21,9.17,9.17,0,0,1-.47-5.41,5.7,5.7,0,0,1,1.18-2.2c.77-1,1.65-2,2.48-3l.59-.71-.22-.2-.66.59a75.6,75.6,0,0,0-6.29,5.3,13.21,13.21,0,0,0-2.64,4.53c-1.87,5-3.37,10.07-5.34,15-2,5.11-4.51,10-6.71,15.08-1.44,3.3-2.76,6.66-4.12,10-1.23,3-2.38,6.08-3.68,9.08a8,8,0,0,0,1.32,9c3.27,3.66,6.9,7,10.35,10.5a27.4,27.4,0,0,1,3.1,3.54c4,5.88,8.34,11.62,11.61,18,2,3.95,4.5,7.73,5.4,12.17.57,2.82.9,5.69,1.46,8.51a14.31,14.31,0,0,0,1.3,4.08,34.52,34.52,0,0,0,5.94,8c2.24,2.21,4.27,4.64,6.59,6.76,2.12,1.94,4.47,3.64,6.78,5.37,2.15,1.61,4.33,3.19,6.57,4.66,2.93,1.92,6.08,3,9.68,2.2,1.65-.38,3.34-.6,5-.84a15.92,15.92,0,0,1,2.11,0c0,1.22-.77,1.45-1.39,1.62a23.24,23.24,0,0,0-7.27,3.8,8.83,8.83,0,0,1-8.45,1c-2.77-1-5.46-2.2-8.15-3.4-1.49-.67-2.89-1.54-4.34-2.3-1.18-.62-1.38-.58-2.13.43a5.93,5.93,0,0,0-.67,6.65c1.16,2.28,2.38,4.52,3.56,6.79.35.68.66,1.39,1,2.06-2.11,1.29-4.82.88-5.8-1-1.55-3-2.93-6-4.23-9.08a3.4,3.4,0,0,1,1.06-4.09c.94-.82,1.83-1.69,2.73-2.55,1.34-1.26,1.55-2.18.8-3.86a52.26,52.26,0,0,0-7.79-12.7c-.38-.45-.75-.92-1.16-1.34A18,18,0,0,1,141.15,455c-.49-3.89-1.95-7.46-3.34-11.07-.92-2.38-2-4.7-2.93-7.08a62.18,62.18,0,0,0-5.71-10.75c-1.78-2.83-3.44-5.74-5.34-8.49a61,61,0,0,0-5.68-7.26,112.34,112.34,0,0,1-7.44-8.63,9.9,9.9,0,0,1-1.74-10,9.64,9.64,0,0,0,.22-1c-.55.15-.95.24-1.33.38-5.8,2-10.68,5.51-15.26,9.49-5,4.39-10.07,8.8-15.19,13.09a46.24,46.24,0,0,1-5.1,3.3c-.55.35-1.12.67-1.68,1-.74-1.61-.72-2.06.41-2.76,6.05-3.75,11.33-8.48,16.57-13.22a93.9,93.9,0,0,1,16.08-11.21A23.18,23.18,0,0,1,108,389a5.24,5.24,0,0,0,3.51-3.08c4.44-10.41,9.07-20.74,13.44-31.18a117.34,117.34,0,0,0,3.82-11.54,19.47,19.47,0,0,1,6.92-10c1.29-1,2.59-2,3.92-3a4.39,4.39,0,0,0,1.88-3.06,86.92,86.92,0,0,0,1.13-17.82c0-1-.32-2.1.47-3l.7,0h0l.4.4h0a40.75,40.75,0,0,1,.36,4.06c0,3-.17,6-.24,9a2.09,2.09,0,0,0,.28.72c-.13.22-.34.43-.36.66-.28,3.06-.66,6.11-.76,9.17a19.37,19.37,0,0,1-1.24,7.08,4.5,4.5,0,0,0-.67,3.37c.08,1,.2,2.09.31,3.13.43,3.9,1.38,7.62,3.85,10.77s5.05,6.35,7.57,9.54a28.1,28.1,0,0,1,2.21,3c1.27,2.14,2.34,4.39,3.64,6.51,4.54,7.35,9.15,14.67,13.73,22,.35.55.73,1.09,1.12,1.62,3.4,4.55,6.82,9.09,10.19,13.66,2.49,3.37,4.91,6.79,7.37,10.18.27.37.61.68.88,1.05a17.45,17.45,0,0,1,1.64,2.41,141.2,141.2,0,0,0,8.25,15.4,13,13,0,0,1,.72,1.6c.94,2,1.83,4.05,2.87,6,1.35,2.54,3,5,4.23,7.53a126.34,126.34,0,0,0,8.92,15.66,196,196,0,0,1,10.63,18.36,28.19,28.19,0,0,0,1.65,2.41c2.16-3.3,4.28-6.22,6-9.35a19.44,19.44,0,0,1,7.67-7.89,10.55,10.55,0,0,0,3.93-3.95c-2.74-1.59-5.16-3.34-6.44-6.3-2.29.3-4.41.66-6.54.83s-3-.47-3.24-2.52a38.82,38.82,0,0,1-.3-6.25,20.23,20.23,0,0,0-3.4-12.66c-2.34-3.38-4.81-6.67-7.33-9.92-3.61-4.66-7.21-9.34-11-13.85-2.68-3.19-5.2-6.54-8.43-9.28-1.79-1.52-3.18-3.5-5-5a90,90,0,0,1-9.19-8.5c-1.24-1.35-2.66-2.52-3.9-3.87-3.19-3.46-6.27-7-9.51-10.44-1.75-1.84-3.78-3.4-5.6-5.18-2.62-2.55-5.24-5.11-7.7-7.8-1.94-2.12-3.67-4.43-5.44-6.7-1.12-1.45-2.16-3-3.2-4.48-2.66-3.88-5.32-7.76-7.93-11.68a6.48,6.48,0,0,1-.54-1.8,7.52,7.52,0,0,1,1.41,1.12c1,1.25,1.87,2.57,2.8,3.86a13.32,13.32,0,0,0,.75,1.37c2.26,3.2,4.5,6.41,6.82,9.57a59,59,0,0,0,6.46,8.11c5,4.75,9.87,9.57,14.79,14.37.51.5,1,1,1.45,1.59,2,2.33,3.83,4.81,6,7,4.23,4.18,8.7,8.11,12.95,12.28,3.64,3.57,7.15,7.29,10.64,11,2,2.14,3.91,4.39,5.76,6.66,2.22,2.73,4.38,5.52,6.5,8.33,3.41,4.54,6.81,9.08,10.12,13.69A16.85,16.85,0,0,1,234,454.18a28.12,28.12,0,0,0,.85,5.78,2.17,2.17,0,0,0,2.39,1.87c1,0,2.1,0,3.14,0a7.78,7.78,0,0,0,1.47-.42c-.78-.35-1.24-.58-1.72-.78s-1-.37-1.46-.56c-2-.8-2.81-1.67-2.2-4.32a44,44,0,0,1,1.76-5c.35-1.26.61-2.55,1.06-3.77.72-1.92,2.19-2.42,3.83-1.25,1.49,1.06,2.84,2.3,4.26,3.45.37.3.75.58,1.26,1,.32-1.39.58-2.53.85-3.66,1.85-7.75,3.76-15.49,5.53-23.26.9-4,1.6-8,3.57-11.58a3.5,3.5,0,0,0,.18-1.14c1.83-2.63,2.44-5.75,3.44-8.71.12-.37-.09-.85-.14-1.18-1.63-.07-3.1-.16-4.57-.2a47,47,0,0,1-14-2.73,105.06,105.06,0,0,1-11.48-4.95,96.8,96.8,0,0,1-8.88-5c-3.38-2.11-6.64-4.41-10-6.63-.87-.58-1.76-1.14-2.57-1.8-3.27-2.7-6.52-5.43-9.76-8.17-1.3-1.09-2.55-2.24-3.87-3.32-2.37-1.94-4.91-3.71-7.14-5.8-3.63-3.39-7.12-6.93-10.57-10.51-2.49-2.59-4.91-5.26-7.2-8a33,33,0,0,1-3.87-5.64A51.87,51.87,0,0,1,163.68,325a4,4,0,0,1,.65-3l1,1.75c.25.88.54,1.74.74,2.63,1.47,6.34,4.59,11.87,8.41,17a56.29,56.29,0,0,0,3.94,4.34c.81.76,1.65,1.49,2.42,2.28,3,3.1,6,6.26,9,9.33A48.76,48.76,0,0,0,194,362.9c3.56,2.86,7.29,5.52,10.7,8.55,3.63,3.21,7.59,6,11.47,8.83a128.17,128.17,0,0,0,25.65,14.3A42.72,42.72,0,0,0,262.85,398c3.81-.34,7.57-1.23,11.36-1.85,5.54-.91,9.66-4.12,13.25-8.17a3.69,3.69,0,0,0,.45-1.26,20.4,20.4,0,0,0,4.67-6.45c.8-1.65,1.61-3.29,2.46-4.91,1.21-2.32,2.56-4.57,3.68-6.93,1.43-3,2.69-6.1,4-9.16,1.58-3.59,3.26-7.14,4.72-10.79,2.7-6.74,5.23-13.53,8.64-20a115.35,115.35,0,0,0,6.56-16.17c.64-1.85,1.25-3.71,1.87-5.57a1.44,1.44,0,0,0,.24-.3c3.25-7.54,5.69-15.29,6.15-23.55.09-1.69.31-3.39.31-5.08,0-7.62-1.29-15.1-2.6-22.57a38.3,38.3,0,0,1,.07-14c.7-3.59,1.59-7.15,2.24-10.75a12.43,12.43,0,0,0-.33-6.47,8.47,8.47,0,0,0-2.38-.18c-2.29.51-4.55,1.14-6.81,1.79-3.52,1-7,2.19-10.55,3a24.86,24.86,0,0,0-5.26,1.41,22.09,22.09,0,0,0-2.49.36c-2.7.7-5.49,1.11-7.89,2.73a8.3,8.3,0,0,1-8.54.78,3.2,3.2,0,0,1,1.18-3c1.11-1,2.11-2.15,3.23-3.15a50.41,50.41,0,0,1,4.68-3.84c2-1.4,4.28-2.49,6.33-3.88a18.35,18.35,0,0,1,7-2.92,7.68,7.68,0,0,1,3.29.06c2.84.75,5.61,1.74,8.43,2.57,3.11.92,6.23,1.78,9.7,2.76a21.13,21.13,0,0,0-.41-2.23c-.41-1.31-.91-2.59-1.32-3.89s-1-2.7-.59-4.19l.51,1.21h3.6c-1.18,2.17-.88,4.22-.08,6.52a23.85,23.85,0,0,1,.31,13.54c-.58,2.42-1.11,4.85-1.67,7.28a35.28,35.28,0,0,0-.26,12.13c.48,4,1.48,8,1.85,12,.5,5.41.83,10.86.83,16.29a45.49,45.49,0,0,1-2.89,15c-3.26,9.26-6.64,18.48-10.22,27.63-1.93,4.93-4.43,9.63-6.58,14.48S309.27,348,307.36,353a245.71,245.71,0,0,1-11.14,23.83l-2.53,4.93a17.22,17.22,0,0,0,1,1.67c3.7,4.67,7.28,9.46,11.6,13.61,1.37,1.32,2.69,2.68,4,4.06a2.66,2.66,0,0,0,2.07.86c4,.06,6.22,1.48,7.51,5.33a61.44,61.44,0,0,1,1.92,8.2c.74,3.92,1.49,7.86,1.93,11.82.48,4.29.82,8.62.87,12.94.13,10.95.28,21.9,1.06,32.82.32,4.44.94,8.86,1.56,13.27a23.3,23.3,0,0,0,1.27,4.32c.56,1.6,1.21,3.17,1.85,4.8l-1.16,1.36c-1.18.24-1.67-.47-2-1.42-.46-1.37-.94-2.73-1.37-4.1a42.8,42.8,0,0,1-2.27-10.73c-.2-4.12-.5-8.23-.63-12.35-.2-6.61-.28-13.23-.44-19.85-.1-4.39-.21-8.77-.37-13.16a155.46,155.46,0,0,0-2.46-20.85,20.46,20.46,0,0,0-2.49-7.2,5.35,5.35,0,0,0-5.49-2.68,11.62,11.62,0,0,0-3.58,1,67.51,67.51,0,0,0-7.16,3.67c-5.13,3.16-10.17,6.48-15.25,9.73-.69.44-1.34,1.09-2.61.6a16.1,16.1,0,0,1,1.73-1.67,163.58,163.58,0,0,1,19.27-12.15c1.8-.92,3.53-2,5.38-3a8.68,8.68,0,0,0-.79-1.05,154.69,154.69,0,0,1-13.08-14.4,9.43,9.43,0,0,0-3.53-3.1c-.12.22-.24.45-.38.68-.38.61-.8,1.2-1.15,1.83-2.69,4.73-6.47,8.33-11.64,10-4,1.32-8.24,2-12.38,3-.74.17-1.48.3-2.44.49,2.36,3.54,4.63,6.81,6.77,10.16,3.91,6.13,7.71,12.33,11.63,18.45,3.46,5.4,7,10.74,10.19,16.34s6.07,11.65,7.3,18.13c1.4,7.4,4.18,14.31,6.94,21.24a11.59,11.59,0,0,0,2.68,3.8c1.28,1.26,2.24.86,2.62-.85.32-1.4.53-2.83.85-4.23.15-.65.44-1.28.81-2.33a8.25,8.25,0,0,1,.52.88,2.61,2.61,0,0,1,.19.75,68.65,68.65,0,0,1-.1,12.55,14.36,14.36,0,0,1-1.1,3.35,1.66,1.66,0,0,1-2,1.18,28.57,28.57,0,0,1-4-7.64c-.49-1.49-1.15-2.93-1.69-4.4-2.18-6-4.5-11.88-6.46-17.91-1.47-4.53-2.32-9.27-4.26-13.66-2.09-4.73-4.06-9.51-6.26-14.19a52.68,52.68,0,0,0-3.62-6c-.74-1.14-1.77-2.1-2.45-3.28-1.43-2.5-2.61-5.14-4.63-7.26a1.42,1.42,0,0,1-.29-.5c-1.29-3.64-4.41-6.13-6-9.58a1.27,1.27,0,0,0-.12-.15c-2.1-3.08-4.18-6.17-6.3-9.24-.53-.76-.91-1.71-2.07-2.09l-.58,1.91a5.79,5.79,0,0,1,2.75,3.13,40.73,40.73,0,0,1,1.87,5.15c1.51,6.1,2.86,12.23,4.34,18.34.93,3.82,2,7.63,4.2,11q3.61,5.5,7.51,10.81a20.39,20.39,0,0,1,4.25,9.15l.15.46.09.68.05.38.36,1.6.22.67.16.9.33,1.2.06.38.32,1.21.21,1.17.17.45.09.7.05.37.18.88s-.07.1-.06.13a1.59,1.59,0,0,0,.14.24l.07.74,0,.38.14.85c0,.05-.07.12-.05.16a1.93,1.93,0,0,0,.17.28l.48,3.46,0,.38.12.84c0,.06-.06.13,0,.17a2.17,2.17,0,0,0,.17.3l.28,2.68c0,.06-.07.12-.05.16a2,2,0,0,0,.17.29l.33,2.72s-.08.1-.06.13a1.66,1.66,0,0,0,.14.25l.1,1.12a.32.32,0,0,0,0,.37l.1.84c0,.06-.06.13,0,.18a2.29,2.29,0,0,0,.18.32l.31,2.68s-.08.11-.06.15a1.82,1.82,0,0,0,.16.27c.11,1.1.25,2.21.33,3.31a1.8,1.8,0,0,1-2.62,2,4.65,4.65,0,0,1-1.2-.67c-2.48-1.92-5.11-3.69-7.38-5.83-2.9-2.74-5.52-5.79-8.26-8.69s-5.4-5.69-8.13-8.56a5.47,5.47,0,0,0-.93.67,9.79,9.79,0,0,1-4.28,3c-.57.2-1,1-1.36,1.55-.87,1.54-1.61,3.15-2.45,4.7a11.88,11.88,0,0,1-6.89,5.52,2.81,2.81,0,0,1-3.36-.8,20.74,20.74,0,0,1-3.88-5.64c-.62-1.48-1.39-2.91-2.24-4.67-.59.84-1,1.39-1.38,2-1.54,2.52-3,5.09-4.6,7.55A41.4,41.4,0,0,1,231.19,493.36Zm55.31.72a2.18,2.18,0,0,0,1.82-1.62c1.51-3.74.88-7.79,1.76-11.61a.59.59,0,0,0,0-.19c-.89-6.29-1.84-12.58-3.93-18.61a20.59,20.59,0,0,0-2.33-4.5c-1.52-2.29-3.28-4.43-4.81-6.71-2.34-3.48-4.75-6.91-6.33-10.84a97.74,97.74,0,0,1-4.09-13.52c-1.33-5.47-2.83-10.89-4.28-16.33a9.06,9.06,0,0,0-.77-2c-.46-.83-1.14-.88-1.65-.08a36.83,36.83,0,0,0-2.56,4.41c-1.84,4-2.6,8.36-3.67,12.61-1.33,5.26-2.49,10.56-3.74,15.84-.71,3-1.48,6-2.13,9-.54,2.45.1,3.82,2.3,5a31.38,31.38,0,0,0,3,1.29,9.39,9.39,0,0,1,2.66-1.19,5.19,5.19,0,0,0,3.14-1.37,3.42,3.42,0,0,1,3.85-.68c3,1.47,5.88,3.2,7.94,6a3.56,3.56,0,0,1,.35,1l-.33.27c-.77-.66-1.5-1.36-2.32-2a52.91,52.91,0,0,0-4.84-3.33c-2.21-1.26-3-1-4.66,1.22.53,1.26,1.06,2.6,1.66,3.89a1.85,1.85,0,0,0,.88,1c2.12.68,3,2.44,3.78,4.27a4.69,4.69,0,0,1-.74,5.15c-1.17,1.42-1.12,2,.1,3.38.3.35.63.67.95,1q8.5,8.74,17,17.48C285.16,492.87,285.85,493.47,286.51,494.08ZM257.06,463.9a7.22,7.22,0,0,0-.37.88,7.17,7.17,0,0,1-4.63,5.2A3.12,3.12,0,0,0,250.7,471a16.89,16.89,0,0,1-5.18,4.45c-1,.63-2,1.25-2.94,2-1.31,1-1.37,1.29-.86,2.84a26.22,26.22,0,0,0,4.58,8.19,7.86,7.86,0,0,0,1.3,1.19,2.54,2.54,0,0,0,2.92.27A11.1,11.1,0,0,0,255.1,486c1-1.59,1.93-3.27,2.81-5,.74-1.4.71-1.45-.54-2.39a5.57,5.57,0,0,1-2.54-4c-.23-3.18.5-6,3.44-7.8a1.55,1.55,0,0,0,.74-2.22Zm64.36-240.61a11.29,11.29,0,0,0-1.24-1.14c-2.45-1.61-5.28-2.14-8.06-2.86a9.77,9.77,0,0,0-7.71,1.29,81.63,81.63,0,0,0-13.74,10.36,17.37,17.37,0,0,0-1.18,1.34,3.52,3.52,0,0,0,3.87-.22c4.79-2.84,10.1-3.8,15.5-4.42A26,26,0,0,0,321.42,223.29ZM249.34,456.85c0,1.1-.82,1.11-1.31,1.49a20.49,20.49,0,0,0-2.71,2.22,3.21,3.21,0,0,0-.49,3.83,7.29,7.29,0,0,0,4.84,4,3.44,3.44,0,0,0,3.74-1.13c1.36-1.77,2.54-3.67,1.62-6.1a4.07,4.07,0,0,1-.27-1.73,2.23,2.23,0,0,0-1.94-2.52,8.66,8.66,0,0,1-4.05-2.64c-1.34-1.44-2.67-2.88-4-4.28a8.63,8.63,0,0,0-1.8-1.48c-1-.57-1.89-.34-2.25.7-.81,2.33-1.53,4.71-2.13,7.1a2,2,0,0,0,1.36,2.52c1.79.81,3.5,1.28,5.17-.48A4.16,4.16,0,0,1,249.34,456.85Zm10.12,11.92a4.44,4.44,0,0,0-2.32,4.49,3.48,3.48,0,0,0,2.61,3.49,4.27,4.27,0,0,0,4.56-1.91,2.57,2.57,0,0,0-.73-3.43C262.25,470.59,261,469.74,259.45,468.77Zm2.33-2.39a3.45,3.45,0,0,0,1.14,2.77,2.09,2.09,0,0,0,2.62.64,2.55,2.55,0,0,0,1.17-3,11.92,11.92,0,0,0-1-1.91c-.53-.9-1.12-1.84-2.33-1.79-.76,0-1.56,1.56-1.64,2.88C261.77,466.1,261.78,466.23,261.78,466.38Zm-5.06-7.1a3.22,3.22,0,0,0,1.66,3.24,1.55,1.55,0,0,0,2.31-1.63,4.29,4.29,0,0,0-2.08-3.18c-.86-.53-1.48-.24-1.76.76A5.7,5.7,0,0,0,256.72,459.28Z"/><path class="cls-5" d="M311.43,499.56a1.66,1.66,0,0,0,2-1.18,14.36,14.36,0,0,0,1.1-3.35,68.65,68.65,0,0,0,.1-12.55,2.61,2.61,0,0,0-.19-.75,8.25,8.25,0,0,0-.52-.88c-.37,1.05-.66,1.68-.81,2.33-.32,1.4-.54,2.83-.85,4.23-.39,1.71-1.34,2.11-2.62.85a11.59,11.59,0,0,1-2.68-3.8c-2.76-6.93-5.54-13.84-6.94-21.24-1.23-6.49-4.05-12.39-7.3-18.13s-6.73-10.93-10.19-16.34c-3.92-6.12-7.72-12.32-11.63-18.45-2.14-3.35-4.4-6.62-6.77-10.16,1-.19,1.7-.32,2.44-.49,4.13-1,8.36-1.69,12.38-3,5.17-1.7,9-5.3,11.64-10,.36-.63.77-1.22,1.15-1.83.14-.22.26-.46.38-.68a9.43,9.43,0,0,1,3.53,3.1,154.69,154.69,0,0,0,13.08,14.4,8.68,8.68,0,0,1,.79,1.05c-1.85,1-3.59,2.06-5.38,3a163.58,163.58,0,0,0-19.27,12.15,16.1,16.1,0,0,0-1.73,1.67c1.27.49,1.91-.16,2.61-.6,5.08-3.25,10.11-6.57,15.25-9.73a67.51,67.51,0,0,1,7.16-3.67,11.62,11.62,0,0,1,3.58-1,5.35,5.35,0,0,1,5.49,2.68,20.46,20.46,0,0,1,2.49,7.2,155.46,155.46,0,0,1,2.46,20.85c.17,4.38.27,8.77.37,13.16.15,6.62.24,13.23.44,19.85.13,4.12.43,8.23.63,12.35a42.8,42.8,0,0,0,2.27,10.73c.43,1.37.91,2.73,1.37,4.1.32,1,.82,1.66,2,1.42a10.39,10.39,0,0,1-7.37,3.52,71.42,71.42,0,0,1-7.46,0,2.4,2.4,0,0,1-1.15-.15c-.89-.53-1.47.07-2.12.45Z"/><path class="cls-6" d="M311.43,499.56l-.31,1.14a10.6,10.6,0,0,1-10.64,3.86c-1.6-.29-3.22-.42-4.83-.61-3.49-.42-7-.73-10.47-1.26-4.31-.66-8.58-1.55-12.88-2.26a36.9,36.9,0,0,0-4.67-.4c-4.44-.16-8.89-.36-13.33-.36a25,25,0,0,0-5.39.81c-2.23.5-4.41,1.33-6.73,1.08s-4.73-.38-6.78-1.63a10.29,10.29,0,0,1-2.69-2.47,3,3,0,0,0-2-1.4,1.15,1.15,0,0,0,.72-1.76,6.27,6.27,0,0,1-.26-.93,41.41,41.41,0,0,0,3.11-3.74c1.62-2.46,3.06-5,4.6-7.55.36-.59.79-1.14,1.38-2,.85,1.76,1.62,3.18,2.24,4.67a20.74,20.74,0,0,0,3.88,5.64,2.81,2.81,0,0,0,3.36.8,11.88,11.88,0,0,0,6.89-5.52c.84-1.55,1.59-3.16,2.45-4.7.34-.6.79-1.35,1.36-1.55a9.79,9.79,0,0,0,4.28-3,5.47,5.47,0,0,1,.93-.67c2.73,2.87,5.44,5.71,8.13,8.56s5.36,6,8.26,8.69c2.27,2.14,4.9,3.91,7.38,5.83a4.65,4.65,0,0,0,1.2.67,1.8,1.8,0,0,0,2.62-2c-.09-1.11-.22-2.21-.33-3.31l-.1-.42-.31-2.68-.13-.49-.1-.84s.12-.09.11-.12a1.64,1.64,0,0,0-.15-.26l-.1-1.12-.08-.38-.33-2.72-.12-.46-.28-2.68-.13-.47-.12-.84s.12-.1.11-.12a1.72,1.72,0,0,0-.16-.26l-.48-3.46-.12-.43-.14-.85s.12-.1.11-.12a1.72,1.72,0,0,0-.16-.26l-.07-.74a.58.58,0,0,0-.08-.37l-.18-.88s.12-.1.11-.12a1.71,1.71,0,0,0-.16-.25l-.09-.7-.17-.45-.21-1.17-.32-1.21-.06-.38-.33-1.2-.16-.91-.22-.67-.36-1.6s.12-.1.11-.12a1.74,1.74,0,0,0-.16-.26l-.09-.68-.15-.46a20.39,20.39,0,0,0-4.25-9.15q-3.91-5.29-7.51-10.81c-2.18-3.33-3.27-7.13-4.2-11-1.48-6.1-2.83-12.24-4.34-18.34a40.73,40.73,0,0,0-1.87-5.15,5.79,5.79,0,0,0-2.75-3.13l.58-1.91c1.16.38,1.54,1.33,2.07,2.09,2.12,3.07,4.2,6.16,6.3,9.24a1.27,1.27,0,0,1,.12.15c1.6,3.45,4.72,5.94,6,9.58a1.42,1.42,0,0,0,.29.5c2,2.11,3.21,4.76,4.63,7.26.67,1.18,1.71,2.14,2.45,3.28a52.68,52.68,0,0,1,3.62,6c2.19,4.68,4.17,9.46,6.26,14.19,1.94,4.4,2.79,9.13,4.26,13.66,2,6,4.28,11.95,6.46,17.91.54,1.48,1.2,2.91,1.69,4.4A28.57,28.57,0,0,0,311.43,499.56Z"/><path class="cls-7" d="M401.49,373.81c-.39,2.49-.78,4.61-1,6.74-.21,1.69-.22,3.4-.43,5.09-.23,1.85-1,2.54-2.89,2.48a20.47,20.47,0,0,1-3.7-.44,3.35,3.35,0,0,1-2.79-3.55c0-2,0-4.06.07-6.09.24-8.58.52-17.16.75-25.74.11-4,.27-4.13,4.23-3.55a6.06,6.06,0,0,0,.78.09,5,5,0,0,1,4.52,2.9c2.54,4.36,5.22,8.63,7.87,12.92.43.69.74,1.56,2,1.71.07-.64.18-1.24.18-1.84q0-4.62,0-9.24c0-2.69.23-3.14,2.64-4.19q3-1.29,6-2.55c.52-.22,1.08-.37,1.9-.65.07,1.15.19,2.1.16,3q-.37,14.94-.78,29.87c0,1.44,0,2.89-.08,4.32s-.51,2-2.09,2.35c-4.63,1-8.15-.6-10.31-4.75A27.58,27.58,0,0,0,401.49,373.81Zm-5.69-21c-.38.45-.76.69-.83,1a16.24,16.24,0,0,0-.43,2.91c-.17,4.78-.3,9.56-.43,14.34,0,1.7-.1,3.41-.09,5.11,0,2,0,4.05.18,6.07.09,1.3.83,2.26,2.28,3.16.15-1,.32-1.75.35-2.48.29-6,.55-12,.83-18.06a5.54,5.54,0,0,1,.29-1.1c1.17.26,1.47,1.22,2,1.92q5.72,8,11.38,16a16.45,16.45,0,0,0,4.26,3.79,16.54,16.54,0,0,0,1.72-6.92c.22-6.88.27-13.76.38-20.64a3.68,3.68,0,0,0-.92-2.73c-1.36,1.12-1.19,2.64-1.27,4-.33,5.82-.59,11.65-.91,17.47a4.54,4.54,0,0,1-.79,2.88c-.23,0-.43,0-.47-.09C407.51,370.68,401.75,361.86,395.8,352.77Z"/><path class="cls-7" d="M376.72,349c2-.2,3.76-.45,5.58-.57s2.43.54,2.46,2.24c0,1.37-.15,2.75-.2,4.12-.08,2.22-.27,4.46-.15,6.67.38,6.8.89,13.6,1.35,20.39.16,2.38-.44,3.06-2.82,3.19a8.68,8.68,0,0,0-1.37.1,3.88,3.88,0,0,1-4.56-1.84c-1.45,1-2.89,1.87-4.22,2.88a6.86,6.86,0,0,1-8.39.54c-1.29-.77-2.66-1.41-3.95-2.19a7.37,7.37,0,0,1-3.69-6.33c-.2-4.38-.39-8.77-.75-13.14-.4-4.83-1-9.64-1.51-14.46,0-.38-.05-.77-.09-1.3a27.91,27.91,0,0,1,7.47-1.46c1.66-.07,2.49.85,2.67,2.76.2,2.22.29,4.45.42,6.67.25,4.25.45,8.5.75,12.75a11.77,11.77,0,0,0,.7,3.24,3.87,3.87,0,0,0,4.44,2.74c2.48-.3,4-1.65,4.32-3.86,1.09-7.26,2-14.54,1.42-21.91A9.32,9.32,0,0,1,376.72,349Zm3.32,2.65a9,9,0,0,0-.88,4.1c0,5.31,0,10.63-.06,15.94,0,.91-.12,1.83-.18,2.74a4.48,4.48,0,0,1-3.68,4.31,38,38,0,0,1-5.77,1.15,5.79,5.79,0,0,1-6.47-4.53,15,15,0,0,1-.36-2.71c-.43-5.29-.82-10.58-1.28-15.86-.13-1.5-.41-3-.69-4.47-.06-.31-.41-.57-.63-.86-.28.23-.76.41-.82.69a9.62,9.62,0,0,0-.33,2.67c.11,2,.47,4,.55,6.06.19,4.65.27,9.3.39,14,0,.39,0,.79.05,1.18a8.5,8.5,0,0,0,4.18,6.33,6.27,6.27,0,0,0,6.36.25c1.8-.79,3.6-1.59,5.42-2.31s2.73-.51,4.07,1.13a6.91,6.91,0,0,0,.61.57,4.3,4.3,0,0,0,1.36-3.56c-.09-2.36-.22-4.71-.3-7.07-.19-5.57-.36-11.14-.56-16.71a11.27,11.27,0,0,0-.32-2.13C380.65,352.25,380.36,352,380,351.65Z"/><path class="cls-8" d="M350.36,358.67c-1.13-.22-2-.37-2.9-.58a24.86,24.86,0,0,0-11.68.23,9.44,9.44,0,0,0-1.31.41c-1.57.63-1.94,1.38-1.64,3.09.22,1.28.39,2.57.57,3.86s.64,1.77,1.94,1.69c2-.12,3.9-.39,5.85-.58l5.44-.52a28.92,28.92,0,0,1-.08,6.75c-.17,1-1,1.33-1.87,1.5-1.41.28-2.84.48-4.27.65s-3,.28-4.5.44c-1.72.17-2.16.71-1.92,2.45.27,2,.61,4,.89,6,.33,2.4-.33,3.41-2.69,4a43.12,43.12,0,0,1-4.44.82c-2.08.27-3.09-.51-3.36-2.6a37.93,37.93,0,0,1-.24-3.92c-.18-8.65-.33-17.3-.52-26,0-1.44-.18-2.88-.3-4.31-.26-3.25.25-3.84,3.45-4l6.48-.27c4.78-.2,9.56-.44,14.34-.61,2.14-.07,2.74.53,2.75,2.6C350.38,352.73,350.36,355.61,350.36,358.67Zm-4.76-7.8-11,.92c-1.3.11-2.62.13-3.91.31-1.61.22-2.74.62-2.84,2.83-.17,3.73-.61,7.45-.61,11.18,0,5,.28,10.08.48,15.12.05,1.36.24,2.72.36,4.05,2.1.21,2.7-.27,2.65-2.08a9.78,9.78,0,0,0-.19-1.56c-.32-1.67-.71-3.33-1-5-.39-2.38.18-3.06,2.57-3.39,2.92-.4,5.84-.79,8.74-1.28.7-.12,1.61,0,2.14-.86-.15-.2-.25-.52-.44-.58a11.75,11.75,0,0,0-2.81-.71c-2.55-.12-5.11-.07-7.67-.12-2.15,0-2.53-.45-2.61-2.52,0-1.18-.15-2.35-.19-3.53-.08-2-.18-3.93-.18-5.9a2.47,2.47,0,0,1,2.19-2.81,7.8,7.8,0,0,1,1.17-.16c2.86-.3,5.73-.57,8.59-.9,1.74-.2,3.48-.46,5.37-.72Z"/><path class="cls-7" d="M434.8,349.37c2.8.28,5.64.34,8.38.9,5.35,1.08,9.25,4.48,12.51,8.65a43.56,43.56,0,0,1,2.61,4.15c3.45,5.62,1.31,15.88-4.11,20.09a21.6,21.6,0,0,1-13.41,4.93c-3,0-6,0-9,0a11.54,11.54,0,0,1-1.75-.21,2.33,2.33,0,0,1-2.08-2.05,14.28,14.28,0,0,1-.26-2.14q-.33-15-.62-30.09c-.07-3.65.36-4,4-4h3.74Zm-3.75,31h-.22c0,.92-.07,1.84,0,2.75.13,1.44.83,1.95,2.22,1.79,1-.12,2.08-.26,3.12-.3,2.67-.1,5.35-.09,8-.25,4.61-.28,7.77-2.82,10-6.71,1.9-3.38,1.85-7,1.22-10.7a22.16,22.16,0,0,0-1.17-4.15c-2.05-5.33-6-8.11-11.68-8.36-2.94-.13-5.89,0-8.84,0-2.36,0-2.92.6-2.88,2.92.05,3.47.2,6.93.24,10.4C431.08,372,431,376.17,431,380.36Z"/><path class="cls-8" d="M463.07,371.08c0-4.13.16-8.27-.06-12.38A50,50,0,0,0,461.7,351c-.38-1.76-.18-2.42,1.44-3.08,2.86-1.15,5.71-.67,8.44.33,1.35.49,1.57,2,1.66,3.35.17,2.48.25,5,.35,7.46q.53,13.26,1,26.52a7.29,7.29,0,0,1,0,1.37c-.17,1.13-.69,1.68-1.84,1.62-2.48-.13-5-.3-7.43-.63-1.73-.24-2.32-1.13-2.33-3.07,0-4.59,0-9.18,0-13.77Zm2.42-20a15,15,0,0,0-.07,1.8c.41,4.43.94,8.84,1.24,13.28s.44,9,.57,13.52c0,1.37-.23,2.74-.28,4.11-.07,1.68.24,2,1.84,2,1.76,0,2.17-.36,2.17-2.14,0-.39,0-.79,0-1.18q-.25-11.48-.5-23c-.05-2.29-.14-4.58-.28-6.86-.09-1.49-.52-1.87-2-1.84C467.37,350.83,466.54,351,465.49,351.06Z"/><path class="cls-9" d="M116.3,259.56c.11-1.21.32-2.43.31-3.64A25.32,25.32,0,0,1,119,245.34a8.46,8.46,0,0,1,4.77-4.4,4.33,4.33,0,0,0,.71-.33c3.11-2,6.45-1.94,9.8-.94,2,.61,4,1.6,6,2.34,1.4.52,2.84.91,4.26,1.36a14.73,14.73,0,0,0,1.43,1.28c1,.7,2.16,1.25,3.11,2s2.1,1.44,2.56,3.26a8.24,8.24,0,0,1-2-1c-2.28-2.27-5.25-3.06-8.17-4a22.36,22.36,0,0,1-3.22-1.35c-1.57-.8-3.09-1.7-4.64-2.54a3.27,3.27,0,0,0-2.84-.21c-1.22.46-2.42,1-3.62,1.46a8.1,8.1,0,0,0-5.16,3.59,16.69,16.69,0,0,0-2.59,9.26,21.74,21.74,0,0,0,1.24,8.83,9.14,9.14,0,0,1,.32,1.32,27.79,27.79,0,0,0,3,9.24c.57,1,.89,2.17,1.38,3.23a6,6,0,0,0,.78,1l.39,1.18.4.79a12.44,12.44,0,0,0,.46,2.07c.78,1.93,1.6,3.85,2.48,5.74,1.27,2.72,2.47,5.51,4.56,7.73a53.83,53.83,0,0,0,8.9,7.91,40.68,40.68,0,0,1,5.08,4.57,3.29,3.29,0,0,1,1.19,2.2c-1.4,0-1.87-1-2.5-1.74-.84-1-1.47-2.17-2.86-2.51h0l-.4-.4h0l-.42-.48-.33-.3c-5.53-3.92-10.52-8.35-13.41-14.66q-4.16-9.08-8.16-18.23a25.58,25.58,0,0,1-2.17-7.7,3,3,0,0,0-1.17-2.26C117.25,262,116.89,260.63,116.3,259.56Z"/><path class="cls-10" d="M253.51,38.82l1.26-.44.13.38-1.27.41Z"/><path class="cls-11" d="M143.39,305.88l.42.48-.7,0,0-.44Z"/><path class="cls-4" d="M143.39,305.88l-.24.08-.1-.38Z"/><path class="cls-12" d="M328.19,212.27c-.44,1.49.16,2.83.59,4.19s.92,2.58,1.32,3.89a21.13,21.13,0,0,1,.41,2.23c-3.47-1-6.59-1.84-9.7-2.76-2.82-.84-5.59-1.82-8.43-2.57a7.68,7.68,0,0,0-3.29-.06,18.35,18.35,0,0,0-7,2.92c-2,1.39-4.29,2.48-6.33,3.88a50.41,50.41,0,0,0-4.68,3.84c-1.13,1-2.13,2.13-3.23,3.15a3.2,3.2,0,0,0-1.18,3,36,36,0,0,0-1.45,3.78,52.28,52.28,0,0,0-1.64,7.41,64.07,64.07,0,0,0-.06,7.45c0,1.73,0,1.76,1.71,2.31,4,1.27,7.91,2.63,11.93,3.7a42.64,42.64,0,0,0,7.68,1.28c3.84.3,7.45-1,11-2.19.64-.22,1.44-.41,1.49-1.35l3.91-1.56c.89.14,1.29-.24,1.23-1.13l.33-1.2a1.12,1.12,0,0,0,1.22-1.2c1,0,1.92-.3,1.61-1.39-.62-2.17-1.49-4.28-2.29-6.4-.08-.21-.38-.35-.6-.49-4.67-2.89-9.63-4.66-15.23-3.92a14,14,0,0,0-7.87,3.16c-1.8,1.61-3.65,3.16-5.48,4.74-.78-.22-1.79.43-2.36-.61,1.06.48,1.57-.33,2.11-1a42.63,42.63,0,0,1,7.85-7.12,9.5,9.5,0,0,1,2.95-1.48,21.67,21.67,0,0,1,9.34-.53c3.62.66,6.77,2.09,8.88,5.22.87,1.29,1.5,2.74,2.27,4.1.33.58.42,1.41,1.31,1.52a5.61,5.61,0,0,0,.4-4.58c-1.4-3.91-4-6.55-8.19-7.41a30.51,30.51,0,0,0-11.31-.27c-3.32.56-6.36,1.52-8.72,4.06a4.23,4.23,0,0,1-1,.6,7.71,7.71,0,0,1,.68-1.71,26.08,26.08,0,0,1,2.53-3.19c1.25-1.3,2.64-2.46,4-3.7a8.42,8.42,0,0,0,.7-.85,24.82,24.82,0,0,1,5.26-1.41c3.56-.83,7-2,10.55-3,2.26-.64,4.52-1.28,6.81-1.79a8.47,8.47,0,0,1,2.38.18,12.43,12.43,0,0,1,.33,6.47c-.65,3.6-1.54,7.16-2.24,10.75a38.3,38.3,0,0,0-.07,14c1.31,7.47,2.58,15,2.6,22.57,0,1.69-.21,3.39-.31,5.08-.46,8.27-2.9,16-6.15,23.55a1.42,1.42,0,0,1-.24.3c-.37.25-.75.5-1.11.77-2.92,2.17-6.18,2.46-8.92.68a16.55,16.55,0,0,1-2.73-2.21c-1.7-1.71-3.33-3.5-4.94-5.29a32,32,0,0,1-2-2.6,25.58,25.58,0,0,0-2.25-3.18,21.46,21.46,0,0,1-4.4-6.66,37.18,37.18,0,0,0-4.61-7.9c-1.9-2.47-2.61-5.69-4.91-7.92a11.28,11.28,0,0,1-1.89-2.24,3,3,0,0,0-3.23-1.66l-.16-.1.17.09a21.69,21.69,0,0,0,.8,2.38c1.33,2.85,2.69,5.69,4.11,8.5a10,10,0,0,0,1.46,1.75,20.84,20.84,0,0,0,.31,2.07,11.36,11.36,0,0,1-.44,7.93,5.15,5.15,0,0,0-.25,1.31l-.83,3.68-3.58,3.49a7.12,7.12,0,0,0-3.37-1.28,7.59,7.59,0,0,1-6.9-7,2.52,2.52,0,0,1-.07-2.26c.62-1.36,1.14-2.77,1.72-4.16,2.57-6.15.8-11.67-2.65-16.81-1.81-2.7-4-5.16-5.41-8.12a15,15,0,0,0-2.22-3.45,14.53,14.53,0,0,1-2.85-4.86,46.8,46.8,0,0,1-1.82-6.17,44.08,44.08,0,0,1-.44-5,25.68,25.68,0,0,1-.37-3.49,38.61,38.61,0,0,0-1.48-12c-.2-.73-.38-1.46-.57-2.19v-1.52l-.33-.46c-1.27-2.24-3.33-3.64-5.36-5.08a3.9,3.9,0,0,0-4-.68,33.89,33.89,0,0,1-14.43,2.2c-4.68-.42-9.32-1.14-14-1.66a14.93,14.93,0,0,0-3.48.05c-2.34.29-4.25,1.63-6.24,2.75-4,2.28-8.19,4.39-11.6,7.63a7.72,7.72,0,0,1,.65-2.39c1.5-2.21,3.16-4.31,4.74-6.46.5-.68,1-1.39,1.41-2.12,2.24-3.69,4.35-7.46,6.71-11.06,2.22-3.38,4.71-6.58,7.07-9.87.23-.31.58-.64.6-1,.18-2.56.26-5.13-1.38-7.35a16,16,0,0,0-1.37-1.66,66.54,66.54,0,0,0-4.85-4.84c-1.69-1.42-3.64-2.53-5.46-3.8-4.25-3-5.43-7.22-4.88-12.06.31-2.77,1-5.51,1.54-8.25a15.23,15.23,0,0,1,1.93-5.7c.95-1.39,1.77-2.87,2.65-4.31l0,0,.52-.66,0,0,.34-.36,0,0,.34-.38a12,12,0,0,1,1.81-1.48c3.05-1.66,6.24-3.09,9.2-4.89,5.89-3.58,12.45-5.07,19.05-6.5a5.56,5.56,0,0,1,1.17-.14c5.57,0,11.14-.18,16.68.66,6,.91,12.09,1.47,18.07,2.55,5.07.92,10.24,1.46,15.14,3.27a39.52,39.52,0,0,1,11.34,6.15c2.8,2.26,5.69,4.43,8.27,6.93,1.67,1.62,2.72,3.85,4.26,5.62,2.19,2.52,3.56,5.47,5.06,8.38A67.93,67.93,0,0,1,326,181c.22,1,.54,2,.84,3,1,3.48,1.11,7.1,1.5,10.67a39,39,0,0,1,.34,5.29c-.06,2.28-.43,4.56-.54,6.84C328.07,208.61,328.17,210.44,328.19,212.27Z"/><path class="cls-11" d="M144.19,306.74c1.39.34,2,1.54,2.86,2.51.64.74,1.11,1.78,2.5,1.74a3.29,3.29,0,0,0-1.19-2.2,40.68,40.68,0,0,0-5.08-4.57,53.83,53.83,0,0,1-8.9-7.91c-2.08-2.21-3.29-5-4.56-7.73-.88-1.89-1.7-3.81-2.48-5.74a12.44,12.44,0,0,1-.46-2.07h0a25.84,25.84,0,0,0,6.26,7.66,24.28,24.28,0,0,0,5.18,3.48,7.39,7.39,0,0,1,2.67,2.21c1.3,1.63,2.39,3.43,3.61,5.13a18.49,18.49,0,0,0,1.59,1.7c.33-.4.6-.57.64-.78a6.8,6.8,0,0,0-1.2-5.57c-.39-.51-.72-1.06-1.07-1.59a20.86,20.86,0,0,1,4.05,1.07,17.7,17.7,0,0,1,3.11,2.43,3.16,3.16,0,0,0-2.6,5.06,1.73,1.73,0,0,1-.12,2.59,2.51,2.51,0,0,0-.69,2.87c.35.79,2,1.42,3.11,1.29.19,0,.38-.1.57-.14,1.91-.41,2-.34,2.69,1.5.06.18.09.38.17.56.56,1.37,1.29,2.78,2.93,2.77s2.4-1.4,2.91-2.79c.3-.83.47-1.71.76-2.81.9.41,1.64.8,2.41,1.1a2.33,2.33,0,0,0,2.58-.22,2.78,2.78,0,0,0,.88-2.85,5.54,5.54,0,0,0-1.64-2.61c-.88-.89-.82-1.41,0-2.37a11.41,11.41,0,0,0,1.45-1.82c.69-1.29.07-2.34-1.4-2.48a14.25,14.25,0,0,0-2.16,0,2.33,2.33,0,0,1-2.55-1.59c-.89-1.9-2.18-3.59-4.55-3.9a7.51,7.51,0,0,0-.85-1.74c-1.4-1.64-2.83-3.26-4.37-4.77a4.49,4.49,0,0,1-1.55-3.84,8.83,8.83,0,0,0-1-5.13,5.41,5.41,0,0,1-.7-1.82,7.84,7.84,0,0,1,.07-2.83,17.57,17.57,0,0,1,1.38-3,5.29,5.29,0,0,0-.57-5.89c-1.44-1.94-2.77-4-4.1-6a2.79,2.79,0,0,1-.49-1.6c.15-1.95-.11-2.73-1.86-3.59-2-1-4.18-1.86-6.26-2.8a9.16,9.16,0,0,0-6.33-.27c-2.7.71-4.48,2.67-6.17,4.67-1.14,1.35-1.19,3.15-1.1,4.87.07,1.3.18,2.6.37,3.89a52.21,52.21,0,0,0,1.2,7.11,55.61,55.61,0,0,1,1.94,10.94h0a6,6,0,0,1-.78-1c-.49-1.06-.8-2.22-1.38-3.23a27.79,27.79,0,0,1-3-9.24,9.14,9.14,0,0,0-.32-1.32,21.74,21.74,0,0,1-1.24-8.83c.19-.26.5-.5.54-.78.37-2.28,1.9-3.78,3.42-5.32,1.18-1.2,2.27-2.5,3.41-3.74a2.32,2.32,0,0,0,.38-3c1.21-.49,2.41-1,3.62-1.46a3.27,3.27,0,0,1,2.84.21c1.55.85,3.07,1.75,4.64,2.54a22.36,22.36,0,0,0,3.22,1.35c2.92.95,5.89,1.74,8.17,4a8.24,8.24,0,0,0,2,1c-.46-1.82-1.62-2.49-2.56-3.26s-2.1-1.32-3.11-2a14.73,14.73,0,0,1-1.43-1.28,10.62,10.62,0,0,1,2.87-.29c2.37.41,4.69,1,7,1.56l.38.32,0,0c0,.2-.07.43,0,.58,1.39,2.59,2.71,5.22,4.24,7.73a4,4,0,0,0,3.94,2,38,38,0,0,0,6.75-1c1.84-.43,3.66-.92,5.58-.22a3.23,3.23,0,0,1,2.22,3.48,67.26,67.26,0,0,1-1.62,7.25,18.84,18.84,0,0,0,.28,11.17,25.61,25.61,0,0,0,4,8.24,18.84,18.84,0,0,1,1.57,2.71c1.33,2.62,2.66,5.25,3.94,7.9a18,18,0,0,1,2,4.67,8.45,8.45,0,0,0,2.63,4.46,46,46,0,0,0,4,3.7,23.58,23.58,0,0,0,3.24,2.5c1.63,1,3.42,1.63,5.05,2.59a12.23,12.23,0,0,0,6,1.61,4.61,4.61,0,0,1,2,.63,8.81,8.81,0,0,1,3.74,4.34c1.56,3.46,2.52,6.86,1.12,10.59a3.82,3.82,0,0,0,0,1.54c.06.78.2,1.55.24,2.33A14.85,14.85,0,0,0,216,337a7.4,7.4,0,0,1-.36,4.41c-.2.69-.58,1.32-.77,2a1.87,1.87,0,0,1-2,1.5c-1.94,0-3.76.08-5.55-1.23s-3.58-2.61-4.56-4.7c-.39-.83-.62-1.73-1.06-2.53-.92-1.66-1.92-3.32-3.73-4.13a4.88,4.88,0,0,0-5.63,1,5.33,5.33,0,0,0-1,5.7c.88,2.32,2.07,4.52,3.14,6.77.81,1.71,1.57,3.44,2.48,5.1a15.11,15.11,0,0,0,2.58,3.86,20.2,20.2,0,0,0,4.71,3.15c2.61,1.31,5.39,2.27,8,3.57,3.73,1.85,7.76,2.94,11.47,4.92a22.53,22.53,0,0,1,9.18,8.53c1.62,2.79,3.62,5.26,5.46,7.87,2.37,3.36,5.53,5,9.6,4a18.83,18.83,0,0,1,5.75-.18,38.8,38.8,0,0,1,5.12,1.11c2.17.45,4.36.78,6.52,1.29a10.4,10.4,0,0,0,5.79-.16c.93-.3,1.9-.44,2.85-.69q2-.52,3.93-1.11a19.85,19.85,0,0,1,3.89-1.18,13.76,13.76,0,0,1,6.12.8,3.69,3.69,0,0,1-.45,1.26c-3.59,4-7.71,7.26-13.25,8.17-3.79.62-7.55,1.51-11.36,1.85a42.72,42.72,0,0,1-21.06-3.43,128.17,128.17,0,0,1-25.65-14.3c-3.88-2.86-7.84-5.62-11.47-8.83-3.41-3-7.14-5.68-10.7-8.55a48.76,48.76,0,0,1-4.11-3.63c-3-3.07-6-6.22-9-9.33-.77-.79-1.61-1.52-2.42-2.28.7-.52.44-1.2.21-1.78a36.28,36.28,0,0,0-2-4.45c-2-3.51-4.17-6.94-6.2-10.44-.75-1.29-1.23-2.76-2-4s-1.29-2.92-3.07-3.32l-1-1.75a4,4,0,0,0-.65,3,51.87,51.87,0,0,0,4.58,12.89,33,33,0,0,0,3.87,5.64c2.29,2.76,4.7,5.44,7.2,8,3.45,3.58,6.94,7.12,10.57,10.51,2.23,2.09,4.77,3.86,7.14,5.8,1.31,1.08,2.57,2.23,3.87,3.32,3.25,2.73,6.49,5.47,9.76,8.17.8.66,1.7,1.22,2.57,1.8,3.31,2.22,6.57,4.52,10,6.63a96.8,96.8,0,0,0,8.88,5,105.06,105.06,0,0,0,11.48,4.95,47,47,0,0,0,14,2.73c1.47,0,2.94.13,4.57.2,0,.33.26.81.14,1.18-1,3-1.61,6.08-3.44,8.71a3.91,3.91,0,0,0-3.92,2.37,9.6,9.6,0,0,1-.68,1c-3.34,5.05-6.89,10-9,15.77-.82,2.3-1.66,4.65-3.65,6.39a19.41,19.41,0,0,1-4.28,2.7,3.36,3.36,0,0,0-1.77,4.39,17.83,17.83,0,0,1,1.26,5.49c0,.82,0,2.1,1.44,2.16a44,44,0,0,0-1.76,5c-.61,2.65.2,3.53,2.2,4.32.49.19,1,.36,1.46.56s.94.42,1.72.78a7.78,7.78,0,0,1-1.47.42c-1,.05-2.1.06-3.14,0a2.17,2.17,0,0,1-2.39-1.87,28.12,28.12,0,0,1-.85-5.78,16.85,16.85,0,0,0-3.25-10.27c-3.31-4.61-6.71-9.15-10.12-13.69-2.12-2.81-4.27-5.6-6.5-8.33-1.85-2.28-3.76-4.52-5.76-6.66-3.49-3.72-7-7.44-10.64-11-4.25-4.16-8.72-8.09-12.95-12.28-2.17-2.15-4-4.63-6-7-.47-.55-.94-1.09-1.45-1.59-4.92-4.8-9.82-9.62-14.79-14.37a59,59,0,0,1-6.46-8.11c-2.32-3.16-4.56-6.37-6.82-9.57a13.33,13.33,0,0,1-.75-1.37c0-2.48,0-5,0-7.45a9.66,9.66,0,0,0-.17-1.75q-1.88-10.16-3.79-20.31a2.08,2.08,0,0,1-.28-.72c.07-3,.22-6,.24-9A40.75,40.75,0,0,0,144.19,306.74ZM159.71,290l.55.1c.15-.44.48-.91.41-1.31-.3-1.78-.39-3.66-1.67-5.11-1.1-1.24-2.28-2.42-3.42-3.62l-.39.19a9.61,9.61,0,0,0,.56,1.86,4.64,4.64,0,0,0,1.16,1.31,8,8,0,0,1,2.63,5.49C159.58,289.3,159.65,289.66,159.71,290Z"/><path class="cls-13" d="M287.9,386.72a13.76,13.76,0,0,0-6.12-.8,19.85,19.85,0,0,0-3.89,1.18q-2,.59-3.93,1.11c-.94.25-1.92.39-2.85.69a10.4,10.4,0,0,1-5.79.16c-2.15-.51-4.35-.84-6.52-1.29a38.8,38.8,0,0,0-5.12-1.11,18.83,18.83,0,0,0-5.75.18c-4.08,1-7.24-.63-9.6-4-1.84-2.61-3.83-5.08-5.46-7.87a22.53,22.53,0,0,0-9.18-8.53c-3.71-2-7.74-3.07-11.47-4.92-2.62-1.3-5.4-2.26-8-3.57a20.2,20.2,0,0,1-4.71-3.15,15.11,15.11,0,0,1-2.58-3.86c-.91-1.65-1.67-3.39-2.48-5.1-1.07-2.25-2.26-4.45-3.14-6.77a5.33,5.33,0,0,1,1-5.7,4.88,4.88,0,0,1,5.63-1c1.82.81,2.81,2.47,3.73,4.13.44.79.67,1.7,1.06,2.53,1,2.09,2.73,3.36,4.56,4.7s3.61,1.24,5.55,1.23a1.87,1.87,0,0,0,2-1.5c.19-.69.57-1.32.77-2A7.4,7.4,0,0,0,216,337a14.85,14.85,0,0,1-.14-3.33c0-.78-.18-1.55-.24-2.33a3.82,3.82,0,0,1,0-1.54c1.4-3.73.44-7.14-1.12-10.59a8.81,8.81,0,0,0-3.74-4.34,4.61,4.61,0,0,0-2-.63,12.23,12.23,0,0,1-6-1.61c-1.63-1-3.43-1.63-5.05-2.59a23.58,23.58,0,0,1-3.24-2.5,46,46,0,0,1-4-3.7,8.45,8.45,0,0,1-2.63-4.46,18,18,0,0,0-2-4.67c-1.28-2.65-2.6-5.28-3.94-7.9a18.84,18.84,0,0,0-1.57-2.71,25.61,25.61,0,0,1-4-8.24,18.84,18.84,0,0,1-.28-11.17,67.26,67.26,0,0,0,1.62-7.25,3.23,3.23,0,0,0-2.22-3.48c-1.92-.7-3.74-.21-5.58.22a38,38,0,0,1-6.75,1,4,4,0,0,1-3.94-2c-1.53-2.5-2.85-5.14-4.24-7.73-.08-.15,0-.39,0-.58a18.19,18.19,0,0,1,2.05.61,13.14,13.14,0,0,0,5.73,1.07,4.06,4.06,0,0,0,4-2.9,47.41,47.41,0,0,0,2.05-8.76,21.65,21.65,0,0,1,3-8.85,10.89,10.89,0,0,0,1.41-3.64c.85-3.86,2.85-7.15,4.87-10.45.55-.89,1.1-1.79,1.73-2.63,3.51-4.71,5.21-10.24,7-15.7a26.58,26.58,0,0,0,1.11-6.36A65.61,65.61,0,0,1,191.07,171a107.28,107.28,0,0,1,4.24-10.77,32.09,32.09,0,0,1,4.18-6.41,87.37,87.37,0,0,1,6.41-6.9,13.08,13.08,0,0,1,2.79-1.66c-.88,1.44-1.71,2.91-2.66,4.31a15.23,15.23,0,0,0-1.93,5.7c-.58,2.74-1.23,5.48-1.54,8.25-.54,4.84.64,9.11,4.88,12.06,1.82,1.27,3.77,2.38,5.46,3.8a66.54,66.54,0,0,1,4.85,4.84,16,16,0,0,1,1.37,1.66c1.64,2.22,1.56,4.79,1.38,7.35,0,.34-.37.67-.6,1-2.37,3.28-4.85,6.49-7.07,9.87-2.37,3.6-4.48,7.37-6.71,11.06-.44.73-.91,1.43-1.41,2.12-1.58,2.15-3.24,4.25-4.74,6.46a7.72,7.72,0,0,0-.65,2.39c-.23.69-1,1.24-.56,2.16,1.73.46,3.34-.06,5-.52l8.61-2.42a5.1,5.1,0,0,1-.41.87,13.75,13.75,0,0,0-2.8,9.55c.13,1.36,0,2.75,0,4.12-.74.41-1.46.85-2.22,1.21-1.94.94-3.91,1.82-5.84,2.77a7.18,7.18,0,0,0-1.2,1c1.57.94,2.24-.42,3.19-.72s2-.81,3-1.21c.91,1.73.93,1.74,2.43,1.17l.9-.36.49.24c-1.14.56-2.27,1.15-3.43,1.68-.73.34-1.13.8-.9,1.64-1.17.33-2.36.6-3.51,1-2.35.79-4.63,1.86-7,2.43-4.37,1-6.7,4.27-8.92,7.7a1.19,1.19,0,0,0-.18.55c-.19,3.23-.1,6.45,1.47,9.37s3.34,5.61,5,8.43c1.05,1.79,2.17,3.55,3.06,5.43,1.71,3.6,3,7.39,5,10.88a13.1,13.1,0,0,0,7.63,6.68c2.43.75,4.77,1.77,7.16,2.63a5.66,5.66,0,0,0,1.71.39,38.89,38.89,0,0,0,8-.54,87.74,87.74,0,0,1,8.72-1,5.88,5.88,0,0,1,4.24,1.71c2.76,2.34,4.16,5.48,5.49,8.69.65,1.56,1.53,3.12,1.15,4.89-.5,2.29-1.07,4.56-1.77,6.79-.84,2.68-1.89,5.28-2.74,8a4.76,4.76,0,0,0,.23,1.86,21.17,21.17,0,0,1-7.08,2.33c-1.39-1.25-1.55-2.15-.58-3.48.27-.37.67-.64.91-1a6.31,6.31,0,0,0,.45-1.23c-1.7-.43-3,.43-4.4.5a10.79,10.79,0,0,0-5.23,2,3.67,3.67,0,0,0-.85,5.91,53.27,53.27,0,0,0,4.79,4,8.39,8.39,0,0,0,2.13.84c.73.51,1.5,1,2.2,1.55,1.27,1,2.54,2.06,3.74,3.17a31.36,31.36,0,0,0,7.57,4.86c3.69,1.84,7.33,4,11.24,5.1a74.15,74.15,0,0,0,13.3,2.17c5.81.59,11.45-.73,17-2.37a14.92,14.92,0,0,0,2.68-1.17c3.79-2,6.3-5.23,8.34-8.87a37.83,37.83,0,0,0,1.91-4.3c.23-.56.28-1.2-.62-1.3l.36-1.61a4.23,4.23,0,0,0,1.93-2.36,30.71,30.71,0,0,0,4.62-7.23,6.87,6.87,0,0,0,.48-4.9c-.27-.87-.48-1.77-.78-2.63a75.79,75.79,0,0,0-3.19-8.82c-1.66-3.37-2.59-7-3.82-10.45-.3-.85-.54-1.72-.81-2.59.91-1.54,1.58-3.11,1-5a18.89,18.89,0,0,0-3.77-6.51c-.25-.3-.79-.36-1.19-.54-.14-.86-.24-1.73-.41-2.59-.39-2-.22-4.18-2.28-5.45a10,10,0,0,1-1.46-1.75c-1.42-2.81-2.78-5.65-4.11-8.5a21.69,21.69,0,0,1-.8-2.38h0a3,3,0,0,1,3.23,1.66,11.28,11.28,0,0,0,1.89,2.24c2.3,2.24,3,5.45,4.91,7.92a37.18,37.18,0,0,1,4.61,7.9,21.46,21.46,0,0,0,4.4,6.66,25.58,25.58,0,0,1,2.25,3.18,32,32,0,0,0,2,2.6c1.61,1.79,3.24,3.58,4.94,5.29a16.55,16.55,0,0,0,2.73,2.21c2.74,1.78,6,1.5,8.92-.68.36-.27.74-.51,1.11-.77-.62,1.86-1.23,3.72-1.87,5.57a115.35,115.35,0,0,1-6.56,16.17c-3.4,6.44-5.94,13.23-8.64,20-1.46,3.64-3.14,7.19-4.72,10.79-1.34,3.05-2.6,6.15-4,9.16-1.12,2.36-2.47,4.61-3.68,6.93-.85,1.62-1.66,3.26-2.46,4.91A20.4,20.4,0,0,1,287.9,386.72Zm-18.56-23.57,0,.3a22.07,22.07,0,0,0-4.31,0,43.82,43.82,0,0,1-8.56.74,6.52,6.52,0,0,0-4.44,1.83c-1.62,1.51-1.49,3.32.2,4.71a10.3,10.3,0,0,1,1.61,1.65A21.24,21.24,0,0,0,265.39,380c1.42.39,3,.19,4.45.51a29.65,29.65,0,0,0,10.23.71,6.25,6.25,0,0,0,4.21-2.2c1.81-2.14,3.67-4.25,5.3-6.52a7.77,7.77,0,0,0,1.83-5.24,2.27,2.27,0,0,0-2.26-2.23c-1.11-.05-2.23-.06-3.34,0a43.53,43.53,0,0,1-9.14-.82C274.23,363.81,271.79,363.5,269.34,363.15Z"/><path class="cls-14" d="M203.64,92.29a15.68,15.68,0,0,0-.59-1.52c-.36-.7-.82-1.34-1.16-2.05a2.23,2.23,0,0,1,.41-2.87l.14-.14c1.2-1.3,2.18-3,3.65-3.78s3.3-.52,5-.76a6,6,0,0,0,1.52-.37,4.42,4.42,0,0,1,3.25,0,4.54,4.54,0,0,0,2.28.38,8.1,8.1,0,0,0,3.1-1.5c.46-.38.38-1.4.53-2.14a2,2,0,0,0,0-.39c0-3.25.95-4.63,4-5.64a1.88,1.88,0,0,1,1.44.15c2.56,1.7,5.07,3.48,7.59,5.23a5.61,5.61,0,0,1,2.82,4.47c0,.84.46,1.66.49,2.49a8.77,8.77,0,0,1-.24,3.46,12.2,12.2,0,0,0-1.11,5.32,4.28,4.28,0,0,1-.2,1c-3.16.33-6.17.61-8.67-1.91a22.31,22.31,0,0,0-3.22-2.57c-1.06-.73-2-.35-2.11.9a11,11,0,0,0,.22,3.1,5.08,5.08,0,0,1-.62,4.3,11.58,11.58,0,0,1-1.52-1.05c-1-1-2-2-3-3.07a2.59,2.59,0,0,0-2.34-1c2.17,4,5.95,6.84,7,11.28a2.67,2.67,0,0,1-2.92-.08c-2.1-1.19-4.17-2.45-6.24-3.72-.84-.51-1.58-1.18-2.43-1.66a7.35,7.35,0,0,0-1.72-.48l-.29.39c.37.65.71,1.32,1.12,1.93.91,1.36,1.9,2.66,2.76,4a9.51,9.51,0,0,1,.68,2.05,2.08,2.08,0,0,1-2.15-.51c-2.34-1.57-4.69-3.12-7-4.76a42.27,42.27,0,0,1-9-9,1.54,1.54,0,0,1-.07-2.13c.57-.71,1.3-1.28,2.2-.84,1.52.74,3,1.62,4.42,2.49a13.5,13.5,0,0,1,1.48,1.19Z"/><path class="cls-15" d="M318.51,115c-.69.11-1,.15-1.32.22-1.8.38-2.36,0-2.5-1.91a5.22,5.22,0,0,0-.07-1.36,1.63,1.63,0,0,0-.84-.91c-.21-.08-.75.28-.9.56-.54,1-1,2.13-1.47,3.21a7.35,7.35,0,0,1-3.48-7.71c.82-3.36,1.88-6.67,2.86-10,.46-1.56,1-3.09,1.47-4.67.25-.91.78-1.27,1.83-1.36l1.26,6.62.48.08,2-3.35a48.68,48.68,0,0,1,2.68,11.13c1.87-.56,1.57-2.85,3.44-3.47a6.93,6.93,0,0,1,.48,1.75c0,1-.26,2.08-.23,3.12,0,.59.24,1.47.64,1.67a1.83,1.83,0,0,0,1.73-.45,9.27,9.27,0,0,0,1.78-3.4,63.05,63.05,0,0,0,1.54-14.61c0-.65.11-1.32,0-2-.35-2.56,1.27-3.83,3.16-4.91a2,2,0,0,1,2.69.34,29.16,29.16,0,0,1,3,3.83,51.17,51.17,0,0,1,2.75,5.42,6.4,6.4,0,0,1,.49,2.67c-1.29-1.37-2.55-2.75-3.87-4.09a6.42,6.42,0,0,0-1.54-1.19c-1-.55-1.93,0-1.76,1.15.57,3.88,1.22,7.75,1.9,11.61a6.08,6.08,0,0,0,.88,1.58c1.75-1.87.87-4.27,1.89-6a1.09,1.09,0,0,1,1.09,1.26c0,.91-.14,1.82-.23,2.73s-.39,2.07.52,3.15c1.61-1.14.93-3.38,2.4-4.79.69,2.71,1.14,5.19.28,7.79a45.48,45.48,0,0,0-1.39,4.91c-.44,2.08-1.84,3.18-3.73,4.22a25.15,25.15,0,0,0-.64-3.74c-.65-2-1.47-3.91-2.31-5.82a1.85,1.85,0,0,0-1.92-1.12c-.92.05-1.08.76-1.4,1.42a25.84,25.84,0,0,1-2.07,3.78,7.58,7.58,0,0,1-2.51,2.41,37,37,0,0,0-6.1,4.27c-.57.45-1.44,1-2,.87-.89-.23-.53-1.33-.63-2.08S318.65,116.06,318.51,115Z"/><path class="cls-16" d="M290.4,98.31c-.65-2.57,1-5.1-.12-7.82-.55.36-1,.68-1.45,1a5.5,5.5,0,0,1-1.53.79c-1.43.3-2.08-.27-2.12-1.75,0-.84.07-1.68,0-2.51,0-.31-.41-.79-.66-.81s-1,.17-1.14.46a22.35,22.35,0,0,0-1,3c-.31,1.05-.57,2.11-1,3.55-.73-.66-1.18-1.08-1.64-1.48-3-2.55-3.7-5.88-3.27-9.6.12-1,.23-2.08.33-3.12.21-2.05.55-2.3,2.57-1.91.11,0,.24-.06.44-.11.48-1.11-.31-2-.68-2.9-1.12-2.86-2.38-5.67-3.4-8.57a19.13,19.13,0,0,1-1-6.92,20.71,20.71,0,0,1,2,1.22,20.38,20.38,0,0,1,7.46,11.91c.29,1.28.52,2.56.78,3.85.15.75.45,1.36,1.42,1.49,1.3-1.47.51-3.7,1.82-5.31a6,6,0,0,1,1.25.35,19.73,19.73,0,0,1,7.24,6.21c.93,1.35,1.79,2.74,2.72,4.09a2.81,2.81,0,0,1,.37,2.79c-.82,2-1.65,4-2.54,5.95a3.15,3.15,0,0,1-2.32,2,3,3,0,0,0-2.47,2.45A2.15,2.15,0,0,1,290.4,98.31Z"/><path class="cls-16" d="M134.6,145a11.43,11.43,0,0,0-.95-.85c-1.33-.94-1.39-2.07-.93-3.59.79-2.62,1.33-5.33,1.88-8,1.3-6.36,4.35-11.86,8.18-17a57.09,57.09,0,0,1,8.52-8.93c2.15-1.88,4.48-3.15,7.45-2.92a6.85,6.85,0,0,0,4.58-1.47,4.3,4.3,0,0,1,2.85-1.27c-.14,1.42-.22,2.74-.4,4.06-.63,4.55-.63,4.56-3.89,8q-2.56,2.71-5.22,5.33a4.58,4.58,0,0,1-4.7,1.23c-.68-.19-1.37-.35-2.23-.57-.4,1-.72,2-1.14,3-.84,1.85-1.72,3.68-2.61,5.5a3.39,3.39,0,0,1-.69.94c-.76.73-1.43.64-1.82-.37-.5-1.27-.81-2.62-1.26-3.91a1.79,1.79,0,0,0-.73-1c-.19-.09-.7.25-.94.51a4.29,4.29,0,0,0-.84,1.32,34.37,34.37,0,0,0-2.56,12c0,1.44,0,2.88,0,4.33A3.52,3.52,0,0,1,134.6,145Z"/><path class="cls-14" d="M218.9,114.62a21.65,21.65,0,0,1-2.56.8c-1.15.22-2.33.28-3.5.41-1.56.18-1.63.25-1.66,1.79,0,.59,0,1.18,0,1.77a2.64,2.64,0,0,1-1.17,2.27,12.55,12.55,0,0,1-1.37-.55,62.28,62.28,0,0,1-16.89-13.91,4.81,4.81,0,0,1-.92-1.49c-.78-2.15-1.44-4.35-2.27-6.48a2,2,0,0,1,.51-2.47,11.52,11.52,0,0,0,.82-.85,2.12,2.12,0,0,1,2.77-.53c4.09,1.58,7.51,4.25,11.08,6.67,1.35.92,2.66,1.91,4,2.77a38,38,0,0,1,8.36,6.78,28.81,28.81,0,0,0,2.91,2.52Z"/><path class="cls-14" d="M263.93,92.65l-1.67-2.55a30.28,30.28,0,0,1-1.4,2.9c-.94,1.51-1.71,1.58-2.92.27a9.87,9.87,0,0,1-2.88-5.46c-.55-4.34-1.41-8.66-1.68-13-.17-2.77.45-5.59.8-8.38a26.37,26.37,0,0,1,.87-4.22c.19-.62.71-1.47,1.22-1.58a2.27,2.27,0,0,1,1.75.94c2.26,3.13,4.54,6.27,6.57,9.55a13.82,13.82,0,0,1,1.5,4.63A54,54,0,0,1,267,87.67,5.27,5.27,0,0,1,263.93,92.65Z"/><path class="cls-16" d="M247.34,88.35c-.46,2.36.56,4.69-.57,7.28A16.14,16.14,0,0,1,245.08,94c-1.57-2.09-3.14-4.2-4.6-6.36a6.51,6.51,0,0,1-1-2.5c-.32-1.86-.4-3.76-.71-5.63a2.08,2.08,0,0,1,.78-2.24,6.4,6.4,0,0,0,1.13-1.08c1.43-1.81,2.83-3.59,1.92-6.2a12.9,12.9,0,0,1-.48-3.68,3.34,3.34,0,0,1,.48-1.83c.83-1.29,1.9-1.37,2.84-.15,2.29,3,4.4,6,5.37,9.73a63.72,63.72,0,0,1,2.41,20.35c0,.55-.14,1.1-.26,2a19.2,19.2,0,0,1-3.24-4C248.83,91.13,248.76,89.36,247.34,88.35Z"/><path class="cls-15" d="M333.49,151.49c-.7.76-1.36,1.57-2.12,2.26a4.35,4.35,0,0,1-1.36.55,4.94,4.94,0,0,1-.46-1.36,3.85,3.85,0,0,1,.33-1.51c2.83-7.12,6.08-14.05,9.48-20.92.28-.57.63-1.1,1.08-1.87a7.48,7.48,0,0,1,.81,5.32c-.65,4.33-1.49,8.62-2.06,13a12.26,12.26,0,0,0,.4,4.26c.81,3.5,1.73,7,2.69,10.43a34.25,34.25,0,0,1,1.51,9.46c0,2.88,0,5.77-.08,8.65a22.37,22.37,0,0,1-.38,2.59c-.33-.45-.54-.62-.59-.83-.77-2.77-1.42-5.58-2.29-8.32A41.65,41.65,0,0,0,338,167a7.82,7.82,0,0,1-.47-6.62c.46-1.22.42-1.23-.18-2.47l-1.27,1.74c-.51.68-1,1.47-2,1.13a2.8,2.8,0,0,1-1.76-2.57,15.61,15.61,0,0,1,.48-1.89C333.13,154.76,334,153.32,333.49,151.49Z"/><path class="cls-16" d="M204.39,122.7c-1.5.89-3,1.84-4.52,2.64a2.91,2.91,0,0,1-1.69.06,17.21,17.21,0,0,1-6.93-3.06,23.79,23.79,0,0,1-8.6-11.2,3.77,3.77,0,0,1-.19-2.27,6.92,6.92,0,0,0,0-4,4.31,4.31,0,0,1,0-1.75c.2-1.46,1-1.75,2.16-.82.41.32.72.76,1.11,1.1.87.77,1.76,1.51,2.64,2.26a17.35,17.35,0,0,1,1.33,1.15c1.81,1.9,3.52,3.89,5.4,5.7a75.56,75.56,0,0,0,6.08,5.25A7.56,7.56,0,0,1,204.39,122.7Z"/><path class="cls-15" d="M311.38,68.2a4.1,4.1,0,0,1-2.8-1.76,5.28,5.28,0,0,0-1.48-1.55c-2.47-1.61-5-3.15-7.5-4.67a4.33,4.33,0,0,0-1.43-.21,5.63,5.63,0,0,0,3.59,4.26,21.09,21.09,0,0,1,7.41,5.38c1.27,1.36,1.35,2.14.44,4.06a17.29,17.29,0,0,1-7.54-5.3c-.33.92-.61,1.53-.78,2.17a1.88,1.88,0,0,1-1.54,1.58,2,2,0,0,1-2-.93,3.84,3.84,0,0,1-.52-.83c-1.59-4-3.78-7.79-4.45-12.12a15.87,15.87,0,0,1-.2-2.54c0-1.38.47-1.9,1.8-1.61a28.91,28.91,0,0,1,5.4,1.68,22.3,22.3,0,0,0,5.53,1.91,4.15,4.15,0,0,1,2.3,1.3c1.33,1.52,2.5,3.19,3.68,4.84A3.92,3.92,0,0,1,311.38,68.2Z"/><path class="cls-16" d="M310.4,90.19a3.9,3.9,0,0,1,.37,4.1c-1,2.69-2.13,5.35-3.18,8-.33.85-.61,1.73-.92,2.59a3.66,3.66,0,0,1-2,2.25c-1.75.76-2.34.59-3.41-1a12.13,12.13,0,0,1-2-9.69A107.94,107.94,0,0,1,302.67,83c.15-.42.33-.82.61-1.51a5.92,5.92,0,0,1,1.43,1.05c1.26,1.84,2.43,3.74,2.44,6.09a2.69,2.69,0,0,0,1.15,2.49Z"/><path class="cls-15" d="M174.38,110.22c1.32,1.15,2.69,2.25,3.94,3.48,1.82,1.78,3.53,3.69,5.34,5.49,3.16,3.15,6.45,6.14,10.79,7.65a10.9,10.9,0,0,1,1.61.92,8.8,8.8,0,0,1-4.22,1.49c-.38.07-.8,0-1.17.09-5.69,1.42-9.61-1.87-13.45-5.17-1.64-1.41-2.11-3.6-2.6-5.63a63.79,63.79,0,0,1-1.1-6.37,6,6,0,0,1,.3-1.79Z"/><path class="cls-15" d="M270,93.31a12.19,12.19,0,0,1-2.15-7.19,58.74,58.74,0,0,0-1-12.7c-.41-2.2,1-3.78,2.22-5.56A8.77,8.77,0,0,1,273.67,74c.52,2.76.79,5.57,1.32,8.33a13.66,13.66,0,0,1-.15,5.83,4.22,4.22,0,0,1-2.56,3.23A10.59,10.59,0,0,0,270,93.31Z"/><path class="cls-15" d="M145.36,182.26a15.2,15.2,0,0,1-1.89-1,35,35,0,0,1-10.7-12.84c-.47-.95-.81-1.93.24-2.95,2.46,2.27,4.54,4.94,7.7,6.23.68-.78.27-1.31-.14-1.82-1.69-2.11-2.22-4.7-3-7.17a6.48,6.48,0,0,1-.1-1.39,3.79,3.79,0,0,1,1.59,1.7q2.34,3.74,4.64,7.5a2.89,2.89,0,0,1,.52,1C144.57,175,144.94,178.42,145.36,182.26Z"/><path class="cls-15" d="M167.51,117.29c1.86,1.89,3.55,3.42,5,5.13a59.84,59.84,0,0,0,6.43,6.84,4.62,4.62,0,0,1,1.33,2.09c.4,1.33-.3,2.16-1.72,2.14a9.54,9.54,0,0,1-4.84-1.39,11.08,11.08,0,0,1-4.41-4.85A20.25,20.25,0,0,1,167.51,117.29Z"/><path class="cls-15" d="M164.79,169.58c-5.23-4.66-7.64-10.37-8.44-17.3,3.46,2.15,6.32,4.35,8.25,7.57a5.88,5.88,0,0,1,.86,3.75Z"/><path class="cls-15" d="M144.35,218.32c1.61,3.26,4.07,5.86,3.79,9.66-.08,1.15.29,2.33.32,3.49,0,.51-.17,1.29-.52,1.49s-1.06-.11-1.61-.21a.3.3,0,0,1-.15-.12c-2.48-3.21-4.65-6.55-3.94-10.89A5.29,5.29,0,0,1,144.35,218.32Z"/><path class="cls-15" d="M140.1,223.84c.34,1.57.68,3.13,1,4.7.13.57.32,1.13.47,1.7a5.79,5.79,0,0,0,3.51,4.39,2.49,2.49,0,0,1,.83,3.16,1.11,1.11,0,0,1-.66.36c-2.54.39-6.46-2-7.32-4.62a8.23,8.23,0,0,1-.38-3.07,17.2,17.2,0,0,1,2.1-6.63Z"/><path class="cls-15" d="M156.26,165.2c-2.13-1.89-4.35-3.59-5.48-6.29-1.33-3.19-2.79-6.32-4.32-9.75a6,6,0,0,1,3.81,2.14c1.23,1.61,2.44,3.23,3.66,4.85a2.25,2.25,0,0,1,.32.49A33.77,33.77,0,0,1,156.26,165.2Z"/><path class="cls-15" d="M330.58,212.48a9,9,0,0,1,1.27-6.92,94.14,94.14,0,0,1,9-12.88c.07-.08.21-.08.59-.21-2.57,6.87-6.38,12.92-9.74,19.17C331.52,211.93,331.12,212.08,330.58,212.48Z"/><path class="cls-15" d="M151.89,223.57c-1.72-2.2-3.23-4.33-5-6.28-1.95-2.2-1.43-4.68-1.19-7.21,1.89,3.35,5,5.9,6,9.73A6.28,6.28,0,0,1,151.89,223.57Z"/><path class="cls-15" d="M173.18,167.4l-2.91-8.57a8.88,8.88,0,0,1,4.85,3.25C176.83,164.43,176.3,166,173.18,167.4Z"/><path class="cls-15" d="M151.21,206.35l3.59,5.09-1.43,2.87a16.79,16.79,0,0,1-4-5.91C149.05,207.62,149.43,207.24,151.21,206.35Z"/><path class="cls-13" d="M209.18,144.66l-.52.66Z"/><path class="cls-13" d="M209.56,144.26l-.34.36Z"/><path class="cls-13" d="M209.94,143.84l-.34.38Z"/><path class="cls-13" d="M154.84,245l-.38-.32Z"/><path class="cls-17" d="M144.29,345a6.48,6.48,0,0,0,.54,1.8c2.61,3.91,5.27,7.8,7.93,11.68,1,1.51,2.07,3,3.2,4.48,1.77,2.27,3.5,4.58,5.44,6.7,2.46,2.7,5.09,5.25,7.7,7.8,1.82,1.77,3.85,3.34,5.6,5.18,3.24,3.41,6.32,7,9.51,10.44,1.24,1.34,2.67,2.52,3.9,3.87a90,90,0,0,0,9.19,8.5c1.8,1.49,3.2,3.47,5,5,3.22,2.74,5.74,6.09,8.43,9.28,3.79,4.51,7.4,9.19,11,13.85,2.52,3.25,5,6.55,7.33,9.92a20.23,20.23,0,0,1,3.4,12.66,38.82,38.82,0,0,0,.3,6.25c.26,2.06,1.13,2.7,3.24,2.52s4.26-.53,6.54-.83c1.27,3,3.7,4.71,6.44,6.3a10.55,10.55,0,0,1-3.93,3.95,19.44,19.44,0,0,0-7.67,7.89c-1.77,3.12-3.89,6-6,9.35a28.19,28.19,0,0,1-1.65-2.41,196,196,0,0,0-10.63-18.36,126.34,126.34,0,0,1-8.92-15.66c-1.27-2.58-2.88-5-4.23-7.53-1-2-1.92-4-2.87-6a13,13,0,0,0-.72-1.6,141.2,141.2,0,0,1-8.25-15.4,17.45,17.45,0,0,0-1.64-2.41c-.27-.37-.61-.68-.88-1.05-2.46-3.39-4.88-6.81-7.37-10.18-3.37-4.57-6.8-9.11-10.19-13.66-.39-.52-.77-1.06-1.12-1.62-4.59-7.33-9.19-14.64-13.73-22-1.3-2.11-2.37-4.37-3.64-6.51a28.1,28.1,0,0,0-2.21-3c-2.52-3.18-5.08-6.34-7.57-9.54s-3.42-6.88-3.85-10.77c-.11-1-.23-2.08-.31-3.13a4.5,4.5,0,0,1,.67-3.36Z"/><path class="cls-18" d="M286.51,494.08c-.66-.61-1.35-1.21-2-1.87q-8.51-8.73-17-17.48c-.32-.33-.65-.65-.95-1-1.22-1.42-1.27-2-.1-3.38a4.69,4.69,0,0,0,.74-5.15c-.78-1.82-1.65-3.58-3.78-4.27a1.85,1.85,0,0,1-.88-1c-.6-1.3-1.13-2.63-1.66-3.89,1.63-2.2,2.45-2.48,4.66-1.22a52.91,52.91,0,0,1,4.84,3.33c.82.59,1.55,1.3,2.32,2l.33-.27a3.56,3.56,0,0,0-.35-1c-2.05-2.77-4.92-4.49-7.94-6a3.42,3.42,0,0,0-3.85.68,5.19,5.19,0,0,1-3.14,1.37,9.39,9.39,0,0,0-2.66,1.19,31.38,31.38,0,0,1-3-1.29c-2.2-1.2-2.84-2.57-2.3-5,.66-3,1.43-6,2.13-9,1.25-5.28,2.41-10.58,3.74-15.84,1.07-4.24,1.83-8.59,3.67-12.61a36.83,36.83,0,0,1,2.56-4.41c.51-.8,1.19-.75,1.65.08a9.06,9.06,0,0,1,.77,2c1.45,5.44,3,10.86,4.28,16.33A97.74,97.74,0,0,0,272.65,440c1.58,3.93,4,7.37,6.33,10.84,1.54,2.28,3.3,4.41,4.81,6.71a20.59,20.59,0,0,1,2.33,4.5c2.1,6,3,12.32,3.93,18.61a.59.59,0,0,1,0,.19c-.88,3.82-.25,7.87-1.76,11.61A2.18,2.18,0,0,1,286.51,494.08ZM261,416.23c-.76,6.07-1.51,12-2.25,18-.76,6.13-1.91,12.15-5,17.62a3.45,3.45,0,0,0-.12,1.17,3.51,3.51,0,0,0,2-2.28c.47-1.22.88-2.46,1.27-3.71,1.56-5,3.1-10,3.16-15.32a33.4,33.4,0,0,1,.46-4.69c.48-3.1,1-6.19,1.58-9.28C262.23,417.07,262.47,416.41,261,416.23Z"/><path class="cls-19" d="M291.84,246.34c.57,1,1.58.38,2.36.61-.42.49-.86,1-1.25,1.47-.83,1.07-1.63,2.15-2.45,3.23-.36,1.61-.13,2,1.3,2a7.66,7.66,0,0,0,2.29-.46,14.46,14.46,0,0,1,8.1-.28,41.5,41.5,0,0,0,7.34,1,28.64,28.64,0,0,0,9.75-1.86,11.84,11.84,0,0,0,2.46-1.53l2.33.73a1.12,1.12,0,0,1-1.22,1.2,2.53,2.53,0,0,0-.93.14c-1.61,1-3.2,2-4.83,3.07l.29.67c0,.94-.85,1.13-1.49,1.35-3.58,1.22-7.19,2.5-11,2.19a42.64,42.64,0,0,1-7.68-1.28c-4-1.08-8-2.43-11.93-3.7-1.71-.55-1.71-.59-1.71-2.31a64.07,64.07,0,0,1,.06-7.45,52.28,52.28,0,0,1,1.64-7.41,36,36,0,0,1,1.45-3.78,8.3,8.3,0,0,0,8.54-.78c2.41-1.62,5.19-2,7.89-2.73a22.09,22.09,0,0,1,2.49-.36,8.35,8.35,0,0,1-.7.85c-1.32,1.24-2.71,2.4-4,3.7a26.08,26.08,0,0,0-2.53,3.19,7.7,7.7,0,0,0-.68,1.71v-.06l-.4.52c-1.47,1.38-3,2.71-4.39,4.17A8.34,8.34,0,0,0,291.84,246.34Zm-1.18-.62-.27-.33a4,4,0,0,0-1.18.29c-2.11,1.3-3.17,3.38-4,5.58-.25.63,0,1.29,1,1.5C286.69,249.82,288.73,247.81,290.66,245.73Z"/><path class="cls-20" d="M238.22,450.75c-1.45-.06-1.41-1.34-1.44-2.16a17.83,17.83,0,0,0-1.26-5.49,3.36,3.36,0,0,1,1.77-4.39,19.41,19.41,0,0,0,4.28-2.7c2-1.74,2.83-4.09,3.65-6.39,2.07-5.8,5.62-10.72,9-15.77a9.6,9.6,0,0,0,.68-1,3.91,3.91,0,0,1,3.92-2.37,3.5,3.5,0,0,1-.18,1.14c-2,3.62-2.66,7.62-3.57,11.58-1.77,7.77-3.68,15.51-5.53,23.26-.27,1.13-.53,2.27-.85,3.66-.51-.4-.9-.68-1.26-1-1.42-1.15-2.78-2.39-4.26-3.45-1.64-1.17-3.11-.67-3.83,1.25C238.83,448.2,238.57,449.49,238.22,450.75Z"/><path class="cls-18" d="M257.06,463.9l2,.72a1.55,1.55,0,0,1-.74,2.22c-2.94,1.8-3.67,4.62-3.44,7.8a5.57,5.57,0,0,0,2.54,4c1.25.94,1.28,1,.54,2.39-.88,1.68-1.77,3.36-2.81,5a11.1,11.1,0,0,1-4.58,3.91,2.54,2.54,0,0,1-2.92-.27,7.86,7.86,0,0,1-1.3-1.19,26.22,26.22,0,0,1-4.58-8.19c-.51-1.55-.45-1.85.86-2.84.94-.71,1.94-1.33,2.94-2A16.89,16.89,0,0,0,250.7,471a3.12,3.12,0,0,1,1.36-1.05,7.17,7.17,0,0,0,4.63-5.2A7.22,7.22,0,0,1,257.06,463.9Z"/><path class="cls-11" d="M321.42,223.29a26,26,0,0,1-12.55,4.36c-5.4.62-10.71,1.58-15.5,4.42a3.52,3.52,0,0,1-3.87.22,17.37,17.37,0,0,1,1.18-1.34,81.63,81.63,0,0,1,13.74-10.36,9.77,9.77,0,0,1,7.71-1.29c2.78.72,5.61,1.25,8.06,2.86A11.29,11.29,0,0,1,321.42,223.29Z"/><path class="cls-21" d="M249.34,456.85a4.16,4.16,0,0,0-4.27,1.48c-1.67,1.76-3.38,1.29-5.17.48a2,2,0,0,1-1.36-2.52c.6-2.4,1.31-4.77,2.13-7.1.36-1,1.26-1.27,2.25-.7a8.63,8.63,0,0,1,1.8,1.48c1.37,1.4,2.71,2.84,4,4.28a8.66,8.66,0,0,0,4.05,2.64,2.23,2.23,0,0,1,1.94,2.52,4.07,4.07,0,0,0,.27,1.73c.93,2.44-.26,4.33-1.62,6.1a3.44,3.44,0,0,1-3.74,1.13,7.29,7.29,0,0,1-4.84-4,3.21,3.21,0,0,1,.49-3.83,20.49,20.49,0,0,1,2.71-2.22C248.51,458,249.32,457.95,249.34,456.85ZM248,464l3.65-4.76c-2.41-.52-3.5-.13-4.23,1.45S247,463.21,248,464Z"/><path class="cls-20" d="M144.29,345l-2.07-7.61a19.37,19.37,0,0,0,1.24-7.08c.1-3.06.48-6.12.76-9.17,0-.23.24-.44.36-.66q1.9,10.15,3.79,20.31a9.66,9.66,0,0,1,.17,1.75c0,2.48,0,5,0,7.45-.93-1.29-1.82-2.61-2.8-3.86A7.52,7.52,0,0,0,144.29,345Z"/><path class="cls-22" d="M165.36,323.66c1.78.4,2.26,2.05,3.07,3.32s1.28,2.72,2,4c2,3.5,4.19,6.92,6.2,10.44a36.28,36.28,0,0,1,2,4.45c.23.58.49,1.26-.21,1.78a56.31,56.31,0,0,1-3.94-4.34c-3.82-5.16-6.94-10.69-8.41-17C165.89,325.41,165.61,324.54,165.36,323.66Z"/><path class="cls-21" d="M259.45,468.77c1.51,1,2.8,1.82,4.12,2.63a2.57,2.57,0,0,1,.73,3.43,4.27,4.27,0,0,1-4.56,1.91,3.48,3.48,0,0,1-2.61-3.49A4.44,4.44,0,0,1,259.45,468.77Z"/><path class="cls-21" d="M261.78,466.38c0-.16,0-.29,0-.42.08-1.31.89-2.84,1.64-2.88,1.21-.05,1.8.89,2.33,1.79a11.92,11.92,0,0,1,1,1.91,2.55,2.55,0,0,1-1.17,3,2.09,2.09,0,0,1-2.62-.64A3.45,3.45,0,0,1,261.78,466.38Z"/><path class="cls-21" d="M256.72,459.28a5.7,5.7,0,0,1,.13-.81c.28-1,.9-1.29,1.76-.76a4.29,4.29,0,0,1,2.08,3.18,1.55,1.55,0,0,1-2.31,1.63A3.22,3.22,0,0,1,256.72,459.28Z"/><path class="cls-21" d="M288.7,467.74l.33,1.2Z"/><path class="cls-21" d="M289.09,469.31l.32,1.21Z"/><path class="cls-3" d="M139.75,332.61l.66-.59.22.2-.59.71Z"/><path class="cls-21" d="M292.4,490.6l.13.49a2.27,2.27,0,0,1-.18-.32S292.38,490.66,292.4,490.6Z"/><path class="cls-21" d="M289.62,471.7l.17.45Z"/><path class="cls-21" d="M292.84,493.77l.1.42a1.82,1.82,0,0,1-.16-.27S292.82,493.82,292.84,493.77Z"/><path class="cls-21" d="M288.32,466.17l.22.67Z"/><path class="cls-21" d="M292.26,489.39a1.64,1.64,0,0,1,.15.26s-.07.08-.11.12A.32.32,0,0,1,292.26,489.39Z"/><path class="cls-21" d="M289.88,472.85a1.71,1.71,0,0,1,.16.25s-.07.08-.11.12Z"/><path class="cls-21" d="M290.12,474.11a.58.58,0,0,1,.08.37,1.59,1.59,0,0,1-.14-.24S290.09,474.15,290.12,474.11Z"/><path class="cls-21" d="M292.08,487.88l.08.38A1.65,1.65,0,0,1,292,488S292.06,487.93,292.08,487.88Z"/><path class="cls-21" d="M291.63,484.7l.12.46a2,2,0,0,1-.18-.29S291.61,484.76,291.63,484.7Z"/><path class="cls-21" d="M291.23,481.55l.13.47a2.15,2.15,0,0,1-.17-.3S291.21,481.61,291.23,481.55Z"/><path class="cls-21" d="M291.06,480.33a1.72,1.72,0,0,1,.16.26s-.07.08-.11.12Z"/><path class="cls-21" d="M290.46,476.44l.12.43a1.92,1.92,0,0,1-.17-.28S290.44,476.49,290.46,476.44Z"/><path class="cls-21" d="M290.27,475.21a1.72,1.72,0,0,1,.16.26s-.07.08-.11.12Z"/><path class="cls-11" d="M143.8,306.35l.4.4Z"/><path class="cls-21" d="M287.67,463l.15.46Z"/><path class="cls-21" d="M287.9,464.19a1.74,1.74,0,0,1,.16.26s-.07.08-.11.12Z"/><path class="cls-23" d="M395.8,352.77c5.95,9.09,11.71,17.9,17.49,26.71,0,.07.24.05.47.09a4.54,4.54,0,0,0,.79-2.88c.32-5.82.58-11.65.91-17.47.08-1.39-.09-2.92,1.27-4a3.68,3.68,0,0,1,.92,2.73c-.11,6.88-.16,13.76-.38,20.64a16.54,16.54,0,0,1-1.72,6.92,16.45,16.45,0,0,1-4.26-3.79q-5.67-8-11.38-16c-.5-.7-.8-1.66-2-1.92a5.54,5.54,0,0,0-.29,1.1c-.28,6-.54,12-.83,18.06,0,.73-.2,1.45-.35,2.48-1.45-.91-2.19-1.87-2.28-3.16-.14-2-.16-4-.18-6.07,0-1.7,0-3.41.09-5.11.13-4.78.26-9.56.43-14.34a16.24,16.24,0,0,1,.43-2.91C395,353.47,395.42,353.22,395.8,352.77Z"/><path class="cls-23" d="M380,351.65c.32.39.61.6.67.86a11.27,11.27,0,0,1,.32,2.13c.2,5.57.37,11.14.56,16.71.08,2.36.21,4.71.3,7.07a4.3,4.3,0,0,1-1.36,3.56,6.91,6.91,0,0,1-.61-.57c-1.34-1.64-2.14-1.9-4.07-1.13s-3.62,1.53-5.42,2.31a6.27,6.27,0,0,1-6.36-.25,8.5,8.5,0,0,1-4.18-6.33c0-.39,0-.79-.05-1.18-.12-4.65-.2-9.31-.39-14-.08-2-.44-4-.55-6.06a9.62,9.62,0,0,1,.33-2.67c.06-.28.54-.46.82-.69.22.28.57.54.63.86.28,1.48.56,3,.69,4.47.46,5.29.85,10.58,1.28,15.86a15,15,0,0,0,.36,2.71,5.79,5.79,0,0,0,6.47,4.53,38,38,0,0,0,5.77-1.15,4.48,4.48,0,0,0,3.68-4.31c.06-.91.17-1.83.18-2.74,0-5.31,0-10.63.06-15.94A9,9,0,0,1,380,351.65Z"/><path class="cls-24" d="M345.6,350.87l.83,2.3c-1.89.25-3.63.52-5.37.72-2.86.32-5.73.6-8.59.9a7.8,7.8,0,0,0-1.17.16,2.47,2.47,0,0,0-2.19,2.81c0,2,.1,3.93.18,5.9,0,1.18.15,2.35.19,3.53.08,2.07.46,2.48,2.61,2.52,2.56.05,5.12,0,7.67.12a11.75,11.75,0,0,1,2.81.71c.19.06.29.37.44.58-.52.91-1.44.74-2.14.86-2.9.5-5.82.89-8.74,1.28-2.39.33-3,1-2.57,3.39.27,1.68.66,3.33,1,5a9.78,9.78,0,0,1,.19,1.56c.05,1.81-.55,2.29-2.65,2.08-.12-1.34-.31-2.69-.36-4.05-.2-5-.48-10.08-.48-15.12,0-3.73.44-7.45.61-11.18.1-2.21,1.23-2.61,2.84-2.83,1.29-.18,2.61-.2,3.91-.31Z"/><path class="cls-24" d="M431,380.36c0-4.19,0-8.38,0-12.56,0-3.47-.18-6.93-.24-10.4,0-2.32.52-2.88,2.88-2.92,2.95,0,5.9-.17,8.84,0,5.66.24,9.63,3,11.68,8.36a22.16,22.16,0,0,1,1.17,4.15c.63,3.67.68,7.32-1.22,10.7-2.18,3.89-5.34,6.43-10,6.71-2.67.16-5.34.14-8,.25-1,0-2.08.18-3.12.3-1.4.16-2.09-.34-2.22-1.79-.08-.91,0-1.83,0-2.75Zm2.73-24.5a14,14,0,0,0-.36,2.1q0,11.19,0,22.38c0,1.56.34,2,1.84,2.3,6.86,1.54,12.73-1.61,16.14-7,3-4.85,1.87-14.84-7-17.2C441,357.48,437.57,356.75,433.78,355.85Z"/><path class="cls-23" d="M465.49,351.06c1-.1,1.88-.23,2.71-.25,1.43,0,1.86.35,2,1.84.14,2.28.23,4.57.28,6.86q.27,11.48.5,23c0,.39,0,.79,0,1.18,0,1.79-.41,2.19-2.17,2.14-1.6,0-1.91-.35-1.84-2,.06-1.37.32-2.74.28-4.11-.13-4.51-.26-9-.57-13.52s-.83-8.85-1.24-13.28A15,15,0,0,1,465.49,351.06Z"/><path class="cls-22" d="M127.17,242.29a2.32,2.32,0,0,1-.38,3c-1.14,1.24-2.23,2.54-3.41,3.74-1.52,1.54-3,3-3.42,5.32,0,.28-.36.52-.54.78a16.69,16.69,0,0,1,2.59-9.26A8.1,8.1,0,0,1,127.17,242.29Z"/><path class="cls-11" d="M126.48,280l-.39-1.18h0l.39,1.18Z"/><path class="cls-11" d="M126.87,280.77l-.4-.79h0l.39.79Z"/><path class="cls-13" d="M258.69,222.91c.19.73.37,1.46.57,2.19a38.61,38.61,0,0,1,1.48,12,25.68,25.68,0,0,0,.37,3.49,44.08,44.08,0,0,0,.44,5,46.8,46.8,0,0,0,1.82,6.17,14.53,14.53,0,0,0,2.85,4.86,15,15,0,0,1,2.22,3.45c1.44,3,3.59,5.42,5.41,8.12,3.45,5.14,5.22,10.66,2.65,16.81-.58,1.38-1.1,2.79-1.72,4.16a2.51,2.51,0,0,0,.07,2.26c-.29.12-.73.15-.85.37a7.1,7.1,0,0,1-5.45,3.67,2.52,2.52,0,0,0-2.37,1.78,18.92,18.92,0,0,0-8.62,4.37c-2.14,0-3.13-.73-3.06-2.59a6.1,6.1,0,0,1,1.07-2.62,13.92,13.92,0,0,1,1.55-1.76,3.47,3.47,0,0,0,.38-4.18c-.33-.63-.74-1.21-1.11-1.82l-.39-2-.83-.08c-1.69.95-2.37,2.7-3.4,4.18-.36.53-.75,1-1.13,1.55.08-2.14.22-4.28.21-6.42a5.57,5.57,0,0,1,1.09-4,2.29,2.29,0,0,0,.48-1,37.53,37.53,0,0,0,.35-9.95c-.28-3.74-1-7.46-1.56-11.17A24.39,24.39,0,0,0,250,255.6a11.62,11.62,0,0,0-1.16-2h1.84a2.59,2.59,0,0,0-1-2.42c-.3-.57-.57-1.17-.9-1.72-1.66-2.72-3.33-5.42-5-8.14l.33-1.94a11.68,11.68,0,0,1,.89,1c1.43,2,2.81,4.1,4.26,6.11a4.23,4.23,0,0,0,2.6,2.18,5.37,5.37,0,0,0-.75-2.69c-.94-1.72-2-3.39-2.89-5.12a14.46,14.46,0,0,0-8.48-7.41c-.35-.66-.67-1.35-1.06-2s-.87-1.22-1.3-1.83c2.89.38,5.78.78,8.68,1.12,3.16.38,6.35.59,9.29,2a8.05,8.05,0,0,0,1.6.38c.07-.7.1-1.21.18-1.7C257.69,228.64,258.19,225.78,258.69,222.91Z"/><path class="cls-25" d="M290.51,251.65c.81-1.08,1.62-2.16,2.45-3.23.39-.51.83-1,1.25-1.47,1.83-1.58,3.68-3.13,5.48-4.74a14,14,0,0,1,7.87-3.16c5.6-.74,10.56,1,15.23,3.92.22.14.52.28.6.49.8,2.12,1.68,4.22,2.29,6.4.31,1.09-.63,1.42-1.61,1.39l-2.33-.73c-.29-.77-.95-.84-1.64-.85,0-3.12-1-4.75-3.34-5.13a16.92,16.92,0,0,1-5.16,7.55c-3.54.52-7.06.9-10.4-.91a25.22,25.22,0,0,0-2.46-6.39,61.62,61.62,0,0,0-6.65,6.51Zm13.89-8.82c-.57.7-1.09,1.07-1.07,1.4a1.51,1.51,0,0,0,.89,1c.17.07.82-.46.86-.77S304.77,243.64,304.4,242.83Z"/><path class="cls-26" d="M258.69,222.91c-.5,2.86-1,5.73-1.49,8.6-.08.5-.11,1-.18,1.7a8.05,8.05,0,0,1-1.6-.38c-2.94-1.44-6.13-1.65-9.29-2-2.9-.34-5.79-.75-8.68-1.12A39.23,39.23,0,0,0,224,224.32a19.24,19.24,0,0,0-5.43-.5,43.92,43.92,0,0,0-6.27,1.53l-8.61,2.42c-1.62.46-3.23,1-5,.52-.46-.92.33-1.47.56-2.16,3.41-3.24,7.56-5.35,11.6-7.63,2-1.12,3.9-2.46,6.24-2.75a14.93,14.93,0,0,1,3.48-.05c4.67.52,9.32,1.24,14,1.66a33.89,33.89,0,0,0,14.43-2.2,3.9,3.9,0,0,1,4,.68c2,1.45,4.09,2.84,5.36,5.08l.33.46Zm-56.15,2.6.24.47c3.76-1,7.52-2,11.27-3.08a20.75,20.75,0,0,1,11.34-.37,48.17,48.17,0,0,1,10.28,3.77,21.09,21.09,0,0,0,7.37,2.51c3.68.47,7.36.9,11,1.43.94.14,1.34-.1,1.5-1a25.17,25.17,0,0,1,.76-3.63c1.09-3.23-.43-5.39-2.8-7.25-.41-.32-.85-.61-1.25-.94a2.94,2.94,0,0,0-2.9-.55,60,60,0,0,1-12.11,2.06,54.91,54.91,0,0,1-12.87-.85A19.63,19.63,0,0,0,212,219.75c-2.62,1.31-5.07,3-7.58,4.49C203.78,224.63,203.17,225.09,202.54,225.51Z"/><path class="cls-27" d="M291.84,246.34a8.34,8.34,0,0,1,1.09-2.2c1.38-1.47,2.92-2.79,4.39-4.18l.4-.52v.06a4.22,4.22,0,0,0,1-.6c2.36-2.54,5.4-3.5,8.72-4.06a30.51,30.51,0,0,1,11.31.27c4.16.85,6.78,3.5,8.19,7.41a5.61,5.61,0,0,1-.4,4.58c-.89-.11-1-.94-1.31-1.52-.77-1.36-1.4-2.81-2.27-4.1-2.11-3.13-5.26-4.56-8.88-5.22a21.67,21.67,0,0,0-9.34.53,9.5,9.5,0,0,0-2.95,1.48,42.63,42.63,0,0,0-7.85,7.12C293.41,246,292.9,246.82,291.84,246.34Z"/><path class="cls-11" d="M266.16,297.25a2.52,2.52,0,0,1,2.37-1.78A7.1,7.1,0,0,0,274,291.8c.12-.22.56-.25.85-.37a7.59,7.59,0,0,0,6.9,7,7.12,7.12,0,0,1,3.37,1.28c-.67.6-1.36,1.17-2,1.81a8.11,8.11,0,0,1-8.18,2.23,37.2,37.2,0,0,0-4.4-.52l1.19-1.16a4.65,4.65,0,0,1,1-.11,4.64,4.64,0,0,0,3.81-1.07c-2-2.29-4.13-3.7-7.07-3.58C268.38,297.32,267.27,297.26,266.16,297.25Z"/><path class="cls-28" d="M270.53,303.2a37.21,37.21,0,0,1,4.4.52,8.11,8.11,0,0,0,8.18-2.23c.63-.64,1.33-1.21,2-1.81l3.58-3.49h3.06l.46,2.72c-2.14,1.76-4.24,3.59-7.27,3.57-.21,0-.42.24-.63.37a2.77,2.77,0,0,0-2.42,1.07c-.86.89-1.62,1.88-2.43,2.82l-.28.41h0a11.8,11.8,0,0,0-1.62.65,2.58,2.58,0,0,1-2.94,0,4.43,4.43,0,0,0-.9-.35l-.4-.36v0l-.25-.38-3.18-2.06A1.12,1.12,0,0,1,270.53,303.2Z"/><path class="cls-13" d="M291.74,296.18h-3.06l.83-3.68c1.06.77,1.42,0,1.84-.8s.11-1.74,1.23-1.93c.47,1,1,2.07,1.39,3.15.51,1.43.9,2.9,1.34,4.35-.79-.21-1.58-.4-2.36-.64C292.54,296.53,292.15,296.34,291.74,296.18Z"/><path class="cls-4" d="M292.59,289.78c-1.12.19-.86,1.26-1.23,1.93s-.78,1.57-1.84.8a5.17,5.17,0,0,1,.25-1.31,11.36,11.36,0,0,0,.44-7.93,20.84,20.84,0,0,1-.31-2.07c2.06,1.28,1.89,3.49,2.28,5.45.17.86.28,1.72.41,2.58Z"/><path class="cls-4" d="M317.37,256.33l-.29-.67c1.63-1,3.21-2.08,4.83-3.07a2.53,2.53,0,0,1,.93-.14l-.33,1.2-1.23,1.13Z"/><path class="cls-19" d="M321.29,254.77l1.23-1.13C322.58,254.53,322.18,254.91,321.29,254.77Z"/><path class="cls-13" d="M283.53,268.57l-.17-.09.16.1Z"/><path class="cls-13" d="M258.69,221.39l-.33-.46Z"/><path class="cls-28" d="M126.87,280.77l-.39-.79-.39-1.18a55.61,55.61,0,0,0-1.94-10.94,52.21,52.21,0,0,1-1.2-7.11c-.19-1.29-.3-2.59-.37-3.89-.09-1.72,0-3.52,1.1-4.87,1.68-2,3.47-4,6.17-4.67a9.16,9.16,0,0,1,6.33.27c2.08.94,4.22,1.79,6.26,2.8,1.75.87,2,1.64,1.86,3.59a2.79,2.79,0,0,0,.49,1.6c1.32,2,2.66,4,4.1,6a5.29,5.29,0,0,1,.57,5.89,17.57,17.57,0,0,0-1.38,3,7.84,7.84,0,0,0-.07,2.83,5.41,5.41,0,0,0,.7,1.82,8.83,8.83,0,0,1,1,5.13,4.49,4.49,0,0,0,1.55,3.84c1.53,1.51,3,3.13,4.37,4.77a7.49,7.49,0,0,1,.85,1.74L154,293.77a7.63,7.63,0,0,1-4.19-2.75,12.71,12.71,0,0,0-7.07-4.33,8,8,0,0,1-4-2.4,26.59,26.59,0,0,1-6.29-11.4,18.66,18.66,0,0,1-.22-4.65.72.72,0,0,1,.86-.81c-.35,4.38,1.21,8.18,3.49,11.78a11.28,11.28,0,0,0,7.26,6.59c1.53.52,3.15.76,4.73,1.12a1.77,1.77,0,0,0,2-.7l-1.34-1.15-.42-.35h0a36.48,36.48,0,0,1-.36-4.26,12.82,12.82,0,0,0-2.11-7.2,30.43,30.43,0,0,1-1.6-3.75,1.35,1.35,0,0,1,.87-2c1.83-.58,2.36-2,2.39-3.63s-1.13-2.89-2.41-4.08l-1.89,2a12.1,12.1,0,0,0-2.46,4.51,19.34,19.34,0,0,1-1.18,2.61c-.92.13-1.23-.34-1-1.14.33-1.11.74-2.2,1.17-3.28a2.47,2.47,0,0,0,0-2.58c-.68-.87-1.59-.27-2.33,0-1.14.44-2.22,1-3.33,1.53a2,2,0,0,1,1-1.89c.8-.61,1.68-1.11,2.52-1.66l6.25-1.78-2.19-4.93a15.42,15.42,0,0,0-6-3.58l-1.83-.76c-1.15.92-.91,2-.93,3-.11,6.57.65,4.74-2.37,10.88-.79,1.61-1.29,3.37-1.93,5.05-.22.94-.49,1.87-.67,2.82-1.33,7.16,1.42,12.88,6.79,17.25,2.67,2.17,6.09,3.43,9.17,5.11.36.53.68,1.08,1.07,1.59a6.8,6.8,0,0,1,1.2,5.57c0,.21-.3.39-.64.78a18.49,18.49,0,0,1-1.59-1.7c-1.23-1.69-2.31-3.5-3.61-5.13a7.39,7.39,0,0,0-2.67-2.21,24.28,24.28,0,0,1-5.18-3.48A25.84,25.84,0,0,1,126.87,280.77ZM128,250.49a19.63,19.63,0,0,0-3.12,2.27,4.2,4.2,0,0,0-1.13,2.62,84.51,84.51,0,0,0,.49,9.39,31,31,0,0,0,1.48,5.12h.47c.21-.59.46-1.17.63-1.77.66-2.32,1.29-4.65,1.93-7l3.72-12.61A8.39,8.39,0,0,0,128,250.49Z"/><path class="cls-22" d="M138.26,259.9c-.84.55-1.72,1.05-2.52,1.66a2,2,0,0,0-1,1.89l-1.53,4a.72.72,0,0,0-.86.81,18.66,18.66,0,0,0,.22,4.65,26.59,26.59,0,0,0,6.29,11.4,8,8,0,0,0,4,2.4,12.71,12.71,0,0,1,7.07,4.33,7.63,7.63,0,0,0,4.18,2.75l1,3.29-3.33-.56a17.7,17.7,0,0,0-3.11-2.43,20.86,20.86,0,0,0-4.05-1.07c-3.08-1.67-6.5-2.93-9.17-5.11-5.37-4.37-8.12-10.09-6.79-17.25.18-1,.44-1.88.67-2.83.55-.63,1.33-1.18,1.59-1.91a13.59,13.59,0,0,1,3-4.25c1.06-1.24,2.6-1.52,4-2.09C137.92,259.54,138.12,259.78,138.26,259.9Z"/><path class="cls-29" d="M151.72,296.5l3.33.56-1-3.29,2.42-3.13c2.36.31,3.65,2,4.55,3.9a2.33,2.33,0,0,0,2.55,1.59,14.25,14.25,0,0,1,2.16,0c1.47.14,2.09,1.18,1.4,2.48a11.41,11.41,0,0,1-1.45,1.82c-.8,1-.86,1.47,0,2.37a5.54,5.54,0,0,1,1.64,2.61,2.78,2.78,0,0,1-.88,2.85,2.33,2.33,0,0,1-2.58.22c-.77-.3-1.51-.68-2.41-1.1-.29,1.1-.46,2-.76,2.81-.51,1.39-1.28,2.78-2.91,2.79s-2.36-1.4-2.93-2.77c-.07-.18-.1-.38-.17-.56-.64-1.84-.78-1.91-2.69-1.5-.19,0-.38.12-.57.14-1.15.13-2.77-.5-3.11-1.29a2.51,2.51,0,0,1,.69-2.87,1.73,1.73,0,0,0,.12-2.59A3.16,3.16,0,0,1,151.72,296.5Zm5.71,15.1c2.45-1.88,3.05-3.35,2.31-5.11l-3.58.18A6.8,6.8,0,0,0,157.43,311.59Zm-.59-14.35c.45-.05.65-.05.83-.1,2.42-.61,2.74-1.67,1.06-3.56a3.68,3.68,0,0,0-.41-.42,1.6,1.6,0,0,0-2.67,1.58A23.75,23.75,0,0,0,156.85,297.24Zm-.57,5.31c.52.66.84,1.43,1.38,1.63s1.22-.26,1.68-.62a3.4,3.4,0,0,0,.69-1.36,1.39,1.39,0,0,0-.25-1.78,1.49,1.49,0,0,0-2,0A11.58,11.58,0,0,0,156.28,302.55ZM155.11,301l.36-1.53c-2.47-1.75-3.51-1.9-4.86-.76C151.59,300.59,152.84,301.25,155.11,301Zm6.46-3.05a5.29,5.29,0,0,0,.32,1.62,1.56,1.56,0,0,0,1.14.74,3.18,3.18,0,0,0,2.64-2.8C163.59,296.83,163.36,296.85,161.57,298Zm4.24,8.24a6.53,6.53,0,0,0-4-4.11C161.05,304.85,162.75,306.57,165.81,306.19Zm-10.57-1.67c-2.11-1.93-4.7-1-5.35,1.76C152,306.59,153.62,305.74,155.25,304.52Zm2.58-6.27v.58c.59,0,1.28.38,2-.78Z"/><path class="cls-26" d="M159.71,290c-.06-.36-.14-.73-.18-1.09a8,8,0,0,0-2.63-5.49,4.64,4.64,0,0,1-1.16-1.31,9.61,9.61,0,0,1-.56-1.86l.39-.19c1.14,1.2,2.33,2.37,3.42,3.62,1.27,1.45,1.37,3.33,1.67,5.11.07.4-.26.87-.41,1.31Z"/><path class="cls-12" d="M269.88,304.67l3.18,2.06.26.38v0a.7.7,0,0,0,0,.39,10.66,10.66,0,0,1-.77,4,9.84,9.84,0,0,0-.69,4,19.18,19.18,0,0,0,3.5,9,7.36,7.36,0,0,1,1.48,4.37,7.1,7.1,0,0,1-2.54.62,73.67,73.67,0,0,1-8-1.63,11.46,11.46,0,0,0-6.72.15c-3.41,1.09-6.88,2-10.34,3-2.44.67-4.9,1.25-7.35,1.87l-.48.24-1.15.15a4.76,4.76,0,0,1-.23-1.86c.85-2.67,1.9-5.28,2.74-8,.7-2.23,1.27-4.51,1.77-6.79.39-1.76-.5-3.32-1.15-4.89-1.33-3.21-2.73-6.35-5.49-8.69a5.88,5.88,0,0,0-4.24-1.71,87.74,87.74,0,0,0-8.72,1,38.89,38.89,0,0,1-8,.54,5.66,5.66,0,0,1-1.71-.39c-2.39-.87-4.73-1.88-7.16-2.63a13.1,13.1,0,0,1-7.63-6.68c-1.9-3.49-3.25-7.28-5-10.88-.89-1.87-2-3.64-3.06-5.43-1.66-2.81-3.44-5.56-5-8.43s-1.66-6.14-1.47-9.37a1.19,1.19,0,0,1,.18-.55c2.22-3.44,4.55-6.66,8.92-7.7,2.4-.57,4.68-1.64,7-2.43,1.15-.39,2.34-.66,3.51-1l3.52.13,0,1.43-1.59.15,1.19,1.07a6.2,6.2,0,0,0,.5,1.44,24.67,24.67,0,0,0,3.46,3.93c3.52,3.52,7.85,4.64,12.62,4.86a28.26,28.26,0,0,0,7.72-1.05,14.09,14.09,0,0,0,5.12-2.32c2.29-1.7,4.44-3.57,7.19-4.52l3.55,1.18a11.61,11.61,0,0,1,1.16,2,24.39,24.39,0,0,1,1.15,4.12c.6,3.71,1.27,7.43,1.56,11.17a37.53,37.53,0,0,1-.35,9.95,2.29,2.29,0,0,1-.48,1,5.57,5.57,0,0,0-1.09,4c0,2.14-.13,4.28-.21,6.41a46,46,0,0,0-1.3,5.07,7.15,7.15,0,0,0,3.29,7.62,10.94,10.94,0,0,0,5.33,1.74l5.3,2.56c.52-.81.8-1.72,1.39-2.07C266.31,306.26,268.12,305.51,269.88,304.67Z"/><path class="cls-12" d="M279.47,306.73c.8-.94,1.57-1.93,2.43-2.82a2.77,2.77,0,0,1,2.42-1.07l.73.37.4.82c3.53,1.57,6.69.74,9.6-1.53.51-.4,1-.83,1.47-1.25.27.86.51,1.73.81,2.59,1.23,3.49,2.16,7.08,3.82,10.45a75.79,75.79,0,0,1,3.19,8.82c.3.86.51,1.75.78,2.63a6.87,6.87,0,0,1-.48,4.9,30.72,30.72,0,0,1-4.62,7.23,10.26,10.26,0,0,0-1.47-2,38.23,38.23,0,0,0-4.38-3.27c-4.25-2.64-9.06-3.93-13.77-5.44-1.74-.65-2.55-2.09-3.16-3.7a18.78,18.78,0,0,1-1.19-8l.78-1.58h0l.22-.39.19-.74.26-.44.23-1,1.47-4.05h0Z"/><path class="cls-12" d="M269.34,363.15c2.44.34,4.89.66,7.33,1a43.53,43.53,0,0,0,9.14.82c1.11-.06,2.23-.05,3.34,0a2.27,2.27,0,0,1,2.26,2.23,7.77,7.77,0,0,1-1.83,5.24c-1.63,2.27-3.49,4.38-5.3,6.52a6.25,6.25,0,0,1-4.21,2.2,29.65,29.65,0,0,1-10.23-.71c-1.45-.32-3-.12-4.45-.51a21.24,21.24,0,0,1-11.58-7.54,10.3,10.3,0,0,0-1.61-1.65c-1.69-1.39-1.82-3.2-.2-4.71a6.52,6.52,0,0,1,4.44-1.83,43.82,43.82,0,0,0,8.56-.74,22.07,22.07,0,0,1,4.31,0Z"/><path class="cls-26" d="M280.39,327.14c4.71,1.51,9.52,2.8,13.77,5.44a38.23,38.23,0,0,1,4.38,3.27,10.26,10.26,0,0,1,1.47,2,4.23,4.23,0,0,1-1.93,2.36c-1.63.42-3.27.8-4.88,1.29-.42.13-.72.64-1.08,1a4.51,4.51,0,0,0-2.59.06,16.1,16.1,0,0,1-2.8.39l-2-.86-.49-.19-1.48-.11c-1.26-1.2-2.68-.66-4-.3a19.49,19.49,0,0,1-9.61.26c-.87-.2-1.73-.45-2.59-.67a.79.79,0,0,1-.29-.08l-.88-.3-2.26-.14-.41,0-.8-.1h-.74l-1.23.06a1.08,1.08,0,0,0-1.54.06l-3.54.15h-1.19c-1.64-.05-3.27-.06-4.9-.17-3.19-.22-6.37-.49-9.56-.74-.59,0-1.18,0-1.76-.09a20.72,20.72,0,0,0-7.08.73,9.64,9.64,0,0,0,1,1.21c1.91,1.68,3.87,3.31,5.78,5a30.77,30.77,0,0,0,7.91,5c1.43.64,2.83,1.37,4.23,2.08A46.81,46.81,0,0,0,269,358.37c4.45.15,8.67-.94,12.91-2a3.15,3.15,0,0,0,1,0c6-2.32,11.09-5.72,13.61-12,.34-.84.79-1.64,1.19-2.45.91.1.85.74.62,1.3a37.83,37.83,0,0,1-1.91,4.3c-2,3.64-4.55,6.87-8.34,8.87a14.92,14.92,0,0,1-2.68,1.17c-5.54,1.63-11.18,3-17,2.37a74.15,74.15,0,0,1-13.3-2.17c-3.91-1.14-7.55-3.27-11.24-5.1a31.36,31.36,0,0,1-7.57-4.86c-1.2-1.11-2.47-2.14-3.74-3.17-.7-.56-1.46-1-2.2-1.55-.51-.48-1-1-1.53-1.43-1.85-1.49-2-2.54-.2-4.09a8,8,0,0,1,2.17-1.19c.75-.33,1.56-.53,2.34-.79a21.16,21.16,0,0,0,7.08-2.33l1.15-.15.48-.24c2.45-.62,4.91-1.2,7.35-1.87,3.46-.95,6.92-1.87,10.34-3a11.46,11.46,0,0,1,6.72-.15,73.67,73.67,0,0,0,8,1.63,7.1,7.1,0,0,0,2.54-.62C278.45,327.22,278.45,327.22,280.39,327.14Zm15,11.53,1.36-1.26a24.14,24.14,0,0,0-2.82-2.7,50.12,50.12,0,0,0-12.62-5.82,2.41,2.41,0,0,0-2.54.54,6.6,6.6,0,0,1-6.22,1.49c-2.29-.53-4.56-1.11-6.82-1.76a8.18,8.18,0,0,0-4.82-.11c-2.55.81-5.08,1.69-7.62,2.54a51.85,51.85,0,0,0-10.14,3.6,4.8,4.8,0,0,0-2.52,2.53,5.26,5.26,0,0,0,1.31.48c2.74.16,5.48.32,8.22.39,2.56.07,5.12.07,7.67,0,1.43,0,2.85-.27,4.28-.33,2-.09,4.07-.33,6,.69,3,1.6,6.17,1.46,9.37.94,2.06-.33,4.13-1,6.16,0a12.13,12.13,0,0,0,6.57.62C292,340.33,294,340.39,295.36,338.67Z"/><path class="cls-25" d="M209.11,247.44l-3.52-.13c-.23-.84.17-1.3.9-1.64,1.16-.53,2.29-1.12,3.43-1.68.94-.45,1.9-.87,2.82-1.36a54.67,54.67,0,0,1,17.67-6.08c5.3-.8,10,.23,13.44,4.8,1.67,2.71,3.34,5.42,5,8.14.34.55.6,1.15.9,1.72-1,1-1.65-.18-2.45-.36-.07-1.23-.92-1.94-1.74-2.71a11.81,11.81,0,0,1-2.15-2.46,11.72,11.72,0,0,0-3.84-3.83,2.2,2.2,0,0,0-2.41-.29c0,.36-.06.68-.06,1a9.69,9.69,0,0,1-2.87,7.44,4,4,0,0,0-.58,1.18,27,27,0,0,1-9.6.79c0-.07,0-.15,0-.19a20,20,0,0,1-4.09-7.25,1.41,1.41,0,0,0-1.18-.71c-1.91.37-3.84.78-5.26,2.3l-3.19,1.25Zm17.2-5.95c-.51.66-.94,1-1,1.4a.86.86,0,0,0,.91,1.16c.39,0,1-.56,1-.89S226.74,242.26,226.3,241.49Z"/><path class="cls-20" d="M212.31,225.35a43.92,43.92,0,0,1,6.27-1.53,19.24,19.24,0,0,1,5.43.5,39.23,39.23,0,0,1,13.43,5.36c.44.61.91,1.19,1.3,1.83s.71,1.32,1.06,2c-.26,0-.58.1-.77,0-3.16-1.75-6.59-1.23-9.78-.61a62.89,62.89,0,0,0-14,4.3c-2,.92-4,1.81-6.07,2.72,0-1.37.08-2.76,0-4.12a13.75,13.75,0,0,1,2.8-9.55A5.1,5.1,0,0,0,212.31,225.35Z"/><path class="cls-27" d="M209.16,239.9c2-.91,4.05-1.8,6.07-2.72a62.89,62.89,0,0,1,14-4.3c3.19-.62,6.62-1.14,9.78.61.2.11.51,0,.77,0a14.45,14.45,0,0,1,8.48,7.41c.92,1.73,2,3.4,2.89,5.12a5.37,5.37,0,0,1,.75,2.69,4.23,4.23,0,0,1-2.6-2.18c-1.46-2-2.84-4.08-4.26-6.11a11.65,11.65,0,0,0-.89-1,6.72,6.72,0,0,0-4.51-3.49c-1.38-.39-2.78-.75-4.13-1.23a13.28,13.28,0,0,0-7.91-.26c-1.39.36-2.78.73-4.18,1.07a29.7,29.7,0,0,0-14,8.25l-.9.36c-1.5.57-1.52.56-2.43-1.17-1,.4-2,.88-3,1.21s-1.62,1.66-3.19.72a7.18,7.18,0,0,1,1.2-1c1.93-1,3.9-1.84,5.84-2.77C207.7,240.74,208.42,240.3,209.16,239.9Z"/><path class="cls-22" d="M209.43,243.75a29.7,29.7,0,0,1,14-8.25c1.4-.34,2.79-.71,4.18-1.07a13.28,13.28,0,0,1,7.91.26c1.35.48,2.75.84,4.13,1.23a6.72,6.72,0,0,1,4.51,3.49l-.33,1.94c-3.42-4.57-8.14-5.6-13.44-4.8a54.67,54.67,0,0,0-17.67,6.08c-.92.49-1.88.91-2.82,1.36Z"/><path class="cls-11" d="M233.15,335.49c-.78.26-1.59.46-2.34.79a8,8,0,0,0-2.17,1.19c-1.75,1.55-1.65,2.6.2,4.09.54.44,1,.95,1.53,1.43a8.38,8.38,0,0,1-2.13-.84,53.27,53.27,0,0,1-4.79-4,3.67,3.67,0,0,1,.85-5.91,10.79,10.79,0,0,1,5.23-2c1.38-.07,2.7-.93,4.4-.5a6.31,6.31,0,0,1-.45,1.23c-.24.38-.64.65-.91,1C231.6,333.35,231.77,334.25,233.15,335.49Z"/><path class="cls-20" d="M297.73,341.82c-.4.82-.85,1.61-1.19,2.45-2.52,6.29-7.59,9.7-13.61,12a3.15,3.15,0,0,1-1,0,64.61,64.61,0,0,1,5-4.29,18.41,18.41,0,0,0,4.84-5.75,3.77,3.77,0,0,0,.38-3.82c.36-.34.66-.85,1.08-1,1.61-.5,3.25-.87,4.88-1.29Z"/><path class="cls-26" d="M296.52,301.24c-.49.42-1,.85-1.47,1.25-2.92,2.27-6.07,3.1-9.6,1.53.47-.14.93-.31,1.4-.43s1.22-.24,1.82-.35l1.55-.43a5.75,5.75,0,0,0,5.11-5.52c-.44-1.45-.83-2.93-1.34-4.35-.38-1.08-.92-2.1-1.39-3.15v-.55c.4.17.94.24,1.19.54a18.89,18.89,0,0,1,3.77,6.51C298.1,298.13,297.43,299.7,296.52,301.24Z"/><path class="cls-4" d="M261,416.23c1.44.18,1.2.84,1.08,1.5-.55,3.09-1.1,6.18-1.58,9.28a33.4,33.4,0,0,0-.46,4.69C260,437,258.47,442,256.91,447c-.39,1.25-.79,2.49-1.27,3.71a3.51,3.51,0,0,1-2,2.28,3.45,3.45,0,0,1,.12-1.17c3.11-5.47,4.26-11.48,5-17.62C259.52,428.26,260.27,422.3,261,416.23Z"/><path class="cls-9" d="M320.1,249.66c.69,0,1.34.09,1.64.85a11.82,11.82,0,0,1-2.46,1.53,28.64,28.64,0,0,1-9.75,1.86,41.5,41.5,0,0,1-7.34-1,14.46,14.46,0,0,0-8.1.28,7.66,7.66,0,0,1-2.29.46c-1.43,0-1.65-.37-1.3-2l1.58-.36a4.26,4.26,0,0,0,1.2.31c2.64-.11,5.28-.28,7.91-.42,3.33,1.8,6.86,1.42,10.4.91.15.12.3.34.44.33C315,252.27,317.81,251.75,320.1,249.66Z"/><path class="cls-4" d="M290.66,245.73c-1.93,2.08-4,4.09-4.45,7-1.08-.21-1.28-.87-1-1.5.86-2.2,1.92-4.29,4-5.58a4,4,0,0,1,1.18-.29Z"/><path class="cls-12" d="M297.72,239.45l-.4.52Z"/><path class="cls-4" d="M248,464c-1.08-.84-1.26-1.84-.58-3.31s1.82-2,4.23-1.45Z"/><path class="cls-7" d="M433.78,355.85c3.79.9,7.25,1.62,10.65,2.53,8.86,2.36,10,12.35,7,17.2-3.4,5.43-9.27,8.58-16.14,7-1.49-.34-1.83-.74-1.84-2.3q0-11.19,0-22.38A14,14,0,0,1,433.78,355.85Zm4.87,23.55c.34.17.71.53,1,.48,2.28-.37,4.66-.48,6.45-2.25a6.08,6.08,0,0,0,3.74-5.34,13.9,13.9,0,0,0-.27-2.92,10.13,10.13,0,0,0-12.66-7.91c0,1.78,0,3.61,0,5.44,0,3.08,0,6.15.06,9.23C437,377.45,437.18,378.78,438.65,379.4Z"/><path class="cls-28" d="M257.94,306.75a10.94,10.94,0,0,1-5.33-1.74,7.15,7.15,0,0,1-3.29-7.62,46,46,0,0,1,1.3-5.07c.38-.51.77-1,1.13-1.55,1-1.48,1.71-3.24,3.4-4.18l.83.08.39,2a17.79,17.79,0,0,0-4.33,7,11.84,11.84,0,0,0-.74,3.77c0,1.56,1.94,4.36,3.09,4.42,1.56.08,2.36-1.15,3.15-2.27a18.92,18.92,0,0,1,8.62-4.37c1.11,0,2.22.08,3.33,0,2.94-.12,5.08,1.29,7.07,3.58a4.64,4.64,0,0,1-3.81,1.07,4.65,4.65,0,0,0-1,.11,4.8,4.8,0,0,0-4.15,1.19,6.39,6.39,0,0,1-5.83,1.45,9.4,9.4,0,0,0-4,.27Z"/><path class="cls-4" d="M224.05,252a27,27,0,0,0,9.6-.79,27.46,27.46,0,0,0,3.5-.15,16.87,16.87,0,0,1,7.53.11,7.14,7.14,0,0,0,2.61-.29c.81.18,1.47,1.35,2.45.36a2.58,2.58,0,0,1,1,2.42h-1.84l-3.55-1.18a10.94,10.94,0,0,0-5.74-.57,60.27,60.27,0,0,1-15,1.35,19.11,19.11,0,0,1-8.53-2.6c-1.91-1.11-3.85-2.18-5.78-3.26l3.19-1.25a9.9,9.9,0,0,0,6.93,5C221.65,251.32,222.85,251.66,224.05,252Z"/><path class="cls-11" d="M257.54,301.61c-.8,1.12-1.6,2.35-3.15,2.27-1.15-.06-3.13-2.86-3.09-4.42a11.84,11.84,0,0,1,.74-3.77,17.79,17.79,0,0,1,4.33-7c.37.61.78,1.19,1.11,1.82a3.47,3.47,0,0,1-.38,4.18,13.92,13.92,0,0,0-1.55,1.76,6.1,6.1,0,0,0-1.07,2.62C254.41,300.88,255.39,301.59,257.54,301.61Z"/><path class="cls-11" d="M256,286.68l-.83-.08Z"/><path class="cls-10" d="M320.1,249.66c-2.29,2.08-5.12,2.61-8.07,2.75-.14,0-.29-.22-.44-.33a16.92,16.92,0,0,0,5.16-7.55C319.07,244.91,320.09,246.54,320.1,249.66Z"/><path class="cls-10" d="M301.19,251.18c-2.64.15-5.27.31-7.91.42a4.26,4.26,0,0,1-1.2-.31,61.63,61.63,0,0,1,6.65-6.51A25.22,25.22,0,0,1,301.19,251.18Z"/><path class="cls-10" d="M304.4,242.83c.37.8.74,1.23.69,1.6s-.69.84-.86.77a1.51,1.51,0,0,1-.89-1C303.3,243.9,303.83,243.53,304.4,242.83Z"/><path class="cls-11" d="M202.54,225.51c.63-.42,1.24-.88,1.88-1.27,2.52-1.52,5-3.17,7.58-4.49a19.63,19.63,0,0,1,12.39-1.67,54.91,54.91,0,0,0,12.87.85,60,60,0,0,0,12.11-2.06,2.94,2.94,0,0,1,2.9.55c.41.33.84.61,1.25.94,2.37,1.86,3.89,4,2.8,7.25a25.17,25.17,0,0,0-.76,3.63c-.16.89-.57,1.13-1.5,1-3.67-.53-7.35-1-11-1.43a21.09,21.09,0,0,1-7.37-2.51,48.17,48.17,0,0,0-10.28-3.77,20.75,20.75,0,0,0-11.34.37C210.3,224,206.54,225,202.78,226Z"/><path class="cls-19" d="M257.94,306.75l-.2-1.81a9.4,9.4,0,0,1,4-.27,6.39,6.39,0,0,0,5.83-1.45,4.8,4.8,0,0,1,4.15-1.19l-1.19,1.16a1.12,1.12,0,0,0-.65,1.47c-1.76.84-3.57,1.59-5.24,2.57-.6.35-.87,1.26-1.39,2.07Z"/><path class="cls-11" d="M276.81,313.81l-.78,1.58a3.15,3.15,0,0,1-1.9-2.88c-.2-1.65-.31-3.31-.45-5l0-.06a4.47,4.47,0,0,1,.9.35,2.58,2.58,0,0,0,2.94,0,11.8,11.8,0,0,1,1.62-.65l-1.47,4a3.4,3.4,0,0,0-.16-1.14c-.18-.35-.65-.88-.85-.83a1.78,1.78,0,0,0-1,.91,7.54,7.54,0,0,0-.4,1.87C275.12,313.25,275.38,313.54,276.81,313.81Z"/><path class="cls-19" d="M290.21,302.81l-1.55.43-3.62,0-.73-.37c.21-.13.42-.38.63-.37,3,0,5.13-1.8,7.27-3.57,1,.17.88.85.55,1.42a6.19,6.19,0,0,1-1.19,1.21Z"/><path class="cls-11" d="M290.21,302.81l1.36-1.28a6.19,6.19,0,0,0,1.19-1.21c.33-.58.42-1.26-.55-1.42l-.46-2.72c.4.16.8.35,1.21.47.78.23,1.57.43,2.36.64A5.75,5.75,0,0,1,290.21,302.81Z"/><path class="cls-11" d="M273.32,307.51a.7.7,0,0,1,0-.39l.4.36,0,.06Z"/><path class="cls-11" d="M279.47,306.73l-.28.41Z"/><path class="cls-11" d="M273.32,307.11l-.26-.38Z"/><path class="cls-22" d="M149.32,285.07l1.34,1.15a1.77,1.77,0,0,1-2,.7c-1.58-.37-3.2-.61-4.73-1.12a11.28,11.28,0,0,1-7.26-6.59,21.13,21.13,0,0,1,2.82-7.74,8,8,0,0,0,.68-2.55,19.34,19.34,0,0,0,1.18-2.61,12.1,12.1,0,0,1,2.46-4.51c1.51.42,1.77.58,1.57,1.91a10.48,10.48,0,0,1-1.16,3c-1.48,2.91-2.93,5.79-2.8,9.22.13,3.16,1.14,4.67,4.21,5.7,1.08.36,2,.78,2.24,2.15,0,.34.69.6,1.06.9h0Z"/><path class="cls-11" d="M148.9,284.72c-.37-.3-1-.56-1.06-.9-.19-1.37-1.16-1.79-2.24-2.15-3.07-1-4.08-2.54-4.21-5.7-.14-3.43,1.31-6.31,2.8-9.22a10.48,10.48,0,0,0,1.16-3c.21-1.34-.06-1.49-1.57-1.91l1.89-2c1.29,1.18,2.44,2.32,2.41,4.08s-.55,3-2.39,3.63a1.35,1.35,0,0,0-.87,2,30.43,30.43,0,0,0,1.6,3.75,12.82,12.82,0,0,1,2.11,7.2A36.48,36.48,0,0,0,148.9,284.72Z"/><path class="cls-11" d="M140.15,268.92a8,8,0,0,1-.68,2.55,21.13,21.13,0,0,0-2.82,7.74c-2.28-3.6-3.84-7.41-3.49-11.78l1.53-4c1.11-.52,2.19-1.09,3.33-1.53.74-.28,1.64-.88,2.33,0a2.47,2.47,0,0,1,0,2.58c-.43,1.08-.83,2.17-1.17,3.28C138.92,268.57,139.23,269,140.15,268.92Z"/><path class="cls-11" d="M138.26,259.9c-.14-.11-.34-.36-.42-.32-1.4.57-2.94.85-4,2.09a13.59,13.59,0,0,0-3,4.25c-.25.73-1,1.28-1.59,1.91.63-1.69,1.14-3.44,1.93-5.05,3-6.14,2.26-4.31,2.37-10.88,0-1-.22-2.12.93-3l1.83.76c.14,1.41.24,2.82.42,4.22s1,1.75,2.2,1.16,2.26-1.2,3.38-1.8l2.19,4.93Z"/><path class="cls-22" d="M128.79,261.13c-.64,2.33-1.27,4.66-1.93,7-.17.6-.42,1.18-.63,1.77h-.47a31,31,0,0,1-1.48-5.12,84.51,84.51,0,0,1-.49-9.39,4.2,4.2,0,0,1,1.13-2.62,19.64,19.64,0,0,1,3.12-2.27,19.08,19.08,0,0,1,.67,7.44A21.18,21.18,0,0,0,128.79,261.13Z"/><path class="cls-11" d="M128.79,261.13a21.18,21.18,0,0,1-.07-3.2,19.08,19.08,0,0,0-.67-7.44,8.39,8.39,0,0,1,4.46-2Z"/><path class="cls-22" d="M142.32,253.19c-1.13.6-2.24,1.23-3.38,1.8s-2,.15-2.2-1.16-.29-2.81-.42-4.22A15.42,15.42,0,0,1,142.32,253.19Z"/><path class="cls-11" d="M149.32,285.07l-.42-.35Z"/><path class="cls-21" d="M157.43,311.59a6.8,6.8,0,0,1-1.27-4.93l3.58-.18C160.49,308.24,159.89,309.72,157.43,311.59Z"/><path class="cls-21" d="M156.85,297.24a23.75,23.75,0,0,1-1.2-2.49,1.6,1.6,0,0,1,2.67-1.58,3.68,3.68,0,0,1,.41.42c1.68,1.89,1.37,2.95-1.06,3.56C157.49,297.19,157.3,297.19,156.85,297.24Z"/><path class="cls-21" d="M156.28,302.55a11.58,11.58,0,0,1,1.51-2.12,1.49,1.49,0,0,1,2,0,1.39,1.39,0,0,1,.25,1.78,3.4,3.4,0,0,1-.69,1.36c-.46.37-1.24.78-1.68.62S156.8,303.22,156.28,302.55Z"/><path class="cls-21" d="M155.11,301c-2.27.24-3.52-.42-4.5-2.29,1.35-1.14,2.39-1,4.86.76Z"/><path class="cls-21" d="M161.57,298c1.79-1.1,2-1.12,4.1-.44a3.18,3.18,0,0,1-2.64,2.8,1.56,1.56,0,0,1-1.14-.74A5.29,5.29,0,0,1,161.57,298Z"/><path class="cls-21" d="M165.81,306.19c-3.06.38-4.76-1.34-4-4.11A6.53,6.53,0,0,1,165.81,306.19Z"/><path class="cls-21" d="M155.25,304.52c-1.62,1.22-3.25,2.07-5.35,1.76C150.55,303.52,153.14,302.59,155.25,304.52Z"/><path class="cls-10" d="M157.82,298.25l2-.21c-.69,1.16-1.38.76-2,.78Z"/><path class="cls-19" d="M210.32,247.36c1.93,1.09,3.86,2.15,5.78,3.26a19.11,19.11,0,0,0,8.53,2.6,60.27,60.27,0,0,0,15-1.35,10.94,10.94,0,0,1,5.74.57c-2.76.94-4.9,2.81-7.19,4.52a14.09,14.09,0,0,1-5.12,2.32,28.26,28.26,0,0,1-7.72,1.05c-4.77-.23-9.1-1.34-12.62-4.86a24.67,24.67,0,0,1-3.46-3.93,6.2,6.2,0,0,1-.5-1.44l2.42,1.62c-.2-1.69-1.4-2-2-2.84l0-1.43Zm14.87,9.35c2,.71,9.42-.45,11.53-1.73-.27-.2-.49-.51-.72-.51a10.85,10.85,0,0,0-2.32.11c-2.35.44-4.7.93-7,1.44A7.81,7.81,0,0,0,225.2,256.71Z"/><path class="cls-19" d="M273.32,307.51l.36,0c.15,1.66.25,3.32.45,5a3.15,3.15,0,0,0,1.9,2.88,18.77,18.77,0,0,0,1.19,8c.61,1.61,1.42,3.06,3.16,3.7-1.94.08-1.94.08-3.56,1.65a7.36,7.36,0,0,0-1.48-4.37,19.18,19.18,0,0,1-3.5-9,9.84,9.84,0,0,1,.69-4A10.66,10.66,0,0,0,273.32,307.51Z"/><path class="cls-4" d="M209.13,248.88c.63.79,1.82,1.15,2,2.84l-2.42-1.62L207.54,249Z"/><path class="cls-13" d="M241.86,332.77l-.48.24Z"/><path class="cls-28" d="M276.81,313.81c-1.43-.27-1.69-.57-1.5-1.81a7.54,7.54,0,0,1,.4-1.87,1.78,1.78,0,0,1,1-.91c.19-.06.66.48.85.83a3.4,3.4,0,0,1,.16,1.14l-.23,1-.26.44-.19.74-.22.39Z"/><path class="cls-11" d="M285,303.21l3.62,0c-.61.12-1.22.21-1.82.35s-.93.28-1.4.43Z"/><path class="cls-11" d="M276.82,313.81l.22-.39Z"/><path class="cls-11" d="M277.23,312.67l.26-.44Z"/><path class="cls-13" d="M292.13,342.49a3.77,3.77,0,0,1-.38,3.82,18.41,18.41,0,0,1-4.84,5.75,64.61,64.61,0,0,0-5,4.29c-4.24,1.08-8.47,2.18-12.91,2a46.81,46.81,0,0,1-19.86-4.63c-1.4-.71-2.8-1.44-4.23-2.08a30.77,30.77,0,0,1-7.91-5c-1.9-1.69-3.86-3.32-5.78-5a9.64,9.64,0,0,1-1-1.21,20.72,20.72,0,0,1,7.08-.73c.58.06,1.18,0,1.76.09,3.19.24,6.37.52,9.56.74,1.63.11,3.27.12,4.9.17-1,1-1,1.23,0,1.87a19.32,19.32,0,0,1,2.32,1.44,12.88,12.88,0,0,0,5.86,2.94c3.3.7,6.53,1.8,10,1.53,2.07-.16,4.16-.16,6.22-.45a8.57,8.57,0,0,0,3.24-1.19c1.91-1.18,4-2.12,5.51-3.89a16.1,16.1,0,0,0,2.8-.39A4.51,4.51,0,0,1,292.13,342.49Z"/><path class="cls-11" d="M295.36,338.67c-1.33,1.72-3.38,1.65-5.19,1.84a12.13,12.13,0,0,1-6.57-.62c-2-.95-4.11-.3-6.16,0-3.2.52-6.38.66-9.37-.94-1.9-1-3.95-.78-6-.69-1.43.06-2.86.3-4.28.33-2.56.05-5.12.05-7.67,0-2.74-.07-5.48-.23-8.22-.39a5.26,5.26,0,0,1-1.31-.48,4.8,4.8,0,0,1,2.52-2.53,51.89,51.89,0,0,1,10.14-3.6l-.76,2.91c1,1.26,2.45,1.18,3.85,1.17,2.67,0,5.35-.25,8,0,1.94.16,3.43-.2,4.61-1.75,1-1.34,1.15-1.36,3.15-.8l-.25,3.32a5.25,5.25,0,0,0,4.22-.42c1-.48,2-.9,3-1.33a4.32,4.32,0,0,1,3.41.07,15.11,15.11,0,0,0,3.59.74c1,.11,2,0,2.94,0,2.51.08,4.78.67,6.14,3.06C295.23,338.61,295.31,338.63,295.36,338.67Z"/><path class="cls-19" d="M295.36,338.67c-.05,0-.13-.06-.16-.11-1.36-2.4-3.63-3-6.14-3.06-1,0-2,.09-2.94,0a15.11,15.11,0,0,1-3.59-.74,4.32,4.32,0,0,0-3.41-.07c-1,.43-2,.85-3,1.33a5.25,5.25,0,0,1-4.22.42l.25-3.32c-2-.56-2.14-.53-3.15.8-1.18,1.55-2.67,1.91-4.61,1.75-2.65-.22-5.33,0-8,0-1.41,0-2.84.09-3.85-1.17l.76-2.91c2.54-.85,5.07-1.73,7.62-2.54a8.18,8.18,0,0,1,4.82.11c2.26.65,4.54,1.23,6.82,1.76a6.6,6.6,0,0,0,6.22-1.49,2.41,2.41,0,0,1,2.54-.54,50.12,50.12,0,0,1,12.62,5.82,24.14,24.14,0,0,1,2.82,2.7Z"/><path class="cls-12" d="M286.74,342.95c-1.5,1.76-3.6,2.7-5.51,3.89A8.57,8.57,0,0,1,278,348c-2.05.29-4.14.29-6.22.45-3.45.26-6.68-.83-10-1.53a12.88,12.88,0,0,1-5.86-2.94,19.32,19.32,0,0,0-2.32-1.44c-1-.64-1-.84,0-1.87h1.19l3.54-.15,1.54-.06,1.23-.06h.74l.8.1.41,0,2.26.14.88.3a.78.78,0,0,0,.29.08,12.22,12.22,0,0,0,1.37,1.35c2.11,1.53,4.31,2.28,7,1.21a38.1,38.1,0,0,1,5.46-1.45c.8-.19,1.63-.26,2.45-.38l1.48.11.49.19Z"/><path class="cls-11" d="M282.74,341.79c-.82.12-1.65.19-2.45.38a38.1,38.1,0,0,0-5.46,1.45c-2.65,1.07-4.85.32-7-1.21a12.22,12.22,0,0,1-1.37-1.35c.86.23,1.72.47,2.59.67a19.49,19.49,0,0,0,9.61-.26C280.06,341.12,281.48,340.59,282.74,341.79Z"/><path class="cls-11" d="M259.89,340.49l-1.54.06A1.08,1.08,0,0,1,259.89,340.49Z"/><path class="cls-11" d="M266.21,341l-.88-.3Z"/><path class="cls-11" d="M261.86,340.44h0Z"/><path class="cls-11" d="M263.07,340.55l-.41,0Z"/><path class="cls-13" d="M254.81,340.7h0Z"/><path class="cls-11" d="M284.7,342.08l-.49-.19Z"/><path class="cls-10" d="M247.3,250.85a7.14,7.14,0,0,1-2.61.29,16.87,16.87,0,0,0-7.53-.11,27.46,27.46,0,0,1-3.5.15,4,4,0,0,1,.58-1.18,9.69,9.69,0,0,0,2.87-7.44c0-.32,0-.64.06-1a2.2,2.2,0,0,1,2.41.29,11.72,11.72,0,0,1,3.84,3.83,11.81,11.81,0,0,0,2.15,2.46C246.38,248.91,247.23,249.61,247.3,250.85Z"/><path class="cls-10" d="M224.05,252c-1.2-.3-2.4-.64-3.61-.9a9.9,9.9,0,0,1-6.93-5c1.42-1.51,3.35-1.93,5.26-2.3a1.41,1.41,0,0,1,1.18.71,20,20,0,0,0,4.09,7.25S224,251.9,224.05,252Z"/><path class="cls-10" d="M226.3,241.49c.44.77.9,1.23.88,1.67s-.63.85-1,.89a.86.86,0,0,1-.91-1.16C225.36,242.48,225.8,242.15,226.3,241.49Z"/><path class="cls-13" d="M438.65,379.4a24.64,24.64,0,0,0,7.47-1.78c-1.79,1.77-4.17,1.88-6.45,2.25C439.36,379.93,439,379.57,438.65,379.4Z"/><path class="cls-4" d="M225.2,256.71a7.81,7.81,0,0,1,1.44-.68c2.34-.51,4.68-1,7-1.44a10.85,10.85,0,0,1,2.32-.11c.23,0,.45.31.72.51C234.62,256.27,227.24,257.42,225.2,256.71Z"/><rect class="cls-30" x="27.75" y="27.75" width="494.5" height="494.5"/></svg>