<svg xmlns="http://www.w3.org/2000/svg" xmlns:xlink="http://www.w3.org/1999/xlink" viewBox="0 0 1050 350"><defs><style>.cls-1{isolation:isolate;}.cls-2{fill:#d1d3d4;}.cls-3,.cls-5,.cls-6{fill:#fff;}.cls-10,.cls-11,.cls-12,.cls-13,.cls-3,.cls-4,.cls-6,.cls-7{stroke:#141414;stroke-linecap:round;stroke-linejoin:round;}.cls-11,.cls-13,.cls-3,.cls-4{stroke-width:2.5px;}.cls-12,.cls-4,.cls-7,.cls-8,.cls-9{fill:#141414;}.cls-10,.cls-6,.cls-7{stroke-width:3.5px;}.cls-8{font-size:24px;font-family:Montebello-Script, Montebello;}.cls-10,.cls-11{fill:none;}.cls-12{stroke-width:2px;}.cls-13{fill:#f1f2f2;}.cls-14{mask:url(#mask);}.cls-15{fill:#99cc67;opacity:0.3;mix-blend-mode:darken;}.cls-16{filter:url(#luminosity-invert-noclip);}</style><filter id="luminosity-invert-noclip" x="0" y="-8367" width="1050" height="32766" filterUnits="userSpaceOnUse" color-interpolation-filters="sRGB"><feColorMatrix values="-1 0 0 0 1 0 -1 0 0 1 0 0 -1 0 1 0 0 0 1 0" result="invert"/><feFlood flood-color="#fff" result="bg"/><feBlend in="invert" in2="bg"/></filter><mask id="mask" x="0" y="-8367" width="1050" height="32766" maskUnits="userSpaceOnUse"><g class="cls-16"/></mask></defs><title>icon_set</title><g class="cls-1"><g id="Layer_4" data-name="Layer 4"><rect class="cls-2" width="1050" height="350"/><polygon class="cls-3" points="535.73 38 639.86 246.15 431.59 246.15 535.73 38"/><polygon class="cls-4" points="503.47 71.73 596.8 258.28 410.14 258.28 503.47 71.73"/><ellipse class="cls-5" cx="535.16" cy="183.64" rx="58.72" ry="30.16"/><path class="cls-6" d="M608.29,199.29l-13.08-26.5c-.43.77-.88,1.54-1.35,2.3-11.81,19.28-33.68,32.23-58.73,32.23a68.05,68.05,0,0,1-58.55-32.49c-.47-.77-.93-1.56-1.37-2.35L461.94,199.4a113.72,113.72,0,0,0,146.36-.11Z"/><path class="cls-6" d="M452.86,217.8l-11,22.37h40.28A109.79,109.79,0,0,1,452.86,217.8Z"/><path class="cls-6" d="M617.43,217.8a109.79,109.79,0,0,1-29.24,22.37h40.28Z"/><path class="cls-6" d="M556.8,146.24a67.72,67.72,0,0,1,37.06,28.85c.47-.76.92-1.53,1.35-2.3l-19.24-39a70.5,70.5,0,0,0-81.55-.21l-19.2,38.88c.43.79.9,1.57,1.37,2.35a67.68,67.68,0,0,1,37.11-28.66"/><path class="cls-6" d="M561.14,103.79,548.55,78.3a68.35,68.35,0,0,0-13.42-1.12,72.61,72.61,0,0,0-13.59,1.49l-12.36,25a71,71,0,0,1,52,.09Z"/><path class="cls-7" d="M535.22,184.95c14.35,0,26-11.13,26-24.86a24,24,0,0,0-4.41-13.85,70.81,70.81,0,0,0-43.11-.07,24,24,0,0,0-4.45,13.92C509.24,173.82,520.87,184.95,535.22,184.95Z"/><ellipse class="cls-5" cx="530.32" cy="160.38" rx="9.93" ry="9.5"/><text class="cls-8" transform="translate(470.17 304.41)">Furniture</text><circle class="cls-9" cx="869.91" cy="152.59" r="100"/><circle class="cls-3" cx="880.09" cy="141.59" r="100"/><circle class="cls-10" cx="880.09" cy="141.59" r="95"/><path class="cls-4" d="M792.19,112.52s-6.33,20.67-4.13,49c.71,9.16,19.55,16.11,24.44,14.32,10.34-3.79,20.9.85,23.85-1.05-.57-7.15-4.95-12.65-3.34-20.87C834.35,147,809,115.36,792.19,112.52Z"/><path class="cls-11" d="M891.79,161.31c1.23,1.67,3.49,5.79-.52,9.11-2.34,1.93-3.32.93-6.33.61,1.3,2.08,2.08,4.69-.17,7.2-3.57,4-10,2-13.6-.72-1.65-1.24-10.13.35-11-3.23-2.6-11.28,3.59-15.4,5-17.65.88-1.43-4.53,1.57-7.52-4.17-2.27-4.35-.26-7.51,1.06-9.54,2.29-3.53,4.92-2.68,7.73-1.91a9.26,9.26,0,0,1,6.31,4.84c3.57-6.83,10.54-1.89,12.67.6,1.41,1.65,8.21,3,9.35,5.3.83,1.7,1.61,3.73.76,5.46-.55,1.12-2,3.91-3.22,4.2-1.54.37-5.44-2.29-9-4.25"/><path class="cls-11" d="M857.66,152.46c-4.75.43-28.32-.61-33.07-.17"/><line class="cls-11" x1="856.61" y1="169.35" x2="830.07" y2="169.58"/><path class="cls-11" d="M885.19,171.37c-.57-1.62-12.46-.65-11.68-4.3"/><line class="cls-11" x1="876.89" y1="141.64" x2="880.36" y2="108.8"/><line class="cls-11" x1="894.78" y1="151.74" x2="922.38" y2="109.47"/><line class="cls-11" x1="898.64" y1="124.23" x2="888.32" y2="147.6"/><line class="cls-11" x1="905.38" y1="87.73" x2="884.19" y2="143.97"/><line class="cls-11" x1="924.49" y1="83.13" x2="891.79" y2="148.95"/><line class="cls-11" x1="890.48" y1="103.18" x2="880.72" y2="142.31"/><path class="cls-11" d="M859.53,166.78,842,184.39c-4.66-2.72-17,11.17-20.47,15.69,1.59-.22,7,1,8.62.8-.31,1.81-.86,2.78-1.86,6.45,2.79.1,5.5.58,7.93.5a21.51,21.51,0,0,0-2.14,7.56c1.13-.68,5.91-.93,7-1.61.1,1.19,2,6.07,2.07,7.26,2.38-1.41,4.65-3.88,7.24-4.84a26.47,26.47,0,0,0,4.55,5.44c.69.44,3.75-3.78,5.38-4.84.87.6,5.22,5.68,5.59,6,.94-1.48,3.21-5.41,4.72-6.35,1.32,2.27,3.71,5.47,5.28,5.24.23,0,3.74-24-.91-26.16l3-14.15"/><line class="cls-11" x1="859.51" y1="172.32" x2="846.32" y2="189.68"/><line class="cls-11" x1="863.54" y1="176.62" x2="856.25" y2="187.9"/><line class="cls-11" x1="868.88" y1="178.01" x2="858.99" y2="196.75"/><line class="cls-11" x1="874.08" y1="180.27" x2="868.01" y2="197.06"/><polygon class="cls-3" points="881.91 94.17 887.47 115.07 880.36 109.88 872.43 113.35 881.91 94.17"/><polygon class="cls-3" points="893.57 87.71 897.05 109.05 890.48 103.18 882.25 105.86 893.57 87.71"/><polygon class="cls-3" points="908.76 73.68 910.32 95.25 904.3 88.81 895.86 90.74 908.76 73.68"/><polygon class="cls-3" points="905.36 109.95 903.6 131.51 898.63 124.23 890 124.85 905.36 109.95"/><polygon class="cls-3" points="930.26 94.98 927.05 116.37 922.59 108.77 913.93 108.8 930.26 94.98"/><polygon class="cls-3" points="931.72 70.19 929.18 91.67 924.49 84.22 915.83 84.52 931.72 70.19"/><path class="cls-3" d="M871.92,152c1,1.38,1.47,4.53,1.48,6.22-.76.38-6.41-2.41-7.64-3.18-1.85-1.16-1.1-3.31-.69-4.22C866,148.76,870.19,149.6,871.92,152Z"/><path class="cls-3" d="M881.26,149.8c.49,1.29-.46,3.82-1.87,4.34-1.7.63-10.57-3.65-8-5.85C873,146.87,880.64,148.16,881.26,149.8Z"/><path class="cls-3" d="M875.13,159.52c-2.81-1.06-7.45-2.44-9.11-1.76s-1.37,3.37-2.11,4.89c3.24-2.55,9,5.44,12.26,3.62C877,165.81,878.34,160.73,875.13,159.52Z"/><path class="cls-3" d="M859.51,166.78c0,1.47,2.52,3.34,3.92,3.8s3.31-.12,3.67-1.55c.26-1-.6-1.49-2.51-3-1.69-1.3.15-7.77-.31-7.72C863.34,158.46,859.5,163.87,859.51,166.78Z"/><text class="cls-8" transform="translate(844.28 299.55)">Tools</text><circle class="cls-9" cx="169.91" cy="152.55" r="100"/><circle class="cls-3" cx="180.09" cy="141.55" r="100"/><circle class="cls-10" cx="180.09" cy="141.55" r="95"/><path class="cls-12" d="M238.32,194.58c-6.15-5.89-31.27-5.16-36.4-28.64,0,1.74-.78,21.66-4.42,25.76-5,5.63,10.75,31.65,10.93,39.19l21.33-7.67,14.33-14.07C242.71,203.3,242.66,198.73,238.32,194.58Z"/><path class="cls-12" d="M162.79,204.76c-5.16-6.07-3.34-13.36-4.25-20.64-8.26-2.5-9-9.53-11.59-17.77-2.39-7.64-5.32-19.74-3.72-28-2.76,8-6.71,27.57-11,34.23-3.22,5-25.35,27.41-25.46,27.64,0,0,17.8,19.38,25.33,23.67,8.83,5,39,11.33,39,11.33C169.06,227.52,167.94,210.82,162.79,204.76Z"/><line class="cls-11" x1="163.5" y1="154.71" x2="154.88" y2="160.35"/><line class="cls-11" x1="186.2" y1="168.17" x2="167.91" y2="181.15"/><line class="cls-11" x1="163.69" y1="122.44" x2="145.4" y2="135.41"/><line class="cls-11" x1="168.24" y1="141.62" x2="150.79" y2="153.76"/><line class="cls-11" x1="182.45" y1="161.17" x2="164.16" y2="174.15"/><line class="cls-11" x1="178.45" y1="154.17" x2="160.16" y2="167.15"/><line class="cls-11" x1="164.95" y1="132.67" x2="146.66" y2="145.65"/><path class="cls-3" d="M210.76,82.29c-5-9.5-29-14-45.6-10.65-11.18,2.24-14.8,10.48-24.45,16.54-6.32,4-21.07,28.8-19.86,37.79.61,4.52,11.08,12.44,16.69,10.93,8.2-2.2,18,13.16,19.81,12.19,3.9-2.13-7.21-27.44-2.25-34.16,6.5-8.79-1.79-29.72,4-35.1,14-13,53.49,2.45,55.25,24.89,1.57,20-.43,25.46,1.39,36.39,6-3.41,12.85-12.72,17.11-15.9C239.12,120.51,217.45,95.09,210.76,82.29Z"/><path class="cls-3" d="M164.28,154.1c5.36,4.06,11.5,11.23,20.92,14.07,10,3,17-2.18,21.1-5.46,10-8,9.43-21.59,9.43-21.59"/><path class="cls-13" d="M180,150c7.07.74,11.69.46,21.3.08"/><path class="cls-11" d="M201.92,165.94c-6.13,4.4-25.84,18.4-30.19,18.18-6.11-.31-6.58-9.29-9.9-14.43-5.48-8.48-17.91-17.91-16.48-31.22"/><path class="cls-11" d="M197.2,113c6.91-5,15.12-1.14,17.32.29"/><path class="cls-11" d="M162.13,114.44s6.79-5.44,12-6.27c3.52-.56,11.71,2.3,12.62,6.27,1.53,6.66,2.73,17.3,2.73,17.3"/><path class="cls-11" d="M183.72,131.69c-1.36,1.72-1.62,6.28,0,7.31,1.58-1.49,2.94-2.41,4.64-2,1.37.35,6.91,2.48,7.64,1.08,0,0,2.05-3.93.3-6.44"/><path class="cls-11" d="M170.78,118.44a41.85,41.85,0,0,1,8.09-1.66c1-.1,2.29.08,2.44,1s-1,1.51-1.91,1.24a5.09,5.09,0,0,1-2.06-1.72"/><path class="cls-11" d="M200.58,118.21a28.31,28.31,0,0,1,6.65-1.34c1-.1,2.29.08,2.44,1s-1,1.51-1.91,1.24a5.09,5.09,0,0,1-2.06-1.72"/><text class="cls-8" transform="translate(77.25 299.59)">Toys and Games</text><g class="cls-14"><rect class="cls-15" width="1050" height="350"/></g></g></g></svg>