<svg xmlns="http://www.w3.org/2000/svg" viewBox="0 0 288 432"><defs><style>.cls-1,.cls-2,.cls-3{fill:none;stroke-width:1.25px;}.cls-1{stroke:#abc038;}.cls-1,.cls-3{stroke-linecap:round;stroke-linejoin:round;}.cls-2{stroke:#ffcb65;}.cls-2,.cls-4{stroke-miterlimit:10;}.cls-3{stroke:#f1865d;}.cls-12,.cls-14,.cls-15,.cls-18,.cls-22,.cls-25,.cls-28,.cls-4,.cls-5{fill:#f171a1;}.cls-4{stroke:#f171a1;stroke-width:2px;}.cls-5{font-size:10.75px;}.cls-22,.cls-5{font-family:Futura-Medium, Futura;}.cls-6{letter-spacing:-0.08em;}.cls-7{letter-spacing:-0.02em;}.cls-8{letter-spacing:0.04em;}.cls-9{letter-spacing:0em;}.cls-10{letter-spacing:-0.06em;}.cls-11{letter-spacing:-0.01em;}.cls-12{font-size:15px;font-family:Coquette, Coquette;}.cls-13{font-size:30.31px;font-family:AmericanTypewriter, American Typewriter;}.cls-13,.cls-31{fill:#4bc3cb;}.cls-14{font-size:35.08px;font-family:Limelight-Regular, Limelight;}.cls-15{font-size:21px;}.cls-15,.cls-28{font-family:Chicle-Regular, Chicle;}.cls-16{letter-spacing:0.02em;}.cls-17{letter-spacing:0em;}.cls-19{font-size:9.68px;fill:#fff;font-family:Audiowide-Regular, Audiowide;letter-spacing:0.02em;}.cls-20{letter-spacing:0.02em;}.cls-21{letter-spacing:-0.01em;}.cls-22{font-size:15.79px;}.cls-23{letter-spacing:0.01em;}.cls-24{letter-spacing:0em;}.cls-25{font-size:16px;font-family:PlayfairDisplay-Black, Playfair Display;}.cls-26{letter-spacing:-0.01em;}.cls-27{font-size:74.45px;fill:#ffcb65;font-family:Monoton-Regular, Monoton;}.cls-28{font-size:26.41px;}.cls-29{letter-spacing:-0.01em;}.cls-30{letter-spacing:0em;}</style></defs><title>invitation_front</title><g id="Layer_4" data-name="Layer 4"><path class="cls-1" d="M243.43,63.4c0,1.45.86,4.47.58,6.25-1.32,1.39-2.58-.12-3.57-.39"/><path class="cls-1" d="M250.84,60.44a20.34,20.34,0,0,0,.25-4.49c-1,.78-3.79,2.19-3.79,2.82,0,1,1.89,1.81,3,1.93"/><path class="cls-1" d="M247.68,53.62a18.18,18.18,0,0,1,.95-4.35,10.57,10.57,0,0,1,2-1.69"/><path class="cls-1" d="M257.07,46.33c.27.83-.09,4.38-.8,5.22a3.8,3.8,0,0,1-1.56,1"/><path class="cls-1" d="M256.94,46.16c.05,0,.09.08.13.18"/><path class="cls-1" d="M254.71,52.51c-.42-1-.27-1.76-1.28-2.15"/><path class="cls-1" d="M258.77,39.55c.24,1.46.26,3.49-.6,4.07a2.17,2.17,0,0,1-.37.15"/><path class="cls-1" d="M257.8,43.77c-.33.11-.77.21-.93.11S256,43.2,256,43c0-.67,1.57-4.11,2.58-4.41a7.43,7.43,0,0,1,.23,1"/><path class="cls-1" d="M251.57,45.32a3.73,3.73,0,0,1,.79-2"/><path class="cls-1" d="M252.36,43.34c.74-1,1.79-1.09,2.24-1.45a39.21,39.21,0,0,1-.5,4.89c-.1.22-1.29.49-1.63.54a2.77,2.77,0,0,1-.9-2"/><path class="cls-1" d="M253.61,40c-1.19-2,1.66-5.91,2.4-6.36"/><path class="cls-1" d="M258.5,30.91Z"/><path class="cls-1" d="M258.5,30.91a27.51,27.51,0,0,1,1.42,3.42,2.57,2.57,0,0,1-.71,1.68"/><path class="cls-1" d="M249.8,63.13s.18,2.48-.32,3.13c-.22.28-2.85,2.36-2.85,2.36"/><path class="cls-1" d="M252.47,47.32c.34-.06,1.53-.32,1.63-.54"/><path class="cls-1" d="M252.36,43.34c.41-1.07.83-2.19,1.25-3.3a5.15,5.15,0,0,0,1.7-.57c.63-1.13,1.13-4.91.73-5.81l0,0c.8-2,1.45-3.32,1.79-3.24a1.23,1.23,0,0,1,.7.48,15.85,15.85,0,0,1-.69,3.2,5.65,5.65,0,0,0,.36,2.78,2.89,2.89,0,0,0,1.06-.88,30.76,30.76,0,0,1-.45,3.54,7.43,7.43,0,0,0-.23-1c-1,.3-2.62,3.74-2.58,4.41,0,.24.71.8.92.93s.6,0,.93-.11c-.24.9-.49,1.77-.73,2.56-.4-.95-3.53,3-3.65,4,1,.39.86,1.15,1.28,2.15,0,0-2.46,6.07-2.84,6.77-.57,1-1.24,2.32-2.06,3.85-.75.67-3.6,1.65-3.76,2.19-.26.85.59,3.3.59,3.3a48.22,48.22,0,0,1-3.57,7.73c-.81-1.18-4.3,2.06-4.33,2.14a4.15,4.15,0,0,0,0,2.48,13.58,13.58,0,0,0,1.71.08c-2,3.58-5.85,9.57-6.18,9.66-1.55.4-3-1.1-4.58-1.12.05-3.73,4.21-10.11,6.3-13.2a110.77,110.77,0,0,0,7.46-13c1.61-3.29,3.07-6.83,4.39-9.73.71.22,1.52-.73,3-.55.51-1-.24-5.53-.24-5.53.31-.67.65-1.43,1-2.27"/><path class="cls-1" d="M243.06,76.35a8.8,8.8,0,0,1-.95,4.3,2.75,2.75,0,0,1-1.68.4"/><path class="cls-1" d="M44.57,63.4c0,1.45-.86,4.47-.58,6.25,1.32,1.39,2.58-.12,3.57-.39"/><path class="cls-1" d="M37.16,60.44a20.34,20.34,0,0,1-.25-4.49c1,.78,3.79,2.19,3.79,2.82,0,1-1.89,1.81-3,1.93"/><path class="cls-1" d="M40.32,53.62a18.18,18.18,0,0,0-.95-4.35,10.57,10.57,0,0,0-2-1.69"/><path class="cls-1" d="M30.93,46.33c-.27.83.09,4.38.8,5.22a3.8,3.8,0,0,0,1.56,1"/><path class="cls-1" d="M31.06,46.16c-.05,0-.09.08-.13.18"/><path class="cls-1" d="M33.29,52.51c.42-1,.27-1.76,1.28-2.15"/><path class="cls-1" d="M29.23,39.55C29,41,29,43,29.83,43.63a2.17,2.17,0,0,0,.37.15"/><path class="cls-1" d="M30.2,43.77c.33.11.77.21.93.11S32,43.2,32,43c0-.67-1.57-4.11-2.58-4.41a7.43,7.43,0,0,0-.23,1"/><path class="cls-1" d="M36.43,45.32a3.73,3.73,0,0,0-.79-2"/><path class="cls-1" d="M35.64,43.34c-.74-1-1.79-1.09-2.24-1.45a39.21,39.21,0,0,0,.5,4.89c.1.22,1.29.49,1.63.54a2.77,2.77,0,0,0,.9-2"/><path class="cls-1" d="M34.39,40c1.19-2-1.66-5.91-2.4-6.36"/><path class="cls-1" d="M29.5,30.91Z"/><path class="cls-1" d="M29.5,30.91a27.51,27.51,0,0,0-1.42,3.42A2.57,2.57,0,0,0,28.78,36"/><path class="cls-1" d="M38.2,63.13s-.18,2.48.32,3.13c.22.28,2.85,2.36,2.85,2.36"/><path class="cls-1" d="M35.53,47.32c-.34-.06-1.53-.32-1.63-.54"/><path class="cls-1" d="M35.64,43.34c-.41-1.07-.83-2.19-1.25-3.3a5.15,5.15,0,0,1-1.7-.57c-.63-1.13-1.13-4.91-.73-5.81l0,0c-.8-2-1.45-3.32-1.79-3.24a1.23,1.23,0,0,0-.7.48,15.85,15.85,0,0,0,.69,3.2,5.65,5.65,0,0,1-.36,2.78A2.89,2.89,0,0,1,28.78,36a30.76,30.76,0,0,0,.45,3.54,7.43,7.43,0,0,1,.23-1c1,.3,2.62,3.74,2.58,4.41,0,.24-.71.8-.92.93s-.6,0-.93-.11c.24.9.49,1.77.73,2.56.4-.95,3.53,3,3.65,4-1,.39-.86,1.15-1.28,2.15,0,0,2.46,6.07,2.84,6.77.57,1,1.24,2.32,2.06,3.85.75.67,3.6,1.65,3.76,2.19.26.85-.59,3.3-.59,3.3a48.22,48.22,0,0,0,3.57,7.73c.81-1.18,4.3,2.06,4.33,2.14a4.15,4.15,0,0,1,0,2.48,13.58,13.58,0,0,1-1.71.08c2,3.58,5.85,9.57,6.18,9.66,1.55.4,3-1.1,4.58-1.12-.05-3.73-4.21-10.11-6.3-13.2a110.77,110.77,0,0,1-7.46-13c-1.61-3.29-3.07-6.83-4.39-9.73-.71.22-1.52-.73-3-.55-.51-1,.24-5.53.24-5.53-.31-.67-.65-1.43-1-2.27"/><path class="cls-1" d="M44.94,76.35a8.8,8.8,0,0,0,.95,4.3,2.75,2.75,0,0,0,1.68.4"/><path class="cls-2" d="M215.16,385.46c.78-.22,1.11-3.63,1.74-4.13.26-.21,4.6-2.28,5.43-1.75,1.24.8,1.69,9.3-.58,10.67-1.43.86-4.34,2.47-4.91.91-.23-.63-.13-2.47-.68-2.86-1.66-1.17-2.11,3.94-2.48,4.57-.64,1.08-7.08,2.27-9.84,2.14a3.7,3.7,0,0,1-3.32-3.64c-.38-4.11-.47-7,1.71-7.54a62.2,62.2,0,0,1,9.27-1.16C213.55,382.71,212.65,386.18,215.16,385.46Z"/><path class="cls-2" d="M216.24,381.6a71.44,71.44,0,0,0-8.24-2.14c-1.48-.25-4,3.13-6,1.8-2.37-1.6,4.65-3.69,5.8-3.7,2,0,8.64,1.49,11.35,2.4"/><path class="cls-2" d="M200.29,387.88c-2.49-.46-13.54-3.07-15.31-2.72-2,.4-5.63,2.41-5.09,3.55,1.63,3.4,4-1.45,5.72-1.64s11.7,3.2,14.94,4"/><path class="cls-2" d="M206.69,384.74q-1.94,2.47-3.82,5"/><path class="cls-2" d="M210.27,384.63a97.32,97.32,0,0,1-6.06,8.67"/><path class="cls-2" d="M212.73,386.89c-1.76,2.69-2.46,3.52-4.18,6"/><path class="cls-2" d="M219.15,382.52c-.3.85-.59,1.81-1.19,3.61"/><path class="cls-2" d="M221.73,382.94c-.84,2.27-1.4,3.95-2.46,6.64"/><path class="cls-2" d="M72.84,385.46c-.78-.22-1.11-3.63-1.74-4.13-.26-.21-4.6-2.28-5.43-1.75-1.24.8-1.69,9.3.58,10.67,1.43.86,4.34,2.47,4.91.91.23-.63.13-2.47.68-2.86,1.66-1.17,2.11,3.94,2.48,4.57C75,394,81.4,395.14,84.16,395a3.7,3.7,0,0,0,3.32-3.64c.38-4.11.47-7-1.71-7.54a62.2,62.2,0,0,0-9.27-1.16C74.45,382.71,75.35,386.18,72.84,385.46Z"/><path class="cls-2" d="M71.76,381.6A71.44,71.44,0,0,1,80,379.46c1.48-.25,4,3.13,6,1.8,2.37-1.6-4.65-3.69-5.8-3.7-2,0-8.64,1.49-11.35,2.4"/><path class="cls-2" d="M87.71,387.88c2.49-.46,13.54-3.07,15.31-2.72,2,.4,5.63,2.41,5.09,3.55-1.63,3.4-4-1.45-5.72-1.64s-11.7,3.2-14.94,4"/><path class="cls-2" d="M81.31,384.74q1.94,2.47,3.82,5"/><path class="cls-2" d="M77.73,384.63a97.32,97.32,0,0,0,6.06,8.67"/><path class="cls-2" d="M75.27,386.89c1.76,2.69,2.46,3.52,4.18,6"/><path class="cls-2" d="M68.85,382.52c.3.85.59,1.81,1.19,3.61"/><path class="cls-2" d="M66.27,382.94c.84,2.27,1.4,3.95,2.46,6.64"/><path class="cls-3" d="M137.53,388.56c.62.8.06,2.08.51,2.92,1.22,2.22,5.49,8.48,7,8.56,1.78.09,3.7.41,4.78-1-.38-.91-1.23-2.27-2.27-2.1-.71.12-1.23.16-1.23.16s-3.15-4.19-3.23-5.27,3.41-4,4.54-6.18c-2.26.23-4.63.26-6.75.3A11.72,11.72,0,0,1,137.53,388.56Z"/><path class="cls-3" d="M160,379.37a24.79,24.79,0,0,0-1,4.37,27.77,27.77,0,0,0,1.71,6.57c.12-1,1.09-6.89,1.09-6.89s3.74-9.59,3.2-13.41a28.47,28.47,0,0,0-1.54-4.45c-.27-.62.38-3.23.79-5.25a5.75,5.75,0,0,0-.86-3.53,11.32,11.32,0,0,0,0-5.47c-2,0-4.57,4-4.57,4l-4.24,0s-2-3.62-3.86-3.45c-.64,1.73.83,5.22.83,5.22s-.69,2.6-.84,3.9a3.76,3.76,0,0,0,1.31,3.32,8.57,8.57,0,0,1-.08,1.9c-5-.54-16.56,2.62-19.71,4.34-2.48-.75-5.11-7.58-6.17-9.44a20.47,20.47,0,0,0-5.84-6.08c-1.39-.79-3.44-1.64-4.79-.15-1.53,1.7,1,5.81,2.29,5.86,1.16,0,1-2.45.57-3.31,4.16,2,7.08,12.12,9.74,16.35-3.36,5,2.43,11.25,1.9,13.26-.23.87-1.24.77-1.48,1.64-.12.44,1.53,8.6,1.83,10.15.47,2.41,3.8,1.92,4.85,1.46.53-.22-.19-2.39-.62-2.77a4,4,0,0,0-1.51-.75c-.36-1.31-1.58-4.78,2.57-7.22.62-.37,1.32-.59,1.94-.93a11.72,11.72,0,0,0,3.39-2.61c2.12,0,4.49-.07,6.75-.3,1.92-.19,3.26-.06,5-.78,1.66,4.63,1.84,4.47,4.31,8.4a58.81,58.81,0,0,1,2.32,5.82,7.25,7.25,0,0,1,.25.87c.2,1.11,2.65,2,3.73,1s-.25-4.13-.6-4.91a50.22,50.22,0,0,1-2-5.75"/><path class="cls-3" d="M159.28,399.09a1.79,1.79,0,0,1-1.8-.64,9.26,9.26,0,0,1-.52-5.18A58.81,58.81,0,0,1,159.28,399.09Z"/><path class="cls-3" d="M153.62,361.65l.58-.62a2,2,0,0,1,1.51-.85c.6.06,1,.62,1.45,1a2.88,2.88,0,0,0,1.16.6"/><polygon class="cls-3" points="155.71 359.44 155.05 358.3 156.37 358.3 155.71 359.44"/><line class="cls-4" x1="36.47" y1="271.67" x2="118.14" y2="271.67"/><line class="cls-4" x1="36.47" y1="297.86" x2="118.14" y2="297.86"/><text class="cls-5" transform="translate(41.7 326.9)"><tspan class="cls-6">1</tspan><tspan x="5.78" y="0">2</tspan><tspan class="cls-7" x="12.42" y="0">3</tspan><tspan x="18.81" y="0">4 SOME RD, NEVER</tspan><tspan class="cls-8" x="120.25" y="0">L</tspan><tspan class="cls-9" x="125.47" y="0">AND </tspan><tspan class="cls-10" x="153.63" y="0">V</tspan><tspan x="160.22" y="0">A 256</tspan><tspan class="cls-11" x="191.41" y="0">2</tspan><tspan x="197.97" y="0">4</tspan></text><text class="cls-12" transform="translate(41.85 288.82)">August 12th</text><text class="cls-13" transform="translate(131.96 293.68)">6:30 pm</text><text class="cls-14" transform="translate(226.96 163.57)">&amp;</text><text class="cls-15" transform="translate(172.25 189.45)">Marga<tspan class="cls-16" x="45.42" y="0">r</tspan><tspan class="cls-17" x="52.83" y="0">itas</tspan></text><polygon class="cls-18" points="248.15 244.85 39.85 244.85 48.12 233.36 39.85 221.88 248.15 221.88 238.97 233.36 248.15 244.85"/><text class="cls-19" transform="translate(97.49 236.1)">the party <tspan class="cls-20" x="57.84" y="0">s</tspan><tspan class="cls-21" x="63.79" y="0">t</tspan><tspan x="69.2" y="0">arts</tspan></text><text class="cls-22" transform="translate(174.25 124.89) scale(1.09 1)">join us <tspan class="cls-23" x="50.77" y="0">f</tspan><tspan class="cls-24" x="55.65" y="0">or</tspan></text><text class="cls-25" transform="translate(62.32 117.17)">is<tspan class="cls-26" x="12.84" y="0"> </tspan><tspan x="16.23" y="0">turning</tspan></text><text class="cls-27" transform="translate(33.96 197.37)">60</text><text class="cls-28" transform="translate(173.14 159.79)">tac<tspan class="cls-29" x="26.2" y="0">o</tspan><tspan class="cls-30" x="36.32" y="0">s</tspan></text><path class="cls-31" d="M87.89,75.85c.82-8.33,1.27-12.49,2.24-20.82a23.5,23.5,0,0,0-4.29-1,25.48,25.48,0,0,0-3.89-.16q-1.28,3.62-2.21,7.4t-1.49,7.31a63.26,63.26,0,0,0-.71,6.58,28.56,28.56,0,0,0,.14,5.23,6.8,6.8,0,0,0,.51,2,3.62,3.62,0,0,0,.68,1q-1.13.15-2.44.22a7,7,0,0,1-2.54-.32,4.76,4.76,0,0,1-2.15-1.48,6.41,6.41,0,0,1-1.26-3.26,20.17,20.17,0,0,1-.06-4.53,43,43,0,0,1,.91-5.82q.7-3.15,1.82-6.63a67.32,67.32,0,0,1,2.67-6.93,16.35,16.35,0,0,0-4.49,1.43,3.72,3.72,0,0,0-2.06,2.42q.23,0,.59.49a2.69,2.69,0,0,1,.45,1.15,1.81,1.81,0,0,1-.73,1.73,4.48,4.48,0,0,1-2.25.93,4.91,4.91,0,0,1-1.46,0,3.44,3.44,0,0,1-1.24-.42,2.84,2.84,0,0,1-.93-.88,3.38,3.38,0,0,1-.51-1.38,4.49,4.49,0,0,1,.49-2.81,7.9,7.9,0,0,1,2.2-2.57,14.75,14.75,0,0,1,3.64-2,19.9,19.9,0,0,1,4.78-1.22q1.23-.17,3.15-.25a65.21,65.21,0,0,1,4.07-7,41,41,0,0,1,4.73-5.86,26.17,26.17,0,0,1,5.19-4.16,12.62,12.62,0,0,1,5.4-1.84,19.63,19.63,0,0,1,2.45,0,9.21,9.21,0,0,1,2.52.43q-3.12,21-5.7,42.15C92.81,75.31,91.17,75.48,87.89,75.85Zm4.53-39a12.54,12.54,0,0,0-2.6,2.24,23.93,23.93,0,0,0-2.49,3.31A44.19,44.19,0,0,0,85,46.57q-1.12,2.27-2.1,4.77,1.85.11,3.77.39a33.05,33.05,0,0,1,3.74.75C91.18,46.24,91.57,43.11,92.41,36.87Z"/><path class="cls-31" d="M120.91,63.09a23.39,23.39,0,0,1-1.64,4,17,17,0,0,1-1.94,2.94,11.6,11.6,0,0,1-2.11,2,11.73,11.73,0,0,1-2.13,1.23,10.39,10.39,0,0,1-2,.65,12.65,12.65,0,0,1-1.71.25A7.46,7.46,0,0,1,107,74a5.08,5.08,0,0,1-2-1.06,5.85,5.85,0,0,1-1.47-2,8.68,8.68,0,0,1-.73-3,13.93,13.93,0,0,1,0-1.7q0-.93.18-2,2-14.35,4.29-28.65c3.61-.7,5.42-1,9.06-1.68q-2.77,15.36-5.1,30.8a4.63,4.63,0,0,0-.12.93q0,.46,0,.9a2,2,0,0,0,.67,1.6,2.85,2.85,0,0,0,1.81.34,3.94,3.94,0,0,0,1.63-.47,5.37,5.37,0,0,0,1.43-1.11,7.48,7.48,0,0,0,1.14-1.65,10,10,0,0,0,.78-2Z"/><path class="cls-31" d="M136.51,62.62a23.4,23.4,0,0,1-1.77,4,17,17,0,0,1-2,2.88,11.6,11.6,0,0,1-2.17,1.93,11.73,11.73,0,0,1-2.17,1.17,10.39,10.39,0,0,1-2,.59,12.64,12.64,0,0,1-1.71.2,7.45,7.45,0,0,1-2.42-.29,5.08,5.08,0,0,1-2-1.12,5.85,5.85,0,0,1-1.41-2,8.69,8.69,0,0,1-.64-3,13.94,13.94,0,0,1,0-1.7q.07-.93.24-2,2.39-14.28,5.16-28.5c3.63-.59,5.45-.87,9.1-1.4q-3.24,15.26-6,30.63a4.63,4.63,0,0,0-.15.93q0,.46,0,.9a2,2,0,0,0,.62,1.62,2.85,2.85,0,0,0,1.8.4,3.94,3.94,0,0,0,1.64-.42A5.37,5.37,0,0,0,132,66.28a7.48,7.48,0,0,0,1.18-1.61,10,10,0,0,0,.84-2Z"/><path class="cls-31" d="M152.12,62.62a23.4,23.4,0,0,1-1.89,3.94,17,17,0,0,1-2.12,2.81,11.6,11.6,0,0,1-2.23,1.86,11.73,11.73,0,0,1-2.2,1.1,10.39,10.39,0,0,1-2,.53,12.64,12.64,0,0,1-1.72.15,7.45,7.45,0,0,1-2.41-.36,5.08,5.08,0,0,1-2-1.18,5.85,5.85,0,0,1-1.35-2.07,8.69,8.69,0,0,1-.54-3,13.94,13.94,0,0,1,.08-1.7q.09-.92.3-2c1.44-7.27,2.19-10.9,3.75-18.15,3.49,0,5.23,0,8.72,0-1.77,7.66-2.62,11.49-4.27,19.16a4.64,4.64,0,0,0-.18.92q0,.46,0,.9a2,2,0,0,0,.57,1.64,2.85,2.85,0,0,0,1.78.45,3.94,3.94,0,0,0,1.65-.37,5.37,5.37,0,0,0,1.49-1,7.48,7.48,0,0,0,1.23-1.57,10,10,0,0,0,.9-2ZM148.71,37a4,4,0,0,1-.4,1.74,4.39,4.39,0,0,1-1.07,1.4,5.2,5.2,0,0,1-3.44,1.27,5.16,5.16,0,0,1-1.89-.34,5,5,0,0,1-1.54-.93,4.3,4.3,0,0,1-1-1.4,4.26,4.26,0,0,1,0-3.5,4.55,4.55,0,0,1,1-1.44,4.94,4.94,0,0,1,1.55-1,5.15,5.15,0,0,1,5.4,1,4.63,4.63,0,0,1,1.06,1.44A4,4,0,0,1,148.71,37Z"/><path class="cls-31" d="M174.43,63.45a31,31,0,0,1-4.79,4A49.77,49.77,0,0,1,165.21,70a9.38,9.38,0,0,1-2.07,1.5,12.59,12.59,0,0,1-2.33,1,14.35,14.35,0,0,1-2.42.5,16.42,16.42,0,0,1-2.31.12,10,10,0,0,1-3.72-.72,8,8,0,0,1-2.6-1.72,6.63,6.63,0,0,1-1.51-2.33,7.12,7.12,0,0,1-.48-2.58A5.94,5.94,0,0,1,148,64a6.25,6.25,0,0,1,.71-1.49,5.3,5.3,0,0,1,1-1.13,4.89,4.89,0,0,1,1.17-.74,75,75,0,0,0,4.33-8.31q1.81-4.11,3.34-8.25c3.6-.34,5.4-.5,9-.78q0,3.67.06,6.35t.1,4.66q.06,2,.11,3.35t.1,2.44Q168,61.13,168,62c0,.58,0,1.18,0,1.8q0,.63-.1,1.15a4.79,4.79,0,0,1-.23,1q1.31-.66,2.38-1.3A20.33,20.33,0,0,0,172,63.31Zm-23.56,1.19a4.59,4.59,0,0,0,.77,3,3.37,3.37,0,0,0,2.71,1,6.74,6.74,0,0,0,1.87-.22,4.21,4.21,0,0,0,1.63-.84A4.45,4.45,0,0,0,159,66a6.31,6.31,0,0,0,.5-2.46q0-.72,0-1.39t-.06-1.43q0-.76-.11-1.7t-.17-2.18Q159.1,55.59,159,54t-.21-3.81a49.26,49.26,0,0,1-2.26,5.28q-1.28,2.56-2.79,5.26a3.09,3.09,0,0,1,.94.79,1.8,1.8,0,0,1,.36,1.19,3.1,3.1,0,0,1-.19,1,2.76,2.76,0,0,1-.53.88,2.57,2.57,0,0,1-.82.62,2.36,2.36,0,0,1-1.07.22,2.94,2.94,0,0,1-.91-.15A1.1,1.1,0,0,1,150.87,64.64Z"/><path class="cls-31" d="M206.08,54.93a15.16,15.16,0,0,1-4.82,2.41c-1.92.6-5.6.59-6.18,1.1-.76.67-1.24,4.86-2.24,6.86a19.29,19.29,0,0,1-3.53,5,13.38,13.38,0,0,1-4.47,3,11.2,11.2,0,0,1-5.06.8,13.77,13.77,0,0,1-3.64-.73,7.62,7.62,0,0,1-2.82-1.72,7.21,7.21,0,0,1-1.76-2.86,10.93,10.93,0,0,1-.47-4.15,22.55,22.55,0,0,1,.56-3.73A25.48,25.48,0,0,1,173,56.7a24.44,24.44,0,0,1,2.31-4.24,16.42,16.42,0,0,1,3.34-3.61,14.58,14.58,0,0,1,4.44-2.41,13.65,13.65,0,0,1,5.6-.59c5.17.44,7.46,3.7,6.87,9.67v.05a.77.77,0,0,0,.27.08l.36,0a9.91,9.91,0,0,0,2.27-.06,20.23,20.23,0,0,0,2.5-.49,22.49,22.49,0,0,0,2.5-.81q1.23-.48,2.27-1Zm-15.92,3.21a1.78,1.78,0,0,1-1.18-1,3.24,3.24,0,0,1-.2-1.52,3.4,3.4,0,0,1,.68-1.89,3,3,0,0,1,1.45-1,9.4,9.4,0,0,0-.07-1.54,3.16,3.16,0,0,0-.32-1.05,1.47,1.47,0,0,0-.61-.62,2.66,2.66,0,0,0-1-.25,3.32,3.32,0,0,0-2.15.61,9.28,9.28,0,0,0-2,1.92,18.1,18.1,0,0,0-1.85,2.83A27.1,27.1,0,0,0,181.35,58a28.85,28.85,0,0,0-1.05,3.42,19.06,19.06,0,0,0-.5,3.1,13.51,13.51,0,0,0,0,2.29,3.5,3.5,0,0,0,.41,1.42,1.81,1.81,0,0,0,.87.77,4.37,4.37,0,0,0,1.37.3,3.28,3.28,0,0,0,2.17-.74,9.59,9.59,0,0,0,2.17-2.31,19.78,19.78,0,0,0,1.93-3.57A27.14,27.14,0,0,0,190.16,58.13Z"/><path class="cls-31" d="M194.34,75.18q4.43-13.74,9.21-27.37c3.47.39,5.2.6,8.67,1.05l-1,2.81a10.65,10.65,0,0,1,2.13-1.37,9.18,9.18,0,0,1,2-.69,8.39,8.39,0,0,1,1.78-.2,11.19,11.19,0,0,1,1.53.1,9.55,9.55,0,0,1,2.62.74,5.62,5.62,0,0,1,2,1.43,5.12,5.12,0,0,1,1.09,2.17,7.54,7.54,0,0,1,.05,2.93,14.85,14.85,0,0,1-.59,2.37q-.42,1.26-.94,2.56t-1.08,2.58q-.56,1.28-1.06,2.46T219.8,69a9.54,9.54,0,0,0-.49,1.81,2.77,2.77,0,0,0,.24,1.76,2.17,2.17,0,0,0,1.71.93,3.56,3.56,0,0,0,2-.06A7.5,7.5,0,0,1,222,75.87a6.32,6.32,0,0,1-1.7,1.56,5.43,5.43,0,0,1-2,.75,7.46,7.46,0,0,1-2.21,0,6.49,6.49,0,0,1-2.67-.92,4.83,4.83,0,0,1-1.59-1.66,5.58,5.58,0,0,1-.68-2.15,9.79,9.79,0,0,1,0-2.37,16,16,0,0,1,.85-3.26q.66-1.84,1.42-3.77t1.43-3.72a15.14,15.14,0,0,0,.86-3.13q.4-2.86-1.75-3.16a3,3,0,0,0-1.57.21,4.9,4.9,0,0,0-1.42.94,8.18,8.18,0,0,0-1.25,1.5,15.29,15.29,0,0,0-1.06,1.91c-2.5,7-3.73,10.47-6.12,17.48C199.28,75.69,197.63,75.51,194.34,75.18Z"/></g></svg>