<svg id="Layer_1" data-name="Layer 1" xmlns="http://www.w3.org/2000/svg" viewBox="0 0 300 100"><defs><style>.cls-1,.cls-3{fill:#231f20;}.cls-2{fill:#fff;}.cls-3{font-size:25px;font-family:Lato-Bold, Lato;font-weight:700;}.cls-4{letter-spacing:-0.03em;}.cls-5{letter-spacing:-0.03em;}</style></defs><title>monogram</title><circle class="cls-1" cx="49.45" cy="50" r="45.5"/><path class="cls-2" d="M67.58,50l13.3-23L62.19,40.71,49.45,18.64,36.7,40.71,18,27l13.3,23L18,73.09,36.7,59.38,49.45,81.46,62.19,59.38l18.69,13.7Z"/><circle class="cls-1" cx="49.06" cy="36.22" r="3.54"/><path class="cls-1" d="M68.15,50,81.22,27.37A.83.83,0,0,0,80,26.29L62.06,39.45,49.78,18.17a.83.83,0,0,0-1.43,0L36.06,39.45,18.11,26.29a.83.83,0,0,0-1.2,1.08L30,50,16.91,72.63a.83.83,0,0,0,1.2,1.08L36.06,60.55,48.35,81.83a.83.83,0,0,0,1.43,0L62.06,60.55,80,73.71a.83.83,0,0,0,1.2-1.08ZM20.31,29.95,35,40.73l-4.24,7.34Zm0,40.1L31.66,50.4s0,0,0,0v0l5.4-9.35h0l12-20.81L60.58,40.18,35.83,58.66h0Zm28.76,9.71-11.52-20L62.2,41.39l.1-.06L77.82,29.95,66.48,49.59h0l-5.39,9.34h0ZM63.12,59.27l4.24-7.34L77.82,70.05Z"/><text class="cls-3" transform="translate(105.5 58.51)">ALEX <tspan class="cls-4" x="66.79" y="0">V</tspan><tspan x="83.84" y="0">OLPE</tspan><tspan class="cls-5" x="146.69" y="0">R</tspan><tspan x="162.36" y="0">T</tspan></text></svg>