<svg xmlns="http://www.w3.org/2000/svg" viewBox="0 0 350 350"><defs><style>.cls-1{font-size:38px;font-family:Montebello-Rounded, Montebello;}.cls-1,.cls-19{fill:#cb9932;}.cls-2{letter-spacing:-0.01em;}.cls-3{letter-spacing:-0.02em;}.cls-4{letter-spacing:-0.05em;}.cls-5{letter-spacing:-0.02em;}.cls-6{letter-spacing:-0.07em;}.cls-7{letter-spacing:-0.05em;}.cls-8{letter-spacing:-0.09em;}.cls-9{letter-spacing:0em;}.cls-10{font-family:ChippewaFalls, Chippewa Falls;}.cls-11,.cls-15,.cls-16,.cls-18{fill:#ffcd34;}.cls-11{font-size:43px;letter-spacing:0em;}.cls-11,.cls-15{font-family:Swash, Swash;}.cls-12{letter-spacing:-0.12em;}.cls-13{letter-spacing:-0.06em;}.cls-14{letter-spacing:0em;}.cls-15{font-size:47px;}.cls-16{font-size:55px;font-family:Heritage, Heritage;}.cls-17{letter-spacing:0em;}</style></defs><title>nina_motto</title><g id="Layer_4" data-name="Layer 4"><text class="cls-1" transform="translate(45.4 128.5)">I’<tspan class="cls-2" x="14.78" y="0">V</tspan><tspan x="32.98" y="0">E AL</tspan><tspan class="cls-3" x="88.8" y="0">RE</tspan><tspan class="cls-2" x="117.42" y="0">A</tspan><tspan class="cls-4" x="135.62" y="0">D</tspan><tspan x="151.09" y="0">Y M</tspan><tspan class="cls-2" x="200.26" y="0">A</tspan><tspan x="218.46" y="0">DE </tspan><tspan class="cls-5" x="31.6" y="45.6">E</tspan><tspan class="cls-2" x="44.71" y="45.6">V</tspan><tspan x="62.91" y="45.6">E</tspan><tspan class="cls-6" x="76.78" y="45.6">R</tspan><tspan x="90.38" y="45.6">Y M</tspan><tspan class="cls-2" x="139.55" y="45.6">I</tspan><tspan class="cls-7" x="147.53" y="45.6">S</tspan><tspan class="cls-8" x="159.12" y="45.6">T</tspan><tspan class="cls-3" x="171.13" y="45.6">A</tspan><tspan class="cls-9" x="188.95" y="45.6">KE </tspan></text><text class="cls-1" transform="translate(18.3 231.49)">So<tspan class="cls-10" x="31.62" y="0"> </tspan><tspan class="cls-11" x="44.84" y="0" xml:space="preserve">    </tspan><tspan class="cls-10" x="74.42" y="0" xml:space="preserve">    </tspan><tspan x="127.32" y="0">Don’t H</tspan><tspan class="cls-12" x="226.53" y="0">a</tspan><tspan class="cls-2" x="240.56" y="0">v</tspan><tspan x="258.76" y="0">e </tspan><tspan class="cls-13" x="282.13" y="0">T</tspan><tspan class="cls-14" x="295.28" y="0">o</tspan></text><text class="cls-15" transform="translate(61.06 235.65)">Y</text><text class="cls-16" transform="translate(95.13 231.65)"><tspan class="cls-17">o</tspan><tspan x="17.71" y="0">u</tspan></text><path class="cls-18" d="M78.31,323.35c-.83-.75-1.9-1.42-2.87-2.32s-1.73-1.68-2.66-2.55S71,316.85,70.06,316s-1.69-1.78-2.58-2.64-1.72-1.77-2.6-2.62S63,309,62.18,308.2s-1.82-1.73-2.66-2.56-1.8-1.79-2.62-2.6-1.92-1.75-2.69-2.52a1.16,1.16,0,0,1-.2-1,1,1,0,0,1,.59-.66c.73-.37,1.23-.57,1.68-.8s.84-.55,1.44-.85c-.86-1.1-1.87-2.16-2.74-3.28-1.06-1.38-2-2.82-2.92-4a1,1,0,0,1-.16-.87,1,1,0,0,1,.57-.73c1.11-.4,2.83-1,3.93-1.42-.52-.72-1.43-1.71-2.25-2.83-.67-.93-1.26-2-1.94-3-.79-1.1-1.58-2.09-2.12-2.85a1,1,0,0,1,0-1,1,1,0,0,1,.79-.59c.59,0,.59,0,1.17-.06,1.17-.09,2.59-.3,4.09-.39s2.79-.15,4.11-.17a23.68,23.68,0,0,1,4.08.35c.55.09,1,.48,2.68,3,.59.89,1.48,1.94,2.4,3.43.63,1,1.25,2.27,2.07,3.65s1.48,2.59,1.78,3a.83.83,0,0,1,.16.73A1,1,0,0,1,73,291c-.51.26-1,.6-1.56.88-.88.46-1.81.83-2.64,1.24.72,1.21,1.46,2.47,2.22,3.68s1.53,2.34,2.2,3.48a1,1,0,0,1,0,.78c-.07.26-.13.58-.37.71-.54.29-.52.33-1.07.62-.74.39-1.26.56-1.83.9.48.88,1.09,1.91,1.72,3.1.52,1,1.1,2,1.68,3.15s1,2.15,1.56,3.21,1.13,2.13,1.67,3.16S77.79,318,78.3,319c.61,1.2,1,2.35,1.48,3.25a1,1,0,0,1-.24,1.28,1,1,0,0,1-.64.11A.86.86,0,0,1,78.31,323.35Z"/><path class="cls-18" d="M223.07,319.27a3.81,3.81,0,0,1-1.46-2.2,10.85,10.85,0,0,1-.34-2.66,7.93,7.93,0,0,1-5.07-.25,9.15,9.15,0,0,1-3.53-2.42,11.76,11.76,0,0,1-2.48-3.56,12.43,12.43,0,0,1-.69-3.3,23.29,23.29,0,0,1,0-3.36,23.92,23.92,0,0,1,.44-3.32,17.52,17.52,0,0,1,.91-3.23,9.23,9.23,0,0,1,1.72-2.86l.09.09a7.32,7.32,0,0,1,2.42-1.9,7.5,7.5,0,0,1,3.07-.55,14.23,14.23,0,0,1,3.06.65,10.89,10.89,0,0,1,.31-2.76,3.49,3.49,0,0,1,1.54-2.2,13.4,13.4,0,0,1,3.28-1.38,30,30,0,0,1,3.47-.88c1.17-.2,2.39-.26,3.57-.36s2.46-.11,3.58-.11c.4,0,1.85.06,3.68.22a34.62,34.62,0,0,1,3.68.37,18.34,18.34,0,0,1,3.53,1.11,5.93,5.93,0,0,1,3,2.15,14.84,14.84,0,0,1,.57,3.77c.1,1.1.09,2.39.16,3.79.06,1.19.18,2.47.21,3.79s.15,2.52.15,3.8,0,2.56,0,3.8-.12,2.6-.18,3.8c-.07,1.39-.1,2.69-.22,3.8a12.1,12.1,0,0,1-.83,3.72,6.68,6.68,0,0,1-2.2,2.07,13,13,0,0,1-2.59,1.6,21.15,21.15,0,0,1-3,.7,30.72,30.72,0,0,1-3.86.65,36.66,36.66,0,0,1-3.91.37,34.58,34.58,0,0,1-4.19-.24,25,25,0,0,1-4.11-.86A13.44,13.44,0,0,1,223.07,319.27Zm-2-21.95a3.35,3.35,0,0,0-2.76-2.21,2,2,0,0,0-1.89,1.27,14,14,0,0,0-1.09,3,14.83,14.83,0,0,0-.35,3.22,10.91,10.91,0,0,0,.7,3.14,6.67,6.67,0,0,0,1.56,2.74l0,0a1.67,1.67,0,0,0,1.29.35,4.1,4.1,0,0,0,2.64-1.37c-.08-1.42-.16-2.48-.19-3.41,0-1.2.06-2.17.08-3.41C221,299.82,221,298.74,221,297.32Z"/><path class="cls-18" d="M104.22,328.49a4.41,4.41,0,0,1-2.87-2.09,7.1,7.1,0,0,1-1.13-3.28,9.69,9.69,0,0,1,.25-3.48,13.6,13.6,0,0,1,1.65-3.69c.66-1.08,1.28-2.34,2.13-3.5s1.8-2.06,2.63-3.15c.66-.87,1.18-1.9,1.83-2.78s1.46-1.81,2-2.65a7.12,7.12,0,0,0,1.23-3c.06-.84.29-2.16.32-3.74,0-1.15,0-2.44,0-3.75s-.14-2.42-.12-3.46c0-1.33.15-2.48.18-3.45a21.39,21.39,0,0,1,.22-3.45,8.76,8.76,0,0,0,.13-3.67,20.09,20.09,0,0,1,0-4.56,1.11,1.11,0,0,1,1-1c.87,0,.87.25,1.74.26,1.35,0,2.61-.08,3.84,0s2.52.21,3.82.31,2.47,0,3.83.23c1.18.16,1.61,1.39,1.64,3a32.56,32.56,0,0,1-.3,3.6,16.25,16.25,0,0,0-.1,2.58,8.35,8.35,0,0,1,.54,3.27c.07.94.14,2.05.15,3.33,0,1,.1,2.13.09,3.35s-.08,2.49-.07,3.67c0,1.36.09,2.63.19,3.66h.08a10.49,10.49,0,0,0,.57,2.7,12.49,12.49,0,0,1,.87,4.74,3.69,3.69,0,0,1-1.85,3,17.12,17.12,0,0,1-3.24,1.72,13.68,13.68,0,0,0-2,2.4c-.61.79-1.36,1.61-2,2.42s-1.16,1.76-1.8,2.61-1.37,1.65-2,2.45-1.29,1.78-2,2.48a13.21,13.21,0,0,1-2.48,2,9.3,9.3,0,0,1-3.19.81,21.63,21.63,0,0,1-3.26.33A25.32,25.32,0,0,1,104.22,328.49Z"/><path class="cls-18" d="M164.62,324.33a7.49,7.49,0,0,1-2.66-1.91,3.13,3.13,0,0,1-.78-3.09,18.14,18.14,0,0,1,.94-2.12c.42-.85,1-1.92,1.56-3.09s1.14-2.07,1.56-3.11a16.15,16.15,0,0,0,.94-3.32,2.5,2.5,0,0,0-.9-2.68,13.94,13.94,0,0,0-2.63-1.47,23,23,0,0,1-2.75-1.66,8.15,8.15,0,0,1-2.33-2.15A10,10,0,0,1,156,296.8a9.83,9.83,0,0,1-.21-3.32,13,13,0,0,1,.65-3.27,18.44,18.44,0,0,1,1.47-3,23.76,23.76,0,0,1,2-2.68c.92-1.19,1.63-2.19,2-2.61a13.06,13.06,0,0,1,2.67-1.71,14.79,14.79,0,0,1,2.78-1.5,14.46,14.46,0,0,1,3.12-.6,11.81,11.81,0,0,1,3.17.07,14,14,0,0,1,4.68,1.8l0,0a19.77,19.77,0,0,1,2.91,2.13,24.62,24.62,0,0,1,2.44,2.65,22.65,22.65,0,0,1,2.15,2.89,17.85,17.85,0,0,1,1.7,3.2,12,12,0,0,1,.5,3.58,8.7,8.7,0,0,1-.44,3.57,6,6,0,0,1-2.42,3,9.43,9.43,0,0,1-3.68,1,9.45,9.45,0,0,0-3.23,1c-.71.4-.85,1.7-.55,3.28a31.12,31.12,0,0,0,1.06,3.27c.36,1.11.84,2.19,1.21,3.21s.75,2.16,1.08,3.15a23.75,23.75,0,0,1,.72,3.24,6,6,0,0,1,.06,3.31,5.62,5.62,0,0,1-3.35,2.72,14,14,0,0,1-2.88.64,21.44,21.44,0,0,1-2.94.2,24,24,0,0,1-4.13-.39A16,16,0,0,1,164.62,324.33Z"/><path class="cls-18" d="M258.58,267.9a3.07,3.07,0,0,1,1.79-2,4.24,4.24,0,0,1,2.67-.25,1,1,0,0,1,.66.53c1.47,3,6,10.63,10.33,18,6.46,11,10.48,17.89,11.06,19.62l.66,1.14c2.81,4.77,4.73,8.21,4.95,9.46a1.77,1.77,0,0,1,0,.45,11.29,11.29,0,0,1,3.84,4.16c1.06,2.46,1.82,6.63,1.13,9.51a1,1,0,0,1-.63.71,1,1,0,0,1-.94-.14,21.14,21.14,0,0,1-2.65-2.28,20.12,20.12,0,0,0-2.67-2.28c-2.35-1.72-3.42-3.12-3.62-6.9-1.18-.81-5-7.53-6.49-10.43,0,0,0-.05,0-.08-2.41-3.83-18.32-34.43-20-38.61A1,1,0,0,1,258.58,267.9Z"/><path class="cls-19" d="M82.41,320.75c-.83-.75-1.9-1.42-2.87-2.32s-1.73-1.68-2.66-2.55-1.81-1.62-2.72-2.49-1.69-1.78-2.58-2.64S69.86,309,69,308.13s-1.83-1.68-2.69-2.53-1.82-1.73-2.66-2.56-1.8-1.79-2.62-2.6-1.92-1.75-2.69-2.52a1.16,1.16,0,0,1-.2-1,1,1,0,0,1,.59-.66c.73-.37,1.23-.57,1.68-.8s.84-.55,1.44-.85c-.86-1.1-1.87-2.16-2.74-3.28-1.06-1.38-2-2.82-2.92-4a1,1,0,0,1-.16-.87,1,1,0,0,1,.57-.73c1.11-.4,2.83-1,3.93-1.42-.52-.72-1.43-1.71-2.25-2.83-.67-.93-1.26-2-1.94-3-.79-1.1-1.58-2.09-2.12-2.85a1,1,0,0,1,0-1,1,1,0,0,1,.79-.59c.59,0,.59,0,1.17-.06,1.17-.09,2.59-.3,4.09-.39s2.79-.15,4.11-.17a23.68,23.68,0,0,1,4.08.35c.55.09,1,.48,2.68,3,.59.89,1.48,1.94,2.4,3.43.63,1,1.25,2.27,2.07,3.65s1.48,2.59,1.78,3a.83.83,0,0,1,.16.73,1,1,0,0,1-.43.69c-.51.26-1,.6-1.56.88-.88.46-1.81.83-2.64,1.24.72,1.21,1.46,2.47,2.22,3.68s1.53,2.34,2.2,3.48a1,1,0,0,1,0,.78c-.07.26-.13.58-.37.71-.54.29-.52.33-1.07.62-.74.39-1.26.56-1.83.9.48.88,1.09,1.91,1.72,3.1.52,1,1.1,2,1.68,3.15s1,2.15,1.56,3.21,1.13,2.13,1.67,3.16,1.24,2.13,1.74,3.12c.61,1.2,1,2.35,1.48,3.25a1,1,0,0,1-.24,1.28A1,1,0,0,1,83,321,.86.86,0,0,1,82.41,320.75Zm-8.89-25.58c-.48-.77-1.16-1.43-1.64-2.21s-.92-1.61-1.36-2.38a1.2,1.2,0,0,1-.15-.88,1.16,1.16,0,0,1,.66-.57c1-.46,2.33-1.05,3.56-1.69.21-.11.39-.28.6-.39-.35-.57-.82-1.29-1.32-2.12s-1.17-2-1.89-3.15-1.42-2.08-2-3.05a27.16,27.16,0,0,0-2-3,24.47,24.47,0,0,0-3.68-.24c-1.18,0-2.45,0-3.69.1s-2.6.27-3.7.35c.6.84,1.42,1.73,2.1,2.68s1.25,2,1.85,2.83l2,2.74A1,1,0,0,1,63,285a1,1,0,0,1-.66.57c-.1,0-1.95,1-3.68,1.68.71.91,1.32,1.84,2.08,2.82.56.72,1.17,1.41,1.72,2.13s1.07,1.51,1.62,2.21a1,1,0,0,1,.22.81,1,1,0,0,1-.55.65c-1.27.62-1.81,1-2.48,1.36-.14.07-.25,0-.41.11.8.8,1.57,1.78,2.53,2.72s1.7,1.75,2.62,2.65,1.89,1.58,2.8,2.46,1.7,1.81,2.6,2.68,1.76,1.78,2.65,2.64,1.84,1.71,2.72,2.55,1.88,1.66,2.75,2.47c-.49-1-1.09-1.87-1.62-2.88s-1-2-1.48-3-1-2-1.52-3-1.13-2-1.62-2.93c-.62-1.15-1.05-2.21-1.48-3a1,1,0,0,1,.23-1.37c1.05-.66,1.67-1,2.73-1.6.08,0,.2.13.17,0C74.47,297,74.06,296,73.52,295.17Z"/><path class="cls-19" d="M227.18,316.67a3.81,3.81,0,0,1-1.46-2.2,10.85,10.85,0,0,1-.34-2.66,7.93,7.93,0,0,1-5.07-.25,9.15,9.15,0,0,1-3.53-2.42,11.76,11.76,0,0,1-2.48-3.56,12.43,12.43,0,0,1-.69-3.3,23.29,23.29,0,0,1,0-3.36,23.92,23.92,0,0,1,.44-3.32,17.52,17.52,0,0,1,.91-3.23,9.23,9.23,0,0,1,1.72-2.86l.09.09a7.32,7.32,0,0,1,2.42-1.9,7.5,7.5,0,0,1,3.07-.55,14.23,14.23,0,0,1,3.06.65,10.89,10.89,0,0,1,.31-2.76,3.49,3.49,0,0,1,1.54-2.2,13.4,13.4,0,0,1,3.28-1.38,30,30,0,0,1,3.47-.88c1.17-.2,2.39-.26,3.57-.36s2.46-.11,3.58-.11c.4,0,1.85.06,3.68.22a34.62,34.62,0,0,1,3.68.37,18.34,18.34,0,0,1,3.53,1.11,5.93,5.93,0,0,1,3,2.15,14.84,14.84,0,0,1,.57,3.77c.1,1.1.09,2.39.16,3.79.06,1.19.18,2.47.21,3.79s.15,2.52.15,3.8,0,2.56,0,3.8-.12,2.6-.18,3.8c-.07,1.39-.1,2.69-.22,3.8a12.1,12.1,0,0,1-.83,3.72,6.68,6.68,0,0,1-2.2,2.07,13,13,0,0,1-2.59,1.6,21.15,21.15,0,0,1-3,.7,30.72,30.72,0,0,1-3.86.65,36.66,36.66,0,0,1-3.91.37,34.58,34.58,0,0,1-4.19-.24,25,25,0,0,1-4.11-.86A13.44,13.44,0,0,1,227.18,316.67Zm1-32.18c-.89.56-1,1.65-1,4,0,.33.14.33.14.67a1,1,0,0,1-.48.76.87.87,0,0,1-.83.1,13.28,13.28,0,0,0-4.14-.59,4.68,4.68,0,0,0-3.67,1.57l-.05,0a8.22,8.22,0,0,0-1.71,3.16,19.4,19.4,0,0,0-.7,3.55,22.9,22.9,0,0,0-.1,3.62,12,12,0,0,0,.51,3.58,9.82,9.82,0,0,0,2,2.89,7.12,7.12,0,0,0,2.87,1.9,6,6,0,0,0,4.9-.19.92.92,0,0,1,.94.05,1,1,0,0,1,.53.8c0,.45,0,.45,0,.9,0,3,.12,3.1,1,3.84a11.34,11.34,0,0,0,3.34,1.55,23.61,23.61,0,0,0,3.65.76,32.2,32.2,0,0,0,3.72.27,34.16,34.16,0,0,0,3.72-.32,29.59,29.59,0,0,0,3.69-.54,17.39,17.39,0,0,0,3.48-1.3,6.27,6.27,0,0,0,2.91-2.21,10.78,10.78,0,0,0,.75-3.47c.1-1,.09-2.24.15-3.54,0-1.12,0-2.31,0-3.54s0-2.35,0-3.55,0-2.39,0-3.55-.13-2.43-.17-3.54c-.05-1.31-.08-2.51-.16-3.54a20.37,20.37,0,0,0-.34-3.55c-.37-.65-1.46-1-2.77-1.47a19.33,19.33,0,0,0-3-.94c-1-.17-2.08-.31-3.15-.39s-2.14,0-3.18,0-2.15.06-3.28.15-2.2.2-3.27.37a31.63,31.63,0,0,0-3.26.52A11.91,11.91,0,0,0,228.19,284.49Zm-8.32,22.85,0,0a8.62,8.62,0,0,1-2.11-3.16,12.7,12.7,0,0,1-.6-3.78,23.26,23.26,0,0,1,1.33-7.51,4.07,4.07,0,0,1,3.94-2.33,4.93,4.93,0,0,1,2.83,1.18,5.63,5.63,0,0,1,1.7,2.53,1,1,0,0,1,.08.36C227,296,227,297.12,227,298c0,1.25-.13,2.21-.09,3.42,0,.91.27,2,.34,3.41,0,.18.06.17.07.35s-.2.44-.33.63a6,6,0,0,1-4.3,2.38c-.13,0-.26.08-.39.08A3.35,3.35,0,0,1,219.88,307.34Zm5.26-12.62a3.35,3.35,0,0,0-2.76-2.21,2,2,0,0,0-1.89,1.27,14,14,0,0,0-1.09,3A14.83,14.83,0,0,0,219,300a10.91,10.91,0,0,0,.7,3.14,6.67,6.67,0,0,0,1.56,2.74l0,0a1.67,1.67,0,0,0,1.29.35,4.1,4.1,0,0,0,2.64-1.37c-.08-1.42-.16-2.48-.19-3.41,0-1.2.06-2.17.08-3.41C225.1,297.22,225.08,296.14,225.13,294.72Z"/><path class="cls-19" d="M239.17,288.47c1.06,0,2.14,0,3.2-.09s2.16-.19,3.19-.32a30.75,30.75,0,0,0,3.14-.6,14.1,14.1,0,0,0,3-1,1,1,0,0,0,.44-1.34,1,1,0,0,0-1.33-.42,13.74,13.74,0,0,1-3.38,1,33.89,33.89,0,0,1-3.5.53c-1.15.1-2.35.15-3.54.18s-2.41,0-3.54,0-2.48-.21-3.52-.35a10.76,10.76,0,0,1-3.43-.83,1,1,0,0,0-1.38.28,1,1,0,0,0,.39,1.39,10.79,10.79,0,0,0,3.32.94,32.1,32.1,0,0,0,3.43.53C236.8,288.46,238,288.47,239.17,288.47Z"/><path class="cls-19" d="M108.32,325.89a4.41,4.41,0,0,1-2.87-2.09,7.1,7.1,0,0,1-1.13-3.28,9.69,9.69,0,0,1,.25-3.48,13.6,13.6,0,0,1,1.65-3.69c.66-1.08,1.28-2.34,2.13-3.5s1.8-2.06,2.63-3.15c.66-.87,1.18-1.9,1.83-2.78s1.46-1.81,2-2.65a7.12,7.12,0,0,0,1.23-3c.06-.84.29-2.16.32-3.74,0-1.15,0-2.44,0-3.75s-.14-2.42-.12-3.46c0-1.33.15-2.48.18-3.45a21.39,21.39,0,0,1,.22-3.45,8.76,8.76,0,0,0,.13-3.67,20.09,20.09,0,0,1,0-4.56,1.11,1.11,0,0,1,1-1c.87,0,.87.25,1.74.26,1.35,0,2.61-.08,3.84,0s2.52.21,3.82.31,2.47,0,3.83.23c1.18.16,1.61,1.39,1.64,3a32.56,32.56,0,0,1-.3,3.6,16.25,16.25,0,0,0-.1,2.58,8.35,8.35,0,0,1,.54,3.27c.07.94.14,2.05.15,3.33,0,1,.1,2.13.09,3.35s-.08,2.49-.07,3.67c0,1.36.09,2.63.19,3.66h.08a10.49,10.49,0,0,0,.57,2.7,12.49,12.49,0,0,1,.87,4.74,3.69,3.69,0,0,1-1.85,3,17.12,17.12,0,0,1-3.24,1.72,13.68,13.68,0,0,0-2,2.4c-.61.79-1.36,1.61-2,2.42s-1.16,1.76-1.8,2.61-1.37,1.65-2,2.45-1.29,1.78-2,2.48a13.21,13.21,0,0,1-2.48,2,9.3,9.3,0,0,1-3.19.81,21.63,21.63,0,0,1-3.26.33A25.32,25.32,0,0,1,108.32,325.89ZM131,298.53c-.1-1.08,0-2.38,0-3.77,0-1.22,0-2.5.06-3.77s0-3,0-4.46c0-2.09-.24-4-.58-4.43s-.55-1.54-.31-3.84c.12-1.19.54-3.64.31-4.39-1.29-.17-2.54-.1-3.7-.19s-2.43-.27-3.65-.31-2.38.11-3.67.1c-.41,0-.6-.52-.85-.2a20.81,20.81,0,0,0,.18,3.24,10.92,10.92,0,0,1,0,4.55,17.5,17.5,0,0,0-.31,3.2c0,1,0,2.12,0,3.26s-.07,2.24-.08,3.26c0,1.33-.09,2.64-.11,3.81,0,1.58.07,2.94,0,3.81a9.2,9.2,0,0,1-1.6,3.35c-.57.94-1.18,2-2,3.13-.69.94-1.54,1.87-2.32,2.9s-1.4,2.15-2.15,3.18-1.54,2.14-2.17,3.14a13.35,13.35,0,0,0-1.72,3.39,7.88,7.88,0,0,0-.15,2.68,5.5,5.5,0,0,0,.71,2.6,2.57,2.57,0,0,0,1.62,1.14,22.14,22.14,0,0,0,3.9,0,9.36,9.36,0,0,0,3.77-.85,14.46,14.46,0,0,0,2.9-2.67c.83-.92,1.61-2,2.45-3.11s1.7-2.1,2.45-3.12c.86-1.17,1.58-2.14,2.2-2.93a7.73,7.73,0,0,1,2.66-2.42c2.27-1,3.8-1.83,3.8-3a10.1,10.1,0,0,0-.87-4,12.72,12.72,0,0,1-.66-3.2S131,298.53,131,298.53Z"/><path class="cls-19" d="M131,282.8a1,1,0,0,0,1-.68,1,1,0,0,0-.62-1.27,18.52,18.52,0,0,0-3.33-.73c-1-.15-2.22-.27-3.39-.37s-2.33-.14-3.41-.18a32.61,32.61,0,0,0-3.41,0,1,1,0,0,0-.91,1.07,1,1,0,0,0,1.07.94,29.6,29.6,0,0,1,3.19,0c1,0,2.12.06,3.2.15s2.2.24,3.18.38a18.55,18.55,0,0,1,3.13.61A1,1,0,0,0,131,282.8Z"/><path class="cls-19" d="M114,319.2a1,1,0,0,0,.9-.62,1,1,0,0,0-.5-1.32,15,15,0,0,0-3.3-.83c-2.49-.44-2.48-.46-5-.9a1,1,0,0,0-1.15.83,1,1,0,0,0,.8,1.14l5,.89a13.42,13.42,0,0,1,2.87.71A1,1,0,0,0,114,319.2Z"/><path class="cls-19" d="M128.24,311.23a1,1,0,0,0,.4,0,1,1,0,0,0,.55-1.34,28.4,28.4,0,0,0-1.61-3.23,28.11,28.11,0,0,0-2-3c1.12-.51,2.24-1,3.39-1.43s2.35-.76,3.53-1.09a1,1,0,0,0,.66-1.24,1,1,0,0,0-1.21-.7c-1,.27-1.91.6-2.85.93s-1.9.64-2.82,1-1.84.8-2.74,1.24a1,1,0,0,0-.51.7,1,1,0,0,0,.19.84,25.21,25.21,0,0,1,4.12,6.71A1,1,0,0,0,128.24,311.23Z"/><path class="cls-19" d="M168.72,321.73a7.49,7.49,0,0,1-2.66-1.91,3.13,3.13,0,0,1-.78-3.09,18.14,18.14,0,0,1,.94-2.12c.42-.85,1-1.92,1.56-3.09s1.14-2.07,1.56-3.11a16.15,16.15,0,0,0,.94-3.32,2.5,2.5,0,0,0-.9-2.68,13.94,13.94,0,0,0-2.63-1.47,23,23,0,0,1-2.75-1.66,8.15,8.15,0,0,1-2.33-2.15,10,10,0,0,1-1.55-2.93,9.83,9.83,0,0,1-.21-3.32,13,13,0,0,1,.65-3.27,18.44,18.44,0,0,1,1.47-3,23.76,23.76,0,0,1,2-2.68c.92-1.19,1.63-2.19,2-2.61a13.06,13.06,0,0,1,2.67-1.71,14.79,14.79,0,0,1,2.78-1.5,14.46,14.46,0,0,1,3.12-.6,11.81,11.81,0,0,1,3.17.07,14,14,0,0,1,4.68,1.8l0,0a19.77,19.77,0,0,1,2.91,2.13,24.62,24.62,0,0,1,2.44,2.65,22.65,22.65,0,0,1,2.15,2.89,17.85,17.85,0,0,1,1.7,3.2,12,12,0,0,1,.5,3.58,8.7,8.7,0,0,1-.44,3.57,6,6,0,0,1-2.42,3,9.43,9.43,0,0,1-3.68,1,9.45,9.45,0,0,0-3.23,1c-.71.4-.85,1.7-.55,3.28a31.12,31.12,0,0,0,1.06,3.27c.36,1.11.84,2.19,1.21,3.21s.75,2.16,1.08,3.15a23.75,23.75,0,0,1,.72,3.24,6,6,0,0,1,.06,3.31,5.62,5.62,0,0,1-3.35,2.72,14,14,0,0,1-2.88.64,21.44,21.44,0,0,1-2.94.2,24,24,0,0,1-4.13-.39A16,16,0,0,1,168.72,321.73Zm12.71-42.61a12,12,0,0,0-4-1.56,10.31,10.31,0,0,0-3.56.19,12.81,12.81,0,0,0-3.34,1.18,10.93,10.93,0,0,0-2.91,2,19.2,19.2,0,0,0-2.36,2.47,22.08,22.08,0,0,0-1.74,2.94,13.91,13.91,0,0,0-1.3,3.15,8.81,8.81,0,0,0-.18,3.39,7.53,7.53,0,0,0,1.12,3.23c1,1.47,2.79,2.27,4.44,3.06a12.09,12.09,0,0,1,3.73,2.16,4.59,4.59,0,0,1,1,4.1,18,18,0,0,1-1,3.53c-.44,1.1-1,2.24-1.54,3.34s-1.25,2.31-1.72,3.24a12.76,12.76,0,0,0-.72,1.92c-.43,1.23,1.84,2.51,2.12,2.64a15.64,15.64,0,0,0,4.1.9,22.62,22.62,0,0,0,4.18.28,13.79,13.79,0,0,0,4.1-.75,3.61,3.61,0,0,0,2.1-1.61c.33-.74,0-2.29-.5-4.09-.39-1.3-.91-2.71-1.37-4-.38-1.05-.65-2.12-1-3.13s-.74-2.14-1-3.13a11.06,11.06,0,0,1-.47-3.26,3.28,3.28,0,0,1,1.78-2.62,11.42,11.42,0,0,1,3.85-1.3,8.48,8.48,0,0,0,2.69-.65,3.8,3.8,0,0,0,1.85-2,7.11,7.11,0,0,0,.31-3.74,12.51,12.51,0,0,0-1.1-3.61,19.73,19.73,0,0,0-2.14-3.11,22.37,22.37,0,0,0-2.58-2.72,17.8,17.8,0,0,0-3-2.28S181.43,279.12,181.43,279.12Z"/><path class="cls-19" d="M168.69,301.6a1,1,0,0,0,.48-1.86c-1.51-.84-1.74-1.42-1.71-1.57.06-.33.86-1,2.92-1.64a25.9,25.9,0,0,1,3.39-.64c1.25-.18,2.42-.39,3.5-.43a25.44,25.44,0,0,1,3.52.16c1.92.17,3.11.54,3.3.9l0,0s-.12.77-2.69,2.2A1,1,0,0,0,181,300a1,1,0,0,0,1.37.44,13.58,13.58,0,0,0,2.53-1.74,2.84,2.84,0,0,0,1.14-2.72c-.27-1.05-1.42-1.8-3.35-2.18a22.21,22.21,0,0,0-4.16-.29c-.89,0-2.16.05-3.58.19a34.11,34.11,0,0,0-3.55.51,16.67,16.67,0,0,0-3.4,1.12c-1.31.59-2.3,1.33-2.56,2.33-.35,1.36.6,2.6,2.75,3.79A1,1,0,0,0,168.69,301.6Z"/><ellipse class="cls-19" cx="181.01" cy="285.02" rx="2.18" ry="2.17"/><path class="cls-19" d="M168.48,282.86a3.29,3.29,0,1,0,6.57,0,3.29,3.29,0,0,0-6.57,0Z"/><path class="cls-19" d="M162.87,296.38a3,3,0,0,0-1.71-5.82"/><path class="cls-19" d="M172.14,290.22a1.82,1.82,0,0,0,3.64,0,1.82,1.82,0,1,0-3.64,0Z"/><path class="cls-19" d="M186.34,290.62a2.11,2.11,0,1,0,2.11-2.11A2.12,2.12,0,0,0,186.34,290.62Z"/><path class="cls-19" d="M283,305a27.07,27.07,0,0,1-1.89-3.17c-.51-.92-1-2.05-1.67-3.27-.54-1-1.17-2.06-1.78-3.2s-1-2.2-1.56-3.32-1.21-2.1-1.78-3.2l-1.69-3.25c-.57-1.09-1.17-2.16-1.73-3.24s-1.06-2.24-1.6-3.31-1.26-2.16-1.79-3.2-1.17-2.24-1.68-3.26c-.61-1.22-1-2.41-1.47-3.37-.76-1.55-1.36-2.68-1.61-3.29-.08-.19,0-.38.08-.58a3,3,0,0,1,1.65-2.1,4.31,4.31,0,0,1,2.69-.25,1,1,0,0,1,.58.6c.37.75,1.06,1.73,1.76,3,.5.9,1.07,1.92,1.7,3l1.73,3c.56,1,1.1,2,1.7,3s1.07,2,1.66,3,1.26,1.94,1.84,2.94,1.37,2.19,2,3.23,1.2,2.3,1.8,3.34,1.46,2.17,2,3.19c.69,1.2,1.24,2.35,1.8,3.34q1.08,1.9,1.85,3.31a21.35,21.35,0,0,1,1.63,3.39c.14.58.15,1.72-1.58,2.81a7.21,7.21,0,0,1-3.34,1.14A2.13,2.13,0,0,1,283,305Zm-17.67-39.82a.94.94,0,0,0-.49.34c.33.77.76,1.89,1.41,3.22.46.95,1,2,1.63,3.15.5,1,.88,2.13,1.45,3.24s1.14,2,1.7,3.11l1.63,3.15c.54,1,1.13,2.07,1.68,3.12s1,2.15,1.57,3.18,1.24,2.05,1.78,3.08,1.16,2.12,1.69,3.12,1,2.25,1.51,3.22c.63,1.17,1.25,2.19,1.73,3.09.83,1.54,1.36,2.75,1.63,3.21a6,6,0,0,0,2.31-.92,2.09,2.09,0,0,0,.72-.62,19.37,19.37,0,0,0-1.55-3.34c-.52-.94-1.25-2-1.93-3.15-.57-1-1.18-2.08-1.83-3.2L280.12,289c-.62-1.06-1.2-2.16-1.82-3.22s-1.17-2.2-1.78-3.24-1.24-1.92-1.81-2.88-1.22-1.94-1.78-2.9-1.05-2.06-1.6-3-1.31-1.94-1.84-2.86-1.09-2.12-1.59-3c-.66-1.18-1.21-2.19-1.62-3A2.12,2.12,0,0,0,265.33,265.17Zm18.85,38.05-.1.08S284.18,303.22,284.18,303.22Z"/><path class="cls-19" d="M289.9,315.24a8.48,8.48,0,0,0,4-1.46,2,2,0,0,0,.83-2,13.93,13.93,0,0,0-1.4-3.25c-.48-.9-1.07-1.94-1.74-3.11-.55-1-1.16-2-1.81-3.08-.34-.57-.56-1-.67-1.21a1,1,0,0,0-1.34-.38,1,1,0,0,0-.4,1.35c.11.21.41.63.77,1.22s.93,1.71,1.6,2.88c.54.94,1.12,1.95,1.63,2.88a20.38,20.38,0,0,1,1.45,3,6.36,6.36,0,0,1-2.68,1.13c-.37-.49-1.11-1.64-2-3.1-.58-.93-1.25-2-1.9-3.15s-1.16-2.15-1.72-3.25a1,1,0,0,0-1.32-.42,1,1,0,0,0-.48,1.33c.47.93,1.2,2.25,2,3.65.69,1.21,1.48,2.44,2.18,3.54a12.33,12.33,0,0,0,2.48,3.27A1.21,1.21,0,0,0,289.9,315.24Z"/><path class="cls-19" d="M298.82,326.7a1,1,0,0,0,.33-.1,1,1,0,0,0,.65-.67,11.82,11.82,0,0,0,.25-3.22,19.56,19.56,0,0,0-.45-3.2,17.42,17.42,0,0,0-.9-3.11,8.17,8.17,0,0,0-1.93-2.52,21.24,21.24,0,0,0-2.46-2,1,1,0,0,0-1.43.26,1,1,0,0,0,.28,1.38c.82.58,3,2.13,3.66,3.72a15.43,15.43,0,0,1,1,3.22,16.4,16.4,0,0,1,.27,3.38c-.42-.37-.78-.67-1.11-1a20.59,20.59,0,0,0-2.86-2.52,5.91,5.91,0,0,1-2.36-2.52,10.12,10.12,0,0,1-.52-3.46,1,1,0,0,0-1-1,1.05,1.05,0,0,0-1,1,11.58,11.58,0,0,0,.75,4.34,8,8,0,0,0,2.93,3.24,20.41,20.41,0,0,1,2.68,2.27,21.31,21.31,0,0,0,2.66,2.28A1,1,0,0,0,298.82,326.7Z"/><path class="cls-18" d="M266.29,70.81c-.2,0-.47.13-.64,0a1.11,1.11,0,0,1-.26-1.3c.43-.85.9-1.91,1.48-3,.48-.94,1.11-1.91,1.65-3s1.1-2,1.63-3,1-2.06,1.52-3,1.06-2.08,1.56-3c.6-1.13,1.16-2.13,1.61-3-.55-.32-1.07-.47-1.77-.85-.52-.28-.47-.37-1-.65a.91.91,0,0,1-.39-.61.79.79,0,0,1,.13-.66c.64-1.08,1.27-2.24,2-3.37s1.32-2.35,2-3.5c-.79-.39-1.52-.85-2.36-1.29l-1.51-.78a1,1,0,0,1-.56-.57,1,1,0,0,1,.25-.75c.29-.42.8-1.65,1.58-3s1.6-2.35,2.2-3.32c.87-1.42,1.51-2.55,2.07-3.4,1.6-2.42,2.14-2.73,2.66-2.81a23.78,23.78,0,0,1,3.88-.24c1.26,0,2.6.1,3.9.18s2.79.09,3.9.17l1.11.07a1,1,0,0,1,.73.65.79.79,0,0,1-.12.86c-.52.72-1.06,1.8-1.81,2.84s-1.42,1.79-2.06,2.68l-2,2.8c1,.43,2.67,1.07,3.72,1.46A.93.93,0,0,1,292,38a1.09,1.09,0,0,1-.11.92c-.89,1.15-1.94,2.38-2.94,3.69-.82,1.07-1.7,2.13-2.51,3.18.57.28,1,.45,1.42.67s.83.55,1.52.9c.27.14.58.32.63.62a1.15,1.15,0,0,1-.26.92c-.73.73-1.62,1.51-2.53,2.42s-1.59,1.62-2.47,2.48l-2.49,2.46c-.82.8-1.73,1.54-2.58,2.37s-1.66,1.64-2.51,2.45-1.62,1.71-2.45,2.51-1.82,1.53-2.65,2.31-1.7,1.68-2.52,2.44-1.86,1.58-2.64,2.29A.81.81,0,0,1,266.29,70.81Z"/><path class="cls-18" d="M117.89,69.38a34.92,34.92,0,0,1-3.72-.24,30.23,30.23,0,0,1-3.7-.48,18.8,18.8,0,0,1-4-1.52,7.17,7.17,0,0,1-3.15-2.82,10,10,0,0,1-.93-3.46c-.12-1.05-.18-2.28-.25-3.6-.06-1.14,0-2.36-.07-3.61s0-2.4,0-3.61,0-2.43,0-3.61,0-2.47.1-3.61c.06-1.33.26-2.54.36-3.59a15.19,15.19,0,0,1,.48-3.58,5.61,5.61,0,0,1,2.76-2.17,18,18,0,0,1,3.42-.84,33.78,33.78,0,0,1,3.48-.45c1.74-.15,3.12-.23,3.5-.23,1.06,0,2.21,0,3.39.14s2.28.14,3.39.32a28.63,28.63,0,0,1,3.31.82,12.59,12.59,0,0,1,3.1,1.35c1.61,1,1.73,2.66,1.74,4.71a11,11,0,0,1,4.41-.5,6.57,6.57,0,0,1,3.79,2.14l.08-.07a9.71,9.71,0,0,1,1.85,3.52,19.33,19.33,0,0,1,.76,3.89,23.14,23.14,0,0,1,.21,4,13.15,13.15,0,0,1-.64,3.92,11.45,11.45,0,0,1-2.2,3.51,8.94,8.94,0,0,1-3.45,2.26,7.4,7.4,0,0,1-4.77.18c0,2.49-.18,3.43-1.7,4.69a13.35,13.35,0,0,1-3.68,1.49,23.09,23.09,0,0,1-3.85,1A33.13,33.13,0,0,1,117.89,69.38Zm13.28-13.78A4.08,4.08,0,0,0,133.72,57a1.57,1.57,0,0,0,1.21-.43l.06.06A7.15,7.15,0,0,0,136.84,53a12.6,12.6,0,0,0-.1-4.08,13.56,13.56,0,0,0-1.08-3.9,1.75,1.75,0,0,0-1.75-1.11,3,3,0,0,0-2.6,2c0,1.35.1,2.37.12,3.24,0,1.17,0,2.1,0,3.24C131.36,53.23,131.24,54.24,131.16,55.59Z"/><path class="cls-18" d="M239.82,75.6a20.78,20.78,0,0,1-3.1-.35,8.17,8.17,0,0,1-2.9-1,14.35,14.35,0,0,1-3-2.61c-.85-.93-1.76-1.94-2.61-3s-1.79-2-2.57-3.09c-.57-.77-1-1.73-1.61-2.48A8.23,8.23,0,0,0,222,61a16.38,16.38,0,0,1-3.05-1.73,3.7,3.7,0,0,1-1.82-2.92,11.19,11.19,0,0,1,1-4.48,9.92,9.92,0,0,0,.6-2.58h-.15c.09-1,.23-2.17.24-3.46,0-1.12-.07-2.31-.08-3.48s0-2.22,0-3.18c0-1.22.09-2.28.16-3.17a7.82,7.82,0,0,1,.57-3.12,12.28,12.28,0,0,0,.05-2.44A31.54,31.54,0,0,1,219.2,27c0-1.5.4-2.48,1.52-2.64,1.29-.18,2.46-.48,3.61-.57s2.43-.15,3.64-.18,2.36,0,3.64,0c.83,0,.83-.08,1.66-.09a.93.93,0,0,1,.87.93,18.8,18.8,0,0,1,0,4.31,8.41,8.41,0,0,0,.18,3.51,19.71,19.71,0,0,1,.22,3.27c0,.92.09,2,.11,3.27,0,1,.11,2.09.12,3.29s-.06,2.47,0,3.57c0,1.49.06,2.76.12,3.56A7.1,7.1,0,0,0,236,52.12c.51.8,1.16,1.68,1.82,2.58s1.37,1.62,2,2.45c.79,1,1.5,2.15,2.25,3.18s1.65,2.13,2.28,3.16A13.11,13.11,0,0,1,245.91,67a9.76,9.76,0,0,1,.4,3.37,7.17,7.17,0,0,1-1.19,3.2,4.13,4.13,0,0,1-2.9,1.75A16.65,16.65,0,0,1,239.82,75.6Z"/><path class="cls-18" d="M177.2,73a20.22,20.22,0,0,1-2.78-.18,13.54,13.54,0,0,1-2.75-.53,5.37,5.37,0,0,1-3.2-2.56,5.64,5.64,0,0,1-.09-3.18,26.47,26.47,0,0,1,1-3c.31-.94.56-2,.94-3s.79-2,1.13-3.05a27.12,27.12,0,0,0,.84-3.14c.29-1.5.35-2.78-.33-3.16a9.12,9.12,0,0,0-3.12-.81,9.05,9.05,0,0,1-3.53-.89,5.8,5.8,0,0,1-2.21-2.89,8.38,8.38,0,0,1-.65-3.38,11.6,11.6,0,0,1,.72-3.37,16.79,16.79,0,0,1,1.57-3,21.73,21.73,0,0,1,1.87-2.89,22.73,22.73,0,0,1,2.58-2.27,19.73,19.73,0,0,1,2.63-2.19l0,.05a13.34,13.34,0,0,1,4.42-1.75,11.7,11.7,0,0,1,4,0,14.23,14.23,0,0,1,3.8,1.29,12.57,12.57,0,0,1,3.27,2.3,30.59,30.59,0,0,1,2.37,2.93,21.37,21.37,0,0,1,2,3.18,14.63,14.63,0,0,1,1.4,3.52,10,10,0,0,1-.12,3.77,9,9,0,0,1-1.31,3.53,8.07,8.07,0,0,1-2.25,2.09,21,21,0,0,1-2.75,1.35,12.77,12.77,0,0,0-2.48,1.46,2.56,2.56,0,0,0-1,2.61,18.44,18.44,0,0,0,1.15,3.1c.4,1,.94,2,1.41,3s1,2.16,1.43,3a11.82,11.82,0,0,1,.8,2,3,3,0,0,1-.47,3,7.48,7.48,0,0,1-2.6,1.84,15.66,15.66,0,0,1-3.79,1.08A22.81,22.81,0,0,1,177.2,73Z"/><path class="cls-18" d="M95.6,17.91A2.91,2.91,0,0,0,93.9,16a4,4,0,0,0-2.54-.24,1,1,0,0,0-.63.5c-1.4,2.81-5.68,10.1-9.82,17.14C74.78,43.83,71,50.39,70.41,52l-.63,1.08c-2.67,4.54-4.5,7.8-4.7,9a1.68,1.68,0,0,0,0,.43,10.73,10.73,0,0,0-3.65,3.95,16.54,16.54,0,0,0-1.07,9,1,1,0,0,0,.6.67.95.95,0,0,0,.89-.13,20.09,20.09,0,0,0,2.52-2.17,19.11,19.11,0,0,1,2.54-2.17c2.24-1.64,3.25-3,3.44-6.55,1.12-.77,4.78-7.15,6.17-9.91,0,0,0,0,0-.07,2.29-3.64,17.41-32.71,19-36.68A1,1,0,0,0,95.6,17.91Z"/><path class="cls-19" d="M262.4,68.34c-.2,0-.47.13-.64,0a1.11,1.11,0,0,1-.26-1.3c.43-.85.9-1.91,1.48-3,.48-.94,1.11-1.91,1.65-3s1.1-2,1.63-3,1-2.06,1.52-3,1.06-2.08,1.56-3c.6-1.13,1.16-2.13,1.61-3-.55-.32-1.07-.47-1.77-.85-.52-.28-.47-.37-1-.65a.91.91,0,0,1-.39-.61.79.79,0,0,1,.13-.66c.64-1.08,1.27-2.24,2-3.37s1.32-2.35,2-3.5c-.79-.39-1.52-.85-2.36-1.29L268,37.32a1,1,0,0,1-.56-.57,1,1,0,0,1,.25-.75c.29-.42.8-1.65,1.58-3s1.6-2.35,2.2-3.32c.87-1.42,1.51-2.55,2.07-3.4,1.6-2.42,2.14-2.73,2.66-2.81a23.78,23.78,0,0,1,3.88-.24c1.26,0,2.6.1,3.9.18s2.79.09,3.9.17l1.11.07a1,1,0,0,1,.73.65.79.79,0,0,1-.12.86c-.52.72-1.06,1.8-1.81,2.84s-1.42,1.79-2.06,2.68l-2,2.8c1,.43,2.67,1.07,3.72,1.46a.93.93,0,0,1,.64.55,1.09,1.09,0,0,1-.11.92c-.89,1.15-1.94,2.38-2.94,3.69-.82,1.07-1.7,2.13-2.51,3.18.57.28,1,.45,1.42.67s.83.55,1.52.9c.27.14.58.32.63.62a1.15,1.15,0,0,1-.26.92c-.73.73-1.62,1.51-2.53,2.42s-1.59,1.62-2.47,2.48l-2.49,2.46c-.82.8-1.73,1.54-2.58,2.37s-1.66,1.64-2.51,2.45-1.62,1.71-2.45,2.51-1.82,1.53-2.65,2.31-1.7,1.68-2.52,2.44-1.86,1.58-2.64,2.29A.81.81,0,0,1,262.4,68.34Zm7.49-22.06c0,.08.23,0,.3,0,1,.54,1.59.9,2.59,1.53a1.12,1.12,0,0,1,.4,1.38c-.49.89-1.25,2-2,3.43-.57,1.08-1.27,2.24-1.92,3.47s-1.17,2.37-1.79,3.55-1.22,2.39-1.8,3.51c.83-.77,1.66-1.58,2.54-2.42s1.62-1.69,2.49-2.52,1.78-1.56,2.63-2.38,1.77-1.59,2.61-2.41,1.75-1.64,2.57-2.45,1.67-1.75,2.47-2.54,1.63-1.83,2.39-2.59l-.31-.16c-.64-.33-1.2-.62-2.4-1.21a1,1,0,0,1-.58-.61,1,1,0,0,1,.29-.77c1-1.32,2-2.85,3-4.23.72-.93,1.56-1.8,2.23-2.67L282,34.8a.94.94,0,0,1-.49-.65.91.91,0,0,1,.1-.8s.82-1.09,1.89-2.58c.57-.79,1.14-1.76,1.79-2.66s1.29-1.73,1.86-2.52c-1-.08-2.18-.27-3.42-.34s-2.39-.17-3.51-.19a21.6,21.6,0,0,0-3.47.32,17.58,17.58,0,0,0-2.08,2.75c-.59.92-1.29,1.93-1.9,2.93s-1.29,2.2-1.77,3-.8,1.54-1.13,2.08c.2.1.41.11.61.21,1.17.6,2.34,1.29,3.32,1.73a1.1,1.1,0,0,1,.46,1.39c-.83,1.46-1.88,2.92-2.8,4.39C270.92,44.66,270.37,45.48,269.88,46.28Z"/><path class="cls-19" d="M114,66.91a34.92,34.92,0,0,1-3.72-.24,30.23,30.23,0,0,1-3.7-.48,18.8,18.8,0,0,1-4-1.52,7.17,7.17,0,0,1-3.15-2.82,10,10,0,0,1-.93-3.46c-.12-1.05-.18-2.28-.25-3.6-.06-1.14,0-2.36-.07-3.61s0-2.4,0-3.61,0-2.43,0-3.61,0-2.47.1-3.61c.06-1.33.26-2.54.36-3.59a15.19,15.19,0,0,1,.48-3.58A5.61,5.61,0,0,1,101.85,31a18,18,0,0,1,3.42-.84,33.78,33.78,0,0,1,3.48-.45c1.74-.15,3.12-.23,3.5-.23,1.06,0,2.21,0,3.39.14s2.28.14,3.39.32a28.63,28.63,0,0,1,3.31.82,12.59,12.59,0,0,1,3.1,1.35c1.61,1,1.73,2.66,1.74,4.71a11,11,0,0,1,4.41-.5,6.57,6.57,0,0,1,3.79,2.14l.08-.07a9.71,9.71,0,0,1,1.85,3.52,19.33,19.33,0,0,1,.76,3.89,23.14,23.14,0,0,1,.21,4,13.15,13.15,0,0,1-.64,3.92,11.45,11.45,0,0,1-2.2,3.51A8.94,8.94,0,0,1,132,59.48a7.4,7.4,0,0,1-4.77.18c0,2.49-.18,3.43-1.7,4.69a13.35,13.35,0,0,1-3.68,1.49,23.09,23.09,0,0,1-3.85,1A33.13,33.13,0,0,1,114,66.91Zm-1.75-35.56a38.43,38.43,0,0,0-4,.17,26.49,26.49,0,0,0-3.94.83c-1.73.45-3.09,1-3.52,1.78a15.79,15.79,0,0,0-.56,3.82c-.08,1.13.06,2.44,0,3.85,0,1.22-.1,2.52-.11,3.84S100,48.22,100,49.5s0,2.63,0,3.85c0,1.41.14,2.72.24,3.84A12.38,12.38,0,0,0,101,61a5.78,5.78,0,0,0,2.65,2.28,18.22,18.22,0,0,0,3.4,1,27.87,27.87,0,0,0,3.49.55,32.4,32.4,0,0,0,3.53.32,30.93,30.93,0,0,0,3.55-.18,22.42,22.42,0,0,0,3.47-.74,11.1,11.1,0,0,0,3.22-1.42c.84-.71.77-.83.8-3.73,0-.43.08-.43.09-.85a1,1,0,0,1,.51-.8.89.89,0,0,1,.9,0,5.72,5.72,0,0,0,4.69.19,6.88,6.88,0,0,0,2.77-1.79,9.47,9.47,0,0,0,1.66-2.87,10.31,10.31,0,0,0,.7-3.33,21.69,21.69,0,0,0,0-3.45,18.34,18.34,0,0,0-.76-3.37,7.66,7.66,0,0,0-1.67-3h0a4.51,4.51,0,0,0-3.48-1.56,13.44,13.44,0,0,0-3.87.81,1.14,1.14,0,0,1-.92-.18c-.24-.18-.24-.52-.25-.82s-.22-.32-.22-.63c0-2.19.12-3.25-.73-3.78a13.53,13.53,0,0,0-3.93-1.44,36.25,36.25,0,0,0-4.15-.51A41.67,41.67,0,0,0,112.25,31.35Zm17.81,24.89c-.12,0-.24-.05-.37-.06A5.69,5.69,0,0,1,125.55,54a1,1,0,0,1-.1-.63c0-.17,0-.17.06-.33.07-1.37-.07-2.39,0-3.26,0-1.15.09-2.06.07-3.24,0-.87,0-1.88,0-3.25a1,1,0,0,1,.09-.34,5.33,5.33,0,0,1,1.62-2.4,4.62,4.62,0,0,1,2.69-1.08,3.64,3.64,0,0,1,3.56,2.25,15.11,15.11,0,0,1,1.27,3.41,15.91,15.91,0,0,1,.34,3.64,12.06,12.06,0,0,1-.79,3.56,8.18,8.18,0,0,1-1.91,3.05l0,0A3.23,3.23,0,0,1,130.05,56.24Zm-2.79-3.12a4.08,4.08,0,0,0,2.55,1.36,1.57,1.57,0,0,0,1.21-.43l.06.06a7.15,7.15,0,0,0,1.84-3.63,12.6,12.6,0,0,0-.1-4.08,13.56,13.56,0,0,0-1.08-3.9A1.75,1.75,0,0,0,130,41.4a3,3,0,0,0-2.6,2c0,1.35.1,2.37.12,3.24,0,1.17,0,2.1,0,3.24C127.47,50.76,127.34,51.78,127.27,53.13Z"/><path class="cls-19" d="M114,37.39c-1.35,0-2.72-.05-4-.16a37.72,37.72,0,0,1-4-.5,15.55,15.55,0,0,1-3.88-1.14,1,1,0,0,1-.41-1.31,1,1,0,0,1,1.28-.42,13,13,0,0,0,3.2,1,32.41,32.41,0,0,0,3.32.48c1.09.1,2.23.1,3.36.13s2.28,0,3.36,0,2.35-.18,3.34-.31a10.13,10.13,0,0,0,3.24-.77,1,1,0,0,1,1.35.32,1,1,0,0,1-.4,1.3,9.7,9.7,0,0,1-3.12,1,31.58,31.58,0,0,1-3.27.44C116.29,37.45,115.17,37.39,114,37.39Z"/><path class="cls-19" d="M235.92,73.13a20.78,20.78,0,0,1-3.1-.35,8.17,8.17,0,0,1-2.9-1,14.35,14.35,0,0,1-3-2.61c-.85-.93-1.76-1.94-2.61-3s-1.79-2-2.57-3.09c-.57-.77-1-1.73-1.61-2.48a8.23,8.23,0,0,0-2.07-2A16.38,16.38,0,0,1,215,56.8a3.7,3.7,0,0,1-1.82-2.92,11.19,11.19,0,0,1,1-4.48,9.92,9.92,0,0,0,.6-2.58h-.15c.09-1,.23-2.17.24-3.46,0-1.12-.07-2.31-.08-3.48s0-2.22,0-3.18c0-1.22.09-2.28.16-3.17a7.82,7.82,0,0,1,.57-3.12,12.28,12.28,0,0,0,.05-2.44,31.54,31.54,0,0,1-.34-3.41c0-1.5.4-2.48,1.52-2.64,1.29-.18,2.46-.48,3.61-.57s2.43-.15,3.64-.18,2.36,0,3.64,0c.83,0,.83-.08,1.66-.09a.93.93,0,0,1,.87.93,18.8,18.8,0,0,1,0,4.31,8.41,8.41,0,0,0,.18,3.51,19.71,19.71,0,0,1,.22,3.27c0,.92.09,2,.11,3.27,0,1,.11,2.09.12,3.29s-.06,2.47,0,3.57c0,1.49.06,2.76.12,3.56a7.1,7.1,0,0,0,1.21,2.89c.51.8,1.16,1.68,1.82,2.58s1.37,1.62,2,2.45c.79,1,1.5,2.15,2.25,3.18S239.82,60,240.45,61A13.11,13.11,0,0,1,242,64.56a9.76,9.76,0,0,1,.4,3.37,7.17,7.17,0,0,1-1.19,3.2,4.13,4.13,0,0,1-2.9,1.75A16.65,16.65,0,0,1,235.92,73.13ZM216.75,47a10.85,10.85,0,0,1-.86,3,10,10,0,0,0-.76,3.88c0,1.13,1.49,2,3.65,2.9a7.5,7.5,0,0,1,2.47,2.33c.59.75,1.43,1.55,2.25,2.66s1.32,2.12,2.1,3.14,1.75,1.9,2.54,2.78a14.15,14.15,0,0,0,2.69,2.59,9,9,0,0,0,3.59.71,21.84,21.84,0,0,0,3.7.13A2.42,2.42,0,0,0,239.59,70a6.13,6.13,0,0,0,.47-4.94,11.67,11.67,0,0,0-1.47-3.27c-.6-.95-1.36-1.92-2.11-3s-1.43-2-2.15-2.93-1.41-2-2.07-2.86-1.55-2-2.09-2.85a7.4,7.4,0,0,1-1.1-3.31c-.05-.83-.2-2.1-.22-3.61,0-1.11.08-2.35.07-3.62,0-1-.2-2-.21-3.1s0-2.15-.06-3.1a27.26,27.26,0,0,0-.14-3.08,10.31,10.31,0,0,1-.23-4.29,19.41,19.41,0,0,0,.3-3.1c-.23-.31-.46,0-.85,0-1.23,0-2.37.12-3.48.16s-2.3,0-3.48.11-2.22.23-3.45.4a17.92,17.92,0,0,0,.22,4.08c.22,2.19.21,3.13-.21,3.7s-.43,2.18-.47,4.16c0,1.42-.14,3-.13,4.23s0,2.43,0,3.58c0,1.32.07,2.55,0,3.58C216.75,47,216.75,47,216.75,47Z"/><path class="cls-19" d="M216.83,32a.91.91,0,0,1-.88-.61,1,1,0,0,1,.55-1.22,18.14,18.14,0,0,1,3.17-.66c1-.14,2.1-.28,3.22-.37s2.21-.18,3.24-.21a29.44,29.44,0,0,1,3.24.07,1,1,0,0,1,.88,1,.93.93,0,0,1-1,.84,33.46,33.46,0,0,0-4.05,0c-1.34.07-2.75.22-4,.37a22.11,22.11,0,0,0-4,.7A.89.89,0,0,1,216.83,32Z"/><path class="cls-19" d="M232.94,66.65a1,1,0,0,1-.9-.57,1,1,0,0,1,.53-1.24A14.25,14.25,0,0,1,235.7,64c2.36-.42,2.37-.4,4.73-.81a1,1,0,0,1,1.11.75,1,1,0,0,1-.78,1.12L236,65.9a12.68,12.68,0,0,0-2.71.69A1,1,0,0,1,232.94,66.65Z"/><path class="cls-19" d="M219.42,59.1a1,1,0,0,1-.36-.1.91.91,0,0,1-.49-1.22A28.12,28.12,0,0,1,222,51.86c-1.06-.48-2.17-.9-3.27-1.3s-2.2-.81-3.33-1.12a1,1,0,0,1-.69-1.16,1,1,0,0,1,1.2-.65c1.37.39,2.74.8,4.07,1.31s2.63,1.12,3.91,1.74a.94.94,0,0,1,.51.65,1,1,0,0,1-.18.83,23.36,23.36,0,0,0-3.91,6.37A1,1,0,0,1,219.42,59.1Z"/><path class="cls-19" d="M173.31,70.51a20.22,20.22,0,0,1-2.78-.18,13.54,13.54,0,0,1-2.75-.53,5.37,5.37,0,0,1-3.2-2.56,5.64,5.64,0,0,1-.09-3.18,26.47,26.47,0,0,1,1-3c.31-.94.56-2,.94-3s.79-2,1.13-3.05a27.12,27.12,0,0,0,.84-3.14c.29-1.5.35-2.78-.33-3.16a9.12,9.12,0,0,0-3.12-.81A9.05,9.05,0,0,1,161.4,47a5.8,5.8,0,0,1-2.21-2.89,8.38,8.38,0,0,1-.65-3.38,11.6,11.6,0,0,1,.72-3.37,16.79,16.79,0,0,1,1.57-3,21.73,21.73,0,0,1,1.87-2.89,22.73,22.73,0,0,1,2.58-2.27,19.73,19.73,0,0,1,2.63-2.19l0,.05a13.34,13.34,0,0,1,4.42-1.75,11.7,11.7,0,0,1,4,0,14.23,14.23,0,0,1,3.8,1.29,12.57,12.57,0,0,1,3.27,2.3,30.59,30.59,0,0,1,2.37,2.93,21.37,21.37,0,0,1,2,3.18,14.63,14.63,0,0,1,1.4,3.52,10,10,0,0,1-.12,3.77,9,9,0,0,1-1.31,3.53,8.07,8.07,0,0,1-2.25,2.09,21,21,0,0,1-2.75,1.35,12.77,12.77,0,0,0-2.48,1.46,2.56,2.56,0,0,0-1,2.61,18.44,18.44,0,0,0,1.15,3.1c.4,1,.94,2,1.41,3s1,2.16,1.43,3a11.82,11.82,0,0,1,.8,2,3,3,0,0,1-.47,3,7.48,7.48,0,0,1-2.6,1.84,15.66,15.66,0,0,1-3.79,1.08A22.81,22.81,0,0,1,173.31,70.51Zm-4.42-41.93A17.09,17.09,0,0,0,166,30.75a21.67,21.67,0,0,0-2.31,2.73,18.16,18.16,0,0,0-1.84,3,11.62,11.62,0,0,0-1.14,3.34,6.63,6.63,0,0,0,.18,3.52c.87,2.16,2.34,2.3,4.28,2.61a10.75,10.75,0,0,1,3.69,1.14c1.24.7,1.66,2,1.57,3.6a18.43,18.43,0,0,1-1,4c-.39,1.25-.81,2.6-1.29,3.94s-.76,2.61-1.13,3.85c-.52,1.71-.89,3.17-.58,3.87a3.4,3.4,0,0,0,2,1.45,12.89,12.89,0,0,0,3.87.74,21.55,21.55,0,0,0,4-.09,13.59,13.59,0,0,0,3.77-1.22c.27-.12,2.78-1.18,2.36-2.36-.07-.2-.64-.88-1-1.68s-.93-2-1.48-3.15-1-2.13-1.43-3.18a17.84,17.84,0,0,1-1.05-3.32,4.26,4.26,0,0,1,1.07-3.83,11.31,11.31,0,0,1,3.44-2.2c1.57-.75,3.26-1.46,4.21-2.86a7.19,7.19,0,0,0,1.14-3,8.31,8.31,0,0,0-.33-3.2,13.31,13.31,0,0,0-1-3.08,19.46,19.46,0,0,0-1.89-2.65,26.69,26.69,0,0,0-2.08-2.48,10.58,10.58,0,0,0-2.71-2.05,12.48,12.48,0,0,0-3.25-1,10,10,0,0,0-3.42-.14,11.71,11.71,0,0,0-3.75,1.63S168.89,28.57,168.89,28.57Z"/><path class="cls-19" d="M181,49.95a1,1,0,0,1-.47-1.79c1.44-.8,1.71-1.35,1.69-1.5-.06-.31-.88-.94-2.84-1.52a22,22,0,0,0-3.2-.73,31.91,31.91,0,0,0-3.34-.22,27,27,0,0,0-3.34,0c-1.83.16-3,.56-3.18.9l0,0s.15.62,2.59,2a1,1,0,0,1,.37,1.34.93.93,0,0,1-1.29.31,12.7,12.7,0,0,1-2.39-1.64,2.56,2.56,0,0,1-1.08-2.5c.26-1,1.3-1.65,3.13-2a20.12,20.12,0,0,1,3.94-.37c.84,0,2.06.06,3.4.19a32.64,32.64,0,0,1,3.36.54,16.31,16.31,0,0,1,3.27.94,3.87,3.87,0,0,1,2.37,2.3c.33,1.29-.49,2.55-2.53,3.69A1,1,0,0,1,181,49.95Z"/><ellipse class="cls-19" cx="169.29" cy="34.18" rx="2.07" ry="2.08"/><path class="cls-19" d="M181.15,32.12a3.11,3.11,0,0,1-6.23,0,3.11,3.11,0,1,1,6.23,0Z"/><path class="cls-19" d="M186.53,45a2.88,2.88,0,1,1,1.62-5.54"/><path class="cls-19" d="M177.74,39.12a1.73,1.73,0,1,1-3.46,0,1.73,1.73,0,0,1,3.46,0Z"/><path class="cls-19" d="M164.24,39.49a2,2,0,1,1-2-2A2,2,0,0,1,164.24,39.49Z"/><path class="cls-19" d="M71.14,53.53a7.06,7.06,0,0,1-3.22-1c-1.64-1-1.61-2.21-1.47-2.76A18.36,18.36,0,0,1,68,46.47c.48-.88,1.21-1.85,1.9-3.06.54-.95,1.06-2,1.72-3.16l1.81-3.11c.57-1,1.14-2,1.78-3.13s1.26-2,1.9-3.07,1.22-2.35,1.89-3.48,1.32-2.32,2-3.43,1.51-2.25,2.14-3.33c.72-1.25,1.33-2.44,1.91-3.46.82-1.46,1.58-2.6,2-3.42.12-.25.24-.52.51-.59a4.09,4.09,0,0,1,2.56.25,2.85,2.85,0,0,1,1.61,2c0,.19.16.4.08.58-.24.58-.77,1.67-1.49,3.15-.45.91-1,2-1.55,3.12-.49,1-1.06,2-1.62,3.08s-1.12,2-1.67,3.06-1,2.09-1.51,3.14-1,2.09-1.54,3.13-1.19,2-1.72,3-1,2.16-1.48,3.16S77.93,43,77.4,44L75.76,47c-.62,1.15-1.18,2.19-1.66,3.06a29.89,29.89,0,0,1-1.74,3A1.93,1.93,0,0,1,71.14,53.53ZM88.37,15.12c-.45.88-1.06,2-1.83,3.4-.57,1-1.3,2.1-2,3.32-.61,1.06-1.21,2.21-1.9,3.38s-1.43,2.12-2.1,3.27-1.23,2.26-1.89,3.39l-1.78,3c-.59,1-1.15,2-1.74,3.05s-1.27,2-1.84,3-1.09,2.15-1.64,3.11c-.65,1.13-1.2,2.18-1.69,3.07-.9,1.62-1.64,2.69-1.73,3.05a2.61,2.61,0,0,0,.75.63,5.59,5.59,0,0,0,2.22.85c.27-.47.8-1.73,1.67-3.34.5-.94,1.1-2,1.74-3.23.54-1,1.22-2,1.82-3.19s1-2.19,1.6-3.31,1.15-2.15,1.72-3.25l1.7-3.26c.57-1.1,1.19-2.17,1.75-3.24s1.23-2.17,1.77-3.23,1.06-2.29,1.58-3.32c.61-1.2,1.1-2.34,1.58-3.32.68-1.4,1.34-2.5,1.68-3.29-.15-.22-.51-.3-.64-.36A1.66,1.66,0,0,0,88.37,15.12ZM71.28,51.47l-.1.08S71.28,51.47,71.28,51.47Z"/><path class="cls-19" d="M65.85,62.8A7.89,7.89,0,0,1,62,61.46a2,2,0,0,1-.9-1.84,14,14,0,0,1,1.37-3.1c.45-.86,1-1.85,1.63-3,.52-.9,1.08-1.89,1.7-2.94.32-.55.59-.94.69-1.12a1,1,0,0,1,1.31-.38,1,1,0,0,1,.36,1.3c-.11.2-.32.64-.65,1.2s-1,1.56-1.63,2.67c-.51.89-1,1.86-1.52,2.75a16.48,16.48,0,0,0-1.29,2.82,5.63,5.63,0,0,0,2.45,1c.36-.47,1.08-1.49,1.93-2.88.55-.89,1.13-1.93,1.75-3s1.13-2,1.66-3.07a1,1,0,0,1,1.3-.44,1,1,0,0,1,.38,1.28c-.45.89-1.11,2.15-1.87,3.48-.65,1.15-1.31,2.37-2,3.42a11.88,11.88,0,0,1-2.4,3.14A1.61,1.61,0,0,1,65.85,62.8Z"/><path class="cls-19" d="M57.37,73.77a.79.79,0,0,1-.91-.72A11.19,11.19,0,0,1,56.22,70a18.63,18.63,0,0,1,.37-3.05,15.82,15.82,0,0,1,1-2.91,7.64,7.64,0,0,1,1.75-2.44,19.75,19.75,0,0,1,2.39-1.86.9.9,0,0,1,1.29.22,1,1,0,0,1-.2,1.33c-.78.55-2.87,2-3.52,3.48a15.1,15.1,0,0,0-.84,3.08A15.28,15.28,0,0,0,58.12,71c.4-.35.66-.66,1-1a22.53,22.53,0,0,1,2.79-2.31A5.5,5.5,0,0,0,64,65.27,9.46,9.46,0,0,0,64.54,62a1,1,0,0,1,1-.9.9.9,0,0,1,.89,1,10.82,10.82,0,0,1-.71,4.09A7.44,7.44,0,0,1,63,69.23a18.85,18.85,0,0,0-2.53,2.18,19.93,19.93,0,0,1-2.51,2.17A.94.94,0,0,1,57.37,73.77Z"/></g></svg>