<svg xmlns="http://www.w3.org/2000/svg" viewBox="0 0 1050 350"><defs><style>.cls-1{fill:#f8f3e9;}.cls-2{fill:#ffcd34;}.cls-3,.cls-5,.cls-6,.cls-7{fill:none;stroke-width:7px;}.cls-3,.cls-7{stroke:#cb9932;}.cls-3{stroke-linecap:square;}.cls-3,.cls-5{stroke-miterlimit:10;}.cls-4{fill:#cb9932;}.cls-5,.cls-6{stroke:#ffcd34;}.cls-6,.cls-7{stroke-linecap:round;stroke-linejoin:round;}</style></defs><title>nina_icon_set</title><g id="Layer_4" data-name="Layer 4"><rect class="cls-1" width="1050" height="350"/><ellipse class="cls-2" cx="940" cy="162.87" rx="80.6" ry="73.44"/><path class="cls-3" d="M903.36,163.34c6.14,3.1,13.15,6.88,18.55,9.31-5.47,9.6-12.27,19.8-17.81,29.14,6.47,3.51,8.72,4.59,13.49,7.55-8.54,15.38-28.73,54.34-37.09,70.93,22.82-20.61,64.84-61.44,85.56-82.26-6.6-3.3-7.51-3.9-15.11-7.61,7.55-9.71,16-20.72,22.92-29.62-6.6-2.4-18.11-7.2-18.11-7.2s17.5-24.24,24.92-34.62c-11.33-.81-36.28-3-47.43-1.21C929.58,118.33,907.52,157.18,903.36,163.34Z"/><ellipse class="cls-4" cx="307.84" cy="227.35" rx="80.6" ry="73.44"/><path class="cls-5" d="M382.64,137.39c-8.73-9.25-19.08-7.91-31.76-4-.07-9.75.41-16-5-19.41-10.24-6.4-32.57-9.28-47.88-9.28-13.89,0-40.77,2.53-46.24,12.17-3.82,6.72-5.63,93.19.61,104.62,10.45,19.15,70.92,23.32,93.19,8,5.3-4.4,4.84-6.72,5-20.25,14.18,7.45,31.89.5,39.57-18.37C395.18,178.48,393.2,148.59,382.64,137.39Zm-11.2,59c-4.28,4.31-15,2.24-20.29-5,1-18.11,1.11-20.23.44-38.35,4.17-12,18.84-14.3,23.44-4.41C382,163.53,382.67,185.08,371.44,196.38Z"/><path class="cls-6" d="M339.58,122.52c-11.18,6.6-61,7-78.2-1.69"/><ellipse class="cls-4" cx="737.95" cy="227.35" rx="80.6" ry="73.44"/><path class="cls-5" d="M691.46,174c-1,10.4-5.45,12.88-5.45,26.26,0,7,7.93,10.4,15.86,13.87,6.91,3,29.31,41.86,44.59,51,7.43,4.46,22.83,4.3,29.73,3.47s14.77-11.65,10.9-27.25c-4.49-18.11-41.36-54.53-42.24-67.73-.87-13-.27-58-1.86-63.08-2.81-9.08,1.32-17.34-.17-30.22-17.23.26-29.84.11-46.9,2.48-5.95.83.66,27.75-1.49,30.72C689.9,119.81,693.18,155.88,691.46,174Z"/><path class="cls-5" d="M695.48,114.33c8.25-3,35.12-5.25,47-4.26"/><path class="cls-5" d="M756.24,244.83a50.73,50.73,0,0,1,11-2.8l17.83-3.13"/><path class="cls-5" d="M691,180.09a176.88,176.88,0,0,1,29.52,11.24,98,98,0,0,0-15.3,25"/><ellipse class="cls-2" cx="525" cy="162.87" rx="80.6" ry="73.44"/><path class="cls-3" d="M504,127a46.29,46.29,0,0,1,15.47-6c13.17-2.31,29.07,3.15,38.55,12.58s31.26,36.25,15.76,59c-10,14.65-34.95,12.64-31.84,31,2.11,12.49,16.72,38.69,18,42.35,2.13,6.05-4.51,11-10.11,13.58-16.35,7.63-50.8,7.63-56.65-5.46-6-13.39,25.76-62.72,10.87-71.06-11.45-6.42-25.12-.34-31.44-16C463.9,165.32,486.78,137.22,504,127Z"/><path class="cls-7" d="M504,203c-51.67-28.85,89.85-19.7,47.31,3.93"/><circle class="cls-4" cx="507.22" cy="151.04" r="7.81"/><circle class="cls-4" cx="540.27" cy="143.29" r="11.76"/><path class="cls-4" d="M572.22,191.71a10.87,10.87,0,1,1,6.12-20.86"/><circle class="cls-4" cx="532.52" cy="169.66" r="6.52"/><circle class="cls-4" cx="480.57" cy="171.07" r="7.58"/><ellipse class="cls-2" cx="110" cy="162.87" rx="80.6" ry="73.44"/><path class="cls-7" d="M159.2,55.35c5.27-1.27,11.51,1.24,12.66,6C162.72,83.64,95.51,210.29,94,211.53,90.74,214.18,74.51,208,76,201.76,78.44,192,146.51,80.9,159.2,55.35Z"/><path class="cls-7" d="M76,201.76C73.73,205.93,55.6,235.64,54.51,242c-.94,5.5,14.44,9.14,15.75,8.6s14.32-20.41,23.72-39"/><path class="cls-7" d="M54.92,244.81c-4.33,3-12.7,9.11-15.66,16-3.55,8.24-6.72,23.93-4.17,34.53,10.37-7.67,9.59-9.63,20.73-17.78,8.57-6.27,12.21-10.64,12.61-26.38"/></g></svg>