<svg xmlns="http://www.w3.org/2000/svg" viewBox="0 0 350 350"><defs><style>.cls-1{fill:none;}.cls-2{fill:#f8f3e9;}.cls-3,.cls-6{fill:#cb9932;}.cls-4{fill:#fff;}.cls-15,.cls-5{fill:#ffcd34;}.cls-6{font-size:45px;font-family:Montebello-Rounded, Montebello;letter-spacing:-0.12em;}.cls-7{letter-spacing:-0.23em;}.cls-8{letter-spacing:-0.12em;}.cls-9{letter-spacing:0.02em;}.cls-10{letter-spacing:0.08em;}.cls-11{letter-spacing:0.05em;}.cls-12{letter-spacing:0.01em;}.cls-13{letter-spacing:-0.05em;}.cls-14{letter-spacing:0.16em;}.cls-15{font-size:30px;stroke:#ffcd34;stroke-miterlimit:10;stroke-width:0.25px;font-family:Heritage, Heritage;}.cls-16{letter-spacing:-0.02em;}.cls-17{letter-spacing:-0.01em;}.cls-18{letter-spacing:0.01em;}.cls-19{letter-spacing:0.01em;}.cls-20{letter-spacing:0.01em;}.cls-21{letter-spacing:-0.01em;}.cls-22{letter-spacing:-0.02em;}.cls-23{letter-spacing:0em;}.cls-24{letter-spacing:0em;}</style></defs><title>nina_karma</title><g id="Layer_3" data-name="Layer 3"><polygon class="cls-1" points="103.96 94.13 103.96 94.12 97.78 87.05 103.96 94.13"/><path class="cls-2" d="M104,94.12a74.5,74.5,0,0,1,141.49.06l19.13-21.86a100.35,100.35,0,0,0-179.36.38L97.78,87.05Z"/><path class="cls-2" d="M174.7,192a74.52,74.52,0,0,1-70.28-49.77l-19.15,19-.37.37a100.35,100.35,0,0,0,180,.35L245,142.17A74.52,74.52,0,0,1,174.7,192Z"/><path class="cls-3" d="M272.47,93.69,253,116a4.5,4.5,0,0,0,.22,6.16l19.27,19.17a100.8,100.8,0,0,0,0-47.6Z"/><path class="cls-4" d="M245,142.17,264.93,162a100.43,100.43,0,0,0,4.25-9.87L248,131A73.94,73.94,0,0,1,245,142.17Z"/><path class="cls-4" d="M245.46,94.19a74,74,0,0,1,2.87,11.91L269,82.45a102.76,102.76,0,0,0-4.43-10.13h0Z"/><polygon class="cls-4" points="245.46 94.19 264.59 72.33 264.59 72.33 245.46 94.19 245.46 94.19"/><path class="cls-4" d="M253,116l19.49-22.27A100.87,100.87,0,0,0,269,82.45L248.33,106.1A74.54,74.54,0,0,1,248,131l21.22,21.11a98.9,98.9,0,0,0,3.29-10.83L253.2,122.12A4.5,4.5,0,0,1,253,116Z"/><path class="cls-3" d="M96.5,116,77.42,94.16a100.91,100.91,0,0,0,0,46.71l18.86-18.75A4.5,4.5,0,0,0,96.5,116Z"/><path class="cls-4" d="M101.46,131.08,80.68,151.74a98.43,98.43,0,0,0,4.22,9.9l.37-.37,19.15-19A74,74,0,0,1,101.46,131.08Z"/><path class="cls-4" d="M104,94.13l-6.19-7.07L85.22,72.71h0a103.06,103.06,0,0,0-4.4,10.16L101.08,106A74,74,0,0,1,104,94.13Z"/><polygon class="cls-4" points="104.42 142.23 85.27 161.27 104.42 142.23 104.42 142.23"/><polygon class="cls-4" points="97.78 87.05 85.22 72.71 85.22 72.71 97.78 87.05"/><path class="cls-4" d="M100.2,117.5a75.05,75.05,0,0,1,.88-11.48L80.82,82.86a99.6,99.6,0,0,0-3.4,11.3L96.5,116a4.5,4.5,0,0,1-.22,6.16L77.42,140.87a102.4,102.4,0,0,0,3.26,10.87l20.78-20.66A74.84,74.84,0,0,1,100.2,117.5Z"/><path class="cls-5" d="M224.75,121.44a4.46,4.46,0,0,0,1,1.63L245,142.17h0l-19.21-19.1A4.47,4.47,0,0,1,224.75,121.44Z"/><path class="cls-5" d="M123.9,116.91a4.49,4.49,0,0,1,0,5.87,4.49,4.49,0,0,0,0-5.87L104,94.12h0Z"/><path class="cls-5" d="M224.75,121.44a4.49,4.49,0,0,1,.82-4.53l19.89-22.73A74.5,74.5,0,0,0,104,94.12l19.94,22.79a4.49,4.49,0,0,1,0,5.87c-.08.1-.15.2-.24.29l-19.27,19.16A74.5,74.5,0,0,0,245,142.17l-19.21-19.1A4.46,4.46,0,0,1,224.75,121.44Z"/><path class="cls-5" d="M225.57,116.91a4.49,4.49,0,0,0-.82,4.53,4.49,4.49,0,0,1,.82-4.53l19.88-22.72h0Z"/><path class="cls-5" d="M104.42,142.23h0l19.27-19.16c.09-.09.16-.2.24-.29-.08.1-.15.2-.24.29Z"/><path class="cls-3" d="M150.2,215.5V96.95a2.66,2.66,0,0,1,4.66-1.74l40.68,47a2.66,2.66,0,0,0,4.66-1.73l.11-121"/><path class="cls-4" d="M157.54,225.5H142.86a2.66,2.66,0,0,1-2.66-2.66V70.1a2.66,2.66,0,0,1,4.66-1.74l40.7,47.06a2.66,2.66,0,0,0,4.66-1.73l.09-101.54A2.66,2.66,0,0,1,193,9.5h14.69a2.66,2.66,0,0,1,2.65,2.66l-.14,155.16a2.66,2.66,0,0,1-4.66,1.73l-40.65-47a2.66,2.66,0,0,0-4.66,1.74v99A2.66,2.66,0,0,1,157.54,225.5Z"/><text class="cls-6" transform="translate(82.95 277.1)">N<tspan class="cls-7" x="18.31" y="0">i</tspan><tspan class="cls-8" x="28.21" y="0">n</tspan><tspan class="cls-9" x="46.53" y="0">a</tspan><tspan class="cls-10" x="68.53" y="0"> </tspan><tspan class="cls-11" x="79.78" y="0">K</tspan><tspan class="cls-12" x="97.42" y="0">a</tspan><tspan class="cls-13" x="118.98" y="0">r</tspan><tspan class="cls-14" x="138.24" y="0">m</tspan><tspan class="cls-9" x="162.09" y="0">a</tspan></text><text class="cls-15" transform="translate(113.51 323.13)"><tspan class="cls-16">L</tspan><tspan class="cls-17" x="19.02" y="0">i</tspan><tspan class="cls-18" x="23.85" y="0">f</tspan><tspan x="31.8" y="0">e C</tspan><tspan class="cls-19" x="58.92" y="0">o</tspan><tspan class="cls-20" x="68.7" y="0">a</tspan><tspan class="cls-21" x="79.35" y="0">c</tspan><tspan class="cls-18" x="87.27" y="0">h</tspan><tspan class="cls-22" x="96.9" y="0">i</tspan><tspan class="cls-23" x="101.52" y="0">n</tspan><tspan class="cls-24" x="111.66" y="0">g</tspan></text></g></svg>