<svg id="sylvia_rivera_fixed_Image" data-name="sylvia_rivera_fixed Image" xmlns="http://www.w3.org/2000/svg" viewBox="0 0 528.72 561.36"><title>sylvia_rivera_bw</title><path d="M265.26,103.49c.7-.65,1.28-1.1,1.76-1.64a242.15,242.15,0,0,1,56.05-46.31A160,160,0,0,1,366,37.45,122.63,122.63,0,0,1,388.63,34a112,112,0,0,1,58.61,12.53c5.24,2.69,10.13,6.08,15.17,9.16.57.35,1.1.76,1.63,1.15a1.62,1.62,0,0,0,2.41-.25c1.74-1.8,3.56-3.51,5.29-5.32,2.63-2.77,5.21-5.59,8.11-8.7a11.42,11.42,0,0,0-2.71-.89c-5-.21-9.94-.31-14.91-.45-1.83,0-3.67,0-5.49-.17a3.6,3.6,0,0,1-2-.85,1.66,1.66,0,0,1,.22-2.76,8.19,8.19,0,0,1,1.74-1Q486.34,23.82,516,11.19c1-.44,2.15-.69,3.76-1.2a22.52,22.52,0,0,1-.68,3c-.67,1.7-1.51,3.34-2.18,5A38.15,38.15,0,0,0,515,23.44a127.09,127.09,0,0,1-7,20.8q-4.42,10.6-8.87,21.2a23.61,23.61,0,0,1-1.21,2.74c-.3.51-1,1.28-1.3,1.2a4,4,0,0,1-1.89-1.3,4.18,4.18,0,0,1-.5-1.65L490,49.54c-2.29.95-14,12.28-15.73,15.35.63.66,1.27,1.4,2,2.07a144.94,144.94,0,0,1,31.52,43.15A163.9,163.9,0,0,1,522,155.71a174,174,0,0,1,1.84,35.86,155.64,155.64,0,0,1-6.18,37.35,294.88,294.88,0,0,1-22.14,54.27,396.73,396.73,0,0,1-30.27,47.92,569.55,569.55,0,0,1-39.77,48.15c-12.15,13.29-25.05,25.84-37.84,38.5a15,15,0,0,1-1.91,1.4,3.1,3.1,0,0,0,2.64,1.93,13,13,0,0,1,7.55,5c1.37,1.84,1,3-1.2,3.68a23,23,0,0,1-3.35,1,10.57,10.57,0,0,0-6.38,3.65c-2.43,2.73-4.79,5.53-7.07,8.39a14.13,14.13,0,0,0-2.74,9.15c0,2.17-.09,4.34,0,6.5.3,5.8-1.81,10.75-5.17,15.29-.15.2-.32.39-.46.59a37.07,37.07,0,0,1-15,12.81,11.64,11.64,0,0,0-5.82,5.53c-2.14,4.34-5.48,7.73-9,11a29.39,29.39,0,0,1-3.56,2.72c-1.65,1.12-3.44,2-5.05,3.22-4.13,3-8.81,4.39-13.77,5.46-4.05.88-8.11.75-12.15,1.19A8.38,8.38,0,0,0,299.8,519q-8.34,8.62-16.83,17.1c-2.05,2-4.33,3.87-6.46,5.85-.91.85-1.72,1.81-2.54,2.75-1.3,1.48-2.82,1.88-4.38.72q-7.92-5.88-15.68-12c-2.21-1.74-4.21-3.75-6.31-5.65-1.87,1.15-3.61,2.12-5.23,3.25-3.59,2.51-7.73,3.42-11.88,4.34a9.35,9.35,0,0,0-1.71.31c-2.68,1.17-5.53,1-8.34,1.18-4,.31-8,.61-11.94,1-6.57.7-12.28,3.61-17.53,7.39-2.13,1.54-3.8,3.72-5.67,5.62a11.79,11.79,0,0,1-.83.93c-1.53,1.25-3.58.7-3.78-1.24a79.68,79.68,0,0,1-.29-9.21,12.27,12.27,0,0,1,4.1-9.33,3.7,3.7,0,0,0,.63-.78c.85-1.35.68-2.09-.75-2.79-1.65-.8-3.32-1.55-5-2.27-5.89-2.51-9.67-7-11.84-12.87a56.43,56.43,0,0,1-2.21-9.2c-1.17-6.21-2-12.48-3.36-18.66-1-4.47-.82-8.94-.79-13.43a6.65,6.65,0,0,1,2.44-4.77c1.15-1.09,2.29-2.18,3.39-3.32a10.18,10.18,0,0,1,5-2.57c4.9-1.29,9.79-2.65,14.68-4,.14,0,.25-.19.63-.49a19.23,19.23,0,0,0-1.62-1.71q-22.62-18.75-44-38.89c-.83-.79-1.56-1.69-2.42-2.63-11.5,10.47-22.72,21.1-33.63,32.07-3.17,3.19-6.47,6.25-9.78,9.29a6.89,6.89,0,0,0-2.19,5.76c.12,7.16-.14,14.32-.19,21.49,0,4.83,0,9.66.14,14.49.07,2.31-.89,4.14-2.86,4.78-3.8,1.25-7,3.57-10.32,5.53q-10.26,6-20.41,12.1c-2.06,1.25-3.94,2.8-5.91,4.19a15,15,0,0,1-1.41.75,19.8,19.8,0,0,1-.53-2.71c-.32-6.66-.58-13.32-.88-20-.18-4.22-3.17-7.35-7.35-7.11a58.34,58.34,0,0,0-10.06,1.71c-3.39.81-6.7,2-10,3-.79.24-1.57.51-2.76.89a9.49,9.49,0,0,1,.46-2.06q9.27-18.12,18.6-36.22c1-1.85,2-3.67,2.87-5.55a6.06,6.06,0,0,1,5.2-3.73c5.06-.47,10.12-.94,15.17-1.42s9.94-1,14.91-1.46a12.59,12.59,0,0,0,8.1-4q19.5-20.25,39.13-40.39c.63-.65,1.18-1.37,1.93-2.25-.68-.84-1.24-1.63-1.9-2.33-9.48-10.06-19.2-19.92-28.43-30.21-20.53-22.87-39-47.27-54.65-73.79a300.43,300.43,0,0,1-25.09-53.8,195.39,195.39,0,0,1-8.33-30.3,151.17,151.17,0,0,1-2.28-20.07c-.11-2.83-.42-5.65-.41-8.48.08-18.35,2.51-36.33,8.3-53.81,7.7-23.25,19.8-43.81,37.33-61C68.12,53.35,87,42.33,109,36.95a115.36,115.36,0,0,1,20-2.93c20.51-1.34,39.86,3.21,58.51,11.29,20,8.65,37.73,20.81,54.13,35a237.74,237.74,0,0,1,21.61,21.14C263.79,102.13,264.47,102.72,265.26,103.49ZM244,113.24c-2.26-2.09-4.42-4.15-6.64-6.13C224.19,95.34,209.9,85.2,193.76,77.85c-4.08-1.86-8.34-3.35-12.55-4.93a3.63,3.63,0,0,0-2.37-.2,51.73,51.73,0,0,0-7.9,3.64c-4.52,2.8-8.84,5.94-13.25,8.92-7.87,5.3-12.54,13-15.89,21.58a5.79,5.79,0,0,0-.27,1c-.46,2.27-.93,4.55-1.34,6.83a11.07,11.07,0,0,0,0,1.86,12.78,12.78,0,0,0,8.19-7.17c1.5-3.25,3-6.5,4.73-9.63a39.31,39.31,0,0,1,4.07-6c3.23-3.94,7.62-5.24,12.81-5.29-.58,1.66-1.83,1.81-2.86,2.19-2.39.87-4.7,1.94-6.07,4.16-2.36,3.82-4.55,7.75-6.79,11.64,0,.09.08.28.18.59,2.54-.37,4.27-2.64,6.84-3a5.74,5.74,0,0,1-1.57,1.79c-5,3.89-9.94,7.85-15,11.62-2.87,2.13-6,3.93-9,5.89-3.48,2.28-7,4.44-10.41,6.88a26,26,0,0,0-8.5,10.62,15.37,15.37,0,0,0-1.15,3.8,127.84,127.84,0,0,0-1.54,24.16,32.78,32.78,0,0,1-3.87,16.57,82.12,82.12,0,0,0-4.84,11.22c-2.15,6.25-2.89,12.76-1,19.17a112.43,112.43,0,0,0,5.46,14.21c4.2,9.38,11.91,14.48,21.59,17,2.47.64,2.87.12,2.38-2.45-.73-3.82-2.4-7.26-4-10.73a3.53,3.53,0,0,1-.63-2.75c.66.71,1.12,1.16,1.52,1.64,2.92,3.53,5.73,7.15,8.77,10.57a59.05,59.05,0,0,0,6.22,5.76,5.13,5.13,0,0,0,2.72,1c1.84.16,2.37-.66,1.86-2.46-.23-.81-.91-1.59-.12-2.83.81.92,1.55,1.67,2.18,2.49,3.12,4.13,7.34,7,11.43,10,.68.5,1.48.83,2.24,0s.37-1.49-.16-2.22c-1.48-2-2.87-4.09-4.43-6.05a8.45,8.45,0,0,1-1.93-5.76c.11-4,0-8,.07-12,0-3.5.19-7,.25-10.49a13.92,13.92,0,0,1,3.22-9c.85-1,1.61-2.13,2.37-3.22.37-.52.65-1.1,1.15-2-1.92-1.13-3.69-2.19-5.48-3.2-2.4-1.37-4.75-2.81-6.33-5.16a25.19,25.19,0,0,1-1.22-2.25l.52-.43a17.61,17.61,0,0,1,1.9,1.32,24.17,24.17,0,0,1,1.67,1.86,13,13,0,0,0,11.26,4.23,5,5,0,0,0,1.91-.48,1.4,1.4,0,0,0,.21-2.58,20.42,20.42,0,0,0-3.14-1.46,34.16,34.16,0,0,1-5-2.29c-3.64-2.42-5.78-6.15-7.93-9.83a1.27,1.27,0,0,1,.42-2,4.52,4.52,0,0,1,.64.78c2.52,5.08,6.77,8,11.94,10a27.62,27.62,0,0,0,8,1.68,3.7,3.7,0,0,0,2.26-.73,11.69,11.69,0,0,1,6.48-2.31c3.41-.21,6.81-.58,10.22-.74a4.32,4.32,0,0,0,3.4-1.71c1.64-2,3.33-4,5.13-5.81a21.21,21.21,0,0,1,3.52-2.73c.61-.41,1.42-.52,2.08.6a45.55,45.55,0,0,0-4.15,3.64,12.46,12.46,0,0,0-2.57,5.17,14.36,14.36,0,0,0,1.66.31c2.91.17,5.82.29,8.73.45,1.74.1,3.49.24,5.23.36a10.69,10.69,0,0,1,8.62,5.26c3.33,5.28,6.5,10.67,9.74,16q1.62,2.67,3.26,5.33a4.48,4.48,0,0,0,3.9,2.3c3.91.09,7.83.26,11.74.28A5,5,0,0,0,260,219.3a14.61,14.61,0,0,0,1.17-3.27c.55-2.61,1-5.23,1.43-7.86a36,36,0,0,1,4.29-12.73c2.35-4,4.82-7.79,5.77-12.37a1.48,1.48,0,0,1,1.74-1.3,13.65,13.65,0,0,1,0,1.7c-.68,5.18-2,10.07-5.34,14.32-2.5,3.17-2.55,7-1.61,11.07.6-.29.82-.85,1.19-1.28,3-3.55,6.1-7.07,9.1-10.63a4.16,4.16,0,0,1,3.14-1.7c2.57-.15,5.14-.49,7.7-.8a11.71,11.71,0,0,0,1.92-.65c-2.71-2.32-4.76-4.66-8.57-3.41-2.24.74-3.29-.54-2.79-2.87.12-.57.37-1.11.46-1.69.48-3.2,1.17-6.4,1.34-9.63.27-5.16-1.22-10-3.11-14.8-.95-2.39-1.59-4.9-2.34-7.36a1.14,1.14,0,0,1,.84-1.64,6,6,0,0,1,2.61,2.77c3,5.11,6,10.22,8.86,15.36a31.64,31.64,0,0,0,6.72,8.64,20.33,20.33,0,0,1,5.68,7.8,21.45,21.45,0,0,0,4.68,6.73,3,3,0,0,0,1.63,1c2.54.11,5.09,0,7.89,0-.26-1.18-.42-2-.62-2.76-.55-2.09-1.24-4.16-1.66-6.28a22.48,22.48,0,0,0-4.08-9c-1-1.34-2.06-2.62-3.13-3.89a25.26,25.26,0,0,1-5-8.89,6.35,6.35,0,0,1-.1-1.47,5.05,5.05,0,0,1,1.33,1.62,85.79,85.79,0,0,0,5.1,7.68c3.65,4.47,7.21,8.91,8.84,14.62a5.37,5.37,0,0,0,4.29,3.93,15.3,15.3,0,0,0-1.14-8c-2.17-4.68-4.47-9.31-6.7-14-.49-1-1.25-2-.68-3.55a15.7,15.7,0,0,1,1.27,1.62c1.46,2.52,2.8,5.12,4.34,7.59a44.73,44.73,0,0,1,5.78,15.86,31.31,31.31,0,0,0,1.42,5,5.25,5.25,0,0,0,3.25,3.43c3.36-2.19,4.58-5,3.49-8.83-.77-2.71-1.09-5.56-1.76-8.3-.89-3.63-1.42-7.48-3-10.77a65.36,65.36,0,0,0-7.66-11.37,30.66,30.66,0,0,1-4.77-7.84c-.95-2.4-1.89-4.81-2.72-7.25-.58-1.7-1-3.46-1.45-5.31a4,4,0,0,1,4.72,1.39c1.18,1.51,2.25,3.1,3.39,4.64a15.73,15.73,0,0,1,3.08,7.52,22.28,22.28,0,0,0,3.8,9.69,37.73,37.73,0,0,1,5.78,13.73c.81,3.91,1.52,7.85,2.44,11.74,1.31,5.49,1,10.73-1.83,15.71a2.37,2.37,0,0,0,.27,3.15c1,1.09,1.87,2.34,2.81,3.51,1.54,1.91,2.1,2,3.77.35,6.51-6.57,11.54-14.07,13.42-23.26.75-3.64.7-7.44,1-11.17.07-.84.16-1.68.25-2.65,1.48.68,1.16,1.71,1.14,2.56-.11,4.58-.24,9.16-.43,13.74A7.28,7.28,0,0,1,352,192c-1.8,3.94-3.6,7.88-5.54,11.75a20.92,20.92,0,0,1-6.39,7.9c-4,2.88-3.08,2.83-.65,6.08a3.41,3.41,0,0,0,.62.5,10.09,10.09,0,0,0,5.46-2.78c5.14-4.93,9.86-10.22,12.42-17,5.61-14.87,4.94-29.56-1.65-43.94-2.42-5.29-5.24-10.42-8.06-15.52a11.49,11.49,0,0,1-.9-8.93,8.5,8.5,0,0,1,4.17-5.39c1.63-.92,2.62-.92,3.72.57a41.32,41.32,0,0,1,4.21,6.74,36.38,36.38,0,0,1,2.73,10.86c.63,4.64.32,9.14-1.87,13.39a3.3,3.3,0,0,0-.46,1.9,16.22,16.22,0,0,0,2.26,6.17c3.08-2.56,4.18-6,5.06-9.42a86,86,0,0,0,2-10.79A20.38,20.38,0,0,0,368,133.45c-1.4-3.29-3.34-6.35-5-9.51a4.15,4.15,0,0,1,2.27,1.3,29.14,29.14,0,0,1,3.53,5.12,47.51,47.51,0,0,1,4.42,16.56,36.37,36.37,0,0,1-1.63,12.82c-1,3.53-.47,4.94,2.62,6.65,2.7,1.49,3.41,2.67,2.81,6.43a9.53,9.53,0,0,1-1.55,3.9c-2.44,3.43-5.36,6.42-9.39,8a3.82,3.82,0,0,0-2.41,2.58c-1.77,5-3.57,10-5.45,15a21.48,21.48,0,0,1-2.24,4.43,15.26,15.26,0,0,0-2.77,8.4,19.1,19.1,0,0,1-2.09,8.67c-1.58,3-3.43,5.56-7.38,5.37a2.24,2.24,0,0,0-2.32,1.9,2.56,2.56,0,0,0,.91,2.88c2.4,1.92,4.52,4.19,7.45,5.39a2.83,2.83,0,0,1,.84.67c-.41,4.77-4.44,6.39-7.36,9.26a8,8,0,0,0,1.67,1.19c2.91,1,5.81,2.09,8.79,2.86a9.88,9.88,0,0,0,7.76-.93c6.38-3.85,11.06-9.1,12.75-16.54,1.22-5.37.75-10.78-.24-16.13a69.16,69.16,0,0,0-7.7-21.81,27.18,27.18,0,0,1-2.11-4.51c-.73-2.11-.26-2.73,2-2.74a21.42,21.42,0,0,0,8.46-1.92,39.23,39.23,0,0,0,9-5.38c.82-.65,1.63-1.46,3.15-.91-.08,1-.09,2.06-.25,3.09a65,65,0,0,1-4,13.65,12.27,12.27,0,0,0,.12,9.92c.74,1.66.71,3.72.79,5.6a3.27,3.27,0,0,1-2.3,3.25c-.66.27-1.28.65-1.94,1a15.73,15.73,0,0,0,3.15,6.38,36,36,0,0,1,2.42,3.48,3,3,0,0,1,0,3.51c-2.71-.13-3.85-2.56-6-3.86a9.8,9.8,0,0,0-1.15,2.48,17,17,0,0,0-.11,4.22,46.41,46.41,0,0,1-.11,12.45,18.68,18.68,0,0,0-.12,2.14c2.28.89,3.08.76,4.33-.72a10.76,10.76,0,0,0,1.25-1.86,12.87,12.87,0,0,1,5.06-5c2.65-1.57,5.21-3.29,7.87-4.86a4.67,4.67,0,0,0,2.51-4.49,26.42,26.42,0,0,1,.94-5.61c.09-.41.66-.72,1.32-1.39,0,1.48.06,2.46,0,3.43a53.12,53.12,0,0,0,.77,13.66,18.11,18.11,0,0,1,.21,5.42c-.44,4.06-2.8,7.05-5.26,10a6.37,6.37,0,0,1-1.49,1l-.52-.35a15.2,15.2,0,0,1,.58-2.2c.81-1.92,1.79-3.77,2.55-5.7a6.07,6.07,0,0,0-1.14-6.62c-5.64,1.22-5.84,1.41-7.36,6.57l-.14.48a20.61,20.61,0,0,1-11.48,13.42c-3.39,1.58-6.67,3.41-10,5.18-.74.4-1.72.68-1.8,2a12.21,12.21,0,0,0,7.13,0c2.64-.76,5.26-1.58,7.89-2.39,1.45-.45,2.74-.4,3.8,1.17-.86,1-1.63,2-2.5,2.83-2.77,2.77-5.54,5.53-8.39,8.23a9.88,9.88,0,0,0-2.94,5.65,14.92,14.92,0,0,0,0,2.49c1.16-.5,1.91-.77,2.61-1.14a24,24,0,0,0,9.47-8.68,10.22,10.22,0,0,1,4.32-4c1.95-1,3.89-1.91,5.87-2.77a15.13,15.13,0,0,1,2.47-.63l.22.5a7.39,7.39,0,0,1-1.16,1.09c-2,1.2-4,2.38-6.06,3.5a12.08,12.08,0,0,0-4.93,4.8c-1.6,2.84-3.49,5.59-6.65,6.9a10.42,10.42,0,0,0-5.81,6.17c-.53,1.31-1.17,2.58-1.7,3.89a23.32,23.32,0,0,0-.63,2.36c5.51-3.47,11.32-4.49,16.79-6.44a15.33,15.33,0,0,0,4.75-2.7c6-5.14,11.23-11,14.2-18.42A133.73,133.73,0,0,0,410,257c3-12.12,5.45-24.37,8.61-36.45a36.51,36.51,0,0,0,1.06-10.39c-.25-7.25-2.27-14-7.57-19.3a4.47,4.47,0,0,1-1.28-4.91,23.72,23.72,0,0,0,.4-11.13c-.43-2.21-.93-4.4-1.32-6.61a28.64,28.64,0,0,0-5.11-12.1c-2.71-3.69-5.64-7.21-8.49-10.79-1.23-1.55-2.51-3.06-3.86-4.71l1.5-1.18,6,6.4a7.32,7.32,0,0,0,1.85-3.42,17.32,17.32,0,0,0-1.15-11.93,76.81,76.81,0,0,0-8.58-13.76,21.1,21.1,0,0,0-3.91-3.8c-2.79-2.11-5.74-4-8.58-6a22,22,0,0,1-2.16-2c3.56-.07,5.58,2.87,8.69,3.79.81-6.19-.68-11.26-5.72-15-1.81-1.33-3.64-2.65-5.51-3.89C366.94,84.55,359,79.38,351.1,74.08a3.72,3.72,0,0,0-3.93-.43c-4.3,1.81-8.72,3.33-12.91,5.36C313,89.34,295,104,278.82,121.06c-2.63,2.78-5.06,5.75-7.58,8.64s-5.85,3.75-9,2.21a12.71,12.71,0,0,1-3.42-2.83c-3.7-4-7.31-8-11-12-.54-.59-1.2-1.07-1.94-1.72a22.36,22.36,0,0,1-1.65,3.07,15,15,0,0,0-3.2,11.71,2.89,2.89,0,0,1-1,3c-.41-.47-.74-.83-1.05-1.2s-.6-.8-.94-1.17c-1.4-1.55-2-1.63-3.58-.41-.86.65-1.63,1.43-2.49,2.09a7.89,7.89,0,0,0-3,5.54c-.33,2.47-.92,4.91-1.24,7.39-.41,3.13-1.06,6.3-.91,9.41.32,6.38,3.51,11.56,8,15.9a46.58,46.58,0,0,1,9.41,12.51,33.91,33.91,0,0,0,4.72,6.42c1.52,1.77,3,1.39,3.59-.73.32-1.12.63-2.25.87-3.39s.64-1.7,1.73-1.81,1.48.63,1.8,1.42c.68,1.7,1.39,3.4,1.94,5.14a7.2,7.2,0,0,1-1.75,7.63,11.73,11.73,0,0,0-3.26,6.85,14.57,14.57,0,0,1-3.85,8.25,15.7,15.7,0,0,1-2,1.53c-1.19-1.06-.86-2-.56-3a10.72,10.72,0,0,0-.78-8.47,40.12,40.12,0,0,0-2.63-4.52c-1.65-2.3-3.46-4.49-5.22-6.71-3.2-4-2.68-3.75-7.42-2.12-3.54,1.22-4.42,1-6.93-1.9a4.32,4.32,0,0,0-4.68-1.53,8.52,8.52,0,0,0-5.17,3.25c-.59.81-1.14,1.88-2.81,1.34a18.69,18.69,0,0,1,1.32-2.5c1.94-2.61,3.91-5.19,6-7.72a9.38,9.38,0,0,1,2.25-1.95c2-1.28,2.62-1.12,4.29.56.83.83,1.34,2.13,2.76,2.29a2,2,0,0,0,.28-2.57,57.23,57.23,0,0,0-2.57-5.12c-2.07-3.52-4.22-7-5.34-11-.07-.26-.38-.45-.54-.63-.23.09-.35.09-.38.15a13.15,13.15,0,0,1-1.2,2.15c-.42.51-1.13,1.15-1.69,1.12a5.47,5.47,0,0,1-4.78-6.36c.17-.81.33-1.63.55-2.43.62-2.27.37-4.08-2.16-5.07a1.75,1.75,0,0,1-1-2.64c2.41-4.92.52-9.7-.29-15.11a24.05,24.05,0,0,0-2.34,2.16c-2,2.5-3.67,5.28-3.95,8.5a95,95,0,0,0-.14,10.46,24.49,24.49,0,0,0,3.05,11c.66,1.25,1.25,2.54,1.82,3.84a17.93,17.93,0,0,1,.58,1.92c-4.4-2.18-7.08-5.2-7.69-9.79-.38-2.81-.69-5.62-1-8.43a9.21,9.21,0,0,0-1.61-4.92,3.12,3.12,0,0,0-3.26-1.34c-5.29,1.06-7.43,3.29-8.18,8.65a9.75,9.75,0,0,1-.14,1.24,14,14,0,0,1-.73,1.62,9.66,9.66,0,0,1-.54-1.81,27.5,27.5,0,0,1,3.57-15.36c.63-1.08,1.37-2.09,2.06-3.13a2.85,2.85,0,0,0,0-3.64,36.44,36.44,0,0,0-6.89,7.89,15.13,15.13,0,0,0-2.35,10.74c.17,1,.37,2,.47,3s.32,2.23-.85,2.91-2.12.09-3.06-.43a7.28,7.28,0,0,1-3.18-8.67,20.49,20.49,0,0,1,5.83-9.45q3.8-3.44,7.44-7c1.57-1.55,1.55-2.09.35-4.13-1.38.16-2.05,1.25-2.8,2.23-1.26,1.66-2.47,3.35-3.77,5a1.77,1.77,0,0,1-2.62.55,2,2,0,0,1-.5-2.69c.17-.38.45-.71.62-1.08,2.51-5.38,7.83-7.39,12.62-10.65.18,1.63.3,2.93.47,4.23.31,2.3.58,4.62,1,6.89a2.6,2.6,0,0,0,2,2.37c.26-.43.68-.81.72-1.23a11.37,11.37,0,0,0-.09-2.74c-1.17-7.45,4.7-17.55,12.55-19.42a19.22,19.22,0,0,0,4.36-1.85,3.36,3.36,0,0,0,2.14-3.19,16.71,16.71,0,0,0-2.64.24c-3.39.87-6.75,1.81-10.13,2.72-1.4.38-2.74.49-3.91-.68a9.85,9.85,0,0,1,3.18-4.23c4-3.59,8.91-4.27,14-3.9,3,.22,4.7,1.83,5.12,4.82a7.41,7.41,0,0,1-1.71,6.28c-1.7,1.94-3.21,4-4.92,6-4.1,4.67-4.2,10-2.45,15.49,1.29,4,3,7.95,4.52,11.91a12.89,12.89,0,0,0,.91,2c1.22,2,2.47,2.21,4.27.73a9.59,9.59,0,0,0,3-4.83q1.87-6.22,3.68-12.46a25.91,25.91,0,0,1,6.73-11.8,9,9,0,0,1,3.53-2.22C241.11,117.54,242.67,115.92,244,113.24ZM169.91,258.78c-.24.15-.43.21-.51.34a6.1,6.1,0,0,0-.54,1.11c-3.49,10.34-4.63,20.75-1.36,31.4a87.76,87.76,0,0,1,3.07,12.09c1.36,8.72,2.66,17.44,4.45,26.09a38.55,38.55,0,0,0,8.58,18.06,264.24,264.24,0,0,0,19.21,19.65c4.62,4.29,10.07,7.37,15.3,10.77a2,2,0,0,0,.67.33c2.77.5,4.77,2.26,6.7,4.11a22.38,22.38,0,0,0,9.85,5.68,11.84,11.84,0,0,0,5.15.36,34.17,34.17,0,0,1,17.26.87,17.35,17.35,0,0,0,14-1.4c6.48-3.61,12.9-7.31,19.32-11a31.55,31.55,0,0,0,9.14-8c4-5.12,8-10.23,12.27-15.15a96.92,96.92,0,0,0,10.13-13.92c2.55-4.3,5.09-8.6,7.55-13a35.84,35.84,0,0,0,4.59-13.9c.55-5.13,1-10.29,1.65-15.4a151,151,0,0,1,5.8-26.83c2-6,.92-11.86.17-17.78a1.88,1.88,0,0,0-1.18-1.31,2,2,0,0,0-1.63.77,14.94,14.94,0,0,0-1.59,3.1,16.27,16.27,0,0,1-4.43,5.91c-4.85,4.5-10.41,8-15.65,12a9.41,9.41,0,0,1-6.85,1.79c-4.47-.45-9-.78-13.39-1.5-5.09-.82-10.13-2-15.17-3a13.48,13.48,0,0,1-8.75-6.18c-2.31-3.56-4.46-7.23-6.72-10.82-2.93-4.65-5.75-9.38-8.88-13.89a9,9,0,0,0-15,0c-.68.94-1.26,2-1.87,3-4.42,7.25-8.87,14.49-13.22,21.78A9.18,9.18,0,0,1,223,269a25.8,25.8,0,0,1-6.31,1.33c-8,.51-16,.78-23.95,1.27a15.51,15.51,0,0,1-10.7-3.38c-2.58-2-5-4.1-7.6-6.1C172.93,261,171.69,259.44,169.91,258.78ZM392.32,427.39c-2.4-4.75-8.07-5.84-11.58-2.31-4.52,4.54-8.91,9.22-13.34,13.85q-2.59,2.71-5.12,5.47a7.22,7.22,0,0,1-4,2.33c-1.79.34-3.6.65-5.41.84-3,.32-6,.45-9,.8-6,.7-11.87,1.78-17.84,2.19-8.63.59-17.3.72-25.94,1.06-.91,0-1.83.11-2.74.17-5.81.39-11.62,1-17.44,1.12-11.65.2-23.32-.28-35,.58-9.79.73-19.59,1.46-29.37,2.35-6.8.62-13.57,1.52-20.35,2.29a35.2,35.2,0,0,0-4.7.61c-4.19,1.07-8.34,2.3-12.51,3.45a34.37,34.37,0,0,0-11.42,6,6.47,6.47,0,0,0-2.69,5.15,54.54,54.54,0,0,0,.27,7.72c.29,2.47,1.1,4.87,1.47,7.33.79,5.18,1.4,10.39,2.17,15.58.36,2.38.85,4.75,1.42,7.09a22.58,22.58,0,0,0,5.17,9.31c1.69,2,2.37,2,4.2.18a12.82,12.82,0,0,1,6.25-3.49,40.7,40.7,0,0,1,7.89-1.15c8-.12,16,.05,24,0,9.33,0,18.66.05,28-.33,10-.41,19.92-1.48,29.94-1.44,9.74,0,19.48-.19,29.22-.4a81.4,81.4,0,0,0,11.2-.74c9-1.45,16.65-5.67,23.31-11.75,5.29-4.83,9.77-10.25,12-17.25a10.81,10.81,0,0,1,1-2.3c.25-.43.81-1,1.2-1,.94.06.81.89.68,1.55-.23,1.17-.52,2.33-.89,3.93,5.53-2.6,10.26-5.46,13.76-10,1.27-1.65,2.47-3.36,3.72-5a16.6,16.6,0,0,0,3.49-10.71c-.07-2.75-.2-5.5-.12-8.24a17.74,17.74,0,0,1,3-10.13c1.93-2.71,3.82-5.46,5.62-8.26a11.09,11.09,0,0,1,5.11-4.23C388.64,428.92,390.39,428.2,392.32,427.39Zm-65.68-84.34a3.62,3.62,0,0,0-3.73,1.09c-1.84,1.92-3.65,3.87-5.32,5.94-5.92,7.32-11.73,14.73-17.68,22A30.58,30.58,0,0,1,288,381a38.12,38.12,0,0,0-3.76,2c-4,2.25-8,4.5-11.94,6.81a18.22,18.22,0,0,1-14.43,1.91,40,40,0,0,0-18.56-.91,10.7,10.7,0,0,1-6.14-.66c-6.76-2.7-13.26-5.86-18.9-10.56-3-2.51-6.08-4.93-9.13-7.39a6.67,6.67,0,0,0-3.92-1.65,7.71,7.71,0,0,0,0,1.36c.8,3.92,1.6,7.83,2.46,11.74a5,5,0,0,0,.86,1.78,3.36,3.36,0,0,1,.61,3.27,3.66,3.66,0,0,0,.18,1.86c.22.88.61,1.72.8,2.61,1.91,8.62,3.79,17.25,5.71,25.87.69,3.09,1.39,6.18,2.22,9.23.45,1.65.39,3-1.28,3.81a3.12,3.12,0,0,0-.59.46c-2.07,1.82-2.46,3.3-1.19,5.74a28,28,0,0,0,2.78,4.13,3.44,3.44,0,0,1,.7,3.46,13.8,13.8,0,0,0,.15,7.85c4.47-.21,8.87-.33,13.25-.65,8.47-.62,16.9-1.75,25.42-1.76,6.24,0,12.48-.35,18.72-.47,3.49-.07,7-.09,10.49.05,2.2.09,3.47-.94,4.71-2.63,4.53-6.17,7.67-13.28,12.87-19a12.88,12.88,0,0,0,.93-1.48c2-2.88,3.82-5.83,5.94-8.58,1.14-1.49,2.8-2.56,4.08-3.95,1.52-1.65,2.89-3.44,4.34-5.17,4.54-5.4,9.6-10.23,15.94-13.46a104.59,104.59,0,0,1,26.37-9.12,65.5,65.5,0,0,1,15.86-1.31,8.25,8.25,0,0,0,1.35-.26c-1-1-1.74-1.73-2.5-2.45-1.83-1.7-3.63-3.44-5.52-5.06a4.91,4.91,0,0,1-1.61-5.4c.15-.56.18-1.16.38-1.71.94-2.7.29-5.23-.63-7.79a3.59,3.59,0,0,0-3.74-2.67c-2.25,0-4.5,0-6.75,0a7,7,0,0,1-4.43-1.41c-.94-.69-1.85-1.43-2.74-2.17-2.43-2-4.86-4-7.16-5.93-3.4.68-5.32,3-7.28,5.27a59.54,59.54,0,0,1-10.4,10c-.86-1.29-2-1-3.06-.44l-3.21,1.58-.43-.37a9.08,9.08,0,0,1,.8-2.19c1-1.5,2.28-2.86,3.32-4.36.84-1.21,2-2.49,2.13-3.85a20.58,20.58,0,0,1,2.32-6.51,33.89,33.89,0,0,0,1.85-4.37A16.26,16.26,0,0,0,326.64,343.05ZM125.9,287.76l.5-.35c.6.72,1.25,1.42,1.8,2.18,2.57,3.59,5.14,7.17,7.65,10.8a15.92,15.92,0,0,0,6.58,5.59c3.28,1.49,4.84.92,6.34-2.32,1-2.11,2.14-2.48,4.16-1.26,1.28.78,2.47,1.72,3.79,2.41a10.67,10.67,0,0,0,3.26,1.08,2.56,2.56,0,0,0,2.75-1.34c.58-1.07,0-1.92-.6-2.73a18.88,18.88,0,0,0-6-5.23c-3.08-1.65-6.16-3.32-9.16-5.11A30.39,30.39,0,0,1,133.8,276c-2.46-6.46-4.83-13-6.85-19.56a27.42,27.42,0,0,0-7.05-11.56c-2.34-2.35-4.46-4.93-6.7-7.39-.64-.7-1.32-1.36-2.14-2.2a14.72,14.72,0,0,0-2.56,7.57c0,1,.15,2.12-1.42,2.8,0-1.11,0-1.93,0-2.75.13-3.33.32-6.66.39-10a41.84,41.84,0,0,0-.22-5.22,3.43,3.43,0,0,0-2.09-3,6.61,6.61,0,0,0-.77,1.07c-1.91,4.43-3.86,8.85-5.64,13.34a7.18,7.18,0,0,0-.41,3.65,51.63,51.63,0,0,0,1.87,8,77.14,77.14,0,0,1,3.39,15.07,28.41,28.41,0,0,0,2.62,9.33c.88,1.75,2.14,3.09,4.44,3.08.06-.61.13-1.1.14-1.59.16-4.66.29-9.32.46-14a20.52,20.52,0,0,1,.38-3.22,7.79,7.79,0,0,1,3.95-5.21,8.35,8.35,0,0,1,2.07-.51,16.64,16.64,0,0,1-.45,2c-.68,1.79-1.32,3.6-2.15,5.32A25.79,25.79,0,0,0,112.51,274c.22,4,.52,8,.59,12a38.71,38.71,0,0,0,11.2,27,16.86,16.86,0,0,1,1.23,1.8,6.18,6.18,0,0,0,.92,1.05c.94.81,1.92,1.57,2.87,2.38a25,25,0,0,0,2.84,2.44c7.24,4.44,14.45,8.93,21.83,13.14a40.46,40.46,0,0,0,8.57,3.34,9.35,9.35,0,0,0,8.11-1.41c2.85-1.92,3.37-5.59,1.11-8.57-.94.42-1.92.85-2.9,1.31a19,19,0,0,1-13.4,1.13,5.2,5.2,0,0,1-4.16-3.91,53.59,53.59,0,0,1,5.37,1,12.32,12.32,0,0,0,10.93-1.79c3.78-2.55,4.2-4,2.36-8.11,0-.07-.12-.11-.4-.35-3.11.34-5.91-1-8.6-2.8a6,6,0,0,0-4.83-.53,16.05,16.05,0,0,0-2.36.83,9.39,9.39,0,0,1-6.12.33q-5.31-1.41-10.6-2.88a24.59,24.59,0,0,1-11.12-6.42,39.71,39.71,0,0,1-9.87-16.85,6.48,6.48,0,0,1-.12-1.32l.48-.22a21.19,21.19,0,0,1,1.33,2.17c1.16,2.49,2.2,5,3.39,7.51a25.68,25.68,0,0,0,10.65,10.93c1.53.9,3.17,1.8,5.33,1.33-.36-2.89-2.63-4.65-3.7-7s-2.54-4.49-3.79-6.75S127.15,290.07,125.9,287.76ZM420.71,107.2c1.42,1,2.52,1.71,3.57,2.48a1.78,1.78,0,0,0,2.48-.17c1.2-1,2.52-1.93,3.62-3q8.95-9.07,17.81-18.23,19-19.54,38-39.11c.93-1,1.84-1.94,2.84-2.81,1.78-1.55,3-1.15,3.59,1.08.08.32.08.66.15,1,.88,4.32,1.75,8.65,2.67,13,.19.91.22,2,1.37,2.57a9.12,9.12,0,0,0,.68-1.11c3.6-8.51,7.29-17,10.76-25.56a87.83,87.83,0,0,0,5.47-18.92c.34-2.11-.21-2.78-2.21-2.08-3.84,1.34-7.61,2.91-11.4,4.4-.85.33-1.65.78-2.49,1.12-3.62,1.47-7.29,2.83-10.88,4.39-3.2,1.4-6.26,3.13-9.47,4.51-4.89,2.11-9.87,4-14.8,6-.93.38-2,.56-2.61,1.89a11.17,11.17,0,0,0,1.62.28c3,0,6,0,9,.07,4,.1,8,.25,12,.48,1.71.1,2,.83,1.18,2.29a6.13,6.13,0,0,1-.58.82,120.48,120.48,0,0,1-13.3,14.23c-2.19,1.92-4.42,3.82-6.45,5.91q-15,15.38-29.91,30.88c-1.26,1.31-2.29,2.85-3.46,4.26-.84,1-1.67,2-2.59,3C425.23,102.87,423.07,104.92,420.71,107.2ZM54.58,521.13c1.62-.86,2.72-1.36,3.73-2,2.65-1.72,5.19-3.63,7.9-5.23q11.18-6.59,22.49-13a6,6,0,0,0,3.37-5.86c-.08-3.91.14-7.82.15-11.73q0-9.49-.07-19a3.6,3.6,0,0,0-1.19-3.2c-.64.67-1.21,1.26-1.77,1.86-5.15,5.55-10.27,11.13-15.46,16.64-3,3.15-6.33,6-9,9.32a28.14,28.14,0,0,1-9.42,7.61c-2,1-2.37,2.38-2.18,4.46.47,5.21.71,10.45,1.06,15.68C54.25,518,54.39,519.17,54.58,521.13Zm25.86-70.81c-1.13.11-2.35.17-3.55.34-2.88.41-5.75.94-8.64,1.31q-9.65,1.24-19.32,2.35a5.71,5.71,0,0,0-5,3.59c-.4.91-.94,1.76-1.41,2.64-3.71,7-7.44,14-11.11,21-.61,1.16-.83,2.53-1.43,3.7-1.55,3-3.25,6-4.83,9a17.43,17.43,0,0,0-.83,2.63c2.42-.57,4.34-1,6.26-1.48l15.57-3.49a3.56,3.56,0,0,0,2.66-2.36,15.24,15.24,0,0,1,1.83-3.21c.82-1.14,1.9-2.09,2.72-3.23,5.48-7.55,10.93-15.12,17.57-21.73,2.83-2.82,5.69-5.61,8.52-8.44C80.1,452.26,81,451.74,80.45,450.32ZM51.38,493a6.32,6.32,0,0,0,6.54-1.36A83,83,0,0,0,69.2,480c1.62-2,3.34-3.94,5.11-5.81,3.15-3.32,6.38-6.57,9.58-9.84,2.85-2.92,5.59-6,8.58-8.72,14.06-13,27.21-26.93,40.63-40.58a9.67,9.67,0,0,0,.69-.72c.86-1.08.87-1.87-.31-2.44a7.44,7.44,0,0,1-3.05-2.78,1.37,1.37,0,0,0-2.16-.31,40.69,40.69,0,0,0-3.39,2.52q-5.14,4.73-10.16,9.59c-3.11,3-6.14,6.09-9.21,9.14-.71.7-1.42,1.4-2.14,2.09-5.85,5.68-11.82,11.25-17.53,17.07-6.23,6.36-12.18,13-18.32,19.45A113.83,113.83,0,0,0,54,486,15.77,15.77,0,0,0,51.38,493Zm185.4-249.2a19.05,19.05,0,0,0-2.63.37c-3.08,1-6.15,2-9.22,3.08A34.71,34.71,0,0,1,220,249a15.75,15.75,0,0,0-6,2.26,13.29,13.29,0,0,1-4.36,1.76c-7.45,1.58-14.15.11-20-5-3.48-3-6.24-3.25-10.29-1-2.26,1.24-4.45,2.61-6.62,4-1.86,1.2-2.15,2.59-1,4.44a9.92,9.92,0,0,0,1.57,1.92c2.75,2.66,5.54,5.28,8.32,7.91a11.91,11.91,0,0,0,7.4,3.19,158,158,0,0,0,25.43-.09,9.54,9.54,0,0,0,3.11-.8A24.76,24.76,0,0,0,229,257.8c1.49-2.4,3-4.82,4.36-7.28C234.48,248.51,235.46,246.42,236.79,243.83Zm92.44,17.57a8.64,8.64,0,0,0-1.68-1,20.29,20.29,0,0,0-2.66-.4c-3.11-.28-6.25-.58-8.11-3.54a4.08,4.08,0,0,0-3.42-2.08c-4.39-.39-8.76-.93-13.15-1.3a28.17,28.17,0,0,1-8.94-2.09c-3.59-1.55-7.21-3-10.69-4.81A21.73,21.73,0,0,0,269.45,244c-2.23.1-2.6.52-1.65,2.55,1.89,4.07,4,8,5.89,12.1A15,15,0,0,0,284,267.24c.72.19,1.43.43,2.16.61,8.35,2.06,16.89,2.72,25.42,3.43a7.41,7.41,0,0,0,3.87-.7c3.31-1.73,6.52-3.65,9.68-5.65A38.28,38.28,0,0,0,329.22,261.4Zm56.83,36.23c-4,.79-7.63,1.45-10.89,3.11a37.07,37.07,0,0,0-6.82,4.52c-2.74,2.28-5.24,4.86-7.79,7.37a8.82,8.82,0,0,1-6.63,2.92,5.48,5.48,0,0,0-4.69,2.46c1.25.83,2.39,1.51,3.44,2.31a22,22,0,0,1,3,2.61,5.65,5.65,0,0,0,5.16,1.88,23.46,23.46,0,0,0,3.89-.83C377.59,320.06,383.29,310.31,386.05,297.63ZM143.3,276.8a18,18,0,0,1,2.22.87,48,48,0,0,0,11.89,4.48,10.63,10.63,0,0,0,2.71.37c2.51,0,3.68-1.67,2.74-4a5.11,5.11,0,0,0-1.49-1.93,38.58,38.58,0,0,0-3.68-2.58,76.55,76.55,0,0,1-16.27-13.55,30.24,30.24,0,0,0-2.92-2.56c-2,2.26-2.18,3.11-.94,5.3,1,1.72,2,3.4,3,5.09a8.61,8.61,0,0,1-1.2,1.26c-3.24,2.13-3.35,5.78-1.59,8.83a36,36,0,0,0,7,8.74c2.88,2.62,6.05,2.59,9.85,1.24a31.54,31.54,0,0,0-2.06-3.26,23.42,23.42,0,0,0-6.74-5.49C144.83,279.08,143.69,278.65,143.3,276.8Zm27.64,85.43c-3.14-.51-3.74-.26-4.78,2.05a33.71,33.71,0,0,0-3,13.8,12,12,0,0,0,1.32,5.24,14.75,14.75,0,0,0,14.39,7.56,39.72,39.72,0,0,0,7.69-2,12.08,12.08,0,0,0,5.9-4.2l-1.27-2.17c-1.35.42-2.52.83-3.71,1.16-4.87,1.35-8.92-.75-10.21-5.57-.81-3-1.17-6.19-1.74-9.29-.16-.86-.36-1.71-.55-2.6a3.1,3.1,0,0,0-3.09,2.08,10.74,10.74,0,0,0-.73,2.63c-.34,2.55-.57,5.12-.9,7.67a7.06,7.06,0,0,1-.66,1.57c-.34-.46-.59-.64-.62-.85-.54-3.62-1.21-7.24.14-10.83.47-1.24,1-2.48,1.36-3.75A21,21,0,0,0,170.93,362.23Zm170.39-78.55c-.86,3.75-1.74,7-2.3,10.22a51,51,0,0,0-.74,8.19,4.24,4.24,0,0,0,5.79,4.24c2.26-.7,4.42-1.75,5.69-3.84a13.93,13.93,0,0,1,6.92-5.83c2.48-1,3.17-3.43,2-5.83a5.73,5.73,0,0,0-1.14-1.62c-2.25-2.08-2.83-4.4-1.26-7.16.52-.91.75-1.95-.23-2.72a2.18,2.18,0,0,0-3,.22,32.94,32.94,0,0,0-3,3.25c-.64.76-1.07,1.7-1.73,2.44-1.51,1.68-3.09,1.76-4.82.35C342.88,285.12,342.35,284.61,341.32,283.68ZM269.8,213.82c.94.88,1.7.31,2.43,0,1.84-.76,3.62-1.73,5.5-2.36a38.65,38.65,0,0,1,20.95-.94,14.53,14.53,0,0,0,2.71.37,1.6,1.6,0,0,0,1.69-1.53,2.18,2.18,0,0,0-.76-1.61,44.15,44.15,0,0,0-4.11-2.83c-2.36-1.46-4.59-3-6-5.55a2.67,2.67,0,0,0-2.73-1.38,52.13,52.13,0,0,1-5.23.34c-3-.13-4.83,1.4-6.39,3.62-2.39,3.41-4.81,6.8-7.19,10.21A16.22,16.22,0,0,0,269.8,213.82Zm-28,305.73c5.14,4.75,10.12,9.16,15.28,13.36,4.87-5.78,8.32-12.16,8.31-15.23C262.28,516.68,245.77,517.85,241.77,519.56ZM195.59,196.21c-4.07.45-7.61.77-11.13,1.25a7.38,7.38,0,0,0-4.35,2.73q-2.94,3.23-6,6.37c-2.94,3.08-3.37,8.67-.85,12.43a15,15,0,0,0,4.59-5.11,29.83,29.83,0,0,1,12.93-11.7C193.05,201.14,194.53,199.24,195.59,196.21ZM333.74,217a11.55,11.55,0,0,0-3.25,6.17,86.09,86.09,0,0,1-2.22,8.93,19.94,19.94,0,0,0-.94,4.1,35.08,35.08,0,0,1-1.68,9,20.85,20.85,0,0,0-1,4.36c-.14,1.88.91,2.44,2.47,1.45a12.67,12.67,0,0,0,5.31-6.72,34.09,34.09,0,0,0,1.81-11.27,15.6,15.6,0,0,1,1.52-7.49C337.78,221.83,337.36,220.08,333.74,217Zm-12.26,21.28a20.07,20.07,0,0,0,2.73-2.45,19.79,19.79,0,0,0,4-8.26c.75-4.42,1.31-8.88,1.81-13.35.52-4.66-2.84-7.26-5.46-10.44-2.18,3.71-3.3,9.72-2.51,13.27a25.79,25.79,0,0,1-.08,12.6,35.69,35.69,0,0,0-.79,5.93A15.53,15.53,0,0,0,321.48,238.29Zm-91.09-23.05-8.57-15.17a3.76,3.76,0,0,0-.46-.59c-2.34-2.69-3.71-2.69-5.95,0a14.25,14.25,0,0,0-.89,1.2q-2.9,4.36-5.78,8.74a14.25,14.25,0,0,0-.68,1.32C208.52,210.79,229.66,215.43,230.39,215.24ZM378.94,327.38c-.81.27-1.28.39-1.73.57-4.63,1.89-9.25,3.78-13.87,5.7-1.61.67-3.21,1.4-4.77,2.18s-1.88,1.89-.66,3.35A6.17,6.17,0,0,0,364,341l2.14-.64c2.71-.78,5.45-1.48,8.11-2.38a3.94,3.94,0,0,0,2-1.69A19.22,19.22,0,0,0,378.94,327.38ZM182.12,219.44a37,37,0,0,0,3.53-1.2,24.18,24.18,0,0,0,9.64-8.12c2.82-3.92,5.58-7.88,8.33-11.85a8.32,8.32,0,0,0,.64-1.67c-1.53,0-2.78.08-4,0a2.83,2.83,0,0,0-3.11,1.88,18.69,18.69,0,0,1-4.93,6.21c-4.55,3.81-7.35,9-10.29,14C181.9,218.69,182,218.8,182.12,219.44ZM357,327.86a3.39,3.39,0,0,0,3.25,2.57,17.19,17.19,0,0,0,3.23-.24c11.58-2,19.1-9.13,24.32-19.15a23.37,23.37,0,0,0,1.56-4.47,13.87,13.87,0,0,0,.25-2.5C382.38,317.08,372.14,325.61,357,327.86ZM161.17,353.1c2.33,2.78,5,3.32,7.09,1.26a18.79,18.79,0,0,0,5.89-12,1.39,1.39,0,0,0,0-.74c-.35-.61-.65-1.41-1.2-1.67-.35-.17-1.3.31-1.62.76a28.92,28.92,0,0,0-2.59,4.23,15.8,15.8,0,0,1-5.71,6.75C162.4,352.06,161.86,352.56,161.17,353.1ZM244.71,232l13.21-.69c.08-.82.19-1.38.18-1.94,0-2.33-.58-2.87-3-2.91-2.16,0-4.31-.05-6.47,0-1.47,0-2.93.09-4.29.13C243.43,229.17,243.45,229.42,244.71,232ZM153.83,339a28,28,0,0,0-.16,3.75,4,4,0,0,0,3,3.56,6.07,6.07,0,0,0,7.8-4.56c.33-1.54-.08-2.06-1.72-2.27-1.06-.14-2.11-.41-3.17-.46C157.8,338.95,156,339,153.83,339Zm128.5-108.47a25.3,25.3,0,0,0-3.27,2.57,3.91,3.91,0,0,0,1.57,6.41c1.46.58,2.95,1.11,4.44,1.59a15.75,15.75,0,0,0,2.23.36Zm22-.69-2.42,10.42a13.25,13.25,0,0,0,6.07-1,2.2,2.2,0,0,0,1.18-1.66,7.44,7.44,0,0,0-.9-3.73A30.77,30.77,0,0,0,304.31,229.84ZM200.38,231c-.64.08-1.19,0-1.39.21-1.54,1.7-3.07,3.43-4.45,5.26a2,2,0,0,0,.28,1.79,44.09,44.09,0,0,0,3.62,4.07c.37.37,1.07.42,1.95.73-.49-2.28-1.21-4.11-1.2-5.94S199.91,233.26,200.38,231Zm3.06,2.7c1.94-.38,3.74-.65,5.47-1.13a1.78,1.78,0,0,0,1-1.37c0-.4-.79-1-1.31-1.08a11.7,11.7,0,0,0-3,0C203.5,230.23,203,230.92,203.44,233.7Zm87.35-5.28c-.12,0-.7,0-1.27.08-1.2.11-1.41.95-1.38,1.94a1.28,1.28,0,0,0,1.61,1.37c1.14-.13,2.28-.32,3.41-.47.83-.11,1.05-.69,1.06-1.41s-.34-1.44-1.26-1.5C292.39,228.38,291.81,228.42,290.79,228.42Zm-68.56,11.42-1.93-5.26-.56.14v6Z"/><path d="M308.42,124.66a14.39,14.39,0,0,1,1.86-.09,45.41,45.41,0,0,1,17.57,5.28,6.4,6.4,0,0,1,2.33,2.13,59.23,59.23,0,0,1,3.4,6.1A39.06,39.06,0,0,0,339.1,147,13.77,13.77,0,0,1,342.66,157c-.13,3.14.56,6.3.59,9.46,0,4.32-.13,8.64-.36,13a16.58,16.58,0,0,1-1,3.51,1.76,1.76,0,0,1-1.72-1.83c-.38-6.42-2.87-12.07-6.21-17.46a34.63,34.63,0,0,1-4.8-16.63c-.14-2.41-.33-4.82-.57-7.22a7.4,7.4,0,0,0-4.66-6.55c-3.89-1.7-7.73-3.52-11.55-5.38-1.47-.71-2.81-1.67-4.21-2.52Z"/><path d="M317.21,112c2.83-1.17,5.34,1,8,.29a4.11,4.11,0,0,0-1.25-3.59c-3.55-3.72-6.52-8-10.89-10.93a11.51,11.51,0,0,1-1.89-2,1.69,1.69,0,0,1,2.59-.54c3,1.7,6.25,3.14,8.8,5.64a13.15,13.15,0,0,0,2,1.53,27.83,27.83,0,0,1,11.93,17.78c.7,3.06,1.5,6.13,1.15,9.82a20.54,20.54,0,0,1-1.8-1.48c-2.35-2.48-4.71-4.94-7-7.49a19.8,19.8,0,0,0-7.68-5.39C318.76,114.68,318.27,114.16,317.21,112Z"/><path d="M143.16,220.31V215a1.88,1.88,0,0,1,2.52.72c1.37,1.69,2.94,2.62,5.21,2a1.7,1.7,0,0,1,2.21,1.47,27,27,0,0,1,.43,3.21c.39,3.8.8,7.61,1.12,11.42.12,1.46,0,2.93,0,4.43a2.67,2.67,0,0,1-3.55-1.37c-2.12-4.39-5.69-7.5-9-10.93a31.62,31.62,0,0,1-7.72-12.4,10.46,10.46,0,0,1-.44-6.35c1.38-.52,2.15.27,2.63,1.26a25.34,25.34,0,0,1,1.37,3.73c.6,2,1,4,1.69,6S141,220.37,143.16,220.31Z"/><path d="M181.86,164.86a14,14,0,0,1-.86,2.78,12.22,12.22,0,0,0-1.66,7.65c.16,1.82.09,1.83-1.92,2a8.8,8.8,0,0,0-.94-1.94c-.36-.44-1.09-1-1.53-.87a2.12,2.12,0,0,0-1.16,1.37,5.49,5.49,0,0,0,.11,2c.17,1.63.35,3.26.54,5-2,.1-2.91-1.14-3.76-2.34a23.61,23.61,0,0,1-4.45-12.26c-.18-2.81,0-5.64.08-8.47a4.19,4.19,0,0,1,.41-1.67c.93-1.92,2-2.07,3.33-.39s2.49,3.32,3.65,5a4.55,4.55,0,0,0,4.46,2.14C179.21,164.8,180.27,164.86,181.86,164.86Z"/><path d="M139.85,164.36c2.39,3.38,2.83,8,7.31,9.22,1.45-.5,1.32-3,3.68-2.44-.19,1-.3,2.09-.57,3.1a63.2,63.2,0,0,0-2.22,18c.17,6.18,2.54,11.11,7.84,14.5.89.57,1.89,1.09,2,2.42-1.15.61-2.11.09-3-.43a16.18,16.18,0,0,1-7.72-9.44,36.17,36.17,0,0,1-1.9-12.53,6.82,6.82,0,0,0-1.46-4.84c-3.6-4.52-4.43-9.93-4.56-15.51a3.9,3.9,0,0,1,.12-1A8,8,0,0,1,139.85,164.36Z"/><path d="M364.22,207.45c.42.46,1.06.86,1.22,1.39,1.46,4.91,3.88,9.66,3.19,15-.66,5-1.49,10-2.3,15a4.22,4.22,0,0,1-2.51,3.49c-2,.83-3.63-.23-3.45-2.39a9.52,9.52,0,0,1,1.18-3.5,46.14,46.14,0,0,0,4.26-11.42,16.42,16.42,0,0,0,0-7.42c-.66-2.84-1.35-5.66-2-8.5a9.75,9.75,0,0,1-.12-1.45Z"/><path d="M204.43,310.88c.13.49.34.83.28,1.11-.49,2.43.83,4,2.79,4.71a56.79,56.79,0,0,0,10,3.1,140.41,140.41,0,0,0,14.12,1.61,43.18,43.18,0,0,1,11,1.87,27.42,27.42,0,0,0,10.1,1.38c9.4-.34,18.79-.79,28.17-1.42a24.77,24.77,0,0,0,6.68-1.86c2.67-1,7.12-.6,9.32,1.15a2.91,2.91,0,0,1-2.44.84,15.25,15.25,0,0,0-8.43,3.35,28.77,28.77,0,0,1-12.57,5.18c-3.43.59-6.8,1.54-10.2,2.29a15.73,15.73,0,0,1-3.67.6c-7.65-.19-15.33-.25-22.77-2.43a67.63,67.63,0,0,1-7.54-2.59c-7.19-3.07-14.33-6.28-21.49-9.43-2.34-1-4.41-2.39-5.53-4.8C201.21,313.4,201.93,311.78,204.43,310.88Zm49.64,18c.42.69.76,1.35,1.19,1.93a3.82,3.82,0,0,0,4.09,1.77,35,35,0,0,0,5.68-1.82,4,4,0,0,0,2.52-4.36c-1,0-2,.08-3,.14-2.23.15-4.5.67-6.68.4-6.09-.76-12.16-1.76-18.21-2.83A50.47,50.47,0,0,0,227.85,323a17.69,17.69,0,0,0-1.93.33,4,4,0,0,0,2,3c1.43.9,1.83-1.18,2.91-1.06.63,1.24.92,2.81,1.87,3.5a14.91,14.91,0,0,0,8.11,2.77c.64-1.09.26-2.4,1.81-2.6a11,11,0,0,0,.59,2.17c.26.53.84,1.31,1.24,1.29,3.33-.16,7.16.92,9.12-3.19C253.58,329.12,253.7,329.1,254.07,328.92Zm24.64-3c-3.08,0-5.68-.07-8.29,0-1.07,0-1.43.85-.84,1.76a2.59,2.59,0,0,0,1.46,1.16A7.87,7.87,0,0,0,278.72,325.89Z"/><path d="M229.72,272.88a9.88,9.88,0,0,1-1.3,2.13c-1.07,1-2.3,1.91-3.46,2.86-.71.58-1.45,1.12-2.1,1.76-2.82,2.77-3,4.84-.85,8.15.18.27.33.56.5.84-1.07.69-1.07.69-4.13-2.23-1.24.22-1.8,1.3-2.47,2.2-2.31,3-4.56,6.14-6.89,9.18a32.49,32.49,0,0,1-9,8.16c-.64.39-1.23.85-1.87,1.25-2.64,1.67-4.35,3.85-4,7.19a2,2,0,0,1-.16.72c0,.06-.12.09-.31.23a1.56,1.56,0,0,1-1.3-1.94,14,14,0,0,1,1.19-4.49,21.87,21.87,0,0,1,6.79-7.53c2.92-2.05,5.78-4.2,8.58-6.41a13.15,13.15,0,0,0,2.47-2.77c2.54-3.6,5-7.24,7.52-10.88s5.93-6,9.38-8.49a3.71,3.71,0,0,1,.9-.34Z"/><path d="M272.23,286.2c-1.1,1.72-2.11,3.37-3.21,5a6,6,0,0,1-3.91,2.48,8,8,0,0,0-5.32,3.78,15.42,15.42,0,0,1-7.11,5.7,6,6,0,0,1-5.54,0,49.4,49.4,0,0,1-5.77-3.86,34.92,34.92,0,0,1-3.94-3.82,12.52,12.52,0,0,0-7.26-3.53,18.31,18.31,0,0,1-4.19-1.44c-.7-.32-1.49-.94-1.16-2a1.62,1.62,0,0,1,2-1,17.47,17.47,0,0,1,4.51,1.21,39.84,39.84,0,0,1,10.71,8.5,34.32,34.32,0,0,0,2.85,2.8,7.7,7.7,0,0,0,10.83-.41,16.8,16.8,0,0,0,1.51-1.66,53.45,53.45,0,0,1,12.34-10.83C270.36,286.57,271.1,285.73,272.23,286.2Z"/><path d="M283.26,287.77a17.11,17.11,0,0,1,2.53,1.79Q296,300,306.22,310.48A5.6,5.6,0,0,1,308,315.7c-.3,1.43-1.27,2.14-2.5,1.71-.49-.17-1.21-.91-1.15-1.29.6-4.12-2.06-6.77-4.4-9.38-4.39-4.9-9.06-9.55-13.59-14.33-1.25-1.32-2.43-2.71-3.64-4.06Z"/><path d="M275.14,289.57c.41-1.43,1.64-1.79,2.5-2.48,2.29-1.85,2.53-2.72,1.24-5.32-1.47-3-3.95-4.89-6.7-6.54a2,2,0,0,0-2.34.09c-.61.4-1.29.69-2.35,1.24.37-3.7.07-7-1.81-10l.5-.2a5.68,5.68,0,0,1,1,1.23c1.25,3.07,3.58,5.09,6.22,7a41,41,0,0,1,6.44,5.46,6.15,6.15,0,0,1-1.43,9.32A2.77,2.77,0,0,1,275.14,289.57Z"/><path d="M232.38,272.85a9.13,9.13,0,0,1,1.16-6.69A7,7,0,0,1,232.38,272.85Z"/><path d="M283.18,468.16a9.19,9.19,0,0,1,6.37-2.85c5.82-.59,5.85-.58,10.09,3.61,3.37,3.33,6.66,6.74,10,10.11a6.17,6.17,0,0,0,1,.64,16,16,0,0,0,1.31-1.41c2.16-3,4.29-5.95,6.45-8.91.64-.87,1.38-1.67,2.06-2.51a4.19,4.19,0,0,1,3.47-1.59c2.58,0,5.15-.29,7.73-.41a4,4,0,0,1,3.73,1.57c-1,.72-2,1.37-2.89,2a4.43,4.43,0,0,0-2.16,3.74c0,6.16-.59,12.33.45,18.46.29,1.72.68,3.43.9,5.17.29,2.29-.16,2.81-2.43,3.09a5.59,5.59,0,0,1-1.24,0c-2.37-.24-3.13-1.21-2.48-3.5a28.2,28.2,0,0,0,.91-9.15c-.16-3.41-.29-6.83-.45-10.24a14.47,14.47,0,0,0-.27-1.52,15.83,15.83,0,0,0-2,1.28c-2.61,2.33-5.21,4.67-7.75,7.08a26.28,26.28,0,0,0-2.59,3c-1.94,2.5-2.83,2.7-5.38.89-4.28-3-8.51-6.14-12.77-9.2a20.85,20.85,0,0,0-2-1.1,13.57,13.57,0,0,0-.5,2.87c.38,6.21.12,12.49,1.92,18.56,1,3.47.35,4.31-3.26,4.24a9.17,9.17,0,0,1-1.49-.12,1.46,1.46,0,0,1-1.34-2c1-4.3.44-8.61.19-12.93-.22-3.74-.24-7.5-.22-11.24,0-2.22-.68-3.85-2.73-4.89A4.78,4.78,0,0,1,283.18,468.16Z"/><path d="M230.27,472.34c-.73.64-1.49,1.38-2.32,2a3.31,3.31,0,0,0-1.33,3c.3,5.57.44,11.15.88,16.71a62.32,62.32,0,0,0,1.44,7.58c.2,1,.48,1.89.78,3h-6.86c-.05-.3-.14-.48-.1-.61,2.71-8.31,1.17-16.82,1.18-25.26,0-.13-.18-.25-.45-.62-.88.69-1.83,1.31-2.64,2.08-3.1,2.91-6.15,5.86-9.23,8.79-.54.52-1.08,1.05-1.66,1.52-1.52,1.22-2.41,1.25-4,.1a15.67,15.67,0,0,1-1.67-1.5c-2.42-2.29-4.81-4.61-7.28-6.85a31.37,31.37,0,0,0-3.13-2.18,22.71,22.71,0,0,0-.14,2.27c.18,3.49.35,7,.61,10.47a33,33,0,0,0,3.19,11.23c1.27,2.8.9,3.29-2.22,3.33-1.67,0-3.33.09-5,0-1.29-.05-1.75-.78-1.36-2a7.66,7.66,0,0,1,.66-1.34,7.17,7.17,0,0,0,.81-4.84A145,145,0,0,1,188.48,480a9.72,9.72,0,0,0-1.74-5.85c-1.38-1.81-.85-2.9,1.37-3.29,2-.34,4-.52,6-.68s3.43,1,4.53,2.61l8.74,12.49c.33.47.68.94,1.15,1.58.57-.6,1.11-1.09,1.55-1.65,2.92-3.74,5.85-7.48,8.72-11.26a9.08,9.08,0,0,1,8.76-3.69A2.87,2.87,0,0,1,230.27,472.34Z"/><path d="M243,485.85c.21-2,.37-4,.63-6a10.75,10.75,0,0,1,4-7.26,22,22,0,0,1,16.52-4.92,7.86,7.86,0,0,1,4.29,1.83,35.11,35.11,0,0,1,8.7,11.14,12.24,12.24,0,0,1,1.19,6.56,19.47,19.47,0,0,1-5.42,12.57c-3.63,3.75-8.37,4.51-13.31,4.54a26.77,26.77,0,0,1-2.74-.25,13.24,13.24,0,0,1-9.85-5.66C244.27,494.69,242.62,490.61,243,485.85Zm27.77,3.23c-.42-2.57-.7-5.3-1.33-8-1-4.3-6.81-9.21-11.19-9.65-1.75-.18-3.5-.23-4.9,1.21a18.38,18.38,0,0,0-5.07,8.46c-1.52,6.2.27,11.69,3.88,16.68a8.07,8.07,0,0,0,7.25,3.17,25.57,25.57,0,0,0,4.44-.62,7.67,7.67,0,0,0,6.09-5.94A50.42,50.42,0,0,0,270.73,489.09Z"/></svg>