<svg xmlns="http://www.w3.org/2000/svg" viewBox="0 0 144 144"><defs><style>.cls-1{fill:#abc038;stroke:#abc038;stroke-miterlimit:10;stroke-width:8px;}.cls-2{fill:none;stroke:#edec84;stroke-linecap:round;stroke-linejoin:round;stroke-width:2px;}.cls-3{fill:#edec84;}</style></defs><title>asparagus</title><g id="Layer_2" data-name="Layer 2"><path class="cls-1" d="M139.42,129.91c-2.88-6.92-12.59-15.9-29.68-27.47A299.46,299.46,0,0,1,77.81,77.19C72.9,72.76,68.11,68,63.49,63.49c-2.08-2-6-6.27-6.1-6.46-.46-.86-4.57-8.45-7.08-10.37-1.39-1.06-5.61-2.12-6.79-2.4-1.31-1.23-2.77-2.67-4.46-4.42a11.14,11.14,0,0,0-4.17-4.4c-2-2.15-4.06-4.41-6.11-6.68.46-6.73-10-13.31-13-14.21C9.63,8.19,8,7.43,6.84,8.22A4.31,4.31,0,0,0,5.2,10.61a1,1,0,0,0-.06.26V11C5,12.74,4.65,19.8,5,21.3c.47,1.91,2.7,3.42,3.7,4a85.17,85.17,0,0,0,4.54,8.18c.42,1.88,2.36,9.41,6.36,10.3a3.31,3.31,0,0,0,.62,0h.19c1.31,1.75,2.65,3.47,4,5.14.5,2.89,4.8,11.27,7.78,12.87a10.36,10.36,0,0,0,4.71,1h.3l3,3.07C45.27,71.14,49.93,75.94,51,76.82c1.59,1.3,3.41,2.84,5.46,4.57l3.43,2.89c.52,1.59,2.32,6.68,4.34,7.87.84.5,7.32,2.44,9.61,3.12a19.87,19.87,0,0,1,1.81,1.92c1.91,2.2,5.11,5.86,14.66,13.7.91,3.68,5.87,9.65,7.22,10.27a3.36,3.36,0,0,0,1.41.27,11.19,11.19,0,0,0,3.46-.74c4.35,3.43,23.56,18.06,25.7,18.06h0c2.74-.36,4.63-2.28,6.45-4.15a13.7,13.7,0,0,1,4.27-3.38,1,1,0,0,0,.54-1.31Z"/><path class="cls-2" d="M77.14,77.93c1.47,3.66,2.34,12.18,4.85,16.4,4.75,2.17,6.41-2.92,8.65-4.61"/><path class="cls-2" d="M55.39,77.94c-2.59-4.1-3.24-6.29-5.17-11.11,3.25,1,11.81,1.71,12.44,3.3,1.06,2.64-3,6.49-5.54,7.89"/><path class="cls-2" d="M56.5,57.5s-4.39-8.2-6.8-10C48.3,46.38,43,45.17,43,45.17"/><path class="cls-2" d="M25.36,48.56c.17,2.36,4.66,11,7.31,12.41a10.35,10.35,0,0,0,4.93.84"/><path class="cls-2" d="M25.5,48c-.13.07-.16.29-.14.58"/><path class="cls-2" d="M37.59,61.8c.06-2.95-1.1-4.74,1.07-6.74"/><path class="cls-2" d="M14.2,33.12c.86,3.93,2.88,9.09,5.63,9.7a5.92,5.92,0,0,0,1.07,0"/><path class="cls-2" d="M20.91,42.82c.94-.06,2.17-.24,2.46-.65.4-.55,1.61-2.66,1.4-3.29-.58-1.73-8.13-8.83-11-8.55a20.25,20.25,0,0,0,.43,2.79"/><path class="cls-2" d="M38.24,40.43a10.17,10.17,0,0,0-4-4.23"/><path class="cls-2" d="M34.23,36.2c-2.88-1.79-5.63-1-7.14-1.4.92,2.68,6,11.63,6.22,11.88.49.46,3.77-.08,4.68-.28a7.55,7.55,0,0,0,.24-6"/><path class="cls-2" d="M27.74,29.11c.95-6.34-10.18-13.27-12.52-13.66"/><path class="cls-2" d="M6.13,11s0-.05,0,0h0S6.14,11,6.13,11Z"/><path class="cls-2" d="M6.13,11C6,13.28,5.69,19.85,6,21.07s1.83,2.61,3.49,3.54"/><path class="cls-2" d="M60.75,83.7s2,6.45,4,7.59c.83.49,9.61,3.09,9.61,3.09"/><path class="cls-2" d="M38,46.41c-.92.2-4.19.74-4.68.28"/><path class="cls-2" d="M34.23,36.2c-2.12-2.28-4.32-4.69-6.49-7.09,0,.24-2.76.43-4.87.28-2.74-2.21-7.83-11.27-7.72-14l.07,0c-4.05-4.23-7-6.94-7.81-6.4A3.35,3.35,0,0,0,6.13,11c.49,1.55,4,6.2,5,7.4,1.2,1.44,1.91,5.46,1.91,7.39a7.88,7.88,0,0,1-3.56-1.15,83.84,83.84,0,0,0,4.72,8.51,20.25,20.25,0,0,1-.43-2.79c2.87-.27,10.42,6.83,11,8.55.21.63-1,2.74-1.4,3.29-.29.4-1.52.59-2.46.65,1.52,2,3,4,4.45,5.74,0-2.8,12,4.13,13.31,6.5-2.17,2-1,3.79-1.07,6.74,0-.09,12.36,12.87,14,14.25,2.48,2,5.5,4.61,9.12,7.65,2.57.94,10.78.53,11.75,1.74,1.51,1.9,1.84,8.94,1.84,8.94,2.46,2.07,3.2,4.77,16.86,16,.85-3.81,13,.85,13.13,1a11.31,11.31,0,0,1,2.51,6.27,37,37,0,0,1-4.24,1.92c8.75,7,24.49,18.31,25.43,18.19,4.32-.56,6.44-5.82,10.47-7.46-3.9-9.38-20.9-21.33-29.31-27a301.94,301.94,0,0,1-32-25.33c-7.41-6.68-14.69-14.17-21-20.18-1.57,1.29-4.6-.31-8.17,1.66-2.36-2.14-5-14.24-5-14.24-1.47-1.37-3.08-3-4.79-4.74"/><path class="cls-2" d="M91.2,110.33c.58,3.3,5.65,9.42,6.75,9.92s2.86,0,4.65-.69"/><path class="cls-3" d="M139.42,129.91c-2.88-6.92-12.59-15.9-29.68-27.47A299.46,299.46,0,0,1,77.81,77.19C72.9,72.76,68.11,68,63.49,63.49c-2.08-2-6-6.27-6.1-6.46-.46-.86-4.57-8.45-7.08-10.37-1.39-1.06-5.61-2.12-6.79-2.4-1.31-1.23-2.77-2.67-4.46-4.42a11.14,11.14,0,0,0-4.17-4.4c-2-2.15-4.06-4.41-6.11-6.68.46-6.73-10-13.31-13-14.21C9.63,8.19,8,7.43,6.84,8.22A4.31,4.31,0,0,0,5.2,10.61a1,1,0,0,0-.06.26V11C5,12.74,4.65,19.8,5,21.3c.47,1.91,2.7,3.42,3.7,4a85.17,85.17,0,0,0,4.54,8.18c.42,1.88,2.36,9.41,6.36,10.3a3.31,3.31,0,0,0,.62,0h.19c1.31,1.75,2.65,3.47,4,5.14.5,2.89,4.8,11.27,7.78,12.87a10.36,10.36,0,0,0,4.71,1h.3l3,3.07C45.27,71.14,49.93,75.94,51,76.82c1.59,1.3,3.41,2.84,5.46,4.57l3.43,2.89c.52,1.59,2.32,6.68,4.34,7.87.84.5,7.32,2.44,9.61,3.12a19.87,19.87,0,0,1,1.81,1.92c1.91,2.2,5.11,5.86,14.66,13.7.91,3.68,5.87,9.65,7.22,10.27a3.36,3.36,0,0,0,1.41.27,11.19,11.19,0,0,0,3.46-.74c4.35,3.43,23.56,18.06,25.7,18.06h0c2.74-.36,4.63-2.28,6.45-4.15a13.7,13.7,0,0,1,4.27-3.38,1,1,0,0,0,.54-1.31ZM89.27,89.63c-.4.41-.78.88-1.17,1.37-1.76,2.2-3,3.49-5.41,2.54-1.35-2.45-2.21-6.35-3-9.81-.21-.95-.41-1.87-.62-2.74C82.46,84,85.86,86.86,89.27,89.63ZM55.18,57.17a6.88,6.88,0,0,1-1.89.16,11.53,11.53,0,0,0-5,.85c-1.32-2-2.93-7.5-3.91-11.64a19.32,19.32,0,0,1,4.73,1.71C50.74,49.51,53.73,54.54,55.18,57.17ZM37.33,40.85h0a6.49,6.49,0,0,1,0,4.67l-.47.08-.19,0-.35.05-.17,0-.41.05h-.12l-.51.05h0c-.34,0-.63,0-.87,0H34c-.75-1.21-3.85-6.75-5.3-9.89h.27a8.48,8.48,0,0,1,4.77,1.09h0A9.17,9.17,0,0,1,37.33,40.85ZM26.79,28.34a23,23,0,0,1-3.52.08c-2.2-2-5.79-8.18-6.83-11.45C19.76,18.61,26.82,23.68,26.79,28.34ZM7,20.83a48.44,48.44,0,0,1,0-6.42c1.38,2,3.08,4.21,3.41,4.61.8,1,1.42,3.61,1.61,5.58a9.66,9.66,0,0,1-2-.86C8.37,22.85,7.16,21.68,7,20.83ZM15.17,32.9h0c-.11-.48-.19-.95-.26-1.37,2.86,1.11,8.25,6.2,8.87,7.58a9.43,9.43,0,0,1-1.17,2.4,5.8,5.8,0,0,1-1.76.31h0c-.37,0-.64,0-.74,0h0C18,41.4,16.07,37,15.17,32.9Zm11.24,16c2,.1,9,4,10.94,6.09v0a4.82,4.82,0,0,0-.41.61c0,.07-.07.14-.11.21a4.37,4.37,0,0,0-.19.42c0,.08-.05.17-.08.25s-.08.26-.1.39,0,.17,0,.26,0,.25,0,.38,0,.17,0,.25,0,.26,0,.39,0,.16,0,.23,0,.29,0,.44,0,.12,0,.18,0,.4.06.6c0,.38.08.77.11,1.18a8.08,8.08,0,0,1-3.43-.73C31,58.92,27,51.53,26.42,48.9ZM62.29,85.05c1.19.17,2.64.26,4.14.36,1.92.12,4.81.31,5.29.64.8,1,1.31,4.36,1.53,7-3.77-1.13-7.52-2.32-8-2.58C64.36,89.91,63.15,87.35,62.29,85.05Zm36.09,34.3c-1-.54-5.44-6-6.14-9a.72.72,0,0,1,.35-.29c2.24-1,9.57,1.38,11.09,2.07a10.33,10.33,0,0,1,2.09,4.91,36.24,36.24,0,0,1-3.52,1.55h0C99.39,119.7,98.51,119.42,98.38,119.35Zm34.8,13.85c-1.61,1.64-3.13,3.2-5.1,3.54-1.94-.85-14.72-10-23.52-16.88,1.57-.68,2.74-1.32,2.75-1.33a1,1,0,0,0,.52-1,12.33,12.33,0,0,0-2.73-6.83c-.59-.72-8.95-3.59-12.56-2.73a3.37,3.37,0,0,0-1.6.81C82,101.45,79,98,77.16,95.88a23.25,23.25,0,0,0-1.84-2c-.1-1.69-.55-7.22-2-9.09-.77-1-2.84-1.14-6.73-1.4a30.28,30.28,0,0,1-5.3-.61l-3.5-2.95-1.57-1.33.06-.06h0a1,1,0,0,0,.88.53,1,1,0,0,0,.47-.12c2.77-1.49,7.36-5.71,6-9.14-.56-1.4-3-2-8.41-2.92a46.73,46.73,0,0,1-4.67-1,1,1,0,0,0-1.22,1.33c.33.82.62,1.56.89,2.25A53,53,0,0,0,53,75.9l-.77-.63c-1.07-.88-7.07-7.08-10.66-10.79-1.53-1.59-2.44-2.52-3-3.06,0-.23,0-.43,0-.65s0-.24,0-.35c0-.36-.06-.7-.1-1-.18-1.63-.28-2.53.9-3.62a1,1,0,0,0,.22-.3.94.94,0,0,0,0-.11,1,1,0,0,0,.05-.23,1.16,1.16,0,0,0,0-.35,1,1,0,0,0,0-.14s0-.06,0-.08c-1.25-2.3-11-8.33-13.92-7.61l-.08,0a1,1,0,0,0-.17,0c-.89-1.12-1.78-2.26-2.65-3.41l.3-.09h0l.36-.14.08,0,.21-.11.05,0L24,43l0,0,.09-.1,0,0,.07-.09s2-2.85,1.53-4.2c-.67-2-8.54-9.59-12-9.23a1,1,0,0,0-.34.1l-.07,0-.07,0c-.56-1-1.1-2-1.62-2.94a6,6,0,0,0,1.48.2,1,1,0,0,0,1-1c0-1.85-.66-6.25-2.14-8a50.18,50.18,0,0,1-4.71-6.79A2.33,2.33,0,0,1,7.78,10c.54.23,2.07,1.28,6.38,5.76.29,3.46,5.38,12.19,8.08,14.38a1,1,0,0,0,.56.22,16.21,16.21,0,0,0,4.62-.14l3.47,3.8A19.34,19.34,0,0,0,29,34a6.89,6.89,0,0,1-1.58-.12,1,1,0,0,0-1.22,1.29,96.29,96.29,0,0,0,6.49,12.28,2.9,2.9,0,0,0,1.87.45,19.29,19.29,0,0,0,3.71-.48,1,1,0,0,0,.38-.18l.08-.09a1,1,0,0,0,.19-.23l0,0a8.44,8.44,0,0,0,.83-3.47q1.28,1.27,2.39,2.32C42.61,47.89,45,58,47.35,60.16a1,1,0,0,0,1.15.13,9.16,9.16,0,0,1,4.79-1A7.22,7.22,0,0,0,56,59c1.93,1.86,4,3.86,6,5.92,4.58,4.52,9.32,9.19,14.21,13.6a47.17,47.17,0,0,1,1.47,5.66c.83,3.74,1.77,8,3.37,10.67a1,1,0,0,0,.44.4,6.28,6.28,0,0,0,2.62.63c2.57,0,4.2-2,5.47-3.62a16.56,16.56,0,0,1,1.17-1.36c6,4.83,12,9.3,17.79,13.21,15.81,10.7,25.4,19.34,28.56,25.72A18.44,18.44,0,0,0,133.18,133.2ZM52,68.73l-.18-.47c.9.19,1.92.37,3,.55,2.38.42,6.38,1.12,6.9,1.69.73,1.83-2.58,5.28-5.08,6.63a1,1,0,0,0-.37.34l0-.07A43.06,43.06,0,0,1,52,68.73Z"/></g></svg>