<svg xmlns="http://www.w3.org/2000/svg" xmlns:xlink="http://www.w3.org/1999/xlink" viewBox="0 0 1296 259.2"><defs><style>.cls-1,.cls-11,.cls-12,.cls-5,.cls-6{fill:none;}.cls-2{fill:#f59493;}.cls-3,.cls-9{fill:#fff;}.cls-11,.cls-12,.cls-3{stroke:#f59493;}.cls-11,.cls-3{stroke-miterlimit:10;}.cls-10,.cls-11,.cls-12,.cls-3,.cls-5,.cls-6,.cls-9{stroke-width:3px;}.cls-4{fill:#d5c52a;}.cls-5{stroke:#fff;}.cls-10,.cls-12,.cls-5,.cls-6,.cls-9{stroke-linecap:round;stroke-linejoin:round;}.cls-10,.cls-6,.cls-9{stroke:#a4dad0;}.cls-7{fill:#f4c6c6;}.cls-10,.cls-8{fill:#a4dad0;}.cls-13{fill:url(#New_Pattern_4);}</style><pattern id="New_Pattern_4" data-name="New Pattern 4" width="916.92" height="697.01" patternTransform="translate(-486 -103.45)" patternUnits="userSpaceOnUse" viewBox="0 0 916.92 697.01"><rect class="cls-1" width="916.92" height="697.01"/><path class="cls-2" d="M10.87,751.38c-2.5,5.18-2.25,12.12,2.05,15.95,3.75,3.34,9.52,3.45,14.24,1.71s8.66-5,12.68-8a141.74,141.74,0,0,1,26-15.47c3.69-1.69,7.59-3.24,11.65-3.19s13.75,2.43,15.35,6.16c2.08,4.85-23.72,26.72-31.34,32.32-18,13.24-39.06,22.18-53.82,39C1.12,827.37-3.34,839.38,3.22,847,9.47,854.17,21,852.2,30,849.15c2.95-1,6-2.12,8.08-4.44s2.73-6.2.61-8.47c-5.13-5.47-23.8,8.27-29,2.87-3.81-4,9-13.36,13.52-16.5L59,797.76C75.85,786,94.18,772,97,751.71c.73-5.16.29-10.71-2.52-15.11-3.64-5.71-10.76-8.5-17.53-8.46s-13.29,2.51-19.42,5.4C43.78,740,27.87,753.68,16.94,764.3c-1.77-.4.15-5.9,5.37-13,10.1-13.8,41.42-44,46.86-43.37,29.73,3.39,59.25-14.38,52.49-26.59-13.82-25-61.93,15.19-78.06,30.58C32,722.92,18.1,736.43,10.87,751.38Z"/><path class="cls-3" d="M100.65,678.83c-7,2.22-19.12,11.67-25,17.5,6.72,1.72,35.78.61,41.6-12.61C120.61,676,107.52,676.65,100.65,678.83Z"/><circle class="cls-4" cx="49.49" cy="651.69" r="20.08"/><path class="cls-5" d="M29.7,650.5c4.15-1,6.35-4.91,9.31-8,10.47-10.9,20.47-2.74,23.18.64,4.72,5.9,3.29,12.33-2,16.67s-12.75,5.56-17.15,10.87"/><circle class="cls-4" cx="213.6" cy="710.62" r="20.08"/><path class="cls-5" d="M229.74,697c-2.64-1-7.29,2.08-9.2,10.57-2.08,9.26,3.33,18.48,5.23,19.33"/><path class="cls-5" d="M204.66,691.33c-8.66,3.42-9.47,32.4-4.85,35"/><path class="cls-6" d="M232.18,660.19a16.94,16.94,0,0,1-7.22-2.5c-2.09-1.49-3.59-4.07-3.12-6.6.53-2.81,3.29-4.72,6.08-5.38a29.18,29.18,0,0,1,8.56-.52c6.36.42,38.14-9.42,41.92-12,3.15-2.15,2.72-12.21,9.28-12.13,2.87,0,5.87,1.17,7.1,3.77,1.05,2.23,1.09,6.67.82,9.11"/><path class="cls-6" d="M227,660.39c-3,4.35.15,10.39,6.27,9.78,6.9-.68,9-9.17,11.07-12s34.26-14.33,46.58-13.2c4,.37,8.78,1.25,11.58-1.68,2-2.09,2.06-5.57.6-8.06a11.08,11.08,0,0,0-7-4.79"/><path class="cls-7" d="M169.71,651.68c-6-.25-8.56,6.25-10.69,10.1-1.16,2.1-6.79,7-3.91,12.31a5.9,5.9,0,0,0,6.73,3.21c2.76-.74,4.48-2.94,7.28-2.39s6.35,2.58,8.14,2.62c3.19.08,4.54-.63,6-3.48,2.07-4.09-1.47-9.83-4-12.63C175.74,657.54,176.72,652,169.71,651.68Z"/><path class="cls-7" d="M176.13,636.29c-4.3-.06-7.74,5.85-4.72,11.85.67,1.33,4.25,2.49,6.2.76C181.25,645.66,181.1,636.36,176.13,636.29Z"/><path class="cls-7" d="M179.94,655.33c0,2.7,1.54,4.21,3.77,3.85,7-1.15,7.08-9.15,3.1-10.71C184.69,647.64,180,652.32,179.94,655.33Z"/><path class="cls-7" d="M158.13,639c-3.36,1.79-1.63,10.73,1.51,12.2a5.17,5.17,0,0,0,6.44-1.89C167.81,646.24,162.84,636.45,158.13,639Z"/><path class="cls-7" d="M149,651.16c-2.14,2.58-.57,6.38.47,7.59a4.65,4.65,0,0,0,4.25,1.67,3.49,3.49,0,0,0,2.73-3.4C156.47,652.26,150.32,649.59,149,651.16Z"/><path class="cls-7" d="M288.6,682.09c-5.48-4.28-24,1.06-21.51,29.28.51,5.7,1.8,9,.19,14.47-1.31,4.48,12.58,6.33,14.41,5.48C286.29,729.19,303.58,693.79,288.6,682.09Z"/><path class="cls-7" d="M758.64,657.4c-6.13-.26-8.76,6.39-10.94,10.33-1.19,2.15-7,7.13-4,12.6a6,6,0,0,0,6.89,3.28c2.82-.76,4.58-3,7.45-2.44s6.5,2.64,8.33,2.68c3.26.08,4.65-.64,6.12-3.56,2.12-4.19-1.5-10.06-4.08-12.92C764.81,663.39,765.81,657.7,758.64,657.4Z"/><path class="cls-7" d="M765.2,641.64c-4.4-.06-7.92,6-4.83,12.12.68,1.36,4.35,2.55,6.35.77C770.44,651.23,770.29,641.71,765.2,641.64Z"/><path class="cls-7" d="M769.1,661.13c0,2.76,1.58,4.31,3.86,3.94,7.21-1.18,7.24-9.37,3.18-11C774,653.26,769.12,658.05,769.1,661.13Z"/><path class="cls-7" d="M746.79,644.38c-3.44,1.83-1.67,11,1.54,12.49a5.29,5.29,0,0,0,6.59-1.93C756.69,651.82,751.61,641.81,746.79,644.38Z"/><path class="cls-7" d="M737.45,656.86c-2.19,2.64-.58,6.53.48,7.77a4.76,4.76,0,0,0,4.35,1.71,3.58,3.58,0,0,0,2.8-3.48C745.08,658,738.79,655.25,737.45,656.86Z"/><path class="cls-7" d="M818.35,692.58c5.48-4.28,24,1.06,21.51,29.28-.51,5.7-1.8,9-.19,14.47,1.31,4.48-12.58,6.33-14.41,5.48C820.66,739.68,803.37,704.28,818.35,692.58Z"/><path class="cls-2" d="M622.16,673.93c-2.5,5.18-2.25,12.12,2.05,15.95,3.75,3.34,9.52,3.45,14.24,1.71s8.66-5,12.68-8a141.74,141.74,0,0,1,26-15.47c3.69-1.69,7.59-3.24,11.65-3.19s13.75,2.43,15.35,6.16c2.08,4.85-23.72,26.72-31.34,32.32-18,13.24-39.06,22.18-53.82,39-6.61,7.53-11.07,19.54-4.51,27.11,6.25,7.21,17.78,5.25,26.83,2.2,2.95-1,6-2.12,8.08-4.44s2.73-6.2.61-8.47c-5.13-5.47-23.8,8.27-29,2.87-3.81-4,9-13.36,13.52-16.5l35.74-24.85c16.85-11.72,35.18-25.73,38-46.06.73-5.16.29-10.71-2.52-15.11-3.64-5.71-10.76-8.5-17.53-8.46s-13.29,2.51-19.42,5.4c-13.79,6.49-29.69,20.15-40.63,30.77-1.77-.4.15-5.9,5.37-13,10.1-13.8,41.42-44,46.86-43.37,29.73,3.39,59.25-14.38,52.49-26.59-13.82-25-61.93,15.19-78.06,30.58C643.31,645.48,629.38,659,622.16,673.93Z"/><path class="cls-3" d="M711.93,601.38c-7,2.22-19.12,11.67-25,17.5,6.72,1.72,35.78.61,41.6-12.61C731.89,598.59,718.81,599.2,711.93,601.38Z"/><circle class="cls-4" cx="889.54" cy="716.65" r="20.08"/><circle class="cls-4" cx="660.77" cy="574.25" r="20.08"/><path class="cls-5" d="M641,573.05c4.15-1,6.35-4.91,9.31-8,10.47-10.9,20.47-2.74,23.18.64,4.72,5.9,3.29,12.33-2,16.67s-12.75,5.56-17.15,10.87"/><circle class="cls-4" cx="824.89" cy="633.17" r="20.08"/><path class="cls-5" d="M841,619.58c-2.64-1-7.29,2.08-9.2,10.57-2.08,9.26,3.33,18.48,5.23,19.33"/><path class="cls-5" d="M815.94,613.88c-8.66,3.42-9.47,32.4-4.85,35"/><path class="cls-6" d="M843.46,582.75a16.94,16.94,0,0,1-7.22-2.5c-2.09-1.49-3.59-4.07-3.12-6.6.53-2.81,3.29-4.72,6.08-5.38a29.18,29.18,0,0,1,8.56-.52c6.36.42,38.14-9.42,41.92-12,3.15-2.15,2.72-12.21,9.28-12.13,2.87,0,5.87,1.17,7.1,3.77,1.05,2.23,1.09,6.67.82,9.11"/><path class="cls-6" d="M838.3,582.95c-3,4.35.15,10.39,6.27,9.78,6.9-.68,9-9.17,11.07-12s34.26-14.33,46.58-13.2c4,.37,8.78,1.25,11.58-1.68,2-2.09,2.06-5.57.6-8.06a11.08,11.08,0,0,0-7-4.79"/><path class="cls-7" d="M781,574.24c-6-.25-8.56,6.25-10.69,10.1-1.16,2.1-6.79,7-3.91,12.31a5.9,5.9,0,0,0,6.73,3.21c2.76-.74,4.48-2.94,7.28-2.39s6.35,2.58,8.14,2.62c3.19.08,4.54-.63,6-3.48,2.07-4.09-1.47-9.83-4-12.63C787,580.09,788,574.53,781,574.24Z"/><path class="cls-7" d="M787.41,558.84c-4.3-.06-7.74,5.85-4.72,11.85.67,1.33,4.25,2.49,6.2.76C792.53,568.21,792.38,558.91,787.41,558.84Z"/><path class="cls-7" d="M791.22,577.89c0,2.7,1.54,4.21,3.77,3.85,7-1.15,7.08-9.15,3.1-10.71C796,570.19,791.24,574.88,791.22,577.89Z"/><path class="cls-7" d="M769.42,561.51c-3.36,1.79-1.63,10.73,1.51,12.2a5.17,5.17,0,0,0,6.44-1.89C779.09,568.79,774.13,559,769.42,561.51Z"/><path class="cls-7" d="M760.29,573.71c-2.14,2.58-.57,6.38.47,7.59A4.65,4.65,0,0,0,765,583a3.49,3.49,0,0,0,2.73-3.4C767.75,574.82,761.6,572.14,760.29,573.71Z"/><path class="cls-7" d="M899.88,604.65c-5.48-4.28-24,1.06-21.51,29.28.51,5.7,1.8,9,.19,14.47-1.31,4.48,12.58,6.33,14.41,5.48C897.57,651.74,914.86,616.34,899.88,604.65Z"/><path class="cls-7" d="M876.4,656.28c-1.72,1.26-6.14,16-.17,18.71,9,4.13,14-5.22,14.74-14.2C891.15,658.62,877.91,655.18,876.4,656.28Z"/><path class="cls-7" d="M453,580c-6.13-.26-8.76,6.39-10.94,10.33-1.19,2.15-7,7.13-4,12.6a6,6,0,0,0,6.89,3.28c2.82-.76,4.58-3,7.45-2.44s6.5,2.64,8.33,2.68c3.26.08,4.65-.64,6.12-3.56,2.12-4.19-1.5-10.06-4.08-12.92C459.16,585.94,460.17,580.25,453,580Z"/><path class="cls-7" d="M459.56,564.2c-4.4-.06-7.92,6-4.83,12.12.68,1.36,4.35,2.55,6.35.77C464.8,573.78,464.65,564.27,459.56,564.2Z"/><path class="cls-7" d="M463.46,583.69c0,2.76,1.58,4.31,3.86,3.94,7.21-1.18,7.24-9.37,3.18-11C468.32,575.81,463.48,580.61,463.46,583.69Z"/><path class="cls-7" d="M441.15,566.93c-3.44,1.83-1.67,11,1.54,12.49a5.29,5.29,0,0,0,6.59-1.93C451,574.38,446,564.36,441.15,566.93Z"/><path class="cls-7" d="M431.81,579.42c-2.19,2.64-.58,6.53.48,7.77a4.76,4.76,0,0,0,4.35,1.71,3.58,3.58,0,0,0,2.8-3.48C439.44,580.54,433.15,577.81,431.81,579.42Z"/><path class="cls-7" d="M512.71,615.14c5.48-4.28,24,1.06,21.51,29.28-.51,5.7-1.8,9-.19,14.47,1.31,4.48-12.58,6.33-14.41,5.48C515,662.23,497.73,626.83,512.71,615.14Z"/><path class="cls-7" d="M536.19,666.77c1.72,1.26,6.14,16,.17,18.71-9,4.13-14-5.22-14.74-14.2C521.44,669.11,534.68,665.67,536.19,666.77Z"/><path class="cls-8" d="M402.83,659.5c-3.38.34-9.52,9.53-.69,15.65,14.46,10,64.8,11.57,81.3-1,11.23-8.54,1.52-18.76-2.7-18.22"/><path class="cls-9" d="M403.59,665.06c7.95,11,67.66,15.26,78.9-2.34,1.06-1.67-6.82-16.47-9.58-21.48-5.54-10.08-56.32-10.78-62.78,1.11C408.38,645.6,401.72,662.73,403.59,665.06Z"/><path class="cls-10" d="M416.6,643.88c4.9,5.07,16.93,5.71,27.45,5.71,8.65,0,20.1-2.3,23.33-7.24"/><path class="cls-2" d="M316.51,596.49c-2.5,5.18-2.25,12.12,2.05,15.95,3.75,3.34,9.52,3.45,14.24,1.71s8.66-5,12.68-8a141.74,141.74,0,0,1,26-15.47c3.69-1.69,7.59-3.24,11.65-3.19s13.75,2.43,15.35,6.16c2.08,4.85-23.72,26.72-31.34,32.32-18,13.24-39.06,22.18-53.82,39-6.61,7.53-11.07,19.54-4.51,27.11,6.25,7.21,17.78,5.25,26.83,2.2,2.95-1,6-2.12,8.08-4.44s2.73-6.2.61-8.47c-5.13-5.47-23.8,8.27-29,2.87-3.81-4,9-13.36,13.52-16.5l35.74-24.85c16.85-11.72,35.18-25.73,38-46.06.73-5.16.29-10.71-2.52-15.11-3.64-5.71-10.76-8.5-17.53-8.46s-13.29,2.51-19.42,5.4c-13.79,6.49-29.69,20.15-40.63,30.77-1.77-.4.15-5.9,5.37-13,10.1-13.8,41.42-44,46.86-43.37,29.73,3.39,59.25-14.38,52.49-26.59-13.82-25-61.93,15.19-78.06,30.58C337.66,568,323.74,581.54,316.51,596.49Z"/><path class="cls-11" d="M348.49,675.9c0-.94-.28-2.1.49-2.65s2.32,1.4,2.89.55c4.64-7,12-8.62,15.12-2.19,2.47,5.11-2.9,14.9-12,10.74-2.68-1.23-8.6,3-10.74,3.34a1.52,1.52,0,0,1-.93-.07,1.63,1.63,0,0,1-.62-1.31C342.09,679.52,348.48,680.69,348.49,675.9Z"/><path class="cls-12" d="M350.3,673.49c1.38,1.22,4.76,4.54,7.22,4.54a4.5,4.5,0,0,0,4.28-3.92c0-2.91-5.29-3.71-9.94-.32"/><path class="cls-3" d="M406.29,523.93c-7,2.22-19.12,11.67-25,17.5,6.72,1.72,35.78.61,41.6-12.61C426.25,521.14,413.16,521.76,406.29,523.93Z"/><circle class="cls-4" cx="583.89" cy="639.2" r="20.08"/><path class="cls-5" d="M570.58,654.16c2.79-4.59,13.8-11.79,23.6-10.21a9.21,9.21,0,0,1,7.09,5.92"/><path class="cls-5" d="M566.24,627.64c11.73-5.71,20.14-2.18,27.91-5.71"/><circle class="cls-4" cx="355.13" cy="496.8" r="20.08"/><path class="cls-5" d="M335.35,495.61c4.15-1,6.35-4.91,9.31-8,10.47-10.9,20.47-2.74,23.18.64,4.72,5.9,3.29,12.33-2,16.67s-12.75,5.56-17.15,10.87"/><circle class="cls-4" cx="519.24" cy="555.72" r="20.08"/><path class="cls-5" d="M535.38,542.13c-2.64-1-7.29,2.08-9.2,10.57-2.08,9.26,3.33,18.48,5.23,19.33"/><path class="cls-5" d="M510.3,536.44c-8.66,3.42-9.47,32.4-4.85,35"/><path class="cls-6" d="M537.82,505.3a16.94,16.94,0,0,1-7.22-2.5c-2.09-1.49-3.59-4.07-3.12-6.6.53-2.81,3.29-4.72,6.08-5.38a29.18,29.18,0,0,1,8.56-.52c6.36.42,38.14-9.42,41.92-12,3.15-2.15,2.72-12.21,9.28-12.13,2.87,0,5.87,1.17,7.1,3.77,1.05,2.23,1.09,6.67.82,9.11"/><path class="cls-6" d="M532.66,505.5c-3,4.35.15,10.39,6.27,9.78,6.9-.68,9-9.17,11.07-12s34.26-14.33,46.58-13.2c4,.37,8.78,1.25,11.58-1.68,2-2.09,2.06-5.57.6-8.06a11.08,11.08,0,0,0-7-4.79"/><path class="cls-7" d="M475.35,496.79c-6-.25-8.56,6.25-10.69,10.1-1.16,2.1-6.79,7-3.91,12.31a5.9,5.9,0,0,0,6.73,3.21c2.76-.74,4.48-2.94,7.28-2.39s6.35,2.58,8.14,2.62c3.19.08,4.54-.63,6-3.48,2.07-4.09-1.47-9.83-4-12.63C481.38,502.65,482.36,497.09,475.35,496.79Z"/><path class="cls-7" d="M481.77,481.4c-4.3-.06-7.74,5.85-4.72,11.85.67,1.33,4.25,2.49,6.2.76C486.89,490.76,486.74,481.47,481.77,481.4Z"/><path class="cls-7" d="M485.58,500.44c0,2.7,1.54,4.21,3.77,3.85,7-1.15,7.08-9.15,3.1-10.71C490.33,492.75,485.6,497.43,485.58,500.44Z"/><path class="cls-7" d="M463.78,484.07c-3.36,1.79-1.63,10.73,1.51,12.2a5.17,5.17,0,0,0,6.44-1.89C473.45,491.35,468.48,481.56,463.78,484.07Z"/><path class="cls-7" d="M454.65,496.27c-2.14,2.58-.57,6.38.47,7.59a4.65,4.65,0,0,0,4.25,1.67,3.49,3.49,0,0,0,2.73-3.4C462.11,497.37,456,494.69,454.65,496.27Z"/><path class="cls-7" d="M594.24,527.2c-5.48-4.28-24,1.06-21.51,29.28.51,5.7,1.8,9,.19,14.47-1.31,4.48,12.58,6.33,14.41,5.48C591.93,574.3,609.22,538.9,594.24,527.2Z"/><path class="cls-7" d="M570.76,578.84c-1.72,1.26-6.14,16-.17,18.71,9,4.13,14-5.22,14.74-14.2C585.51,581.17,572.27,577.74,570.76,578.84Z"/><path class="cls-7" d="M147.36,502.51c-6.13-.26-8.76,6.39-10.94,10.33-1.19,2.15-7,7.13-4,12.6a6,6,0,0,0,6.89,3.28c2.82-.76,4.58-3,7.45-2.44s6.5,2.64,8.33,2.68c3.26.08,4.65-.64,6.12-3.56,2.12-4.19-1.5-10.06-4.08-12.92C153.52,508.5,154.52,502.81,147.36,502.51Z"/><path class="cls-7" d="M153.92,486.75c-4.4-.06-7.92,6-4.83,12.12.68,1.36,4.35,2.55,6.35.77C159.16,496.34,159,486.82,153.92,486.75Z"/><path class="cls-7" d="M157.82,506.24c0,2.76,1.58,4.31,3.86,3.94,7.21-1.18,7.24-9.37,3.18-11C162.68,498.37,157.84,503.16,157.82,506.24Z"/><path class="cls-7" d="M135.51,489.48c-3.44,1.83-1.67,11,1.54,12.49a5.29,5.29,0,0,0,6.59-1.93C145.41,496.93,140.32,486.92,135.51,489.48Z"/><path class="cls-7" d="M126.17,502c-2.19,2.64-.58,6.53.48,7.77a4.76,4.76,0,0,0,4.35,1.71,3.58,3.58,0,0,0,2.8-3.48C133.8,503.1,127.51,500.36,126.17,502Z"/><path class="cls-7" d="M207.07,537.69c5.48-4.28,24,1.06,21.51,29.28-.51,5.7-1.8,9-.19,14.47,1.31,4.48-12.58,6.33-14.41,5.48C209.37,584.79,192.09,549.39,207.07,537.69Z"/><path class="cls-7" d="M230.55,589.33c1.72,1.26,6.14,16,.17,18.71-9,4.13-14-5.22-14.74-14.2C215.79,591.66,229,588.23,230.55,589.33Z"/><path class="cls-8" d="M97.19,582.05c-3.38.34-9.52,9.53-.69,15.65,14.46,10,64.8,11.57,81.3-1,11.23-8.54,1.52-18.76-2.7-18.22"/><path class="cls-9" d="M98,587.62c7.95,11,67.66,15.26,78.9-2.34,1.06-1.67-6.82-16.47-9.58-21.48C161.74,553.72,111,553,104.5,564.91,102.74,568.16,96.08,585.28,98,587.62Z"/><path class="cls-10" d="M111,566.43c4.9,5.07,16.93,5.71,27.45,5.71,8.65,0,20.1-2.3,23.33-7.24"/><path class="cls-2" d="M10.87,519c-2.5,5.18-2.25,12.12,2.05,15.95,3.75,3.34,9.52,3.45,14.24,1.71s8.66-5,12.68-8a141.74,141.74,0,0,1,26-15.47c3.69-1.69,7.59-3.24,11.65-3.19s13.75,2.43,15.35,6.16C95,521,69.17,542.89,61.55,548.49c-18,13.24-39.06,22.18-53.82,39C1.12,595-3.34,607,3.22,614.62c6.25,7.21,17.78,5.25,26.83,2.2,2.95-1,6-2.12,8.08-4.44s2.73-6.2.61-8.47c-5.13-5.47-23.8,8.27-29,2.87-3.81-4,9-13.36,13.52-16.5L59,565.43c16.85-11.72,35.18-25.73,38-46.06.73-5.16.29-10.71-2.52-15.11-3.64-5.71-10.76-8.5-17.53-8.46s-13.29,2.51-19.42,5.4C43.78,507.69,27.87,521.35,16.94,532c-1.77-.4.15-5.9,5.37-13,10.1-13.8,41.42-44,46.86-43.37,29.73,3.39,59.25-14.38,52.49-26.59-13.82-25-61.93,15.19-78.06,30.58C32,490.59,18.1,504.09,10.87,519Z"/><path class="cls-11" d="M42.85,598.45c0-.94-.28-2.1.49-2.65s2.32,1.4,2.89.55c4.64-7,12-8.62,15.12-2.19,2.47,5.11-2.9,14.9-12,10.74-2.68-1.23-8.6,3-10.74,3.34a1.52,1.52,0,0,1-.93-.07,1.63,1.63,0,0,1-.62-1.31C36.45,602.08,42.83,603.24,42.85,598.45Z"/><path class="cls-12" d="M44.66,596c1.38,1.22,4.76,4.54,7.22,4.54a4.5,4.5,0,0,0,4.28-3.92c0-2.91-5.29-3.71-9.94-.32"/><path class="cls-3" d="M100.65,446.49c-7,2.22-19.12,11.67-25,17.5,6.72,1.72,35.78.61,41.6-12.61C120.61,443.7,107.52,444.31,100.65,446.49Z"/><circle class="cls-4" cx="278.25" cy="561.76" r="20.08"/><path class="cls-5" d="M264.94,576.71c2.79-4.59,13.8-11.79,23.6-10.21a9.21,9.21,0,0,1,7.09,5.92"/><path class="cls-5" d="M260.6,550.2c11.73-5.71,20.14-2.18,27.91-5.71"/><circle class="cls-4" cx="49.49" cy="419.36" r="20.08"/><path class="cls-5" d="M29.7,418.16c4.15-1,6.35-4.91,9.31-8,10.47-10.9,20.47-2.74,23.18.64,4.72,5.9,3.29,12.33-2,16.67S47.49,433,43.09,438.35"/><circle class="cls-4" cx="213.6" cy="478.28" r="20.08"/><path class="cls-5" d="M229.74,464.68c-2.64-1-7.29,2.08-9.2,10.57-2.08,9.26,3.33,18.48,5.23,19.33"/><path class="cls-5" d="M204.66,459c-8.66,3.42-9.47,32.4-4.85,35"/><path class="cls-6" d="M232.18,427.86a16.94,16.94,0,0,1-7.22-2.5c-2.09-1.49-3.59-4.07-3.12-6.6.53-2.81,3.29-4.72,6.08-5.38a29.18,29.18,0,0,1,8.56-.52c6.36.42,38.14-9.42,41.92-12,3.15-2.15,2.72-12.21,9.28-12.13,2.87,0,5.87,1.17,7.1,3.77,1.05,2.23,1.09,6.67.82,9.11"/><path class="cls-6" d="M227,428.05c-3,4.35.15,10.39,6.27,9.78,6.9-.68,9-9.17,11.07-12s34.26-14.33,46.58-13.2c4,.37,8.78,1.25,11.58-1.68,2-2.09,2.06-5.57.6-8.06a11.08,11.08,0,0,0-7-4.79"/><path class="cls-7" d="M169.71,419.35c-6-.25-8.56,6.25-10.69,10.1-1.16,2.1-6.79,7-3.91,12.31a5.9,5.9,0,0,0,6.73,3.21c2.76-.74,4.48-2.94,7.28-2.39s6.35,2.58,8.14,2.62c3.19.08,4.54-.63,6-3.48,2.07-4.09-1.47-9.83-4-12.63C175.74,425.2,176.72,419.64,169.71,419.35Z"/><path class="cls-7" d="M176.13,404c-4.3-.06-7.74,5.85-4.72,11.85.67,1.33,4.25,2.49,6.2.76C181.25,413.32,181.1,404,176.13,404Z"/><path class="cls-7" d="M179.94,423c0,2.7,1.54,4.21,3.77,3.85,7-1.15,7.08-9.15,3.1-10.71C184.69,415.3,180,420,179.94,423Z"/><path class="cls-7" d="M158.13,406.62c-3.36,1.79-1.63,10.73,1.51,12.2a5.17,5.17,0,0,0,6.44-1.89C167.81,413.9,162.84,404.11,158.13,406.62Z"/><path class="cls-7" d="M149,418.82c-2.14,2.58-.57,6.38.47,7.59a4.65,4.65,0,0,0,4.25,1.67,3.49,3.49,0,0,0,2.73-3.4C156.47,419.93,150.32,417.25,149,418.82Z"/><path class="cls-7" d="M288.6,449.76c-5.48-4.28-24,1.06-21.51,29.28.51,5.7,1.8,9,.19,14.47C266,498,279.86,499.84,281.68,499,286.29,496.85,303.58,461.45,288.6,449.76Z"/><path class="cls-7" d="M265.12,501.39c-1.72,1.26-6.14,16-.17,18.71,9,4.13,14-5.22,14.74-14.2C279.87,503.73,266.62,500.29,265.12,501.39Z"/><path class="cls-7" d="M758.64,425.06c-6.13-.26-8.76,6.39-10.94,10.33-1.19,2.15-7,7.13-4,12.6a6,6,0,0,0,6.89,3.28c2.82-.76,4.58-3,7.45-2.44s6.5,2.64,8.33,2.68c3.26.08,4.65-.64,6.12-3.56,2.12-4.19-1.5-10.06-4.08-12.92C764.81,431.05,765.81,425.36,758.64,425.06Z"/><path class="cls-7" d="M765.2,409.31c-4.4-.06-7.92,6-4.83,12.12.68,1.36,4.35,2.55,6.35.77C770.44,418.89,770.29,409.38,765.2,409.31Z"/><path class="cls-7" d="M769.1,428.8c0,2.76,1.58,4.31,3.86,3.94,7.21-1.18,7.24-9.37,3.18-11C774,420.92,769.12,425.72,769.1,428.8Z"/><path class="cls-7" d="M746.79,412c-3.44,1.83-1.67,11,1.54,12.49a5.29,5.29,0,0,0,6.59-1.93C756.69,419.49,751.61,409.47,746.79,412Z"/><path class="cls-7" d="M737.45,424.53c-2.19,2.64-.58,6.53.48,7.77a4.76,4.76,0,0,0,4.35,1.71,3.58,3.58,0,0,0,2.8-3.48C745.08,425.65,738.79,422.91,737.45,424.53Z"/><path class="cls-7" d="M818.35,460.25c5.48-4.28,24,1.06,21.51,29.28-.51,5.7-1.8,9-.19,14.47,1.31,4.48-12.58,6.33-14.41,5.48C820.66,507.34,803.37,471.94,818.35,460.25Z"/><path class="cls-7" d="M841.83,511.88c1.72,1.26,6.14,16,.17,18.71-9,4.13-14-5.22-14.74-14.2C827.08,514.22,840.32,510.78,841.83,511.88Z"/><path class="cls-8" d="M708.47,504.61c-3.38.34-9.52,9.53-.69,15.65,14.46,10,64.8,11.57,81.3-1,11.23-8.54,1.52-18.76-2.7-18.22"/><path class="cls-9" d="M709.24,510.17c7.95,11,67.66,15.26,78.9-2.34,1.06-1.67-6.82-16.47-9.58-21.48-5.54-10.08-56.32-10.78-62.78,1.11C714,490.71,707.37,507.84,709.24,510.17Z"/><path class="cls-10" d="M722.24,489c4.9,5.07,16.93,5.71,27.45,5.71,8.65,0,20.1-2.3,23.33-7.24"/><path class="cls-2" d="M622.16,441.59c-2.5,5.18-2.25,12.12,2.05,15.95,3.75,3.34,9.52,3.45,14.24,1.71s8.66-5,12.68-8a141.74,141.74,0,0,1,26-15.47c3.69-1.69,7.59-3.24,11.65-3.19s13.75,2.43,15.35,6.16c2.08,4.85-23.72,26.72-31.34,32.32-18,13.24-39.06,22.18-53.82,39-6.61,7.53-11.07,19.54-4.51,27.11,6.25,7.21,17.78,5.25,26.83,2.2,2.95-1,6-2.12,8.08-4.44s2.73-6.2.61-8.47c-5.13-5.47-23.8,8.27-29,2.87-3.81-4,9-13.36,13.52-16.5L670.28,488c16.85-11.72,35.18-25.73,38-46.06.73-5.16.29-10.71-2.52-15.11-3.64-5.71-10.76-8.5-17.53-8.46s-13.29,2.51-19.42,5.4c-13.79,6.49-29.69,20.15-40.63,30.77-1.77-.4.15-5.9,5.37-13,10.1-13.8,41.42-44,46.86-43.37,29.73,3.39,59.25-14.38,52.49-26.59-13.82-25-61.93,15.19-78.06,30.58C643.31,413.14,629.38,426.65,622.16,441.59Z"/><path class="cls-11" d="M654.13,521c0-.94-.28-2.1.49-2.65s2.32,1.4,2.89.55c4.64-7,12-8.62,15.12-2.19,2.47,5.11-2.9,14.9-12,10.74-2.68-1.23-8.6,3-10.74,3.34a1.52,1.52,0,0,1-.93-.07,1.63,1.63,0,0,1-.62-1.31C647.73,524.63,654.12,525.8,654.13,521Z"/><path class="cls-12" d="M655.94,518.6c1.38,1.22,4.76,4.54,7.22,4.54a4.5,4.5,0,0,0,4.28-3.92c0-2.91-5.29-3.71-9.94-.32"/><path class="cls-3" d="M711.93,369c-7,2.22-19.12,11.67-25,17.5,6.72,1.72,35.78.61,41.6-12.61C731.89,366.25,718.81,366.87,711.93,369Z"/><circle class="cls-4" cx="889.54" cy="484.31" r="20.08"/><path class="cls-5" d="M876.22,499.27c2.79-4.59,13.8-11.79,23.6-10.21a9.21,9.21,0,0,1,7.09,5.92"/><path class="cls-5" d="M871.88,472.75C883.61,467,892,470.57,899.79,467"/><circle class="cls-4" cx="660.77" cy="341.91" r="20.08"/><path class="cls-5" d="M641,340.72c4.15-1,6.35-4.91,9.31-8,10.47-10.9,20.47-2.74,23.18.64,4.72,5.9,3.29,12.33-2,16.67s-12.75,5.56-17.15,10.87"/><circle class="cls-4" cx="824.89" cy="400.83" r="20.08"/><path class="cls-5" d="M841,387.24c-2.64-1-7.29,2.08-9.2,10.57-2.08,9.26,3.33,18.48,5.23,19.33"/><path class="cls-5" d="M815.94,381.54c-8.66,3.42-9.47,32.4-4.85,35"/><path class="cls-6" d="M843.46,350.41a16.94,16.94,0,0,1-7.22-2.5c-2.09-1.49-3.59-4.07-3.12-6.6.53-2.81,3.29-4.72,6.08-5.38a29.18,29.18,0,0,1,8.56-.52c6.36.42,38.14-9.42,41.92-12,3.15-2.15,2.72-12.21,9.28-12.13,2.87,0,5.87,1.17,7.1,3.77,1.05,2.23,1.09,6.67.82,9.11"/><path class="cls-6" d="M838.3,350.61c-3,4.35.15,10.39,6.27,9.78,6.9-.68,9-9.17,11.07-12s34.26-14.33,46.58-13.2c4,.37,8.78,1.25,11.58-1.68,2-2.09,2.06-5.57.6-8.06a11.08,11.08,0,0,0-7-4.79"/><path class="cls-7" d="M781,341.9c-6-.25-8.56,6.25-10.69,10.1-1.16,2.1-6.79,7-3.91,12.31a5.9,5.9,0,0,0,6.73,3.21c2.76-.74,4.48-2.94,7.28-2.39s6.35,2.58,8.14,2.62c3.19.08,4.54-.63,6-3.48,2.07-4.09-1.47-9.83-4-12.63C787,347.76,788,342.19,781,341.9Z"/><path class="cls-7" d="M787.41,326.51c-4.3-.06-7.74,5.85-4.72,11.85.67,1.33,4.25,2.49,6.2.76C792.53,335.87,792.38,326.58,787.41,326.51Z"/><path class="cls-7" d="M791.22,345.55c0,2.7,1.54,4.21,3.77,3.85,7-1.15,7.08-9.15,3.1-10.71C796,337.86,791.24,342.54,791.22,345.55Z"/><path class="cls-7" d="M769.42,329.18c-3.36,1.79-1.63,10.73,1.51,12.2a5.17,5.17,0,0,0,6.44-1.89C779.09,336.45,774.13,326.67,769.42,329.18Z"/><path class="cls-7" d="M760.29,341.38c-2.14,2.58-.57,6.38.47,7.59a4.65,4.65,0,0,0,4.25,1.67,3.49,3.49,0,0,0,2.73-3.4C767.75,342.48,761.6,339.8,760.29,341.38Z"/><path class="cls-7" d="M899.88,372.31c-5.48-4.28-24,1.06-21.51,29.28.51,5.7,1.8,9,.19,14.47-1.31,4.48,12.58,6.33,14.41,5.48C897.57,419.41,914.86,384,899.88,372.31Z"/><path class="cls-7" d="M876.4,423.95c-1.72,1.26-6.14,16-.17,18.71,9,4.13,14-5.22,14.74-14.2C891.15,426.28,877.91,422.85,876.4,423.95Z"/><path class="cls-7" d="M453,347.61c-6.13-.26-8.76,6.39-10.94,10.33-1.19,2.15-7,7.13-4,12.6a6,6,0,0,0,6.89,3.28c2.82-.76,4.58-3,7.45-2.44s6.5,2.64,8.33,2.68c3.26.08,4.65-.64,6.12-3.56,2.12-4.19-1.5-10.06-4.08-12.92C459.16,353.61,460.17,347.92,453,347.61Z"/><path class="cls-7" d="M459.56,331.86c-4.4-.06-7.92,6-4.83,12.12.68,1.36,4.35,2.55,6.35.77C464.8,341.45,464.65,331.93,459.56,331.86Z"/><path class="cls-7" d="M463.46,351.35c0,2.76,1.58,4.31,3.86,3.94,7.21-1.18,7.24-9.37,3.18-11C468.32,343.48,463.48,348.27,463.46,351.35Z"/><path class="cls-7" d="M441.15,334.59c-3.44,1.83-1.67,11,1.54,12.49a5.29,5.29,0,0,0,6.59-1.93C451,342,446,332,441.15,334.59Z"/><path class="cls-7" d="M431.81,347.08c-2.19,2.64-.58,6.53.48,7.77a4.76,4.76,0,0,0,4.35,1.71,3.58,3.58,0,0,0,2.8-3.48C439.44,348.21,433.15,345.47,431.81,347.08Z"/><path class="cls-7" d="M512.71,382.8c5.48-4.28,24,1.06,21.51,29.28-.51,5.7-1.8,9-.19,14.47,1.31,4.48-12.58,6.33-14.41,5.48C515,429.89,497.73,394.49,512.71,382.8Z"/><path class="cls-7" d="M536.19,434.43c1.72,1.26,6.14,16,.17,18.71-9,4.13-14-5.22-14.74-14.2C521.44,436.77,534.68,433.34,536.19,434.43Z"/><path class="cls-8" d="M402.83,427.16c-3.38.34-9.52,9.53-.69,15.65,14.46,10,64.8,11.57,81.3-1,11.23-8.54,1.52-18.76-2.7-18.22"/><path class="cls-9" d="M403.59,432.73c7.95,11,67.66,15.26,78.9-2.34,1.06-1.67-6.82-16.47-9.58-21.48-5.54-10.08-56.32-10.78-62.78,1.11C408.38,413.27,401.72,430.39,403.59,432.73Z"/><path class="cls-10" d="M416.6,411.54c4.9,5.07,16.93,5.71,27.45,5.71,8.65,0,20.1-2.3,23.33-7.24"/><path class="cls-2" d="M316.51,364.15c-2.5,5.18-2.25,12.12,2.05,15.95,3.75,3.34,9.52,3.45,14.24,1.71s8.66-5,12.68-8a141.74,141.74,0,0,1,26-15.47c3.69-1.69,7.59-3.24,11.65-3.19s13.75,2.43,15.35,6.16c2.08,4.85-23.72,26.72-31.34,32.32-18,13.24-39.06,22.18-53.82,39-6.61,7.53-11.07,19.54-4.51,27.11,6.25,7.21,17.78,5.25,26.83,2.2,2.95-1,6-2.12,8.08-4.44s2.73-6.2.61-8.47c-5.13-5.47-23.8,8.27-29,2.87-3.81-4,9-13.36,13.52-16.5l35.74-24.85c16.85-11.72,35.18-25.73,38-46.06.73-5.16.29-10.71-2.52-15.11-3.64-5.71-10.76-8.5-17.53-8.46s-13.29,2.51-19.42,5.4c-13.79,6.49-29.69,20.15-40.63,30.77-1.77-.4.15-5.9,5.37-13,10.1-13.8,41.42-44,46.86-43.37,29.73,3.39,59.25-14.38,52.49-26.59-13.82-25-61.93,15.19-78.06,30.58C337.66,335.7,323.74,349.2,316.51,364.15Z"/><path class="cls-11" d="M348.49,443.56c0-.94-.28-2.1.49-2.65s2.32,1.4,2.89.55c4.64-7,12-8.62,15.12-2.19,2.47,5.11-2.9,14.9-12,10.74-2.68-1.23-8.6,3-10.74,3.34a1.52,1.52,0,0,1-.93-.07,1.63,1.63,0,0,1-.62-1.31C342.09,447.19,348.48,448.35,348.49,443.56Z"/><path class="cls-12" d="M350.3,441.16c1.38,1.22,4.76,4.54,7.22,4.54a4.5,4.5,0,0,0,4.28-3.92c0-2.91-5.29-3.71-9.94-.32"/><path class="cls-3" d="M406.29,291.6c-7,2.22-19.12,11.67-25,17.5,6.72,1.72,35.78.61,41.6-12.61C426.25,288.8,413.16,289.42,406.29,291.6Z"/><circle class="cls-4" cx="583.89" cy="406.86" r="20.08"/><path class="cls-5" d="M570.58,421.82c2.79-4.59,13.8-11.79,23.6-10.21a9.21,9.21,0,0,1,7.09,5.92"/><path class="cls-5" d="M566.24,395.3c11.73-5.71,20.14-2.18,27.91-5.71"/><circle class="cls-4" cx="355.13" cy="264.47" r="20.08"/><path class="cls-5" d="M335.35,263.27c4.15-1,6.35-4.91,9.31-8,10.47-10.9,20.47-2.74,23.18.64,4.72,5.9,3.29,12.33-2,16.67s-12.75,5.56-17.15,10.87"/><circle class="cls-4" cx="519.24" cy="323.39" r="20.08"/><path class="cls-5" d="M535.38,309.79c-2.64-1-7.29,2.08-9.2,10.57-2.08,9.26,3.33,18.48,5.23,19.33"/><path class="cls-5" d="M510.3,304.1c-8.66,3.42-9.47,32.4-4.85,35"/><path class="cls-6" d="M537.82,273a16.94,16.94,0,0,1-7.22-2.5c-2.09-1.49-3.59-4.07-3.12-6.6.53-2.81,3.29-4.72,6.08-5.38a29.18,29.18,0,0,1,8.56-.52c6.36.42,38.14-9.42,41.92-12,3.15-2.15,2.72-12.21,9.28-12.13,2.87,0,5.87,1.17,7.1,3.77,1.05,2.23,1.09,6.67.82,9.11"/><path class="cls-6" d="M532.66,273.16c-3,4.35.15,10.39,6.27,9.78,6.9-.68,9-9.17,11.07-12s34.26-14.33,46.58-13.2c4,.37,8.78,1.25,11.58-1.68,2-2.09,2.06-5.57.6-8.06a11.08,11.08,0,0,0-7-4.79"/><path class="cls-7" d="M475.35,264.45c-6-.25-8.56,6.25-10.69,10.1-1.16,2.1-6.79,7-3.91,12.31a5.9,5.9,0,0,0,6.73,3.21c2.76-.74,4.48-2.94,7.28-2.39s6.35,2.58,8.14,2.62c3.19.08,4.54-.63,6-3.48,2.07-4.09-1.47-9.83-4-12.63C481.38,270.31,482.36,264.75,475.35,264.45Z"/><path class="cls-7" d="M481.77,249.06c-4.3-.06-7.74,5.85-4.72,11.85.67,1.33,4.25,2.49,6.2.76C486.89,258.43,486.74,249.13,481.77,249.06Z"/><path class="cls-7" d="M485.58,268.11c0,2.7,1.54,4.21,3.77,3.85,7-1.15,7.08-9.15,3.1-10.71C490.33,260.41,485.6,265.1,485.58,268.11Z"/><path class="cls-7" d="M463.78,251.73c-3.36,1.79-1.63,10.73,1.51,12.2a5.17,5.17,0,0,0,6.44-1.89C473.45,259,468.48,249.22,463.78,251.73Z"/><path class="cls-7" d="M454.65,263.93c-2.14,2.58-.57,6.38.47,7.59a4.65,4.65,0,0,0,4.25,1.67,3.49,3.49,0,0,0,2.73-3.4C462.11,265,456,262.36,454.65,263.93Z"/><path class="cls-7" d="M594.24,294.87c-5.48-4.28-24,1.06-21.51,29.28.51,5.7,1.8,9,.19,14.47-1.31,4.48,12.58,6.33,14.41,5.48C591.93,342,609.22,306.56,594.24,294.87Z"/><path class="cls-7" d="M570.76,346.5c-1.72,1.26-6.14,16-.17,18.71,9,4.13,14-5.22,14.74-14.2C585.51,348.84,572.27,345.4,570.76,346.5Z"/><path class="cls-7" d="M147.36,270.17c-6.13-.26-8.76,6.39-10.94,10.33-1.19,2.15-7,7.13-4,12.6a6,6,0,0,0,6.89,3.28c2.82-.76,4.58-3,7.45-2.44s6.5,2.64,8.33,2.68c3.26.08,4.65-.64,6.12-3.56,2.12-4.19-1.5-10.06-4.08-12.92C153.52,276.16,154.52,270.47,147.36,270.17Z"/><path class="cls-7" d="M153.92,254.42c-4.4-.06-7.92,6-4.83,12.12.68,1.36,4.35,2.55,6.35.77C159.16,264,159,254.49,153.92,254.42Z"/><path class="cls-7" d="M157.82,273.91c0,2.76,1.58,4.31,3.86,3.94,7.21-1.18,7.24-9.37,3.18-11C162.68,266,157.84,270.82,157.82,273.91Z"/><path class="cls-7" d="M135.51,257.15c-3.44,1.83-1.67,11,1.54,12.49a5.29,5.29,0,0,0,6.59-1.93C145.41,264.6,140.32,254.58,135.51,257.15Z"/><path class="cls-7" d="M126.17,269.63c-2.19,2.64-.58,6.53.48,7.77a4.76,4.76,0,0,0,4.35,1.71,3.58,3.58,0,0,0,2.8-3.48C133.8,270.76,127.51,268,126.17,269.63Z"/><path class="cls-7" d="M207.07,305.35c5.48-4.28,24,1.06,21.51,29.28-.51,5.7-1.8,9-.19,14.47,1.31,4.48-12.58,6.33-14.41,5.48C209.37,352.45,192.09,317,207.07,305.35Z"/><path class="cls-7" d="M230.55,357c1.72,1.26,6.14,16,.17,18.71-9,4.13-14-5.22-14.74-14.2C215.79,359.33,229,355.89,230.55,357Z"/><path class="cls-8" d="M97.19,349.72c-3.38.34-9.52,9.53-.69,15.65,14.46,10,64.8,11.57,81.3-1,11.23-8.54,1.52-18.76-2.7-18.22"/><path class="cls-9" d="M98,355.28c7.95,11,67.66,15.26,78.9-2.34,1.06-1.67-6.82-16.47-9.58-21.48-5.54-10.08-56.32-10.78-62.78,1.11C102.74,335.82,96.08,352.94,98,355.28Z"/><path class="cls-10" d="M111,334.1c4.9,5.07,16.93,5.71,27.45,5.71,8.65,0,20.1-2.3,23.33-7.24"/><path class="cls-2" d="M10.87,286.7c-2.5,5.18-2.25,12.12,2.05,15.95,3.75,3.34,9.52,3.45,14.24,1.71s8.66-5,12.68-8a141.74,141.74,0,0,1,26-15.47c3.69-1.69,7.59-3.24,11.65-3.19s13.75,2.43,15.35,6.16c2.08,4.85-23.72,26.72-31.34,32.32-18,13.24-39.06,22.18-53.82,39-6.61,7.53-11.07,19.54-4.51,27.11,6.25,7.21,17.78,5.25,26.83,2.2,2.95-1,6-2.12,8.08-4.44s2.73-6.2.61-8.47c-5.13-5.47-23.8,8.27-29,2.87-3.81-4,9-13.36,13.52-16.5L59,333.09C75.85,321.37,94.18,307.36,97,287c.73-5.16.29-10.71-2.52-15.11-3.64-5.71-10.76-8.5-17.53-8.46S63.7,266,57.57,268.86C43.78,275.35,27.87,289,16.94,299.63c-1.77-.4.15-5.9,5.37-13,10.1-13.8,41.42-44,46.86-43.37,29.73,3.39,59.25-14.38,52.49-26.59-13.82-25-61.93,15.19-78.06,30.58C32,258.25,18.1,271.76,10.87,286.7Z"/><path class="cls-11" d="M42.85,366.11c0-.94-.28-2.1.49-2.65s2.32,1.4,2.89.55c4.64-7,12-8.62,15.12-2.19,2.47,5.11-2.9,14.9-12,10.74-2.68-1.23-8.6,3-10.74,3.34a1.52,1.52,0,0,1-.93-.07,1.63,1.63,0,0,1-.62-1.31C36.45,369.74,42.83,370.91,42.85,366.11Z"/><path class="cls-12" d="M44.66,363.71c1.38,1.22,4.76,4.54,7.22,4.54a4.5,4.5,0,0,0,4.28-3.92c0-2.91-5.29-3.71-9.94-.32"/><path class="cls-3" d="M100.65,214.15c-7,2.22-19.12,11.67-25,17.5,6.72,1.72,35.78.61,41.6-12.61C120.61,211.36,107.52,212,100.65,214.15Z"/><circle class="cls-4" cx="278.25" cy="329.42" r="20.08"/><path class="cls-5" d="M264.94,344.38c2.79-4.59,13.8-11.79,23.6-10.21a9.21,9.21,0,0,1,7.09,5.92"/><path class="cls-5" d="M260.6,317.86c11.73-5.71,20.14-2.18,27.91-5.71"/><circle class="cls-4" cx="49.49" cy="187.02" r="20.08"/><path class="cls-5" d="M29.7,185.83c4.15-1,6.35-4.91,9.31-8,10.47-10.9,20.47-2.74,23.18.64,4.72,5.9,3.29,12.33-2,16.67S47.49,200.71,43.09,206"/><circle class="cls-4" cx="213.6" cy="245.94" r="20.08"/><path class="cls-5" d="M229.74,232.35c-2.64-1-7.29,2.08-9.2,10.57-2.08,9.26,3.33,18.48,5.23,19.33"/><path class="cls-5" d="M204.66,226.65c-8.66,3.42-9.47,32.4-4.85,35"/><path class="cls-6" d="M232.18,195.52A16.94,16.94,0,0,1,225,193c-2.09-1.49-3.59-4.07-3.12-6.6.53-2.81,3.29-4.72,6.08-5.38a29.18,29.18,0,0,1,8.56-.52c6.36.42,38.14-9.42,41.92-12,3.15-2.15,2.72-12.21,9.28-12.13,2.87,0,5.87,1.17,7.1,3.77,1.05,2.23,1.09,6.67.82,9.11"/><path class="cls-6" d="M227,195.72c-3,4.35.15,10.39,6.27,9.78,6.9-.68,9-9.17,11.07-12s34.26-14.33,46.58-13.2c4,.37,8.78,1.25,11.58-1.68,2-2.09,2.06-5.57.6-8.06a11.08,11.08,0,0,0-7-4.79"/><path class="cls-7" d="M169.71,187c-6-.25-8.56,6.25-10.69,10.1-1.16,2.1-6.79,7-3.91,12.31a5.9,5.9,0,0,0,6.73,3.21c2.76-.74,4.48-2.94,7.28-2.39s6.35,2.58,8.14,2.62c3.19.08,4.54-.63,6-3.48,2.07-4.09-1.47-9.83-4-12.63C175.74,192.87,176.72,187.3,169.71,187Z"/><path class="cls-7" d="M176.13,171.62c-4.3-.06-7.74,5.85-4.72,11.85.67,1.33,4.25,2.49,6.2.76C181.25,181,181.1,171.69,176.13,171.62Z"/><path class="cls-7" d="M179.94,190.66c0,2.7,1.54,4.21,3.77,3.85,7-1.15,7.08-9.15,3.1-10.71C184.69,183,180,187.65,179.94,190.66Z"/><path class="cls-7" d="M158.13,174.29c-3.36,1.79-1.63,10.73,1.51,12.2a5.17,5.17,0,0,0,6.44-1.89C167.81,181.56,162.84,171.78,158.13,174.29Z"/><path class="cls-7" d="M149,186.49c-2.14,2.58-.57,6.38.47,7.59a4.65,4.65,0,0,0,4.25,1.67,3.49,3.49,0,0,0,2.73-3.4C156.47,187.59,150.32,184.91,149,186.49Z"/><path class="cls-7" d="M288.6,217.42c-5.48-4.28-24,1.06-21.51,29.28.51,5.7,1.8,9,.19,14.47-1.31,4.48,12.58,6.33,14.41,5.48C286.29,264.52,303.58,229.12,288.6,217.42Z"/><path class="cls-7" d="M265.12,269.05c-1.72,1.26-6.14,16-.17,18.71,9,4.13,14-5.22,14.74-14.2C279.87,271.39,266.62,268,265.12,269.05Z"/><path class="cls-7" d="M758.64,192.72c-6.13-.26-8.76,6.39-10.94,10.33-1.19,2.15-7,7.13-4,12.6a6,6,0,0,0,6.89,3.28c2.82-.76,4.58-3,7.45-2.44s6.5,2.64,8.33,2.68c3.26.08,4.65-.64,6.12-3.56,2.12-4.19-1.5-10.06-4.08-12.92C764.81,198.72,765.81,193,758.64,192.72Z"/><path class="cls-7" d="M765.2,177c-4.4-.06-7.92,6-4.83,12.12.68,1.36,4.35,2.55,6.35.77C770.44,186.56,770.29,177,765.2,177Z"/><path class="cls-7" d="M769.1,196.46c0,2.76,1.58,4.31,3.86,3.94,7.21-1.18,7.24-9.37,3.18-11C774,188.58,769.12,193.38,769.1,196.46Z"/><path class="cls-7" d="M746.79,179.7c-3.44,1.83-1.67,11,1.54,12.49a5.29,5.29,0,0,0,6.59-1.93C756.69,187.15,751.61,177.14,746.79,179.7Z"/><path class="cls-7" d="M737.45,192.19c-2.19,2.64-.58,6.53.48,7.77a4.76,4.76,0,0,0,4.35,1.71,3.58,3.58,0,0,0,2.8-3.48C745.08,193.32,738.79,190.58,737.45,192.19Z"/><path class="cls-7" d="M818.35,227.91c5.48-4.28,24,1.06,21.51,29.28-.51,5.7-1.8,9-.19,14.47,1.31,4.48-12.58,6.33-14.41,5.48C820.66,275,803.37,239.6,818.35,227.91Z"/><path class="cls-7" d="M841.83,279.54c1.72,1.26,6.14,16,.17,18.71-9,4.13-14-5.22-14.74-14.2C827.08,281.88,840.32,278.45,841.83,279.54Z"/><path class="cls-8" d="M708.47,272.27c-3.38.34-9.52,9.53-.69,15.65,14.46,10,64.8,11.57,81.3-1,11.23-8.54,1.52-18.76-2.7-18.22"/><path class="cls-9" d="M709.24,277.84c7.95,11,67.66,15.26,78.9-2.34,1.06-1.67-6.82-16.47-9.58-21.48-5.54-10.08-56.32-10.78-62.78,1.11C714,258.38,707.37,275.5,709.24,277.84Z"/><path class="cls-10" d="M722.24,256.65c4.9,5.07,16.93,5.71,27.45,5.71,8.65,0,20.1-2.3,23.33-7.24"/><path class="cls-2" d="M622.16,209.26c-2.5,5.18-2.25,12.12,2.05,15.95,3.75,3.34,9.52,3.45,14.24,1.71s8.66-5,12.68-8a141.74,141.74,0,0,1,26-15.47c3.69-1.69,7.59-3.24,11.65-3.19s13.75,2.43,15.35,6.16c2.08,4.85-23.72,26.72-31.34,32.32-18,13.24-39.06,22.18-53.82,39-6.61,7.53-11.07,19.54-4.51,27.11,6.25,7.21,17.78,5.25,26.83,2.2,2.95-1,6-2.12,8.08-4.44s2.73-6.2.61-8.47c-5.13-5.47-23.8,8.27-29,2.87-3.81-4,9-13.36,13.52-16.5l35.74-24.85c16.85-11.72,35.18-25.73,38-46.06.73-5.16.29-10.71-2.52-15.11-3.64-5.71-10.76-8.5-17.53-8.46s-13.29,2.51-19.42,5.4c-13.79,6.49-29.69,20.15-40.63,30.77-1.77-.4.15-5.9,5.37-13,10.1-13.8,41.42-44,46.86-43.37,29.73,3.39,59.25-14.38,52.49-26.59-13.82-25-61.93,15.19-78.06,30.58C643.31,180.8,629.38,194.31,622.16,209.26Z"/><path class="cls-11" d="M654.13,288.67c0-.94-.28-2.1.49-2.65s2.32,1.4,2.89.55c4.64-7,12-8.62,15.12-2.19,2.47,5.11-2.9,14.9-12,10.74-2.68-1.23-8.6,3-10.74,3.34a1.52,1.52,0,0,1-.93-.07,1.63,1.63,0,0,1-.62-1.31C647.73,292.3,654.12,293.46,654.13,288.67Z"/><path class="cls-12" d="M655.94,286.27c1.38,1.22,4.76,4.54,7.22,4.54a4.5,4.5,0,0,0,4.28-3.92c0-2.91-5.29-3.71-9.94-.32"/><path class="cls-3" d="M711.93,136.71c-7,2.22-19.12,11.67-25,17.5,6.72,1.72,35.78.61,41.6-12.61C731.89,133.91,718.81,134.53,711.93,136.71Z"/><circle class="cls-4" cx="889.54" cy="251.97" r="20.08"/><path class="cls-5" d="M876.22,266.93c2.79-4.59,13.8-11.79,23.6-10.21a9.21,9.21,0,0,1,7.09,5.92"/><path class="cls-5" d="M871.88,240.41c11.73-5.71,20.14-2.18,27.91-5.71"/><circle class="cls-4" cx="660.77" cy="109.58" r="20.08"/><path class="cls-5" d="M641,108.38c4.15-1,6.35-4.91,9.31-8,10.47-10.9,20.47-2.74,23.18.64,4.72,5.9,3.29,12.33-2,16.67s-12.75,5.56-17.15,10.87"/><circle class="cls-4" cx="824.89" cy="168.5" r="20.08"/><path class="cls-5" d="M841,154.9c-2.64-1-7.29,2.08-9.2,10.57-2.08,9.26,3.33,18.48,5.23,19.33"/><path class="cls-5" d="M815.94,149.21c-8.66,3.42-9.47,32.4-4.85,35"/><path class="cls-6" d="M843.46,118.07a16.94,16.94,0,0,1-7.22-2.5c-2.09-1.49-3.59-4.07-3.12-6.6.53-2.81,3.29-4.72,6.08-5.38a29.18,29.18,0,0,1,8.56-.52c6.36.42,38.14-9.42,41.92-12,3.15-2.15,2.72-12.21,9.28-12.13,2.87,0,5.87,1.17,7.1,3.77,1.05,2.23,1.09,6.67.82,9.11"/><path class="cls-6" d="M838.3,118.27c-3,4.35.15,10.39,6.27,9.78,6.9-.68,9-9.17,11.07-12s34.26-14.33,46.58-13.2c4,.37,8.78,1.25,11.58-1.68,2-2.09,2.06-5.57.6-8.06a11.08,11.08,0,0,0-7-4.79"/><path class="cls-7" d="M781,109.56c-6-.25-8.56,6.25-10.69,10.1-1.16,2.1-6.79,7-3.91,12.31a5.9,5.9,0,0,0,6.73,3.21c2.76-.74,4.48-2.94,7.28-2.39s6.35,2.58,8.14,2.62c3.19.08,4.54-.63,6-3.48,2.07-4.09-1.47-9.83-4-12.63C787,115.42,788,109.86,781,109.56Z"/><path class="cls-7" d="M787.41,94.17c-4.3-.06-7.74,5.85-4.72,11.85.67,1.33,4.25,2.49,6.2.76C792.53,103.54,792.38,94.24,787.41,94.17Z"/><path class="cls-7" d="M791.22,113.22c0,2.7,1.54,4.21,3.77,3.85,7-1.15,7.08-9.15,3.1-10.71C796,105.52,791.24,110.2,791.22,113.22Z"/><path class="cls-7" d="M769.42,96.84c-3.36,1.79-1.63,10.73,1.51,12.2a5.17,5.17,0,0,0,6.44-1.89C779.09,104.12,774.13,94.33,769.42,96.84Z"/><path class="cls-7" d="M760.29,109c-2.14,2.58-.57,6.38.47,7.59A4.65,4.65,0,0,0,765,118.3a3.49,3.49,0,0,0,2.73-3.4C767.75,110.14,761.6,107.47,760.29,109Z"/><path class="cls-7" d="M899.88,140c-5.48-4.28-24,1.06-21.51,29.28.51,5.7,1.8,9,.19,14.47-1.31,4.48,12.58,6.33,14.41,5.48C897.57,187.07,914.86,151.67,899.88,140Z"/><path class="cls-7" d="M876.4,191.61c-1.72,1.26-6.14,16-.17,18.71,9,4.13,14-5.22,14.74-14.2C891.15,193.95,877.91,190.51,876.4,191.61Z"/><path class="cls-7" d="M453,115.28c-6.13-.26-8.76,6.39-10.94,10.33-1.19,2.15-7,7.13-4,12.6a6,6,0,0,0,6.89,3.28c2.82-.76,4.58-3,7.45-2.44s6.5,2.64,8.33,2.68c3.26.08,4.65-.64,6.12-3.56,2.12-4.19-1.5-10.06-4.08-12.92C459.16,121.27,460.17,115.58,453,115.28Z"/><path class="cls-7" d="M459.56,99.53c-4.4-.06-7.92,6-4.83,12.12.68,1.36,4.35,2.55,6.35.77C464.8,109.11,464.65,99.6,459.56,99.53Z"/><path class="cls-7" d="M463.46,119c0,2.76,1.58,4.31,3.86,3.94,7.21-1.18,7.24-9.37,3.18-11C468.32,111.14,463.48,115.93,463.46,119Z"/><path class="cls-7" d="M441.15,102.26c-3.44,1.83-1.67,11,1.54,12.49a5.29,5.29,0,0,0,6.59-1.93C451,109.7,446,99.69,441.15,102.26Z"/><path class="cls-7" d="M431.81,114.74c-2.19,2.64-.58,6.53.48,7.77a4.76,4.76,0,0,0,4.35,1.71,3.58,3.58,0,0,0,2.8-3.48C439.44,115.87,433.15,113.13,431.81,114.74Z"/><path class="cls-7" d="M512.71,150.46c5.48-4.28,24,1.06,21.51,29.28-.51,5.7-1.8,9-.19,14.47,1.31,4.48-12.58,6.33-14.41,5.48C515,197.56,497.73,162.16,512.71,150.46Z"/><path class="cls-7" d="M536.19,202.1c1.72,1.26,6.14,16,.17,18.71-9,4.13-14-5.22-14.74-14.2C521.44,204.44,534.68,201,536.19,202.1Z"/><path class="cls-8" d="M402.83,194.83c-3.38.34-9.52,9.53-.69,15.65,14.46,10,64.8,11.57,81.3-1,11.23-8.54,1.52-18.76-2.7-18.22"/><path class="cls-9" d="M403.59,200.39c7.95,11,67.66,15.26,78.9-2.34,1.06-1.67-6.82-16.47-9.58-21.48-5.54-10.08-56.32-10.78-62.78,1.11C408.38,180.93,401.72,198.05,403.59,200.39Z"/><path class="cls-10" d="M416.6,179.21c4.9,5.07,16.93,5.71,27.45,5.71,8.65,0,20.1-2.3,23.33-7.24"/><path class="cls-2" d="M316.51,131.81c-2.5,5.18-2.25,12.12,2.05,15.95,3.75,3.34,9.52,3.45,14.24,1.71s8.66-5,12.68-8a141.74,141.74,0,0,1,26-15.47c3.69-1.69,7.59-3.24,11.65-3.19s13.75,2.43,15.35,6.16c2.08,4.85-23.72,26.72-31.34,32.32-18,13.24-39.06,22.18-53.82,39-6.61,7.53-11.07,19.54-4.51,27.11,6.25,7.21,17.78,5.25,26.83,2.2,2.95-1,6-2.12,8.08-4.44s2.73-6.2.61-8.47c-5.13-5.47-23.8,8.27-29,2.87-3.81-4,9-13.36,13.52-16.5l35.74-24.85c16.85-11.72,35.18-25.73,38-46.06.73-5.16.29-10.71-2.52-15.11-3.64-5.71-10.76-8.5-17.53-8.46s-13.29,2.51-19.42,5.4c-13.79,6.49-29.69,20.15-40.63,30.77-1.77-.4.15-5.9,5.37-13,10.1-13.8,41.42-44,46.86-43.37C404.54,91.71,434.06,74,427.3,61.74c-13.82-25-61.93,15.19-78.06,30.58C337.66,103.36,323.74,116.86,316.51,131.81Z"/><path class="cls-11" d="M348.49,211.22c0-.94-.28-2.1.49-2.65s2.32,1.4,2.89.55c4.64-7,12-8.62,15.12-2.19,2.47,5.11-2.9,14.9-12,10.74-2.68-1.23-8.6,3-10.74,3.34a1.52,1.52,0,0,1-.93-.07,1.63,1.63,0,0,1-.62-1.31C342.09,214.85,348.48,216,348.49,211.22Z"/><path class="cls-12" d="M350.3,208.82c1.38,1.22,4.76,4.54,7.22,4.54a4.5,4.5,0,0,0,4.28-3.92c0-2.91-5.29-3.71-9.94-.32"/><path class="cls-3" d="M406.29,59.26c-7,2.22-19.12,11.67-25,17.5,6.72,1.72,35.78.61,41.6-12.61C426.25,56.47,413.16,57.09,406.29,59.26Z"/><circle class="cls-4" cx="583.89" cy="174.53" r="20.08"/><path class="cls-5" d="M570.58,189.49c2.79-4.59,13.8-11.79,23.6-10.21a9.21,9.21,0,0,1,7.09,5.92"/><path class="cls-5" d="M566.24,163c11.73-5.71,20.14-2.18,27.91-5.71"/><circle class="cls-4" cx="355.13" cy="32.13" r="20.08"/><path class="cls-5" d="M335.35,30.93c4.15-1,6.35-4.91,9.31-8,10.47-10.9,20.47-2.74,23.18.64,4.72,5.9,3.29,12.33-2,16.67s-12.75,5.56-17.15,10.87"/><circle class="cls-4" cx="519.24" cy="91.05" r="20.08"/><path class="cls-5" d="M535.38,77.46c-2.64-1-7.29,2.08-9.2,10.57-2.08,9.26,3.33,18.48,5.23,19.33"/><path class="cls-5" d="M510.3,71.76c-8.66,3.42-9.47,32.4-4.85,35"/><path class="cls-6" d="M537.82,40.63a16.94,16.94,0,0,1-7.22-2.5c-2.09-1.49-3.59-4.07-3.12-6.6.53-2.81,3.29-4.72,6.08-5.38a29.18,29.18,0,0,1,8.56-.52c6.36.42,38.14-9.42,41.92-12,3.15-2.15,2.72-12.21,9.28-12.13,2.87,0,5.87,1.17,7.1,3.77,1.05,2.23,1.09,6.67.82,9.11"/><path class="cls-6" d="M532.66,40.83c-3,4.35.15,10.39,6.27,9.78,6.9-.68,9-9.17,11.07-12s34.26-14.33,46.58-13.2c4,.37,8.78,1.25,11.58-1.68,2-2.09,2.06-5.57.6-8.06a11.08,11.08,0,0,0-7-4.79"/><path class="cls-7" d="M475.35,32.12c-6-.25-8.56,6.25-10.69,10.1-1.16,2.1-6.79,7-3.91,12.31a5.9,5.9,0,0,0,6.73,3.21c2.76-.74,4.48-2.94,7.28-2.39s6.35,2.58,8.14,2.62c3.19.08,4.54-.63,6-3.48,2.07-4.09-1.47-9.83-4-12.63C481.38,38,482.36,32.41,475.35,32.12Z"/><path class="cls-7" d="M481.77,16.73c-4.3-.06-7.74,5.85-4.72,11.85.67,1.33,4.25,2.49,6.2.76C486.89,26.09,486.74,16.79,481.77,16.73Z"/><path class="cls-7" d="M485.58,35.77c0,2.7,1.54,4.21,3.77,3.85,7-1.15,7.08-9.15,3.1-10.71C490.33,28.07,485.6,32.76,485.58,35.77Z"/><path class="cls-7" d="M463.78,19.39c-3.36,1.79-1.63,10.73,1.51,12.2a5.17,5.17,0,0,0,6.44-1.89C473.45,26.67,468.48,16.89,463.78,19.39Z"/><path class="cls-7" d="M454.65,31.6c-2.14,2.58-.57,6.38.47,7.59a4.65,4.65,0,0,0,4.25,1.67,3.49,3.49,0,0,0,2.73-3.4C462.11,32.7,456,30,454.65,31.6Z"/><path class="cls-7" d="M594.24,62.53c-5.48-4.28-24,1.06-21.51,29.28.51,5.7,1.8,9,.19,14.47-1.31,4.48,12.58,6.33,14.41,5.48C591.93,109.62,609.22,74.22,594.24,62.53Z"/><path class="cls-7" d="M570.76,114.16c-1.72,1.26-6.14,16-.17,18.71,9,4.13,14-5.22,14.74-14.2C585.51,116.5,572.27,113.07,570.76,114.16Z"/><path class="cls-7" d="M147.36,37.83c-6.13-.26-8.76,6.39-10.94,10.33-1.19,2.15-7,7.13-4,12.6a6,6,0,0,0,6.89,3.28c2.82-.76,4.58-3,7.45-2.44s6.5,2.64,8.33,2.68c3.26.08,4.65-.64,6.12-3.56,2.12-4.19-1.5-10.06-4.08-12.92C153.52,43.83,154.52,38.13,147.36,37.83Z"/><path class="cls-7" d="M153.92,22.08c-4.4-.06-7.92,6-4.83,12.12.68,1.36,4.35,2.55,6.35.77C159.16,31.67,159,22.15,153.92,22.08Z"/><path class="cls-7" d="M157.82,41.57c0,2.76,1.58,4.31,3.86,3.94,7.21-1.18,7.24-9.37,3.18-11C162.68,33.69,157.84,38.49,157.82,41.57Z"/><path class="cls-7" d="M135.51,24.81c-3.44,1.83-1.67,11,1.54,12.49a5.29,5.29,0,0,0,6.59-1.93C145.41,32.26,140.32,22.24,135.51,24.81Z"/><path class="cls-7" d="M126.17,37.3c-2.19,2.64-.58,6.53.48,7.77A4.76,4.76,0,0,0,131,46.77a3.58,3.58,0,0,0,2.8-3.48C133.8,38.43,127.51,35.69,126.17,37.3Z"/><path class="cls-7" d="M207.07,73c5.48-4.28,24,1.06,21.51,29.28-.51,5.7-1.8,9-.19,14.47,1.31,4.48-12.58,6.33-14.41,5.48C209.37,120.11,192.09,84.71,207.07,73Z"/><path class="cls-7" d="M230.55,124.65c1.72,1.26,6.14,16,.17,18.71-9,4.13-14-5.22-14.74-14.2C215.79,127,229,123.56,230.55,124.65Z"/><path class="cls-8" d="M97.19,117.38c-3.38.34-9.52,9.53-.69,15.65,14.46,10,64.8,11.57,81.3-1,11.23-8.54,1.52-18.76-2.7-18.22"/><path class="cls-9" d="M98,122.95c7.95,11,67.66,15.26,78.9-2.34,1.06-1.67-6.82-16.47-9.58-21.48C161.74,89,111,88.34,104.5,100.23,102.74,103.48,96.08,120.61,98,122.95Z"/><path class="cls-10" d="M111,101.76c4.9,5.07,16.93,5.71,27.45,5.71,8.65,0,20.1-2.3,23.33-7.24"/><path class="cls-2" d="M10.87,54.37c-2.5,5.18-2.25,12.12,2.05,15.95,3.75,3.34,9.52,3.45,14.24,1.71s8.66-5,12.68-8a141.74,141.74,0,0,1,26-15.47c3.69-1.69,7.59-3.24,11.65-3.19s13.75,2.43,15.35,6.16C95,56.35,69.17,78.22,61.55,83.82c-18,13.24-39.06,22.18-53.82,39-6.61,7.53-11.07,19.54-4.51,27.11,6.25,7.21,17.78,5.25,26.83,2.2,2.95-1,6-2.12,8.08-4.44s2.73-6.2.61-8.47c-5.13-5.47-23.8,8.27-29,2.87-3.81-4,9-13.36,13.52-16.5L59,100.75C75.85,89,94.18,75,97,54.7c.73-5.16.29-10.71-2.52-15.11-3.64-5.71-10.76-8.5-17.53-8.46s-13.29,2.51-19.42,5.4C43.78,43,27.87,56.67,16.94,67.29c-1.77-.4.15-5.9,5.37-13,10.1-13.8,41.42-44,46.86-43.37,29.73,3.39,59.25-14.38,52.49-26.59C107.83-40.67,59.73-.52,43.6,14.87,32,25.91,18.1,39.42,10.87,54.37Z"/><path class="cls-11" d="M42.85,133.78c0-.94-.28-2.1.49-2.65s2.32,1.4,2.89.55c4.64-7,12-8.62,15.12-2.19,2.47,5.11-2.9,14.9-12,10.74-2.68-1.23-8.6,3-10.74,3.34a1.52,1.52,0,0,1-.93-.07,1.63,1.63,0,0,1-.62-1.31C36.45,137.4,42.83,138.57,42.85,133.78Z"/><path class="cls-12" d="M44.66,131.38c1.38,1.22,4.76,4.54,7.22,4.54A4.5,4.5,0,0,0,56.16,132c0-2.91-5.29-3.71-9.94-.32"/><path class="cls-3" d="M100.65-18.18c-7,2.22-19.12,11.67-25,17.5,6.72,1.72,35.78.61,41.6-12.61C120.61-21,107.52-20.36,100.65-18.18Z"/><circle class="cls-4" cx="278.25" cy="97.08" r="20.08"/><path class="cls-5" d="M264.94,112c2.79-4.59,13.8-11.79,23.6-10.21a9.21,9.21,0,0,1,7.09,5.92"/><path class="cls-5" d="M260.6,85.52c11.73-5.71,20.14-2.18,27.91-5.71"/><circle class="cls-4" cx="213.6" cy="13.61" r="20.08"/><path class="cls-5" d="M229.74,0c-2.64-1-7.29,2.08-9.2,10.57-2.08,9.26,3.33,18.48,5.23,19.33"/><path class="cls-5" d="M204.66-5.68c-8.66,3.42-9.47,32.4-4.85,35"/><path class="cls-7" d="M288.6-14.92c-5.48-4.28-24,1.06-21.51,29.28.51,5.7,1.8,9,.19,14.47-1.31,4.48,12.58,6.33,14.41,5.48C286.29,32.18,303.58-3.22,288.6-14.92Z"/><path class="cls-7" d="M265.12,36.72c-1.72,1.26-6.14,16-.17,18.71,9,4.13,14-5.22,14.74-14.2C279.87,39.06,266.62,35.62,265.12,36.72Z"/><path class="cls-7" d="M818.35-4.43c5.48-4.28,24,1.06,21.51,29.28-.51,5.7-1.8,9-.19,14.47,1.31,4.48-12.58,6.33-14.41,5.48C820.66,42.67,803.37,7.27,818.35-4.43Z"/><path class="cls-7" d="M841.83,47.21c1.72,1.26,6.14,16,.17,18.71-9,4.13-14-5.22-14.74-14.2C827.08,49.55,840.32,46.11,841.83,47.21Z"/><path class="cls-8" d="M708.47,39.94c-3.38.34-9.52,9.53-.69,15.65,14.46,10,64.8,11.57,81.3-1,11.23-8.54,1.52-18.76-2.7-18.22"/><path class="cls-9" d="M709.24,45.5c7.95,11,67.66,15.26,78.9-2.34,1.06-1.67-6.82-16.47-9.58-21.48C773,11.6,722.24,10.9,715.78,22.79,714,26,707.37,43.16,709.24,45.5Z"/><path class="cls-10" d="M722.24,24.32c4.9,5.07,16.93,5.71,27.45,5.71,8.65,0,20.1-2.3,23.33-7.24"/><path class="cls-2" d="M622.16-23.08c-2.5,5.18-2.25,12.12,2.05,15.95,3.75,3.34,9.52,3.45,14.24,1.71s8.66-5,12.68-8a141.74,141.74,0,0,1,26-15.47c3.69-1.69,7.59-3.24,11.65-3.19s13.75,2.43,15.35,6.16C706.25-21.1,680.46.78,672.83,6.37c-18,13.24-39.06,22.18-53.82,39-6.61,7.53-11.07,19.54-4.51,27.11,6.25,7.21,17.78,5.25,26.83,2.2,2.95-1,6-2.12,8.08-4.44s2.73-6.2.61-8.47c-5.13-5.47-23.8,8.27-29,2.87-3.81-4,9-13.36,13.52-16.5l35.74-24.85c16.85-11.72,35.18-25.73,38-46.06.73-5.16.29-10.71-2.52-15.11-3.64-5.71-10.76-8.5-17.53-8.46s-13.29,2.51-19.42,5.4c-13.79,6.49-29.69,20.15-40.63,30.77-1.77-.4.15-5.9,5.37-13,10.1-13.8,41.42-44,46.86-43.37,29.73,3.39,59.25-14.38,52.49-26.59C719.12-118.12,671-78,654.88-62.57,643.31-51.53,629.38-38,622.16-23.08Z"/><path class="cls-11" d="M654.13,56.33c0-.94-.28-2.1.49-2.65s2.32,1.4,2.89.55c4.64-7,12-8.62,15.12-2.19,2.47,5.11-2.9,14.9-12,10.74-2.68-1.23-8.6,3-10.74,3.34A1.52,1.52,0,0,1,649,66a1.63,1.63,0,0,1-.62-1.31C647.73,60,654.12,61.13,654.13,56.33Z"/><path class="cls-12" d="M655.94,53.93c1.38,1.22,4.76,4.54,7.22,4.54a4.5,4.5,0,0,0,4.28-3.92c0-2.91-5.29-3.71-9.94-.32"/><circle class="cls-4" cx="889.54" cy="19.64" r="20.08"/><path class="cls-5" d="M876.22,34.6C879,30,890,22.8,899.83,24.39a9.21,9.21,0,0,1,7.09,5.92"/><path class="cls-5" d="M871.88,8.08C883.61,2.37,892,5.9,899.79,2.37"/></pattern></defs><title>barks_rec_icon_set</title><g id="Layer_3" data-name="Layer 3"><rect class="cls-13" width="1296" height="259.2"/></g></svg>