<svg xmlns="http://www.w3.org/2000/svg" xmlns:xlink="http://www.w3.org/1999/xlink" viewBox="0 0 288 432"><defs><style>.cls-1,.cls-2,.cls-3,.cls-4,.cls-5,.cls-6,.cls-7,.cls-8,.cls-9{fill:none;}.cls-2{stroke:#f1865d;}.cls-2,.cls-3,.cls-4,.cls-5,.cls-6,.cls-8,.cls-9{stroke-linecap:round;stroke-linejoin:round;}.cls-3{stroke:#abc038;}.cls-4{stroke:#4bc3cb;}.cls-5{stroke:#f171a1;}.cls-6,.cls-7{stroke:#ffcb65;}.cls-7{stroke-miterlimit:10;}.cls-8{stroke:#ef4770;}.cls-9{stroke:#f06ca9;}.cls-10{fill:#414042;}.cls-11{fill:url(#New_Pattern_3);}</style><pattern id="New_Pattern_3" data-name="New Pattern 3" width="396" height="496.8" patternUnits="userSpaceOnUse" viewBox="0 0 396 496.8"><rect class="cls-1" width="396" height="496.8"/><path class="cls-2" d="M396.13,348c-.27,0-4.24-2.22-7.35-.52-2.94,1.61-5.35,6.07-5.35,6.07"/><line class="cls-2" x1="381.15" y1="354.15" x2="382.15" y2="358.83"/><path class="cls-2" d="M384.85,358.36a10.52,10.52,0,0,0,8.15,5"/><path class="cls-2" d="M395.85,352.46c-.73,3.33,3.87,3.69,4.67,3"/><path class="cls-2" d="M402.26,350.56a15.69,15.69,0,0,0-2.42-.32c-.87-.08-3.92-2.44-6.48-4.35a100,100,0,0,0-15.06-8.53c.13,1.75,6,6,4.59,8.93s-1.24,4,.54,7.25a2.43,2.43,0,0,1-2.27.61c-.62-.24-6.45-3-7.52-2.92.6,1.88-.16,4.13,0,6.09s.67,4.48,0,6.93c1.64.52,7-5.08,8.54-5.43s1.66-.2,2.69-.46c-.1,1.2-1.72,3.44-1.72,3.44a9,9,0,0,0,.45,7.84c1.26,2.08-4,6.4-3.66,7.13a49.75,49.75,0,0,0,8.36-6c1.58-1.66,2.82-5.44,4.71-7.45a23.36,23.36,0,0,1,2.89-2.68c.89.65-2.13,5.74-1.27,6.73a48.81,48.81,0,0,0,3.34-5.07c.17-.43,1.29-2.19.49-3.8C400.12,357.07,402.44,352.63,402.26,350.56Z"/><path class="cls-3" d="M394.21,447.46a7.25,7.25,0,0,0-6.58-2.13s2.32,2.81,3.36,3.92c-2.65-.42-18.31-1.39-20.74.4,0,3.79,1.79,6.62,7.14,7.51v0c0,2.64,1.06,4.89,2.57,5.81a57.66,57.66,0,0,1-.69,12.58c-3.36.23-5.86,1.12-5.86,2.18,0,1.24,3.39,2.24,7.58,2.24s7.58-1,7.58-2.24c0-1.07-2.55-2-6-2.19,0-3.19-.28-7.88-.07-12.36,1.73-.72,3-3.15,3-6,0,0,0,0,0-.07,4.54-.83,6.59-3.14,7-6.28,0,0,2,3.13,2.75,3.92C396,452.65,396.29,449.75,394.21,447.46Z"/><path class="cls-3" d="M371.18,450.39c3.86,1.3,7.36,1.38,11.44,1.31s7.24.14,9.69-.86"/><rect class="cls-4" x="375.74" y="398.74" width="20.7" height="20.7" rx="3.57" ry="3.57"/><path class="cls-4" d="M376.73,392.08c0,.83-.13,2.64.22,3.07a6.42,6.42,0,0,0,1.2,1"/><path class="cls-4" d="M381.27,392.08c.07,1.35,0,2.87,1.06,3.87"/><path class="cls-4" d="M395.65,392.08c0,.83.13,2.64-.22,3.07a6.42,6.42,0,0,1-1.2,1"/><path class="cls-4" d="M391.11,392.08c-.07,1.35,0,2.87-1.06,3.87"/><line class="cls-4" x1="386.02" y1="392.11" x2="386.16" y2="396.11"/><path class="cls-4" d="M376.73,425.93c0-.83-.13-2.64.22-3.07a6.42,6.42,0,0,1,1.2-1"/><path class="cls-4" d="M381.27,425.93c.07-1.35,0-2.87,1.06-3.87"/><path class="cls-4" d="M395.65,425.93c0-.83.13-2.64-.22-3.07a6.42,6.42,0,0,0-1.2-1"/><path class="cls-4" d="M391.11,425.93c-.07-1.35,0-2.87-1.06-3.87"/><line class="cls-4" x1="386.02" y1="425.9" x2="386.16" y2="421.9"/><path class="cls-4" d="M368.48,418.47c.83,0,2.64.13,3.07-.22a6.42,6.42,0,0,0,1-1.2"/><path class="cls-4" d="M368.48,413.92c1.35-.07,2.87,0,3.87-1.06"/><path class="cls-4" d="M368.48,399.54c.83,0,2.64-.13,3.07.22a6.42,6.42,0,0,1,1,1.2"/><path class="cls-4" d="M368.48,404.09c1.35.07,2.87,0,3.87,1.06"/><line class="cls-4" x1="368.51" y1="409.18" x2="372.51" y2="409.04"/><path class="cls-4" d="M381.52,406.85s-1.39-1.24-2.31.18c-.5.76-1.28,6.26,1.08,6.26a2.58,2.58,0,0,0,1.79-1.12"/><path class="cls-4" d="M384.79,412.86l-.41-4c-.1-1-.14-2.15.6-2.82a1.79,1.79,0,0,1,2.5.27,2.1,2.1,0,0,1-.12,2.59,2.54,2.54,0,0,1-2.57.7"/><path class="cls-4" d="M389.89,406.78v4.4c0,2.12,3.56,2.88,3.56.1,0-1.46,0-2.61-.1-4.56"/><polygon class="cls-5" points="240.52 426.93 237.12 426.93 233.92 422.8 237.62 415.62 243.93 421.54 240.52 426.93"/><polygon class="cls-5" points="238.27 408.17 233.88 406.36 236.6 398.98 242.83 404.69 238.27 408.17"/><polygon class="cls-5" points="253.57 411.31 245.52 415.69 248.13 420.29 254.44 417.78 253.57 411.31"/><polygon class="cls-5" points="227.78 398.63 224.6 397.3 226.72 388.88 231.46 395.01 227.78 398.63"/><polyline class="cls-5" points="233.92 422.8 234.03 431.24 237.12 435.54 240.81 435.54 244.65 430.6 243.93 421.54"/><line class="cls-5" x1="237.12" y1="426.93" x2="237.12" y2="435.54"/><line class="cls-5" x1="240.52" y1="426.93" x2="240.81" y2="435.54"/><line class="cls-5" x1="234.15" y1="423.85" x2="223.12" y2="413.92"/><polyline class="cls-5" points="234.86 420.29 222.83 410.61 218.77 408.94 220.94 416.46 233.57 428.72"/><line class="cls-5" x1="248.13" y1="420.29" x2="244.65" y2="427.35"/><line class="cls-5" x1="245.52" y1="415.69" x2="242.83" y2="419.87"/><polyline class="cls-5" points="243.31 432.32 247.91 431.24 254.44 417.78"/><line class="cls-5" x1="233.88" y1="406.36" x2="236.68" y2="417.45"/><polyline class="cls-5" points="239.86 417.45 238.27 408.17 237.12 402.32"/><line class="cls-5" x1="242.83" y1="404.69" x2="246.39" y2="414.75"/><polyline class="cls-5" points="243.26 405.13 247.37 387.49 250.2 387.49 245.9 413.63"/><polyline class="cls-5" points="247.37 387.49 251.99 383.31 250.2 387.49 254.65 389.68 251.61 411.92"/><line class="cls-5" x1="251.99" y1="383.31" x2="254.65" y2="389.68"/><polygon class="cls-5" points="241.04 382.89 237.36 381.69 234.79 376.55 239.6 368.22 243.68 376.26 241.04 382.89"/><line class="cls-5" x1="243.68" y1="376.26" x2="245.52" y2="394.49"/><line class="cls-5" x1="241.04" y1="382.89" x2="240.52" y2="402.32"/><line class="cls-5" x1="237.36" y1="381.69" x2="236.6" y2="398.98"/><path class="cls-5" d="M231.46,395s2.9,7.72,3.39,8.36"/><line class="cls-5" x1="224.6" y1="397.3" x2="226.67" y2="413.17"/><line class="cls-5" x1="234.79" y1="376.55" x2="233.45" y2="399.81"/><line class="cls-5" x1="227.78" y1="398.63" x2="231.46" y2="417.45"/><path class="cls-5" d="M253.57,411.31"/><polygon class="cls-5" points="257.7 398.2 256.12 393.84 261.54 389.73 262.3 398.01 257.7 398.2"/><line class="cls-5" x1="262.3" y1="398.01" x2="254.56" y2="413.69"/><line class="cls-5" x1="257.7" y1="398.21" x2="252.59" y2="406.36"/><line class="cls-5" x1="256.12" y1="393.84" x2="253.57" y2="397.8"/><path class="cls-4" d="M345.63,456.35c.77,1.48-.11,1.24,1.61,2.42s2.61,3.69,3.1,5.09,2.07,1.34,3.45,2.56a8.89,8.89,0,0,1-4.05.54c2.35,3.53-.16,8.21-2.56,11.68-2.9,4.18-7.36,3-10.68,1.67a7,7,0,0,0-5.32.29c-4.39,2.83-10.42,9.5-11.9,8.9-1-4,7.42-10.76,7.77-11.47a12,12,0,0,0,.4-1.48c.47-1.41,2-2.13,3.08-3.11,1.71-1.52,2.48-3.82,3.84-5.65,3.16-4.26,5.89-3.64,6.57-5.08C342.29,459.83,344.49,458.55,345.63,456.35Z"/><path class="cls-4" d="M331.39,480.82c1.66-2.09,3.47-4.3,6-5.11,2-.64,4.25-.32,6.27-1,2.4-.76,3-1.94,3.36-4.42.12-.8.49-2.25,0-2.9s-1.74-.94-2.32-1.37c-1.44-1.06-2.44-4.54-1.84-6.22"/><path class="cls-6" d="M261,346.64c.92-.26,1.32-4.3,2.06-4.9.3-.24,5.45-2.7,6.43-2.07,1.47.94,2,11-.68,12.64-1.69,1-5.14,2.93-5.81,1.08-.27-.75-.16-2.92-.81-3.38-2-1.38-2.5,4.66-2.94,5.41-.76,1.28-8.39,2.69-11.65,2.54-1.9-.09-3.68-1.67-3.93-4.31-.45-4.87-.55-8.35,2-8.93a73.67,73.67,0,0,1,11-1.37C259,343.38,258,347.49,261,346.64Z"/><path class="cls-6" d="M262.23,342.07a84.61,84.61,0,0,0-9.75-2.53c-1.76-.29-4.73,3.71-7.06,2.13-2.8-1.89,5.5-4.37,6.87-4.38,2.39,0,10.23,1.77,13.44,2.84"/><path class="cls-6" d="M243.35,349.51c-2.95-.55-16-3.63-18.13-3.22-2.4.47-6.67,2.86-6,4.2,1.93,4,4.71-1.72,6.78-1.95s13.85,3.78,17.69,4.78"/><path class="cls-7" d="M250.93,345.79q-2.3,2.93-4.53,5.92"/><path class="cls-7" d="M255.16,345.66A115.26,115.26,0,0,1,248,355.92"/><path class="cls-7" d="M258.08,348.34c-2.08,3.19-2.91,4.17-5,7.13"/><path class="cls-7" d="M265.69,343.16c-.35,1-.7,2.14-1.41,4.28"/><path class="cls-7" d="M268.73,343.66c-1,2.69-1.66,4.68-2.92,7.86"/><path class="cls-3" d="M289.46,402.12c0,1.55-.92,4.78-.62,6.69,1.41,1.48,2.76-.13,3.83-.42"/><path class="cls-3" d="M281.53,399a21.77,21.77,0,0,1-.27-4.81c1,.84,4.06,2.35,4.06,3,0,1.12-2,1.94-3.17,2.07"/><path class="cls-3" d="M284.92,391.66s-.41-3.63-1-4.65a11.31,11.31,0,0,0-2.1-1.81"/><path class="cls-3" d="M274.38,380.47"/><path class="cls-3" d="M274.86,383.86c-.28.89.1,4.68.86,5.59a4.06,4.06,0,0,0,1.67,1"/><path class="cls-3" d="M275,383.67c-.06,0-.1.08-.14.19"/><path class="cls-3" d="M277.39,390.47c.45-1.07.29-1.89,1.37-2.3"/><path class="cls-3" d="M273,376.6c-.26,1.56-.28,3.74.64,4.36a2.32,2.32,0,0,0,.39.16"/><path class="cls-3" d="M274.08,381.12c.35.11.83.23,1,.12s1-.74,1-1c0-.71-1.68-4.4-2.76-4.72a8,8,0,0,0-.25,1.08"/><path class="cls-3" d="M280.75,382.78a4,4,0,0,0-.84-2.13"/><path class="cls-3" d="M279.9,380.65c-.79-1.07-1.91-1.17-2.4-1.55a42,42,0,0,0,.54,5.24c.11.24,1.38.52,1.75.58a3,3,0,0,0,1-2.14"/><path class="cls-3" d="M278.57,377.12c1.27-2.18-1.78-6.32-2.57-6.81"/><path class="cls-3" d="M273.34,367.35Z"/><path class="cls-3" d="M273.34,367.35a29.44,29.44,0,0,0-1.52,3.66,2.75,2.75,0,0,0,.76,1.8"/><path class="cls-3" d="M282.65,401.83s-.19,2.65.34,3.35c.23.3,3.05,2.53,3.05,2.53"/><path class="cls-3" d="M279.79,384.92c-.36-.06-1.64-.34-1.75-.58"/><path class="cls-3" d="M279.9,380.65c-.44-1.14-.89-2.34-1.33-3.53a5.51,5.51,0,0,1-1.82-.61c-.67-1.21-1.21-5.25-.78-6.22l0,0c-.86-2.14-1.55-3.55-1.91-3.47a1.32,1.32,0,0,0-.75.51,17,17,0,0,0,.74,3.43,6.05,6.05,0,0,1-.38,3,3.1,3.1,0,0,1-1.13-.94,32.92,32.92,0,0,0,.48,3.79,8,8,0,0,1,.25-1.08c1.09.32,2.8,4,2.76,4.72,0,.26-.76.85-1,1s-.64,0-1-.12c.26,1,.52,1.89.79,2.74.42-1,3.78,3.26,3.9,4.31-1.08.41-.92,1.23-1.37,2.3,0,0,2.63,6.49,3,7.24.61,1.1,1.33,2.48,2.21,4.12.8.72,3.85,1.77,4,2.35.27.91-.63,3.53-.63,3.53a51.61,51.61,0,0,0,3.82,8.28c.87-1.27,4.61,2.2,4.64,2.3a4.44,4.44,0,0,1,0,2.65,14.53,14.53,0,0,1-1.83.08c2.17,3.83,6.26,10.25,6.62,10.34,1.66.42,3.2-1.18,4.91-1.19-.05-4-4.51-10.83-6.75-14.13a118.57,118.57,0,0,1-8-13.91c-1.73-3.52-3.29-7.31-4.7-10.41-.76.24-1.63-.78-3.22-.59-.55-1.12.26-5.92.26-5.92-.34-.71-.69-1.53-1.06-2.43"/><path class="cls-3" d="M289.86,416a9.42,9.42,0,0,0,1,4.6,2.94,2.94,0,0,0,1.79.43"/><path class="cls-2" d="M198.13,348c-.27,0-4.24-2.22-7.35-.52-2.94,1.61-5.35,6.07-5.35,6.07"/><line class="cls-2" x1="183.15" y1="354.15" x2="184.15" y2="358.83"/><path class="cls-2" d="M186.85,358.36a10.52,10.52,0,0,0,8.15,5"/><path class="cls-2" d="M197.85,352.46c-.73,3.33,3.87,3.69,4.67,3"/><path class="cls-2" d="M204.26,350.56a15.69,15.69,0,0,0-2.42-.32c-.87-.08-3.92-2.44-6.48-4.35a100,100,0,0,0-15.06-8.53c.13,1.75,6,6,4.59,8.93s-1.24,4,.54,7.25a2.43,2.43,0,0,1-2.27.61c-.62-.24-6.45-3-7.52-2.92.6,1.88-.16,4.13,0,6.09s.67,4.48,0,6.93c1.64.52,7-5.08,8.54-5.43s1.66-.2,2.69-.46c-.1,1.2-1.72,3.44-1.72,3.44a9,9,0,0,0,.45,7.84c1.26,2.08-4,6.4-3.66,7.13a49.75,49.75,0,0,0,8.36-6c1.58-1.66,2.82-5.44,4.71-7.45a23.36,23.36,0,0,1,2.89-2.68c.89.65-2.13,5.74-1.27,6.73a48.81,48.81,0,0,0,3.34-5.07c.17-.43,1.29-2.19.49-3.8C202.12,357.07,204.44,352.63,204.26,350.56Z"/><path class="cls-8" d="M313.56,354.43c-.69,2.29-3.27,3.57-3.67,3.78s-4.55.35-5.45-2.09c-1.13-3.1,1.17-4.82,2.43-6.61,1.39-2,4.45-2.78,6.8-2.21,2.38.83-1.22,6.95.35,7.5,2,.71,6.3,3.6,5.74,4.82a8.18,8.18,0,0,1-4.12,4.28c-2.49,1.08-3.84.54-5.81-1.32"/><path class="cls-8" d="M305.4,350.5c-1-.63-4-4.41-7-3-1.51.72.26,3-.78,4.55-3.92,6,4.73,11.43,8.49,6.31"/><path class="cls-8" d="M296.8,356.72a4.75,4.75,0,0,0-4.46,4.11c2.8.51,1.92,5.49,6.78,5.48,2.32,0,5.54-2.82,6.73-4.78"/><path class="cls-8" d="M301.22,365.94c-.13,3.24,3.38,8.05,6.3,6.65,3.82-1.83,1.43-4.1,2.2-4.37a4.69,4.69,0,0,0,2.78-3.86"/><path class="cls-8" d="M305,359.84c.4.72,1.59,3.45,1.76,3.55a5.59,5.59,0,0,0,2.12,0,2.32,2.32,0,0,0,1.32-2.84c-.36-1.1-.8-2.19-2-2.21"/><path class="cls-8" d="M308.91,364.63a42.14,42.14,0,0,1-1.67-4.81c1.1.87,3.76,1.3,5.12,1.65"/><path class="cls-6" d="M215.52,450.45c-3.93,3.79-5.85,17.74-2.65,20.84,2.23,2.16,1.75,7.51,2.85,8.57,1.9,1.81,2.53,1.9,3.82,4.19s3,3.45,2.78,6.06a45.33,45.33,0,0,0,10.42.48,1.63,1.63,0,0,0,1.13-.4,1.51,1.51,0,0,0,.28-1,8.25,8.25,0,0,0-.81-3.83c3.86.78,7.23,3.37,11.14,3.83,1.68.2,4.54-2.39,6.21-2.12,4,.64,12.27,3.6,17.13,2.55,1.57-.34.2-11.24-2.54-17.67-1.68-4-4.91-7.61-7-8.76-1.52-.86-17.11-2.87-23.94-1.8a15.28,15.28,0,0,0-2.94-8.63,7.89,7.89,0,0,0-4.7-3.15c-1.07-.23-2.73,1.19-3.75,1.29s-2.35-2.15-3.19-2.63C217.94,447.25,217.19,448.84,215.52,450.45Z"/><path class="cls-6" d="M225.33,452c1.23,0,1.33,1.93,2.3,2.82,1-.55,1.77-3.22,2.65-3.22"/><path class="cls-6" d="M217.09,451.1l-.76,1.74c1,.83,2.09-1,2.43-.67.74.93,1.26,1.56,0,3-.68.78-1.3,1.33-.47,1.94,1.1.82-3.72,5-3.13,5.72.9,1.11,1.45,2.11,2.26,2s2.21.15,2.89-.3c1-.68,1.52-2.53,2.69-2.16"/><path class="cls-6" d="M234.3,461.4c-.6,4.13-1.86,8-5.28,10.78,0,0-1.63,4.68-1.53,6.3.11,1.88,2.38,2.86,5.29,2.12,1.51-.38.89,3.72.67,4.56"/><path class="cls-6" d="M247.59,471.66c-1.26,8.76,13.4,14.11,14.93,14.83.48-1.13-.37-4.14-.92-5.23-2.28-4.53,0-8.85-3.1-12.86"/><path class="cls-6" d="M219.14,476.44c0,2.62,3.38,5.23,4.36,6.13,1.25,1.15,1.15,5.83.94,7.85"/><path class="cls-6" d="M257.23,484c-.22.92,1.47,3.77,1.66,4.56"/><path class="cls-8" d="M308.69,454.68c1-.88,1.4-4.47.16-6a5.34,5.34,0,0,0-2.3-1.4c-.83-.31-15.83-1.53-16.32-1.48a21,21,0,0,0-3.76.58,3.18,3.18,0,0,0-.45.77c-.92-.1-3.7-.54-4.69.06a3.54,3.54,0,0,0-1.41,1.59c-3.49-.29-12.66-.55-13.5.1,2.16.15,10.34,2,13.63,1.5a2.11,2.11,0,0,0,.63,1.35c.35.43,4,.94,5.33,1l.22.66c-.14.35,7.12,1.55,7.28,2.48s-.81,2.5-.09,3.14,2,.2,2.19,1.13c.09.5.1,3.44.53,4.44.28.64,1.16,3.12.83,4s-5.35,1.51-5.57,3c-.16,1.05-.11,4.36-.13,5.34,0,1.82,4,2.55,4.63,2.69,1.06.23,11.61-2.94,12-3.39.91-.94-1.39-12.73-3.69-16C300.63,455,308.37,455,308.69,454.68Z"/><path class="cls-8" d="M286,447.13c1.43.63,1.53,4.8,0,5.58"/><path class="cls-8" d="M295.89,479.53c.17-1.83.29-3.51.29-5.34-1.29.05-4.79-.88-4.79-2.69"/><path class="cls-8" d="M296.18,474.19s8.25-4.25,10.95-3.39"/><path class="cls-8" d="M279.92,448.78a.85.85,0,0,1,.13,1.6"/><path class="cls-3" d="M196.21,447.46a7.25,7.25,0,0,0-6.58-2.13s2.32,2.81,3.36,3.92c-2.65-.42-18.31-1.39-20.74.4,0,3.79,1.79,6.62,7.14,7.51v0c0,2.64,1.06,4.89,2.57,5.81a57.66,57.66,0,0,1-.69,12.58c-3.36.23-5.86,1.12-5.86,2.18,0,1.24,3.39,2.24,7.58,2.24s7.58-1,7.58-2.24c0-1.07-2.55-2-6-2.19,0-3.19-.28-7.88-.07-12.36,1.73-.72,3-3.15,3-6,0,0,0,0,0-.07,4.54-.83,6.59-3.14,7-6.28,0,0,2,3.13,2.75,3.92C198,452.65,198.29,449.75,196.21,447.46Z"/><path class="cls-3" d="M173.18,450.39c3.86,1.3,7.36,1.38,11.44,1.31s7.24.14,9.69-.86"/><path class="cls-5" d="M331.93,421.4c.58.74.05,1.93.48,2.71,1.13,2.07,5.11,7.89,6.55,8,1.65.08,3.44.38,4.44-.93-.35-.85-1.14-2.11-2.11-2-.66.11-1.14.15-1.14.15s-2.93-3.9-3-4.91,3.17-3.74,4.22-5.75c-2.1.21-4.31.24-6.28.28A10.9,10.9,0,0,1,331.93,421.4Z"/><path class="cls-5" d="M352.83,412.86a23.06,23.06,0,0,0-.93,4.06,25.83,25.83,0,0,0,1.59,6.11c.11-1,1-6.41,1-6.41s3.48-8.92,3-12.48A26.48,26.48,0,0,0,356,400c-.25-.58.35-3,.74-4.88a5.35,5.35,0,0,0-.8-3.28,10.53,10.53,0,0,0,0-5.09c-1.89,0-4.25,3.69-4.25,3.69l-3.94,0s-1.9-3.36-3.59-3.21c-.6,1.61.77,4.86.77,4.86s-.64,2.42-.78,3.63a3.5,3.5,0,0,0,1.22,3.09,8,8,0,0,1-.07,1.77c-4.63-.5-15.4,2.43-18.33,4-2.31-.7-4.75-7-5.74-8.78a19,19,0,0,0-5.43-5.65c-1.29-.74-3.2-1.53-4.45-.13-1.42,1.58.89,5.41,2.13,5.45,1.08,0,.93-2.28.53-3.08,3.87,1.88,6.58,11.27,9.06,15.2-3.13,4.64,2.26,10.46,1.77,12.34-.21.81-1.16.71-1.38,1.52-.11.41,1.42,8,1.7,9.44.44,2.24,3.53,1.78,4.51,1.36.5-.21-.17-2.22-.57-2.58a3.71,3.71,0,0,0-1.41-.7c-.34-1.22-1.47-4.45,2.39-6.72.57-.34,1.22-.55,1.81-.86a10.9,10.9,0,0,0,3.16-2.42c2,0,4.18-.07,6.28-.28,1.78-.18,3-.06,4.63-.72,1.54,4.31,1.71,4.16,4,7.81a54.69,54.69,0,0,1,2.16,5.41,6.74,6.74,0,0,1,.24.81c.18,1,2.47,1.9,3.47.94s-.24-3.84-.56-4.57a46.71,46.71,0,0,1-1.82-5.35"/><path class="cls-5" d="M352.15,431.2a1.66,1.66,0,0,1-1.67-.6,8.62,8.62,0,0,1-.49-4.82A54.69,54.69,0,0,1,352.15,431.2Z"/><path class="cls-9" d="M346.89,396.38l.54-.57a1.87,1.87,0,0,1,1.41-.79c.56.06.92.58,1.35.94a2.68,2.68,0,0,0,1.08.55"/><polygon class="cls-9" points="348.83 394.32 348.22 393.26 349.45 393.26 348.83 394.32"/><path class="cls-2" d="M350.71,338.76c3.28,1.88,4.83,6.71,4.63,9.2-.24,3-3.24,9.28-6.07,9.72-1.76.27-.67,1.74-2.61,3.13a50.64,50.64,0,0,1-7.06,3.56c-.65.12-2.69,0-3.21-.62-.69-1.79,6.1-8.25,8.25-8.12,1.25.08,4-7.58,3.83-9.19-.17-1.79-2.77-2.82-4.08-2.5-1.92.47-1.91,5.27-3.76,6-1,.39-3-2.08-3.6-3.91-.82-2.72,2.28-6.1,4.08-7.18A10.72,10.72,0,0,1,350.71,338.76Z"/><path class="cls-2" d="M346.27,357.42a5.74,5.74,0,0,0-1.62,2.07,15.16,15.16,0,0,1-3.72,4.2"/><path class="cls-2" d="M341.81,358.7c-1.54,1-2.93,4.47-4.09,5.61"/><path class="cls-2" d="M344.65,355.87c1.62,1.55,2.69,2.2,3.81,2"/><path class="cls-2" d="M347.84,350.4a3.07,3.07,0,0,1,2.43,0,4.27,4.27,0,0,0,2.39.72,11.75,11.75,0,0,0,1.8-.69"/><path class="cls-2" d="M348.69,346.51c.32-.48,1.45-.91,3.12-1.29a3.16,3.16,0,0,0,2.23-2.29"/><path class="cls-2" d="M347.88,338.19a2.64,2.64,0,0,1-.46,2.6,7.18,7.18,0,0,0-1.81,2.89"/><path class="cls-2" d="M339.43,340.67c.4,1,.85,2.21,1.87,2.62s1.72.74,1.88,1.07"/><rect class="cls-4" x="177.74" y="398.74" width="20.7" height="20.7" rx="3.57" ry="3.57"/><path class="cls-4" d="M178.73,392.08c0,.83-.13,2.64.22,3.07a6.42,6.42,0,0,0,1.2,1"/><path class="cls-4" d="M183.27,392.08c.07,1.35,0,2.87,1.06,3.87"/><path class="cls-4" d="M197.65,392.08c0,.83.13,2.64-.22,3.07a6.42,6.42,0,0,1-1.2,1"/><path class="cls-4" d="M193.11,392.08c-.07,1.35,0,2.87-1.06,3.87"/><line class="cls-4" x1="188.02" y1="392.11" x2="188.16" y2="396.11"/><path class="cls-4" d="M178.73,425.93c0-.83-.13-2.64.22-3.07a6.42,6.42,0,0,1,1.2-1"/><path class="cls-4" d="M183.27,425.93c.07-1.35,0-2.87,1.06-3.87"/><path class="cls-4" d="M197.65,425.93c0-.83.13-2.64-.22-3.07a6.42,6.42,0,0,0-1.2-1"/><path class="cls-4" d="M193.11,425.93c-.07-1.35,0-2.87-1.06-3.87"/><line class="cls-4" x1="188.02" y1="425.9" x2="188.16" y2="421.9"/><path class="cls-4" d="M170.48,418.47c.83,0,2.64.13,3.07-.22a6.42,6.42,0,0,0,1-1.2"/><path class="cls-4" d="M170.48,413.92c1.35-.07,2.87,0,3.87-1.06"/><path class="cls-4" d="M170.48,399.54c.83,0,2.64-.13,3.07.22a6.42,6.42,0,0,1,1,1.2"/><path class="cls-4" d="M170.48,404.09c1.35.07,2.87,0,3.87,1.06"/><line class="cls-4" x1="170.51" y1="409.18" x2="174.51" y2="409.04"/><path class="cls-4" d="M205.9,418.47c-.83,0-2.64.13-3.07-.22a6.42,6.42,0,0,1-1-1.2"/><path class="cls-4" d="M205.9,413.92c-1.35-.07-2.87,0-3.87-1.06"/><path class="cls-4" d="M205.9,399.54c-.83,0-2.64-.13-3.07.22a6.42,6.42,0,0,0-1,1.2"/><path class="cls-4" d="M205.9,404.09c-1.35.07-2.87,0-3.87,1.06"/><line class="cls-4" x1="205.87" y1="409.18" x2="201.87" y2="409.04"/><path class="cls-4" d="M183.52,406.85s-1.39-1.24-2.31.18c-.5.76-1.28,6.26,1.08,6.26a2.58,2.58,0,0,0,1.79-1.12"/><path class="cls-4" d="M186.79,412.86l-.41-4c-.1-1-.14-2.15.6-2.82a1.79,1.79,0,0,1,2.5.27,2.1,2.1,0,0,1-.12,2.59,2.54,2.54,0,0,1-2.57.7"/><path class="cls-4" d="M191.89,406.78v4.4c0,2.12,3.56,2.88,3.56.1,0-1.46,0-2.61-.1-4.56"/><polygon class="cls-5" points="42.52 426.93 39.12 426.93 35.92 422.8 39.62 415.62 45.92 421.54 42.52 426.93"/><polygon class="cls-5" points="40.27 408.17 35.88 406.36 38.6 398.98 44.83 404.69 40.27 408.17"/><polygon class="cls-5" points="55.57 411.31 47.52 415.69 50.13 420.29 56.44 417.78 55.57 411.31"/><polygon class="cls-5" points="29.78 398.63 26.6 397.3 28.72 388.88 33.46 395.01 29.78 398.63"/><polyline class="cls-5" points="35.92 422.8 36.03 431.24 39.12 435.54 42.81 435.54 46.65 430.6 45.92 421.54"/><line class="cls-5" x1="39.12" y1="426.93" x2="39.12" y2="435.54"/><line class="cls-5" x1="42.52" y1="426.93" x2="42.81" y2="435.54"/><line class="cls-5" x1="36.15" y1="423.85" x2="25.12" y2="413.92"/><polyline class="cls-5" points="36.86 420.29 24.83 410.61 20.77 408.94 22.94 416.46 35.57 428.72"/><line class="cls-5" x1="50.13" y1="420.29" x2="46.65" y2="427.35"/><line class="cls-5" x1="47.52" y1="415.69" x2="44.83" y2="419.87"/><polyline class="cls-5" points="45.3 432.32 49.91 431.24 56.44 417.78"/><line class="cls-5" x1="35.88" y1="406.36" x2="38.68" y2="417.45"/><polyline class="cls-5" points="41.86 417.45 40.27 408.17 39.12 402.32"/><line class="cls-5" x1="44.83" y1="404.69" x2="48.39" y2="414.75"/><polyline class="cls-5" points="45.26 405.13 49.37 387.49 52.2 387.49 47.9 413.63"/><polyline class="cls-5" points="49.37 387.49 53.99 383.31 52.2 387.49 56.65 389.68 53.61 411.92"/><line class="cls-5" x1="53.99" y1="383.31" x2="56.65" y2="389.68"/><polygon class="cls-5" points="43.04 382.89 39.36 381.69 36.79 376.55 41.6 368.22 45.68 376.26 43.04 382.89"/><line class="cls-5" x1="45.68" y1="376.26" x2="47.52" y2="394.49"/><line class="cls-5" x1="43.04" y1="382.89" x2="42.52" y2="402.32"/><line class="cls-5" x1="39.36" y1="381.69" x2="38.6" y2="398.98"/><path class="cls-5" d="M33.46,395s2.9,7.72,3.39,8.36"/><line class="cls-5" x1="26.6" y1="397.3" x2="28.67" y2="413.17"/><line class="cls-5" x1="36.79" y1="376.55" x2="35.45" y2="399.81"/><line class="cls-5" x1="29.78" y1="398.63" x2="33.46" y2="417.45"/><path class="cls-5" d="M55.57,411.31"/><polygon class="cls-5" points="59.7 398.2 58.12 393.84 63.54 389.73 64.3 398.01 59.7 398.2"/><line class="cls-5" x1="64.3" y1="398.01" x2="56.56" y2="413.69"/><line class="cls-5" x1="59.7" y1="398.21" x2="54.59" y2="406.36"/><line class="cls-5" x1="58.12" y1="393.84" x2="55.57" y2="397.8"/><path class="cls-4" d="M147.63,456.35c.77,1.48-.11,1.24,1.61,2.42s2.61,3.69,3.1,5.09,2.07,1.34,3.45,2.56a8.89,8.89,0,0,1-4.05.54c2.35,3.53-.16,8.21-2.56,11.68-2.9,4.18-7.36,3-10.68,1.67a7,7,0,0,0-5.32.29c-4.39,2.83-10.42,9.5-11.9,8.9-1-4,7.42-10.76,7.77-11.47a12,12,0,0,0,.4-1.48c.47-1.41,2-2.13,3.08-3.11,1.71-1.52,2.48-3.82,3.84-5.65,3.16-4.26,5.89-3.64,6.57-5.08C144.29,459.83,146.49,458.55,147.63,456.35Z"/><path class="cls-4" d="M133.39,480.82c1.66-2.09,3.47-4.3,6-5.11,2-.64,4.25-.32,6.27-1,2.4-.76,3-1.94,3.36-4.42.12-.8.49-2.25,0-2.9s-1.74-.94-2.32-1.37c-1.44-1.06-2.44-4.54-1.84-6.22"/><path class="cls-6" d="M63,346.64c.92-.26,1.32-4.3,2.06-4.9.3-.24,5.45-2.7,6.43-2.07,1.47.94,2,11-.68,12.64-1.69,1-5.14,2.93-5.81,1.08-.27-.75-.16-2.92-.81-3.38-2-1.38-2.5,4.66-2.94,5.41-.76,1.28-8.39,2.69-11.65,2.54-1.9-.09-3.68-1.67-3.93-4.31-.45-4.87-.55-8.35,2-8.93a73.67,73.67,0,0,1,11-1.37C61,343.38,60,347.49,63,346.64Z"/><path class="cls-6" d="M64.23,342.07a84.61,84.61,0,0,0-9.75-2.53c-1.76-.29-4.73,3.71-7.06,2.13-2.8-1.89,5.5-4.37,6.87-4.38,2.39,0,10.23,1.77,13.44,2.84"/><path class="cls-6" d="M45.35,349.51c-2.95-.55-16-3.63-18.13-3.22-2.4.47-6.67,2.86-6,4.2,1.93,4,4.71-1.72,6.78-1.95s13.85,3.78,17.69,4.78"/><path class="cls-7" d="M52.93,345.79q-2.3,2.93-4.53,5.92"/><path class="cls-7" d="M57.16,345.66A115.26,115.26,0,0,1,50,355.92"/><path class="cls-7" d="M60.08,348.34c-2.08,3.19-2.91,4.17-5,7.13"/><path class="cls-7" d="M67.69,343.16c-.35,1-.7,2.14-1.41,4.28"/><path class="cls-7" d="M70.73,343.66c-1,2.69-1.66,4.68-2.92,7.86"/><path class="cls-3" d="M91.46,402.12c0,1.55-.92,4.78-.62,6.69,1.41,1.48,2.76-.13,3.83-.42"/><path class="cls-3" d="M83.53,399a21.77,21.77,0,0,1-.27-4.81c1,.84,4.06,2.35,4.06,3,0,1.12-2,1.94-3.17,2.07"/><path class="cls-3" d="M86.92,391.66s-.41-3.63-1-4.65a11.31,11.31,0,0,0-2.1-1.81"/><path class="cls-3" d="M76.38,380.47"/><path class="cls-3" d="M76.86,383.86c-.28.89.1,4.68.86,5.59a4.06,4.06,0,0,0,1.67,1"/><path class="cls-3" d="M77,383.67c-.06,0-.1.08-.14.19"/><path class="cls-3" d="M79.39,390.47c.45-1.07.29-1.89,1.37-2.3"/><path class="cls-3" d="M75,376.6c-.26,1.56-.28,3.74.64,4.36a2.32,2.32,0,0,0,.39.16"/><path class="cls-3" d="M76.08,381.12c.35.11.83.23,1,.12s1-.74,1-1c0-.71-1.68-4.4-2.76-4.72A8,8,0,0,0,75,376.6"/><path class="cls-3" d="M82.75,382.78a4,4,0,0,0-.84-2.13"/><path class="cls-3" d="M81.9,380.65c-.79-1.07-1.91-1.17-2.4-1.55a42,42,0,0,0,.54,5.24c.11.24,1.38.52,1.75.58a3,3,0,0,0,1-2.14"/><path class="cls-3" d="M80.57,377.12c1.27-2.18-1.78-6.32-2.57-6.81"/><path class="cls-3" d="M75.34,367.35Z"/><path class="cls-3" d="M75.34,367.35A29.44,29.44,0,0,0,73.81,371a2.75,2.75,0,0,0,.76,1.8"/><path class="cls-3" d="M84.65,401.83s-.19,2.65.34,3.35c.23.3,3.05,2.53,3.05,2.53"/><path class="cls-3" d="M81.79,384.92c-.36-.06-1.64-.34-1.75-.58"/><path class="cls-3" d="M81.9,380.65c-.44-1.14-.89-2.34-1.33-3.53a5.51,5.51,0,0,1-1.82-.61c-.67-1.21-1.21-5.25-.78-6.22l0,0c-.86-2.14-1.55-3.55-1.91-3.47a1.32,1.32,0,0,0-.75.51,17,17,0,0,0,.74,3.43,6.05,6.05,0,0,1-.38,3,3.1,3.1,0,0,1-1.13-.94A32.92,32.92,0,0,0,75,376.6a8,8,0,0,1,.25-1.08c1.09.32,2.8,4,2.76,4.72,0,.26-.76.85-1,1s-.64,0-1-.12c.26,1,.52,1.89.79,2.74.42-1,3.78,3.26,3.9,4.31-1.08.41-.92,1.23-1.37,2.3,0,0,2.63,6.49,3,7.24.61,1.1,1.33,2.48,2.21,4.12.8.72,3.85,1.77,4,2.35.27.91-.63,3.53-.63,3.53A51.61,51.61,0,0,0,91.86,416c.87-1.27,4.61,2.2,4.64,2.3a4.44,4.44,0,0,1,0,2.65,14.53,14.53,0,0,1-1.83.08c2.17,3.83,6.26,10.25,6.62,10.34,1.66.42,3.2-1.18,4.91-1.19-.05-4-4.51-10.83-6.75-14.13a118.57,118.57,0,0,1-8-13.91c-1.73-3.52-3.29-7.31-4.7-10.41-.76.24-1.63-.78-3.22-.59-.55-1.12.26-5.92.26-5.92-.34-.71-.69-1.53-1.06-2.43"/><path class="cls-3" d="M91.86,416a9.42,9.42,0,0,0,1,4.6,2.94,2.94,0,0,0,1.79.43"/><path class="cls-2" d="M.13,348c-.27,0-4.24-2.22-7.35-.52-2.94,1.61-5.35,6.07-5.35,6.07"/><path class="cls-2" d="M-.15,352.46c-.73,3.33,3.87,3.69,4.67,3"/><path class="cls-2" d="M6.26,350.56a15.69,15.69,0,0,0-2.42-.32c-.87-.08-3.92-2.44-6.48-4.35a100,100,0,0,0-15.06-8.53c.13,1.75,6,6,4.59,8.93s-1.24,4,.54,7.25a2.43,2.43,0,0,1-2.27.61c-.62-.24-6.45-3-7.52-2.92.6,1.88-.16,4.13,0,6.09s.67,4.48,0,6.93c1.64.52,7-5.08,8.54-5.43s1.66-.2,2.69-.46c-.1,1.2-1.72,3.44-1.72,3.44a9,9,0,0,0,.45,7.84c1.26,2.08-4,6.4-3.66,7.13a49.75,49.75,0,0,0,8.36-6c1.58-1.66,2.82-5.44,4.71-7.45a23.36,23.36,0,0,1,2.89-2.68c.89.65-2.13,5.74-1.27,6.73A48.81,48.81,0,0,0,2,362.33c.17-.43,1.29-2.19.49-3.8C4.12,357.07,6.44,352.63,6.26,350.56Z"/><path class="cls-8" d="M115.56,354.43c-.69,2.29-3.27,3.57-3.67,3.78s-4.55.35-5.45-2.09c-1.13-3.1,1.17-4.82,2.43-6.61,1.39-2,4.45-2.78,6.8-2.21,2.38.83-1.22,6.95.35,7.5,2,.71,6.3,3.6,5.74,4.82a8.18,8.18,0,0,1-4.12,4.28c-2.49,1.08-3.84.54-5.81-1.32"/><path class="cls-8" d="M107.4,350.5c-1-.63-4-4.41-7-3-1.51.72.26,3-.78,4.55-3.92,6,4.73,11.43,8.49,6.31"/><path class="cls-8" d="M98.8,356.72a4.75,4.75,0,0,0-4.46,4.11c2.8.51,1.92,5.49,6.78,5.48,2.32,0,5.54-2.82,6.73-4.78"/><path class="cls-8" d="M103.22,365.94c-.13,3.24,3.38,8.05,6.3,6.65,3.82-1.83,1.43-4.1,2.2-4.37a4.69,4.69,0,0,0,2.78-3.86"/><path class="cls-8" d="M107,359.84c.4.72,1.59,3.45,1.76,3.55a5.59,5.59,0,0,0,2.12,0,2.32,2.32,0,0,0,1.32-2.84c-.36-1.1-.8-2.19-2-2.21"/><path class="cls-8" d="M110.91,364.63a42.14,42.14,0,0,1-1.67-4.81c1.1.87,3.76,1.3,5.12,1.65"/><path class="cls-6" d="M17.52,450.45c-3.93,3.79-5.85,17.74-2.65,20.84,2.23,2.16,1.75,7.51,2.85,8.57,1.9,1.81,2.53,1.9,3.82,4.19s3,3.45,2.78,6.06a45.33,45.33,0,0,0,10.42.48,1.63,1.63,0,0,0,1.13-.4,1.51,1.51,0,0,0,.28-1,8.25,8.25,0,0,0-.81-3.83c3.86.78,7.23,3.37,11.14,3.83,1.68.2,4.54-2.39,6.21-2.12,4,.64,12.27,3.6,17.13,2.55,1.57-.34.2-11.24-2.54-17.67-1.68-4-4.91-7.61-7-8.76-1.52-.86-17.11-2.87-23.94-1.8a15.28,15.28,0,0,0-2.94-8.63,7.89,7.89,0,0,0-4.7-3.15c-1.07-.23-2.73,1.19-3.75,1.29s-2.35-2.15-3.19-2.63C19.94,447.25,19.19,448.84,17.52,450.45Z"/><path class="cls-6" d="M27.33,452c1.23,0,1.33,1.93,2.3,2.82,1-.55,1.77-3.22,2.65-3.22"/><path class="cls-6" d="M19.09,451.1l-.76,1.74c1,.83,2.09-1,2.43-.67.74.93,1.26,1.56,0,3-.68.78-1.3,1.33-.47,1.94,1.1.82-3.72,5-3.13,5.72.9,1.11,1.45,2.11,2.26,2s2.21.15,2.89-.3c1-.68,1.52-2.53,2.69-2.16"/><path class="cls-6" d="M36.3,461.4c-.6,4.13-1.86,8-5.28,10.78,0,0-1.63,4.68-1.53,6.3.11,1.88,2.38,2.86,5.29,2.12,1.51-.38.89,3.72.67,4.56"/><path class="cls-6" d="M49.59,471.66c-1.26,8.76,13.4,14.11,14.93,14.83.48-1.13-.37-4.14-.92-5.23-2.28-4.53,0-8.85-3.1-12.86"/><path class="cls-6" d="M21.14,476.44c0,2.62,3.38,5.23,4.36,6.13,1.25,1.15,1.15,5.83.94,7.85"/><path class="cls-6" d="M59.23,484c-.22.92,1.47,3.77,1.66,4.56"/><path class="cls-8" d="M110.69,454.68c1-.88,1.4-4.47.16-6a5.34,5.34,0,0,0-2.3-1.4c-.83-.31-15.83-1.53-16.32-1.48a21,21,0,0,0-3.76.58,3.18,3.18,0,0,0-.45.77c-.92-.1-3.7-.54-4.69.06a3.54,3.54,0,0,0-1.41,1.59c-3.49-.29-12.66-.55-13.5.1,2.16.15,10.34,2,13.63,1.5a2.11,2.11,0,0,0,.63,1.35c.35.43,4,.94,5.33,1l.22.66c-.14.35,7.12,1.55,7.28,2.48s-.81,2.5-.09,3.14,2,.2,2.19,1.13c.09.5.1,3.44.53,4.44.28.64,1.16,3.12.83,4s-5.35,1.51-5.57,3c-.16,1.05-.11,4.36-.13,5.34,0,1.82,4,2.55,4.63,2.69,1.06.23,11.61-2.94,12-3.39.91-.94-1.39-12.73-3.69-16C102.63,455,110.37,455,110.69,454.68Z"/><path class="cls-8" d="M88,447.13c1.43.63,1.53,4.8,0,5.58"/><path class="cls-8" d="M97.89,479.53c.17-1.83.29-3.51.29-5.34-1.29.05-4.79-.88-4.79-2.69"/><path class="cls-8" d="M98.18,474.19s8.25-4.25,10.95-3.39"/><path class="cls-8" d="M81.92,448.78a.85.85,0,0,1,.13,1.6"/><path class="cls-3" d="M-1.79,447.46a7.25,7.25,0,0,0-6.58-2.13s2.32,2.81,3.36,3.92c-2.65-.42-18.31-1.39-20.74.4,0,3.79,1.79,6.62,7.14,7.51v0c0,2.64,1.06,4.89,2.57,5.81a57.66,57.66,0,0,1-.69,12.58c-3.36.23-5.86,1.12-5.86,2.18,0,1.24,3.39,2.24,7.58,2.24s7.58-1,7.58-2.24c0-1.07-2.55-2-6-2.19,0-3.19-.28-7.88-.07-12.36,1.73-.72,3-3.15,3-6,0,0,0,0,0-.07,4.54-.83,6.59-3.14,7-6.28,0,0,2,3.13,2.75,3.92C0,452.65.29,449.75-1.79,447.46Z"/><path class="cls-5" d="M133.93,421.4c.58.74.05,1.93.48,2.71,1.13,2.07,5.11,7.89,6.55,8,1.65.08,3.44.38,4.44-.93-.35-.85-1.14-2.11-2.11-2-.66.11-1.14.15-1.14.15s-2.93-3.9-3-4.91,3.17-3.74,4.22-5.75c-2.1.21-4.31.24-6.28.28A10.9,10.9,0,0,1,133.93,421.4Z"/><path class="cls-5" d="M154.83,412.86a23.06,23.06,0,0,0-.93,4.06,25.83,25.83,0,0,0,1.59,6.11c.11-1,1-6.41,1-6.41s3.48-8.92,3-12.48A26.48,26.48,0,0,0,158,400c-.25-.58.35-3,.74-4.88a5.35,5.35,0,0,0-.8-3.28,10.53,10.53,0,0,0,0-5.09c-1.89,0-4.25,3.69-4.25,3.69l-3.94,0s-1.9-3.36-3.59-3.21c-.6,1.61.77,4.86.77,4.86s-.64,2.42-.78,3.63a3.5,3.5,0,0,0,1.22,3.09,8,8,0,0,1-.07,1.77c-4.63-.5-15.4,2.43-18.33,4-2.31-.7-4.75-7-5.74-8.78a19,19,0,0,0-5.43-5.65c-1.29-.74-3.2-1.53-4.45-.13-1.42,1.58.89,5.41,2.13,5.45,1.08,0,.93-2.28.53-3.08,3.87,1.88,6.58,11.27,9.06,15.2-3.13,4.64,2.26,10.46,1.77,12.34-.21.81-1.16.71-1.38,1.52-.11.41,1.42,8,1.7,9.44.44,2.24,3.53,1.78,4.51,1.36.5-.21-.17-2.22-.57-2.58a3.71,3.71,0,0,0-1.41-.7c-.34-1.22-1.47-4.45,2.39-6.72.57-.34,1.22-.55,1.81-.86a10.9,10.9,0,0,0,3.16-2.42c2,0,4.18-.07,6.28-.28,1.78-.18,3-.06,4.63-.72,1.54,4.31,1.71,4.16,4,7.81a54.69,54.69,0,0,1,2.16,5.41,6.74,6.74,0,0,1,.24.81c.18,1,2.47,1.9,3.47.94s-.24-3.84-.56-4.57a46.71,46.71,0,0,1-1.82-5.35"/><path class="cls-5" d="M154.15,431.2a1.66,1.66,0,0,1-1.67-.6,8.62,8.62,0,0,1-.49-4.82A54.69,54.69,0,0,1,154.15,431.2Z"/><path class="cls-9" d="M148.89,396.38l.54-.57a1.87,1.87,0,0,1,1.41-.79c.56.06.92.58,1.35.94a2.68,2.68,0,0,0,1.08.55"/><polygon class="cls-9" points="150.84 394.32 150.22 393.26 151.45 393.26 150.84 394.32"/><path class="cls-2" d="M152.71,338.76c3.28,1.88,4.83,6.71,4.63,9.2-.24,3-3.24,9.28-6.07,9.72-1.76.27-.67,1.74-2.61,3.13a50.64,50.64,0,0,1-7.06,3.56c-.65.12-2.69,0-3.21-.62-.69-1.79,6.1-8.25,8.25-8.12,1.25.08,4-7.58,3.83-9.19-.17-1.79-2.77-2.82-4.08-2.5-1.92.47-1.91,5.27-3.76,6-1,.39-3-2.08-3.6-3.91-.82-2.72,2.28-6.1,4.08-7.18A10.72,10.72,0,0,1,152.71,338.76Z"/><path class="cls-2" d="M148.27,357.42a5.74,5.74,0,0,0-1.62,2.07,15.16,15.16,0,0,1-3.72,4.2"/><path class="cls-2" d="M143.81,358.7c-1.54,1-2.93,4.47-4.09,5.61"/><path class="cls-2" d="M146.65,355.87c1.62,1.55,2.69,2.2,3.81,2"/><path class="cls-2" d="M149.84,350.4a3.07,3.07,0,0,1,2.43,0,4.27,4.27,0,0,0,2.39.72,11.75,11.75,0,0,0,1.8-.69"/><path class="cls-2" d="M150.69,346.51c.32-.48,1.45-.91,3.12-1.29a3.16,3.16,0,0,0,2.23-2.29"/><path class="cls-2" d="M149.88,338.19a2.64,2.64,0,0,1-.46,2.6,7.18,7.18,0,0,0-1.81,2.89"/><path class="cls-2" d="M141.43,340.67c.4,1,.85,2.21,1.87,2.62s1.72.74,1.88,1.07"/><rect class="cls-4" x="-20.26" y="398.74" width="20.7" height="20.7" rx="3.57" ry="3.57"/><path class="cls-4" d="M-.35,392.08c0,.83.13,2.64-.22,3.07a6.42,6.42,0,0,1-1.2,1"/><path class="cls-4" d="M-.35,425.93c0-.83.13-2.64-.22-3.07a6.42,6.42,0,0,0-1.2-1"/><path class="cls-4" d="M7.9,418.47c-.83,0-2.64.13-3.07-.22a6.42,6.42,0,0,1-1-1.2"/><path class="cls-4" d="M7.9,413.92c-1.35-.07-2.87,0-3.87-1.06"/><path class="cls-4" d="M7.9,399.54c-.83,0-2.64-.13-3.07.22a6.42,6.42,0,0,0-1,1.2"/><path class="cls-4" d="M7.9,404.09c-1.35.07-2.87,0-3.87,1.06"/><line class="cls-4" x1="7.87" y1="409.18" x2="3.87" y2="409.04"/><polygon class="cls-5" points="372.52 261.33 369.12 261.33 365.92 257.19 369.62 250.02 375.93 255.94 372.52 261.33"/><polygon class="cls-5" points="370.27 242.57 365.88 240.76 368.6 233.38 374.83 239.09 370.27 242.57"/><polygon class="cls-5" points="385.57 245.71 377.52 250.09 380.13 254.69 386.44 252.18 385.57 245.71"/><polygon class="cls-5" points="359.78 233.03 356.6 231.7 358.72 223.28 363.46 229.41 359.78 233.03"/><polyline class="cls-5" points="365.92 257.19 366.03 265.64 369.12 269.94 372.81 269.94 376.65 265 375.93 255.94"/><line class="cls-5" x1="369.12" y1="261.33" x2="369.12" y2="269.94"/><line class="cls-5" x1="372.52" y1="261.33" x2="372.81" y2="269.94"/><line class="cls-5" x1="366.15" y1="258.25" x2="355.12" y2="248.32"/><polyline class="cls-5" points="366.86 254.69 354.83 245.01 350.77 243.34 352.94 250.86 365.57 263.12"/><line class="cls-5" x1="380.13" y1="254.69" x2="376.65" y2="261.75"/><line class="cls-5" x1="377.52" y1="250.09" x2="374.83" y2="254.27"/><polyline class="cls-5" points="375.31 266.73 379.91 265.64 386.44 252.18"/><line class="cls-5" x1="365.88" y1="240.76" x2="368.68" y2="251.85"/><polyline class="cls-5" points="371.86 251.85 370.27 242.57 369.12 236.72"/><line class="cls-5" x1="374.83" y1="239.09" x2="378.39" y2="249.15"/><polyline class="cls-5" points="375.26 239.53 379.37 221.89 382.2 221.89 377.89 248.03"/><polyline class="cls-5" points="379.37 221.89 383.99 217.71 382.2 221.89 386.65 224.08 383.61 246.31"/><line class="cls-5" x1="383.99" y1="217.71" x2="386.65" y2="224.08"/><polygon class="cls-5" points="373.04 217.29 369.36 216.09 366.79 210.95 371.6 202.62 375.68 210.66 373.04 217.29"/><line class="cls-5" x1="375.68" y1="210.66" x2="377.52" y2="228.89"/><line class="cls-5" x1="373.04" y1="217.29" x2="372.52" y2="236.72"/><line class="cls-5" x1="369.36" y1="216.09" x2="368.6" y2="233.38"/><path class="cls-5" d="M363.46,229.41s2.9,7.72,3.39,8.36"/><line class="cls-5" x1="356.6" y1="231.7" x2="358.67" y2="247.57"/><line class="cls-5" x1="366.79" y1="210.95" x2="365.45" y2="234.21"/><line class="cls-5" x1="359.78" y1="233.03" x2="363.46" y2="251.85"/><path class="cls-5" d="M385.57,245.71"/><polygon class="cls-5" points="389.7 232.6 388.12 228.24 393.54 224.13 394.3 232.41 389.7 232.6"/><line class="cls-5" x1="394.3" y1="232.41" x2="386.56" y2="248.09"/><line class="cls-5" x1="389.7" y1="232.61" x2="384.59" y2="240.76"/><line class="cls-5" x1="388.12" y1="228.24" x2="385.57" y2="232.2"/><path class="cls-6" d="M393,181c.92-.26,1.32-4.3,2.06-4.9.3-.24,5.45-2.7,6.43-2.07,1.47.94,2,11-.68,12.64-1.69,1-5.14,2.93-5.81,1.08-.27-.75-.16-2.92-.81-3.38-2-1.38-2.5,4.66-2.94,5.41-.76,1.28-8.39,2.69-11.65,2.54-1.9-.09-3.68-1.67-3.93-4.31-.45-4.87-.55-8.35,2-8.93a73.67,73.67,0,0,1,11-1.37C391,177.78,390,181.89,393,181Z"/><path class="cls-6" d="M394.23,176.47a84.61,84.61,0,0,0-9.75-2.53c-1.76-.29-4.73,3.71-7.06,2.13-2.8-1.89,5.5-4.37,6.87-4.38,2.39,0,10.23,1.77,13.44,2.84"/><path class="cls-6" d="M375.35,183.91c-2.95-.55-16-3.63-18.13-3.22-2.4.47-6.67,2.86-6,4.2,1.93,4,4.71-1.72,6.78-1.95s13.85,3.78,17.69,4.78"/><path class="cls-7" d="M382.93,180.19q-2.3,2.93-4.53,5.92"/><path class="cls-7" d="M387.16,180.06A115.26,115.26,0,0,1,380,190.32"/><path class="cls-7" d="M390.08,182.74c-2.08,3.19-2.91,4.17-5,7.13"/><path class="cls-7" d="M397.69,177.56c-.35,1-.7,2.14-1.41,4.28"/><path class="cls-2" d="M330.13,182.39c-.27,0-4.24-2.22-7.35-.52-2.94,1.61-5.35,6.07-5.35,6.07"/><line class="cls-2" x1="315.15" y1="188.55" x2="316.15" y2="193.23"/><path class="cls-2" d="M318.85,192.76a10.52,10.52,0,0,0,8.15,5"/><path class="cls-2" d="M329.85,186.86c-.73,3.33,3.87,3.69,4.67,3"/><path class="cls-2" d="M336.26,185a15.69,15.69,0,0,0-2.42-.32c-.87-.08-3.92-2.44-6.48-4.35a100,100,0,0,0-15.06-8.53c.13,1.75,6,6,4.59,8.93s-1.24,4,.54,7.25a2.43,2.43,0,0,1-2.27.61c-.62-.24-6.45-3-7.52-2.92.6,1.88-.16,4.13,0,6.09s.67,4.48,0,6.93c1.64.52,7-5.08,8.54-5.43s1.66-.2,2.69-.46c-.1,1.2-1.72,3.44-1.72,3.44a9,9,0,0,0,.45,7.84c1.26,2.08-4,6.4-3.66,7.13a49.75,49.75,0,0,0,8.36-6c1.58-1.66,2.82-5.44,4.71-7.45a23.36,23.36,0,0,1,2.89-2.68c.89.65-2.13,5.74-1.27,6.73a48.81,48.81,0,0,0,3.34-5.07c.17-.43,1.29-2.19.49-3.8C334.12,191.47,336.44,187,336.26,185Z"/><path class="cls-6" d="M347.52,284.85c-3.93,3.79-5.85,17.74-2.65,20.84,2.23,2.16,1.75,7.51,2.85,8.57,1.9,1.81,2.53,1.9,3.82,4.19s3,3.45,2.78,6.06a45.33,45.33,0,0,0,10.42.48,1.63,1.63,0,0,0,1.13-.4,1.51,1.51,0,0,0,.28-1,8.25,8.25,0,0,0-.81-3.83c3.86.78,7.23,3.37,11.14,3.83,1.68.2,4.54-2.39,6.21-2.12,4,.64,12.27,3.6,17.13,2.55,1.57-.34.2-11.24-2.54-17.67-1.68-4-4.91-7.61-7-8.76-1.52-.86-17.11-2.87-23.94-1.8a15.28,15.28,0,0,0-2.94-8.63,7.89,7.89,0,0,0-4.7-3.15c-1.07-.23-2.73,1.19-3.75,1.29s-2.35-2.15-3.19-2.63C349.94,281.65,349.19,283.24,347.52,284.85Z"/><path class="cls-6" d="M357.33,286.41c1.23,0,1.33,1.93,2.3,2.82,1-.55,1.77-3.22,2.65-3.22"/><path class="cls-6" d="M349.09,285.5l-.76,1.74c1,.83,2.09-1,2.43-.67.74.93,1.26,1.56,0,3-.68.78-1.3,1.33-.47,1.94,1.1.82-3.72,5-3.13,5.72.9,1.11,1.45,2.11,2.26,2s2.21.15,2.89-.3c1-.68,1.52-2.53,2.69-2.16"/><path class="cls-6" d="M366.3,295.8c-.6,4.13-1.86,8-5.28,10.78,0,0-1.63,4.68-1.53,6.3.11,1.88,2.38,2.86,5.29,2.12,1.51-.38.89,3.72.67,4.56"/><path class="cls-6" d="M379.59,306.06c-1.26,8.76,13.4,14.11,14.93,14.83.48-1.13-.37-4.14-.92-5.23-2.28-4.53,0-8.85-3.1-12.86"/><path class="cls-6" d="M351.14,310.84c0,2.62,3.38,5.23,4.36,6.13,1.25,1.15,1.15,5.83.94,7.85"/><path class="cls-6" d="M389.23,318.43c-.22.92,1.47,3.77,1.66,4.56"/><path class="cls-3" d="M328.21,281.86a7.25,7.25,0,0,0-6.58-2.13s2.32,2.81,3.36,3.92c-2.65-.42-18.31-1.39-20.74.4,0,3.79,1.79,6.62,7.14,7.51v0c0,2.64,1.06,4.89,2.57,5.81a57.66,57.66,0,0,1-.69,12.58c-3.36.23-5.86,1.12-5.86,2.18,0,1.24,3.39,2.24,7.58,2.24s7.58-1,7.58-2.24c0-1.07-2.55-2-6-2.19,0-3.19-.28-7.88-.07-12.36,1.73-.72,3-3.15,3-6,0,0,0,0,0-.07,4.54-.83,6.59-3.14,7-6.28,0,0,2,3.13,2.75,3.92C330,287,330.29,284.15,328.21,281.86Z"/><path class="cls-3" d="M305.18,284.79c3.86,1.3,7.36,1.38,11.44,1.31s7.24.14,9.69-.86"/><rect class="cls-4" x="309.74" y="233.14" width="20.7" height="20.7" rx="3.57" ry="3.57"/><path class="cls-4" d="M310.73,226.48c0,.83-.13,2.64.22,3.07a6.42,6.42,0,0,0,1.2,1"/><path class="cls-4" d="M315.27,226.48c.07,1.35,0,2.87,1.06,3.87"/><path class="cls-4" d="M329.65,226.48c0,.83.13,2.64-.22,3.07a6.42,6.42,0,0,1-1.2,1"/><path class="cls-4" d="M325.11,226.48c-.07,1.35,0,2.87-1.06,3.87"/><line class="cls-4" x1="320.02" y1="226.51" x2="320.16" y2="230.51"/><path class="cls-4" d="M310.73,260.33c0-.83-.13-2.64.22-3.07a6.42,6.42,0,0,1,1.2-1"/><path class="cls-4" d="M315.27,260.33c.07-1.35,0-2.87,1.06-3.87"/><path class="cls-4" d="M329.65,260.33c0-.83.13-2.64-.22-3.07a6.42,6.42,0,0,0-1.2-1"/><path class="cls-4" d="M325.11,260.33c-.07-1.35,0-2.87-1.06-3.87"/><line class="cls-4" x1="320.02" y1="260.3" x2="320.16" y2="256.3"/><path class="cls-4" d="M302.48,252.87c.83,0,2.64.13,3.07-.22a6.42,6.42,0,0,0,1-1.2"/><path class="cls-4" d="M302.48,248.32c1.35-.07,2.87,0,3.87-1.06"/><path class="cls-4" d="M302.48,233.94c.83,0,2.64-.13,3.07.22a6.42,6.42,0,0,1,1,1.2"/><path class="cls-4" d="M302.48,238.49c1.35.07,2.87,0,3.87,1.06"/><line class="cls-4" x1="302.51" y1="243.58" x2="306.51" y2="243.44"/><path class="cls-4" d="M337.9,252.87c-.83,0-2.64.13-3.07-.22a6.42,6.42,0,0,1-1-1.2"/><path class="cls-4" d="M337.9,248.32c-1.35-.07-2.87,0-3.87-1.06"/><path class="cls-4" d="M337.9,233.94c-.83,0-2.64-.13-3.07.22a6.42,6.42,0,0,0-1,1.2"/><path class="cls-4" d="M337.9,238.49c-1.35.07-2.87,0-3.87,1.06"/><line class="cls-4" x1="337.87" y1="243.58" x2="333.87" y2="243.44"/><path class="cls-4" d="M315.52,241.25s-1.39-1.24-2.31.18c-.5.76-1.28,6.26,1.08,6.26a2.58,2.58,0,0,0,1.79-1.12"/><path class="cls-4" d="M318.79,247.26l-.41-4c-.1-1-.14-2.15.6-2.82a1.79,1.79,0,0,1,2.5.27,2.1,2.1,0,0,1-.12,2.59,2.54,2.54,0,0,1-2.57.7"/><path class="cls-4" d="M323.89,241.18v4.4c0,2.12,3.56,2.88,3.56.1,0-1.46,0-2.61-.1-4.56"/><polygon class="cls-5" points="174.52 261.33 171.12 261.33 167.92 257.19 171.62 250.02 177.93 255.94 174.52 261.33"/><polygon class="cls-5" points="172.27 242.57 167.88 240.76 170.6 233.38 176.83 239.09 172.27 242.57"/><polygon class="cls-5" points="187.57 245.71 179.52 250.09 182.13 254.69 188.44 252.18 187.57 245.71"/><polygon class="cls-5" points="161.78 233.03 158.6 231.7 160.72 223.28 165.46 229.41 161.78 233.03"/><polyline class="cls-5" points="167.92 257.19 168.03 265.64 171.12 269.94 174.81 269.94 178.65 265 177.93 255.94"/><line class="cls-5" x1="171.12" y1="261.33" x2="171.12" y2="269.94"/><line class="cls-5" x1="174.52" y1="261.33" x2="174.81" y2="269.94"/><line class="cls-5" x1="168.15" y1="258.25" x2="157.12" y2="248.32"/><polyline class="cls-5" points="168.86 254.69 156.83 245.01 152.77 243.34 154.94 250.86 167.57 263.12"/><line class="cls-5" x1="182.13" y1="254.69" x2="178.65" y2="261.75"/><line class="cls-5" x1="179.52" y1="250.09" x2="176.83" y2="254.27"/><polyline class="cls-5" points="177.31 266.73 181.91 265.64 188.44 252.18"/><line class="cls-5" x1="167.88" y1="240.76" x2="170.68" y2="251.85"/><polyline class="cls-5" points="173.86 251.85 172.27 242.57 171.12 236.72"/><line class="cls-5" x1="176.83" y1="239.09" x2="180.39" y2="249.15"/><polyline class="cls-5" points="177.26 239.53 181.37 221.89 184.2 221.89 179.9 248.03"/><polyline class="cls-5" points="181.37 221.89 185.99 217.71 184.2 221.89 188.65 224.08 185.61 246.31"/><line class="cls-5" x1="185.99" y1="217.71" x2="188.65" y2="224.08"/><polygon class="cls-5" points="175.04 217.29 171.36 216.09 168.79 210.95 173.6 202.62 177.68 210.66 175.04 217.29"/><line class="cls-5" x1="177.68" y1="210.66" x2="179.52" y2="228.89"/><line class="cls-5" x1="175.04" y1="217.29" x2="174.52" y2="236.72"/><line class="cls-5" x1="171.36" y1="216.09" x2="170.6" y2="233.38"/><path class="cls-5" d="M165.46,229.41s2.9,7.72,3.39,8.36"/><line class="cls-5" x1="158.6" y1="231.7" x2="160.67" y2="247.57"/><line class="cls-5" x1="168.79" y1="210.95" x2="167.45" y2="234.21"/><line class="cls-5" x1="161.78" y1="233.03" x2="165.46" y2="251.85"/><path class="cls-5" d="M187.57,245.71"/><polygon class="cls-5" points="191.7 232.6 190.12 228.24 195.54 224.13 196.29 232.41 191.7 232.6"/><line class="cls-5" x1="196.3" y1="232.41" x2="188.56" y2="248.09"/><line class="cls-5" x1="191.7" y1="232.61" x2="186.59" y2="240.76"/><line class="cls-5" x1="190.12" y1="228.24" x2="187.57" y2="232.2"/><path class="cls-4" d="M279.63,290.75c.77,1.48-.11,1.24,1.61,2.42s2.61,3.69,3.1,5.09,2.07,1.34,3.45,2.56a8.89,8.89,0,0,1-4.05.54c2.35,3.53-.16,8.21-2.56,11.68-2.9,4.18-7.36,3-10.68,1.67a7,7,0,0,0-5.32.29c-4.39,2.83-10.42,9.5-11.9,8.9-1-4,7.42-10.76,7.77-11.47a12,12,0,0,0,.4-1.48c.47-1.41,2-2.13,3.08-3.11,1.71-1.52,2.48-3.82,3.84-5.65,3.16-4.26,5.89-3.64,6.57-5.08C276.29,294.23,278.49,293,279.63,290.75Z"/><path class="cls-4" d="M265.39,315.22c1.66-2.09,3.47-4.3,6-5.11,2-.64,4.25-.32,6.27-1,2.4-.76,3-1.94,3.36-4.42.12-.8.49-2.25,0-2.9s-1.74-.94-2.32-1.37c-1.44-1.06-2.44-4.54-1.84-6.22"/><path class="cls-6" d="M195,181c.92-.26,1.32-4.3,2.06-4.9.3-.24,5.45-2.7,6.43-2.07,1.47.94,2,11-.68,12.64-1.69,1-5.14,2.93-5.81,1.08-.27-.75-.16-2.92-.81-3.38-2-1.38-2.5,4.66-2.94,5.41-.76,1.28-8.39,2.69-11.65,2.54-1.9-.09-3.68-1.67-3.93-4.31-.45-4.87-.55-8.35,2-8.93a73.67,73.67,0,0,1,11-1.37C193,177.78,192,181.89,195,181Z"/><path class="cls-6" d="M196.23,176.47a84.61,84.61,0,0,0-9.75-2.53c-1.76-.29-4.73,3.71-7.06,2.13-2.8-1.89,5.5-4.37,6.87-4.38,2.39,0,10.23,1.77,13.44,2.84"/><path class="cls-6" d="M177.35,183.91c-2.95-.55-16-3.63-18.13-3.22-2.4.47-6.67,2.86-6,4.2,1.93,4,4.71-1.72,6.78-1.95s13.85,3.78,17.69,4.78"/><path class="cls-7" d="M184.93,180.19q-2.3,2.93-4.53,5.92"/><path class="cls-7" d="M189.16,180.06A115.26,115.26,0,0,1,182,190.32"/><path class="cls-7" d="M192.08,182.74c-2.08,3.19-2.91,4.17-5,7.13"/><path class="cls-7" d="M199.69,177.56c-.35,1-.7,2.14-1.41,4.28"/><path class="cls-7" d="M202.73,178.06c-1,2.69-1.66,4.68-2.92,7.86"/><path class="cls-3" d="M223.46,236.52c0,1.55-.92,4.78-.62,6.69,1.41,1.48,2.76-.13,3.83-.42"/><path class="cls-3" d="M215.53,233.36a21.77,21.77,0,0,1-.27-4.81c1,.84,4.06,2.35,4.06,3,0,1.12-2,1.94-3.17,2.07"/><path class="cls-3" d="M218.92,226.06s-.41-3.63-1-4.65a11.31,11.31,0,0,0-2.1-1.81"/><path class="cls-3" d="M208.38,214.87"/><path class="cls-3" d="M208.86,218.26c-.28.89.1,4.68.86,5.59a4.06,4.06,0,0,0,1.67,1"/><path class="cls-3" d="M209,218.07c-.06,0-.1.08-.14.19"/><path class="cls-3" d="M211.39,224.87c.45-1.07.29-1.89,1.37-2.3"/><path class="cls-3" d="M207,211c-.26,1.56-.28,3.74.64,4.36a2.32,2.32,0,0,0,.39.16"/><path class="cls-3" d="M208.08,215.52c.35.11.83.23,1,.12s1-.74,1-1c0-.71-1.68-4.4-2.76-4.72A8,8,0,0,0,207,211"/><path class="cls-3" d="M214.75,217.18a4,4,0,0,0-.84-2.13"/><path class="cls-3" d="M213.9,215.05c-.79-1.07-1.91-1.17-2.4-1.55a42,42,0,0,0,.54,5.24c.11.24,1.38.52,1.75.58a3,3,0,0,0,1-2.14"/><path class="cls-3" d="M212.57,211.52c1.27-2.18-1.78-6.32-2.57-6.81"/><path class="cls-3" d="M207.34,201.75Z"/><path class="cls-3" d="M207.34,201.75a29.44,29.44,0,0,0-1.52,3.66,2.75,2.75,0,0,0,.76,1.8"/><path class="cls-3" d="M216.65,236.23s-.19,2.65.34,3.35c.23.3,3.05,2.53,3.05,2.53"/><path class="cls-3" d="M213.79,219.32c-.36-.06-1.64-.34-1.75-.58"/><path class="cls-3" d="M213.9,215.05c-.44-1.14-.89-2.34-1.33-3.53a5.51,5.51,0,0,1-1.82-.61c-.67-1.21-1.21-5.25-.78-6.22l0,0c-.86-2.14-1.55-3.55-1.91-3.47a1.32,1.32,0,0,0-.75.51,17,17,0,0,0,.74,3.43,6.05,6.05,0,0,1-.38,3,3.1,3.1,0,0,1-1.13-.94A32.92,32.92,0,0,0,207,211a8,8,0,0,1,.25-1.08c1.09.32,2.8,4,2.76,4.72,0,.26-.76.85-1,1s-.64,0-1-.12c.26,1,.52,1.89.79,2.74.42-1,3.78,3.26,3.9,4.31-1.08.41-.92,1.23-1.37,2.3,0,0,2.63,6.49,3,7.24.61,1.1,1.33,2.48,2.21,4.12.8.72,3.85,1.77,4,2.35.27.91-.63,3.53-.63,3.53a51.61,51.61,0,0,0,3.82,8.28c.87-1.27,4.61,2.2,4.64,2.3a4.44,4.44,0,0,1,0,2.65,14.53,14.53,0,0,1-1.83.08c2.17,3.83,6.26,10.25,6.62,10.34,1.66.42,3.2-1.18,4.91-1.19-.05-4-4.51-10.83-6.75-14.13a118.57,118.57,0,0,1-8-13.91c-1.73-3.52-3.29-7.31-4.7-10.41-.76.24-1.63-.78-3.22-.59-.55-1.12.26-5.92.26-5.92-.34-.71-.69-1.53-1.06-2.43"/><path class="cls-3" d="M223.86,250.39a9.42,9.42,0,0,0,1,4.6,2.94,2.94,0,0,0,1.79.43"/><path class="cls-2" d="M132.13,182.39c-.27,0-4.24-2.22-7.35-.52-2.94,1.61-5.35,6.07-5.35,6.07"/><line class="cls-2" x1="117.15" y1="188.55" x2="118.15" y2="193.23"/><path class="cls-2" d="M120.85,192.76a10.52,10.52,0,0,0,8.15,5"/><path class="cls-2" d="M131.85,186.86c-.73,3.33,3.87,3.69,4.67,3"/><path class="cls-2" d="M138.26,185a15.69,15.69,0,0,0-2.42-.32c-.87-.08-3.92-2.44-6.48-4.35a100,100,0,0,0-15.06-8.53c.13,1.75,6,6,4.59,8.93s-1.24,4,.54,7.25a2.43,2.43,0,0,1-2.27.61c-.62-.24-6.45-3-7.52-2.92.6,1.88-.16,4.13,0,6.09s.67,4.48,0,6.93c1.64.52,7-5.08,8.54-5.43s1.66-.2,2.69-.46c-.1,1.2-1.72,3.44-1.72,3.44a9,9,0,0,0,.45,7.84c1.26,2.08-4,6.4-3.66,7.13a49.75,49.75,0,0,0,8.36-6c1.58-1.66,2.82-5.44,4.71-7.45a23.36,23.36,0,0,1,2.89-2.68c.89.65-2.13,5.74-1.27,6.73a48.81,48.81,0,0,0,3.34-5.07c.17-.43,1.29-2.19.49-3.8C136.12,191.47,138.44,187,138.26,185Z"/><path class="cls-8" d="M247.56,188.83c-.69,2.29-3.27,3.57-3.67,3.78s-4.55.35-5.45-2.09c-1.13-3.1,1.17-4.82,2.43-6.61,1.39-2,4.45-2.78,6.8-2.21,2.38.83-1.22,6.95.35,7.5,2,.71,6.3,3.6,5.74,4.82a8.18,8.18,0,0,1-4.12,4.28c-2.49,1.08-3.84.54-5.81-1.32"/><path class="cls-8" d="M239.4,184.9c-1-.63-4-4.41-7-3-1.51.72.26,3-.78,4.55-3.92,6,4.73,11.43,8.49,6.31"/><path class="cls-8" d="M230.8,191.12a4.75,4.75,0,0,0-4.46,4.11c2.8.51,1.92,5.49,6.78,5.48,2.32,0,5.54-2.82,6.73-4.78"/><path class="cls-8" d="M235.22,200.34c-.13,3.24,3.38,8.05,6.3,6.65,3.82-1.83,1.43-4.1,2.2-4.37a4.69,4.69,0,0,0,2.78-3.86"/><path class="cls-8" d="M239,194.24c.4.72,1.59,3.45,1.76,3.55a5.59,5.59,0,0,0,2.12,0,2.32,2.32,0,0,0,1.32-2.84c-.36-1.1-.8-2.19-2-2.21"/><path class="cls-8" d="M242.91,199a42.14,42.14,0,0,1-1.67-4.81c1.1.87,3.76,1.3,5.12,1.65"/><path class="cls-6" d="M149.52,284.85c-3.93,3.79-5.85,17.74-2.65,20.84,2.23,2.16,1.75,7.51,2.85,8.57,1.9,1.81,2.53,1.9,3.82,4.19s3,3.45,2.78,6.06a45.33,45.33,0,0,0,10.42.48,1.63,1.63,0,0,0,1.13-.4,1.51,1.51,0,0,0,.28-1,8.25,8.25,0,0,0-.81-3.83c3.86.78,7.23,3.37,11.14,3.83,1.68.2,4.54-2.39,6.21-2.12,4,.64,12.27,3.6,17.13,2.55,1.57-.34.2-11.24-2.54-17.67-1.68-4-4.91-7.61-7-8.76-1.52-.86-17.11-2.87-23.94-1.8a15.28,15.28,0,0,0-2.94-8.63,7.89,7.89,0,0,0-4.7-3.15c-1.07-.23-2.73,1.19-3.75,1.29s-2.35-2.15-3.19-2.63C151.94,281.65,151.19,283.24,149.52,284.85Z"/><path class="cls-6" d="M159.33,286.41c1.23,0,1.33,1.93,2.3,2.82,1-.55,1.77-3.22,2.65-3.22"/><path class="cls-6" d="M151.09,285.5l-.76,1.74c1,.83,2.09-1,2.43-.67.74.93,1.26,1.56,0,3-.68.78-1.3,1.33-.47,1.94,1.1.82-3.72,5-3.13,5.72.9,1.11,1.45,2.11,2.26,2s2.21.15,2.89-.3c1-.68,1.52-2.53,2.69-2.16"/><path class="cls-6" d="M168.3,295.8c-.6,4.13-1.86,8-5.28,10.78,0,0-1.63,4.68-1.53,6.3.11,1.88,2.38,2.86,5.29,2.12,1.51-.38.89,3.72.67,4.56"/><path class="cls-6" d="M181.59,306.06c-1.26,8.76,13.4,14.11,14.93,14.83.48-1.13-.37-4.14-.92-5.23-2.28-4.53,0-8.85-3.1-12.86"/><path class="cls-6" d="M153.14,310.84c0,2.62,3.38,5.23,4.36,6.13,1.25,1.15,1.15,5.83.94,7.85"/><path class="cls-6" d="M191.23,318.43c-.22.92,1.47,3.77,1.66,4.56"/><path class="cls-8" d="M242.69,289.08c1-.88,1.4-4.47.16-6a5.34,5.34,0,0,0-2.3-1.4c-.83-.31-15.83-1.53-16.32-1.48a21,21,0,0,0-3.76.58,3.18,3.18,0,0,0-.45.77c-.92-.1-3.7-.54-4.69.06a3.54,3.54,0,0,0-1.41,1.59c-3.49-.29-12.66-.55-13.5.1,2.16.15,10.34,2,13.63,1.5a2.11,2.11,0,0,0,.63,1.35c.35.43,4,.94,5.33,1l.22.66c-.14.35,7.12,1.55,7.28,2.48s-.81,2.5-.09,3.14,2,.2,2.19,1.13c.09.5.1,3.44.53,4.44.28.64,1.16,3.12.83,4s-5.35,1.51-5.57,3c-.16,1.05-.11,4.36-.13,5.34,0,1.82,4,2.55,4.63,2.69,1.06.23,11.61-2.94,12-3.39.91-.94-1.39-12.73-3.69-16C234.63,289.42,242.37,289.38,242.69,289.08Z"/><path class="cls-8" d="M220,281.53c1.43.63,1.53,4.8,0,5.58"/><path class="cls-8" d="M229.89,313.93c.17-1.83.29-3.51.29-5.34-1.29.05-4.79-.88-4.79-2.69"/><path class="cls-8" d="M230.18,308.59s8.25-4.25,10.95-3.39"/><path class="cls-8" d="M213.92,283.18a.85.85,0,0,1,.13,1.6"/><path class="cls-3" d="M130.21,281.86a7.25,7.25,0,0,0-6.58-2.13s2.32,2.81,3.36,3.92c-2.65-.42-18.31-1.39-20.74.4,0,3.79,1.79,6.62,7.14,7.51v0c0,2.64,1.06,4.89,2.57,5.81a57.66,57.66,0,0,1-.69,12.58c-3.36.23-5.86,1.12-5.86,2.18,0,1.24,3.39,2.24,7.58,2.24s7.58-1,7.58-2.24c0-1.07-2.55-2-6-2.19,0-3.19-.28-7.88-.07-12.36,1.73-.72,3-3.15,3-6,0,0,0,0,0-.07,4.54-.83,6.59-3.14,7-6.28,0,0,2,3.13,2.75,3.92C132,287,132.29,284.15,130.21,281.86Z"/><path class="cls-3" d="M107.18,284.79c3.86,1.3,7.36,1.38,11.44,1.31s7.24.14,9.69-.86"/><path class="cls-5" d="M265.93,255.8c.58.74.05,1.93.48,2.71,1.13,2.07,5.11,7.89,6.55,8,1.65.08,3.44.38,4.44-.93-.35-.85-1.14-2.11-2.11-2-.66.11-1.14.15-1.14.15s-2.93-3.9-3-4.91,3.17-3.74,4.22-5.75c-2.1.21-4.31.24-6.28.28A10.9,10.9,0,0,1,265.93,255.8Z"/><path class="cls-5" d="M286.83,247.26a23.06,23.06,0,0,0-.93,4.06,25.83,25.83,0,0,0,1.59,6.11c.11-1,1-6.41,1-6.41s3.48-8.92,3-12.48a26.48,26.48,0,0,0-1.43-4.14c-.25-.58.35-3,.74-4.88a5.35,5.35,0,0,0-.8-3.28,10.53,10.53,0,0,0,0-5.09c-1.89,0-4.25,3.69-4.25,3.69l-3.94,0s-1.9-3.36-3.59-3.21c-.6,1.61.77,4.86.77,4.86s-.64,2.42-.78,3.63a3.5,3.5,0,0,0,1.22,3.09,8,8,0,0,1-.07,1.77c-4.63-.5-15.4,2.43-18.33,4-2.31-.7-4.75-7-5.74-8.78a19,19,0,0,0-5.43-5.65c-1.29-.74-3.2-1.53-4.45-.13-1.42,1.58.89,5.41,2.13,5.45,1.08,0,.93-2.28.53-3.08,3.87,1.88,6.58,11.27,9.06,15.2-3.13,4.64,2.26,10.46,1.77,12.34-.21.81-1.16.71-1.38,1.52-.11.41,1.42,8,1.7,9.44.44,2.24,3.53,1.78,4.51,1.36.5-.21-.17-2.22-.57-2.58a3.71,3.71,0,0,0-1.41-.7c-.34-1.22-1.47-4.45,2.39-6.72.57-.34,1.22-.55,1.81-.86a10.9,10.9,0,0,0,3.16-2.42c2,0,4.18-.07,6.28-.28,1.78-.18,3-.06,4.63-.72,1.54,4.31,1.71,4.16,4,7.81a54.69,54.69,0,0,1,2.16,5.41,6.74,6.74,0,0,1,.24.81c.18,1,2.47,1.9,3.47.94s-.24-3.84-.56-4.57a46.71,46.71,0,0,1-1.82-5.35"/><path class="cls-5" d="M286.15,265.6a1.66,1.66,0,0,1-1.67-.6,8.62,8.62,0,0,1-.49-4.82A54.69,54.69,0,0,1,286.15,265.6Z"/><path class="cls-9" d="M280.89,230.78l.54-.57a1.87,1.87,0,0,1,1.41-.79c.56.06.92.58,1.35.94a2.68,2.68,0,0,0,1.08.55"/><polygon class="cls-9" points="282.83 228.72 282.22 227.66 283.45 227.66 282.83 228.72"/><path class="cls-2" d="M284.71,173.16c3.28,1.88,4.83,6.71,4.63,9.2-.24,3-3.24,9.28-6.07,9.72-1.76.27-.67,1.74-2.61,3.13a50.64,50.64,0,0,1-7.06,3.56c-.65.12-2.69,0-3.21-.62-.69-1.79,6.1-8.25,8.25-8.12,1.25.08,4-7.58,3.83-9.19-.17-1.79-2.77-2.82-4.08-2.5-1.92.47-1.91,5.27-3.76,6-1,.39-3-2.08-3.6-3.91-.82-2.72,2.28-6.1,4.08-7.18A10.72,10.72,0,0,1,284.71,173.16Z"/><path class="cls-2" d="M280.27,191.82a5.74,5.74,0,0,0-1.62,2.07,15.16,15.16,0,0,1-3.72,4.2"/><path class="cls-2" d="M275.81,193.1c-1.54,1-2.93,4.47-4.09,5.61"/><path class="cls-2" d="M278.65,190.27c1.62,1.55,2.69,2.2,3.81,2"/><path class="cls-2" d="M281.84,184.8a3.07,3.07,0,0,1,2.43,0,4.27,4.27,0,0,0,2.39.72,11.75,11.75,0,0,0,1.8-.69"/><path class="cls-2" d="M282.69,180.91c.32-.48,1.45-.91,3.12-1.29a3.16,3.16,0,0,0,2.23-2.29"/><path class="cls-2" d="M281.88,172.59a2.64,2.64,0,0,1-.46,2.6,7.18,7.18,0,0,0-1.81,2.89"/><path class="cls-2" d="M273.43,175.07c.4,1,.85,2.21,1.87,2.62s1.72.74,1.88,1.07"/><rect class="cls-4" x="111.74" y="233.14" width="20.7" height="20.7" rx="3.57" ry="3.57"/><path class="cls-4" d="M112.73,226.48c0,.83-.13,2.64.22,3.07a6.42,6.42,0,0,0,1.2,1"/><path class="cls-4" d="M117.27,226.48c.07,1.35,0,2.87,1.06,3.87"/><path class="cls-4" d="M131.65,226.48c0,.83.13,2.64-.22,3.07a6.42,6.42,0,0,1-1.2,1"/><path class="cls-4" d="M127.11,226.48c-.07,1.35,0,2.87-1.06,3.87"/><line class="cls-4" x1="122.02" y1="226.51" x2="122.16" y2="230.51"/><path class="cls-4" d="M112.73,260.33c0-.83-.13-2.64.22-3.07a6.42,6.42,0,0,1,1.2-1"/><path class="cls-4" d="M117.27,260.33c.07-1.35,0-2.87,1.06-3.87"/><path class="cls-4" d="M131.65,260.33c0-.83.13-2.64-.22-3.07a6.42,6.42,0,0,0-1.2-1"/><path class="cls-4" d="M127.11,260.33c-.07-1.35,0-2.87-1.06-3.87"/><line class="cls-4" x1="122.02" y1="260.3" x2="122.16" y2="256.3"/><path class="cls-4" d="M104.48,252.87c.83,0,2.64.13,3.07-.22a6.42,6.42,0,0,0,1-1.2"/><path class="cls-4" d="M104.48,248.32c1.35-.07,2.87,0,3.87-1.06"/><path class="cls-4" d="M104.48,233.94c.83,0,2.64-.13,3.07.22a6.42,6.42,0,0,1,1,1.2"/><path class="cls-4" d="M104.48,238.49c1.35.07,2.87,0,3.87,1.06"/><line class="cls-4" x1="104.51" y1="243.58" x2="108.51" y2="243.44"/><path class="cls-4" d="M139.9,252.87c-.83,0-2.64.13-3.07-.22a6.42,6.42,0,0,1-1-1.2"/><path class="cls-4" d="M139.9,248.32c-1.35-.07-2.87,0-3.87-1.06"/><path class="cls-4" d="M139.9,233.94c-.83,0-2.64-.13-3.07.22a6.42,6.42,0,0,0-1,1.2"/><path class="cls-4" d="M139.9,238.49c-1.35.07-2.87,0-3.87,1.06"/><line class="cls-4" x1="139.87" y1="243.58" x2="135.87" y2="243.44"/><path class="cls-4" d="M117.52,241.25s-1.39-1.24-2.31.18c-.5.76-1.28,6.26,1.08,6.26a2.58,2.58,0,0,0,1.79-1.12"/><path class="cls-4" d="M120.79,247.26l-.41-4c-.1-1-.14-2.15.6-2.82a1.79,1.79,0,0,1,2.5.27,2.1,2.1,0,0,1-.12,2.59,2.54,2.54,0,0,1-2.57.7"/><path class="cls-4" d="M125.89,241.18v4.4c0,2.12,3.56,2.88,3.56.1,0-1.46,0-2.61-.1-4.56"/><path class="cls-4" d="M81.63,290.75c.77,1.48-.11,1.24,1.61,2.42s2.61,3.69,3.1,5.09,2.07,1.34,3.45,2.56a8.89,8.89,0,0,1-4.05.54c2.35,3.53-.16,8.21-2.56,11.68-2.9,4.18-7.36,3-10.68,1.67a7,7,0,0,0-5.32.29c-4.39,2.83-10.42,9.5-11.9,8.9-1-4,7.42-10.76,7.77-11.47a12,12,0,0,0,.4-1.48c.47-1.41,2-2.13,3.08-3.11,1.71-1.52,2.48-3.82,3.84-5.65,3.16-4.26,5.89-3.64,6.57-5.08C78.29,294.23,80.49,293,81.63,290.75Z"/><path class="cls-4" d="M67.39,315.22c1.66-2.09,3.47-4.3,6-5.11,2-.64,4.25-.32,6.27-1,2.4-.76,3-1.94,3.36-4.42.12-.8.49-2.25,0-2.9s-1.74-.94-2.32-1.37c-1.44-1.06-2.44-4.54-1.84-6.22"/><path class="cls-6" d="M-3,181c.92-.26,1.32-4.3,2.06-4.9.3-.24,5.45-2.7,6.43-2.07,1.47.94,2,11-.68,12.64-1.69,1-5.14,2.93-5.81,1.08-.27-.75-.16-2.92-.81-3.38-2-1.38-2.5,4.66-2.94,5.41-.76,1.28-8.39,2.69-11.65,2.54-1.9-.09-3.68-1.67-3.93-4.31-.45-4.87-.55-8.35,2-8.93a73.67,73.67,0,0,1,11-1.37C-5,177.78-6,181.89-3,181Z"/><path class="cls-6" d="M-1.77,176.47a84.61,84.61,0,0,0-9.75-2.53c-1.76-.29-4.73,3.71-7.06,2.13-2.8-1.89,5.5-4.37,6.87-4.38,2.39,0,10.23,1.77,13.44,2.84"/><path class="cls-7" d="M1.69,177.56c-.35,1-.7,2.14-1.41,4.28"/><path class="cls-7" d="M4.73,178.06c-1,2.69-1.66,4.68-2.92,7.86"/><path class="cls-3" d="M25.46,236.52c0,1.55-.92,4.78-.62,6.69,1.41,1.48,2.76-.13,3.83-.42"/><path class="cls-3" d="M17.53,233.36a21.77,21.77,0,0,1-.27-4.81c1,.84,4.06,2.35,4.06,3,0,1.12-2,1.94-3.17,2.07"/><path class="cls-3" d="M20.92,226.06s-.41-3.63-1-4.65a11.31,11.31,0,0,0-2.1-1.81"/><path class="cls-3" d="M10.38,214.87"/><path class="cls-3" d="M10.86,218.26c-.28.89.1,4.68.86,5.59a4.06,4.06,0,0,0,1.67,1"/><path class="cls-3" d="M11,218.07c-.06,0-.1.08-.14.19"/><path class="cls-3" d="M13.39,224.87c.45-1.07.29-1.89,1.37-2.3"/><path class="cls-3" d="M9,211c-.26,1.56-.28,3.74.64,4.36a2.32,2.32,0,0,0,.39.16"/><path class="cls-3" d="M10.08,215.52c.35.11.83.23,1,.12s1-.74,1-1c0-.71-1.68-4.4-2.76-4.72A8,8,0,0,0,9,211"/><path class="cls-3" d="M16.75,217.18a4,4,0,0,0-.84-2.13"/><path class="cls-3" d="M15.9,215.05c-.79-1.07-1.91-1.17-2.4-1.55a42,42,0,0,0,.54,5.24c.11.24,1.38.52,1.75.58a3,3,0,0,0,1-2.14"/><path class="cls-3" d="M14.57,211.52c1.27-2.18-1.78-6.32-2.57-6.81"/><path class="cls-3" d="M9.34,201.75Z"/><path class="cls-3" d="M9.34,201.75a29.44,29.44,0,0,0-1.52,3.66,2.75,2.75,0,0,0,.76,1.8"/><path class="cls-3" d="M18.65,236.23s-.19,2.65.34,3.35c.23.3,3.05,2.53,3.05,2.53"/><path class="cls-3" d="M15.79,219.32c-.36-.06-1.64-.34-1.75-.58"/><path class="cls-3" d="M15.9,215.05c-.44-1.14-.89-2.34-1.33-3.53a5.51,5.51,0,0,1-1.82-.61c-.67-1.21-1.21-5.25-.78-6.22l0,0c-.86-2.14-1.55-3.55-1.91-3.47a1.32,1.32,0,0,0-.75.51,17,17,0,0,0,.74,3.43,6.05,6.05,0,0,1-.38,3,3.1,3.1,0,0,1-1.13-.94A32.92,32.92,0,0,0,9,211a8,8,0,0,1,.25-1.08c1.09.32,2.8,4,2.76,4.72,0,.26-.76.85-1,1s-.64,0-1-.12c.26,1,.52,1.89.79,2.74.42-1,3.78,3.26,3.9,4.31-1.08.41-.92,1.23-1.37,2.3,0,0,2.63,6.49,3,7.24.61,1.1,1.33,2.48,2.21,4.12.8.72,3.85,1.77,4,2.35.27.91-.63,3.53-.63,3.53a51.61,51.61,0,0,0,3.82,8.28c.87-1.27,4.61,2.2,4.64,2.3a4.44,4.44,0,0,1,0,2.65,14.53,14.53,0,0,1-1.83.08c2.17,3.83,6.26,10.25,6.62,10.34,1.66.42,3.2-1.18,4.91-1.19-.05-4-4.51-10.83-6.75-14.13a118.57,118.57,0,0,1-8-13.91c-1.73-3.52-3.29-7.31-4.7-10.41-.76.24-1.63-.78-3.22-.59-.55-1.12.26-5.92.26-5.92-.34-.71-.69-1.53-1.06-2.43"/><path class="cls-3" d="M25.86,250.39a9.42,9.42,0,0,0,1,4.6,2.94,2.94,0,0,0,1.79.43"/><path class="cls-8" d="M49.56,188.83c-.69,2.29-3.27,3.57-3.67,3.78s-4.55.35-5.45-2.09c-1.13-3.1,1.17-4.82,2.43-6.61,1.39-2,4.45-2.78,6.8-2.21,2.38.83-1.22,6.95.35,7.5,2,.71,6.3,3.6,5.74,4.82a8.18,8.18,0,0,1-4.12,4.28c-2.49,1.08-3.84.54-5.81-1.32"/><path class="cls-8" d="M41.4,184.9c-1-.63-4-4.41-7-3-1.51.72.26,3-.78,4.55-3.92,6,4.73,11.43,8.49,6.31"/><path class="cls-8" d="M32.8,191.12a4.75,4.75,0,0,0-4.46,4.11c2.8.51,1.92,5.49,6.78,5.48,2.32,0,5.54-2.82,6.73-4.78"/><path class="cls-8" d="M37.22,200.34c-.13,3.24,3.38,8.05,6.3,6.65,3.82-1.83,1.43-4.1,2.2-4.37a4.69,4.69,0,0,0,2.78-3.86"/><path class="cls-8" d="M41,194.24c.4.72,1.59,3.45,1.76,3.55a5.59,5.59,0,0,0,2.12,0A2.32,2.32,0,0,0,46.19,195c-.36-1.1-.8-2.19-2-2.21"/><path class="cls-8" d="M44.91,199a42.14,42.14,0,0,1-1.67-4.81c1.1.87,3.76,1.3,5.12,1.65"/><path class="cls-6" d="M-48.48,284.85c-3.93,3.79-5.85,17.74-2.65,20.84,2.23,2.16,1.75,7.51,2.85,8.57,1.9,1.81,2.53,1.9,3.82,4.19s3,3.45,2.78,6.06a45.33,45.33,0,0,0,10.42.48,1.63,1.63,0,0,0,1.13-.4,1.51,1.51,0,0,0,.28-1,8.25,8.25,0,0,0-.81-3.83c3.86.78,7.23,3.37,11.14,3.83,1.68.2,4.54-2.39,6.21-2.12,4,.64,12.27,3.6,17.13,2.55,1.57-.34.2-11.24-2.54-17.67-1.68-4-4.91-7.61-7-8.76-1.52-.86-17.11-2.87-23.94-1.8a15.28,15.28,0,0,0-2.94-8.63,7.89,7.89,0,0,0-4.7-3.15c-1.07-.23-2.73,1.19-3.75,1.29s-2.35-2.15-3.19-2.63C-46.06,281.65-46.81,283.24-48.48,284.85Z"/><path class="cls-8" d="M44.69,289.08c1-.88,1.4-4.47.16-6a5.34,5.34,0,0,0-2.3-1.4c-.83-.31-15.83-1.53-16.32-1.48a21,21,0,0,0-3.76.58,3.18,3.18,0,0,0-.45.77c-.92-.1-3.7-.54-4.69.06a3.54,3.54,0,0,0-1.41,1.59c-3.49-.29-12.66-.55-13.5.1,2.16.15,10.34,2,13.63,1.5a2.11,2.11,0,0,0,.63,1.35c.35.43,4,.94,5.33,1l.22.66c-.14.35,7.12,1.55,7.28,2.48s-.81,2.5-.09,3.14,2,.2,2.19,1.13c.09.5.1,3.44.53,4.44.28.64,1.16,3.12.83,4s-5.35,1.51-5.57,3c-.16,1.05-.11,4.36-.13,5.34,0,1.82,4,2.55,4.63,2.69,1.06.23,11.61-2.94,12-3.39.91-.94-1.39-12.73-3.69-16C36.63,289.42,44.37,289.38,44.69,289.08Z"/><path class="cls-8" d="M22,281.53c1.43.63,1.53,4.8,0,5.58"/><path class="cls-8" d="M31.89,313.93c.17-1.83.29-3.51.29-5.34-1.29.05-4.79-.88-4.79-2.69"/><path class="cls-8" d="M32.18,308.59s8.25-4.25,10.95-3.39"/><path class="cls-8" d="M15.92,283.18a.85.85,0,0,1,.13,1.6"/><path class="cls-5" d="M67.93,255.8c.58.74.05,1.93.48,2.71,1.13,2.07,5.11,7.89,6.55,8,1.65.08,3.44.38,4.44-.93-.35-.85-1.14-2.11-2.11-2-.66.11-1.14.15-1.14.15s-2.93-3.9-3-4.91,3.17-3.74,4.22-5.75c-2.1.21-4.31.24-6.28.28A10.9,10.9,0,0,1,67.93,255.8Z"/><path class="cls-5" d="M88.83,247.26a23.06,23.06,0,0,0-.93,4.06,25.83,25.83,0,0,0,1.59,6.11c.11-1,1-6.41,1-6.41s3.48-8.92,3-12.48A26.48,26.48,0,0,0,92,234.41c-.25-.58.35-3,.74-4.88a5.35,5.35,0,0,0-.8-3.28,10.53,10.53,0,0,0,0-5.09c-1.89,0-4.25,3.69-4.25,3.69l-3.94,0s-1.9-3.36-3.59-3.21c-.6,1.61.77,4.86.77,4.86s-.64,2.42-.78,3.63a3.5,3.5,0,0,0,1.22,3.09,8,8,0,0,1-.07,1.77c-4.63-.5-15.4,2.43-18.33,4-2.31-.7-4.75-7-5.74-8.78a19,19,0,0,0-5.43-5.65c-1.29-.74-3.2-1.53-4.45-.13-1.42,1.58.89,5.41,2.13,5.45,1.08,0,.93-2.28.53-3.08,3.87,1.88,6.58,11.27,9.06,15.2-3.13,4.64,2.26,10.46,1.77,12.34-.21.81-1.16.71-1.38,1.52-.11.41,1.42,8,1.7,9.44.44,2.24,3.53,1.78,4.51,1.36.5-.21-.17-2.22-.57-2.58a3.71,3.71,0,0,0-1.41-.7c-.34-1.22-1.47-4.45,2.39-6.72.57-.34,1.22-.55,1.81-.86a10.9,10.9,0,0,0,3.16-2.42c2,0,4.18-.07,6.28-.28,1.78-.18,3-.06,4.63-.72,1.54,4.31,1.71,4.16,4,7.81a54.69,54.69,0,0,1,2.16,5.41,6.74,6.74,0,0,1,.24.81c.18,1,2.47,1.9,3.47.94s-.24-3.84-.56-4.57a46.71,46.71,0,0,1-1.82-5.35"/><path class="cls-5" d="M88.15,265.6a1.66,1.66,0,0,1-1.67-.6,8.62,8.62,0,0,1-.49-4.82A54.69,54.69,0,0,1,88.15,265.6Z"/><path class="cls-9" d="M82.89,230.78l.54-.57a1.87,1.87,0,0,1,1.41-.79c.56.06.92.58,1.35.94a2.68,2.68,0,0,0,1.08.55"/><polygon class="cls-9" points="84.83 228.72 84.22 227.66 85.45 227.66 84.83 228.72"/><path class="cls-2" d="M86.71,173.16c3.28,1.88,4.83,6.71,4.63,9.2-.24,3-3.24,9.28-6.07,9.72-1.76.27-.67,1.74-2.61,3.13a50.64,50.64,0,0,1-7.06,3.56c-.65.12-2.69,0-3.21-.62-.69-1.79,6.1-8.25,8.25-8.12,1.25.08,4-7.58,3.83-9.19-.17-1.79-2.77-2.82-4.08-2.5-1.92.47-1.91,5.27-3.76,6-1,.39-3-2.08-3.6-3.91-.82-2.72,2.28-6.1,4.08-7.18A10.72,10.72,0,0,1,86.71,173.16Z"/><path class="cls-2" d="M82.27,191.82a5.74,5.74,0,0,0-1.62,2.07,15.16,15.16,0,0,1-3.72,4.2"/><path class="cls-2" d="M77.81,193.1c-1.54,1-2.93,4.47-4.09,5.61"/><path class="cls-2" d="M80.65,190.27c1.62,1.55,2.69,2.2,3.81,2"/><path class="cls-2" d="M83.84,184.8a3.07,3.07,0,0,1,2.43,0,4.27,4.27,0,0,0,2.39.72,11.75,11.75,0,0,0,1.8-.69"/><path class="cls-2" d="M84.69,180.91c.32-.48,1.45-.91,3.12-1.29A3.16,3.16,0,0,0,90,177.32"/><path class="cls-2" d="M83.88,172.59a2.64,2.64,0,0,1-.46,2.6,7.18,7.18,0,0,0-1.81,2.89"/><path class="cls-2" d="M75.43,175.07c.4,1,.85,2.21,1.87,2.62s1.72.74,1.88,1.07"/><polygon class="cls-5" points="306.52 95.73 303.12 95.73 299.92 91.59 303.62 84.42 309.93 90.34 306.52 95.73"/><polygon class="cls-5" points="304.27 76.97 299.88 75.16 302.6 67.78 308.83 73.49 304.27 76.97"/><polygon class="cls-5" points="319.57 80.11 311.52 84.49 314.13 89.09 320.44 86.58 319.57 80.11"/><polygon class="cls-5" points="293.78 67.43 290.6 66.1 292.72 57.69 297.46 63.81 293.78 67.43"/><polyline class="cls-5" points="299.92 91.59 300.03 100.04 303.12 104.34 306.81 104.34 310.65 99.39 309.93 90.34"/><line class="cls-5" x1="303.12" y1="95.73" x2="303.12" y2="104.34"/><line class="cls-5" x1="306.52" y1="95.73" x2="306.81" y2="104.34"/><line class="cls-5" x1="300.15" y1="92.65" x2="289.12" y2="82.72"/><polyline class="cls-5" points="300.86 89.09 288.83 79.41 284.77 77.74 286.94 85.26 299.57 97.52"/><line class="cls-5" x1="314.13" y1="89.09" x2="310.65" y2="96.15"/><line class="cls-5" x1="311.52" y1="84.49" x2="308.83" y2="88.67"/><polyline class="cls-5" points="309.31 101.13 313.91 100.04 320.44 86.58"/><line class="cls-5" x1="299.88" y1="75.16" x2="302.68" y2="86.25"/><polyline class="cls-5" points="305.86 86.25 304.27 76.97 303.12 71.12"/><line class="cls-5" x1="308.83" y1="73.49" x2="312.39" y2="83.55"/><polyline class="cls-5" points="309.26 73.93 313.37 56.29 316.2 56.29 311.89 82.43"/><polyline class="cls-5" points="313.37 56.29 317.99 52.11 316.2 56.29 320.65 58.48 317.61 80.72"/><line class="cls-5" x1="317.99" y1="52.11" x2="320.65" y2="58.48"/><polygon class="cls-5" points="307.04 51.69 303.36 50.49 300.79 45.35 305.6 37.02 309.68 45.06 307.04 51.69"/><line class="cls-5" x1="309.68" y1="45.06" x2="311.52" y2="63.29"/><line class="cls-5" x1="307.04" y1="51.69" x2="306.52" y2="71.12"/><line class="cls-5" x1="303.36" y1="50.49" x2="302.6" y2="67.78"/><path class="cls-5" d="M297.46,63.81s2.9,7.72,3.39,8.36"/><line class="cls-5" x1="290.6" y1="66.1" x2="292.67" y2="81.97"/><line class="cls-5" x1="300.79" y1="45.35" x2="299.45" y2="68.61"/><line class="cls-5" x1="293.78" y1="67.43" x2="297.46" y2="86.25"/><path class="cls-5" d="M319.57,80.11"/><polygon class="cls-5" points="323.7 67 322.12 62.64 327.54 58.52 328.3 66.81 323.7 67"/><line class="cls-5" x1="328.3" y1="66.81" x2="320.56" y2="82.49"/><line class="cls-5" x1="323.7" y1="67.01" x2="318.59" y2="75.16"/><line class="cls-5" x1="322.12" y1="62.64" x2="319.57" y2="66.6"/><path class="cls-4" d="M411.63,125.15c.77,1.48-.11,1.24,1.61,2.42s2.61,3.69,3.1,5.09,2.07,1.34,3.45,2.56a8.89,8.89,0,0,1-4.05.54c2.35,3.53-.16,8.21-2.56,11.68-2.9,4.18-7.36,3-10.68,1.67a7,7,0,0,0-5.32.29c-4.39,2.83-10.42,9.5-11.9,8.9-1-4,7.42-10.76,7.77-11.47a12,12,0,0,0,.4-1.48c.47-1.41,2-2.13,3.08-3.11,1.71-1.52,2.48-3.82,3.84-5.65,3.16-4.26,5.89-3.64,6.57-5.08C408.29,128.63,410.49,127.35,411.63,125.15Z"/><path class="cls-6" d="M327,15.44c.92-.26,1.32-4.3,2.06-4.9.3-.24,5.45-2.7,6.43-2.07,1.47.94,2,11-.68,12.64-1.69,1-5.14,2.93-5.81,1.08-.27-.75-.16-2.92-.81-3.38-2-1.38-2.5,4.66-2.94,5.41-.76,1.28-8.39,2.69-11.65,2.54-1.9-.09-3.68-1.67-3.93-4.31-.45-4.87-.55-8.35,2-8.93a73.67,73.67,0,0,1,11-1.37C325,12.18,324,16.29,327,15.44Z"/><path class="cls-6" d="M328.23,10.87a84.61,84.61,0,0,0-9.75-2.53c-1.76-.29-4.73,3.71-7.06,2.13-2.8-1.89,5.5-4.37,6.87-4.38,2.39,0,10.23,1.77,13.44,2.84"/><path class="cls-6" d="M309.35,18.31c-2.95-.55-16-3.63-18.13-3.22-2.4.47-6.67,2.86-6,4.2,1.93,4,4.71-1.72,6.78-1.95s13.85,3.78,17.69,4.78"/><path class="cls-7" d="M316.93,14.59q-2.3,2.93-4.53,5.92"/><path class="cls-7" d="M321.16,14.46A115.26,115.26,0,0,1,314,24.72"/><path class="cls-7" d="M324.08,17.14c-2.08,3.19-2.91,4.17-5,7.13"/><path class="cls-7" d="M331.69,12c-.35,1-.7,2.14-1.41,4.28"/><path class="cls-7" d="M334.73,12.46c-1,2.69-1.66,4.68-2.92,7.86"/><path class="cls-3" d="M355.46,70.92c0,1.55-.92,4.78-.62,6.69,1.41,1.48,2.76-.13,3.83-.42"/><path class="cls-3" d="M347.53,67.76a21.77,21.77,0,0,1-.27-4.81c1,.84,4.06,2.35,4.06,3,0,1.12-2,1.94-3.17,2.07"/><path class="cls-3" d="M350.92,60.46s-.41-3.63-1-4.65A11.31,11.31,0,0,0,347.8,54"/><path class="cls-3" d="M340.38,49.27"/><path class="cls-3" d="M340.86,52.66c-.28.89.1,4.68.86,5.59a4.06,4.06,0,0,0,1.67,1"/><path class="cls-3" d="M341,52.47c-.06,0-.1.08-.14.19"/><path class="cls-3" d="M343.39,59.27c.45-1.07.29-1.89,1.37-2.3"/><path class="cls-3" d="M339,45.4c-.26,1.56-.28,3.74.64,4.36a2.32,2.32,0,0,0,.39.16"/><path class="cls-3" d="M340.08,49.92c.35.11.83.23,1,.12s1-.74,1-1c0-.71-1.68-4.4-2.76-4.72A8,8,0,0,0,339,45.4"/><path class="cls-3" d="M346.75,51.58a4,4,0,0,0-.84-2.13"/><path class="cls-3" d="M345.9,49.45c-.79-1.07-1.91-1.17-2.4-1.55a42,42,0,0,0,.54,5.24c.11.24,1.38.52,1.75.58a3,3,0,0,0,1-2.14"/><path class="cls-3" d="M344.57,45.92c1.27-2.18-1.78-6.32-2.57-6.81"/><path class="cls-3" d="M339.34,36.15Z"/><path class="cls-3" d="M339.34,36.15a29.44,29.44,0,0,0-1.52,3.66,2.75,2.75,0,0,0,.76,1.8"/><path class="cls-3" d="M348.65,70.63s-.19,2.65.34,3.35c.23.3,3.05,2.53,3.05,2.53"/><path class="cls-3" d="M345.79,53.72c-.36-.06-1.64-.34-1.75-.58"/><path class="cls-3" d="M345.9,49.45c-.44-1.14-.89-2.34-1.33-3.53a5.51,5.51,0,0,1-1.82-.61c-.67-1.21-1.21-5.25-.78-6.22l0,0c-.86-2.14-1.55-3.55-1.91-3.47a1.32,1.32,0,0,0-.75.51,17,17,0,0,0,.74,3.43,6.05,6.05,0,0,1-.38,3,3.1,3.1,0,0,1-1.13-.94A32.92,32.92,0,0,0,339,45.4a8,8,0,0,1,.25-1.08c1.09.32,2.8,4,2.76,4.72,0,.26-.76.85-1,1s-.64,0-1-.12c.26,1,.52,1.89.79,2.74.42-1,3.78,3.26,3.9,4.31-1.08.41-.92,1.23-1.37,2.3,0,0,2.63,6.49,3,7.24.61,1.1,1.33,2.48,2.21,4.12.8.72,3.85,1.77,4,2.35.27.91-.63,3.53-.63,3.53a51.61,51.61,0,0,0,3.82,8.28c.87-1.27,4.61,2.2,4.64,2.3a4.44,4.44,0,0,1,0,2.65,14.53,14.53,0,0,1-1.83.08c2.17,3.83,6.26,10.25,6.62,10.34,1.66.42,3.2-1.18,4.91-1.19-.05-4-4.51-10.83-6.75-14.13a118.57,118.57,0,0,1-8-13.91c-1.73-3.52-3.29-7.31-4.7-10.41-.76.24-1.63-.78-3.22-.59-.55-1.12.26-5.92.26-5.92-.34-.71-.69-1.53-1.06-2.43"/><path class="cls-3" d="M355.86,84.79a9.42,9.42,0,0,0,1,4.6,2.94,2.94,0,0,0,1.79.43"/><path class="cls-2" d="M264.13,16.79c-.27,0-4.24-2.22-7.35-.52-2.94,1.61-5.35,6.07-5.35,6.07"/><line class="cls-2" x1="249.15" y1="22.95" x2="250.15" y2="27.63"/><path class="cls-2" d="M252.85,27.16a10.52,10.52,0,0,0,8.15,5"/><path class="cls-2" d="M263.85,21.26c-.73,3.33,3.87,3.69,4.67,3"/><path class="cls-2" d="M270.26,19.36a15.69,15.69,0,0,0-2.42-.32c-.87-.08-3.92-2.44-6.48-4.35A100,100,0,0,0,246.3,6.16c.13,1.75,6,6,4.59,8.93s-1.24,4,.54,7.25a2.43,2.43,0,0,1-2.27.61c-.62-.24-6.45-3-7.52-2.92.6,1.88-.16,4.13,0,6.09s.67,4.48,0,6.93c1.64.52,7-5.08,8.54-5.43s1.66-.2,2.69-.46c-.1,1.2-1.72,3.44-1.72,3.44a9,9,0,0,0,.45,7.84c1.26,2.08-4,6.4-3.66,7.13a49.75,49.75,0,0,0,8.36-6c1.58-1.66,2.82-5.44,4.71-7.45a23.36,23.36,0,0,1,2.89-2.68c.89.65-2.13,5.74-1.27,6.73A48.81,48.81,0,0,0,266,31.13c.17-.43,1.29-2.19.49-3.8C268.12,25.87,270.44,21.43,270.26,19.36Z"/><path class="cls-8" d="M379.56,23.23c-.69,2.29-3.27,3.57-3.67,3.78s-4.55.35-5.45-2.09c-1.13-3.1,1.17-4.82,2.43-6.61,1.39-2,4.45-2.78,6.8-2.21,2.38.83-1.22,6.95.35,7.5,2,.71,6.3,3.6,5.74,4.82a8.18,8.18,0,0,1-4.12,4.28c-2.49,1.08-3.84.54-5.81-1.32"/><path class="cls-8" d="M371.4,19.3c-1-.63-4-4.41-7-3-1.51.72.26,3-.78,4.55-3.92,6,4.73,11.43,8.49,6.31"/><path class="cls-8" d="M362.8,25.52a4.75,4.75,0,0,0-4.46,4.11c2.8.51,1.92,5.49,6.78,5.48,2.32,0,5.54-2.82,6.73-4.78"/><path class="cls-8" d="M367.22,34.74c-.13,3.24,3.38,8.05,6.3,6.65,3.82-1.83,1.43-4.1,2.2-4.37a4.69,4.69,0,0,0,2.78-3.86"/><path class="cls-8" d="M371,28.64c.4.72,1.59,3.45,1.76,3.55a5.59,5.59,0,0,0,2.12,0,2.32,2.32,0,0,0,1.32-2.84c-.36-1.1-.8-2.19-2-2.21"/><path class="cls-8" d="M374.91,33.43a42.14,42.14,0,0,1-1.67-4.81c1.1.87,3.76,1.3,5.12,1.65"/><path class="cls-6" d="M281.52,119.25c-3.93,3.79-5.85,17.74-2.65,20.84,2.23,2.16,1.75,7.51,2.85,8.57,1.9,1.81,2.53,1.9,3.82,4.19s3,3.45,2.78,6.06a45.33,45.33,0,0,0,10.42.48,1.63,1.63,0,0,0,1.13-.4,1.51,1.51,0,0,0,.28-1,8.25,8.25,0,0,0-.81-3.83c3.86.78,7.23,3.37,11.14,3.83,1.68.2,4.54-2.39,6.21-2.12,4,.64,12.27,3.6,17.13,2.55,1.57-.34.2-11.24-2.54-17.67-1.68-4-4.91-7.61-7-8.76-1.52-.86-17.11-2.87-23.94-1.8a15.28,15.28,0,0,0-2.94-8.63,7.89,7.89,0,0,0-4.7-3.15c-1.07-.23-2.73,1.19-3.75,1.29s-2.35-2.15-3.19-2.63C283.94,116,283.19,117.64,281.52,119.25Z"/><path class="cls-6" d="M291.33,120.81c1.23,0,1.33,1.93,2.3,2.82,1-.55,1.77-3.22,2.65-3.22"/><path class="cls-6" d="M283.09,119.9l-.76,1.74c1,.83,2.09-1,2.43-.67.74.93,1.26,1.56,0,3-.68.78-1.3,1.33-.47,1.94,1.1.82-3.72,5-3.13,5.72.9,1.11,1.45,2.11,2.26,2s2.21.15,2.89-.3c1-.68,1.52-2.53,2.69-2.16"/><path class="cls-6" d="M300.3,130.2c-.6,4.13-1.86,8-5.28,10.78,0,0-1.63,4.68-1.53,6.3.11,1.88,2.38,2.86,5.29,2.12,1.51-.38.89,3.72.67,4.56"/><path class="cls-6" d="M313.59,140.46c-1.26,8.76,13.4,14.11,14.93,14.83.48-1.13-.37-4.14-.92-5.23-2.28-4.53,0-8.85-3.1-12.86"/><path class="cls-6" d="M285.14,145.24c0,2.62,3.38,5.23,4.36,6.13,1.25,1.15,1.15,5.83.94,7.85"/><path class="cls-6" d="M323.23,152.83c-.22.92,1.47,3.77,1.66,4.56"/><path class="cls-8" d="M374.69,123.48c1-.88,1.4-4.47.16-6a5.34,5.34,0,0,0-2.3-1.4c-.83-.31-15.83-1.53-16.32-1.48a21,21,0,0,0-3.76.58,3.18,3.18,0,0,0-.45.77c-.92-.1-3.7-.54-4.69.06a3.54,3.54,0,0,0-1.41,1.59c-3.49-.29-12.66-.55-13.5.1,2.16.15,10.34,2,13.63,1.5a2.11,2.11,0,0,0,.63,1.35c.35.43,4,.94,5.33,1l.22.66c-.14.35,7.12,1.55,7.28,2.48s-.81,2.5-.09,3.14,2,.2,2.19,1.13c.09.5.1,3.44.53,4.44.28.64,1.16,3.12.83,4s-5.35,1.51-5.57,3c-.16,1.05-.11,4.36-.13,5.34,0,1.82,4,2.55,4.63,2.69,1.06.23,11.61-2.94,12-3.39.91-.94-1.39-12.73-3.69-16C366.63,123.82,374.37,123.78,374.69,123.48Z"/><path class="cls-8" d="M352,115.93c1.43.63,1.53,4.8,0,5.58"/><path class="cls-8" d="M361.89,148.33c.17-1.83.29-3.51.29-5.34-1.29.05-4.79-.88-4.79-2.69"/><path class="cls-8" d="M362.18,143s8.25-4.25,10.95-3.39"/><path class="cls-8" d="M345.92,117.58a.85.85,0,0,1,.13,1.6"/><path class="cls-3" d="M262.21,116.26a7.25,7.25,0,0,0-6.58-2.13s2.32,2.81,3.36,3.92c-2.65-.42-18.31-1.39-20.74.4,0,3.79,1.79,6.62,7.14,7.51v0c0,2.64,1.06,4.89,2.57,5.81a57.66,57.66,0,0,1-.69,12.58c-3.36.23-5.86,1.12-5.86,2.18,0,1.24,3.39,2.24,7.58,2.24s7.58-1,7.58-2.24c0-1.07-2.55-2-6-2.19,0-3.19-.28-7.88-.07-12.36,1.73-.72,3-3.15,3-6,0,0,0,0,0-.07,4.54-.83,6.59-3.14,7-6.28,0,0,2,3.13,2.75,3.92C264,121.45,264.29,118.55,262.21,116.26Z"/><path class="cls-3" d="M239.18,119.19c3.86,1.3,7.36,1.38,11.44,1.31s7.24.14,9.69-.86"/><path class="cls-5" d="M418.83,81.66a23.06,23.06,0,0,0-.93,4.06,25.83,25.83,0,0,0,1.59,6.11c.11-1,1-6.41,1-6.41s3.48-8.92,3-12.48A26.48,26.48,0,0,0,422,68.81c-.25-.58.35-3,.74-4.88a5.35,5.35,0,0,0-.8-3.28,10.53,10.53,0,0,0,0-5.09c-1.89,0-4.25,3.69-4.25,3.69l-3.94,0s-1.9-3.36-3.59-3.21c-.6,1.61.77,4.86.77,4.86s-.64,2.42-.78,3.63a3.5,3.5,0,0,0,1.22,3.09,8,8,0,0,1-.07,1.77c-4.63-.5-15.4,2.43-18.33,4-2.31-.7-4.75-7-5.74-8.78a19,19,0,0,0-5.43-5.65c-1.29-.74-3.2-1.53-4.45-.13-1.42,1.58.89,5.41,2.13,5.45,1.08,0,.93-2.28.53-3.08,3.87,1.88,6.58,11.27,9.06,15.2C386,81,391.37,86.85,390.88,88.73c-.21.81-1.16.71-1.38,1.52-.11.41,1.42,8,1.7,9.44.44,2.24,3.53,1.78,4.51,1.36.5-.21-.17-2.22-.57-2.58a3.71,3.71,0,0,0-1.41-.7c-.34-1.22-1.47-4.45,2.39-6.72.57-.34,1.22-.55,1.81-.86a10.9,10.9,0,0,0,3.16-2.42c2,0,4.18-.07,6.28-.28,1.78-.18,3-.06,4.63-.72,1.54,4.31,1.71,4.16,4,7.81a54.69,54.69,0,0,1,2.16,5.41,6.74,6.74,0,0,1,.24.81c.18,1,2.47,1.9,3.47.94s-.24-3.84-.56-4.57a46.71,46.71,0,0,1-1.82-5.35"/><rect class="cls-4" x="243.74" y="67.54" width="20.7" height="20.7" rx="3.57" ry="3.57"/><path class="cls-4" d="M244.73,60.88c0,.83-.13,2.64.22,3.07a6.42,6.42,0,0,0,1.2,1"/><path class="cls-4" d="M249.27,60.88c.07,1.35,0,2.87,1.06,3.87"/><path class="cls-4" d="M263.65,60.88c0,.83.13,2.64-.22,3.07a6.42,6.42,0,0,1-1.2,1"/><path class="cls-4" d="M259.11,60.88c-.07,1.35,0,2.87-1.06,3.87"/><line class="cls-4" x1="254.02" y1="60.91" x2="254.16" y2="64.91"/><path class="cls-4" d="M244.73,94.73c0-.83-.13-2.64.22-3.07a6.42,6.42,0,0,1,1.2-1"/><path class="cls-4" d="M249.27,94.73c.07-1.35,0-2.87,1.06-3.87"/><path class="cls-4" d="M263.65,94.73c0-.83.13-2.64-.22-3.07a6.42,6.42,0,0,0-1.2-1"/><path class="cls-4" d="M259.11,94.73c-.07-1.35,0-2.87-1.06-3.87"/><line class="cls-4" x1="254.02" y1="94.7" x2="254.16" y2="90.7"/><path class="cls-4" d="M236.48,87.27c.83,0,2.64.13,3.07-.22a6.42,6.42,0,0,0,1-1.2"/><path class="cls-4" d="M236.48,82.72c1.35-.07,2.87,0,3.87-1.06"/><path class="cls-4" d="M236.48,68.34c.83,0,2.64-.13,3.07.22a6.42,6.42,0,0,1,1,1.2"/><path class="cls-4" d="M236.48,72.89c1.35.07,2.87,0,3.87,1.06"/><line class="cls-4" x1="236.51" y1="77.98" x2="240.51" y2="77.84"/><path class="cls-4" d="M271.9,87.27c-.83,0-2.64.13-3.07-.22a6.42,6.42,0,0,1-1-1.2"/><path class="cls-4" d="M271.9,82.72c-1.35-.07-2.87,0-3.87-1.06"/><path class="cls-4" d="M271.9,68.34c-.83,0-2.64-.13-3.07.22a6.42,6.42,0,0,0-1,1.2"/><path class="cls-4" d="M271.9,72.89c-1.35.07-2.87,0-3.87,1.06"/><line class="cls-4" x1="271.87" y1="77.98" x2="267.87" y2="77.84"/><path class="cls-4" d="M249.52,75.65s-1.39-1.24-2.31.18c-.5.76-1.28,6.26,1.08,6.26A2.58,2.58,0,0,0,250.07,81"/><path class="cls-4" d="M252.79,81.66l-.41-4c-.1-1-.14-2.15.6-2.82a1.79,1.79,0,0,1,2.5.27,2.1,2.1,0,0,1-.12,2.59,2.54,2.54,0,0,1-2.57.7"/><path class="cls-4" d="M257.89,75.58V80c0,2.12,3.56,2.88,3.56.1,0-1.46,0-2.61-.1-4.56"/><polygon class="cls-5" points="108.52 95.73 105.12 95.73 101.92 91.59 105.62 84.42 111.92 90.34 108.52 95.73"/><polygon class="cls-5" points="106.27 76.97 101.88 75.16 104.6 67.78 110.83 73.49 106.27 76.97"/><polygon class="cls-5" points="121.57 80.11 113.52 84.49 116.13 89.09 122.44 86.58 121.57 80.11"/><polygon class="cls-5" points="95.78 67.43 92.6 66.1 94.72 57.69 99.46 63.81 95.78 67.43"/><polyline class="cls-5" points="101.92 91.59 102.03 100.04 105.12 104.34 108.81 104.34 112.65 99.39 111.92 90.34"/><line class="cls-5" x1="105.12" y1="95.73" x2="105.12" y2="104.34"/><line class="cls-5" x1="108.52" y1="95.73" x2="108.81" y2="104.34"/><line class="cls-5" x1="102.15" y1="92.65" x2="91.12" y2="82.72"/><polyline class="cls-5" points="102.86 89.09 90.83 79.41 86.77 77.74 88.94 85.26 101.57 97.52"/><line class="cls-5" x1="116.13" y1="89.09" x2="112.65" y2="96.15"/><line class="cls-5" x1="113.52" y1="84.49" x2="110.83" y2="88.67"/><polyline class="cls-5" points="111.31 101.13 115.91 100.04 122.44 86.58"/><line class="cls-5" x1="101.88" y1="75.16" x2="104.68" y2="86.25"/><polyline class="cls-5" points="107.86 86.25 106.27 76.97 105.12 71.12"/><line class="cls-5" x1="110.83" y1="73.49" x2="114.39" y2="83.55"/><polyline class="cls-5" points="111.26 73.93 115.37 56.29 118.2 56.29 113.89 82.43"/><polyline class="cls-5" points="115.37 56.29 119.99 52.11 118.2 56.29 122.65 58.48 119.61 80.72"/><line class="cls-5" x1="119.99" y1="52.11" x2="122.65" y2="58.48"/><polygon class="cls-5" points="109.04 51.69 105.36 50.49 102.79 45.35 107.6 37.02 111.68 45.06 109.04 51.69"/><line class="cls-5" x1="111.68" y1="45.06" x2="113.52" y2="63.29"/><line class="cls-5" x1="109.04" y1="51.69" x2="108.52" y2="71.12"/><line class="cls-5" x1="105.36" y1="50.49" x2="104.6" y2="67.78"/><path class="cls-5" d="M99.46,63.81s2.9,7.72,3.39,8.36"/><line class="cls-5" x1="92.6" y1="66.1" x2="94.67" y2="81.97"/><line class="cls-5" x1="102.79" y1="45.35" x2="101.45" y2="68.61"/><line class="cls-5" x1="95.78" y1="67.43" x2="99.46" y2="86.25"/><path class="cls-5" d="M121.57,80.11"/><polygon class="cls-5" points="125.7 67 124.12 62.64 129.54 58.52 130.29 66.81 125.7 67"/><line class="cls-5" x1="130.3" y1="66.81" x2="122.56" y2="82.49"/><line class="cls-5" x1="125.7" y1="67.01" x2="120.59" y2="75.16"/><line class="cls-5" x1="124.12" y1="62.64" x2="121.57" y2="66.6"/><path class="cls-4" d="M213.63,125.15c.77,1.48-.11,1.24,1.61,2.42s2.61,3.69,3.1,5.09,2.07,1.34,3.45,2.56a8.89,8.89,0,0,1-4.05.54c2.35,3.53-.16,8.21-2.56,11.68-2.9,4.18-7.36,3-10.68,1.67a7,7,0,0,0-5.32.29c-4.39,2.83-10.42,9.5-11.9,8.9-1-4,7.42-10.76,7.77-11.47a12,12,0,0,0,.4-1.48c.47-1.41,2-2.13,3.08-3.11,1.71-1.52,2.48-3.82,3.84-5.65,3.16-4.26,5.89-3.64,6.57-5.08C210.29,128.63,212.49,127.35,213.63,125.15Z"/><path class="cls-4" d="M199.39,149.62c1.66-2.09,3.47-4.3,6-5.11,2-.64,4.25-.32,6.27-1,2.4-.76,3-1.94,3.36-4.42.12-.8.49-2.25,0-2.9s-1.74-.94-2.32-1.37c-1.44-1.06-2.44-4.54-1.84-6.22"/><path class="cls-6" d="M129,15.44c.92-.26,1.32-4.3,2.06-4.9.3-.24,5.45-2.7,6.43-2.07,1.47.94,2,11-.68,12.64-1.69,1-5.14,2.93-5.81,1.08-.27-.75-.16-2.92-.81-3.38-2-1.38-2.5,4.66-2.94,5.41-.76,1.28-8.39,2.69-11.65,2.54-1.9-.09-3.68-1.67-3.93-4.31-.45-4.87-.55-8.35,2-8.93a73.67,73.67,0,0,1,11-1.37C127,12.18,126,16.29,129,15.44Z"/><path class="cls-6" d="M130.23,10.87a84.61,84.61,0,0,0-9.75-2.53c-1.76-.29-4.73,3.71-7.06,2.13-2.8-1.89,5.5-4.37,6.87-4.38,2.39,0,10.23,1.77,13.44,2.84"/><path class="cls-6" d="M111.35,18.31c-2.95-.55-16-3.63-18.13-3.22-2.4.47-6.67,2.86-6,4.2,1.93,4,4.71-1.72,6.78-1.95s13.85,3.78,17.69,4.78"/><path class="cls-7" d="M118.93,14.59q-2.3,2.93-4.53,5.92"/><path class="cls-7" d="M123.16,14.46A115.26,115.26,0,0,1,116,24.72"/><path class="cls-7" d="M126.08,17.14c-2.08,3.19-2.91,4.17-5,7.13"/><path class="cls-7" d="M133.69,12c-.35,1-.7,2.14-1.41,4.28"/><path class="cls-7" d="M136.73,12.46c-1,2.69-1.66,4.68-2.92,7.86"/><path class="cls-3" d="M157.46,70.92c0,1.55-.92,4.78-.62,6.69,1.41,1.48,2.76-.13,3.83-.42"/><path class="cls-3" d="M149.53,67.76a21.77,21.77,0,0,1-.27-4.81c1,.84,4.06,2.35,4.06,3,0,1.12-2,1.94-3.17,2.07"/><path class="cls-3" d="M152.92,60.46s-.41-3.63-1-4.65A11.31,11.31,0,0,0,149.8,54"/><path class="cls-3" d="M142.38,49.27"/><path class="cls-3" d="M142.86,52.66c-.28.89.1,4.68.86,5.59a4.06,4.06,0,0,0,1.67,1"/><path class="cls-3" d="M143,52.47c-.06,0-.1.08-.14.19"/><path class="cls-3" d="M145.39,59.27c.45-1.07.29-1.89,1.37-2.3"/><path class="cls-3" d="M141,45.4c-.26,1.56-.28,3.74.64,4.36a2.32,2.32,0,0,0,.39.16"/><path class="cls-3" d="M142.08,49.92c.35.11.83.23,1,.12s1-.74,1-1c0-.71-1.68-4.4-2.76-4.72A8,8,0,0,0,141,45.4"/><path class="cls-3" d="M148.75,51.58a4,4,0,0,0-.84-2.13"/><path class="cls-3" d="M147.9,49.45c-.79-1.07-1.91-1.17-2.4-1.55a42,42,0,0,0,.54,5.24c.11.24,1.38.52,1.75.58a3,3,0,0,0,1-2.14"/><path class="cls-3" d="M146.57,45.92c1.27-2.18-1.78-6.32-2.57-6.81"/><path class="cls-3" d="M141.34,36.15Z"/><path class="cls-3" d="M141.34,36.15a29.44,29.44,0,0,0-1.52,3.66,2.75,2.75,0,0,0,.76,1.8"/><path class="cls-3" d="M150.65,70.63s-.19,2.65.34,3.35c.23.3,3.05,2.53,3.05,2.53"/><path class="cls-3" d="M147.79,53.72c-.36-.06-1.64-.34-1.75-.58"/><path class="cls-3" d="M147.9,49.45c-.44-1.14-.89-2.34-1.33-3.53a5.51,5.51,0,0,1-1.82-.61c-.67-1.21-1.21-5.25-.78-6.22l0,0c-.86-2.14-1.55-3.55-1.91-3.47a1.32,1.32,0,0,0-.75.51,17,17,0,0,0,.74,3.43,6.05,6.05,0,0,1-.38,3,3.1,3.1,0,0,1-1.13-.94A32.92,32.92,0,0,0,141,45.4a8,8,0,0,1,.25-1.08c1.09.32,2.8,4,2.76,4.72,0,.26-.76.85-1,1s-.64,0-1-.12c.26,1,.52,1.89.79,2.74.42-1,3.78,3.26,3.9,4.31-1.08.41-.92,1.23-1.37,2.3,0,0,2.63,6.49,3,7.24.61,1.1,1.33,2.48,2.21,4.12.8.72,3.85,1.77,4,2.35.27.91-.63,3.53-.63,3.53a51.61,51.61,0,0,0,3.82,8.28c.87-1.27,4.61,2.2,4.64,2.3a4.44,4.44,0,0,1,0,2.65,14.53,14.53,0,0,1-1.83.08c2.17,3.83,6.26,10.25,6.62,10.34,1.66.42,3.2-1.18,4.91-1.19-.05-4-4.51-10.83-6.75-14.13a118.57,118.57,0,0,1-8-13.91c-1.73-3.52-3.29-7.31-4.7-10.41-.76.24-1.63-.78-3.22-.59-.55-1.12.26-5.92.26-5.92-.34-.71-.69-1.53-1.06-2.43"/><path class="cls-3" d="M157.86,84.79a9.42,9.42,0,0,0,1,4.6,2.94,2.94,0,0,0,1.79.43"/><path class="cls-2" d="M66.13,16.79c-.27,0-4.24-2.22-7.35-.52-2.94,1.61-5.35,6.07-5.35,6.07"/><line class="cls-2" x1="51.15" y1="22.95" x2="52.15" y2="27.63"/><path class="cls-2" d="M54.85,27.16a10.52,10.52,0,0,0,8.15,5"/><path class="cls-2" d="M65.85,21.26c-.73,3.33,3.87,3.69,4.67,3"/><path class="cls-2" d="M72.26,19.36A15.69,15.69,0,0,0,69.84,19C69,19,65.92,16.61,63.36,14.7A100,100,0,0,0,48.3,6.16c.13,1.75,6,6,4.59,8.93s-1.24,4,.54,7.25a2.43,2.43,0,0,1-2.27.61c-.62-.24-6.45-3-7.52-2.92.6,1.88-.16,4.13,0,6.09s.67,4.48,0,6.93c1.64.52,7-5.08,8.54-5.43s1.66-.2,2.69-.46c-.1,1.2-1.72,3.44-1.72,3.44a9,9,0,0,0,.45,7.84c1.26,2.08-4,6.4-3.66,7.13a49.75,49.75,0,0,0,8.36-6c1.58-1.66,2.82-5.44,4.71-7.45a23.36,23.36,0,0,1,2.89-2.68c.89.65-2.13,5.74-1.27,6.73A48.81,48.81,0,0,0,68,31.13c.17-.43,1.29-2.19.49-3.8C70.12,25.87,72.44,21.43,72.26,19.36Z"/><path class="cls-8" d="M181.56,23.23c-.69,2.29-3.27,3.57-3.67,3.78s-4.55.35-5.45-2.09c-1.13-3.1,1.17-4.82,2.43-6.61,1.39-2,4.45-2.78,6.8-2.21,2.38.83-1.22,6.95.35,7.5,2,.71,6.3,3.6,5.74,4.82a8.18,8.18,0,0,1-4.12,4.28c-2.49,1.08-3.84.54-5.81-1.32"/><path class="cls-8" d="M173.4,19.3c-1-.63-4-4.41-7-3-1.51.72.26,3-.78,4.55-3.92,6,4.73,11.43,8.49,6.31"/><path class="cls-8" d="M164.8,25.52a4.75,4.75,0,0,0-4.46,4.11c2.8.51,1.92,5.49,6.78,5.48,2.32,0,5.54-2.82,6.73-4.78"/><path class="cls-8" d="M169.22,34.74c-.13,3.24,3.38,8.05,6.3,6.65,3.82-1.83,1.43-4.1,2.2-4.37a4.69,4.69,0,0,0,2.78-3.86"/><path class="cls-8" d="M173,28.64c.4.72,1.59,3.45,1.76,3.55a5.59,5.59,0,0,0,2.12,0,2.32,2.32,0,0,0,1.32-2.84c-.36-1.1-.8-2.19-2-2.21"/><path class="cls-8" d="M176.91,33.43a42.14,42.14,0,0,1-1.67-4.81c1.1.87,3.76,1.3,5.12,1.65"/><path class="cls-6" d="M83.52,119.25C79.59,123,77.67,137,80.88,140.09c2.23,2.16,1.75,7.51,2.85,8.57,1.9,1.81,2.53,1.9,3.82,4.19s3,3.45,2.78,6.06a45.33,45.33,0,0,0,10.42.48,1.63,1.63,0,0,0,1.13-.4,1.51,1.51,0,0,0,.28-1,8.25,8.25,0,0,0-.81-3.83c3.86.78,7.23,3.37,11.14,3.83,1.68.2,4.54-2.39,6.21-2.12,4,.64,12.27,3.6,17.13,2.55,1.57-.34.2-11.24-2.54-17.67-1.68-4-4.91-7.61-7-8.76-1.52-.86-17.11-2.87-23.94-1.8a15.28,15.28,0,0,0-2.94-8.63,7.89,7.89,0,0,0-4.7-3.15c-1.07-.23-2.73,1.19-3.75,1.29s-2.35-2.15-3.19-2.63C85.94,116,85.19,117.64,83.52,119.25Z"/><path class="cls-6" d="M93.33,120.81c1.23,0,1.33,1.93,2.3,2.82,1-.55,1.77-3.22,2.65-3.22"/><path class="cls-6" d="M85.09,119.9l-.76,1.74c1,.83,2.09-1,2.43-.67.74.93,1.26,1.56,0,3-.68.78-1.3,1.33-.47,1.94,1.1.82-3.72,5-3.13,5.72.9,1.11,1.45,2.11,2.26,2s2.21.15,2.89-.3c1-.68,1.52-2.53,2.69-2.16"/><path class="cls-6" d="M102.3,130.2c-.6,4.13-1.86,8-5.28,10.78,0,0-1.63,4.68-1.53,6.3.11,1.88,2.38,2.86,5.29,2.12,1.51-.38.89,3.72.67,4.56"/><path class="cls-6" d="M115.59,140.46c-1.26,8.76,13.4,14.11,14.93,14.83.48-1.13-.37-4.14-.92-5.23-2.28-4.53,0-8.85-3.1-12.86"/><path class="cls-6" d="M87.14,145.24c0,2.62,3.38,5.23,4.36,6.13,1.25,1.15,1.15,5.83.94,7.85"/><path class="cls-6" d="M125.23,152.83c-.22.92,1.47,3.77,1.66,4.56"/><path class="cls-8" d="M176.69,123.48c1-.88,1.4-4.47.16-6a5.34,5.34,0,0,0-2.3-1.4c-.83-.31-15.83-1.53-16.32-1.48a21,21,0,0,0-3.76.58,3.18,3.18,0,0,0-.45.77c-.92-.1-3.7-.54-4.69.06a3.54,3.54,0,0,0-1.41,1.59c-3.49-.29-12.66-.55-13.5.1,2.16.15,10.34,2,13.63,1.5a2.11,2.11,0,0,0,.63,1.35c.35.43,4,.94,5.33,1l.22.66c-.14.35,7.12,1.55,7.28,2.48s-.81,2.5-.09,3.14,2,.2,2.19,1.13c.09.5.1,3.44.53,4.44.28.64,1.16,3.12.83,4s-5.35,1.51-5.57,3c-.16,1.05-.11,4.36-.13,5.34,0,1.82,4,2.55,4.63,2.69,1.06.23,11.61-2.94,12-3.39.91-.94-1.39-12.73-3.69-16C168.63,123.82,176.37,123.78,176.69,123.48Z"/><path class="cls-8" d="M154,115.93c1.43.63,1.53,4.8,0,5.58"/><path class="cls-8" d="M163.89,148.33c.17-1.83.29-3.51.29-5.34-1.29.05-4.79-.88-4.79-2.69"/><path class="cls-8" d="M164.18,143s8.25-4.25,10.95-3.39"/><path class="cls-8" d="M147.92,117.58a.85.85,0,0,1,.13,1.6"/><path class="cls-3" d="M64.21,116.26a7.25,7.25,0,0,0-6.58-2.13s2.32,2.81,3.36,3.92c-2.65-.42-18.31-1.39-20.74.4,0,3.79,1.79,6.62,7.14,7.51v0c0,2.64,1.06,4.89,2.57,5.81a57.66,57.66,0,0,1-.69,12.58c-3.36.23-5.86,1.12-5.86,2.18,0,1.24,3.39,2.24,7.58,2.24s7.58-1,7.58-2.24c0-1.07-2.55-2-6-2.19,0-3.19-.28-7.88-.07-12.36,1.73-.72,3-3.15,3-6,0,0,0,0,0-.07,4.54-.83,6.59-3.14,7-6.28,0,0,2,3.13,2.75,3.92C66,121.45,66.29,118.55,64.21,116.26Z"/><path class="cls-3" d="M41.18,119.19c3.86,1.3,7.36,1.38,11.44,1.31s7.24.14,9.69-.86"/><path class="cls-5" d="M199.93,90.2c.58.74.05,1.93.48,2.71,1.13,2.07,5.11,7.89,6.55,8,1.65.08,3.44.38,4.44-.93-.35-.85-1.14-2.11-2.11-2-.66.11-1.14.15-1.14.15s-2.93-3.9-3-4.91,3.17-3.74,4.22-5.75c-2.1.21-4.31.24-6.28.28A10.9,10.9,0,0,1,199.93,90.2Z"/><path class="cls-5" d="M220.83,81.66a23.06,23.06,0,0,0-.93,4.06,25.83,25.83,0,0,0,1.59,6.11c.11-1,1-6.41,1-6.41s3.48-8.92,3-12.48A26.48,26.48,0,0,0,224,68.81c-.25-.58.35-3,.74-4.88a5.35,5.35,0,0,0-.8-3.28,10.53,10.53,0,0,0,0-5.09c-1.89,0-4.25,3.69-4.25,3.69l-3.94,0s-1.9-3.36-3.59-3.21c-.6,1.61.77,4.86.77,4.86s-.64,2.42-.78,3.63a3.5,3.5,0,0,0,1.22,3.09,8,8,0,0,1-.07,1.77c-4.63-.5-15.4,2.43-18.33,4-2.31-.7-4.75-7-5.74-8.78a19,19,0,0,0-5.43-5.65c-1.29-.74-3.2-1.53-4.45-.13-1.42,1.58.89,5.41,2.13,5.45,1.08,0,.93-2.28.53-3.08,3.87,1.88,6.58,11.27,9.06,15.2C188,81,193.37,86.85,192.88,88.73c-.21.81-1.16.71-1.38,1.52-.11.41,1.42,8,1.7,9.44.44,2.24,3.53,1.78,4.51,1.36.5-.21-.17-2.22-.57-2.58a3.71,3.71,0,0,0-1.41-.7c-.34-1.22-1.47-4.45,2.39-6.72.57-.34,1.22-.55,1.81-.86a10.9,10.9,0,0,0,3.16-2.42c2,0,4.18-.07,6.28-.28,1.78-.18,3-.06,4.63-.72,1.54,4.31,1.71,4.16,4,7.81a54.69,54.69,0,0,1,2.16,5.41,6.74,6.74,0,0,1,.24.81c.18,1,2.47,1.9,3.47.94s-.24-3.84-.56-4.57a46.71,46.71,0,0,1-1.82-5.35"/><path class="cls-5" d="M220.15,100a1.66,1.66,0,0,1-1.67-.6,8.62,8.62,0,0,1-.49-4.82A54.69,54.69,0,0,1,220.15,100Z"/><path class="cls-9" d="M214.89,65.18l.54-.57a1.87,1.87,0,0,1,1.41-.79c.56.06.92.58,1.35.94a2.68,2.68,0,0,0,1.08.55"/><polygon class="cls-9" points="216.84 63.12 216.22 62.06 217.45 62.06 216.84 63.12"/><path class="cls-2" d="M218.71,7.56c3.28,1.88,4.83,6.71,4.63,9.2-.24,3-3.24,9.28-6.07,9.72-1.76.27-.67,1.74-2.61,3.13a50.64,50.64,0,0,1-7.06,3.56c-.65.12-2.69,0-3.21-.62-.69-1.79,6.1-8.25,8.25-8.12,1.25.08,4-7.58,3.83-9.19-.17-1.79-2.77-2.82-4.08-2.5-1.92.47-1.91,5.27-3.76,6-1,.39-3-2.08-3.6-3.91-.82-2.72,2.28-6.1,4.08-7.18A10.72,10.72,0,0,1,218.71,7.56Z"/><path class="cls-2" d="M214.27,26.22a5.74,5.74,0,0,0-1.62,2.07,15.16,15.16,0,0,1-3.72,4.2"/><path class="cls-2" d="M209.81,27.5c-1.54,1-2.93,4.47-4.09,5.61"/><path class="cls-2" d="M212.65,24.67c1.62,1.55,2.69,2.2,3.81,2"/><path class="cls-2" d="M215.84,19.2a3.07,3.07,0,0,1,2.43,0,4.27,4.27,0,0,0,2.39.72,11.75,11.75,0,0,0,1.8-.69"/><path class="cls-2" d="M216.69,15.31c.32-.48,1.45-.91,3.12-1.29A3.16,3.16,0,0,0,222,11.72"/><path class="cls-2" d="M215.88,7a2.64,2.64,0,0,1-.46,2.6,7.18,7.18,0,0,0-1.81,2.89"/><path class="cls-2" d="M207.43,9.47c.4,1,.85,2.21,1.87,2.62s1.72.74,1.88,1.07"/><rect class="cls-4" x="45.74" y="67.54" width="20.7" height="20.7" rx="3.57" ry="3.57"/><path class="cls-4" d="M46.73,60.88c0,.83-.13,2.64.22,3.07a6.42,6.42,0,0,0,1.2,1"/><path class="cls-4" d="M51.27,60.88c.07,1.35,0,2.87,1.06,3.87"/><path class="cls-4" d="M65.65,60.88c0,.83.13,2.64-.22,3.07a6.42,6.42,0,0,1-1.2,1"/><path class="cls-4" d="M61.11,60.88c-.07,1.35,0,2.87-1.06,3.87"/><line class="cls-4" x1="56.02" y1="60.91" x2="56.16" y2="64.91"/><path class="cls-4" d="M46.73,94.73c0-.83-.13-2.64.22-3.07a6.42,6.42,0,0,1,1.2-1"/><path class="cls-4" d="M51.27,94.73c.07-1.35,0-2.87,1.06-3.87"/><path class="cls-4" d="M65.65,94.73c0-.83.13-2.64-.22-3.07a6.42,6.42,0,0,0-1.2-1"/><path class="cls-4" d="M61.11,94.73c-.07-1.35,0-2.87-1.06-3.87"/><line class="cls-4" x1="56.02" y1="94.7" x2="56.16" y2="90.7"/><path class="cls-4" d="M38.48,87.27c.83,0,2.64.13,3.07-.22a6.42,6.42,0,0,0,1-1.2"/><path class="cls-4" d="M38.48,82.72c1.35-.07,2.87,0,3.87-1.06"/><path class="cls-4" d="M38.48,68.34c.83,0,2.64-.13,3.07.22a6.42,6.42,0,0,1,1,1.2"/><path class="cls-4" d="M38.48,72.89c1.35.07,2.87,0,3.87,1.06"/><line class="cls-4" x1="38.51" y1="77.98" x2="42.51" y2="77.84"/><path class="cls-4" d="M73.9,87.27c-.83,0-2.64.13-3.07-.22a6.42,6.42,0,0,1-1-1.2"/><path class="cls-4" d="M73.9,82.72c-1.35-.07-2.87,0-3.87-1.06"/><path class="cls-4" d="M73.9,68.34c-.83,0-2.64-.13-3.07.22a6.42,6.42,0,0,0-1,1.2"/><path class="cls-4" d="M73.9,72.89c-1.35.07-2.87,0-3.87,1.06"/><line class="cls-4" x1="73.87" y1="77.98" x2="69.87" y2="77.84"/><path class="cls-4" d="M51.52,75.65s-1.39-1.24-2.31.18c-.5.76-1.28,6.26,1.08,6.26A2.58,2.58,0,0,0,52.07,81"/><path class="cls-4" d="M54.79,81.66l-.41-4c-.1-1-.14-2.15.6-2.82a1.79,1.79,0,0,1,2.5.27,2.1,2.1,0,0,1-.12,2.59,2.54,2.54,0,0,1-2.57.7"/><path class="cls-4" d="M59.89,75.58V80c0,2.12,3.56,2.88,3.56.1,0-1.46,0-2.61-.1-4.56"/><path class="cls-4" d="M15.63,125.15c.77,1.48-.11,1.24,1.61,2.42s2.61,3.69,3.1,5.09,2.07,1.34,3.45,2.56a8.89,8.89,0,0,1-4.05.54c2.35,3.53-.16,8.21-2.56,11.68-2.9,4.18-7.36,3-10.68,1.67a7,7,0,0,0-5.32.29c-4.39,2.83-10.42,9.5-11.9,8.9-1-4,7.42-10.76,7.77-11.47a12,12,0,0,0,.4-1.48c.47-1.41,2-2.13,3.08-3.11,1.71-1.52,2.48-3.82,3.84-5.65,3.16-4.26,5.89-3.64,6.57-5.08C12.29,128.63,14.49,127.35,15.63,125.15Z"/><path class="cls-4" d="M1.39,149.62c1.66-2.09,3.47-4.3,6-5.11,2-.64,4.25-.32,6.27-1,2.4-.76,3-1.94,3.36-4.42.12-.8.49-2.25,0-2.9s-1.74-.94-2.32-1.37c-1.44-1.06-2.44-4.54-1.84-6.22"/><path class="cls-5" d="M1.93,90.2c.58.74.05,1.93.48,2.71,1.13,2.07,5.11,7.89,6.55,8,1.65.08,3.44.38,4.44-.93-.35-.85-1.14-2.11-2.11-2-.66.11-1.14.15-1.14.15s-2.93-3.9-3-4.91,3.17-3.74,4.22-5.75c-2.1.21-4.31.24-6.28.28A10.9,10.9,0,0,1,1.93,90.2Z"/><path class="cls-5" d="M22.83,81.66a23.06,23.06,0,0,0-.93,4.06,25.83,25.83,0,0,0,1.59,6.11c.11-1,1-6.41,1-6.41s3.48-8.92,3-12.48A26.48,26.48,0,0,0,26,68.81c-.25-.58.35-3,.74-4.88a5.35,5.35,0,0,0-.8-3.28,10.53,10.53,0,0,0,0-5.09c-1.89,0-4.25,3.69-4.25,3.69l-3.94,0s-1.9-3.36-3.59-3.21c-.6,1.61.77,4.86.77,4.86s-.64,2.42-.78,3.63a3.5,3.5,0,0,0,1.22,3.09,8,8,0,0,1-.07,1.77c-4.63-.5-15.4,2.43-18.33,4-2.31-.7-4.75-7-5.74-8.78a19,19,0,0,0-5.43-5.65c-1.29-.74-3.2-1.53-4.45-.13-1.42,1.58.89,5.41,2.13,5.45,1.08,0,.93-2.28.53-3.08,3.87,1.88,6.58,11.27,9.06,15.2C-10,81-4.63,86.85-5.12,88.73c-.21.81-1.16.71-1.38,1.52-.11.41,1.42,8,1.7,9.44.44,2.24,3.53,1.78,4.51,1.36.5-.21-.17-2.22-.57-2.58a3.71,3.71,0,0,0-1.41-.7c-.34-1.22-1.47-4.45,2.39-6.72.57-.34,1.22-.55,1.81-.86a10.9,10.9,0,0,0,3.16-2.42c2,0,4.18-.07,6.28-.28,1.78-.18,3-.06,4.63-.72,1.54,4.31,1.71,4.16,4,7.81A54.69,54.69,0,0,1,22.15,100a6.74,6.74,0,0,1,.24.81c.18,1,2.47,1.9,3.47.94s-.24-3.84-.56-4.57a46.71,46.71,0,0,1-1.82-5.35"/><path class="cls-5" d="M22.15,100a1.66,1.66,0,0,1-1.67-.6A8.62,8.62,0,0,1,20,94.59,54.69,54.69,0,0,1,22.15,100Z"/><path class="cls-9" d="M16.89,65.18l.54-.57a1.87,1.87,0,0,1,1.41-.79c.56.06.92.58,1.35.94a2.68,2.68,0,0,0,1.08.55"/><polygon class="cls-9" points="18.84 63.12 18.22 62.06 19.45 62.06 18.84 63.12"/><path class="cls-2" d="M20.71,7.56c3.28,1.88,4.83,6.71,4.63,9.2-.24,3-3.24,9.28-6.07,9.72-1.76.27-.67,1.74-2.61,3.13a50.64,50.64,0,0,1-7.06,3.56c-.65.12-2.69,0-3.21-.62-.69-1.79,6.1-8.25,8.25-8.12,1.25.08,4-7.58,3.83-9.19-.17-1.79-2.77-2.82-4.08-2.5-1.92.47-1.91,5.27-3.76,6-1,.39-3-2.08-3.6-3.91-.82-2.72,2.28-6.1,4.08-7.18A10.72,10.72,0,0,1,20.71,7.56Z"/><path class="cls-2" d="M16.27,26.22a5.74,5.74,0,0,0-1.62,2.07,15.16,15.16,0,0,1-3.72,4.2"/><path class="cls-2" d="M11.81,27.5c-1.54,1-2.93,4.47-4.09,5.61"/><path class="cls-2" d="M14.65,24.67c1.62,1.55,2.69,2.2,3.81,2"/><path class="cls-2" d="M17.84,19.2a3.07,3.07,0,0,1,2.43,0,4.27,4.27,0,0,0,2.39.72,11.75,11.75,0,0,0,1.8-.69"/><path class="cls-2" d="M18.69,15.31c.32-.48,1.45-.91,3.12-1.29A3.16,3.16,0,0,0,24,11.72"/><path class="cls-2" d="M17.88,7a2.64,2.64,0,0,1-.46,2.6,7.18,7.18,0,0,0-1.81,2.89"/><path class="cls-2" d="M9.43,9.47c.4,1,.85,2.21,1.87,2.62s1.72.74,1.88,1.07"/></pattern></defs><title>invitation_back_short</title><g id="Layer_5" data-name="Layer 5"><rect class="cls-10" width="288" height="432"/><rect class="cls-11" width="288" height="432"/></g></svg>