<svg id="Layer_1" data-name="Layer 1" xmlns="http://www.w3.org/2000/svg" viewBox="0 0 600 600"><defs><style>.cls-1{fill:#ebebff;}.cls-2{fill:#030389;}.cls-3{fill:#f1f4f2;}.cls-4{fill:#fff;}.cls-5{fill:#a2a2f4;}.cls-6{fill:#3939e5;}.cls-7{fill:#3535c9;}</style></defs><title>bug_bath_preview</title><path class="cls-1" d="M154.71,341V87.9L92.65,51l2.44,369s-3.26,49.93-.84,81.38c1.75,22.74,396,26.5,397.15,5.25,1.75-33.24-.62-77.85-.62-77.85L507,47.44,458.25,87.9l-5.42,256.59"/><path class="cls-2" d="M323.1,521.6c-49.91,0-101.28-1.45-142.06-4.08-57.63-3.72-87.12-9.1-87.65-16-2.39-31.15.81-81,.84-81.5L91.79,51a.86.86,0,0,1,1.29-.74l62.06,36.86a.85.85,0,0,1,.42.74V341a.86.86,0,1,1-1.71,0V88.39L93.51,52.55l2.43,367.51c0,.56-3.23,50.29-.84,81.32.16,2.09,6.84,9.31,86.06,14.42,48.89,3.16,113.06,4.62,171.61,3.9,101.25-1.23,137.49-7.8,137.77-13.06,1.73-32.81-.6-77.32-.62-77.76L506.09,49.33l-47,39-5.41,256.2a.86.86,0,0,1-.86.84h0a.86.86,0,0,1-.84-.88l5.42-256.59a.86.86,0,0,1,.31-.64l48.78-40.46a.86.86,0,0,1,1.4.7l-16.26,381.4c0,.36,2.35,45,.62,77.86-.62,11.73-97.73,14.18-139.46,14.68C343,521.54,333.08,521.6,323.1,521.6Z"/><path class="cls-1" d="M95.08,421.29c-1.15-16.58,59.62-79,59.62-79l298.12,3.47s37.16,67.73,37.94,84.35C491.39,443.18,96,434.43,95.08,421.29Z"/><path class="cls-2" d="M380,437.39c-40.7,0-88.55-.79-135.32-2.36-42.3-1.42-78.55-3.28-104.81-5.4-45.33-3.65-45.54-6.78-45.65-8.29h0c-1.16-16.77,57.37-77.14,59.87-79.7a.7.7,0,0,1,.62-.26l298.12,3.47a.86.86,0,0,1,.74.45c1.52,2.77,37.26,68.1,38,84.72.07,1.39.19,4-29.59,5.7C442.84,436.84,413.9,437.39,380,437.39ZM95.94,421.2c1.88,4,57.48,9.72,175.24,12.92s216,1.37,218.75-4.09c-.74-15.46-34.42-77.6-37.61-83.46L155.07,343.1C150.78,347.53,94.94,405.68,95.94,421.2Zm0,0h0Z"/><path class="cls-2" d="M458.25,88.76H154.71a.86.86,0,1,1,0-1.71H458.25a.86.86,0,1,1,0,1.71Z"/><path class="cls-2" d="M322.67,416.91c-9.71,0-18.89-.14-27.06-.35-68-1.71-139.54-6.09-154.29-25.59A13.25,13.25,0,0,1,139,379.2c7.35-28.75,75.93-29.38,158.07-27.31,92.76,2.33,154.91,8.94,156.69,33.59a13.63,13.63,0,0,1-4.17,10.64C433.11,413.34,371.22,416.91,322.67,416.91ZM253.37,353c-67.73,0-107.45,5.88-112.76,26.65a11.46,11.46,0,0,0,2.08,10.32c14.4,19,89.31,23.31,153,24.91,84.17,2.12,138.37-5,152.64-19.92a12,12,0,0,0,3.7-9.33h0c-1.78-24.74-75.56-30-155-32Q273.57,353,253.37,353Z"/><path class="cls-2" d="M329.87,495c-106.39,0-228.57-9.65-237.24-25.4a.86.86,0,1,1,1.5-.83c5.21,9.46,62.18,18.24,145.14,22.36,82.15,4.08,165.14,2.57,211.44-3.86,31.86-4.42,39.65-10.07,40.56-14a.86.86,0,1,1,1.67.39c-1.53,6.61-15.27,11.63-42,15.34C421.25,493.1,377.11,495,329.87,495Z"/><path class="cls-3" d="M139.73,278.82c0,15.7-4.7,28.43-10.5,28.43s-8.75-12.73-8.75-28.43,4.7-28.43,10.5-28.43S139.73,263.12,139.73,278.82Z"/><path class="cls-2" d="M129.24,308.1c-7.08,0-9.61-15.13-9.61-29.29,0-16.42,5-29.29,11.35-29.29,7.08,0,9.61,15.13,9.61,29.29C140.59,295.24,135.6,308.1,129.24,308.1ZM131,251.24c-4.66,0-9.64,11.08-9.64,27.57s3.17,27.57,7.89,27.57,9.64-11.08,9.64-27.57S135.71,251.24,131,251.24Z"/><path class="cls-2" d="M129.24,292.36a.86.86,0,0,1-.71-.38c-4.86-7.29-3.3-21.23-.13-27.24,1.11-2.11,2.37-3.19,3.74-3.2h0c1.23,0,2.34.87,3.3,2.58a.86.86,0,0,1-1.5.84c-.62-1.1-1.26-1.7-1.81-1.7h0c-.66,0-1.49.86-2.25,2.29-3,5.72-4.32,18.94,0,25.49a.86.86,0,0,1-.71,1.33Z"/><path class="cls-3" d="M138,287.47c3.86,0,7-4.43,7-9.89s-3.13-9.89-7-9.89c0,0-8.78-.4-10.5,2.47s-1.89,12.25,0,14.83S138,287.47,138,287.47Z"/><path class="cls-2" d="M137.61,288.33c-1.89,0-8.88-.18-10.82-2.83-2.15-2.94-1.87-12.73,0-15.78,1.93-3.21,10.32-2.93,11.27-2.89h0c4.29,0,7.82,4.82,7.82,10.74s-3.52,10.74-7.85,10.75Zm-.83-19.81c-3.24,0-7.62.52-8.56,2.08-1.59,2.65-1.61,11.73,0,13.89,1.2,1.64,6.65,2.17,9.79,2.12h0c3.39,0,6.14-4.05,6.14-9s-2.75-9-6.14-9Z"/><path class="cls-4" d="M459.9,165.53c1.75-1.75,0-19.24,0-19.24-2.27-2.43-11.57,3.22-10.5,7C450,155.22,458.15,167.28,459.9,165.53Z"/><path class="cls-2" d="M459.46,166.56a1.9,1.9,0,0,1-.48-.06c-3.07-.8-9.88-11.1-10.41-13-.73-2.59,2-5.49,5.08-7.22,2.35-1.33,5.39-2.18,6.87-.6a.85.85,0,0,1,.23.5c.54,5.38,1.59,18.1-.25,19.94h0A1.45,1.45,0,0,1,459.46,166.56Zm.44-1h0Zm0,0h0Zm-1.66-19a8.22,8.22,0,0,0-3.74,1.24c-2.79,1.57-4.66,3.88-4.27,5.26.59,2.07,7.28,11.33,9.13,11.78.79-1.46.49-10.32-.27-18.1A1.8,1.8,0,0,0,458.24,146.56Z"/><path class="cls-5" d="M469.43,138.87c8,2.17,5,124.26,1.22,127.49-14.25,2.4-11.8-21-11.52-24.95.61-8.74,4.69-86.77,4.31-103.14"/><path class="cls-2" d="M468.69,267.38a8.53,8.53,0,0,1-6-2.22c-5.88-5.37-4.84-18.78-4.5-23.19l0-.63c.55-7.88,4.7-86.46,4.3-103.06a.86.86,0,0,1,.84-.88.85.85,0,0,1,.88.84c.39,16.64-3.76,95.33-4.31,103.22l0,.64c-.87,11.27.46,18.6,3.95,21.79a7.27,7.27,0,0,0,6.3,1.66c2.9-5.81,6.06-106.71,0-124.1-.56-1.61-1-1.77-1-1.77a.86.86,0,1,1,.45-1.65c1.21.33,2.08,2,2.83,5.29,2.64,11.77,3.12,43.38,2.69,69,0,2.12-.91,52-4,54.64a.87.87,0,0,1-.42.19A12.77,12.77,0,0,1,468.69,267.38Zm2-1h0Z"/><path class="cls-3" d="M468.65,144.54c1.75-5.25,4.36-3.08,5.25-3.5,4.07-1.91,3.5-7,7-7,1.75,0,1.78,25.85.52,25.94-4,.3-4.39-8.26-7.52-6.7-3.5,1.75-3.93-1.6-6.11-1.48-4.9.28-10.69,4.2-14,4.58-3.92.45-7.95-3.52-3.14-5.45C452.34,150.27,468.65,144.54,468.65,144.54Z"/><path class="cls-2" d="M481.2,160.85c-2.42,0-3.67-2.42-4.68-4.38-1.17-2.25-1.6-2.74-2.24-2.42a3.94,3.94,0,0,1-5-.64c-.6-.49-.94-.77-1.45-.74-2.64.15-5.66,1.47-8.32,2.63a22.31,22.31,0,0,1-5.6,1.94c-2.73.31-5.69-1.28-6.21-3.34-.19-.73-.3-2.57,2.65-3.76,1.53-.61,15.07-5.38,17.61-6.27,1.36-3.72,3.28-4,5.15-3.68a3,3,0,0,0,.49.06c1.63-.78,2.41-2.24,3.17-3.66.88-1.67,1.8-3.39,4.12-3.39.84,0,1.79,0,2.15,9.71.3,8.11.28,17.8-1.57,17.94Zm-6.54-8.63c1.59,0,2.57,1.89,3.38,3.46,1,1.86,1.75,3.22,2.89,3.42.85-3.24.56-21.48-.39-24.18-1,.16-1.47,1-2.24,2.45a8.94,8.94,0,0,1-4,4.44,2.35,2.35,0,0,1-1.4.06c-1.08-.17-2.3-.36-3.39,2.93a.86.86,0,0,1-.53.54c-.16.06-16.31,5.73-17.93,6.38-.7.28-1.85.88-1.63,1.74.28,1.12,2.35,2.28,4.35,2.06a22,22,0,0,0,5.11-1.81c2.79-1.22,6-2.6,8.91-2.77a3.68,3.68,0,0,1,2.64,1.13c.91.75,1.5,1.25,3.13.43A2.56,2.56,0,0,1,474.66,152.22Zm-6-7.68h0Z"/><path class="cls-5" d="M463.4,144.54c-1.63,17.9,2.92,109.23-3.22,126.28-4.72,1.85-19.14-6.22-21.27-10.82s7-105.82,7-108.47c0-5.25,12.25-19.24,23.53-12.67"/><path class="cls-2" d="M458.56,271.93c-6.21,0-18.33-7-20.43-11.56-1.53-3.3,1.85-47.14,5.74-94,.68-8.26,1.18-14.23,1.18-14.8,0-3.36,4.32-9.6,10.11-12.92,3.57-2.05,9-3.8,14.71-.49a.86.86,0,0,1-.86,1.48c-5-2.9-9.81-1.34-13,.49-5.65,3.24-9.25,8.94-9.25,11.44,0,.61-.38,5.28-1.18,14.94-2,24.51-7.43,89.64-5.89,93.17,1.9,4.08,15.19,11.61,19.83,10.49,3.79-11.52,3.28-52.82,2.87-86.08-.22-17.86-.41-33.28.16-39.59a.88.88,0,0,1,.93-.78.86.86,0,0,1,.78.93c-.57,6.23-.38,21.61-.16,39.41.42,33.8.93,75.86-3.11,87.08a.86.86,0,0,1-.5.51A5.31,5.31,0,0,1,458.56,271.93Z"/><path class="cls-3" d="M132.73,23.82c-7,7-5.25,22.74,5.25,26.24,3.5-1.75,8-10.25,14-12.25,5.25-1.75,12.79-2.91,17.5,0,4.21,2.6,12.25,12.25,17.5,17.5,1.75,8.75,1.93,17.92,5.25,19.24,8.75,3.5,22.74-8.75,21-15.75-.95-3.8-12.25-7-19.24-8.75-5.25-3.5-13.17-11.42-19.24-17.5-7-7-22.34-1.24-26.24-1.75S138,23.82,132.73,23.82Z"/><path class="cls-2" d="M195.57,76a9.78,9.78,0,0,1-3.67-.68c-2.86-1.14-3.63-6.28-4.59-12.78-.33-2.23-.68-4.54-1.13-6.84-1.66-1.67-3.55-3.72-5.55-5.89-4.15-4.5-8.85-9.6-11.6-11.3-4.27-2.64-11.46-1.69-16.77.08-3.33,1.11-6.25,4.46-8.83,7.42-1.87,2.14-3.48,4-5.05,4.78a.83.83,0,0,1-.65,0c-4.73-1.58-8.19-5.66-9.5-11.19-1.46-6.17.08-12.63,3.92-16.47a.86.86,0,0,1,.61-.25c3.2,0,6.71,2.16,9.81,4.06,2.29,1.41,4.46,2.74,6,2.95a24.35,24.35,0,0,0,5.16-.6c6.45-1.11,16.2-2.79,21.58,2.59,5.84,5.83,13.81,13.81,19,17.31C207,52.44,213.25,55.41,214,58.6c1,4.07-2.43,8.85-6,12C204.87,73.35,200.08,76,195.57,76ZM162.08,35.19a14.89,14.89,0,0,1,7.84,1.9c3,1.83,7.54,6.79,12,11.59,2.06,2.24,4,4.35,5.69,6a.85.85,0,0,1,.23.44c.49,2.43.85,4.84,1.19,7.18.82,5.48,1.59,10.66,3.53,11.44,4.68,1.88,10.68-1.24,14.39-4.49,3.94-3.44,6.13-7.56,5.45-10.26-.34-1.38-3.22-4.27-18.62-8.12a.85.85,0,0,1-.27-.12c-5.32-3.55-13.11-11.34-19.38-17.6-4.76-4.76-14-3.17-20.08-2.12a23.37,23.37,0,0,1-5.67.61c-1.94-.26-4.26-1.68-6.71-3.18-2.78-1.71-5.93-3.63-8.57-3.8-3.19,3.41-4.48,9.22-3.21,14.6,1.13,4.81,4,8.37,8,9.84a23.85,23.85,0,0,0,4.23-4.2c2.72-3.12,5.81-6.66,9.58-7.92A35,35,0,0,1,162.08,35.19Z"/><path class="cls-2" d="M199.07,62.44c-4.76,3.73-8.19,9.22-6.33,11.6s9.41-.53,14.18-4.26,7.11-8.68,5.24-11.06S203.83,58.71,199.07,62.44Z"/><rect class="cls-6" x="290.75" y="118.64" width="23.08" height="23.08" transform="translate(-3.51 251.88) rotate(-45)"/><path class="cls-2" d="M302.29,147.71l-17.53-17.53,17.53-17.53,17.53,17.53Zm-15.11-17.53,15.11,15.11,15.11-15.11-15.11-15.11Z"/><rect class="cls-6" x="371.52" y="118.29" width="23.08" height="23.08" transform="translate(20.39 308.89) rotate(-45)"/><path class="cls-2" d="M383.06,147.36l-17.53-17.53,17.53-17.53,17.53,17.53ZM368,129.83l15.11,15.11,15.11-15.11-15.11-15.11Z"/><rect class="cls-6" x="208.56" y="117.97" width="23.08" height="23.08" transform="translate(-27.11 193.56) rotate(-45)"/><path class="cls-2" d="M220.1,147l-17.53-17.53L220.1,112l17.53,17.53ZM205,129.51l15.11,15.11,15.11-15.11L220.1,114.4Z"/><path class="cls-3" d="M433.08,299c1.42-4.78,19.89-8,24.15-1.59,1.91,2.85,2.84,33.45,0,41.41-.75,2.09-5.68,6.37-5.68,6.37v9.56S448.7,358,445.86,358c-4.26,0-8.71-3.5-8.71-3.5l.51-7.34s-5.72-6.62-6-8.28C430.24,330.91,431.46,304.5,433.08,299Z"/><path class="cls-2" d="M445.86,358.84c-4.5,0-9-3.53-9.24-3.68a.86.86,0,0,1-.32-.73l.49-7c-1.59-1.85-5.68-6.75-6-8.42-1.43-8-.23-34.6,1.44-40.22.88-3,6.23-4.77,10.54-5.43,5.59-.85,12.5-.35,15.14,3.6,2.22,3.32,2.82,34.55.09,42.18-.71,2-4.47,5.44-5.63,6.47v9.17a.85.85,0,0,1-.22.57C452.06,355.51,449.05,358.84,445.86,358.84ZM438,354.07c1.1.78,4.57,3.05,7.82,3.05,1.84,0,3.93-1.75,4.83-2.67v-9.22a.85.85,0,0,1,.3-.65c1.84-1.6,4.95-4.64,5.44-6,3-8.35,1.6-38.4.09-40.65-2.05-3.08-8.24-3.65-13.46-2.86-4.71.71-8.65,2.53-9.15,4.22h0c-1.57,5.3-2.77,31.74-1.4,39.43.16.88,3.14,4.77,5.82,7.87a.87.87,0,0,1,.21.62Zm-5-55h0Z"/><path class="cls-5" d="M445.9,359.73c1.27,5.09,12.25,10.5,19.24,5.25s3.5-24.49,3.5-36.74c0-7-7-10.5-7-10.5V309H452.9v8.75s-7,3.5-7,10.5S444.15,352.73,445.9,359.73Z"/><path class="cls-2" d="M458.39,368a15.91,15.91,0,0,1-5.33-1c-4.08-1.45-7.29-4.3-8-7.09h0c-1.27-5.08-.75-15.29-.34-23.48.17-3.33.31-6.2.31-8.21,0-6.43,5.34-10,7-11V309a.86.86,0,0,1,.86-.86h8.75a.86.86,0,0,1,.86.86v8.24c1.66,1,7,4.58,7,11,0,2.93.2,6.25.41,9.76.7,11.51,1.42,23.41-4.26,27.67A12,12,0,0,1,458.39,368Zm-4.63-58.14v7.89a.86.86,0,0,1-.47.77c-.07,0-6.53,3.36-6.53,9.73,0,2.06-.15,5-.32,8.3-.41,8.08-.92,18.14.29,23h0c.56,2.22,3.39,4.65,6.9,5.89,4.1,1.46,8.11,1,11-1.12,4.94-3.7,4.21-15.65,3.57-26.19-.21-3.54-.42-6.87-.42-9.86,0-6.37-6.46-9.7-6.53-9.73a.86.86,0,0,1-.47-.77v-7.89Z"/><path class="cls-3" d="M120.49,492.7s27,6.51,35,10.5c3.5,1.75,3.5,7,3.5,7s14,7,15.45,8.75c1.23,1.48-1.28,7-3.21,7-3.5,0-16.45-3.5-16.45-3.5a10.74,10.74,0,0,1-8,3.5c-7.86,0-32.16-9.74-32.16-9.74Z"/><path class="cls-2" d="M171.22,526.8c-3.21,0-13.7-2.74-16.17-3.39a11.7,11.7,0,0,1-8.33,3.39c-7.93,0-31.48-9.4-32.48-9.8a.86.86,0,0,1-.51-1l5.92-23.5a.86.86,0,0,1,1-.62c1.11.27,27.2,6.58,35.17,10.56,3.26,1.63,3.84,5.74,3.95,7.22,3.14,1.58,13.86,7,15.28,8.74,1,1.15.45,3.36-.34,5.05C174.38,524.23,173,526.8,171.22,526.8Zm-16.44-5.21a.85.85,0,0,1,.22,0c.13,0,12.88,3.47,16.22,3.47.36,0,1.25-.82,2-2.36s.83-2.93.58-3.23c-1-1.17-9.83-5.86-15.18-8.53a.86.86,0,0,1-.47-.76s0-4.74-3-6.23c-7-3.51-29.4-9.1-34-10.23l-5.53,21.95c4,1.58,24.28,9.4,31.15,9.4a9.8,9.8,0,0,0,7.38-3.18A.86.86,0,0,1,154.78,521.58Z"/><path class="cls-2" d="M152.45,520.69a.86.86,0,0,1-.85-.76c-.38-3.24.25-7.5,3.18-9.72a.86.86,0,1,1,1,1.37c-2.35,1.78-2.84,5.38-2.51,8.15a.85.85,0,0,1-.75,1Z"/><path class="cls-2" d="M141.73,525.2a.86.86,0,0,1-.76-.46c-2-3.9-1.73-10,.78-15.66,2.05-4.58,5.07-7.67,8.27-8.47a.86.86,0,0,1,.42,1.66c-2.64.66-5.3,3.47-7.12,7.5-2.28,5.08-2.61,10.77-.83,14.16a.86.86,0,0,1-.76,1.26Z"/><path class="cls-2" d="M169.63,525.58c.51.42,3.41,0,4.49-1.92s1.52-4.14,1.13-4.37C170.35,516.32,166.85,523.32,169.63,525.58Z"/><path class="cls-2" d="M165.41,523.56h0a.85.85,0,0,1-.81-.9v-.21c.13-2.42.22-4,2.91-5.79a.86.86,0,1,1,.94,1.43c-2,1.3-2,2.16-2.14,4.45v.21A.86.86,0,0,1,165.41,523.56Z"/><path class="cls-3" d="M107.37,527.69c-1.75-7-2.62-38.49-.87-52.49.65-5.21,7-8.75,7-8.75V442c0-2.19,8.75-2.19,8.75,0v24.49a10.59,10.59,0,0,1,7.35,8.75c1.52,12.18,2.62,42,0,52.49C128.47,532.14,108.48,532.14,107.37,527.69Z"/><path class="cls-2" d="M118.48,531.89c-1.83,0-11-.19-11.94-4h0c-1.81-7.24-2.62-39-.89-52.8.6-4.8,5.47-8.18,7-9.13V442c0-1.84,2.7-2.5,5.23-2.5s5.23.66,5.23,2.5v23.88a11.28,11.28,0,0,1,7.34,9.26c1.51,12.07,2.68,42,0,52.8C129.47,531.7,120.3,531.89,118.48,531.89Zm-10.28-4.41c.33,1.32,4.27,2.69,10.28,2.69s9.95-1.37,10.28-2.69c2.55-10.19,1.51-39.94,0-52.17a9.77,9.77,0,0,0-6.72-8,.86.86,0,0,1-.63-.83V442c-.1-.22-1.27-.78-3.52-.78s-3.42.57-3.52.8v24.47a.86.86,0,0,1-.44.75c-.06,0-6,3.4-6.56,8.11-1.71,13.71-.93,45,.86,52.17Z"/><path class="cls-2" d="M115.91,487.2c-4.53,0-8.76-.4-10.3-1.6a.86.86,0,0,1,1.06-1.35c2.74,2.15,20,1.11,22.81.14A.86.86,0,0,1,130,486C128.7,486.47,122,487.2,115.91,487.2Z"/><path class="cls-2" d="M126.39,481a.86.86,0,0,1-.85-.77c-.65-6.56-.95-7.53-4.68-9.63a.86.86,0,1,1,.84-1.49c4.54,2.56,4.9,4.38,5.55,11a.86.86,0,0,1-.77.94Z"/><path class="cls-2" d="M130.77,510.51H105.84c.32,7.52.88,13.81,1.57,16.49,1.14,4.42,21.68,4.42,22.82,0,.2-.78.38-1.67.54-2.65Z"/><path class="cls-2" d="M118.56,512.35c-5.48,0-10.95-.46-12.81-1.39a.86.86,0,1,1,.77-1.53c3.26,1.63,20.81,1.63,24.08,0a.86.86,0,1,1,.77,1.53C129.51,511.89,124,512.35,118.56,512.35Z"/><path class="cls-3" d="M168.15,320.25c-.43-4.25-2.18-7.75-4.58-7.44-.19,2,1.53,5-.7,6.09-9.43-1.79-18.78-3.23-28-2.18s-12.34,12.08-9.11,18.53c3.5,7,34.79-4.51,35-3.5,1.75,8.75,12.25,3.5,12.47,2.46C173.66,332,176.47,323,168.15,320.25Z"/><path class="cls-2" d="M132.09,338.36c-3.55,0-6.14-.77-7.12-2.73a15.12,15.12,0,0,1,.55-13.36,11.87,11.87,0,0,1,9.23-6.4c9.56-1.09,19.42.52,28,2.13.6-.44.52-1.25.23-2.83a9.16,9.16,0,0,1-.23-2.43.86.86,0,0,1,.74-.77,3.25,3.25,0,0,1,2.49.75c1.48,1.18,2.59,3.74,3,6.92,7.87,3,5.88,11.4,5.22,14.21l-.13.55c-.27,1.28-4.45,3.24-7.65,3.19a6.2,6.2,0,0,1-6.33-5c-.94.19-2.9.72-4.8,1.25C146.9,336.14,138.12,338.36,132.09,338.36Zm9.22-21.14a56,56,0,0,0-6.36.34,10.19,10.19,0,0,0-7.92,5.52,13.34,13.34,0,0,0-.53,11.78c2.25,4.49,20.5-.52,28.29-2.66,5.27-1.45,5.82-1.56,6.36-1.22a1,1,0,0,1,.42.6c.47,2.33,1.6,3.68,3.45,4.12,2.94.7,6.73-1.17,7.37-1.82l.1-.45c1.11-4.69,1.58-10.33-4.61-12.38a.85.85,0,0,1-.58-.73c-.29-2.93-1.22-5.34-2.42-6.29a2,2,0,0,0-.43-.27c0,.34.11.7.18,1.07.3,1.61.7,3.81-1.39,4.82a.86.86,0,0,1-.53.07A115.64,115.64,0,0,0,141.31,317.21ZM172.36,334v0Z"/><path class="cls-2" d="M131,327.35a.86.86,0,0,1-.71-1.33c3.18-4.77,11.13-4.28,18.13-3.86,1.36.08,2.67.16,3.89.2a.86.86,0,1,1-.05,1.71c-1.24,0-2.57-.12-3.95-.2-6.54-.4-14-.85-16.6,3.1A.86.86,0,0,1,131,327.35Z"/><path class="cls-5" d="M461.82,493.35a3.32,3.32,0,0,1,.56-2.42,3.17,3.17,0,0,1,1.61-.76,39.24,39.24,0,0,1,15.55-.67,3.43,3.43,0,0,1,2.28,1,3.58,3.58,0,0,1,.52,2.11l.76,21.64c.07,2,3,9.94-11,9.94C454.65,524.19,462.17,504.76,461.82,493.35Z"/><path class="cls-2" d="M472.15,525c-4.34,0-7.47-1.13-9.54-3.45-3.94-4.41-3.08-12-2.26-19.37a65.59,65.59,0,0,0,.62-8.84h0a4.12,4.12,0,0,1,.79-3,3.94,3.94,0,0,1,2-1,40.3,40.3,0,0,1,15.89-.69A4.17,4.17,0,0,1,482.5,490a4.33,4.33,0,0,1,.7,2.6l.76,21.64c0,.2.05.47.1.79.23,1.57.67,4.48-1.32,6.79S477.39,525,472.15,525Zm-9.47-31.72a67.38,67.38,0,0,1-.63,9.09c-.78,7-1.59,14.2,1.83,18,1.73,1.94,4.44,2.88,8.27,2.88,4.65,0,7.78-.89,9.29-2.65s1.14-3.94.92-5.42c-.06-.4-.11-.73-.12-1l-.76-21.64a2.91,2.91,0,0,0-.34-1.61,2.79,2.79,0,0,0-1.73-.69,38.53,38.53,0,0,0-15.21.66,2.54,2.54,0,0,0-1.19.52,2.72,2.72,0,0,0-.33,1.81Z"/><path class="cls-2" d="M472.61,496.63a15.6,15.6,0,0,1-7.5-1.88.86.86,0,0,1,.83-1.5,14,14,0,0,0,12,.63.86.86,0,0,1,.67,1.58A15.41,15.41,0,0,1,472.61,496.63Z"/><path class="cls-1" d="M471.56,491.19c-.42-2.15-1.71-4-2.26-6.16s0-4.86,2-5.67c1.19,2.3,3.1,4.31,3.53,6.87s-1.92,5.72-4.29,4.67"/><path class="cls-2" d="M471.56,492a.86.86,0,0,1-.42-.11,3.23,3.23,0,0,1-.95-.26.86.86,0,0,1,.17-1.62c-.22-.61-.49-1.22-.76-1.85a19.68,19.68,0,0,1-1.12-3c-.65-2.5,0-5.69,2.51-6.68a.86.86,0,0,1,1.08.4c.38.73.83,1.43,1.31,2.17a13.29,13.29,0,0,1,2.31,4.95,5.61,5.61,0,0,1-2,5.08,3.69,3.69,0,0,1-1.62.74.84.84,0,0,1-.31.13Zm-.59-11.5c-1,.9-1.25,2.73-.85,4.26a18.25,18.25,0,0,0,1,2.7,22.4,22.4,0,0,1,1,2.57,2.4,2.4,0,0,0,.44-.27,3.86,3.86,0,0,0,1.37-3.44,11.85,11.85,0,0,0-2.05-4.3C471.6,481.57,471.28,481.07,471,480.55Z"/><path class="cls-3" d="M374.21,525.81l41.95.13L450,559.25a15.15,15.15,0,0,1-10.38,2.47c-3.13-.28-18.14-6.8-24-12.7-3.11-3.11-3.93-12.39-4.52-13.35-1.13,3.74-2.6,10.22-6.35,11.32-4.87,1.44-23.88-5.42-31.45-8.9a14.82,14.82,0,0,0,2.86-2.21c-1.56-.09-5.53-1.14-5.76-1.55a21.19,21.19,0,0,1-.62-6.15l4.48-2.37"/><path class="cls-2" d="M441.36,562.66q-.91,0-1.85-.09c-3.38-.31-18.64-7-24.57-12.95-2.25-2.25-3.35-7.23-4-10.59-1.13,3.69-2.77,7.82-6,8.78-5.39,1.59-25.11-5.76-32-8.95a.86.86,0,0,1-.08-1.51,14.24,14.24,0,0,0,1.37-.93c-1.78-.36-4.19-1-4.58-1.68a20.45,20.45,0,0,1-.72-6.65.86.86,0,0,1,.45-.68l4.48-2.37c.13-.07.26,0,.4-.1l41.95.13a.85.85,0,0,1,.6.25l33.81,33.31a.86.86,0,0,1-.09,1.3A15.31,15.31,0,0,1,441.36,562.66ZM411,534.81a.86.86,0,0,1,.73.41,10.69,10.69,0,0,1,.71,2.79c.61,3.13,1.64,8.36,3.68,10.4,5.86,5.86,20.79,12.21,23.51,12.45a14.89,14.89,0,0,0,9-1.75l-32.81-32.33-41.39-.13-3.87,2a23.44,23.44,0,0,0,.52,5.08,22.25,22.25,0,0,0,5.08,1.23.86.86,0,0,1,.56,1.46,15.69,15.69,0,0,1-1.7,1.46c8.86,3.87,25.3,9.46,29.44,8.23,2.9-.86,4.4-6,5.4-9.49l.37-1.27a.86.86,0,0,1,.71-.6Z"/><path class="cls-2" d="M400.89,544.28a29.51,29.51,0,0,1-7.45-1.43.86.86,0,1,1,.53-1.63c1.63.53,6.27,1.77,8.13,1.22.9-.27,2.52-2.91,3.58-5.59a25.35,25.35,0,0,1-10.59,2.61c-3.18,0-9.21-1.5-11.19-2a.87.87,0,0,1-.64-1,.85.85,0,0,1,1-.63h0a57.09,57.09,0,0,0,10.79,1.94c3.87.06,10.2-2,11.51-3.64a.86.86,0,0,1,1.51.73c-.69,2.86-3.19,8.55-5.54,9.25A6.06,6.06,0,0,1,400.89,544.28Z"/><path class="cls-6" d="M420,534.17c-6.41,4.43-9.08,2.27-13.11-5.23-3,9.25-28.7,1.79-36-.77l40-14.48L420,534.17"/><path class="cls-2" d="M414.47,537.31a5.39,5.39,0,0,1-1.26-.15c-2.43-.59-4.28-2.86-6.28-6.38a6.74,6.74,0,0,1-2.59,2.14c-9.23,4.59-32.72-3.58-33.71-3.93a.86.86,0,0,1,0-1.61l40-14.48a.86.86,0,0,1,1.07.46l9.08,20.47a.86.86,0,0,1-.3,1.05C418.09,536.53,416.18,537.31,414.47,537.31Zm-7.58-9.23a.86.86,0,0,1,.75.45c2,3.81,3.84,6.45,6,7,1.38.34,3.08-.19,5.31-1.64l-8.47-19.09-36.94,13.37c8.79,2.83,23.79,6.35,30.06,3.24a4.54,4.54,0,0,0,2.5-2.7.86.86,0,0,1,.74-.59Z"/><path class="cls-2" d="M433.26,555.19a.86.86,0,0,1-.28,0c-.1,0-10.33-3.6-13.6-7.85-1.86-2.41-2.75-5.42-3.53-8.07a.86.86,0,0,1,1.64-.49c.78,2.63,1.58,5.36,3.24,7.51,2.44,3.17,10.26,6.39,12.8,7.27a.86.86,0,0,1-.28,1.67Z"/><polygon class="cls-6" points="368.35 524.83 407.69 503.2 441.12 507.13 403.75 530.73 368.35 524.83"/><path class="cls-2" d="M403.75,531.59h-.14l-35.4-5.9a.86.86,0,0,1-.27-1.6l39.34-21.63a.81.81,0,0,1,.51-.1l33.44,3.93a.86.86,0,0,1,.36,1.57l-37.37,23.6A.85.85,0,0,1,403.75,531.59Zm-32.82-7.2,32.64,5.44,35-22.13-30.76-3.62Z"/><path class="cls-6" d="M452.92,511.06s31.47,19.67,31.47,21.63-31.47,27.54-31.47,27.54L421.46,538.6v-3.93Z"/><path class="cls-2" d="M452.92,561.09a.86.86,0,0,1-.49-.15L421,539.3a.86.86,0,0,1-.37-.71v-3.93a.86.86,0,0,1,.34-.69l31.47-23.6a.86.86,0,0,1,1,0c21.15,13.22,31.87,20.74,31.87,22.36,0,2-17.29,16.42-31.78,28.2A.85.85,0,0,1,452.92,561.09Zm-30.61-22.94,30.57,21c11.26-9.16,28.7-23.78,30.56-26.44-2-2.37-19.31-13.64-30.47-20.62l-30.66,23Zm61.27-5.22Z"/><polygon class="cls-6" points="442.4 503.2 454.89 509.1 421.45 534.66 405.72 526.8 442.4 503.2"/><path class="cls-2" d="M421.46,535.52a.86.86,0,0,1-.38-.09l-15.73-7.87a.86.86,0,0,1-.08-1.49l36.68-23.6a.86.86,0,0,1,.83-.05l12.49,5.9a.86.86,0,0,1,.15,1.46L422,535.35A.86.86,0,0,1,421.46,535.52Zm-14-8.82,13.91,7,31.89-24.39-10.79-5.1Z"/><line class="cls-7" x1="405.72" y1="526.8" x2="403.75" y2="530.73"/><path class="cls-2" d="M403.75,531.59a.85.85,0,0,1-.38-.09.86.86,0,0,1-.38-1.15l2-3.93a.86.86,0,1,1,1.53.77l-2,3.93A.86.86,0,0,1,403.75,531.59Z"/><path class="cls-6" d="M393.42,389.48c2.28,6.84,20.86,17.14,26.42,18,6.61,1,25.86-3.14,33.06-12.74,2.14-2.86,5.25-14-3.5-21C429.07,357.46,388.17,373.73,393.42,389.48Z"/><path class="cls-2" d="M421.94,408.46a15,15,0,0,1-2.23-.14c-5.52-.85-24.67-11.27-27.1-18.57h0c-1.74-5.21,1.1-10.87,7.78-15.53,11.42-8,35-12.8,49.55-1.16,8.9,7.12,6.22,18.75,3.65,22.18C446.8,404.29,429.88,408.46,421.94,408.46Zm6-40.66c-10.14,0-20.3,3.42-26.61,7.82-6,4.19-8.61,9.14-7.14,13.58h0c2.1,6.31,20,16.53,25.74,17.42,6.12.95,25.11-2.89,32.25-12.41,1.7-2.27,5.18-13-3.35-19.81C443,369.67,435.47,367.8,428,367.8Z"/><path class="cls-3" d="M454.65,391.22c2.88-17.26-35,5.25-28,15.75C426.66,407,452.9,401.72,454.65,391.22Z"/><path class="cls-2" d="M426.66,407.83a.86.86,0,0,1-.71-.38c-2-3-1-7.06,2.79-11.46,6.13-7.13,18.78-13.91,24.24-11.36,1.54.72,3.23,2.48,2.52,6.74h0c-1.82,11-27.57,16.23-28.67,16.44Zm23.47-22c-5.25,0-14.82,5.18-20.1,11.32-1.78,2.07-4.42,5.88-2.95,8.9,3.87-.85,25.23-6,26.72-14.92h0c.43-2.57-.1-4.22-1.56-4.9A5,5,0,0,0,450.13,385.78Z"/><path class="cls-3" d="M448,374.08c2.45,4.26-38.53,5.33-24.87-5.6C428.14,364.5,444.85,368.56,448,374.08Z"/><path class="cls-2" d="M435.1,378c-6.4,0-13.06-1-15-3.71-.92-1.28-1.23-3.44,2.52-6.45,3.27-2.61,9.75-1.73,12.39-1.23,5.41,1,11.76,3.61,13.76,7.08h0A1.68,1.68,0,0,1,448,376C446.17,377.17,440.73,378,435.1,378Zm-5.54-10.23c-2.61,0-4.7.48-5.86,1.41-1.82,1.46-2.68,2.75-2.43,3.65.39,1.39,3.31,2.54,7.81,3.09,8.35,1,17.17-.35,18.17-1.46-1.53-2.53-6.66-5.06-12.55-6.17A27.9,27.9,0,0,0,429.55,367.74Z"/><path class="cls-2" d="M473.89,427.07a.86.86,0,0,1-.68-1.38c.12-.16,12-15.66,10.32-30.87,0-.29-.88-1.31-4.36-2.53-8.56-3-27.92-5.2-34.42,1.29a.86.86,0,0,1-1.21-1.21c7.1-7.1,27-4.92,36.2-1.7,3.54,1.24,5.34,2.54,5.5,4,1.77,15.91-10.16,31.46-10.67,32.11A.85.85,0,0,1,473.89,427.07Z"/><path class="cls-2" d="M441.24,375.43a.86.86,0,0,1-.59-1.47,4.93,4.93,0,0,0,1.38-4.26c-.89-10-19.09-27.16-26.34-32-2.57-1.71-6.29-1.06-11.91-.06a102.57,102.57,0,0,1-19.1,2,.86.86,0,1,1,0-1.71A101.1,101.1,0,0,0,403.47,336c6-1.06,10-1.77,13.16.32,7.67,5.12,26.15,22.6,27.09,33.27a6.63,6.63,0,0,1-1.89,5.65A.85.85,0,0,1,441.24,375.43Z"/><path class="cls-5" d="M406.69,371.63c-15.85-10.67-64.68-3-71.42-1.72-11.09,2.07-67.38-11.92-85-1.43-6.44,3.83-42.83,5.25-53.29,5.25-12,0-41.38,11.2-32.78,28.69,0,0,45.52,15,167.94,13.57,20.91-.25,93.29-6.46,87.53-9C403.91,400,406.69,371.63,406.69,371.63Z"/><path class="cls-2" d="M315.7,417c-109,0-151.35-13.57-151.78-13.72a.86.86,0,0,1-.5-.44,13.7,13.7,0,0,1,.6-14c6-9.7,23.55-15.88,33-15.88,12.18,0,46.88-1.58,52.85-5.13,11.82-7,40.54-3.31,61.5-.59,10.79,1.4,20.11,2.6,23.79,1.92.54-.1,54.77-9.78,72.05,1.85a.86.86,0,0,1,.37.79c0,.28-2.53,27.81,12.46,34.47a1.15,1.15,0,0,1,.81,1.3c-.18.89-.52,2.54-37.39,6-20,1.86-41.62,3.29-51.29,3.41Q323.69,417,315.7,417ZM164.8,401.72c4.44,1.34,51.92,14.83,167.31,13.42,20-.24,77.4-5.31,86.17-7.88-14-7.41-12.8-31.23-12.49-35.19-14.44-9.07-56.6-3.88-70.36-1.31-4,.74-12.94-.43-24.33-1.9-20.72-2.69-49.09-6.36-60.4.37-6.77,4-44.26,5.37-53.73,5.37-8.8,0-25.85,6-31.5,15.07A12,12,0,0,0,164.8,401.72Z"/><path class="cls-6" d="M372,400.86a13.33,13.33,0,0,0-5.75-1.32c-5,.28-8.27,5.25-10.48,9.75-.65,1.32-1.2,3.09-.12,4.08A3.47,3.47,0,0,0,358,414c6,.22,23.93,3.09,28.81-.46C392.12,409.64,376.32,402.63,372,400.86Z"/><path class="cls-2" d="M377,416.16c-4.39,0-9.31-.46-13.47-.86-2.29-.22-4.27-.4-5.61-.45a4.18,4.18,0,0,1-2.82-.85c-.81-.74-1.48-2.23-.08-5.09,2.08-4.23,5.51-9.9,11.2-10.22a13.87,13.87,0,0,1,6.12,1.39c4.74,2,15.82,7,16.33,11.3a3,3,0,0,1-1.42,2.85C385.27,415.69,381.41,416.16,377,416.16Zm-10.27-15.78h-.4c-3.65.21-6.75,3.15-9.76,9.27-.43.86-1,2.41-.31,3.07a2.82,2.82,0,0,0,1.72.41c1.39.05,3.39.24,5.71.46,7.13.67,19.06,1.79,22.57-.76.72-.53.76-1,.73-1.26-.31-2.62-7.9-6.87-15.29-9.92h0A13.21,13.21,0,0,0,366.75,400.38Z"/><path class="cls-6" d="M359.45,419.15c7.87,6.31,18.63,7.23,28.69,7.89a6,6,0,0,0,3.29-.4,2.07,2.07,0,0,0,.94-2.82c-1.73-2.39-9.26-4.42-12-5.93-4.18-2.29-8-5.27-12.13-7.56C361.33,406.49,351.29,412.6,359.45,419.15Z"/><path class="cls-2" d="M389.25,427.95c-.42,0-.81,0-1.16,0-11.38-.75-21.43-1.87-29.17-8.08h0c-3.3-2.64-4.25-5.74-2.54-8.27,2-3,7.71-4.5,12.27-2,2,1.14,4,2.45,6,3.73s4.05,2.68,6.16,3.84a38.54,38.54,0,0,0,3.9,1.65c3.33,1.28,7.09,2.74,8.39,4.53a2.4,2.4,0,0,1,.37,2,3.29,3.29,0,0,1-1.59,2.1A5.35,5.35,0,0,1,389.25,427.95ZM360,418.48c7.35,5.89,17.13,7,28.21,7.7a5.23,5.23,0,0,0,2.82-.3,1.56,1.56,0,0,0,.74-1,.69.69,0,0,0-.09-.58c-1-1.38-4.67-2.8-7.62-3.94a39.05,39.05,0,0,1-4.1-1.74c-2.17-1.19-4.26-2.57-6.28-3.91s-3.86-2.55-5.85-3.66c-3.72-2.07-8.44-.93-10,1.42C356.61,414.27,357.39,416.4,360,418.48Z"/><ellipse class="cls-3" cx="396.04" cy="476.95" rx="14.87" ry="7"/><path class="cls-2" d="M396,484.81c-8.82,0-15.73-3.45-15.73-7.86s6.91-7.86,15.73-7.86,15.73,3.45,15.73,7.86S404.86,484.81,396,484.81Zm0-14c-8.38,0-14,3.18-14,6.14s5.63,6.14,14,6.14,14-3.18,14-6.14S404.42,470.81,396,470.81Z"/><path class="cls-3" d="M400.41,475.2c-3.5-5.25-2.67-21.84-2.67-21.84l-3.8.19s1.22,16.4-2.27,21.65A5,5,0,0,0,400.41,475.2Z"/><path class="cls-2" d="M396,478.68a5.68,5.68,0,0,1-5.14-3.1.86.86,0,0,1,.05-.86c3.3-4.95,2.15-21,2.13-21.11a.86.86,0,0,1,.81-.92l3.8-.19a.81.81,0,0,1,.65.25.85.85,0,0,1,.25.65c0,.16-.77,16.37,2.53,21.33a.86.86,0,0,1,.05.86A5.68,5.68,0,0,1,396,478.68Zm-3.38-3.47a4.13,4.13,0,0,0,6.76,0c-2.86-5.07-2.69-17.41-2.57-21l-2,.1C395,457.79,395.53,470.11,392.66,475.22Z"/><path class="cls-6" d="M402.16,443.71c0,7.21-8.75,10.5-8.75,3.5,0-1.24,1.83-3.56,3.5-3.5-8.75-3.5-9.28,8.22-7,10.5,5.25,5.25,14,3.5,17.5-1.75,8.29-12.44-12.55-23.77-15.12-25.39C389,432.15,402.16,440.21,402.16,443.71Z"/><path class="cls-2" d="M397.68,458.24a11.66,11.66,0,0,1-8.37-3.42c-1.71-1.71-2-7,0-10.11,1-1.46,3.27-3.65,7.89-1.79a.86.86,0,0,1,.52,1,.83.83,0,0,1-.87.68,2.14,2.14,0,0,0-1.51.77,3.42,3.42,0,0,0-1.1,1.87,3.76,3.76,0,0,0,.65,2.4,1.73,1.73,0,0,0,1.4.62c2,0,5-2.54,5-6.52,0-1-2.14-3.21-4-5.15-3.8-3.89-8.1-8.29-5.7-12a.86.86,0,0,1,1.17-.26l.65.39c9.7,5.8,15.26,11.6,16.54,17.24a11.2,11.2,0,0,1-1.8,9,12.44,12.44,0,0,1-9.13,5.24Q398.33,458.24,397.68,458.24Zm-3.74-14.32a3.61,3.61,0,0,0-3.18,1.73c-1.75,2.65-1.24,7-.25,8a10.12,10.12,0,0,0,8.3,2.86A10.72,10.72,0,0,0,406.7,452a9.55,9.55,0,0,0,1.55-7.62c-1.16-5.13-6.4-10.53-15.57-16-.56,2.52,2.95,6.11,5.82,9.06C401,440,403,442,403,443.71c0,4.71-3.53,8.23-6.69,8.23a3.46,3.46,0,0,1-2.71-1.23,5.33,5.33,0,0,1-1.05-3.5,4.82,4.82,0,0,1,1.63-3.1l.18-.17Z"/><path class="cls-3" d="M397.79,449.31s0-4.88.87-7.35c1.7-4.69,11.08-10.9,12.25-15.75,1.06-4.44-2.1-16.62-2.1-16.62h-29s-1.9,12.44-.35,16.62c1.94,5.22,11.87,10.6,14,15.75.88,2.12.53,7.35.53,7.35"/><path class="cls-2" d="M397.79,450.17a.86.86,0,0,1-.86-.85c0-.21,0-5.06.93-7.64.87-2.4,3.4-5,6.09-7.69s5.57-5.65,6.13-8c.87-3.62-1.31-13-1.93-15.56H380.51c-.37,2.69-1.54,12.1-.29,15.47.91,2.45,3.93,5.12,6.85,7.7s6,5.31,7.13,8c.93,2.24.62,7.18.59,7.73a.86.86,0,0,1-1.71-.12c.1-1.4.2-5.38-.46-7-1-2.34-3.87-4.91-6.68-7.39-3.08-2.72-6.26-5.53-7.32-8.39-1.61-4.34.23-16.53.31-17a.86.86,0,0,1,.85-.73h29a.86.86,0,0,1,.83.64c.13.51,3.2,12.44,2.1,17-.67,2.79-3.67,5.83-6.58,8.77-2.44,2.47-5,5-5.7,7.07-.83,2.3-.82,7-.82,7.05a.86.86,0,0,1-.85.86Z"/><path class="cls-3" d="M408.81,409.42c.35,2.8-6.5,5.25-14.52,5.25s-14.87-2.45-14.52-5.25c.31-2.46,6.5-5.25,14.52-5.25S408.51,407,408.81,409.42Z"/><path class="cls-2" d="M394.29,415.53c-6.54,0-12.53-1.61-14.57-3.93a2.86,2.86,0,0,1-.8-2.28c.41-3.25,7.45-6,15.37-6s15,2.75,15.37,6h0a2.86,2.86,0,0,1-.8,2.28C406.82,413.91,400.83,415.53,394.29,415.53Zm0-10.5c-7.88,0-13.45,2.71-13.67,4.5a1.14,1.14,0,0,0,.39.94c1.43,1.62,6.57,3.35,13.28,3.35s11.85-1.72,13.28-3.35a1.14,1.14,0,0,0,.39-.94h0C407.74,407.74,402.17,405,394.29,405Z"/><path class="cls-2" d="M411.12,423.26a2.6,2.6,0,0,0-.2-.54c-2.62-4.37-29.58-3.18-31.49,0A4.4,4.4,0,0,0,379,424a9.73,9.73,0,0,0,.46,2.22c1.94,5.22,11.87,10.6,14,15.75a5,5,0,0,1,.22.71,17.6,17.6,0,0,0,2.41.17,12.7,12.7,0,0,0,2.44-.25c.06-.23.12-.44.19-.63,1.7-4.69,11.08-10.9,12.25-15.75A11.87,11.87,0,0,0,411.12,423.26Z"/><path class="cls-5" d="M104.26,391.54c-12.35,13.93,2.19,21.86,4.83,23.18,6.25,3.12,17.77,3.49,23.79-1.32,13.22-10.57-5.29-17.18-6.06-20.63-.71-3.13,8.71-4.48,8.65-6.94a16.78,16.78,0,0,1-3.91-.19c2.93-1.42,2.93-4.92,1.18-8.42,0,0-3.5,3.5-5.25,3.5,0-1.75-4.81-7.62-9.14-5.65-14.54,6.61-5.29,17.18-1.52,19.65-2.45.17-3.83,1.71-5.44,2.44A61,61,0,0,0,104.26,391.54Z"/><path class="cls-2" d="M120.24,417.92a26.73,26.73,0,0,1-11.54-2.43c-2.61-1.3-8.8-5-10-11.24-.81-4.21.84-8.67,4.92-13.28a.86.86,0,0,1,1.15-.12l1.43,1a50,50,0,0,1,5.33,4.24c.29-.16.58-.35.88-.54a12.17,12.17,0,0,1,2.43-1.3c-2.62-2.3-5.57-6.36-5.24-10.6.29-3.83,3.11-7,8.38-9.38a6.16,6.16,0,0,1,6.05.78,11.32,11.32,0,0,1,4.07,4.62,16.8,16.8,0,0,0,4-3.08.84.84,0,0,1,.74-.24.86.86,0,0,1,.63.46c1.26,2.51,1.6,4.9,1,6.74a4.79,4.79,0,0,1-.76,1.42h1.76a.86.86,0,0,1,.85.84c0,1.69-2.07,2.65-4.52,3.77-1.85.84-4.39,2-4.16,3,.14.63,1.78,1.89,3.22,3,3.19,2.47,7.57,5.85,7.61,10.25,0,2.79-1.63,5.48-5.07,8.23S125.13,417.92,120.24,417.92ZM104.39,392.7c-3.34,4-4.69,7.74-4,11.23,1.09,5.64,7.24,9.11,9.09,10,6.19,3.1,17.3,3.24,22.87-1.22,3-2.36,4.44-4.68,4.42-6.87,0-3.56-3.86-6.53-6.94-8.91-2.07-1.6-3.57-2.76-3.85-4-.54-2.37,2.47-3.74,5.12-4.95a27.21,27.21,0,0,0,2.61-1.3h0a9.15,9.15,0,0,1-2.37-.24.86.86,0,0,1-.14-1.6,3.13,3.13,0,0,0,1.68-1.85,6.61,6.61,0,0,0-.42-4.35c-1.27,1.14-3.46,2.9-5,2.9a.86.86,0,0,1-.86-.86c0-.58-1.36-2.82-3.52-4.21a4.66,4.66,0,0,0-4.42-.67c-4.66,2.12-7.14,4.79-7.38,8-.35,4.53,3.88,8.83,6,10.2a.86.86,0,0,1-.41,1.57,7.22,7.22,0,0,0-3.54,1.44,13.23,13.23,0,0,1-1.6.92.85.85,0,0,1-1-.17,45.33,45.33,0,0,0-5.58-4.5Z"/><circle class="cls-3" cx="121.36" cy="383.35" r="2.62"/><path class="cls-2" d="M121.36,386.83a3.48,3.48,0,1,1,3.48-3.48A3.48,3.48,0,0,1,121.36,386.83Zm0-5.25a1.77,1.77,0,1,0,1.77,1.77A1.77,1.77,0,0,0,121.36,381.58Z"/><circle class="cls-2" cx="122.24" cy="384.23" r="1.31"/><polygon class="cls-6" points="136.52 144.83 144.1 128.64 136.53 112.19 128.95 128.37 136.52 144.83"/><path class="cls-2" d="M136.52,146.86,128,128.37l8.53-18.21L145,128.65Zm-6.62-18.49,6.64,14.42,6.63-14.15-6.64-14.42Z"/><polygon class="cls-6" points="111.5 143.32 118.81 127.01 110.96 110.68 103.65 126.99 111.5 143.32"/><path class="cls-2" d="M111.52,145.35,102.71,127l8.23-18.35L119.75,127ZM104.59,127l6.87,14.31,6.4-14.26L111,112.72Z"/><path class="cls-6" d="M384.06,384.11c.38,2.27-5.93,1.24-8.14,1.87-12.21,3.43-23.71-1.27-28.82-12.89-3-6.82-3-14.53-2.87-22C344.27,349,381.17,366.73,384.06,384.11Z"/><path class="cls-2" d="M368.18,387.94c-9.62,0-17.78-5.22-21.86-14.51-3-6.75-3.09-14.11-2.95-22.34a1,1,0,0,1,1.05-1h.09c4.18,0,37.61,17.22,40.39,33.89h0a1.74,1.74,0,0,1-.37,1.44c-.9,1.08-3.09,1.12-5.4,1.17a15.09,15.09,0,0,0-3,.22A29.43,29.43,0,0,1,368.18,387.94Zm-23.1-36.08c-.12,7.72.07,14.64,2.81,20.88,4.81,10.93,15.71,15.81,27.8,12.41a15.51,15.51,0,0,1,3.42-.29c1.24,0,3.83-.07,4.12-.56v-.06C380.67,369,350.14,353,345.08,351.86Z"/><path class="cls-6" d="M349.25,339.25c2.86-2.78,23.17-18,25.81-15.51s-8.25,20.58-10.31,22.85-11.57,9.64-16,8.69C339.15,353.25,345.38,343,349.25,339.25Z"/><path class="cls-2" d="M349.54,356.22a4.91,4.91,0,0,1-1-.1c-3-.64-4.85-2.09-5.5-4.32-1.26-4.37,2.77-10.4,5.62-13.16h0c1.1-1.07,23.37-19,27-15.52s-8.92,22.57-10.26,24C363.55,349.18,354.79,356.22,349.54,356.22Zm.3-16.35c-2.67,2.6-6.15,8-5.17,11.46.45,1.57,1.87,2.62,4.21,3.12,3.82.81,12.94-5.92,15.23-8.43,2.74-3,12.27-19.83,10.35-21.65-2.16-1.44-20.67,11.66-24.62,15.5Z"/><path class="cls-6" d="M374.72,304c-2.29,1.53-4,8.53-8,7.4-3.72-1.08-2.87-7.62-6.57-9.36-1.23,2.88-4.89,10,1.75,12.25,5.25,1.75,7.29,8.69,14,8.75C375.38,318.47,377.37,302.19,374.72,304Z"/><path class="cls-2" d="M375.92,323.85h0c-4.24,0-6.71-2.53-9.09-4.93-1.62-1.64-3.16-3.19-5.17-3.86a6.16,6.16,0,0,1-3.94-3.27c-1.39-3.14.37-7.15,1.42-9.54l.26-.59a.86.86,0,0,1,1.15-.44c2.14,1,3,3.28,3.68,5.29s1.29,3.59,2.77,4c1.79.51,3.06-1.32,4.66-4a10.77,10.77,0,0,1,2.59-3.33,1.38,1.38,0,0,1,1.47-.12c1.4.78,1.42,4.33,1.11,12.23a64.21,64.21,0,0,0-.05,7.52.86.86,0,0,1-.85,1Zm-15.36-20.59c-.94,2.16-2.31,5.5-1.28,7.83a4.47,4.47,0,0,0,2.92,2.34c2.4.8,4.15,2.57,5.85,4.28,2,2.05,4,4,6.95,4.37-.08-1.71,0-4.18.12-6.77.13-3.41.34-8.92-.16-10.43a13.32,13.32,0,0,0-1.84,2.6c-1.53,2.51-3.42,5.64-6.6,4.72-2.32-.67-3.13-2.92-3.91-5.09A9.16,9.16,0,0,0,360.56,303.27Zm14.16.7h0Z"/><path class="cls-6" d="M323,361c-17.1-20.55-21.28,7.94-20.6,12.69,1.75,12.25,22.74,12.25,29.25,10.39C341.83,381.23,325.91,364.49,323,361Z"/><path class="cls-2" d="M323.63,385.86c-5.55,0-12.13-1-16.59-3.9a11.37,11.37,0,0,1-5.44-8.11c-.43-3,1.14-17.44,8-20.47,4-1.78,8.75.62,14.15,7.11h0c.27.32.65.76,1.12,1.29,6.18,7.09,12.3,15,10.86,19.85a5,5,0,0,1-3.75,3.31A32.59,32.59,0,0,1,323.63,385.86Zm-11.42-31.33a4.79,4.79,0,0,0-2,.42c-5.65,2.51-7.39,15.63-7,18.66a9.73,9.73,0,0,0,4.68,6.91c6.76,4.38,18.7,4.14,23.49,2.78a3.32,3.32,0,0,0,2.58-2.15c1.37-4.62-7.26-14.51-10.51-18.24-.48-.55-.87-1-1.14-1.33h0C318.47,356.89,315.07,354.53,312.21,354.53Z"/><path class="cls-6" d="M251.93,354.38c-.27,3.16,7-3.28,18.19-7.86,16.41-6.75,21.32-19.15,23-28.94C294.59,309.51,252.6,346.53,251.93,354.38Z"/><path class="cls-2" d="M252.53,356.08a1.49,1.49,0,0,1-.82-.23,1.52,1.52,0,0,1-.63-1.54h0c.61-7.18,30.82-34.5,39.44-38.23.88-.38,2.14-.81,3-.16a1.74,1.74,0,0,1,.52,1.81c-2.54,14.44-10.25,24.11-23.56,29.59a103.49,103.49,0,0,0-11.91,6C255.45,355.07,253.68,356.08,252.53,356.08Zm.26-1.47h0Zm-.85-.22h0Zm40.41-37.09c-.45,0-2,.45-6.26,3.48-12.39,8.8-32.55,28.51-33.28,33.56a32.62,32.62,0,0,0,4.89-2.5,105,105,0,0,1,12.11-6.11c12.72-5.23,20.09-14.49,22.52-28.3C292.33,317.37,292.34,317.33,292.34,317.29Z"/><path class="cls-6" d="M290.19,314.24c2-1.52,28,31.15,28,38.49,0,8.75-5.25,3.5-8.75,12.25C303.45,380,283.19,319.49,290.19,314.24Z"/><path class="cls-2" d="M307,368.22h-.11c-6.31-.25-13.71-23.41-14.54-26.05-1.29-4.14-7.49-25-2.68-28.6h0a1.35,1.35,0,0,1,1.51,0c4.33,2.17,27.86,31.58,27.86,39.18,0,5.15-1.86,6.06-3.83,7-1.61.8-3.45,1.7-5,5.53C309.46,367.24,308.38,368.22,307,368.22Zm-16.51-53.1c-2,2.27-.58,13.46,3.5,26.53,4.31,13.82,10,24.74,13,24.85.8,0,1.33-1,1.68-1.84,1.78-4.44,4-5.54,5.81-6.43s2.88-1.42,2.88-5.5C317.33,346,294.12,316.93,290.5,315.12Z"/><path class="cls-6" d="M204.17,387.26c3,1.73,8.52,1.28,10-1.87s1.45-6.79,1.91-10.25c1.4-10.52,27.5-35.41,19.07-48.74C221.62,329.59,206.89,377.34,204.17,387.26Z"/><path class="cls-2" d="M208.34,389.11a9.48,9.48,0,0,1-4.59-1.11.86.86,0,0,1-.4-1c.16-.58,16-57.79,31.64-61.48a.84.84,0,0,1,.92.37c5.67,9-3,22.19-10.67,33.85-4,6.1-7.79,11.86-8.27,15.47-.11.85-.19,1.7-.28,2.56a23.34,23.34,0,0,1-1.72,8,5.78,5.78,0,0,1-3.67,2.92A10,10,0,0,1,208.34,389.11Zm-3.16-2.31a8.6,8.6,0,0,0,5.6.24,4.22,4.22,0,0,0,2.64-2,21.72,21.72,0,0,0,1.55-7.38c.08-.88.17-1.75.28-2.62.53-4,4.24-9.65,8.54-16.18,6.86-10.43,15.35-23.35,11-31.44C223,331.41,209.39,371.74,205.18,386.8Z"/><path class="cls-6" d="M246.45,330c-8.39-1.29-15.75-10.5-17.5-7-5.7,11.39,17.5,36.74,26.24,50.74,4.15,6.63,22.74,7,24.49,1.75C282.52,367,256.27,331.5,246.45,330Z"/><path class="cls-2" d="M269.7,380c-6.15,0-12.82-1.93-15.23-5.78-2.15-3.43-5.2-7.6-8.44-12-10.48-14.3-22.37-30.51-17.84-39.56a2.16,2.16,0,0,1,1.38-1.18c1.57-.42,3.57.89,6.36,2.71,3,2,6.75,4.41,10.66,5h0c6.57,1,19.61,15.82,27.67,29,3.58,5.86,7.57,13.66,6.26,17.6-.7,2.1-3.39,3.52-7.59,4A27.31,27.31,0,0,1,269.7,380Zm-39.49-56.9-.2,0c-.06,0-.17,0-.29.29-4.05,8.11,8,24.56,17.69,37.78,3.26,4.44,6.33,8.64,8.51,12.12,2.36,3.78,10.59,5.54,16.79,4.8,3.35-.4,5.71-1.49,6.16-2.86.84-2.51-1.44-8.55-6.09-16.16-7.68-12.58-20.63-27.31-26.47-28.21h0c-4.27-.65-8.19-3.21-11.33-5.26C233.09,324.33,231.14,323.06,230.21,323.06Z"/><path class="cls-6" d="M239.67,389.12c-.32-1.45-.21-4.89-3.33-2.26-3.26,3.81-11.63,14.51-14.25,19.19,3.37,2.66,13.42.17,14.87-1.82C237.36,403.69,240.53,393.05,239.67,389.12Z"/><path class="cls-2" d="M226.73,408.07a8.54,8.54,0,0,1-5.17-1.34.86.86,0,0,1-.22-1.09c2.74-4.9,11.3-15.77,14.35-19.34.87-.75,2-1.57,3.13-1.15s1.4,1.91,1.57,3.09c0,.25.07.49.11.69h0c.93,4.22-2.32,15.08-2.85,15.8-1.08,1.48-4.91,2.69-8.14,3.13A20.83,20.83,0,0,1,226.73,408.07Zm-3.48-2.3a11.55,11.55,0,0,0,6,.41c3.72-.51,6.5-1.77,7-2.45s3.35-10.8,2.56-14.43c-.05-.23-.09-.51-.14-.81s-.23-1.6-.49-1.74h0s-.34-.06-1.32.76C233.7,391.27,226.13,401,223.25,405.77Z"/><path class="cls-6" d="M238.64,382c5.68-1.36,21.09,11,28.1,18.5,5.23,5.57-13,8.79-18,5.36C244.19,402.77,233.18,383.33,238.64,382Z"/><path class="cls-2" d="M255.38,408.15c-2.91,0-5.59-.49-7.15-1.56-4.26-2.93-12.85-17.66-11.85-23.07a2.73,2.73,0,0,1,2.06-2.34h0c6.57-1.58,23.13,12.58,28.93,18.75,1.42,1.51,1.54,3.17.34,4.57C265.76,406.78,260.25,408.15,255.38,408.15Zm-16.54-25.29c-.31.07-.64.25-.77,1-.86,4.62,7.53,18.86,11.13,21.34,3.41,2.34,14.67,1.17,17.21-1.79.44-.51.74-1.18-.29-2.28-7.57-8.06-22.28-19.46-27.28-18.25Z"/><path class="cls-6" d="M398.66,372a5.65,5.65,0,0,0-5.25,5.25c0,2.93,4,7.15,4.47,7.13,2.53-.13.66-4.68.7-6.51C398.66,373.73,409.16,372,398.66,372Z"/><path class="cls-2" d="M397.88,385.22c-.38,0-.73-.21-1.36-.81-1.38-1.33-4-4.54-4-7.18a6.47,6.47,0,0,1,6.1-6.1c4.12,0,5.19.23,5.47,1.15s-.55,1.46-1.68,2.23-3,2-3,3.36a10.91,10.91,0,0,0,.26,1.84c.34,1.78.69,3.62-.17,4.73a2.08,2.08,0,0,1-1.6.78Zm.78-12.38a4.8,4.8,0,0,0-4.39,4.4c0,2.19,2.9,5.54,3.77,6.23a.26.26,0,0,0,.14-.09c.39-.49,0-2.28-.16-3.35a11.75,11.75,0,0,1-.29-2.2c0-2.22,2.28-3.74,3.76-4.74l.24-.16C401.12,372.88,400.17,372.84,398.66,372.84Zm4.07.26h0Z"/><path class="cls-6" d="M396.41,397.71c.76,1.83,5.75,4,6.74,2,.26-.51-1.08-2.32-1.49-2.72-1.48-1.42-1.08-6.51-2.56-7.19C396.93,388.85,395.17,394.72,396.41,397.71Z"/><path class="cls-2" d="M401.57,401.39h-.16c-2-.07-5.07-1.63-5.79-3.34h0c-1-2.46-.3-6.81,1.42-8.46a2.1,2.1,0,0,1,2.42-.51c1.16.54,1.45,2.17,1.78,4.06.22,1.24.49,2.79,1,3.29,0,0,2.31,2.44,1.66,3.72A2.4,2.4,0,0,1,401.57,401.39Zm-4.37-4c.37.9,2.65,2.23,4.27,2.29a1.35,1.35,0,0,0,.82-.18,7.57,7.57,0,0,0-1.22-1.83c-.92-.89-1.22-2.58-1.51-4.22-.16-.91-.46-2.61-.81-2.8-.09,0-.22-.11-.52.18-1.12,1.08-1.85,4.59-1,6.57Z"/><path class="cls-1" d="M263.95,298.5c-10.5,1.75-29.74,1.75-43.74,0-8.68-1.09-6.94-34,1.75-35,15.75-1.75,29.74,0,42,0C270.95,263.51,272.58,297.06,263.95,298.5Z"/><path class="cls-2" d="M243.39,300.67a195.69,195.69,0,0,1-23.28-1.32c-4.84-.6-6.51-8.77-6.46-16.2.07-9.74,2.91-19.9,8.22-20.49,10.79-1.2,20.93-.76,29.87-.37,4.28.19,8.32.36,12.21.36s6,7.48,6.54,14.48c.69,8.39-.44,21.22-6.4,22.22h0A136,136,0,0,1,243.39,300.67Zm-6.23-37.08a136.39,136.39,0,0,0-15.1.77c-3.62.4-6.63,8.83-6.69,18.8-.06,8.29,1.93,14.11,5,14.49,13.94,1.74,33,1.74,43.49,0l.14.85-.14-.85c4.06-.68,5.74-11.11,5-20.38-.62-7.48-2.65-12.91-4.83-12.91-3.92,0-8-.18-12.28-.36C247.12,263.8,242.25,263.59,237.15,263.59Z"/><path class="cls-3" d="M222.48,269.5c1.75-2.38,36.22-2.49,38.55.34,3.17,3.84-.23,18.17-2,19.92-3.5,3.5-31.84,3.5-35.34,0C222,288,219.48,273.59,222.48,269.5Z"/><path class="cls-2" d="M241.38,293.23c-2.57,0-15.54-.14-18.28-2.87-2.09-2.09-4.49-17-1.32-21.36h0c.31-.42,1.26-1.71,14-2.07,6.51-.19,23.84-.11,25.88,2.36,3.45,4.19.08,19-2,21.07C256.92,293.09,244,293.23,241.38,293.23ZM223.15,270c-2.75,3.83-.21,17.74,1.16,19.11,3.19,3.19,30.94,3.19,34.13,0,1.5-1.5,4.71-15.39,1.93-18.77C258.37,268.2,225.78,267.91,223.15,270Z"/><path class="cls-2" d="M222.33,286.28a.86.86,0,0,1-.32-1.65c11.25-4.51,23-4.68,38.18-.57a.86.86,0,0,1-.45,1.65c-14.77-4-26.21-3.85-37.1.51A.85.85,0,0,1,222.33,286.28Z"/><polygon class="cls-5" points="174.72 536.44 151.98 564.43 370.67 566.18 356.68 538.19 174.72 536.44"/><path class="cls-2" d="M370.67,567h0L152,565.29a.86.86,0,0,1-.66-1.4l22.74-28a.67.67,0,0,1,.67-.32l182,1.75a.86.86,0,0,1,.76.47l14,28a.86.86,0,0,1-.77,1.24Zm-216.9-3.45,215.51,1.72L356.14,539l-181-1.74Z"/><polygon class="cls-1" points="182.62 542.56 170.35 558.1 354.93 559.18 348.99 543.64 182.62 542.56"/><path class="cls-2" d="M354.93,560h0L170.34,559a.86.86,0,0,1-.67-1.39L181.94,542a.86.86,0,0,1,.67-.33h0L349,542.78a.86.86,0,0,1,.79.55l5.93,15.54a.86.86,0,0,1-.8,1.16Zm-182.82-2.78,181.57,1.06-5.28-13.82L183,543.42Z"/><path class="cls-2" d="M434.5,378a.86.86,0,0,1-.86-.86v-9.74a.86.86,0,1,1,1.71,0v9.74A.86.86,0,0,1,434.5,378Z"/><path class="cls-2" d="M444.15,402.1a.85.85,0,0,1-.75-.44l-6.12-10.89a.86.86,0,0,1,1.49-.84l6.12,10.89a.86.86,0,0,1-.75,1.28Z"/><path class="cls-3" d="M388.17,270.51s14-7.87,21-7.87c-5.25,14-21,35.87-21,35.87Z"/><path class="cls-2" d="M388.17,299.36a.84.84,0,0,1-.26,0,.86.86,0,0,1-.59-.81v-28a.86.86,0,0,1,.44-.75c.58-.33,14.27-8,21.42-8a.86.86,0,0,1,.8,1.16c-5.23,13.94-20.94,35.85-21.1,36.06A.86.86,0,0,1,388.17,299.36ZM389,271v24.78c3.95-5.68,14.36-21.13,18.85-32.22C401.61,264.3,391.27,269.79,389,271Z"/><path class="cls-1" d="M372.42,330l27.12-27.12s-.87-25.37-9.62-33.24a46.16,46.16,0,0,0,19.24-7c-3.5-3.5,0-6.12,0-6.12s-17.5,7-22.74,8.75c-1.28,1.28-1.36,6.22-1.75,7-6.53,13.06-10.5,56-10.5,56"/><path class="cls-2" d="M372.42,330.85a.86.86,0,0,1-.61-1.46l1.53-1.53c.4-4.21,4.25-43.37,10.55-56a13.89,13.89,0,0,0,.26-1.63c.33-2.48.67-4.61,1.65-5.59a.86.86,0,0,1,.33-.21c5.16-1.72,22.52-8.66,22.7-8.73a.86.86,0,0,1,.83,1.48,3.34,3.34,0,0,0-1.21,2.14,3.59,3.59,0,0,0,1.3,2.69.86.86,0,0,1-.13,1.32,46.82,46.82,0,0,1-17.94,6.89c7.79,9.07,8.66,31.6,8.7,32.6a.86.86,0,0,1-.25.64l-25.34,25.34-.06.06L373,330.6A.85.85,0,0,1,372.42,330.85ZM386.92,266c-.57.8-.88,3.16-1.05,4.47a8.06,8.06,0,0,1-.43,2.18c-5.5,11-9.23,44.12-10.17,53.3l23.4-23.4c-.15-3.13-1.51-25.23-9.32-32.26a.86.86,0,0,1,.47-1.49,45.59,45.59,0,0,0,18.05-6.33,4.72,4.72,0,0,1-1.1-3.25,4.06,4.06,0,0,1,.16-.88C401.94,260.3,391.14,264.56,386.92,266Z"/><path class="cls-5" d="M360.17,302s-.78-3.68,0-5.25c3.5-7,26.24-31.49,26.24-31.49l-1.75,7"/><path class="cls-2" d="M360.17,302.86a.86.86,0,0,1-.84-.68c-.09-.41-.82-4,.07-5.81,3.51-7,25.45-30.69,26.38-31.69a.86.86,0,0,1,1.46.79l-1.75,7a.86.86,0,1,1-1.66-.42l.93-3.73c-5.84,6.39-21.07,23.31-23.83,28.81-.47.94-.21,3.38.07,4.69a.86.86,0,0,1-.66,1Z"/><path class="cls-5" d="M360.17,302l12.25,28s15.75-19.24,22.74-28c-1.75-12.25-10.5-29.74-10.5-29.74Z"/><path class="cls-2" d="M372.42,330.85h-.12a.85.85,0,0,1-.67-.51l-12.25-28a.85.85,0,0,1,.12-.89L384,271.71a.85.85,0,0,1,.76-.31.86.86,0,0,1,.67.47c.36.72,8.83,17.76,10.58,30a.86.86,0,0,1-.18.66c-6.92,8.65-22.59,27.81-22.75,28A.86.86,0,0,1,372.42,330.85Zm-11.25-28.71,11.47,26.23c3.38-4.14,15.57-19.06,21.62-26.61-1.55-10.11-7.84-23.84-9.78-27.92Z"/><path class="cls-6" d="M359.76,303.22c2.07-1.48,9.16-4.72,9.51-1.19.36,3.72-5.35,9.68-4.87,12.33"/><path class="cls-2" d="M364.39,315.23a.86.86,0,0,1-.84-.7c-.28-1.56.9-3.6,2.27-6s2.75-4.75,2.59-6.44a.71.71,0,0,0-.42-.68c-1.53-.69-5.93,1.19-7.73,2.48a.86.86,0,1,1-1-1.39c1.31-.94,6.77-3.86,9.44-2.65a2.39,2.39,0,0,1,1.42,2.07c.22,2.24-1.32,4.89-2.81,7.46-1,1.81-2.24,3.86-2.07,4.8a.86.86,0,0,1-.69,1Z"/><path class="cls-6" d="M336.19,405.25c-4.47-6.7-26.36-14.06-32.38-8.71-3.5,3.11-3.71,7.34-4.48,12-1.49,9,20.93,7.22,23.92,7.22C326.93,414,339.18,409.74,336.19,405.25Z"/><path class="cls-2" d="M317.09,416.71c-6,0-14.36-.58-17.43-4.08a5,5,0,0,1-1.17-4.27c.1-.58.18-1.15.27-1.71.62-4,1.2-7.83,4.49-10.75,2.6-2.31,7.32-2.26,10.82-1.81,8.13,1,19.52,5.69,22.84,10.68h0a3.31,3.31,0,0,1,.47,2.85c-1,3.39-7.42,6.13-11.66,7.94-.83.36-1.56.67-2.1.92a5.51,5.51,0,0,1-1.73.12C320.69,416.65,319,416.71,317.09,416.71Zm-6.62-21.15c-2.77,0-4.88.55-6.08,1.62-2.83,2.51-3.34,5.85-3.94,9.72-.09.57-.18,1.15-.27,1.73a3.27,3.27,0,0,0,.77,2.86c3.52,4,16.59,3.55,20.88,3.4l1.23,0c.53-.25,1.21-.54,2-.87,3.46-1.48,9.91-4.23,10.69-6.85a1.59,1.59,0,0,0-.25-1.41c-2.73-4.09-13-8.83-21.64-9.94A26.59,26.59,0,0,0,310.47,395.56Z"/><path class="cls-6" d="M314.69,400c-4-7.94-27.05,15.54-22.83,15.75,3.58.17,17.94.25,17.94.25C315,409.3,318.19,407,314.69,400Z"/><path class="cls-2" d="M309.8,416.83h0c-.59,0-14.41-.08-18-.26a1.31,1.31,0,0,1-1.32-1.16c-.39-3.21,12.34-15.5,19.2-17.57,3.5-1.05,5.06.37,5.75,1.75h0c3.3,6.61.88,9.61-3.13,14.58-.58.72-1.2,1.49-1.85,2.33A.86.86,0,0,1,309.8,416.83Zm-17.53-2c3.66.15,14.8.22,17.11.24.57-.72,1.1-1.39,1.61-2,4.06-5,5.74-7.12,2.93-12.74-.34-.68-1-1.53-3.27-1C304.11,400.93,293.24,412.13,292.27,414.88Z"/><path class="cls-6" d="M187,386c-2.82-5.64-15.75-8.75-22-14.29a52.58,52.58,0,0,0,11.44,16.46c-3.26,2.45-6.74,2.85-10.39,4.66,6.94.16,10.18,5.34,15.24,4.07C185.28,395.87,188.72,389.48,187,386Z"/><path class="cls-2" d="M179.67,397.94c-2.13,0-4-.93-5.94-1.91a17.26,17.26,0,0,0-7.72-2.36.86.86,0,0,1-.36-1.62,36.45,36.45,0,0,1,4.28-1.72,23.92,23.92,0,0,0,5.16-2.29,53.85,53.85,0,0,1-10.89-16,.86.86,0,0,1,1.35-1c2.61,2.32,6.52,4.24,10.3,6.1,5.22,2.56,10.15,5,11.88,8.45h0c.87,1.73.72,4.13-.4,6.56-1.31,2.84-3.55,5-5.85,5.55A7.44,7.44,0,0,1,179.67,397.94Zm-10.41-5.56a24.74,24.74,0,0,1,5.24,2.11c2.38,1.19,4.26,2.13,6.57,1.55,1.78-.45,3.63-2.26,4.71-4.6a6.17,6.17,0,0,0,.42-5.08h0c-1.47-2.94-6.15-5.24-11.1-7.67a77.83,77.83,0,0,1-7.82-4.21A52.13,52.13,0,0,0,177,387.54a.86.86,0,0,1-.08,1.3,22.56,22.56,0,0,1-6.44,3.1Z"/><path class="cls-2" d="M434.19,367.71c-2.41-.08-4.41,1.22-4.47,2.89s1.86,3.09,4.28,3.16Z"/><path class="cls-2" d="M437.71,391.42c-2.5,1.47-3.7,4.06-2.69,5.79s3.87,1.94,6.37.47Z"/></svg>