<svg xmlns="http://www.w3.org/2000/svg" viewBox="0 0 680 680"><defs><style>.cls-1{fill:#231f20;}</style></defs><title>camelot_collective</title><g id="Layer_3" data-name="Layer 3"><path class="cls-1" d="M101.37,276.89a24,24,0,0,1,4.46,3.18,14.49,14.49,0,0,1,3,3.81,12,12,0,0,1,1.37,4.48,14.21,14.21,0,0,1-.52,5.24,13.21,13.21,0,0,1-3.42,6.18,13.8,13.8,0,0,1-5.52,3.27,19.35,19.35,0,0,1-6.84.81,34.78,34.78,0,0,1-7.41-1.21,35.13,35.13,0,0,1-7-2.73A19.25,19.25,0,0,1,74,295.8,13.9,13.9,0,0,1,71,290.31a12.52,12.52,0,0,1,.14-6.87,10.58,10.58,0,0,1,1-2.4,9,9,0,0,1,1.6-2.08,7.91,7.91,0,0,1,2.1-1.47,5.76,5.76,0,0,1,2.48-.57l-4.39-1.2,1.45-5.31,14.09,3.85L88,279.58a14.53,14.53,0,0,0-3.55-.51,9.12,9.12,0,0,0-3.38.55,7.82,7.82,0,0,0-2.79,1.78A7.65,7.65,0,0,0,76.61,289a9.19,9.19,0,0,0,2.53,3.45A16.33,16.33,0,0,0,83.25,295a33.85,33.85,0,0,0,4.89,1.75,34.39,34.39,0,0,0,5.13,1,16.76,16.76,0,0,0,4.86-.1A8.82,8.82,0,0,0,102,296a6.92,6.92,0,0,0,2.36-3.8,7.15,7.15,0,0,0-.79-6.21,17.8,17.8,0,0,0-5.37-4.82Z"/><path class="cls-1" d="M107.43,270.36a7.1,7.1,0,0,1-3.26-3,10.61,10.61,0,0,1-1.25-4.39,17.17,17.17,0,0,1,.47-5.16,25.7,25.7,0,0,1,1.88-5.28q.68-1.41,1.22-2.4t1.15-2l-1-.47a3.57,3.57,0,0,0-3.63.1,8.08,8.08,0,0,0-2.87,3.49,19.35,19.35,0,0,0-1.57,4.86,20.3,20.3,0,0,0-.29,5.27l-5.39.16a26.31,26.31,0,0,1,.31-6.33,23.59,23.59,0,0,1,2-6.32,19.59,19.59,0,0,1,2.37-3.76,11.75,11.75,0,0,1,3.19-2.8,8.61,8.61,0,0,1,3.9-1.19,9.25,9.25,0,0,1,4.56,1.05l16.65,8-2.63,5.46-3.67-1.77a9.44,9.44,0,0,1,1.3,5.37,14.87,14.87,0,0,1-1.51,6,13,13,0,0,1-2.14,3.19,8.68,8.68,0,0,1-2.82,2.07,8.12,8.12,0,0,1-3.34.7A8.38,8.38,0,0,1,107.43,270.36Zm7.71-8.85a12.15,12.15,0,0,0,1.06-3.25,10,10,0,0,0,.07-3.07,6.22,6.22,0,0,0-.94-2.57,4.81,4.81,0,0,0-2-1.73l-.93-.45a20,20,0,0,0-1.42,2.34q-.58,1.13-1,2a15.29,15.29,0,0,0-1.89,6.62q.07,2.58,1.63,3.33Q112.86,266.25,115.14,261.51Z"/><path class="cls-1" d="M146.05,219.94l-3.57,5-15.34-11a7.78,7.78,0,0,0-2.57-1.36,1.42,1.42,0,0,0-1.58.6,2.28,2.28,0,0,0,.31,3.08,27.64,27.64,0,0,0,4.58,3.89l11.91,8.56-3.57,5-15.34-11a7.51,7.51,0,0,0-2.58-1.35,1.47,1.47,0,0,0-1.6.63,2.22,2.22,0,0,0,.35,3,29.43,29.43,0,0,0,4.6,3.87l11.91,8.56-3.57,5-22.38-16.08,3.61-5,3.24,2.33a7.37,7.37,0,0,1-1.69-3.58,4.79,4.79,0,0,1,1-3.45,4.27,4.27,0,0,1,2.61-1.78,5.59,5.59,0,0,1,3.37.4,10.24,10.24,0,0,1-1.23-3.53,5,5,0,0,1,1.19-3.35,5.07,5.07,0,0,1,4.24-2.32q2.58,0,6,2.45Z"/><path class="cls-1" d="M146.51,201.86a7.49,7.49,0,0,0,5.26,1.44,9.19,9.19,0,0,0,5.63-3,13.25,13.25,0,0,0,3-4.32,12.33,12.33,0,0,0,.95-4.43l5.26.84A14.36,14.36,0,0,1,165.2,199a20.83,20.83,0,0,1-3.91,5.27,16.34,16.34,0,0,1-5,3.44,14.37,14.37,0,0,1-5.47,1.26,13.63,13.63,0,0,1-5.43-1,14.62,14.62,0,0,1-4.94-3.34,15.54,15.54,0,0,1-3.34-4.84,13.6,13.6,0,0,1-1.14-5.33,13.4,13.4,0,0,1,1.11-5.36,16.64,16.64,0,0,1,8.5-8.39,12.83,12.83,0,0,1,5.63-1,15.46,15.46,0,0,1,5.87,1.6,21.23,21.23,0,0,1,5.75,4.22Zm7.65-15.23a6.46,6.46,0,0,0-5-1.08,8.74,8.74,0,0,0-4.8,2.51,8.87,8.87,0,0,0-2.55,4.82,6.42,6.42,0,0,0,1,5Z"/><path class="cls-1" d="M194.49,175.5l-15,10.9L176.29,182l4.88-3.55-16.24-22.3-4.88,3.55-3.24-4.45,9.82-7.15,19.48,26.75,5.14-3.74Z"/><path class="cls-1" d="M223.16,143.16a16.07,16.07,0,0,1,1.81,5.66,13,13,0,0,1-.49,5.38,13.41,13.41,0,0,1-2.67,4.75,15.89,15.89,0,0,1-4.77,3.7,15.7,15.7,0,0,1-5.71,1.79,13.41,13.41,0,0,1-5.43-.51,13,13,0,0,1-4.7-2.66,17.19,17.19,0,0,1-5.41-10.34,13.18,13.18,0,0,1,.45-5.44,13,13,0,0,1,2.66-4.76,15.92,15.92,0,0,1,4.73-3.66,16.1,16.1,0,0,1,5.75-1.83,12.91,12.91,0,0,1,10.17,3.26A16.18,16.18,0,0,1,223.16,143.16ZM217.74,146a10.82,10.82,0,0,0-2.15-2.87,7.78,7.78,0,0,0-6-2.2,9,9,0,0,0-6.15,3.22A7.69,7.69,0,0,0,202,147a8.25,8.25,0,0,0-.12,3.29,10.81,10.81,0,0,0,1.13,3.4,10.44,10.44,0,0,0,2.16,2.88,8.7,8.7,0,0,0,2.75,1.73,7.2,7.2,0,0,0,3.17.46,9.36,9.36,0,0,0,6.15-3.22,7.48,7.48,0,0,0,1.46-2.89,8.42,8.42,0,0,0,.17-3.26A10.47,10.47,0,0,0,217.74,146Z"/><path class="cls-1" d="M259.39,134.58a10.19,10.19,0,0,1-.92,7.63,10.84,10.84,0,0,1-6.08,4.85,11.9,11.9,0,0,1-4.45.73,10,10,0,0,1-4-.95,9.86,9.86,0,0,1-3.22-2.49,11.85,11.85,0,0,1-2.2-3.85l-4-11.25-5.88,2.09-1.84-5.18,5.88-2.08L229,113.69l5.77-2L238.5,122l10.9-3.86,1.84,5.18-10.9,3.86,4,11.27a5.42,5.42,0,0,0,2.55,3.31,4.63,4.63,0,0,0,3.67.08,4.78,4.78,0,0,0,3.15-2.72,6.65,6.65,0,0,0,.21-3.93Z"/><path class="cls-1" d="M331.93,119.69A24,24,0,0,1,330.4,125a14.48,14.48,0,0,1-2.6,4.11,12,12,0,0,1-3.78,2.77,14.2,14.2,0,0,1-5.12,1.24,13.21,13.21,0,0,1-7-1.19,13.79,13.79,0,0,1-4.91-4.13,19.37,19.37,0,0,1-3-6.19,36,36,0,0,1-1-14.91,19.27,19.27,0,0,1,2.1-6.52,13.91,13.91,0,0,1,4.17-4.72,12.52,12.52,0,0,1,6.53-2.13,10.61,10.61,0,0,1,2.59.15,9.06,9.06,0,0,1,2.49.82,7.91,7.91,0,0,1,2.08,1.5,5.76,5.76,0,0,1,1.35,2.16L324,93.37l5.49-.38,1,14.57-5.49.38a14.53,14.53,0,0,0-.69-3.52,9.11,9.11,0,0,0-1.63-3,7.8,7.8,0,0,0-2.6-2,7.66,7.66,0,0,0-7.7,1,9.18,9.18,0,0,0-2.42,3.52,16.31,16.31,0,0,0-1.08,4.73,33.8,33.8,0,0,0,0,5.2,34.3,34.3,0,0,0,.76,5.17,16.77,16.77,0,0,0,1.7,4.55,8.83,8.83,0,0,0,2.89,3.14,6.92,6.92,0,0,0,4.37,1,7.15,7.15,0,0,0,5.6-2.79,17.8,17.8,0,0,0,2.78-6.66Z"/><path class="cls-1" d="M369.34,119.07a16.1,16.1,0,0,1-1.37,5.78,12.94,12.94,0,0,1-3.2,4.35A13.45,13.45,0,0,1,360,131.9a15.88,15.88,0,0,1-6,.7,15.7,15.7,0,0,1-5.81-1.42,13.42,13.42,0,0,1-4.38-3.24,13,13,0,0,1-2.65-4.71,17.18,17.18,0,0,1,.71-11.64,12.91,12.91,0,0,1,7.94-7.13,17.19,17.19,0,0,1,11.81.72,13,13,0,0,1,4.38,3.26,13.18,13.18,0,0,1,2.64,4.78A16.19,16.19,0,0,1,369.34,119.07Zm-6.11-.36a10.82,10.82,0,0,0-.36-3.57,7.78,7.78,0,0,0-4-5,9,9,0,0,0-6.93-.42,7.73,7.73,0,0,0-2.7,1.72,8.25,8.25,0,0,0-1.81,2.75,10.85,10.85,0,0,0-.79,3.5,10.45,10.45,0,0,0,.36,3.58,8.7,8.7,0,0,0,1.46,2.91,7.21,7.21,0,0,0,2.47,2,9.37,9.37,0,0,0,6.93.42,7.47,7.47,0,0,0,2.75-1.72,8.44,8.44,0,0,0,1.83-2.71A10.47,10.47,0,0,0,363.23,118.72Z"/><path class="cls-1" d="M398.64,137.88l-18.16-3.57,1.06-5.4,5.92,1.16L392.78,103l-5.92-1.16,1.06-5.4,11.93,2.34-6.38,32.47,6.24,1.23Z"/><path class="cls-1" d="M432.74,148l-17.51-6,1.79-5.2,5.7,2,9-26.09-5.7-2,1.79-5.2,11.49,4-10.76,31.29,6,2.07Z"/><path class="cls-1" d="M454.56,144.5a7.49,7.49,0,0,0,.25,5.45,9.19,9.19,0,0,0,4.55,4.44,13.27,13.27,0,0,0,5,1.53,12.33,12.33,0,0,0,4.51-.47l.83,5.27a14.36,14.36,0,0,1-6.66.66,20.83,20.83,0,0,1-6.22-2.09,16.35,16.35,0,0,1-4.81-3.65,14.38,14.38,0,0,1-2.89-4.81,13.62,13.62,0,0,1-.74-5.47,14.6,14.6,0,0,1,1.65-5.73,15.56,15.56,0,0,1,3.56-4.67,13.61,13.61,0,0,1,4.72-2.74,13.4,13.4,0,0,1,5.44-.61,16.65,16.65,0,0,1,10.61,5.49,12.83,12.83,0,0,1,2.65,5.06,15.46,15.46,0,0,1,.3,6.08,21.25,21.25,0,0,1-2.23,6.78Zm16.85,2.57a6.45,6.45,0,0,0-.5-5.06,8.74,8.74,0,0,0-3.88-3.79,8.87,8.87,0,0,0-5.37-.93,6.42,6.42,0,0,0-4.42,2.54Z"/><path class="cls-1" d="M499.7,180.6a14.41,14.41,0,0,1-6.66-.3,20.27,20.27,0,0,1-5.75-2.91,18.16,18.16,0,0,1-4.52-4.49,13.6,13.6,0,0,1-2.21-5.15,12.53,12.53,0,0,1,.18-5.45,16.09,16.09,0,0,1,2.59-5.45,15.8,15.8,0,0,1,4.23-4.12,14.16,14.16,0,0,1,5-2.09,12.88,12.88,0,0,1,5.16,0,12.48,12.48,0,0,1,4.81,2.1,9.87,9.87,0,0,1,3.33,3.83,6.88,6.88,0,0,1,.47,4.58l2.32-3.25,4.48,3.19-7.45,10.45-4.48-3.19a8.27,8.27,0,0,0,1.75-5.89A6.68,6.68,0,0,0,500,157.7a7.68,7.68,0,0,0-2.47-1.13,7.55,7.55,0,0,0-3-.17,8.72,8.72,0,0,0-3.19,1.15,11.13,11.13,0,0,0-4.69,6.53,8,8,0,0,0,0,3.37,7.89,7.89,0,0,0,1.36,3,10.57,10.57,0,0,0,2.44,2.41,13.21,13.21,0,0,0,4.76,2.25,12.35,12.35,0,0,0,4.52.19Z"/><path class="cls-1" d="M530.55,202.18a10.18,10.18,0,0,1-7.26,2.55,10.84,10.84,0,0,1-7-3.31,11.9,11.9,0,0,1-2.62-3.67,10,10,0,0,1-.9-4,9.85,9.85,0,0,1,.81-4A11.85,11.85,0,0,1,516,186.1l8.33-8.54-4.47-4.36,3.84-3.94,4.47,4.36,7.7-7.9,4.38,4.27-7.7,7.9,8.28,8.07L537,189.91l-8.28-8.07-8.35,8.56a5.43,5.43,0,0,0-1.85,3.76,4.63,4.63,0,0,0,1.54,3.33,4.78,4.78,0,0,0,3.83,1.63,6.65,6.65,0,0,0,3.62-1.55Z"/><path class="cls-1" d="M543.26,232.24l-11-14.9,4.43-3.26,3.61,4.91,13.33-9.82L550,204.26l4.43-3.26,7.24,9.83L544,223.91l3.74,5.07Zm21.74-23-4.42-6,6-4.42,4.42,6Z"/><path class="cls-1" d="M587.12,254.24l-29.21,3.17L554.7,251l20.15-21.38,2.91,5.85-15.43,15.8,21.88-2.83Z"/><path class="cls-1" d="M578.09,275.28a7.48,7.48,0,0,0-3.81,3.91,9.19,9.19,0,0,0-.14,6.36,13.27,13.27,0,0,0,2.33,4.73,12.33,12.33,0,0,0,3.42,3l-3.28,4.2a14.37,14.37,0,0,1-5-4.42,20.81,20.81,0,0,1-2.72-6,16.33,16.33,0,0,1-.62-6,14.37,14.37,0,0,1,1.54-5.4,13.63,13.63,0,0,1,3.49-4.28,14.6,14.6,0,0,1,5.31-2.71,15.54,15.54,0,0,1,5.85-.58,13.59,13.59,0,0,1,5.22,1.58,13.4,13.4,0,0,1,4.16,3.56,16.64,16.64,0,0,1,3.24,11.5,12.83,12.83,0,0,1-1.89,5.39,15.47,15.47,0,0,1-4.24,4.37,21.27,21.27,0,0,1-6.48,3Zm9.63,14.06a6.46,6.46,0,0,0,3.35-3.82,8.74,8.74,0,0,0,.12-5.42,8.88,8.88,0,0,0-3-4.56,6.42,6.42,0,0,0-4.87-1.49Z"/><path class="cls-1" d="M340.2,494.31c-46.19,0-89.66-15.89-122.42-44.74-33.12-29.18-51.36-68.1-51.36-109.6a139,139,0,0,1,2.34-25.33c6.65-35.86,27.55-68.64,58.85-92.29s71.33-36.72,112.59-36.72c46.19,0,89.66,15.89,122.42,44.74C495.74,259.55,514,298.47,514,340a138.85,138.85,0,0,1-2.43,25.79c-6.76,35.75-27.69,68.42-59,92S381.37,494.31,340.2,494.31ZM176.76,356.07c9.19,71.63,79,127.5,163.44,127.5,39.38,0,77.49-12.37,107.3-34.83,29.2-22,48.71-52.28,54.94-85.27l.09-.47-.08,0c-6.22-31.61-27-59.82-58.55-79.43-28.31-17.6-63.43-26.84-93.95-24.7-52.92,3.7-88.88,31.07-90.52,68.47,16.09-21.55,42.84-32.86,78.18-32.86,20.17,0,42.38,6,59.42,16.12,20.53,12.16,31.83,29.16,31.83,47.87,0,44.82-39.92,77.72-99.33,81.87-3.06.21-6.17.32-9.31.32h0c-23.78,0-49.46-6.06-72.55-17a171.19,171.19,0,0,1-17.07-9.29C206.21,399.23,187.75,379.09,176.76,356.07Zm-.22-30.27c6.29,31.5,27.05,59.59,58.49,79.13,28.31,17.6,63.43,26.85,93.94,24.7h0c45.58-3.18,78.57-23.93,87.9-53.52a58,58,0,0,0,2.62-15C403.4,382.72,376.65,394,341.32,394c-20.17,0-42.38-6-59.42-16.12-20.53-12.16-31.83-29.16-31.83-47.87,0-44.82,39.92-77.72,99.33-81.87h0c3.06-.21,6.17-.32,9.31-.32h0c29.84,0,62.68,9.54,89.62,26.29,26.33,16.37,45.75,38.53,56.32,63.85-1.22-78.27-74.52-141.61-164.45-141.61-39.47,0-77.64,12.42-107.48,35-29.23,22.09-48.71,52.47-54.85,85.55Q177,321.32,176.54,325.8Zm85,16.22c9.75,25.84,49.88,41.26,79.73,41.26,25.59,0,59.36-6.42,76-36.78-9.75-25.84-49.88-41.26-79.73-41.26C312,305.25,278.25,311.67,261.59,342Z"/><path class="cls-1" d="M578.56,404.44a24,24,0,0,1-4.44-3.21,14.5,14.5,0,0,1-3-3.84,12,12,0,0,1-1.34-4.49,14.24,14.24,0,0,1,.55-5.24,13.22,13.22,0,0,1,3.46-6.16,13.81,13.81,0,0,1,5.55-3.23,19.34,19.34,0,0,1,6.85-.76,35.94,35.94,0,0,1,14.39,4,19.26,19.26,0,0,1,5.43,4.17,13.9,13.9,0,0,1,3,5.51,12.51,12.51,0,0,1-.19,6.87,10.67,10.67,0,0,1-1,2.39,9,9,0,0,1-1.61,2.07,7.9,7.9,0,0,1-2.11,1.45,5.76,5.76,0,0,1-2.49.55l4.38,1.23-1.49,5.3-14.06-3.95,1.49-5.3a14.55,14.55,0,0,0,3.55.54,9.13,9.13,0,0,0,3.39-.52,7.8,7.8,0,0,0,2.8-1.76,7.66,7.66,0,0,0,1.7-7.57,9.21,9.21,0,0,0-2.5-3.47,16.35,16.35,0,0,0-4.09-2.61,33.74,33.74,0,0,0-4.88-1.78,34.3,34.3,0,0,0-5.12-1,16.76,16.76,0,0,0-4.86.06,8.82,8.82,0,0,0-3.93,1.66,6.91,6.91,0,0,0-2.38,3.78,7.15,7.15,0,0,0,.74,6.21,17.78,17.78,0,0,0,5.33,4.86Z"/><path class="cls-1" d="M572.44,410.93a7.1,7.1,0,0,1,3.24,3,10.62,10.62,0,0,1,1.22,4.4,17.15,17.15,0,0,1-.5,5.15,25.69,25.69,0,0,1-1.91,5.27q-.69,1.41-1.24,2.39t-1.16,2l1,.48a3.56,3.56,0,0,0,3.63-.08,8.07,8.07,0,0,0,2.89-3.47,19.36,19.36,0,0,0,1.61-4.85,20.38,20.38,0,0,0,.33-5.27l5.39-.12a26.28,26.28,0,0,1-.36,6.33,23.54,23.54,0,0,1-2.09,6.3,19.5,19.5,0,0,1-2.4,3.75,11.73,11.73,0,0,1-3.21,2.77,8.6,8.6,0,0,1-3.91,1.16,9.24,9.24,0,0,1-4.56-1.08l-16.59-8.15,2.67-5.44,3.66,1.8a9.43,9.43,0,0,1-1.27-5.38,14.86,14.86,0,0,1,1.56-6,12.92,12.92,0,0,1,2.17-3.17,8.68,8.68,0,0,1,2.84-2,8.12,8.12,0,0,1,3.35-.68A8.39,8.39,0,0,1,572.44,410.93Zm-7.78,8.8a12.16,12.16,0,0,0-1.08,3.24,10,10,0,0,0-.09,3.07,6.23,6.23,0,0,0,.92,2.57,4.8,4.8,0,0,0,2,1.74l.93.45a19.94,19.94,0,0,0,1.44-2.32q.59-1.13,1-2a15.31,15.31,0,0,0,1.93-6.61q0-2.58-1.61-3.34Q567,415,564.66,419.73Z"/><path class="cls-1" d="M533.47,461.09l3.61-4.95,15.27,11.13a7.79,7.79,0,0,0,2.56,1.38,1.42,1.42,0,0,0,1.58-.59,2.28,2.28,0,0,0-.29-3.09,27.67,27.67,0,0,0-4.55-3.92l-11.85-8.64,3.61-4.95,15.27,11.13a7.53,7.53,0,0,0,2.57,1.36,1.46,1.46,0,0,0,1.61-.62,2.22,2.22,0,0,0-.33-3,29.5,29.5,0,0,0-4.57-3.9l-11.85-8.64,3.61-4.95L572,455.05l-3.64,5-3.23-2.35a7.37,7.37,0,0,1,1.66,3.59,4.79,4.79,0,0,1-1,3.45,4.27,4.27,0,0,1-2.62,1.77,5.59,5.59,0,0,1-3.37-.42,10.22,10.22,0,0,1,1.21,3.53,5,5,0,0,1-1.21,3.34,5.07,5.07,0,0,1-4.25,2.3q-2.58,0-6-2.49Z"/><path class="cls-1" d="M532.88,479.18a7.49,7.49,0,0,0-5.25-1.48,9.18,9.18,0,0,0-5.65,2.92,13.26,13.26,0,0,0-3,4.3,12.37,12.37,0,0,0-1,4.43l-5.26-.87a14.36,14.36,0,0,1,1.48-6.53,20.85,20.85,0,0,1,3.95-5.25,16.33,16.33,0,0,1,5-3.41,14.35,14.35,0,0,1,5.48-1.22,13.64,13.64,0,0,1,5.43,1,14.61,14.61,0,0,1,4.92,3.37,15.56,15.56,0,0,1,3.31,4.86,13.6,13.6,0,0,1,1.11,5.34A13.4,13.4,0,0,1,542.2,492a16.65,16.65,0,0,1-8.55,8.34,12.84,12.84,0,0,1-5.63.92,15.45,15.45,0,0,1-5.86-1.64,21.22,21.22,0,0,1-5.73-4.26Zm-7.75,15.18a6.45,6.45,0,0,0,5,1.12A8.73,8.73,0,0,0,534.9,493a8.87,8.87,0,0,0,2.58-4.8,6.43,6.43,0,0,0-1-5Z"/><path class="cls-1" d="M484.74,505.24l15-10.81L503,498.9l-4.9,3.52,16.11,22.4,4.9-3.52,3.21,4.47-9.87,7.1L493.11,506,488,509.7Z"/><path class="cls-1" d="M455.88,537.41a16.1,16.1,0,0,1-1.78-5.67,13,13,0,0,1,.52-5.38,13.41,13.41,0,0,1,2.7-4.74,17,17,0,0,1,10.51-5.43,13.43,13.43,0,0,1,5.42.55,13,13,0,0,1,4.68,2.69,17.19,17.19,0,0,1,5.35,10.37,13.19,13.19,0,0,1-.48,5.44,13.05,13.05,0,0,1-2.69,4.75,17.18,17.18,0,0,1-10.51,5.43,13,13,0,0,1-5.43-.56,13.18,13.18,0,0,1-4.72-2.76A16.18,16.18,0,0,1,455.88,537.41Zm5.43-2.82a10.84,10.84,0,0,0,2.13,2.88,7.78,7.78,0,0,0,6,2.24,9,9,0,0,0,6.17-3.18,7.72,7.72,0,0,0,1.44-2.86,8.25,8.25,0,0,0,.14-3.29,10.85,10.85,0,0,0-1.11-3.41,10.46,10.46,0,0,0-2.14-2.9,8.71,8.71,0,0,0-2.74-1.75,7.21,7.21,0,0,0-3.17-.48,9.37,9.37,0,0,0-6.17,3.18,7.46,7.46,0,0,0-1.48,2.88,8.41,8.41,0,0,0-.19,3.26A10.44,10.44,0,0,0,461.31,534.59Z"/><path class="cls-1" d="M419.6,545.79a10.18,10.18,0,0,1,1-7.63,10.83,10.83,0,0,1,6.1-4.82,11.88,11.88,0,0,1,4.45-.7,10,10,0,0,1,4,1,9.86,9.86,0,0,1,3.21,2.5,11.87,11.87,0,0,1,2.18,3.87l3.93,11.27,5.89-2.05,1.81,5.19-5.89,2.05,3.63,10.42-5.78,2-3.63-10.42-10.92,3.8-1.81-5.19,10.92-3.8L434.68,542a5.42,5.42,0,0,0-2.54-3.33,4.63,4.63,0,0,0-3.67-.1,4.78,4.78,0,0,0-3.16,2.7,6.64,6.64,0,0,0-.23,3.93Z"/><path class="cls-1" d="M347,560.29a24,24,0,0,1,1.56-5.26,14.47,14.47,0,0,1,2.62-4.1,12,12,0,0,1,3.79-2.75,14.2,14.2,0,0,1,5.12-1.22,13.21,13.21,0,0,1,7,1.22,13.8,13.8,0,0,1,4.89,4.16,19.34,19.34,0,0,1,3,6.21,34.76,34.76,0,0,1,1.27,7.4,35.12,35.12,0,0,1-.3,7.52,19.29,19.29,0,0,1-2.13,6.51,13.92,13.92,0,0,1-4.19,4.7,12.52,12.52,0,0,1-6.54,2.1,10.62,10.62,0,0,1-2.59-.16,9.06,9.06,0,0,1-2.49-.83,7.88,7.88,0,0,1-2.07-1.51,5.76,5.76,0,0,1-1.34-2.17l.29,4.54-5.49.35-.94-14.58,5.49-.35a14.49,14.49,0,0,0,.67,3.53,9.11,9.11,0,0,0,1.62,3,7.8,7.8,0,0,0,2.59,2.05,7.66,7.66,0,0,0,7.7-.91,9.18,9.18,0,0,0,2.44-3.51,16.27,16.27,0,0,0,1.1-4.73,33.8,33.8,0,0,0,.06-5.2,34.34,34.34,0,0,0-.74-5.17,16.77,16.77,0,0,0-1.67-4.56,8.84,8.84,0,0,0-2.87-3.15,6.92,6.92,0,0,0-4.36-1,7.15,7.15,0,0,0-5.61,2.76,17.78,17.78,0,0,0-2.82,6.64Z"/><path class="cls-1" d="M309.56,560.72a16.08,16.08,0,0,1,1.4-5.77,13,13,0,0,1,3.22-4.34,13.43,13.43,0,0,1,4.75-2.66,15.89,15.89,0,0,1,6-.67,15.71,15.71,0,0,1,5.8,1.45A13.42,13.42,0,0,1,335.1,552a13,13,0,0,1,2.62,4.72,17.19,17.19,0,0,1-.77,11.64,12.9,12.9,0,0,1-8,7.09,15.9,15.9,0,0,1-5.94.66,16.09,16.09,0,0,1-5.86-1.44,13,13,0,0,1-4.36-3.28,13.17,13.17,0,0,1-2.62-4.8A16.18,16.18,0,0,1,309.56,560.72Zm6.11.39a10.84,10.84,0,0,0,.34,3.57,7.78,7.78,0,0,0,4,5,9,9,0,0,0,6.92.46,7.69,7.69,0,0,0,2.71-1.71,8.24,8.24,0,0,0,1.82-2.74,10.82,10.82,0,0,0,.81-3.49,10.44,10.44,0,0,0-.34-3.58,8.7,8.7,0,0,0-1.45-2.92,7.2,7.2,0,0,0-2.46-2,9.36,9.36,0,0,0-6.92-.46,7.47,7.47,0,0,0-2.76,1.7,8.42,8.42,0,0,0-1.85,2.7A10.47,10.47,0,0,0,315.67,561.11Z"/><path class="cls-1" d="M280.38,541.76l18.14,3.67-1.09,5.39-5.91-1.19-5.47,27,5.91,1.2-1.09,5.39L279,580.84l6.55-32.43-6.23-1.26Z"/><path class="cls-1" d="M246.33,531.47l17.47,6.12L262,542.78l-5.69-2-9.12,26,5.69,2L251.06,574l-11.47-4,10.93-31.23-6-2.1Z"/><path class="cls-1" d="M224.49,534.82a7.49,7.49,0,0,0-.22-5.45,9.19,9.19,0,0,0-4.53-4.47,13.28,13.28,0,0,0-5-1.56,12.36,12.36,0,0,0-4.51.44l-.8-5.27a14.36,14.36,0,0,1,6.67-.62,20.82,20.82,0,0,1,6.21,2.12,16.32,16.32,0,0,1,4.79,3.68,14.36,14.36,0,0,1,2.86,4.83,13.65,13.65,0,0,1,.71,5.48,14.6,14.6,0,0,1-1.68,5.72,15.55,15.55,0,0,1-3.59,4.65,13.59,13.59,0,0,1-4.73,2.71,13.39,13.39,0,0,1-5.44.58,16.64,16.64,0,0,1-10.58-5.55A12.83,12.83,0,0,1,202,537a15.46,15.46,0,0,1-.26-6.08A21.25,21.25,0,0,1,204,524.2Zm-16.84-2.66a6.45,6.45,0,0,0,.48,5.06A8.73,8.73,0,0,0,212,541a8.87,8.87,0,0,0,5.36,1,6.42,6.42,0,0,0,4.43-2.51Z"/><path class="cls-1" d="M179.55,498.45a14.41,14.41,0,0,1,6.66.34,20.25,20.25,0,0,1,5.74,2.94,18.17,18.17,0,0,1,4.49,4.52,13.62,13.62,0,0,1,2.18,5.17,12.55,12.55,0,0,1-.21,5.45,16.09,16.09,0,0,1-2.63,5.43,15.8,15.8,0,0,1-4.25,4.1,14.18,14.18,0,0,1-5,2.06,12.92,12.92,0,0,1-5.16,0,12.48,12.48,0,0,1-4.8-2.13,9.88,9.88,0,0,1-3.31-3.85,6.88,6.88,0,0,1-.44-4.58l-2.34,3.24L166,517.87l7.51-10.41,4.46,3.22a8.27,8.27,0,0,0-1.79,5.88,6.68,6.68,0,0,0,2.92,4.79,7.66,7.66,0,0,0,2.47,1.14,7.53,7.53,0,0,0,3,.19,8.71,8.71,0,0,0,3.19-1.13,11.13,11.13,0,0,0,4.73-6.5,8,8,0,0,0,0-3.37,7.9,7.9,0,0,0-1.35-3,10.59,10.59,0,0,0-2.42-2.42,13.22,13.22,0,0,0-4.75-2.28,12.32,12.32,0,0,0-4.52-.22Z"/><path class="cls-1" d="M148.85,476.69a10.19,10.19,0,0,1,7.27-2.5,10.83,10.83,0,0,1,7,3.35,11.91,11.91,0,0,1,2.59,3.69,10,10,0,0,1,.88,4,9.87,9.87,0,0,1-.84,4,11.86,11.86,0,0,1-2.51,3.66l-8.39,8.49,4.44,4.38-3.87,3.91L151,505.26l-7.75,7.85-4.35-4.3,7.75-7.85-8.23-8.13,3.87-3.91,8.23,8.13,8.4-8.51a5.42,5.42,0,0,0,1.87-3.74,4.63,4.63,0,0,0-1.52-3.34,4.78,4.78,0,0,0-3.82-1.65,6.64,6.64,0,0,0-3.63,1.53Z"/><path class="cls-1" d="M114.46,469.41l4.38,6-6,4.38-4.38-6Zm21.89-22.85,10.88,15-4.45,3.23-3.58-4.93-13.4,9.73,3.58,4.93-4.45,3.23-7.18-9.88,17.85-13-3.7-5.1Z"/><path class="cls-1" d="M92.64,424.25l29.23-3,3.17,6.48L104.74,449l-2.87-5.87,15.54-15.69-21.9,2.67Z"/><path class="cls-1" d="M101.83,403.27a7.49,7.49,0,0,0,3.84-3.88,9.19,9.19,0,0,0,.18-6.36,13.24,13.24,0,0,0-2.29-4.75,12.35,12.35,0,0,0-3.4-3l3.31-4.18a14.37,14.37,0,0,1,5,4.45,20.82,20.82,0,0,1,2.68,6,16.3,16.3,0,0,1,.57,6,14.36,14.36,0,0,1-1.58,5.38,13.64,13.64,0,0,1-3.53,4.25,14.6,14.6,0,0,1-5.33,2.67,15.56,15.56,0,0,1-5.85.54,13.59,13.59,0,0,1-5.21-1.62,13.4,13.4,0,0,1-4.13-3.59,16.65,16.65,0,0,1-3.15-11.52,12.85,12.85,0,0,1,1.93-5.37A15.46,15.46,0,0,1,89.13,384a21.24,21.24,0,0,1,6.5-2.95ZM92.3,389.13a6.45,6.45,0,0,0-3.38,3.8,8.74,8.74,0,0,0-.16,5.42,8.87,8.87,0,0,0,2.95,4.58,6.42,6.42,0,0,0,4.86,1.53Z"/></g></svg>