<svg xmlns="http://www.w3.org/2000/svg" viewBox="0 0 144 144"><defs><style>.cls-1{fill:#f1865d;stroke:#f1865d;stroke-miterlimit:10;stroke-width:9px;}.cls-2{fill:#fed8b5;}</style></defs><title>cat</title><g id="Layer_2" data-name="Layer 2"><path class="cls-1" d="M125.24,107c.37-2.91,2.46-15.54,2.68-16.92.79-2,9.43-24.64,8.06-34.19-.32-2.2-2.5-8.08-4-11.48-.39-1,.78-6.48,1.48-9.74.2-.93.4-1.85.58-2.73.78-3.79-1.29-7.95-2-9.3.42-1.87,1.73-8.65-.11-13.95a1.19,1.19,0,0,0-1.13-.8c-5,0-10.57,7.65-12.13,10l-9.33-.07c-1.35-2.24-5.9-9.06-10.49-8.67a1.19,1.19,0,0,0-1,.77c-1.57,4.25,1.23,11.82,1.95,13.62a94.34,94.34,0,0,0-2,9.59,10.61,10.61,0,0,0,3.3,9c0,1.05,0,2.18,0,2.93-13.22-.85-40.37,6.65-48.63,10.89-4.22-1.85-9.06-12-12-18.19-1-2-1.78-3.74-2.4-4.84C35.51,28.5,28.55,20.4,22.9,17.17c-6-3.4-10.52-3.45-13.51-.13-1.89,2.1-2,5.55-.36,9.46,1.46,3.45,4.39,7.17,7,7.26a2.83,2.83,0,0,0,2.59-1.38c.85-1.31,1-3.5.79-5.47C24.95,31.58,29.71,42.25,34,51.81a136.15,136.15,0,0,0,6.57,13.5C35.22,74,39.76,83.79,43.09,91c1.46,3.14,2.84,6.11,2.51,7.39-.16.61-.57.88-1.33,1.35a4.62,4.62,0,0,0-2.39,2.77c-.19.7,0,2.77,4,23.1.26,1.3.46,2.32.58,2.94A6.31,6.31,0,0,0,49.79,133c3.59,1.89,8.62.82,10.49,0a2,2,0,0,0,1.15-1.62c.34-2.06-1.17-6.25-2.38-7.33a10.07,10.07,0,0,0-3.61-1.93c-1-3.59-3-10.86,6.09-16.18a23.09,23.09,0,0,1,2.55-1.23l1.18-.52a9.21,9.21,0,0,1,.15,2.31,7.81,7.81,0,0,0,.64,4,119.71,119.71,0,0,0,8.64,12.93c6.91,9,9.19,9.16,10.05,9.2l1.58.09c1.08.07,2.2.14,3.32.14,3.06,0,6.07-.55,8.11-3.21a1.19,1.19,0,0,0,.16-1.18c-1.34-3.23-3.88-6.5-7-6-1,.17-1.86.27-2.4.34-1.57-2-7.28-10.16-7.44-12.09,0-.9,2.72-4,4.67-6.23A59.06,59.06,0,0,0,92,96.46c1-.09,1.94-.15,2.84-.21a28.52,28.52,0,0,0,8.23-1.33c3.13,8.65,4.17,10.27,7.67,15.71.74,1.15,1.6,2.49,2.6,4.09-.69,3.86-.27,9.94,1.52,13.34a6,6,0,0,0,4.63,2.44h.13a9.65,9.65,0,0,1,.27,1c.31,1.74,2.11,3.38,4.58,4.19a9,9,0,0,0,2.79.47,5.67,5.67,0,0,0,4-1.46c2.29-2.2,1.88-6.67-1.24-13.68A122.86,122.86,0,0,1,125.24,107Z"/><path class="cls-2" d="M125.24,107c.37-2.91,2.46-15.54,2.68-16.92.79-2,9.43-24.64,8.06-34.19-.32-2.2-2.5-8.08-4-11.48-.39-1,.78-6.48,1.48-9.74.2-.93.4-1.85.58-2.73.78-3.79-1.29-7.95-2-9.3.42-1.87,1.73-8.65-.11-13.95a1.19,1.19,0,0,0-1.13-.8c-5,0-10.57,7.65-12.13,10l-9.33-.07c-1.35-2.24-5.9-9.06-10.49-8.67a1.19,1.19,0,0,0-1,.77c-1.57,4.25,1.23,11.82,1.95,13.62a94.34,94.34,0,0,0-2,9.59,10.61,10.61,0,0,0,3.3,9c0,1.05,0,2.18,0,2.93-13.22-.85-40.37,6.65-48.63,10.89-4.22-1.85-9.06-12-12-18.19-1-2-1.78-3.74-2.4-4.84C35.51,28.5,28.55,20.4,22.9,17.17c-6-3.4-10.52-3.45-13.51-.13-1.89,2.1-2,5.55-.36,9.46,1.46,3.45,4.39,7.17,7,7.26a2.83,2.83,0,0,0,2.59-1.38c.85-1.31,1-3.5.79-5.47C24.95,31.58,29.71,42.25,34,51.81a136.15,136.15,0,0,0,6.57,13.5C35.22,74,39.76,83.79,43.09,91c1.46,3.14,2.84,6.11,2.51,7.39-.16.61-.57.88-1.33,1.35a4.62,4.62,0,0,0-2.39,2.77c-.19.7,0,2.77,4,23.1.26,1.3.46,2.32.58,2.94A6.31,6.31,0,0,0,49.79,133c3.59,1.89,8.62.82,10.49,0a2,2,0,0,0,1.15-1.62c.34-2.06-1.17-6.25-2.38-7.33a10.07,10.07,0,0,0-3.61-1.93c-1-3.59-3-10.86,6.09-16.18a23.09,23.09,0,0,1,2.55-1.23l1.18-.52a9.21,9.21,0,0,1,.15,2.31,7.81,7.81,0,0,0,.64,4,119.71,119.71,0,0,0,8.64,12.93c6.91,9,9.19,9.16,10.05,9.2l1.58.09c1.08.07,2.2.14,3.32.14,3.06,0,6.07-.55,8.11-3.21a1.19,1.19,0,0,0,.16-1.18c-1.34-3.23-3.88-6.5-7-6-1,.17-1.86.27-2.4.34-1.57-2-7.28-10.16-7.44-12.09,0-.9,2.72-4,4.67-6.23A59.06,59.06,0,0,0,92,96.46c1-.09,1.94-.15,2.84-.21a28.52,28.52,0,0,0,8.23-1.33c3.13,8.65,4.17,10.27,7.67,15.71.74,1.15,1.6,2.49,2.6,4.09-.69,3.86-.27,9.94,1.52,13.34a6,6,0,0,0,4.63,2.44h.13a9.65,9.65,0,0,1,.27,1c.31,1.74,2.11,3.38,4.58,4.19a9,9,0,0,0,2.79.47,5.67,5.67,0,0,0,4-1.46c2.29-2.2,1.88-6.67-1.24-13.68A122.86,122.86,0,0,1,125.24,107Zm-41.3-4c-3.55,4.08-5.4,6.29-5.25,8,.24,2.91,7.91,13.79,8.78,14.22a1.21,1.21,0,0,0,.64.12c.06,0,1.38-.13,3.18-.42,1.48-.24,3.08,1.74,4.11,3.88-2.07,2.06-5.41,1.85-8.93,1.62l-1.62-.1c-2.69-.13-12.66-13.5-16.71-20.89a6.08,6.08,0,0,1-.35-2.81,9.5,9.5,0,0,0-.38-3.47l.14-.08.47-.28.72-.43.46-.29.66-.44.44-.3.62-.45.41-.31.59-.47.38-.31.58-.5.33-.3.6-.57.26-.26q.42-.42.81-.86l1.18,0,2.54-.06.78,0,2.7-.08.66,0,2.9-.13.26,0q1.41-.08,2.81-.18l.31,0A79.34,79.34,0,0,1,83.94,103Zm33,24a19.1,19.1,0,0,1-1.55-7.71l.14.34.21.52.22.54.21.53.23.58.2.51.24.6.21.54.22.58.21.55.22.58.21.55.21.55.2.53.19.52.19.54.07.21A4,4,0,0,1,117,126.95Zm12.64,6c-1.08,1-3,.91-4.4.45-1.76-.57-2.85-1.63-3-2.33-.08-.45-2.24-6.73-2.78-8.12-1.38-3.61-3.8-9-3.86-9.13h0c-1.12-1.79-2.06-3.25-2.86-4.5-3.62-5.63-4.48-7-7.84-16.38a1.19,1.19,0,0,0-1.58-.7,24.13,24.13,0,0,1-8.62,1.6c-1.12.07-2.27.14-3.54.27-5,.51-10.41.62-15.16.72l-1.7,0a1.19,1.19,0,0,0-.88.41A22.73,22.73,0,0,1,71.77,97a30.64,30.64,0,0,1-6.54,4.56h0c-.66.36-1.37.66-2.11,1a25.19,25.19,0,0,0-2.81,1.37c-4.59,2.7-7.28,6.23-8,10.51a19.2,19.2,0,0,0,.84,8.51l.13.48a1.19,1.19,0,0,0,.79.82,9.07,9.07,0,0,1,3.36,1.63A10.61,10.61,0,0,1,59.1,131c-1.74.66-5.71,1.28-8.2,0a3.9,3.9,0,0,1-2.1-2.88c-.12-.62-.32-1.65-.58-2.95-1.1-5.59-4-20.31-4-22.11.18-.55.58-.82,1.31-1.27A4.59,4.59,0,0,0,47.9,99c.55-2.12-.79-5-2.65-9-3.18-6.83-7.53-16.19-2.3-24a1.19,1.19,0,0,0,0-1.3,122.5,122.5,0,0,1-6.81-13.85C31.12,39.56,25.41,26.77,18,23.17a1.19,1.19,0,0,0-1.59,1.6c.69,1.41,1,5,.17,6.31-.19.29-.33.31-.49.3-1,0-3.38-2.32-4.86-5.81-1.26-3-1.28-5.58-.06-6.94,2.16-2.4,5.62-2.21,10.55.6C26.94,22.22,33.63,30,36,34.07c.58,1,1.39,2.71,2.32,4.68,4.51,9.48,9,18.12,13.88,19.61a1.19,1.19,0,0,0,.92-.1C60.75,54,89.74,46.16,101.89,47.48a1.2,1.2,0,0,0,1.13-.54c.17-.27.58-.9.39-5.47a1.21,1.21,0,0,0-.47-.9,8.2,8.2,0,0,1-2.83-7.25c.37-3.16,2.07-9.58,2.09-9.64a1.2,1.2,0,0,0-.05-.77c-.9-2.13-2.9-8-2.28-11.42,2.68.6,6.08,5.05,7.76,8a1.19,1.19,0,0,0,1,.61l10.65.08a1.12,1.12,0,0,0,1-.55c1.45-2.26,6.08-8.39,9.64-9.3,1.38,5.3-.32,12.07-.34,12.14a1.2,1.2,0,0,0,.14.93s2.73,4.43,2,8c-.18.87-.38,1.79-.57,2.71-1.39,6.48-2,9.7-1.34,11.18,1.58,3.7,3.53,9.14,3.79,10.89,1.32,9.18-7.87,32.86-8,33.1a1.2,1.2,0,0,0-.07.24c-.07.42-1.25,7.54-2.05,12.64-1.42-4.66-2.71-10.49-2.63-11.41.06-.31.14-.76.23-1.31a82,82,0,0,1,2.14-9.29,1.33,1.33,0,0,0-.43-1.63,1.19,1.19,0,0,0-1.63.43c-.89,1.53-1.72,6-2.43,10.08-.09.54-.17,1-.23,1.28-.37,1.94,2.65,13.37,4.33,17.13a124.45,124.45,0,0,0,5,14.53C131.43,130,130.28,132.34,129.62,133Z"/><path class="cls-2" d="M119.19,35.66a1.19,1.19,0,0,0-.87-1.45A6.07,6.07,0,0,1,115.9,33c-.27-.23-.53-.48-.79-.73a7,7,0,0,0-2.78-1.93,1.19,1.19,0,0,0,.18-.23l1.66-2.87a1.19,1.19,0,0,0-1-1.79h-3.32a1.19,1.19,0,0,0-1,1.79l1.66,2.87a1.16,1.16,0,0,0,.1.14,7.28,7.28,0,0,0-3.73,2.46l-1.45,1.55a1.19,1.19,0,0,0,1.74,1.63l1.45-1.55c.92-1,1.89-1.87,2.81-1.77a4.17,4.17,0,0,1,2.08,1.41c.3.29.6.58.91.85a8.45,8.45,0,0,0,3.39,1.74,1.16,1.16,0,0,0,.29,0A1.19,1.19,0,0,0,119.19,35.66Z"/></g></svg>