<svg xmlns="http://www.w3.org/2000/svg" viewBox="0 0 144 144"><defs><style>.cls-1{fill:none;stroke:#a4dad0;stroke-linecap:round;stroke-linejoin:round;stroke-width:3px;}.cls-2{fill:#f59493;}.cls-3{fill:#808285;}</style></defs><title>cozy</title><g id="Layer_3" data-name="Layer 3"><path class="cls-1" d="M41.23,43.35A16.94,16.94,0,0,1,34,40.85c-2.09-1.49-3.59-4.07-3.12-6.6.53-2.81,3.29-4.72,6.08-5.38a29.18,29.18,0,0,1,8.56-.52c6.36.42,38.14-9.42,41.92-12,3.15-2.15,2.72-12.21,9.28-12.13,2.87,0,5.87,1.17,7.1,3.77,1.05,2.23,1.09,6.67.82,9.11"/><path class="cls-1" d="M36.07,43.55c-3,4.35.15,10.39,6.27,9.78,6.9-.68,9-9.17,11.07-12S87.67,27,100,28.12c4,.37,8.78,1.25,11.58-1.68,2-2.09,2.06-5.57.6-8.06a11.08,11.08,0,0,0-7-4.79"/><path class="cls-2" d="M46.94,72.13a4.59,4.59,0,0,0-3.66,1.46A6.08,6.08,0,0,0,42,77.71a5.73,5.73,0,0,0,1.41,4.15,5,5,0,0,0,3.8,1.46A6,6,0,0,0,49.37,83a14.7,14.7,0,0,0,1.69-.77,3.07,3.07,0,0,1,.82,1,3.19,3.19,0,0,1,.29,1.41,2.54,2.54,0,0,1-1.41,2.16,8.25,8.25,0,0,1-4.29.88,12.67,12.67,0,0,1-3.91-.59,8.71,8.71,0,0,1-3.19-1.81,8.53,8.53,0,0,1-2.15-3.1,11.49,11.49,0,0,1-.79-4.48,11.12,11.12,0,0,1,.76-4.26,9,9,0,0,1,2.08-3.12,8.73,8.73,0,0,1,3.08-1.92,10.84,10.84,0,0,1,3.78-.65,8.7,8.7,0,0,1,4.42.93,2.74,2.74,0,0,1,1.57,2.39,2.41,2.41,0,0,1-.4,1.39,3.31,3.31,0,0,1-.93.93,10.16,10.16,0,0,0-1.72-.9A5.61,5.61,0,0,0,46.94,72.13Z"/><path class="cls-2" d="M69.85,79.6A9.33,9.33,0,0,1,69.26,83a6.92,6.92,0,0,1-1.66,2.53A7,7,0,0,1,65,87.1a9.88,9.88,0,0,1-3.32.53,9.41,9.41,0,0,1-3.32-.56,7.3,7.3,0,0,1-2.56-1.6,7.12,7.12,0,0,1-1.66-2.53,9,9,0,0,1-.59-3.35,8.94,8.94,0,0,1,.59-3.32,7.12,7.12,0,0,1,1.66-2.53,7.31,7.31,0,0,1,2.56-1.6,9.39,9.39,0,0,1,3.32-.56,9.15,9.15,0,0,1,3.32.57,7.48,7.48,0,0,1,2.56,1.61,7.12,7.12,0,0,1,1.66,2.53A8.86,8.86,0,0,1,69.85,79.6ZM59,79.6a4.89,4.89,0,0,0,.73,2.9,2.36,2.36,0,0,0,2,1,2.27,2.27,0,0,0,2-1,5.08,5.08,0,0,0,.7-2.88,4.92,4.92,0,0,0-.71-2.87,2.52,2.52,0,0,0-4,0A4.92,4.92,0,0,0,59,79.6Z"/><path class="cls-2" d="M72.82,87.13a3.31,3.31,0,0,1-.79-1,2.92,2.92,0,0,1-.29-1.33A2.75,2.75,0,0,1,72,83.55a5.67,5.67,0,0,1,.73-1.13l5.33-6.26h-5.7a5.12,5.12,0,0,1-.36-.87,3.69,3.69,0,0,1-.17-1.15,2.15,2.15,0,0,1,.48-1.57,1.74,1.74,0,0,1,1.29-.48h9.76a3.36,3.36,0,0,1,.79,1,3,3,0,0,1,.29,1.33,2.79,2.79,0,0,1-.29,1.22,5.75,5.75,0,0,1-.73,1.13l-5.21,6.26h6.08a5.14,5.14,0,0,1,.36.87,3.72,3.72,0,0,1,.17,1.15,2.15,2.15,0,0,1-.48,1.57,1.74,1.74,0,0,1-1.29.48Z"/><path class="cls-2" d="M89.34,83.29q-.34-.77-.73-1.74t-.81-2.2q-.42-1.24-.87-2.84T86,72.84a4,4,0,0,1,2.76-1.08,3.32,3.32,0,0,1,1.8.45,2.76,2.76,0,0,1,1.05,1.69l2.45,8.53h.12q.37-1.05.73-2.29t.7-2.56q.34-1.32.63-2.63t.51-2.59a5.17,5.17,0,0,1,2.45-.59,3.23,3.23,0,0,1,1.8.46,1.78,1.78,0,0,1,.71,1.61,10.18,10.18,0,0,1-.22,1.94q-.22,1.1-.57,2.34t-.84,2.56q-.48,1.32-1,2.59T98,85.66q-.56,1.13-1.08,2a21.75,21.75,0,0,1-1.61,2.48,8.81,8.81,0,0,1-1.43,1.5,4.07,4.07,0,0,1-1.36.74,5,5,0,0,1-1.43.2A2.92,2.92,0,0,1,89,91.84a3.26,3.26,0,0,1-1-2q1-.78,2-1.72a21,21,0,0,0,1.8-1.94,2.93,2.93,0,0,1-1.13-.73A7.19,7.19,0,0,1,89.34,83.29Z"/><path class="cls-3" d="M30.55,106.57a.78.78,0,0,1-.11.14.22.22,0,0,1-.16.05.3.3,0,0,1-.19-.08l-.22-.17a1.51,1.51,0,0,0-.31-.17,1.13,1.13,0,0,0-.44-.07,1.11,1.11,0,0,0-.58.15,1.23,1.23,0,0,0-.42.44,2.27,2.27,0,0,0-.25.69,4.68,4.68,0,0,0-.08.92,4.51,4.51,0,0,0,.09.95,2.29,2.29,0,0,0,.26.7,1.22,1.22,0,0,0,.41.43,1,1,0,0,0,.54.15,1.1,1.1,0,0,0,.49-.09,1.44,1.44,0,0,0,.31-.21l.22-.21a.3.3,0,0,1,.21-.09.25.25,0,0,1,.23.15l.36.58a2.58,2.58,0,0,1-.46.52,2.34,2.34,0,0,1-.51.34,2.21,2.21,0,0,1-.55.18,3.12,3.12,0,0,1-.56.05,1.92,1.92,0,0,1-.92-.23,2.24,2.24,0,0,1-.75-.67,3.5,3.5,0,0,1-.51-1.08,5.2,5.2,0,0,1-.19-1.46,5.28,5.28,0,0,1,.17-1.36,3.37,3.37,0,0,1,.49-1.09,2.33,2.33,0,0,1,.8-.72,2.25,2.25,0,0,1,1.1-.26,2.14,2.14,0,0,1,1,.24,2.59,2.59,0,0,1,.8.69Z"/><path class="cls-3" d="M34,105.05a2.3,2.3,0,0,1,1.89.92,3.23,3.23,0,0,1,.52,1.08,5.61,5.61,0,0,1,0,2.85,3.31,3.31,0,0,1-.52,1.09,2.28,2.28,0,0,1-1.89.93,2.37,2.37,0,0,1-1.07-.24,2.34,2.34,0,0,1-.82-.69,3.32,3.32,0,0,1-.53-1.09,5.54,5.54,0,0,1,0-2.85A3.24,3.24,0,0,1,32.1,106a2.32,2.32,0,0,1,1.9-.92Zm0,5.64a1,1,0,0,0,1-.56,3.41,3.41,0,0,0,.32-1.64,3.44,3.44,0,0,0-.32-1.64,1,1,0,0,0-1-.57,1.05,1.05,0,0,0-1,.57,3.42,3.42,0,0,0-.32,1.64,3.38,3.38,0,0,0,.32,1.63A1.05,1.05,0,0,0,34,110.69Z"/><path class="cls-3" d="M37.58,111.83v-6.67h.77q.25,0,.32.29l.08.49a3.53,3.53,0,0,1,.29-.36,1.92,1.92,0,0,1,.32-.28,1.58,1.58,0,0,1,.37-.19,1.34,1.34,0,0,1,.43-.07,1.07,1.07,0,0,1,.82.34,2.15,2.15,0,0,1,.48.91,2.12,2.12,0,0,1,.31-.57,1.78,1.78,0,0,1,.41-.39,1.64,1.64,0,0,1,.47-.22,1.79,1.79,0,0,1,.5-.07,1.7,1.7,0,0,1,.77.17,1.53,1.53,0,0,1,.57.49,2.39,2.39,0,0,1,.35.79,4.34,4.34,0,0,1,.12,1.07v4.24H43.7v-4.24a1.7,1.7,0,0,0-.22-1,.73.73,0,0,0-.65-.32.78.78,0,0,0-.36.08.88.88,0,0,0-.29.24,1.18,1.18,0,0,0-.2.4,1.94,1.94,0,0,0-.07.55v4.24H40.64v-4.24a1.75,1.75,0,0,0-.21-1,.72.72,0,0,0-.63-.31.85.85,0,0,0-.51.17,1.88,1.88,0,0,0-.44.47v4.88Z"/><path class="cls-3" d="M46.44,111.83v-5.46l-.46-.09a.45.45,0,0,1-.24-.13.39.39,0,0,1-.09-.27v-.66h.78v-.49a3.58,3.58,0,0,1,.14-1,2.27,2.27,0,0,1,.39-.77,1.7,1.7,0,0,1,.62-.49,1.93,1.93,0,0,1,.82-.17,1.83,1.83,0,0,1,.68.12l0,.81a.23.23,0,0,1-.14.23.86.86,0,0,1-.3,0,1.22,1.22,0,0,0-.4.06.66.66,0,0,0-.3.21,1,1,0,0,0-.19.4,2.53,2.53,0,0,0-.06.62v.44H49v1.14H47.71v5.47Z"/><path class="cls-3" d="M51.68,113.66a.64.64,0,0,1-.15.26.38.38,0,0,1-.27.09h-.94l1-2.67-2.13-6.17h1.11a.3.3,0,0,1,.24.09.61.61,0,0,1,.12.21l1.12,3.46a3.63,3.63,0,0,1,.1.35q0,.18.07.36c0-.12.06-.25.09-.36l.1-.36,1.06-3.45a.47.47,0,0,1,.14-.21.31.31,0,0,1,.21-.08h1Z"/><path class="cls-3" d="M61,111.83q-.25,0-.32-.29l-.1-.64a3.7,3.7,0,0,1-.34.42,2.2,2.2,0,0,1-.39.33,1.78,1.78,0,0,1-.45.21,1.71,1.71,0,0,1-.52.08,1.45,1.45,0,0,1-.79-.23,1.94,1.94,0,0,1-.62-.66A3.58,3.58,0,0,1,57,110a6.78,6.78,0,0,1-.14-1.46,5.69,5.69,0,0,1,.16-1.38,3.73,3.73,0,0,1,.46-1.1,2.32,2.32,0,0,1,.71-.73,1.7,1.7,0,0,1,.93-.26,1.5,1.5,0,0,1,.75.18,2,2,0,0,1,.56.48v-3.52h1.27v9.66Zm-1.69-1.18a1.09,1.09,0,0,0,.67-.21,2.25,2.25,0,0,0,.52-.59v-3a1.34,1.34,0,0,0-.47-.47,1.13,1.13,0,0,0-.55-.14,1,1,0,0,0-.52.14,1.12,1.12,0,0,0-.39.41,2.32,2.32,0,0,0-.25.7,5.07,5.07,0,0,0-.09,1,5.63,5.63,0,0,0,.07,1,2.27,2.27,0,0,0,.21.66.84.84,0,0,0,.78.48Z"/><path class="cls-3" d="M64.65,103.21a1.12,1.12,0,0,1-.07.39,1.1,1.1,0,0,1-.18.32.85.85,0,0,1-.26.22.65.65,0,0,1-.32.08.62.62,0,0,1-.31-.08.84.84,0,0,1-.25-.22,1.09,1.09,0,0,1-.17-.32,1.16,1.16,0,0,1-.06-.39,1.24,1.24,0,0,1,.06-.4,1.08,1.08,0,0,1,.17-.33.86.86,0,0,1,.25-.22.64.64,0,0,1,.31-.08.66.66,0,0,1,.32.08.87.87,0,0,1,.26.22,1.09,1.09,0,0,1,.18.33A1.2,1.2,0,0,1,64.65,103.21Zm-.19,1.94v6.67H63.19v-6.67Z"/><path class="cls-3" d="M67.71,105a2.23,2.23,0,0,1,.64.09,1.92,1.92,0,0,1,.54.26H70.4v.6a.39.39,0,0,1-.06.23.34.34,0,0,1-.21.12l-.47.11a2.52,2.52,0,0,1,.08.36,2.72,2.72,0,0,1,0,.4,2.43,2.43,0,0,1-.16.89,2,2,0,0,1-.43.68,1.89,1.89,0,0,1-.65.43,2.14,2.14,0,0,1-.82.15,2.39,2.39,0,0,1-.58-.07.54.54,0,0,0-.25.42.33.33,0,0,0,.15.3,1,1,0,0,0,.38.13,3.33,3.33,0,0,0,.54,0,6.16,6.16,0,0,1,.62,0,4.09,4.09,0,0,1,.62.11,1.62,1.62,0,0,1,.54.26,1.26,1.26,0,0,1,.38.48,1.8,1.8,0,0,1,.15.78,2.24,2.24,0,0,1-.17.86,2.27,2.27,0,0,1-.5.74,2.48,2.48,0,0,1-.8.52,2.75,2.75,0,0,1-1.08.2,3.31,3.31,0,0,1-1-.15,2.2,2.2,0,0,1-.73-.39,1.58,1.58,0,0,1-.58-1.23,1.33,1.33,0,0,1,.23-.79,1.56,1.56,0,0,1,.63-.51,1,1,0,0,1-.31-.36,1.29,1.29,0,0,1-.12-.59,1.24,1.24,0,0,1,0-.31,1.38,1.38,0,0,1,.13-.32,1.5,1.5,0,0,1,.21-.3,1.49,1.49,0,0,1,.3-.25,1.89,1.89,0,0,1-.63-.73,2.35,2.35,0,0,1-.23-1.07,2.43,2.43,0,0,1,.16-.89,2,2,0,0,1,.44-.68,1.88,1.88,0,0,1,.66-.43A2.27,2.27,0,0,1,67.71,105Zm1.39,7.07a.54.54,0,0,0-.09-.33.61.61,0,0,0-.25-.2,1.55,1.55,0,0,0-.37-.1,2.89,2.89,0,0,0-.45,0h-.49a1.67,1.67,0,0,1-.49-.07,1.26,1.26,0,0,0-.35.35.86.86,0,0,0-.13.47.79.79,0,0,0,.07.33.67.67,0,0,0,.22.26,1.14,1.14,0,0,0,.39.17,2.42,2.42,0,0,0,.59.06,2.33,2.33,0,0,0,.61-.07,1.28,1.28,0,0,0,.42-.19.75.75,0,0,0,.24-.29A.88.88,0,0,0,69.1,112.11Zm-1.39-3.78a1,1,0,0,0,.41-.08.8.8,0,0,0,.29-.22,1,1,0,0,0,.17-.34,1.55,1.55,0,0,0,.06-.44,1.21,1.21,0,0,0-.23-.78,1,1,0,0,0-1.4,0,1.21,1.21,0,0,0-.23.78,1.55,1.55,0,0,0,.06.44A1,1,0,0,0,67,108a.79.79,0,0,0,.29.23A1,1,0,0,0,67.71,108.33Z"/><path class="cls-3" d="M74.32,106.46a.41.41,0,0,1-.11.15.23.23,0,0,1-.14,0,.38.38,0,0,1-.2-.06l-.24-.15a1.89,1.89,0,0,0-.32-.15,1.22,1.22,0,0,0-.42-.06.83.83,0,0,0-.59.2.69.69,0,0,0-.22.53.58.58,0,0,0,.11.36,1,1,0,0,0,.29.26,2.5,2.5,0,0,0,.41.2l.47.19a4.53,4.53,0,0,1,.47.24,1.66,1.66,0,0,1,.41.34,1.59,1.59,0,0,1,.29.49,1.92,1.92,0,0,1,.11.69,2.73,2.73,0,0,1-.14.89,2,2,0,0,1-.41.7,1.83,1.83,0,0,1-.66.46,2.45,2.45,0,0,1-1.43.1,2.65,2.65,0,0,1-.5-.17,2.59,2.59,0,0,1-.44-.26,2.22,2.22,0,0,1-.36-.33l.29-.61a.49.49,0,0,1,.13-.17.31.31,0,0,1,.19-.06.35.35,0,0,1,.22.08l.24.18a1.9,1.9,0,0,0,.33.18,1.15,1.15,0,0,0,.47.08,1,1,0,0,0,.39-.07.76.76,0,0,0,.27-.18.67.67,0,0,0,.15-.26.94.94,0,0,0,0-.3.63.63,0,0,0-.11-.38,1,1,0,0,0-.29-.26,2.47,2.47,0,0,0-.42-.2l-.48-.19a4,4,0,0,1-.48-.24,1.68,1.68,0,0,1-.42-.35,1.64,1.64,0,0,1-.29-.53,2.27,2.27,0,0,1-.11-.75,2.37,2.37,0,0,1,.13-.78,1.86,1.86,0,0,1,.38-.65,1.81,1.81,0,0,1,.62-.44,2.09,2.09,0,0,1,.86-.17,2.15,2.15,0,0,1,1,.23,2.26,2.26,0,0,1,.74.6Z"/><path class="cls-3" d="M81.78,111.83h-.57a.5.5,0,0,1-.28-.07.45.45,0,0,1-.15-.28l-.11-.47a4.66,4.66,0,0,1-.39.4,2.35,2.35,0,0,1-.4.29,1.73,1.73,0,0,1-.44.18,2.09,2.09,0,0,1-.51.06,1.64,1.64,0,0,1-.62-.11,1.28,1.28,0,0,1-.48-.34,1.6,1.6,0,0,1-.32-.57,2.5,2.5,0,0,1-.11-.79,1.9,1.9,0,0,1,.16-.75,1.75,1.75,0,0,1,.52-.67,3,3,0,0,1,1-.49,4.93,4.93,0,0,1,1.5-.2v-.39a1.78,1.78,0,0,0-.22-1,.74.74,0,0,0-.65-.32,1.25,1.25,0,0,0-.51.09,1.82,1.82,0,0,0-.36.2l-.28.21a.48.48,0,0,1-.28.09.32.32,0,0,1-.22-.08.64.64,0,0,1-.15-.21l-.23-.51A2.79,2.79,0,0,1,79.83,105a1.73,1.73,0,0,1,.82.19,1.8,1.8,0,0,1,.61.53,2.47,2.47,0,0,1,.38.82,3.92,3.92,0,0,1,.13,1Zm-2.46-1a1.34,1.34,0,0,0,.36,0,1.18,1.18,0,0,0,.31-.13,1.71,1.71,0,0,0,.28-.22,2.92,2.92,0,0,0,.27-.31V109a4.1,4.1,0,0,0-.93.09,2.1,2.1,0,0,0-.6.23.84.84,0,0,0-.32.32.85.85,0,0,0-.1.4.8.8,0,0,0,.2.61A.73.73,0,0,0,79.32,110.83Z"/><path class="cls-3" d="M83,111.83v-6.67h.77q.25,0,.32.29l.09.53a3.24,3.24,0,0,1,.34-.38,2.29,2.29,0,0,1,.37-.29,1.66,1.66,0,0,1,.42-.19,1.79,1.79,0,0,1,.49-.07,1.55,1.55,0,0,1,.76.19,1.59,1.59,0,0,1,.56.52,2.51,2.51,0,0,1,.34.8,4.24,4.24,0,0,1,.12,1v4.24H86.34v-4.24a1.7,1.7,0,0,0-.22-.95.75.75,0,0,0-.67-.33,1.11,1.11,0,0,0-.62.19,2.35,2.35,0,0,0-.54.51v4.82Z"/><path class="cls-3" d="M92.56,111.83q-.25,0-.32-.29l-.1-.64a3.7,3.7,0,0,1-.34.42,2.2,2.2,0,0,1-.39.33,1.78,1.78,0,0,1-.45.21,1.71,1.71,0,0,1-.52.08,1.45,1.45,0,0,1-.79-.23A1.94,1.94,0,0,1,89,111a3.58,3.58,0,0,1-.4-1.07,6.78,6.78,0,0,1-.14-1.46,5.69,5.69,0,0,1,.16-1.38,3.73,3.73,0,0,1,.46-1.1,2.32,2.32,0,0,1,.71-.73,1.7,1.7,0,0,1,.93-.26,1.5,1.5,0,0,1,.75.18,2,2,0,0,1,.56.48v-3.52h1.27v9.66Zm-1.69-1.18a1.09,1.09,0,0,0,.67-.21,2.25,2.25,0,0,0,.52-.59v-3a1.34,1.34,0,0,0-.47-.47,1.13,1.13,0,0,0-.55-.14,1,1,0,0,0-.52.14,1.12,1.12,0,0,0-.39.41,2.32,2.32,0,0,0-.25.7,5.07,5.07,0,0,0-.09,1,5.63,5.63,0,0,0,.07,1,2.27,2.27,0,0,0,.21.66.84.84,0,0,0,.78.48Z"/><path class="cls-3" d="M99.09,102.32a2.26,2.26,0,0,1,.94.19,2.07,2.07,0,0,1,.73.54,2.54,2.54,0,0,1,.47.84,3.38,3.38,0,0,1,.17,1.1,3.65,3.65,0,0,1-.12,1,4.55,4.55,0,0,1-.32.85,5.7,5.7,0,0,1-.47.78l-.57.77-1.67,2.16a3.32,3.32,0,0,1,.48-.14,2.25,2.25,0,0,1,.45,0h1.9a.4.4,0,0,1,.33.15.59.59,0,0,1,.12.39v1H96.43v-.53a1.16,1.16,0,0,1,.05-.34,1,1,0,0,1,.17-.33l2.25-2.86q.28-.36.51-.7a4.8,4.8,0,0,0,.37-.66,3.46,3.46,0,0,0,.23-.66,3.07,3.07,0,0,0,.08-.71,2.08,2.08,0,0,0-.08-.59,1.23,1.23,0,0,0-.22-.43.92.92,0,0,0-.34-.26,1.08,1.08,0,0,0-.44-.09,1,1,0,0,0-.75.29,1.6,1.6,0,0,0-.41.79.69.69,0,0,1-.17.35.4.4,0,0,1-.29.11l-.17,0-.67-.15a4.17,4.17,0,0,1,.3-1.19,2.81,2.81,0,0,1,.55-.85,2.19,2.19,0,0,1,.76-.51A2.46,2.46,0,0,1,99.09,102.32Z"/><path class="cls-3" d="M106.78,108.28h.93v.93a.38.38,0,0,1-.07.22.22.22,0,0,1-.19.09h-.67v2.29h-1.11v-2.29h-3.13a.3.3,0,0,1-.23-.1.46.46,0,0,1-.12-.25l-.13-.81,3.51-5.95h1.2Zm-1.11-3.07q0-.21,0-.45t0-.5l-2.3,4h2.26Z"/><path class="cls-3" d="M109,111.85a1,1,0,0,1-.12.26.78.78,0,0,1-.16.19.69.69,0,0,1-.19.11.55.55,0,0,1-.2,0h-.53l3-9.71a.92.92,0,0,1,.25-.42.57.57,0,0,1,.4-.15H112Z"/><path class="cls-3" d="M117.49,102.43v.7a1.92,1.92,0,0,1-.05.5q-.05.19-.11.32l-2.81,7.33a1.1,1.1,0,0,1-.25.39.58.58,0,0,1-.43.16h-.92l2.87-7.18a4,4,0,0,1,.4-.76h-3.55a.25.25,0,0,1-.21-.11.41.41,0,0,1-.09-.26v-1.09Z"/><path class="cls-3" d="M21.88,122.17a.78.78,0,0,1-.11.14.22.22,0,0,1-.16.05.3.3,0,0,1-.19-.08l-.22-.17a1.51,1.51,0,0,0-.31-.17,1.13,1.13,0,0,0-.44-.07,1.11,1.11,0,0,0-.58.15,1.23,1.23,0,0,0-.42.44,2.27,2.27,0,0,0-.25.69,4.68,4.68,0,0,0-.08.92,4.51,4.51,0,0,0,.09.95,2.29,2.29,0,0,0,.26.7,1.22,1.22,0,0,0,.41.43,1,1,0,0,0,.54.15,1.1,1.1,0,0,0,.49-.09,1.44,1.44,0,0,0,.31-.21l.22-.21a.3.3,0,0,1,.21-.09.25.25,0,0,1,.23.15l.36.58a2.58,2.58,0,0,1-.46.52,2.34,2.34,0,0,1-.51.34,2.21,2.21,0,0,1-.55.18,3.12,3.12,0,0,1-.56.05,1.92,1.92,0,0,1-.92-.23,2.24,2.24,0,0,1-.75-.67,3.5,3.5,0,0,1-.51-1.08,5.2,5.2,0,0,1-.19-1.46,5.28,5.28,0,0,1,.17-1.36,3.37,3.37,0,0,1,.49-1.09,2.33,2.33,0,0,1,.8-.72,2.25,2.25,0,0,1,1.1-.26,2.14,2.14,0,0,1,1,.24,2.59,2.59,0,0,1,.8.69Z"/><path class="cls-3" d="M27.19,127.43h-.57a.5.5,0,0,1-.28-.07.45.45,0,0,1-.15-.28l-.11-.47a4.66,4.66,0,0,1-.39.4,2.35,2.35,0,0,1-.4.29,1.73,1.73,0,0,1-.44.18,2.09,2.09,0,0,1-.51.06,1.64,1.64,0,0,1-.62-.11,1.28,1.28,0,0,1-.48-.34,1.6,1.6,0,0,1-.32-.57,2.5,2.5,0,0,1-.11-.79A1.9,1.9,0,0,1,23,125a1.75,1.75,0,0,1,.52-.67,3,3,0,0,1,1-.49,4.93,4.93,0,0,1,1.5-.2v-.39a1.78,1.78,0,0,0-.22-1,.74.74,0,0,0-.65-.32,1.25,1.25,0,0,0-.51.09,1.82,1.82,0,0,0-.36.2l-.28.21a.48.48,0,0,1-.28.09.32.32,0,0,1-.22-.08.64.64,0,0,1-.15-.21l-.23-.51a2.79,2.79,0,0,1,2.19-1.05,1.73,1.73,0,0,1,.82.19,1.8,1.8,0,0,1,.61.53,2.47,2.47,0,0,1,.38.82,3.92,3.92,0,0,1,.13,1Zm-2.46-1a1.34,1.34,0,0,0,.36,0,1.18,1.18,0,0,0,.31-.13,1.71,1.71,0,0,0,.28-.22,2.92,2.92,0,0,0,.27-.31V124.6a4.1,4.1,0,0,0-.93.09,2.1,2.1,0,0,0-.6.23.84.84,0,0,0-.32.32.85.85,0,0,0-.1.4.8.8,0,0,0,.2.61A.73.73,0,0,0,24.73,126.42Z"/><path class="cls-3" d="M28.44,127.43v-6.67h.74a.34.34,0,0,1,.27.09.6.6,0,0,1,.1.31l.08.81a3.07,3.07,0,0,1,.66-1,1.21,1.21,0,0,1,.85-.36.94.94,0,0,1,.65.23l-.16,1.2a.28.28,0,0,1-.07.17.19.19,0,0,1-.14,0,.7.7,0,0,1-.21,0,1.12,1.12,0,0,0-.35,0,.94.94,0,0,0-.68.28,2.16,2.16,0,0,0-.48.81v4.15Z"/><path class="cls-3" d="M34.8,120.65a2.07,2.07,0,0,1,.92.2,2,2,0,0,1,.72.59,2.86,2.86,0,0,1,.47.95,4.46,4.46,0,0,1,.17,1.28,2.86,2.86,0,0,1,0,.3.58.58,0,0,1,0,.19.21.21,0,0,1-.09.1.31.31,0,0,1-.14,0H33.54A2.67,2.67,0,0,0,34,125.8a1.22,1.22,0,0,0,1,.48,1.39,1.39,0,0,0,.53-.09,2.2,2.2,0,0,0,.39-.2l.29-.2a.42.42,0,0,1,.24-.09.23.23,0,0,1,.13,0,.34.34,0,0,1,.1.11l.37.58a2.35,2.35,0,0,1-.47.52,2.45,2.45,0,0,1-.55.34,2.52,2.52,0,0,1-.58.18,3.34,3.34,0,0,1-.57.05,2.3,2.3,0,0,1-1-.23,2.33,2.33,0,0,1-.82-.68,3.43,3.43,0,0,1-.55-1.12,5.39,5.39,0,0,1-.2-1.54,4.6,4.6,0,0,1,.17-1.28,3.32,3.32,0,0,1,.5-1,2.43,2.43,0,0,1,.79-.71A2.14,2.14,0,0,1,34.8,120.65Zm0,1.15a1,1,0,0,0-.87.4,2.22,2.22,0,0,0-.4,1.12h2.38a2.52,2.52,0,0,0-.07-.59,1.51,1.51,0,0,0-.21-.48,1,1,0,0,0-.35-.33A1,1,0,0,0,34.83,121.8Z"/><path class="cls-3" d="M41.82,127.53a1.24,1.24,0,0,1-1.05-.49,2.21,2.21,0,0,1-.37-1.36V122h-.53a.23.23,0,0,1-.18-.08.37.37,0,0,1-.07-.25V121l.85-.18.27-1.82a.34.34,0,0,1,.09-.2.26.26,0,0,1,.19-.07h.66v2.1H43V122H41.66v3.61a.84.84,0,0,0,.12.49.38.38,0,0,0,.33.18.47.47,0,0,0,.2,0l.14-.07.1-.08a.15.15,0,0,1,.09,0,.13.13,0,0,1,.09,0l.08.11.38.78a1.85,1.85,0,0,1-.64.44A1.92,1.92,0,0,1,41.82,127.53Z"/><path class="cls-3" d="M44.06,127.43v-9.66h1.27v3.71a2.8,2.8,0,0,1,.68-.6,1.62,1.62,0,0,1,.87-.23,1.55,1.55,0,0,1,.76.19,1.59,1.59,0,0,1,.56.52,2.51,2.51,0,0,1,.34.8,4.24,4.24,0,0,1,.12,1v4.24H47.38v-4.24a1.7,1.7,0,0,0-.22-.95.75.75,0,0,0-.67-.33,1.11,1.11,0,0,0-.62.19,2.35,2.35,0,0,0-.54.51v4.82Z"/><path class="cls-3" d="M54,127.43h-.57a.5.5,0,0,1-.28-.07.45.45,0,0,1-.15-.28l-.11-.47a4.66,4.66,0,0,1-.39.4,2.35,2.35,0,0,1-.4.29,1.73,1.73,0,0,1-.44.18,2.09,2.09,0,0,1-.51.06,1.64,1.64,0,0,1-.62-.11,1.28,1.28,0,0,1-.48-.34,1.6,1.6,0,0,1-.32-.57,2.5,2.5,0,0,1-.11-.79,1.9,1.9,0,0,1,.16-.75,1.75,1.75,0,0,1,.52-.67,3,3,0,0,1,1-.49,4.93,4.93,0,0,1,1.5-.2v-.39a1.78,1.78,0,0,0-.22-1,.74.74,0,0,0-.65-.32,1.25,1.25,0,0,0-.51.09,1.82,1.82,0,0,0-.36.2l-.28.21a.48.48,0,0,1-.28.09.32.32,0,0,1-.22-.08.64.64,0,0,1-.15-.21l-.23-.51a2.79,2.79,0,0,1,2.19-1.05,1.73,1.73,0,0,1,.82.19,1.8,1.8,0,0,1,.61.53,2.47,2.47,0,0,1,.38.82,3.92,3.92,0,0,1,.13,1Zm-2.46-1a1.34,1.34,0,0,0,.36,0,1.18,1.18,0,0,0,.31-.13,1.71,1.71,0,0,0,.28-.22,2.92,2.92,0,0,0,.27-.31V124.6a4.1,4.1,0,0,0-.93.09,2.1,2.1,0,0,0-.6.23.84.84,0,0,0-.32.32.85.85,0,0,0-.1.4.8.8,0,0,0,.2.61A.73.73,0,0,0,51.55,126.42Z"/><path class="cls-3" d="M57,127.53a1.24,1.24,0,0,1-1.05-.49,2.21,2.21,0,0,1-.37-1.36V122H55a.23.23,0,0,1-.18-.08.37.37,0,0,1-.07-.25V121l.85-.18.27-1.82a.34.34,0,0,1,.09-.2.26.26,0,0,1,.19-.07h.66v2.1h1.38V122H56.83v3.61a.84.84,0,0,0,.12.49.38.38,0,0,0,.33.18.47.47,0,0,0,.2,0l.14-.07.1-.08a.15.15,0,0,1,.09,0,.13.13,0,0,1,.09,0l.08.11.38.78a1.85,1.85,0,0,1-.64.44A1.92,1.92,0,0,1,57,127.53Z"/><path class="cls-3" d="M61.43,127.43V122l-.46-.09a.45.45,0,0,1-.24-.13.39.39,0,0,1-.09-.27v-.66h.78v-.49a3.58,3.58,0,0,1,.14-1,2.27,2.27,0,0,1,.39-.77,1.7,1.7,0,0,1,.62-.49,1.93,1.93,0,0,1,.82-.17,1.83,1.83,0,0,1,.68.12l0,.81a.23.23,0,0,1-.14.23.86.86,0,0,1-.3,0,1.22,1.22,0,0,0-.4.06.66.66,0,0,0-.3.21,1,1,0,0,0-.19.4,2.53,2.53,0,0,0-.06.62v.44H64V122H62.7v5.47Z"/><path class="cls-3" d="M67,120.65a2.07,2.07,0,0,1,.92.2,2,2,0,0,1,.72.59,2.86,2.86,0,0,1,.47.95,4.46,4.46,0,0,1,.17,1.28,2.86,2.86,0,0,1,0,.3.58.58,0,0,1,0,.19.21.21,0,0,1-.09.1.31.31,0,0,1-.14,0H65.71a2.67,2.67,0,0,0,.44,1.51,1.22,1.22,0,0,0,1,.48,1.39,1.39,0,0,0,.53-.09,2.2,2.2,0,0,0,.39-.2l.29-.2a.42.42,0,0,1,.24-.09.23.23,0,0,1,.13,0,.34.34,0,0,1,.1.11l.37.58a2.35,2.35,0,0,1-.47.52,2.45,2.45,0,0,1-.55.34,2.52,2.52,0,0,1-.58.18,3.34,3.34,0,0,1-.57.05,2.3,2.3,0,0,1-1-.23,2.33,2.33,0,0,1-.82-.68,3.43,3.43,0,0,1-.55-1.12,5.39,5.39,0,0,1-.2-1.54,4.6,4.6,0,0,1,.17-1.28,3.32,3.32,0,0,1,.5-1,2.43,2.43,0,0,1,.79-.71A2.14,2.14,0,0,1,67,120.65Zm0,1.15a1,1,0,0,0-.87.4,2.22,2.22,0,0,0-.4,1.12h2.38a2.52,2.52,0,0,0-.07-.59,1.51,1.51,0,0,0-.21-.48,1,1,0,0,0-.35-.33A1,1,0,0,0,67,121.8Z"/><path class="cls-3" d="M72.46,120.65a2.07,2.07,0,0,1,.92.2,2,2,0,0,1,.72.59,2.86,2.86,0,0,1,.47.95,4.46,4.46,0,0,1,.17,1.28,2.86,2.86,0,0,1,0,.3.58.58,0,0,1,0,.19.21.21,0,0,1-.09.1.31.31,0,0,1-.14,0H71.19a2.67,2.67,0,0,0,.44,1.51,1.22,1.22,0,0,0,1,.48,1.39,1.39,0,0,0,.53-.09,2.2,2.2,0,0,0,.39-.2l.29-.2a.42.42,0,0,1,.24-.09.23.23,0,0,1,.13,0,.34.34,0,0,1,.1.11l.37.58a2.35,2.35,0,0,1-.47.52,2.45,2.45,0,0,1-.55.34,2.52,2.52,0,0,1-.58.18,3.34,3.34,0,0,1-.57.05,2.3,2.3,0,0,1-1-.23,2.33,2.33,0,0,1-.82-.68,3.43,3.43,0,0,1-.55-1.12,5.39,5.39,0,0,1-.2-1.54,4.6,4.6,0,0,1,.17-1.28,3.32,3.32,0,0,1,.5-1,2.43,2.43,0,0,1,.79-.71A2.14,2.14,0,0,1,72.46,120.65Zm0,1.15a1,1,0,0,0-.87.4,2.22,2.22,0,0,0-.4,1.12H73.6a2.52,2.52,0,0,0-.07-.59,1.51,1.51,0,0,0-.21-.48,1,1,0,0,0-.35-.33A1,1,0,0,0,72.48,121.8Z"/><path class="cls-3" d="M77.11,117.77v9.66H75.85v-9.66Z"/><path class="cls-3" d="M81.67,122.06a.41.41,0,0,1-.11.15.23.23,0,0,1-.14,0,.38.38,0,0,1-.2-.06L81,122a1.89,1.89,0,0,0-.32-.15,1.22,1.22,0,0,0-.42-.06.83.83,0,0,0-.59.2.69.69,0,0,0-.22.53.58.58,0,0,0,.11.36,1,1,0,0,0,.29.26,2.5,2.5,0,0,0,.41.2l.47.19a4.53,4.53,0,0,1,.47.24,1.66,1.66,0,0,1,.41.34,1.59,1.59,0,0,1,.29.49,1.92,1.92,0,0,1,.11.69,2.73,2.73,0,0,1-.14.89,2,2,0,0,1-.41.7,1.83,1.83,0,0,1-.66.46,2.45,2.45,0,0,1-1.43.1,2.65,2.65,0,0,1-.5-.17,2.59,2.59,0,0,1-.44-.26,2.22,2.22,0,0,1-.36-.33l.29-.61a.49.49,0,0,1,.13-.17.31.31,0,0,1,.19-.06.35.35,0,0,1,.22.08l.24.18a1.9,1.9,0,0,0,.33.18,1.15,1.15,0,0,0,.47.08,1,1,0,0,0,.39-.07.76.76,0,0,0,.27-.18.67.67,0,0,0,.15-.26.94.94,0,0,0,0-.3.63.63,0,0,0-.11-.38,1,1,0,0,0-.29-.26,2.47,2.47,0,0,0-.42-.2l-.48-.19a4,4,0,0,1-.48-.24,1.68,1.68,0,0,1-.42-.35,1.64,1.64,0,0,1-.29-.53,2.27,2.27,0,0,1-.11-.75,2.37,2.37,0,0,1,.13-.78,1.86,1.86,0,0,1,.38-.65,1.81,1.81,0,0,1,.62-.44,2.09,2.09,0,0,1,.86-.17,2.15,2.15,0,0,1,1,.23,2.26,2.26,0,0,1,.74.6Z"/><path class="cls-3" d="M86.36,117.77v9.66H85.09v-9.66Z"/><path class="cls-3" d="M89.32,118.81a1.12,1.12,0,0,1-.07.39,1.1,1.1,0,0,1-.18.32.85.85,0,0,1-.26.22.65.65,0,0,1-.32.08.62.62,0,0,1-.31-.08.84.84,0,0,1-.25-.22,1.09,1.09,0,0,1-.17-.32,1.16,1.16,0,0,1-.06-.39,1.24,1.24,0,0,1,.06-.4,1.08,1.08,0,0,1,.17-.33.86.86,0,0,1,.25-.22.64.64,0,0,1,.31-.08.66.66,0,0,1,.32.08.87.87,0,0,1,.26.22,1.09,1.09,0,0,1,.18.33A1.2,1.2,0,0,1,89.32,118.81Zm-.19,1.94v6.67H87.87v-6.67Z"/><path class="cls-3" d="M91.85,117.77v5.53h.24a.37.37,0,0,0,.2,0,.58.58,0,0,0,.15-.17l1.31-2a.87.87,0,0,1,.18-.21.42.42,0,0,1,.26-.07h1.16l-1.64,2.48a2.65,2.65,0,0,1-.18.25,1.22,1.22,0,0,1-.2.2,1.09,1.09,0,0,1,.19.23l.16.28,1.75,3.24H94.29a.46.46,0,0,1-.25-.07.56.56,0,0,1-.18-.22l-1.34-2.53a.48.48,0,0,0-.15-.2.47.47,0,0,0-.23,0h-.29v3.05H90.58v-9.66Z"/><path class="cls-3" d="M98.09,120.65a2.07,2.07,0,0,1,.92.2,2,2,0,0,1,.72.59,2.86,2.86,0,0,1,.47.95,4.46,4.46,0,0,1,.17,1.28,2.86,2.86,0,0,1,0,.3.58.58,0,0,1,0,.19.21.21,0,0,1-.09.1.31.31,0,0,1-.14,0H96.82a2.67,2.67,0,0,0,.44,1.51,1.22,1.22,0,0,0,1,.48,1.39,1.39,0,0,0,.53-.09,2.2,2.2,0,0,0,.39-.2l.29-.2a.42.42,0,0,1,.24-.09.23.23,0,0,1,.13,0,.34.34,0,0,1,.1.11l.37.58a2.35,2.35,0,0,1-.47.52,2.45,2.45,0,0,1-.55.34,2.52,2.52,0,0,1-.58.18,3.34,3.34,0,0,1-.57.05,2.3,2.3,0,0,1-1-.23,2.33,2.33,0,0,1-.82-.68,3.43,3.43,0,0,1-.55-1.12,5.39,5.39,0,0,1-.2-1.54,4.6,4.6,0,0,1,.17-1.28,3.32,3.32,0,0,1,.5-1,2.43,2.43,0,0,1,.79-.71A2.14,2.14,0,0,1,98.09,120.65Zm0,1.15a1,1,0,0,0-.87.4,2.22,2.22,0,0,0-.4,1.12h2.38a2.52,2.52,0,0,0-.07-.59,1.51,1.51,0,0,0-.21-.48,1,1,0,0,0-.35-.33A1,1,0,0,0,98.11,121.8Z"/><path class="cls-3" d="M103.38,127.43v-9.66h1.27v3.71a2.8,2.8,0,0,1,.68-.6,1.62,1.62,0,0,1,.87-.23,1.55,1.55,0,0,1,.76.19,1.59,1.59,0,0,1,.56.52,2.51,2.51,0,0,1,.34.8,4.24,4.24,0,0,1,.12,1v4.24h-1.27v-4.24a1.7,1.7,0,0,0-.22-.95.75.75,0,0,0-.67-.33,1.11,1.11,0,0,0-.62.19,2.35,2.35,0,0,0-.54.51v4.82Z"/><path class="cls-3" d="M111.45,120.65a2.3,2.3,0,0,1,1.89.92,3.23,3.23,0,0,1,.52,1.08,5.61,5.61,0,0,1,0,2.85,3.31,3.31,0,0,1-.52,1.09,2.28,2.28,0,0,1-1.89.93,2.37,2.37,0,0,1-1.07-.24,2.34,2.34,0,0,1-.82-.69,3.32,3.32,0,0,1-.53-1.09,5.54,5.54,0,0,1,0-2.85,3.24,3.24,0,0,1,.53-1.08,2.32,2.32,0,0,1,1.9-.92Zm0,5.64a1,1,0,0,0,1-.56,3.41,3.41,0,0,0,.32-1.64,3.44,3.44,0,0,0-.32-1.64,1,1,0,0,0-1-.57,1.05,1.05,0,0,0-1,.57,3.42,3.42,0,0,0-.32,1.64,3.38,3.38,0,0,0,.32,1.63A1.05,1.05,0,0,0,111.45,126.29Z"/><path class="cls-3" d="M115,127.43v-6.67h.77q.25,0,.32.29l.08.49a3.53,3.53,0,0,1,.29-.36,1.92,1.92,0,0,1,.32-.28,1.58,1.58,0,0,1,.37-.19,1.34,1.34,0,0,1,.43-.07,1.07,1.07,0,0,1,.82.34,2.15,2.15,0,0,1,.48.91,2.12,2.12,0,0,1,.31-.57,1.78,1.78,0,0,1,.41-.39,1.64,1.64,0,0,1,.47-.22,1.79,1.79,0,0,1,.5-.07,1.7,1.7,0,0,1,.77.17,1.53,1.53,0,0,1,.57.49,2.39,2.39,0,0,1,.35.79,4.34,4.34,0,0,1,.12,1.07v4.24h-1.27v-4.24a1.7,1.7,0,0,0-.22-1,.73.73,0,0,0-.65-.32.78.78,0,0,0-.36.08.88.88,0,0,0-.29.24,1.18,1.18,0,0,0-.2.4,1.94,1.94,0,0,0-.07.55v4.24H118.1v-4.24a1.75,1.75,0,0,0-.21-1,.72.72,0,0,0-.63-.31.85.85,0,0,0-.51.17,1.88,1.88,0,0,0-.44.47v4.88Z"/><path class="cls-3" d="M125.85,120.65a2.07,2.07,0,0,1,.92.2,2,2,0,0,1,.72.59,2.86,2.86,0,0,1,.47.95,4.46,4.46,0,0,1,.17,1.28,2.86,2.86,0,0,1,0,.3.58.58,0,0,1,0,.19.21.21,0,0,1-.09.1.31.31,0,0,1-.14,0h-3.25a2.67,2.67,0,0,0,.44,1.51,1.22,1.22,0,0,0,1,.48,1.39,1.39,0,0,0,.53-.09,2.2,2.2,0,0,0,.39-.2l.29-.2a.42.42,0,0,1,.24-.09.23.23,0,0,1,.13,0,.34.34,0,0,1,.1.11l.37.58a2.35,2.35,0,0,1-.47.52,2.45,2.45,0,0,1-.55.34,2.52,2.52,0,0,1-.58.18,3.34,3.34,0,0,1-.57.05,2.3,2.3,0,0,1-1-.23,2.33,2.33,0,0,1-.82-.68,3.43,3.43,0,0,1-.55-1.12,5.39,5.39,0,0,1-.2-1.54,4.6,4.6,0,0,1,.17-1.28,3.32,3.32,0,0,1,.5-1,2.43,2.43,0,0,1,.79-.71A2.14,2.14,0,0,1,125.85,120.65Zm0,1.15a1,1,0,0,0-.87.4,2.22,2.22,0,0,0-.4,1.12H127a2.52,2.52,0,0,0-.07-.59,1.51,1.51,0,0,0-.21-.48,1,1,0,0,0-.35-.33A1,1,0,0,0,125.87,121.8Z"/></g></svg>