<svg xmlns="http://www.w3.org/2000/svg" viewBox="0 0 216 216"><defs><style>.cls-1{fill:#f171a1;stroke:#f171a1;stroke-miterlimit:10;stroke-width:9px;}.cls-2{fill:#fbd6e6;}</style></defs><title>crystals_small</title><g id="Layer_2" data-name="Layer 2"><path class="cls-1" d="M150.19,84.08a1,1,0,0,0-1.6-.71L138,91.45a1,1,0,0,0-.23.25h0l-2.62,4.06,1.58-11.53s0-.05,0-.08a1,1,0,0,0,0-.12,1,1,0,0,0-.05-.25s0,0,0-.07l-5.22-12.49s0,0,0-.07a1,1,0,0,0-.13-.19l-.11-.11-.06-.06-.12-.06-.14-.07a1,1,0,0,0-.23,0h-.12a1,1,0,0,0-.36.07h0a1,1,0,0,0-.28.18L120.74,79s0,0-.05.07a1,1,0,0,0-.15.2,6487.39,6487.39,0,0,0-.1.24L118.24,89l-3.08-31.28a4.66,4.66,0,0,1-.1-.35l-8-15.77a1,1,0,0,0-.87-.55,1.06,1.06,0,0,0-.89.5L95.88,57.84l0,0,0,0a1,1,0,0,0-.09.32v0l-2.4,41.67c-.73-1.88-1.48-3.85-2.19-5.77a.93.93,0,0,0-.07-.11,1,1,0,0,0-.08-.15l-9.29-12a1,1,0,0,0-1.76.37L75.81,98.76h0v0a1,1,0,0,0,0,.36h0l3.76,29.71-5.62-4.52a1,1,0,0,0-.25-.15l-8-3.28a1,1,0,0,0-1.34,1.2l4.26,14.75a1,1,0,0,0,.26.44l24.76,24,.59,4.23a1,1,0,0,0,.19.57l6.06,8.44.08.09,0,.05a1,1,0,0,0,.27.18l.06,0a1,1,0,0,0,.35.07h7.27a1,1,0,0,0,.4-.1l.06,0a1,1,0,0,0,.27-.22l0,0,4.68-6,8.69-2.06a1,1,0,0,0,.67-.54l12.79-26.38s0-.06,0-.08a1,1,0,0,0,.06-.24,1,1,0,0,0,0-.14,1,1,0,0,0,0-.11l-.76-5.64,16.07-32.55s0,0,0-.07a1.35,1.35,0,0,0,.07-.39s0,0,0-.07Z"/><path class="cls-2" d="M94.24,165.58a1,1,0,0,0,.19.57l6.06,8.44.08.09,0,.05a1,1,0,0,0,.27.18l.06,0a1,1,0,0,0,.35.07h7.27a1,1,0,0,0,.4-.1l.06,0a1,1,0,0,0,.27-.22l0,0,4.68-6,8.69-2.06a1,1,0,0,0,.67-.54l12.79-26.38s0-.06,0-.08a1,1,0,0,0,.06-.24,1,1,0,0,0,0-.14,1,1,0,0,0,0-.11l-.76-5.64,16.07-32.55s0,0,0-.07a1.35,1.35,0,0,0,.07-.39s0,0,0-.07l-1.48-16.24a1,1,0,0,0-1.6-.71L138,91.45a1,1,0,0,0-.23.25h0l-2.62,4.06,1.58-11.53s0-.05,0-.08a1,1,0,0,0,0-.12,1,1,0,0,0-.05-.25s0,0,0-.07l-5.22-12.49s0,0,0-.07a1,1,0,0,0-.13-.19l-.11-.11-.06-.06-.12-.06-.14-.07a1,1,0,0,0-.23,0h-.12a1,1,0,0,0-.36.07h0a1,1,0,0,0-.28.18L120.74,79s0,0-.05.07a1,1,0,0,0-.15.2,6289,6289,0,0,0-.1.24L118.24,89l-3.08-31.28a4.66,4.66,0,0,1-.1-.35l-8-15.77a1,1,0,0,0-.87-.55,1.06,1.06,0,0,0-.89.5L95.88,57.84l0,0,0,0a1,1,0,0,0-.09.32v0l-2.4,41.67c-.73-1.88-1.48-3.85-2.19-5.77a.93.93,0,0,0-.07-.11,1,1,0,0,0-.08-.15l-9.29-12a1,1,0,0,0-1.76.37L75.81,98.76h0v0a1,1,0,0,0,0,.36h0l3.76,29.71-5.62-4.52a1,1,0,0,0-.25-.15l-8-3.28a1,1,0,0,0-1.34,1.2l4.26,14.75a1,1,0,0,0,.26.44l24.76,24m54.71-75.28,1.22,13.4-7.23.31-2.6-7.17Zm-10.05,8.42,2.25,6.2-7.84,12.5,1.75-12.74Zm-4.14,44.06-10.83,4.31-4.18-7.37,13.61-7.42Zm-43-.33L84.09,102l5.73-5.64c1.51,4,5,13.16,6.1,15L94,116.44a.93.93,0,0,0,0,.1,1,1,0,0,0,0,.39.93.93,0,0,0,0,.1l5.38,21.38L97,142.94ZM107,107.12l-5.7-5.23,1.41-32.12L108,71.5Zm-6.3-3.06,10.23,9.38-6.71,5.13-2-9.9a1,1,0,1,0-2,.39l1.9,9.65-6-2.48Zm13.6,10.54,7.88-33.81h3.57l-7.64,45.6m-10.46,12-3-17.6,7.36-5.63,6.51,18.4-1.23.67,0,0a1.94,1.94,0,0,0-.29.27l0,0-5.14,8m-10.41-8-.63,1.23-4.34-17.25,6.25,2.59,2.62,15.35L103,134.22a1,1,0,0,0-1.57.27Zm-5.18,14.41,6.35-12.32,10.8,10.13-5.94,9.41H101.8Zm6.09,9.22H107l.5,14.88h-5.2Zm6.68-.73,4.91-7.77L115,164l-5.6,7.21Zm6.67-10.92v0a1,1,0,0,0-.1-.36l0,0a1,1,0,0,0-.18-.24l-2.06-1.93.06-.07,4.39-6.81,4,7.12-5.42,11Zm4.66-13.91-.81-2.29h0l8.21-49,6.89,3.39-5.87,42.87a1,1,0,0,0,0,.42Zm10.15-58.41L133.74,82l-5.5-2.7Zm-4.16,4.63H124l3.74-3.38Zm-9.42,16.06-4.09,17.56-3.81-3.5v0L110,71l3.59-9M106.12,44.1l7,13.72-4.66,11.71L102.5,67.6l-4.62-9.23ZM95.11,104l2.42-41.87,3.25,6.5-1.47,33.48-2.43,6.6m-15.49-24,7.49,9.68-6.1,6-4.83-2ZM78,100.62l4.15,1.73,6.63,33.93-7-5.6Zm-7.5,35.44-3.61-12.5L72.78,126l23.33,18.77-2,3.79L74.53,130.86a1,1,0,0,0-1.34,1.49l20.87,18.8.1,7.9ZM96.08,152l4.23,5.47v13.43l-4.06-5.66Zm20.9,6.39,6.65-13.5,9.62-3.82L121.78,164.7,116,166.07l.9-1.15a1,1,0,0,0,.21-.69m15.41-46.91,9.74-15.54,6.8-.29-14,28.37-.47-3.51a1,1,0,0,0-1.47-.75l-2.23,1.22"/></g></svg>