<svg xmlns="http://www.w3.org/2000/svg" viewBox="0 0 144 144"><defs><style>.cls-1{fill:#f171a1;stroke:#f171a1;stroke-miterlimit:10;stroke-width:9px;}.cls-2{fill:#fbd6e6;}</style></defs><title>crystals</title><g id="Layer_2" data-name="Layer 2"><path class="cls-1" d="M114.19,48.08a1,1,0,0,0-1.6-.71L102,55.45a1,1,0,0,0-.23.25h0L99.1,59.76l1.58-11.53s0-.05,0-.08a1,1,0,0,0,0-.12,1,1,0,0,0-.05-.25s0,0,0-.07L95.39,35.21s0,0,0-.07a1,1,0,0,0-.13-.19l-.11-.11L95,34.78l-.12-.06-.14-.07a1,1,0,0,0-.23,0h-.12a1,1,0,0,0-.36.07h0a1,1,0,0,0-.28.18L84.74,43s0,0-.05.07a1,1,0,0,0-.15.2,6394.76,6394.76,0,0,0-.1.24L82.24,53,79.16,21.67a4.66,4.66,0,0,1-.1-.35l-8-15.77A1,1,0,0,0,70.2,5a1.06,1.06,0,0,0-.89.5L59.88,21.84l0,0,0,0a1,1,0,0,0-.09.32v0l-2.4,41.67c-.73-1.88-1.48-3.85-2.19-5.77a.93.93,0,0,0-.07-.11,1,1,0,0,0-.08-.15l-9.29-12a1,1,0,0,0-1.76.37L39.81,62.76h0v0a1,1,0,0,0,0,.36h0l3.76,29.71-5.62-4.52a1,1,0,0,0-.25-.15l-8-3.28a1,1,0,0,0-1.34,1.2l4.26,14.75a1,1,0,0,0,.26.44l24.76,24,.59,4.23a1,1,0,0,0,.19.57l6.06,8.44.08.09,0,.05a1,1,0,0,0,.27.18l.06,0a1,1,0,0,0,.35.07h7.27a1,1,0,0,0,.4-.1l.06,0a1,1,0,0,0,.27-.22l0,0,4.68-6,8.69-2.06a1,1,0,0,0,.67-.54l12.79-26.38s0-.06,0-.08a1,1,0,0,0,.06-.24,1,1,0,0,0,0-.14,1,1,0,0,0,0-.11l-.76-5.64,16.07-32.55s0,0,0-.07a1.35,1.35,0,0,0,.07-.39s0,0,0-.07Z"/><path class="cls-2" d="M58.24,129.58a1,1,0,0,0,.19.57l6.06,8.44.08.09,0,.05a1,1,0,0,0,.27.18l.06,0a1,1,0,0,0,.35.07h7.27a1,1,0,0,0,.4-.1l.06,0a1,1,0,0,0,.27-.22l0,0,4.68-6,8.69-2.06a1,1,0,0,0,.67-.54l12.79-26.38s0-.06,0-.08a1,1,0,0,0,.06-.24,1,1,0,0,0,0-.14,1,1,0,0,0,0-.11l-.76-5.64,16.07-32.55s0,0,0-.07a1.35,1.35,0,0,0,.07-.39s0,0,0-.07l-1.48-16.24a1,1,0,0,0-1.6-.71L102,55.45a1,1,0,0,0-.23.25h0L99.1,59.76l1.58-11.53s0-.05,0-.08a1,1,0,0,0,0-.12,1,1,0,0,0-.05-.25s0,0,0-.07L95.39,35.21s0,0,0-.07a1,1,0,0,0-.13-.19l-.11-.11L95,34.78l-.12-.06-.14-.07a1,1,0,0,0-.23,0h-.12a1,1,0,0,0-.36.07h0a1,1,0,0,0-.28.18L84.74,43s0,0-.05.07a1,1,0,0,0-.15.2,6414.71,6414.71,0,0,0-.1.24L82.24,53,79.16,21.67a4.66,4.66,0,0,1-.1-.35l-8-15.77A1,1,0,0,0,70.2,5a1.06,1.06,0,0,0-.89.5L59.88,21.84l0,0,0,0a1,1,0,0,0-.09.32v0l-2.4,41.67c-.73-1.88-1.48-3.85-2.19-5.77a.93.93,0,0,0-.07-.11,1,1,0,0,0-.08-.15l-9.29-12a1,1,0,0,0-1.76.37L39.81,62.76h0v0a1,1,0,0,0,0,.36h0l3.76,29.71-5.62-4.52a1,1,0,0,0-.25-.15l-8-3.28a1,1,0,0,0-1.34,1.2l4.26,14.75a1,1,0,0,0,.26.44l24.76,24m54.71-75.28,1.22,13.4-7.23.31-2.6-7.17Zm-10.05,8.42,2.25,6.2-7.84,12.5,1.75-12.74Zm-4.14,44.06-10.83,4.31-4.18-7.37,13.61-7.42Zm-43-.33L48.09,66l5.73-5.64c1.51,4,5,13.16,6.1,15L58,80.44a.93.93,0,0,0,0,.1,1,1,0,0,0,0,.39.93.93,0,0,0,0,.1l5.38,21.38L61,106.94ZM71,71.12l-5.7-5.23,1.41-32.12L72,35.5Zm-6.3-3.06,10.23,9.38-6.71,5.13-2-9.9a1,1,0,1,0-2,.39l1.9,9.65-6-2.48ZM78.32,78.6,86.2,44.79h3.57l-7.64,45.6m-10.46,12-3-17.6L76,79.14l6.51,18.4-1.23.67,0,0a1.94,1.94,0,0,0-.29.27l0,0-5.14,8m-10.41-8-.63,1.23L60.42,82.47l6.25,2.59L69.3,100.4,67,98.22a1,1,0,0,0-1.57.27Zm-5.18,14.41,6.35-12.32,10.8,10.13-5.94,9.41H65.8Zm6.09,9.22H71l.5,14.88h-5.2ZM73,121.4l4.91-7.77L79,128l-5.6,7.21Zm6.67-10.92v0a1,1,0,0,0-.1-.36l0,0a1,1,0,0,0-.18-.24l-2.06-1.93.06-.07L81.73,101l4,7.12-5.42,11Zm4.66-13.91-.81-2.29h0l8.21-49,6.89,3.39L92.73,91.54a1,1,0,0,0,0,.42ZM94.45,38.16,97.74,46l-5.5-2.7Zm-4.16,4.63H88l3.74-3.38ZM80.87,58.84,76.78,76.41,73,72.91v0L74,35l3.59-9M70.12,8.1l7,13.72L72.41,33.53,66.5,31.6l-4.62-9.23ZM59.11,68l2.42-41.87,3.25,6.5L63.31,66.12l-2.43,6.6m-15.49-24,7.49,9.68-6.1,6-4.83-2ZM42,64.62l4.15,1.73,6.63,33.93-7-5.6Zm-7.5,35.44-3.61-12.5L36.78,90l23.33,18.77-2,3.79L38.53,94.86a1,1,0,0,0-1.34,1.49l20.87,18.8.1,7.9ZM60.08,116l4.23,5.47v13.43l-4.06-5.66ZM81,122.39l6.65-13.5,9.62-3.82L85.78,128.7,80,130.07l.9-1.15a1,1,0,0,0,.21-.69M96.49,81.32l9.74-15.54,6.8-.29L99,93.86l-.47-3.51a1,1,0,0,0-1.47-.75l-2.23,1.22"/></g></svg>