<?xml version="1.0" encoding="utf-8"?>
<!-- Generator: Adobe Illustrator 21.1.0, SVG Export Plug-In . SVG Version: 6.00 Build 0)  -->
<svg version="1.1" id="Layer_1" xmlns="http://www.w3.org/2000/svg" xmlns:xlink="http://www.w3.org/1999/xlink" x="0px" y="0px"
	 viewBox="0 0 160 160" style="enable-background:new 0 0 160 160;" xml:space="preserve">
<style type="text/css">
	.st0{fill:#F171A1;stroke:#F171A1;stroke-width:9;stroke-miterlimit:10;}
	.st1{fill:#FBD6E6;}
</style>
<title>crystals</title>
<g id="Layer_2">
	<path class="st0" d="M122.2,56.1c0-0.6-0.5-1-1.1-0.9c-0.2,0-0.4,0.1-0.5,0.2L110,63.5c-0.1,0.1-0.2,0.2-0.2,0.2l0,0l-2.7,4.1
		l1.6-11.5c0,0,0,0,0-0.1c0,0,0-0.1,0-0.1c0-0.1,0-0.2-0.1-0.2c0,0,0,0,0-0.1l-5.2-12.5c0,0,0,0,0-0.1c0-0.1-0.1-0.1-0.1-0.2
		l-0.1-0.1l-0.2-0.1l-0.1-0.1l-0.1-0.1c-0.1,0-0.2,0-0.2,0h-0.1c-0.1,0-0.2,0-0.4,0.1l0,0c-0.1,0-0.2,0.1-0.3,0.2l-9,8.1
		c0,0,0,0-0.1,0.1c-0.1,0.1-0.1,0.1-0.2,0.2c0,0.1-0.1,0.2-0.1,0.2L90.2,61l-3.1-31.3c0-0.1-0.1-0.2-0.1-0.4l-8-15.8
		c-0.2-0.3-0.5-0.5-0.9-0.5c-0.4,0-0.7,0.2-0.9,0.5l-9.4,16.3l0,0l0,0c0,0.1-0.1,0.2-0.1,0.3l0,0l-2.4,41.7
		c-0.7-1.9-1.5-3.9-2.2-5.8c0,0,0-0.1-0.1-0.1c0-0.1,0-0.1-0.1-0.2l-9.3-12c-0.3-0.4-1-0.5-1.4-0.2c-0.2,0.1-0.3,0.3-0.4,0.5
		l-4.2,16.6l0,0l0,0c0,0.1,0,0.2,0,0.4l0,0l3.8,29.7L46,96.3c-0.1-0.1-0.2-0.1-0.2-0.2l-8-3.3c-0.5-0.2-1.1,0-1.3,0.5
		c-0.1,0.2-0.1,0.4,0,0.7l4.3,14.8c0,0.2,0.1,0.3,0.3,0.4l24.8,24l0.6,4.2c0,0.2,0.1,0.4,0.2,0.6l6.1,8.4l0.1,0.1v0.1
		c0.1,0.1,0.2,0.1,0.3,0.2h0.1c0.1,0,0.2,0.1,0.3,0.1h7.3c0.1,0,0.3,0,0.4-0.1H81c0.1-0.1,0.2-0.1,0.3-0.2l0,0l4.7-6l8.7-2.1
		c0.3-0.1,0.5-0.3,0.7-0.5l12.8-26.4c0,0,0-0.1,0-0.1c0-0.1,0.1-0.2,0.1-0.2c0,0,0-0.1,0-0.1c0,0,0-0.1,0-0.1l-0.8-5.6l16.1-32.6
		c0,0,0,0,0-0.1c0-0.1,0.1-0.3,0.1-0.4c0,0,0,0,0-0.1L122.2,56.1z"/>
	<path class="st1" d="M66.2,137.6c0,0.2,0.1,0.4,0.2,0.6l6.1,8.4l0.1,0.1v0.1c0.1,0.1,0.2,0.1,0.3,0.2h0.1c0.1,0,0.2,0.1,0.3,0.1
		h7.3c0.1,0,0.3,0,0.4-0.1H81c0.1-0.1,0.2-0.1,0.3-0.2l0,0l4.7-6l8.7-2.1c0.3-0.1,0.5-0.3,0.7-0.5l12.8-26.4c0,0,0-0.1,0-0.1
		c0-0.1,0.1-0.2,0.1-0.2c0,0,0-0.1,0-0.1c0,0,0-0.1,0-0.1l-0.8-5.6l16.1-32.6c0,0,0,0,0-0.1c0-0.1,0.1-0.3,0.1-0.4c0,0,0,0,0-0.1
		L122,56.2c0-0.6-0.5-1-1.1-0.9c-0.2,0-0.4,0.1-0.5,0.2l-10.4,8c-0.1,0.1-0.2,0.2-0.2,0.2l0,0l-2.7,4.1l1.6-11.5c0,0,0,0,0-0.1
		c0,0,0-0.1,0-0.1c0-0.1,0-0.2-0.1-0.2c0,0,0,0,0-0.1l-5.2-12.5c0,0,0,0,0-0.1c0-0.1-0.1-0.1-0.1-0.2l-0.1-0.1l-0.2-0.1l-0.1-0.1
		l-0.1-0.1c-0.1,0-0.2,0-0.2,0h-0.1c-0.1,0-0.2,0-0.4,0.1l0,0c-0.1,0-0.2,0.1-0.3,0.2l-9,8.1c0,0,0,0-0.1,0.1
		c-0.1,0.1-0.1,0.1-0.2,0.2c0,0.1-0.1,0.2-0.1,0.2L90.2,61l-3.1-31.3c0-0.1-0.1-0.2-0.1-0.4l-8-15.8c-0.2-0.3-0.5-0.5-0.9-0.5
		c-0.4,0-0.7,0.2-0.9,0.5l-9.4,16.3l0,0l0,0c0,0.1-0.1,0.2-0.1,0.3l0,0l-2.4,41.7c-0.7-1.9-1.5-3.9-2.2-5.8c0,0,0-0.1-0.1-0.1
		c0-0.1,0-0.1-0.1-0.2l-9.3-12c-0.3-0.4-1-0.5-1.4-0.2c-0.2,0.1-0.3,0.3-0.4,0.5l-4.2,16.6l0,0l0,0c0,0.1,0,0.2,0,0.4l0,0l3.8,29.7
		L46,96.3c-0.1-0.1-0.2-0.1-0.2-0.2l-8-3.3c-0.5-0.2-1.1,0-1.3,0.5c-0.1,0.2-0.1,0.4,0,0.7l4.3,14.8c0,0.2,0.1,0.3,0.3,0.4l24.8,24
		 M120.3,58l1.2,13.4l-7.2,0.3l-2.6-7.2L120.3,58z M110.3,66.4l2.2,6.2l-7.8,12.5l1.8-12.7L110.3,66.4z M106.2,110.5l-10.8,4.3
		l-4.2-7.4l13.6-7.4L106.2,110.5z M63.2,110.1L56.1,74l5.7-5.6c1.5,4,5,13.2,6.1,15L66,88.4c0,0,0,0.1,0,0.1c0,0.1,0,0.3,0,0.4
		c0,0,0,0.1,0,0.1l5.4,21.4l-2.4,4.5L63.2,110.1z M79,79.1l-5.7-5.2l1.4-32.1l5.3,1.7L79,79.1z M72.7,76.1l10.2,9.4l-6.7,5.1l-2-9.9
		c-0.1-0.6-0.6-0.9-1.2-0.8s-0.9,0.6-0.8,1.2l1.9,9.7l-6-2.5L72.7,76.1z M86.3,86.6l7.9-33.8h3.6l-7.6,45.6 M79.7,110.4l-3-17.6
		l7.3-5.7l6.5,18.4l-1.2,0.7l0,0c-0.1,0.1-0.2,0.2-0.3,0.3l0,0l-5.1,8 M73.4,106.5l-0.6,1.2l-4.4-17.2l6.2,2.6l2.6,15.3l-2.3-2.2
		c-0.4-0.4-1-0.4-1.4,0C73.5,106.3,73.5,106.4,73.4,106.5L73.4,106.5z M68.3,120.9l6.3-12.3l10.8,10.1l-5.9,9.4h-5.7L68.3,120.9z
		 M74.4,130.1H79l0.5,14.9h-5.2L74.4,130.1z M81,129.4l4.9-7.8L87,136l-5.6,7.2L81,129.4z M87.7,118.5L87.7,118.5
		c0-0.1,0-0.2-0.1-0.4l0,0c0-0.1-0.1-0.2-0.2-0.2l-2.1-1.9l0.1-0.1l4.3-6.9l4,7.1l-5.4,11L87.7,118.5z M92.3,104.6l-0.8-2.3l0,0
		l8.2-49l6.9,3.4l-5.9,42.9c0,0.1,0,0.3,0,0.4L92.3,104.6z M102.4,46.2l3.3,7.8l-5.5-2.7L102.4,46.2z M98.3,50.8H96l3.7-3.4
		L98.3,50.8z M88.9,66.8l-4.1,17.6L81,80.9l0,0L82,43l3.6-9 M78.1,16.1l7,13.7l-4.7,11.7l-5.9-1.9l-4.6-9.2L78.1,16.1z M67.1,76
		l2.4-41.9l3.2,6.5l-1.5,33.5l-2.4,6.6 M53.4,56.7l7.5,9.7l-6.1,6l-4.8-2L53.4,56.7z M50,72.6l4.2,1.7l6.6,33.9l-7-5.6L50,72.6z
		 M42.5,108.1l-3.6-12.5l5.9,2.4l23.3,18.8l-2,3.8l-19.6-17.7c-0.4-0.4-1-0.3-1.4,0.1c-0.4,0.4-0.3,1,0.1,1.4l20.9,18.8l0.1,7.9
		L42.5,108.1z M68.1,124l4.2,5.5v13.4l-4.1-5.7L68.1,124z M89,130.4l6.7-13.5l9.6-3.8l-11.5,23.6l-5.8,1.4l0.9-1.1
		c0.2-0.2,0.2-0.4,0.2-0.7 M104.5,89.3l9.7-15.5l6.8-0.3l-14,28.4l-0.5-3.5c-0.1-0.5-0.6-0.9-1.1-0.9c-0.1,0-0.2,0.1-0.4,0.1
		l-2.2,1.2"/>
</g>
</svg>
