<svg xmlns="http://www.w3.org/2000/svg" viewBox="0 0 144 144"><defs><style>.cls-1{fill:#f4c6c6;}.cls-2{fill:#f59493;}.cls-3{fill:#808285;}</style></defs><title>custom</title><g id="Layer_3" data-name="Layer 3"><path class="cls-1" d="M73,23.57c-6-.25-8.56,6.25-10.69,10.1-1.16,2.1-6.79,7-3.91,12.31a5.9,5.9,0,0,0,6.73,3.21c2.76-.74,4.48-2.94,7.28-2.39s6.35,2.58,8.14,2.62c3.19.08,4.54-.63,6-3.48,2.07-4.09-1.47-9.83-4-12.63C79,29.42,80,23.86,73,23.57Z"/><path class="cls-1" d="M79.42,8.18C75.12,8.12,71.68,14,74.7,20c.67,1.33,4.25,2.49,6.2.76C84.54,17.54,84.39,8.24,79.42,8.18Z"/><path class="cls-1" d="M83.23,27.22c0,2.7,1.54,4.21,3.77,3.85,7-1.15,7.08-9.15,3.1-10.71C88,19.52,83.25,24.21,83.23,27.22Z"/><path class="cls-1" d="M61.42,10.84c-3.36,1.79-1.63,10.73,1.51,12.2a5.17,5.17,0,0,0,6.44-1.89C71.1,18.12,66.13,8.34,61.42,10.84Z"/><path class="cls-1" d="M52.3,23c-2.14,2.58-.57,6.38.47,7.59A4.65,4.65,0,0,0,57,32.3a3.49,3.49,0,0,0,2.73-3.4C59.76,24.15,53.61,21.47,52.3,23Z"/><path class="cls-2" d="M29.87,72.13a4.59,4.59,0,0,0-3.66,1.46,6.08,6.08,0,0,0-1.27,4.12,5.73,5.73,0,0,0,1.41,4.15,5,5,0,0,0,3.8,1.46A6,6,0,0,0,32.3,83,14.7,14.7,0,0,0,34,82.2a3.07,3.07,0,0,1,.82,1,3.19,3.19,0,0,1,.29,1.41,2.54,2.54,0,0,1-1.41,2.16,8.25,8.25,0,0,1-4.29.88,12.67,12.67,0,0,1-3.91-.59,8.71,8.71,0,0,1-3.19-1.81,8.53,8.53,0,0,1-2.15-3.1,11.49,11.49,0,0,1-.79-4.48,11.12,11.12,0,0,1,.76-4.26,9,9,0,0,1,2.08-3.12,8.73,8.73,0,0,1,3.08-1.92,10.84,10.84,0,0,1,3.78-.65,8.7,8.7,0,0,1,4.42.93A2.74,2.74,0,0,1,35,71.07a2.41,2.41,0,0,1-.4,1.39,3.31,3.31,0,0,1-.93.93A10.16,10.16,0,0,0,32,72.5,5.61,5.61,0,0,0,29.87,72.13Z"/><path class="cls-2" d="M37.44,72.28a7.12,7.12,0,0,1,1-.19A10,10,0,0,1,39.79,72,7.35,7.35,0,0,1,41,72.1a2.1,2.1,0,0,1,.92.37,1.8,1.8,0,0,1,.57.76,3.3,3.3,0,0,1,.2,1.25v6.67A2.3,2.3,0,0,0,43.33,83a2.65,2.65,0,0,0,1.8.54,4.48,4.48,0,0,0,1.16-.12,4,4,0,0,0,.7-.25V72.28a7.12,7.12,0,0,1,1-.19A10,10,0,0,1,49.34,72a7.34,7.34,0,0,1,1.22.09,2.1,2.1,0,0,1,.92.37,1.8,1.8,0,0,1,.57.76,3.3,3.3,0,0,1,.2,1.25v9.42A2.53,2.53,0,0,1,51,86.23a8.51,8.51,0,0,1-2.59,1,14.18,14.18,0,0,1-3.27.36A12.07,12.07,0,0,1,42,87.26a6.87,6.87,0,0,1-2.43-1.15,5.12,5.12,0,0,1-1.58-2,7.11,7.11,0,0,1-.56-3Z"/><path class="cls-2" d="M68.19,82.64a4.36,4.36,0,0,1-1.77,3.69,8.57,8.57,0,0,1-5.21,1.33,14.73,14.73,0,0,1-2.42-.19,6.94,6.94,0,0,1-1.91-.57,3.41,3.41,0,0,1-1.24-1,2.23,2.23,0,0,1-.45-1.39,2.39,2.39,0,0,1,.31-1.26,3.16,3.16,0,0,1,.74-.85,12.4,12.4,0,0,0,2.06.88,8.49,8.49,0,0,0,2.68.39,3.14,3.14,0,0,0,1.47-.28.84.84,0,0,0,.51-.74.78.78,0,0,0-.37-.68,3.46,3.46,0,0,0-1.24-.4l-.93-.19a8.69,8.69,0,0,1-4-1.66,4,4,0,0,1-1.32-3.24A4.28,4.28,0,0,1,57,72.87a7,7,0,0,1,2.15-1,10.56,10.56,0,0,1,2.77-.34,13,13,0,0,1,2.16.17,7,7,0,0,1,1.75.51,3.16,3.16,0,0,1,1.18.88,2,2,0,0,1,.43,1.29,2.64,2.64,0,0,1-.26,1.22,2.77,2.77,0,0,1-.67.85,3.86,3.86,0,0,0-.74-.33q-.5-.17-1.08-.31t-1.19-.23a7.23,7.23,0,0,0-1.1-.09,4.24,4.24,0,0,0-1.58.23.77.77,0,0,0-.56.73.65.65,0,0,0,.31.56,3.53,3.53,0,0,0,1.18.4l1,.22a9.15,9.15,0,0,1,4.23,1.88A4.07,4.07,0,0,1,68.19,82.64Z"/><path class="cls-2" d="M76,82a1.27,1.27,0,0,0,.51,1.15,2.58,2.58,0,0,0,1.44.34,6.22,6.22,0,0,0,1-.08,5.29,5.29,0,0,0,.87-.2,3.85,3.85,0,0,1,.48.76,2.32,2.32,0,0,1,.2,1,2.4,2.4,0,0,1-.88,1.92,4.93,4.93,0,0,1-3.12.74,6.34,6.34,0,0,1-4.2-1.24,5,5,0,0,1-1.47-4V69.06q.34-.09,1-.2a8,8,0,0,1,1.35-.11,4,4,0,0,1,2.12.48,2.24,2.24,0,0,1,.76,2v2h4.06a5.34,5.34,0,0,1,.36.85,3.57,3.57,0,0,1,.17,1.13,2.15,2.15,0,0,1-.48,1.57,1.73,1.73,0,0,1-1.29.48H76Z"/><path class="cls-2" d="M98.54,79.6A9.33,9.33,0,0,1,97.95,83a6.92,6.92,0,0,1-1.66,2.53,7,7,0,0,1-2.56,1.55,9.88,9.88,0,0,1-3.32.53,9.41,9.41,0,0,1-3.32-.56,7.3,7.3,0,0,1-2.56-1.6,7.12,7.12,0,0,1-1.66-2.53,9,9,0,0,1-.59-3.35,8.94,8.94,0,0,1,.59-3.32,7.12,7.12,0,0,1,1.66-2.53,7.31,7.31,0,0,1,2.56-1.6,9.39,9.39,0,0,1,3.32-.56,9.15,9.15,0,0,1,3.32.57,7.48,7.48,0,0,1,2.56,1.61,7.12,7.12,0,0,1,1.66,2.53A8.86,8.86,0,0,1,98.54,79.6Zm-10.85,0a4.89,4.89,0,0,0,.73,2.9,2.36,2.36,0,0,0,2,1,2.27,2.27,0,0,0,2-1,5.08,5.08,0,0,0,.7-2.88,4.92,4.92,0,0,0-.71-2.87,2.52,2.52,0,0,0-4,0A4.92,4.92,0,0,0,87.69,79.6Z"/><path class="cls-2" d="M108.33,71.6a8.89,8.89,0,0,1,2.5.36A6.16,6.16,0,0,1,113,73,9.16,9.16,0,0,1,115,72a9.37,9.37,0,0,1,5.11-.09,5.88,5.88,0,0,1,2,1,4.72,4.72,0,0,1,1.41,1.77,6.17,6.17,0,0,1,.53,2.68V87.1a7.18,7.18,0,0,1-1,.19,10.06,10.06,0,0,1-1.38.09,7.34,7.34,0,0,1-1.22-.09,2.1,2.1,0,0,1-.91-.37,1.79,1.79,0,0,1-.57-.76,3.28,3.28,0,0,1-.2-1.26V77.49a1.62,1.62,0,0,0-.53-1.35,2.23,2.23,0,0,0-1.43-.42,2.47,2.47,0,0,0-.93.2,2.66,2.66,0,0,0-.74.42,1,1,0,0,1,0,.23V87.1a8.67,8.67,0,0,1-1,.19,9.82,9.82,0,0,1-1.35.09,7.33,7.33,0,0,1-1.22-.09,2.1,2.1,0,0,1-.92-.37,1.79,1.79,0,0,1-.57-.76,3.28,3.28,0,0,1-.2-1.26V77.49a1.55,1.55,0,0,0-.57-1.35,2.27,2.27,0,0,0-1.38-.42,2.46,2.46,0,0,0-1,.17,7.05,7.05,0,0,0-.68.33V87.1a7.18,7.18,0,0,1-1,.19,10,10,0,0,1-1.38.09,7.34,7.34,0,0,1-1.22-.09,2.1,2.1,0,0,1-.92-.37,1.79,1.79,0,0,1-.57-.76,3.28,3.28,0,0,1-.2-1.26V75.54a2.23,2.23,0,0,1,.36-1.33,4,4,0,0,1,1-.93,9,9,0,0,1,2.62-1.21A11.44,11.44,0,0,1,108.33,71.6Z"/><path class="cls-3" d="M21.76,111.82v-6.67h.77q.25,0,.32.29l.08.49a3.53,3.53,0,0,1,.29-.36,1.92,1.92,0,0,1,.32-.28,1.58,1.58,0,0,1,.37-.19,1.34,1.34,0,0,1,.43-.07,1.07,1.07,0,0,1,.82.34,2.15,2.15,0,0,1,.48.91,2.12,2.12,0,0,1,.31-.57,1.78,1.78,0,0,1,.41-.39,1.64,1.64,0,0,1,.47-.22,1.79,1.79,0,0,1,.5-.07,1.7,1.7,0,0,1,.77.17,1.53,1.53,0,0,1,.57.49,2.39,2.39,0,0,1,.35.79,4.34,4.34,0,0,1,.12,1.07v4.24H27.88v-4.24a1.7,1.7,0,0,0-.22-1,.73.73,0,0,0-.65-.32.78.78,0,0,0-.36.08.88.88,0,0,0-.29.24,1.18,1.18,0,0,0-.2.4,1.94,1.94,0,0,0-.07.55v4.24H24.82v-4.24a1.75,1.75,0,0,0-.21-1,.72.72,0,0,0-.63-.31.85.85,0,0,0-.51.17,1.88,1.88,0,0,0-.44.47v4.88Z"/><path class="cls-3" d="M34.52,111.82h-.57a.5.5,0,0,1-.28-.07.45.45,0,0,1-.15-.28L33.4,111a4.66,4.66,0,0,1-.39.4,2.35,2.35,0,0,1-.4.29,1.73,1.73,0,0,1-.44.18,2.09,2.09,0,0,1-.51.06,1.64,1.64,0,0,1-.62-.11,1.28,1.28,0,0,1-.48-.34,1.6,1.6,0,0,1-.32-.57,2.5,2.5,0,0,1-.11-.79,1.9,1.9,0,0,1,.16-.75,1.75,1.75,0,0,1,.52-.67,3,3,0,0,1,1-.49,4.93,4.93,0,0,1,1.5-.2v-.39a1.78,1.78,0,0,0-.22-1,.74.74,0,0,0-.65-.32,1.25,1.25,0,0,0-.51.09,1.82,1.82,0,0,0-.36.2l-.28.21a.48.48,0,0,1-.28.09.32.32,0,0,1-.22-.08.64.64,0,0,1-.15-.21l-.23-.51A2.79,2.79,0,0,1,32.57,105a1.73,1.73,0,0,1,.82.19,1.8,1.8,0,0,1,.61.53,2.47,2.47,0,0,1,.38.82,3.92,3.92,0,0,1,.13,1Zm-2.46-1a1.34,1.34,0,0,0,.36,0,1.18,1.18,0,0,0,.31-.13,1.71,1.71,0,0,0,.28-.22,2.92,2.92,0,0,0,.27-.31V109a4.1,4.1,0,0,0-.93.09,2.1,2.1,0,0,0-.6.23.84.84,0,0,0-.32.32.85.85,0,0,0-.1.4.8.8,0,0,0,.2.61A.73.73,0,0,0,32.05,110.82Z"/><path class="cls-3" d="M37.3,103.21a1.12,1.12,0,0,1-.07.39,1.1,1.1,0,0,1-.18.32.85.85,0,0,1-.26.22.65.65,0,0,1-.32.08.62.62,0,0,1-.31-.08.84.84,0,0,1-.25-.22,1.09,1.09,0,0,1-.17-.32,1.16,1.16,0,0,1-.06-.39,1.24,1.24,0,0,1,.06-.4,1.08,1.08,0,0,1,.17-.33.86.86,0,0,1,.25-.22.64.64,0,0,1,.31-.08.66.66,0,0,1,.32.08.87.87,0,0,1,.26.22,1.09,1.09,0,0,1,.18.33A1.2,1.2,0,0,1,37.3,103.21Zm-.19,1.94v6.67H35.84v-6.67Z"/><path class="cls-3" d="M38.54,111.82v-6.67h.77q.25,0,.32.29l.09.53a3.24,3.24,0,0,1,.34-.38,2.29,2.29,0,0,1,.37-.29,1.66,1.66,0,0,1,.42-.19,1.79,1.79,0,0,1,.49-.07,1.55,1.55,0,0,1,.76.19,1.59,1.59,0,0,1,.56.52,2.51,2.51,0,0,1,.34.8,4.24,4.24,0,0,1,.12,1v4.24H41.86v-4.24a1.7,1.7,0,0,0-.22-.95.75.75,0,0,0-.67-.33,1.11,1.11,0,0,0-.62.19,2.35,2.35,0,0,0-.54.51v4.82Z"/><path class="cls-3" d="M46.1,111.93a1.24,1.24,0,0,1-1.05-.49,2.21,2.21,0,0,1-.37-1.36v-3.72h-.53a.23.23,0,0,1-.18-.08.37.37,0,0,1-.07-.25v-.64l.85-.18.27-1.82a.34.34,0,0,1,.09-.2.26.26,0,0,1,.19-.07h.66v2.1h1.38v1.14H45.95V110a.84.84,0,0,0,.12.49.38.38,0,0,0,.33.18.47.47,0,0,0,.2,0l.14-.07.1-.08a.15.15,0,0,1,.09,0,.13.13,0,0,1,.09,0l.08.11.38.78a1.85,1.85,0,0,1-.64.44A1.92,1.92,0,0,1,46.1,111.93Z"/><path class="cls-3" d="M52.46,111.82H51.9a.5.5,0,0,1-.28-.07.45.45,0,0,1-.15-.28l-.11-.47a4.66,4.66,0,0,1-.39.4,2.35,2.35,0,0,1-.4.29,1.73,1.73,0,0,1-.44.18,2.09,2.09,0,0,1-.51.06,1.64,1.64,0,0,1-.62-.11,1.28,1.28,0,0,1-.48-.34,1.6,1.6,0,0,1-.32-.57,2.5,2.5,0,0,1-.11-.79,1.9,1.9,0,0,1,.16-.75,1.75,1.75,0,0,1,.52-.67,3,3,0,0,1,1-.49,4.93,4.93,0,0,1,1.5-.2v-.39a1.78,1.78,0,0,0-.22-1,.74.74,0,0,0-.65-.32,1.25,1.25,0,0,0-.51.09,1.82,1.82,0,0,0-.36.2l-.28.21a.48.48,0,0,1-.28.09.32.32,0,0,1-.22-.08.64.64,0,0,1-.15-.21l-.23-.51A2.79,2.79,0,0,1,50.52,105a1.73,1.73,0,0,1,.82.19,1.8,1.8,0,0,1,.61.53,2.47,2.47,0,0,1,.38.82,3.92,3.92,0,0,1,.13,1Zm-2.46-1a1.34,1.34,0,0,0,.36,0,1.18,1.18,0,0,0,.31-.13,1.71,1.71,0,0,0,.28-.22,2.92,2.92,0,0,0,.27-.31V109a4.1,4.1,0,0,0-.93.09,2.1,2.1,0,0,0-.6.23.84.84,0,0,0-.32.32.85.85,0,0,0-.1.4.8.8,0,0,0,.2.61A.73.73,0,0,0,50,110.82Z"/><path class="cls-3" d="M55.25,103.21a1.12,1.12,0,0,1-.07.39,1.1,1.1,0,0,1-.18.32.85.85,0,0,1-.26.22.65.65,0,0,1-.32.08.62.62,0,0,1-.31-.08.84.84,0,0,1-.25-.22,1.09,1.09,0,0,1-.17-.32,1.16,1.16,0,0,1-.06-.39,1.24,1.24,0,0,1,.06-.4,1.08,1.08,0,0,1,.17-.33.86.86,0,0,1,.25-.22.64.64,0,0,1,.31-.08.66.66,0,0,1,.32.08.87.87,0,0,1,.26.22,1.09,1.09,0,0,1,.18.33A1.2,1.2,0,0,1,55.25,103.21Zm-.19,1.94v6.67H53.79v-6.67Z"/><path class="cls-3" d="M56.49,111.82v-6.67h.77q.25,0,.32.29l.09.53a3.24,3.24,0,0,1,.34-.38,2.29,2.29,0,0,1,.37-.29,1.66,1.66,0,0,1,.42-.19,1.79,1.79,0,0,1,.49-.07,1.55,1.55,0,0,1,.76.19,1.59,1.59,0,0,1,.56.52,2.51,2.51,0,0,1,.34.8,4.24,4.24,0,0,1,.12,1v4.24H59.81v-4.24a1.7,1.7,0,0,0-.22-.95.75.75,0,0,0-.67-.33,1.11,1.11,0,0,0-.62.19,2.35,2.35,0,0,0-.54.51v4.82Z"/><path class="cls-3" d="M65.46,105.15v4.24a1.69,1.69,0,0,0,.22.95.75.75,0,0,0,.67.33,1.11,1.11,0,0,0,.62-.19,2.26,2.26,0,0,0,.54-.51v-4.82h1.27v6.67H68q-.25,0-.32-.29l-.09-.53a4,4,0,0,1-.34.38,2,2,0,0,1-.37.29,1.83,1.83,0,0,1-.43.19,1.72,1.72,0,0,1-.49.07,1.54,1.54,0,0,1-.76-.18,1.61,1.61,0,0,1-.56-.52,2.53,2.53,0,0,1-.34-.8,4.26,4.26,0,0,1-.12-1v-4.24Z"/><path class="cls-3" d="M73.25,106.45a.41.41,0,0,1-.11.15.23.23,0,0,1-.14,0,.38.38,0,0,1-.2-.06l-.24-.15a1.89,1.89,0,0,0-.32-.15,1.22,1.22,0,0,0-.42-.06.83.83,0,0,0-.59.2.69.69,0,0,0-.22.53.58.58,0,0,0,.11.36,1,1,0,0,0,.29.26,2.5,2.5,0,0,0,.41.2l.47.19a4.53,4.53,0,0,1,.47.24,1.66,1.66,0,0,1,.41.34,1.59,1.59,0,0,1,.29.49,1.92,1.92,0,0,1,.11.69,2.73,2.73,0,0,1-.14.89,2,2,0,0,1-.41.7,1.83,1.83,0,0,1-.66.46,2.45,2.45,0,0,1-1.43.1,2.65,2.65,0,0,1-.5-.17,2.59,2.59,0,0,1-.44-.26,2.22,2.22,0,0,1-.36-.33l.29-.61a.49.49,0,0,1,.13-.17.31.31,0,0,1,.19-.06.35.35,0,0,1,.22.08l.24.18a1.9,1.9,0,0,0,.33.18,1.15,1.15,0,0,0,.47.08,1,1,0,0,0,.39-.07.76.76,0,0,0,.27-.18.67.67,0,0,0,.15-.26.94.94,0,0,0,0-.3.63.63,0,0,0-.11-.38,1,1,0,0,0-.29-.26,2.47,2.47,0,0,0-.42-.2l-.48-.19a4,4,0,0,1-.48-.24,1.68,1.68,0,0,1-.42-.35,1.64,1.64,0,0,1-.29-.53,2.27,2.27,0,0,1-.11-.75,2.37,2.37,0,0,1,.13-.78,1.86,1.86,0,0,1,.38-.65,1.81,1.81,0,0,1,.62-.44,2.09,2.09,0,0,1,.86-.17,2.15,2.15,0,0,1,1,.23,2.26,2.26,0,0,1,.74.6Z"/><path class="cls-3" d="M75.77,105.15v4.24a1.69,1.69,0,0,0,.22.95.75.75,0,0,0,.67.33,1.11,1.11,0,0,0,.62-.19,2.26,2.26,0,0,0,.54-.51v-4.82h1.27v6.67h-.77q-.25,0-.32-.29L77.9,111a4,4,0,0,1-.34.38,2,2,0,0,1-.37.29,1.83,1.83,0,0,1-.43.19,1.72,1.72,0,0,1-.49.07,1.54,1.54,0,0,1-.76-.18,1.61,1.61,0,0,1-.56-.52,2.53,2.53,0,0,1-.34-.8,4.26,4.26,0,0,1-.12-1v-4.24Z"/><path class="cls-3" d="M84.57,111.82H84a.5.5,0,0,1-.28-.07.45.45,0,0,1-.15-.28l-.11-.47a4.66,4.66,0,0,1-.39.4,2.35,2.35,0,0,1-.4.29,1.73,1.73,0,0,1-.44.18,2.09,2.09,0,0,1-.51.06,1.64,1.64,0,0,1-.62-.11,1.28,1.28,0,0,1-.48-.34,1.6,1.6,0,0,1-.32-.57,2.5,2.5,0,0,1-.11-.79,1.9,1.9,0,0,1,.16-.75,1.75,1.75,0,0,1,.52-.67,3,3,0,0,1,1-.49,4.93,4.93,0,0,1,1.5-.2v-.39a1.78,1.78,0,0,0-.22-1,.74.74,0,0,0-.65-.32,1.25,1.25,0,0,0-.51.09,1.82,1.82,0,0,0-.36.2l-.28.21a.48.48,0,0,1-.28.09.32.32,0,0,1-.22-.08.64.64,0,0,1-.15-.21l-.23-.51A2.79,2.79,0,0,1,82.62,105a1.73,1.73,0,0,1,.82.19,1.8,1.8,0,0,1,.61.53,2.47,2.47,0,0,1,.38.82,3.92,3.92,0,0,1,.13,1Zm-2.46-1a1.34,1.34,0,0,0,.36,0,1.18,1.18,0,0,0,.31-.13,1.71,1.71,0,0,0,.28-.22,2.92,2.92,0,0,0,.27-.31V109a4.1,4.1,0,0,0-.93.09,2.1,2.1,0,0,0-.6.23.84.84,0,0,0-.32.32.85.85,0,0,0-.1.4.8.8,0,0,0,.2.61A.73.73,0,0,0,82.1,110.82Z"/><path class="cls-3" d="M87.16,102.16v9.66H85.89v-9.66Z"/><path class="cls-3" d="M92.74,105a2.07,2.07,0,0,1,.92.2,2,2,0,0,1,.72.59,2.86,2.86,0,0,1,.47.95,4.46,4.46,0,0,1,.17,1.28,2.86,2.86,0,0,1,0,.3.58.58,0,0,1,0,.19.21.21,0,0,1-.09.1.31.31,0,0,1-.14,0H91.48a2.67,2.67,0,0,0,.44,1.51,1.22,1.22,0,0,0,1,.48,1.39,1.39,0,0,0,.53-.09,2.2,2.2,0,0,0,.39-.2l.29-.2a.42.42,0,0,1,.24-.09.23.23,0,0,1,.13,0,.34.34,0,0,1,.1.11l.37.58a2.35,2.35,0,0,1-.47.52,2.45,2.45,0,0,1-.55.34,2.52,2.52,0,0,1-.58.18,3.34,3.34,0,0,1-.57.05,2.3,2.3,0,0,1-1-.23A2.33,2.33,0,0,1,91,111a3.43,3.43,0,0,1-.55-1.12,5.39,5.39,0,0,1-.2-1.54,4.6,4.6,0,0,1,.17-1.28,3.32,3.32,0,0,1,.5-1,2.43,2.43,0,0,1,.79-.71A2.14,2.14,0,0,1,92.74,105Zm0,1.15a1,1,0,0,0-.87.4,2.22,2.22,0,0,0-.4,1.12h2.38a2.52,2.52,0,0,0-.07-.59,1.51,1.51,0,0,0-.21-.48,1,1,0,0,0-.35-.33A1,1,0,0,0,92.77,106.2Z"/><path class="cls-3" d="M100.18,111.82h-.57a.5.5,0,0,1-.28-.07.45.45,0,0,1-.15-.28l-.11-.47a4.66,4.66,0,0,1-.39.4,2.35,2.35,0,0,1-.4.29,1.73,1.73,0,0,1-.44.18,2.09,2.09,0,0,1-.51.06,1.64,1.64,0,0,1-.62-.11,1.28,1.28,0,0,1-.48-.34,1.6,1.6,0,0,1-.32-.57,2.5,2.5,0,0,1-.11-.79,1.9,1.9,0,0,1,.16-.75,1.75,1.75,0,0,1,.52-.67,3,3,0,0,1,1-.49,4.93,4.93,0,0,1,1.5-.2v-.39a1.78,1.78,0,0,0-.22-1,.74.74,0,0,0-.65-.32,1.25,1.25,0,0,0-.51.09,1.82,1.82,0,0,0-.36.2l-.28.21a.48.48,0,0,1-.28.09.32.32,0,0,1-.22-.08.64.64,0,0,1-.15-.21l-.23-.51A2.79,2.79,0,0,1,98.23,105a1.73,1.73,0,0,1,.82.19,1.8,1.8,0,0,1,.61.53,2.47,2.47,0,0,1,.38.82,3.92,3.92,0,0,1,.13,1Zm-2.46-1a1.34,1.34,0,0,0,.36,0,1.18,1.18,0,0,0,.31-.13,1.71,1.71,0,0,0,.28-.22,2.92,2.92,0,0,0,.27-.31V109a4.1,4.1,0,0,0-.93.09,2.1,2.1,0,0,0-.6.23.84.84,0,0,0-.32.32.85.85,0,0,0-.1.4.8.8,0,0,0,.2.61A.73.73,0,0,0,97.71,110.82Z"/><path class="cls-3" d="M103.15,111.93a1.24,1.24,0,0,1-1.05-.49,2.21,2.21,0,0,1-.37-1.36v-3.72h-.53a.23.23,0,0,1-.18-.08.37.37,0,0,1-.07-.25v-.64l.85-.18.27-1.82a.34.34,0,0,1,.09-.2.26.26,0,0,1,.19-.07H103v2.1h1.38v1.14H103V110a.84.84,0,0,0,.12.49.38.38,0,0,0,.33.18.47.47,0,0,0,.2,0l.14-.07.1-.08a.15.15,0,0,1,.09,0,.13.13,0,0,1,.09,0l.08.11.38.78a1.85,1.85,0,0,1-.64.44A1.92,1.92,0,0,1,103.15,111.93Z"/><path class="cls-3" d="M106.93,103.21a1.12,1.12,0,0,1-.07.39,1.1,1.1,0,0,1-.18.32.85.85,0,0,1-.26.22.65.65,0,0,1-.32.08.62.62,0,0,1-.31-.08.84.84,0,0,1-.25-.22,1.09,1.09,0,0,1-.17-.32,1.16,1.16,0,0,1-.06-.39,1.24,1.24,0,0,1,.06-.4,1.08,1.08,0,0,1,.17-.33.86.86,0,0,1,.25-.22.64.64,0,0,1,.31-.08.66.66,0,0,1,.32.08.87.87,0,0,1,.26.22,1.09,1.09,0,0,1,.18.33A1.2,1.2,0,0,1,106.93,103.21Zm-.19,1.94v6.67h-1.27v-6.67Z"/><path class="cls-3" d="M108.17,111.82v-6.67h.77q.25,0,.32.29l.09.53a3.24,3.24,0,0,1,.34-.38,2.29,2.29,0,0,1,.37-.29,1.66,1.66,0,0,1,.42-.19A1.79,1.79,0,0,1,111,105a1.55,1.55,0,0,1,.76.19,1.59,1.59,0,0,1,.56.52,2.51,2.51,0,0,1,.34.8,4.24,4.24,0,0,1,.12,1v4.24h-1.27v-4.24a1.7,1.7,0,0,0-.22-.95.75.75,0,0,0-.67-.33,1.11,1.11,0,0,0-.62.19,2.35,2.35,0,0,0-.54.51v4.82Z"/><path class="cls-3" d="M115.82,105a2.23,2.23,0,0,1,.64.09,1.92,1.92,0,0,1,.54.26h1.51v.6a.39.39,0,0,1-.06.23.34.34,0,0,1-.21.12l-.47.11a2.52,2.52,0,0,1,.08.36,2.72,2.72,0,0,1,0,.4,2.43,2.43,0,0,1-.16.89,2,2,0,0,1-.43.68,1.89,1.89,0,0,1-.65.43,2.14,2.14,0,0,1-.82.15,2.39,2.39,0,0,1-.58-.07.54.54,0,0,0-.25.42.33.33,0,0,0,.15.3,1,1,0,0,0,.38.13,3.33,3.33,0,0,0,.54,0,6.16,6.16,0,0,1,.62,0,4.09,4.09,0,0,1,.62.11,1.62,1.62,0,0,1,.54.26,1.26,1.26,0,0,1,.38.48,1.8,1.8,0,0,1,.15.78,2.24,2.24,0,0,1-.17.86,2.27,2.27,0,0,1-.5.74,2.48,2.48,0,0,1-.8.52,2.75,2.75,0,0,1-1.08.2,3.31,3.31,0,0,1-1-.15,2.2,2.2,0,0,1-.73-.39,1.58,1.58,0,0,1-.58-1.23,1.33,1.33,0,0,1,.23-.79,1.56,1.56,0,0,1,.63-.51,1,1,0,0,1-.31-.36,1.29,1.29,0,0,1-.12-.59,1.24,1.24,0,0,1,0-.31,1.38,1.38,0,0,1,.13-.32,1.5,1.5,0,0,1,.21-.3,1.49,1.49,0,0,1,.3-.25,1.89,1.89,0,0,1-.63-.73,2.35,2.35,0,0,1-.23-1.07,2.43,2.43,0,0,1,.16-.89,2,2,0,0,1,.44-.68,1.88,1.88,0,0,1,.66-.43A2.27,2.27,0,0,1,115.82,105Zm1.39,7.07a.54.54,0,0,0-.09-.33.61.61,0,0,0-.25-.2,1.55,1.55,0,0,0-.37-.1,2.89,2.89,0,0,0-.45,0h-.49a1.67,1.67,0,0,1-.49-.07,1.26,1.26,0,0,0-.35.35.86.86,0,0,0-.13.47.79.79,0,0,0,.07.33.67.67,0,0,0,.22.26,1.14,1.14,0,0,0,.39.17,2.42,2.42,0,0,0,.59.06,2.33,2.33,0,0,0,.61-.07,1.28,1.28,0,0,0,.42-.19.75.75,0,0,0,.24-.29A.88.88,0,0,0,117.21,112.1Zm-1.39-3.78a1,1,0,0,0,.41-.08.8.8,0,0,0,.29-.22,1,1,0,0,0,.17-.34,1.55,1.55,0,0,0,.06-.44,1.21,1.21,0,0,0-.23-.78,1,1,0,0,0-1.4,0,1.21,1.21,0,0,0-.23.78,1.55,1.55,0,0,0,.06.44,1,1,0,0,0,.17.35.79.79,0,0,0,.29.23A1,1,0,0,0,115.82,108.33Z"/><path class="cls-3" d="M119,110.83a1.07,1.07,0,0,1,.05-.34.89.89,0,0,1,.15-.28.69.69,0,0,1,.24-.19.67.67,0,0,1,.3-.07.64.64,0,0,1,.34.09.74.74,0,0,1,.24.24,1.12,1.12,0,0,1,.14.35,1.85,1.85,0,0,1,0,.42,3.09,3.09,0,0,1-.07.66,3.94,3.94,0,0,1-.22.69,4.2,4.2,0,0,1-.35.67,3.65,3.65,0,0,1-.48.6l-.22-.25a.34.34,0,0,1-.09-.24.29.29,0,0,1,0-.12.5.5,0,0,1,.07-.12l.14-.19a2.62,2.62,0,0,0,.16-.26,2.68,2.68,0,0,0,.15-.32,1.68,1.68,0,0,0,.1-.37.58.58,0,0,1-.29-.08.7.7,0,0,1-.23-.2,1,1,0,0,1-.15-.31A1.31,1.31,0,0,1,119,110.83Z"/><path class="cls-3" d="M9.31,122.05a.41.41,0,0,1-.11.15.23.23,0,0,1-.14,0,.38.38,0,0,1-.2-.06L8.62,122a1.89,1.89,0,0,0-.32-.15,1.22,1.22,0,0,0-.42-.06.83.83,0,0,0-.59.2.69.69,0,0,0-.22.53.58.58,0,0,0,.11.36,1,1,0,0,0,.29.26,2.5,2.5,0,0,0,.41.2l.47.19a4.53,4.53,0,0,1,.47.24,1.66,1.66,0,0,1,.41.34,1.59,1.59,0,0,1,.29.49,1.92,1.92,0,0,1,.11.69,2.73,2.73,0,0,1-.14.89,2,2,0,0,1-.41.7,1.83,1.83,0,0,1-.66.46,2.45,2.45,0,0,1-1.43.1,2.65,2.65,0,0,1-.5-.17,2.59,2.59,0,0,1-.44-.26,2.22,2.22,0,0,1-.36-.33L6,126.1a.49.49,0,0,1,.13-.17.31.31,0,0,1,.19-.06.35.35,0,0,1,.22.08l.24.18a1.9,1.9,0,0,0,.33.18,1.15,1.15,0,0,0,.47.08,1,1,0,0,0,.39-.07.76.76,0,0,0,.27-.18.67.67,0,0,0,.15-.26.94.94,0,0,0,0-.3.63.63,0,0,0-.11-.38,1,1,0,0,0-.29-.26,2.47,2.47,0,0,0-.42-.2l-.48-.19a4,4,0,0,1-.48-.24,1.68,1.68,0,0,1-.42-.35,1.64,1.64,0,0,1-.29-.53,2.27,2.27,0,0,1-.11-.75A2.37,2.37,0,0,1,6,121.9a1.86,1.86,0,0,1,.38-.65,1.81,1.81,0,0,1,.62-.44,2.09,2.09,0,0,1,.86-.17,2.15,2.15,0,0,1,1,.23,2.26,2.26,0,0,1,.74.6Z"/><path class="cls-3" d="M12,117.76v9.66H10.75v-9.66Z"/><path class="cls-3" d="M15.62,120.65a2.07,2.07,0,0,1,.92.2,2,2,0,0,1,.72.59,2.86,2.86,0,0,1,.47.95,4.46,4.46,0,0,1,.17,1.28,2.86,2.86,0,0,1,0,.3.58.58,0,0,1,0,.19.21.21,0,0,1-.09.1.31.31,0,0,1-.14,0H14.35a2.67,2.67,0,0,0,.44,1.51,1.22,1.22,0,0,0,1,.48,1.39,1.39,0,0,0,.53-.09,2.2,2.2,0,0,0,.39-.2l.29-.2a.42.42,0,0,1,.24-.09.23.23,0,0,1,.13,0,.34.34,0,0,1,.1.11l.37.58a2.35,2.35,0,0,1-.47.52,2.45,2.45,0,0,1-.55.34,2.52,2.52,0,0,1-.58.18,3.34,3.34,0,0,1-.57.05,2.3,2.3,0,0,1-1-.23,2.33,2.33,0,0,1-.82-.68,3.43,3.43,0,0,1-.55-1.12,5.39,5.39,0,0,1-.2-1.54,4.6,4.6,0,0,1,.17-1.28,3.32,3.32,0,0,1,.5-1,2.43,2.43,0,0,1,.79-.71A2.14,2.14,0,0,1,15.62,120.65Zm0,1.15a1,1,0,0,0-.87.4,2.22,2.22,0,0,0-.4,1.12h2.38a2.52,2.52,0,0,0-.07-.59,1.51,1.51,0,0,0-.21-.48,1,1,0,0,0-.35-.33A1,1,0,0,0,15.65,121.8Z"/><path class="cls-3" d="M21.1,120.65a2.07,2.07,0,0,1,.92.2,2,2,0,0,1,.72.59,2.86,2.86,0,0,1,.47.95,4.46,4.46,0,0,1,.17,1.28,2.86,2.86,0,0,1,0,.3.58.58,0,0,1,0,.19.21.21,0,0,1-.09.1.31.31,0,0,1-.14,0H19.84a2.67,2.67,0,0,0,.44,1.51,1.22,1.22,0,0,0,1,.48,1.39,1.39,0,0,0,.53-.09,2.2,2.2,0,0,0,.39-.2l.29-.2a.42.42,0,0,1,.24-.09.23.23,0,0,1,.13,0,.34.34,0,0,1,.1.11l.37.58a2.35,2.35,0,0,1-.47.52,2.45,2.45,0,0,1-.55.34,2.52,2.52,0,0,1-.58.18,3.34,3.34,0,0,1-.57.05,2.3,2.3,0,0,1-1-.23,2.33,2.33,0,0,1-.82-.68,3.43,3.43,0,0,1-.55-1.12,5.39,5.39,0,0,1-.2-1.54,4.6,4.6,0,0,1,.17-1.28,3.32,3.32,0,0,1,.5-1,2.43,2.43,0,0,1,.79-.71A2.14,2.14,0,0,1,21.1,120.65Zm0,1.15a1,1,0,0,0-.87.4,2.22,2.22,0,0,0-.4,1.12h2.38a2.52,2.52,0,0,0-.07-.59,1.51,1.51,0,0,0-.21-.48,1,1,0,0,0-.35-.33A1,1,0,0,0,21.13,121.8Z"/><path class="cls-3" d="M24.41,129.6v-8.85h.77a.32.32,0,0,1,.21.07.35.35,0,0,1,.11.22l.1.62a2.9,2.9,0,0,1,.73-.75,1.66,1.66,0,0,1,1-.29,1.44,1.44,0,0,1,.79.23,2,2,0,0,1,.62.66,3.6,3.6,0,0,1,.4,1.07,6.7,6.7,0,0,1,.14,1.45,5.71,5.71,0,0,1-.16,1.38,3.77,3.77,0,0,1-.45,1.1,2.28,2.28,0,0,1-.71.73,1.72,1.72,0,0,1-.94.26,1.53,1.53,0,0,1-.76-.17,1.89,1.89,0,0,1-.56-.48v2.73Zm2.46-7.7a1.09,1.09,0,0,0-.67.21,2.2,2.2,0,0,0-.52.59v3a1.31,1.31,0,0,0,.47.47,1.16,1.16,0,0,0,.55.13,1,1,0,0,0,.52-.14,1.11,1.11,0,0,0,.4-.42,2.37,2.37,0,0,0,.25-.71,5.07,5.07,0,0,0,.09-1,5.6,5.6,0,0,0-.07-1,2.21,2.21,0,0,0-.21-.66,1,1,0,0,0-.34-.37A.86.86,0,0,0,26.87,121.9Z"/><path class="cls-3" d="M31.75,118.81a1.12,1.12,0,0,1-.07.39,1.1,1.1,0,0,1-.18.32.85.85,0,0,1-.26.22.65.65,0,0,1-.32.08.62.62,0,0,1-.31-.08.84.84,0,0,1-.25-.22,1.09,1.09,0,0,1-.17-.32,1.16,1.16,0,0,1-.06-.39,1.24,1.24,0,0,1,.06-.4,1.08,1.08,0,0,1,.17-.33.86.86,0,0,1,.25-.22.64.64,0,0,1,.31-.08.66.66,0,0,1,.32.08.87.87,0,0,1,.26.22,1.09,1.09,0,0,1,.18.33A1.2,1.2,0,0,1,31.75,118.81Zm-.19,1.94v6.67H30.29v-6.67Z"/><path class="cls-3" d="M33,127.42v-6.67h.77q.25,0,.32.29l.09.53a3.24,3.24,0,0,1,.34-.38,2.29,2.29,0,0,1,.37-.29,1.66,1.66,0,0,1,.42-.19,1.79,1.79,0,0,1,.49-.07,1.55,1.55,0,0,1,.76.19,1.59,1.59,0,0,1,.56.52,2.51,2.51,0,0,1,.34.8,4.24,4.24,0,0,1,.12,1v4.24H36.31v-4.24a1.7,1.7,0,0,0-.22-.95.75.75,0,0,0-.67-.33,1.11,1.11,0,0,0-.62.19,2.35,2.35,0,0,0-.54.51v4.82Z"/><path class="cls-3" d="M40.64,120.64a2.23,2.23,0,0,1,.64.09,1.92,1.92,0,0,1,.54.26h1.51v.6a.39.39,0,0,1-.06.23.34.34,0,0,1-.21.12l-.47.11a2.52,2.52,0,0,1,.08.36,2.72,2.72,0,0,1,0,.4,2.43,2.43,0,0,1-.16.89,2,2,0,0,1-.43.68,1.89,1.89,0,0,1-.65.43,2.14,2.14,0,0,1-.82.15,2.39,2.39,0,0,1-.58-.07.54.54,0,0,0-.25.42.33.33,0,0,0,.15.3,1,1,0,0,0,.38.13,3.33,3.33,0,0,0,.54,0,6.16,6.16,0,0,1,.62,0,4.09,4.09,0,0,1,.62.11,1.62,1.62,0,0,1,.54.26,1.26,1.26,0,0,1,.38.48,1.8,1.8,0,0,1,.15.78,2.24,2.24,0,0,1-.17.86,2.27,2.27,0,0,1-.5.74,2.48,2.48,0,0,1-.8.52,2.75,2.75,0,0,1-1.08.2,3.31,3.31,0,0,1-1-.15,2.2,2.2,0,0,1-.73-.39,1.58,1.58,0,0,1-.58-1.23,1.33,1.33,0,0,1,.23-.79,1.56,1.56,0,0,1,.63-.51,1,1,0,0,1-.31-.36,1.29,1.29,0,0,1-.12-.59,1.24,1.24,0,0,1,0-.31,1.38,1.38,0,0,1,.13-.32,1.5,1.5,0,0,1,.21-.3,1.49,1.49,0,0,1,.3-.25,1.89,1.89,0,0,1-.63-.73,2.35,2.35,0,0,1-.23-1.07,2.43,2.43,0,0,1,.16-.89,2,2,0,0,1,.44-.68,1.88,1.88,0,0,1,.66-.43A2.27,2.27,0,0,1,40.64,120.64ZM42,127.7a.54.54,0,0,0-.09-.33.61.61,0,0,0-.25-.2,1.55,1.55,0,0,0-.37-.1,2.89,2.89,0,0,0-.45,0h-.49a1.67,1.67,0,0,1-.49-.07,1.26,1.26,0,0,0-.35.35.86.86,0,0,0-.13.47.79.79,0,0,0,.07.33.67.67,0,0,0,.22.26,1.14,1.14,0,0,0,.39.17,2.42,2.42,0,0,0,.59.06,2.33,2.33,0,0,0,.61-.07,1.28,1.28,0,0,0,.42-.19.75.75,0,0,0,.24-.29A.88.88,0,0,0,42,127.7Zm-1.39-3.78a1,1,0,0,0,.41-.08.8.8,0,0,0,.29-.22,1,1,0,0,0,.17-.34,1.55,1.55,0,0,0,.06-.44,1.21,1.21,0,0,0-.23-.78,1,1,0,0,0-1.4,0,1.21,1.21,0,0,0-.23.78,1.55,1.55,0,0,0,.06.44,1,1,0,0,0,.17.35.79.79,0,0,0,.29.23A1,1,0,0,0,40.64,123.93Z"/><path class="cls-3" d="M43.86,126.43a1.07,1.07,0,0,1,.05-.34.89.89,0,0,1,.15-.28.69.69,0,0,1,.24-.19.67.67,0,0,1,.3-.07.64.64,0,0,1,.34.09.74.74,0,0,1,.24.24,1.12,1.12,0,0,1,.14.35,1.85,1.85,0,0,1,0,.42,3.09,3.09,0,0,1-.07.66,3.94,3.94,0,0,1-.22.69,4.2,4.2,0,0,1-.35.67,3.65,3.65,0,0,1-.48.6L44,129a.34.34,0,0,1-.09-.24.29.29,0,0,1,0-.12.5.5,0,0,1,.07-.12l.14-.19a2.62,2.62,0,0,0,.16-.26,2.68,2.68,0,0,0,.15-.32,1.68,1.68,0,0,0,.1-.37.58.58,0,0,1-.29-.08.7.7,0,0,1-.23-.2,1,1,0,0,1-.15-.31A1.31,1.31,0,0,1,43.86,126.43Z"/><path class="cls-3" d="M52.54,127.42H52a.5.5,0,0,1-.28-.07.45.45,0,0,1-.15-.28l-.11-.47a4.66,4.66,0,0,1-.39.4,2.35,2.35,0,0,1-.4.29,1.73,1.73,0,0,1-.44.18,2.09,2.09,0,0,1-.51.06,1.64,1.64,0,0,1-.62-.11,1.28,1.28,0,0,1-.48-.34,1.6,1.6,0,0,1-.32-.57,2.5,2.5,0,0,1-.11-.79,1.9,1.9,0,0,1,.16-.75,1.75,1.75,0,0,1,.52-.67,3,3,0,0,1,1-.49,4.93,4.93,0,0,1,1.5-.2v-.39a1.78,1.78,0,0,0-.22-1,.74.74,0,0,0-.65-.32,1.25,1.25,0,0,0-.51.09,1.82,1.82,0,0,0-.36.2l-.28.21a.48.48,0,0,1-.28.09.32.32,0,0,1-.22-.08.64.64,0,0,1-.15-.21l-.23-.51a2.79,2.79,0,0,1,2.19-1.05,1.73,1.73,0,0,1,.82.19,1.8,1.8,0,0,1,.61.53,2.47,2.47,0,0,1,.38.82,3.92,3.92,0,0,1,.13,1Zm-2.46-1a1.34,1.34,0,0,0,.36,0,1.18,1.18,0,0,0,.31-.13A1.71,1.71,0,0,0,51,126a2.92,2.92,0,0,0,.27-.31V124.6a4.1,4.1,0,0,0-.93.09,2.1,2.1,0,0,0-.6.23.84.84,0,0,0-.32.32.85.85,0,0,0-.1.4.8.8,0,0,0,.2.61A.73.73,0,0,0,50.08,126.42Z"/><path class="cls-3" d="M53.78,127.42v-6.67h.77q.25,0,.32.29l.09.53a3.24,3.24,0,0,1,.34-.38,2.29,2.29,0,0,1,.37-.29,1.66,1.66,0,0,1,.42-.19,1.79,1.79,0,0,1,.49-.07,1.55,1.55,0,0,1,.76.19,1.59,1.59,0,0,1,.56.52,2.51,2.51,0,0,1,.34.8,4.24,4.24,0,0,1,.12,1v4.24H57.1v-4.24a1.7,1.7,0,0,0-.22-.95.75.75,0,0,0-.67-.33,1.11,1.11,0,0,0-.62.19,2.35,2.35,0,0,0-.54.51v4.82Z"/><path class="cls-3" d="M63.32,127.42q-.25,0-.32-.29l-.1-.64a3.7,3.7,0,0,1-.34.42,2.2,2.2,0,0,1-.39.33,1.78,1.78,0,0,1-.45.21,1.71,1.71,0,0,1-.52.08,1.45,1.45,0,0,1-.79-.23,1.94,1.94,0,0,1-.62-.66,3.58,3.58,0,0,1-.4-1.07,6.78,6.78,0,0,1-.14-1.46,5.69,5.69,0,0,1,.16-1.38,3.73,3.73,0,0,1,.46-1.1,2.32,2.32,0,0,1,.71-.73,1.7,1.7,0,0,1,.93-.26,1.5,1.5,0,0,1,.75.18,2,2,0,0,1,.56.48v-3.52h1.27v9.66Zm-1.69-1.18a1.09,1.09,0,0,0,.67-.21,2.25,2.25,0,0,0,.52-.59v-3a1.34,1.34,0,0,0-.47-.47,1.13,1.13,0,0,0-.55-.14,1,1,0,0,0-.52.14,1.12,1.12,0,0,0-.39.41,2.32,2.32,0,0,0-.25.7,5.07,5.07,0,0,0-.09,1,5.63,5.63,0,0,0,.07,1,2.27,2.27,0,0,0,.21.66.84.84,0,0,0,.78.48Z"/><path class="cls-3" d="M66.8,120.75h1a.36.36,0,0,1,.24.08.37.37,0,0,1,.12.21l.75,3.56c0,.19.07.39.1.57l.07.56q.06-.28.12-.56l.14-.57.87-3.58a.41.41,0,0,1,.12-.21.31.31,0,0,1,.22-.08h.56a.33.33,0,0,1,.23.08.41.41,0,0,1,.12.21l.86,3.64q.07.28.12.54l.1.53q0-.28.08-.56t.11-.58l.78-3.56a.37.37,0,0,1,.12-.21.34.34,0,0,1,.23-.08h1l-1.67,6.67h-1c-.11,0-.19-.1-.24-.29L71,123.28c0-.13-.06-.25-.08-.38s0-.25-.06-.38c0,.13,0,.26-.07.39s-.05.26-.08.39l-1,3.84c0,.19-.14.29-.28.29h-1Z"/><path class="cls-3" d="M79.68,127.42h-.57a.5.5,0,0,1-.28-.07.45.45,0,0,1-.15-.28l-.11-.47a4.66,4.66,0,0,1-.39.4,2.35,2.35,0,0,1-.4.29,1.73,1.73,0,0,1-.44.18,2.09,2.09,0,0,1-.51.06,1.64,1.64,0,0,1-.62-.11,1.28,1.28,0,0,1-.48-.34,1.6,1.6,0,0,1-.32-.57,2.5,2.5,0,0,1-.11-.79,1.9,1.9,0,0,1,.16-.75,1.75,1.75,0,0,1,.52-.67,3,3,0,0,1,1-.49,4.93,4.93,0,0,1,1.5-.2v-.39a1.78,1.78,0,0,0-.22-1,.74.74,0,0,0-.65-.32,1.25,1.25,0,0,0-.51.09,1.82,1.82,0,0,0-.36.2l-.28.21a.48.48,0,0,1-.28.09.32.32,0,0,1-.22-.08.64.64,0,0,1-.15-.21l-.23-.51a2.79,2.79,0,0,1,2.19-1.05,1.73,1.73,0,0,1,.82.19,1.8,1.8,0,0,1,.61.53,2.47,2.47,0,0,1,.38.82,3.92,3.92,0,0,1,.13,1Zm-2.46-1a1.34,1.34,0,0,0,.36,0,1.18,1.18,0,0,0,.31-.13,1.71,1.71,0,0,0,.28-.22,2.92,2.92,0,0,0,.27-.31V124.6a4.1,4.1,0,0,0-.93.09,2.1,2.1,0,0,0-.6.23.84.84,0,0,0-.32.32.85.85,0,0,0-.1.4.8.8,0,0,0,.2.61A.73.73,0,0,0,77.21,126.42Z"/><path class="cls-3" d="M82.27,117.76v9.66H81v-9.66Z"/><path class="cls-3" d="M85,117.76v5.53h.24a.37.37,0,0,0,.2,0,.58.58,0,0,0,.15-.17l1.31-2a.87.87,0,0,1,.18-.21.42.42,0,0,1,.26-.07h1.16l-1.64,2.48a2.65,2.65,0,0,1-.18.25,1.22,1.22,0,0,1-.2.2,1.09,1.09,0,0,1,.19.23l.16.28,1.75,3.24H87.43a.46.46,0,0,1-.25-.07.56.56,0,0,1-.18-.22l-1.34-2.53a.48.48,0,0,0-.15-.2.47.47,0,0,0-.23,0H85v3.05H83.72v-9.66Z"/><path class="cls-3" d="M90.9,118.81a1.12,1.12,0,0,1-.07.39,1.1,1.1,0,0,1-.18.32.85.85,0,0,1-.26.22.65.65,0,0,1-.32.08.62.62,0,0,1-.31-.08.84.84,0,0,1-.25-.22,1.09,1.09,0,0,1-.17-.32,1.16,1.16,0,0,1-.06-.39,1.24,1.24,0,0,1,.06-.4,1.08,1.08,0,0,1,.17-.33.86.86,0,0,1,.25-.22.64.64,0,0,1,.31-.08.66.66,0,0,1,.32.08.87.87,0,0,1,.26.22,1.09,1.09,0,0,1,.18.33A1.2,1.2,0,0,1,90.9,118.81Zm-.19,1.94v6.67H89.44v-6.67Z"/><path class="cls-3" d="M92.14,127.42v-6.67h.77q.25,0,.32.29l.09.53a3.24,3.24,0,0,1,.34-.38,2.29,2.29,0,0,1,.37-.29,1.66,1.66,0,0,1,.42-.19,1.79,1.79,0,0,1,.49-.07,1.55,1.55,0,0,1,.76.19,1.59,1.59,0,0,1,.56.52,2.51,2.51,0,0,1,.34.8,4.24,4.24,0,0,1,.12,1v4.24H95.46v-4.24a1.7,1.7,0,0,0-.22-.95.75.75,0,0,0-.67-.33,1.11,1.11,0,0,0-.62.19,2.35,2.35,0,0,0-.54.51v4.82Z"/><path class="cls-3" d="M99.79,120.64a2.23,2.23,0,0,1,.64.09,1.92,1.92,0,0,1,.54.26h1.51v.6a.39.39,0,0,1-.06.23.34.34,0,0,1-.21.12l-.47.11a2.52,2.52,0,0,1,.08.36,2.72,2.72,0,0,1,0,.4,2.43,2.43,0,0,1-.16.89,2,2,0,0,1-.43.68,1.89,1.89,0,0,1-.65.43,2.14,2.14,0,0,1-.82.15,2.39,2.39,0,0,1-.58-.07.54.54,0,0,0-.25.42.33.33,0,0,0,.15.3,1,1,0,0,0,.38.13,3.33,3.33,0,0,0,.54,0,6.16,6.16,0,0,1,.62,0,4.09,4.09,0,0,1,.62.11,1.62,1.62,0,0,1,.54.26,1.26,1.26,0,0,1,.38.48,1.8,1.8,0,0,1,.15.78,2.24,2.24,0,0,1-.17.86,2.27,2.27,0,0,1-.5.74,2.48,2.48,0,0,1-.8.52,2.75,2.75,0,0,1-1.08.2,3.31,3.31,0,0,1-1-.15,2.2,2.2,0,0,1-.73-.39,1.58,1.58,0,0,1-.58-1.23,1.33,1.33,0,0,1,.23-.79,1.56,1.56,0,0,1,.63-.51,1,1,0,0,1-.31-.36,1.29,1.29,0,0,1-.12-.59,1.24,1.24,0,0,1,0-.31,1.38,1.38,0,0,1,.13-.32,1.5,1.5,0,0,1,.21-.3,1.49,1.49,0,0,1,.3-.25,1.89,1.89,0,0,1-.63-.73,2.35,2.35,0,0,1-.23-1.07,2.43,2.43,0,0,1,.16-.89,2,2,0,0,1,.44-.68,1.88,1.88,0,0,1,.66-.43A2.27,2.27,0,0,1,99.79,120.64Zm1.39,7.07a.54.54,0,0,0-.09-.33.61.61,0,0,0-.25-.2,1.55,1.55,0,0,0-.37-.1,2.89,2.89,0,0,0-.45,0h-.49A1.67,1.67,0,0,1,99,127a1.26,1.26,0,0,0-.35.35.86.86,0,0,0-.13.47.79.79,0,0,0,.07.33.67.67,0,0,0,.22.26,1.14,1.14,0,0,0,.39.17,2.42,2.42,0,0,0,.59.06,2.33,2.33,0,0,0,.61-.07,1.28,1.28,0,0,0,.42-.19.75.75,0,0,0,.24-.29A.88.88,0,0,0,101.18,127.7Zm-1.39-3.78a1,1,0,0,0,.41-.08.8.8,0,0,0,.29-.22,1,1,0,0,0,.17-.34,1.55,1.55,0,0,0,.06-.44,1.21,1.21,0,0,0-.23-.78,1,1,0,0,0-1.4,0,1.21,1.21,0,0,0-.23.78,1.55,1.55,0,0,0,.06.44,1,1,0,0,0,.17.35.79.79,0,0,0,.29.23A1,1,0,0,0,99.79,123.93Z"/><path class="cls-3" d="M105.25,127.42v-6.67H106a.34.34,0,0,1,.27.09.6.6,0,0,1,.1.31l.08.81a3.07,3.07,0,0,1,.66-1,1.21,1.21,0,0,1,.85-.36.94.94,0,0,1,.65.23l-.16,1.2a.28.28,0,0,1-.07.17.19.19,0,0,1-.14,0,.7.7,0,0,1-.21,0,1.12,1.12,0,0,0-.35,0,.94.94,0,0,0-.68.28,2.16,2.16,0,0,0-.48.81v4.15Z"/><path class="cls-3" d="M111.69,120.65a2.3,2.3,0,0,1,1.89.92,3.23,3.23,0,0,1,.52,1.08,5.61,5.61,0,0,1,0,2.85,3.31,3.31,0,0,1-.52,1.09,2.28,2.28,0,0,1-1.89.93,2.37,2.37,0,0,1-1.07-.24,2.34,2.34,0,0,1-.82-.69,3.32,3.32,0,0,1-.53-1.09,5.54,5.54,0,0,1,0-2.85,3.24,3.24,0,0,1,.53-1.08,2.32,2.32,0,0,1,1.9-.92Zm0,5.64a1,1,0,0,0,1-.56,3.41,3.41,0,0,0,.32-1.64,3.44,3.44,0,0,0-.32-1.64,1,1,0,0,0-1-.57,1.05,1.05,0,0,0-1,.57,3.42,3.42,0,0,0-.32,1.64,3.38,3.38,0,0,0,.32,1.63A1.05,1.05,0,0,0,111.69,126.29Z"/><path class="cls-3" d="M116.43,120.75V125a1.69,1.69,0,0,0,.22.95.75.75,0,0,0,.67.33,1.11,1.11,0,0,0,.62-.19,2.26,2.26,0,0,0,.54-.51v-4.82h1.27v6.67H119q-.25,0-.32-.29l-.09-.53a4,4,0,0,1-.34.38,2,2,0,0,1-.37.29,1.83,1.83,0,0,1-.43.19,1.72,1.72,0,0,1-.49.07,1.54,1.54,0,0,1-.76-.18,1.61,1.61,0,0,1-.56-.52,2.53,2.53,0,0,1-.34-.8,4.26,4.26,0,0,1-.12-1v-4.24Z"/><path class="cls-3" d="M122.83,127.53a1.24,1.24,0,0,1-1.05-.49,2.21,2.21,0,0,1-.37-1.36V122h-.53a.23.23,0,0,1-.18-.08.37.37,0,0,1-.07-.25V121l.85-.18.27-1.82a.34.34,0,0,1,.09-.2.26.26,0,0,1,.19-.07h.66v2.1h1.38V122h-1.38v3.61a.84.84,0,0,0,.12.49.38.38,0,0,0,.33.18.47.47,0,0,0,.2,0l.14-.07.1-.08a.15.15,0,0,1,.09,0,.13.13,0,0,1,.09,0l.08.11.38.78a1.85,1.85,0,0,1-.64.44A1.92,1.92,0,0,1,122.83,127.53Z"/><path class="cls-3" d="M126.61,118.81a1.12,1.12,0,0,1-.07.39,1.1,1.1,0,0,1-.18.32.85.85,0,0,1-.26.22.65.65,0,0,1-.32.08.62.62,0,0,1-.31-.08.84.84,0,0,1-.25-.22,1.09,1.09,0,0,1-.17-.32,1.16,1.16,0,0,1-.06-.39,1.24,1.24,0,0,1,.06-.4,1.08,1.08,0,0,1,.17-.33.86.86,0,0,1,.25-.22.64.64,0,0,1,.31-.08.66.66,0,0,1,.32.08.87.87,0,0,1,.26.22,1.09,1.09,0,0,1,.18.33A1.2,1.2,0,0,1,126.61,118.81Zm-.19,1.94v6.67h-1.27v-6.67Z"/><path class="cls-3" d="M127.85,127.42v-6.67h.77q.25,0,.32.29l.09.53a3.24,3.24,0,0,1,.34-.38,2.29,2.29,0,0,1,.37-.29,1.66,1.66,0,0,1,.42-.19,1.79,1.79,0,0,1,.49-.07,1.55,1.55,0,0,1,.76.19,1.59,1.59,0,0,1,.56.52,2.51,2.51,0,0,1,.34.8,4.24,4.24,0,0,1,.12,1v4.24h-1.27v-4.24a1.7,1.7,0,0,0-.22-.95.75.75,0,0,0-.67-.33,1.11,1.11,0,0,0-.62.19,2.35,2.35,0,0,0-.54.51v4.82Z"/><path class="cls-3" d="M135.86,120.65a2.07,2.07,0,0,1,.92.2,2,2,0,0,1,.72.59,2.86,2.86,0,0,1,.47.95,4.46,4.46,0,0,1,.17,1.28,2.86,2.86,0,0,1,0,.3.58.58,0,0,1,0,.19.21.21,0,0,1-.09.1.31.31,0,0,1-.14,0h-3.25a2.67,2.67,0,0,0,.44,1.51,1.22,1.22,0,0,0,1,.48,1.39,1.39,0,0,0,.53-.09,2.2,2.2,0,0,0,.39-.2l.29-.2a.42.42,0,0,1,.24-.09.23.23,0,0,1,.13,0,.34.34,0,0,1,.1.11l.37.58a2.35,2.35,0,0,1-.47.52,2.45,2.45,0,0,1-.55.34,2.52,2.52,0,0,1-.58.18,3.34,3.34,0,0,1-.57.05,2.3,2.3,0,0,1-1-.23,2.33,2.33,0,0,1-.82-.68,3.43,3.43,0,0,1-.55-1.12,5.39,5.39,0,0,1-.2-1.54,4.6,4.6,0,0,1,.17-1.28,3.32,3.32,0,0,1,.5-1,2.43,2.43,0,0,1,.79-.71A2.14,2.14,0,0,1,135.86,120.65Zm0,1.15a1,1,0,0,0-.87.4,2.22,2.22,0,0,0-.4,1.12H137a2.52,2.52,0,0,0-.07-.59,1.51,1.51,0,0,0-.21-.48,1,1,0,0,0-.35-.33A1,1,0,0,0,135.88,121.8Z"/></g></svg>