<svg xmlns="http://www.w3.org/2000/svg" xmlns:xlink="http://www.w3.org/1999/xlink" viewBox="0 0 1050 350"><defs><style>.cls-1{isolation:isolate;}.cls-2{fill:#d1d3d4;}.cls-3,.cls-6,.cls-9{fill:#141414;}.cls-4{fill:#fff;}.cls-4,.cls-5,.cls-6,.cls-7,.cls-8,.cls-9{stroke:#141414;stroke-linecap:round;stroke-linejoin:round;}.cls-4,.cls-7,.cls-8,.cls-9{stroke-width:2.5px;}.cls-5,.cls-7{fill:none;}.cls-5{stroke-width:3.5px;}.cls-6{stroke-width:2px;}.cls-8{fill:#f1f2f2;}.cls-10{mask:url(#mask);}.cls-11{fill:#99cc67;opacity:0.3;mix-blend-mode:darken;}.cls-12{filter:url(#luminosity-invert-noclip);}</style><filter id="luminosity-invert-noclip" x="0" y="-8367" width="1050" height="32766" filterUnits="userSpaceOnUse" color-interpolation-filters="sRGB"><feColorMatrix values="-1 0 0 0 1 0 -1 0 0 1 0 0 -1 0 1 0 0 0 1 0" result="invert"/><feFlood flood-color="#fff" result="bg"/><feBlend in="invert" in2="bg"/></filter><mask id="mask" x="0" y="-8367" width="1050" height="32766" maskUnits="userSpaceOnUse"><g class="cls-12"/></mask></defs><title>dolla_dolla_biel_icon_set</title><g class="cls-1"><g id="Layer_4" data-name="Layer 4"><rect class="cls-2" y="-0.39" width="1050" height="350"/><circle class="cls-3" cx="169.91" cy="152.5" r="100"/><circle class="cls-4" cx="180.09" cy="141.5" r="100"/><circle class="cls-5" cx="180.09" cy="141.5" r="95"/><path class="cls-6" d="M238.32,194.53c-6.15-5.89-31.27-5.16-36.4-28.64,0,1.74-.78,21.66-4.42,25.76-5,5.63,10.75,31.65,10.93,39.19l21.33-7.67,14.33-14.07C242.71,203.26,242.66,198.69,238.32,194.53Z"/><path class="cls-6" d="M162.79,204.71c-5.16-6.07-3.34-13.36-4.25-20.64-8.26-2.5-9-9.53-11.59-17.77-2.39-7.64-5.32-19.74-3.72-28-2.76,8-6.71,27.57-11,34.23-3.22,5-25.35,27.41-25.46,27.64,0,0,17.8,19.38,25.33,23.67,8.83,5,39,11.33,39,11.33C169.06,227.47,167.94,210.78,162.79,204.71Z"/><line class="cls-7" x1="163.5" y1="154.67" x2="154.88" y2="160.31"/><line class="cls-7" x1="186.2" y1="168.12" x2="167.91" y2="181.1"/><line class="cls-7" x1="163.69" y1="122.39" x2="145.4" y2="135.37"/><line class="cls-7" x1="168.24" y1="141.58" x2="150.79" y2="153.71"/><line class="cls-7" x1="182.45" y1="161.12" x2="164.16" y2="174.1"/><line class="cls-7" x1="178.45" y1="154.12" x2="160.16" y2="167.1"/><line class="cls-7" x1="164.95" y1="132.62" x2="146.66" y2="145.6"/><path class="cls-4" d="M210.76,82.25c-5-9.5-29-14-45.6-10.65-11.18,2.24-14.8,10.48-24.45,16.54-6.32,4-21.07,28.8-19.86,37.79.61,4.52,11.08,12.44,16.69,10.93,8.2-2.2,18,13.16,19.81,12.19,3.9-2.13-7.21-27.44-2.25-34.16,6.5-8.79-1.79-29.72,4-35.1,14-13,53.49,2.45,55.25,24.89,1.57,20-.43,25.46,1.39,36.39,6-3.41,12.85-12.72,17.11-15.9C239.12,120.46,217.45,95,210.76,82.25Z"/><path class="cls-4" d="M164.28,154c5.36,4.06,11.5,11.23,20.92,14.07,10,3,17-2.18,21.1-5.46,10-8,9.43-21.59,9.43-21.59"/><path class="cls-8" d="M180,150c7.07.74,11.69.46,21.3.08"/><path class="cls-7" d="M201.92,165.89c-6.13,4.4-25.84,18.4-30.19,18.18-6.11-.31-6.58-9.29-9.9-14.43-5.48-8.48-17.91-17.91-16.48-31.22"/><path class="cls-7" d="M197.2,113c6.91-5,15.12-1.14,17.32.29"/><path class="cls-7" d="M162.13,114.4s6.79-5.44,12-6.27c3.52-.56,11.71,2.3,12.62,6.27,1.53,6.66,2.73,17.3,2.73,17.3"/><path class="cls-7" d="M183.72,131.64c-1.36,1.72-1.62,6.28,0,7.31,1.58-1.49,2.94-2.41,4.64-2,1.37.35,6.91,2.48,7.64,1.08,0,0,2.05-3.93.3-6.44"/><path class="cls-7" d="M170.78,118.4a41.85,41.85,0,0,1,8.09-1.66c1-.1,2.29.08,2.44,1s-1,1.51-1.91,1.24a5.09,5.09,0,0,1-2.06-1.72"/><path class="cls-7" d="M200.58,118.17a28.31,28.31,0,0,1,6.65-1.34c1-.1,2.29.08,2.44,1s-1,1.51-1.91,1.24a5.09,5.09,0,0,1-2.06-1.72"/><path class="cls-3" d="M80.59,292.27a1.28,1.28,0,0,1,1.3,1.3,1.25,1.25,0,0,1-1.3,1.25c-1.22,0-1.63,2.54.5,2.54,2.45,0,3.94-4.34,6.7-11.09a55.09,55.09,0,0,1,3-6c.29-.65.1-1-.62-1.06a31,31,0,0,1-3.84-.53,20.73,20.73,0,0,0-3.79-.48c-2.06,0-2.93,2.62-1.42,4.22a1.29,1.29,0,0,1,0,1.75,1.28,1.28,0,0,1-1.78,0,4.91,4.91,0,0,1-1.15-5.47,4.75,4.75,0,0,1,4.34-3,21.92,21.92,0,0,1,4.25.5c2.57.5,5,.94,7.85-.41A1.28,1.28,0,0,1,96.43,277a1.26,1.26,0,0,1-.72,1.13c-1.73.82-3.94,5.09-5.62,9.17-3,7.27-4.95,12.63-9,12.63C76,299.9,76.15,292.27,80.59,292.27Z"/><path class="cls-3" d="M106.07,293.54c-1.78,3.84-3.82,5.38-6,5.38a2.91,2.91,0,0,1-1.78-.58,6.12,6.12,0,0,1-1.15.79,5.37,5.37,0,0,1-1.85.67,4.48,4.48,0,0,1-2.74-.38,4.8,4.8,0,0,1-2.3-3.94,9.86,9.86,0,0,1,4.8-8.93,4.72,4.72,0,0,1,4.56-.26,4.85,4.85,0,0,1,2.3,3.91,9.39,9.39,0,0,1-1.73,6.1h.14c1.06,0,1.94-.84,3.41-3.77C104.44,291,106.77,292,106.07,293.54ZM95.92,296.9a4.57,4.57,0,0,0,.91-.65A3.18,3.18,0,0,1,97,293.9a2,2,0,0,1,2.09-1.3,5.23,5.23,0,0,0,.24-2.09,2.15,2.15,0,0,0-1-1.9,2.35,2.35,0,0,0-2.16.26,7.26,7.26,0,0,0-3.46,6.43,2.11,2.11,0,0,0,1,1.82A2.14,2.14,0,0,0,95.92,296.9Z"/><path class="cls-3" d="M119.83,293.74c-1.73,3.79-5.69,5.9-9.58,8-2.38,5.42-4.06,9.31-7.66,9.31-2.18,0-3.55-2.54-2.18-5.09,1-1.82,4.06-4.13,7.8-6.07l.36-.79a4.73,4.73,0,0,1-1.75.34,4,4,0,0,1-1.75-.36c-1.75-.84-3-3.12-1.68-5.86l3.22-7.13a1.3,1.3,0,0,1,1.7-.65,1.32,1.32,0,0,1,.65,1.7l-3.22,7.13c-.55,1.1-.41,2.11.38,2.47,1.08.5,3.46-.29,5.42-4.27l2.86-6.24a1.32,1.32,0,0,1,2.4,1.08c0,.22-2.4,5.4-4.66,10.32a11.06,11.06,0,0,0,5.33-4.94A1.28,1.28,0,1,1,119.83,293.74Zm-13.06,9.89c-2.64,1.15-5.14,3.79-4,4.68,1,.74,2.88-2.18,3.67-3.89C106.5,304.22,106.65,304,106.77,303.62Z"/><path class="cls-3" d="M131.87,293.54c-1.78,3.84-3.82,5.38-6,5.38a3.19,3.19,0,0,1-1.08-.19,5.48,5.48,0,0,1-3.53,1.18,5.14,5.14,0,0,1-4-2.47,1.16,1.16,0,0,1-1.56-1.7c.26-.29.46-.53.62-.72a3.62,3.62,0,0,1,.55-2.54,1.65,1.65,0,0,1,1.51-.74c1.78-2.79,3.67-5.74,4.2-6.65,1-1.7,3.22-.58,2.38,1.15a1.18,1.18,0,0,0-.1.67c.24,1.25,2.09,3.53,2,7.44a7.16,7.16,0,0,1-.34,1.92c.89-.19,1.73-1.18,3-3.72C130.24,291,132.57,292,131.87,293.54Zm-10.63,4a2.94,2.94,0,0,0,1.68-.48,3.42,3.42,0,0,1-.07-3.12,2.09,2.09,0,0,1,1.66-1.32,9,9,0,0,0-1.18-3.34c-.14-.24-.36-.19-.5,0l-3.89,6.31A2.77,2.77,0,0,0,121.24,297.5Z"/><path class="cls-3" d="M156.35,293.81c-1.94,4.37-4.8,6.1-7,6.1A3.54,3.54,0,0,1,146,298a8.53,8.53,0,0,1-1.54,1.1,5.37,5.37,0,0,1-1.85.67,4.43,4.43,0,0,1-2.71-.38,4.76,4.76,0,0,1-2.3-3.91,9.81,9.81,0,0,1,4.78-8.88,4.67,4.67,0,0,1,4.54-.26,4.23,4.23,0,0,1,1.8,2l.7-1.49c.67-1.56,2.86-.46,2.26,1L148.43,295c-.48,1-.24,2.26,1.15,2.26s2.78-1,4.39-4.49C154.67,291.31,157,292.29,156.35,293.81Zm-9.6-3.24a2.15,2.15,0,0,0-1-1.9,2.81,2.81,0,0,0-1.13-.14,2.85,2.85,0,0,0-1,.41,7.26,7.26,0,0,0-3.46,6.43A1.9,1.9,0,0,0,143.3,297,7.3,7.3,0,0,0,146.75,290.57Z"/><path class="cls-3" d="M170.27,293.81c-1.94,4.37-4.8,6.1-7,6.1-2.9,0-3.48-2.83-2.38-5.64a2.83,2.83,0,0,1,.17-.41c1.18-2.62,1.87-3.31,1.87-4.63a.77.77,0,0,0-.77-.77c-1.8,0-5,4.1-7.2,8.52l-1,2.16a1.27,1.27,0,0,1-2.4-.84l.07-.22,5.11-11.59a1.28,1.28,0,0,1,2.42.84,5.71,5.71,0,0,1,3.24-1.34,2.9,2.9,0,0,1,3,3.1c0,1.42-.36,1.75-2.16,5.78a5.47,5.47,0,0,0-.31.86c-.17.79-.07,1.56.5,1.56h.07c1.3,0,2.74-1.1,4.32-4.49C168.59,291.31,170.95,292.29,170.27,293.81Z"/><path class="cls-3" d="M186.43,293.81c-1.94,4.37-4.8,6.1-7,6.1a3.84,3.84,0,0,1-3.31-1.87,7.85,7.85,0,0,1-1.46,1.06,5.37,5.37,0,0,1-1.85.67,4.43,4.43,0,0,1-2.71-.38,4.76,4.76,0,0,1-2.3-3.91,9.81,9.81,0,0,1,4.78-8.88,4.68,4.68,0,0,1,4.54-.26,4.16,4.16,0,0,1,1.73,1.85l4.56-10c.67-1.56,2.86-.46,2.26,1L178.5,295c-.48,1-.24,2.26,1.15,2.26s2.78-1,4.39-4.49C184.75,291.31,187.1,292.29,186.43,293.81Zm-9.55-3.29a2.15,2.15,0,0,0-1-1.9,2.38,2.38,0,0,0-2.16.26,7.26,7.26,0,0,0-3.46,6.43,1.9,1.9,0,0,0,3.14,1.58A7.3,7.3,0,0,0,176.87,290.52Z"/><path class="cls-3" d="M212.23,293.74c-1.73,3.79-5.69,5.9-9.58,8-2.38,5.42-4.06,9.31-7.66,9.31-2.18,0-3.55-2.54-2.18-5.09,1-1.82,4.06-4.13,7.8-6.07.22-.5.43-1,.65-1.42a7,7,0,0,1-2.28.38,4.66,4.66,0,0,1-3.89-1.75,6.43,6.43,0,0,1-1.15-3.94,20.93,20.93,0,0,1,2.47-8.79,8.11,8.11,0,0,1-2.45-5.66,1.36,1.36,0,0,1,1.37-1.34,1.32,1.32,0,0,1,1.32,1.34,5.61,5.61,0,0,0,1.08,3.24c2.71-4.13,5.59-6.38,8.26-6.38a4.39,4.39,0,0,1,3.14,1.13,3.84,3.84,0,0,1,1.06,2.81c0,3.26-3.19,7-7.75,7a10.31,10.31,0,0,1-3.77-.7,17.4,17.4,0,0,0-2,7.37,4,4,0,0,0,.58,2.3,2,2,0,0,0,1.78.7c1.75,0,3.89-1.73,5-4a1.3,1.3,0,0,1,.72-.74,1.34,1.34,0,0,1,1.82,1.73s-.07.19-.17.38l-1.82,4.08a11.06,11.06,0,0,0,5.33-4.94A1.29,1.29,0,1,1,212.23,293.74Zm-13.06,9.89c-2.64,1.15-5.14,3.79-4,4.68,1,.74,2.88-2.18,3.67-3.89C198.9,304.22,199,304,199.17,303.62Zm.84-20.16a7.39,7.39,0,0,0,2.42.36c3.19,0,5.11-2.47,5.11-4.3a1.32,1.32,0,0,0-.29-.94,2,2,0,0,0-1.27-.38C204.3,278.21,202,280.25,200,283.46Z"/><path class="cls-3" d="M228.4,293.81c-1.94,4.37-4.8,6.1-7,6.1a3.54,3.54,0,0,1-3.29-1.87,8.53,8.53,0,0,1-1.54,1.1,5.37,5.37,0,0,1-1.85.67,4.43,4.43,0,0,1-2.71-.38,4.76,4.76,0,0,1-2.3-3.91,9.81,9.81,0,0,1,4.78-8.88,4.67,4.67,0,0,1,4.54-.26,4.23,4.23,0,0,1,1.8,2l.7-1.49c.67-1.56,2.86-.46,2.26,1L220.48,295c-.48,1-.24,2.26,1.15,2.26s2.78-1,4.39-4.49C226.72,291.31,229.07,292.29,228.4,293.81Zm-9.6-3.24a2.15,2.15,0,0,0-1-1.9,2.81,2.81,0,0,0-1.13-.14,2.85,2.85,0,0,0-1,.41,7.26,7.26,0,0,0-3.46,6.43,1.9,1.9,0,0,0,3.14,1.58A7.3,7.3,0,0,0,218.8,290.57Z"/><path class="cls-3" d="M249,293.81c-1.94,4.37-4.8,6.1-7,6.1-2.9,0-3.48-2.83-2.38-5.64a2.83,2.83,0,0,1,.17-.41c1.18-2.62,1.87-3.31,1.87-4.63a.77.77,0,0,0-.77-.77c-1.49,0-3.53,2.86-5.33,6.34l-2,4.46a1.15,1.15,0,0,1-.89.74,1.27,1.27,0,0,1-.89-.07,1.33,1.33,0,0,1-.65-1.78l2-4.3c1.25-2.76,2.88-5.4,1.1-5.4s-5,4.1-7.2,8.52l-1,2.16a1.27,1.27,0,0,1-2.4-.84l.07-.22,5.11-11.59a1.28,1.28,0,0,1,2.42.84,5.71,5.71,0,0,1,3.24-1.34,2.8,2.8,0,0,1,2.86,1.92,4.76,4.76,0,0,1,3.84-1.92,2.9,2.9,0,0,1,3,3.1c0,1.42-.36,1.75-2.16,5.78a5.46,5.46,0,0,0-.31.86c-.17.79-.07,1.56.5,1.56h.07c1.3,0,2.74-1.1,4.32-4.49C247.34,291.31,249.69,292.29,249,293.81Z"/><path class="cls-3" d="M247.43,298.39a4.91,4.91,0,0,1-1.1-4c.38-3.67,3.7-8.28,7.56-8.26,3.43,0,4.22,3.62,1.94,6.14a6.19,6.19,0,0,1-6,2c-.6-.19-.91.22-1,.82-.12,1.37,1,2.38,2.81,2.38,2.76,0,5.18-2,6.65-5.11a1.29,1.29,0,1,1,2.38,1c-1.7,3.84-4.63,6.53-9,6.53A5.71,5.71,0,0,1,247.43,298.39Zm6.67-7.46c1.1-1.22.79-2.42-.34-2.42-1.42,0-3,2.06-3.48,3-.12.22-.31.53.38.65A3.62,3.62,0,0,0,254.1,290.93Z"/><path class="cls-3" d="M272.63,293.54c-1.78,3.84-3.82,5.38-6,5.38a3.19,3.19,0,0,1-1.08-.19A5.48,5.48,0,0,1,262,299.9a5.14,5.14,0,0,1-4-2.47,1.16,1.16,0,0,1-1.56-1.7c.26-.29.46-.53.62-.72a3.62,3.62,0,0,1,.55-2.54,1.65,1.65,0,0,1,1.51-.74c1.78-2.79,3.67-5.74,4.2-6.65,1-1.7,3.22-.58,2.38,1.15a1.18,1.18,0,0,0-.1.67c.24,1.25,2.09,3.53,2,7.44a7.16,7.16,0,0,1-.34,1.92c.89-.19,1.73-1.18,3-3.72C271,291,273.33,292,272.63,293.54Zm-10.63,4a2.94,2.94,0,0,0,1.68-.48,3.42,3.42,0,0,1-.07-3.12,2.09,2.09,0,0,1,1.66-1.32,9,9,0,0,0-1.18-3.34c-.14-.24-.36-.19-.5,0l-3.89,6.31A2.77,2.77,0,0,0,262,297.5Z"/><circle class="cls-3" cx="869.91" cy="152.5" r="100"/><circle class="cls-4" cx="880.09" cy="141.5" r="100"/><circle class="cls-5" cx="880.09" cy="141.5" r="95"/><path class="cls-9" d="M792.19,112.44s-6.33,20.67-4.13,49c.71,9.16,19.55,16.11,24.44,14.32,10.34-3.79,20.9.85,23.85-1.05-.57-7.15-4.95-12.65-3.34-20.87C834.35,146.89,809,115.27,792.19,112.44Z"/><path class="cls-7" d="M871.91,151.94c1,1.38,1.47,4.53,1.48,6.22-.76.38-6.41-2.41-7.64-3.18-1.85-1.16-1.1-3.31-.69-4.22C866,148.67,870.19,149.51,871.91,151.94Z"/><path class="cls-7" d="M881.26,149.71c.49,1.29-.46,3.82-1.87,4.34-1.7.63-10.57-3.65-8-5.85C873,146.79,880.64,148.07,881.26,149.71Z"/><path class="cls-7" d="M875.13,159.43c-2.81-1.06-7.45-2.44-9.11-1.76s-1.37,3.37-2.11,4.89c3.24-2.55,9,5.44,12.26,3.62C877,165.72,878.34,160.64,875.13,159.43Z"/><path class="cls-7" d="M859.51,166.69c0,1.47,2.52,3.34,3.92,3.8s3.31-.12,3.67-1.55c.26-1-.6-1.49-2.51-3-1.69-1.3.15-7.77-.31-7.72C863.34,158.37,859.5,163.79,859.51,166.69Z"/><path class="cls-7" d="M891.79,161.22c1.23,1.67,3.49,5.79-.52,9.11-2.34,1.93-3.32.93-6.33.61,1.3,2.08,2.08,4.69-.17,7.2-3.57,4-10,2-13.6-.72-1.65-1.24-10.13.35-11-3.23-2.6-11.28,3.59-15.4,5-17.65.88-1.43-4.53,1.57-7.52-4.17-2.27-4.35-.26-7.51,1.06-9.54,2.29-3.53,4.92-2.68,7.73-1.91a9.26,9.26,0,0,1,6.31,4.84c3.57-6.83,10.54-1.89,12.67.6,1.41,1.65,8.21,3,9.35,5.3.83,1.7,1.61,3.73.76,5.46-.55,1.12-2,3.91-3.22,4.2-1.54.37-5.44-2.29-9-4.25"/><path class="cls-7" d="M857.65,152.37c-4.75.43-28.32-.61-33.07-.17"/><line class="cls-7" x1="856.61" y1="169.26" x2="830.07" y2="169.49"/><path class="cls-7" d="M885.19,171.29c-.57-1.62-12.46-.65-11.68-4.3"/><line class="cls-7" x1="876.89" y1="141.55" x2="880.36" y2="108.71"/><line class="cls-7" x1="894.78" y1="151.65" x2="922.38" y2="109.38"/><line class="cls-7" x1="898.63" y1="124.14" x2="888.32" y2="147.51"/><line class="cls-7" x1="905.38" y1="87.64" x2="884.19" y2="143.88"/><line class="cls-7" x1="924.48" y1="83.05" x2="891.79" y2="148.86"/><line class="cls-7" x1="890.48" y1="103.09" x2="880.72" y2="142.22"/><polygon class="cls-4" points="881.91 94.08 887.47 114.98 880.36 109.79 872.43 113.26 881.91 94.08"/><polygon class="cls-4" points="893.57 87.62 897.05 108.96 890.48 103.09 882.25 105.77 893.57 87.62"/><polygon class="cls-4" points="908.76 73.59 910.32 95.16 904.3 88.72 895.86 90.66 908.76 73.59"/><polygon class="cls-4" points="905.36 109.86 903.6 131.42 898.63 124.14 890 124.76 905.36 109.86"/><polygon class="cls-4" points="930.26 94.89 927.05 116.28 922.59 108.68 913.93 108.71 930.26 94.89"/><polygon class="cls-4" points="931.72 70.1 929.18 91.58 924.49 84.13 915.83 84.43 931.72 70.1"/><path class="cls-7" d="M859.53,166.69,842,184.31c-4.66-2.72-17,11.17-20.47,15.69,1.59-.22,7,1,8.62.8-.31,1.81-.86,2.78-1.86,6.45,2.79.1,5.5.58,7.93.5a21.51,21.51,0,0,0-2.14,7.56c1.13-.68,5.91-.93,7-1.61.1,1.19,2,6.07,2.07,7.26,2.38-1.41,4.65-3.88,7.24-4.84a26.47,26.47,0,0,0,4.55,5.44c.69.44,3.75-3.78,5.38-4.84.87.6,5.22,5.68,5.59,6,.94-1.48,3.21-5.41,4.72-6.35,1.32,2.27,4.71,5.47,6.28,5.24.23,0,4.74-26,.09-28.16l1-12.15"/><line class="cls-7" x1="859.51" y1="172.23" x2="846.32" y2="189.59"/><line class="cls-7" x1="863.54" y1="176.53" x2="856.25" y2="187.81"/><line class="cls-7" x1="868.88" y1="177.92" x2="858.99" y2="196.66"/><line class="cls-7" x1="874.08" y1="180.18" x2="868.01" y2="196.97"/><path class="cls-3" d="M761.73,292.21a1.28,1.28,0,0,1,1.3,1.3,1.25,1.25,0,0,1-1.3,1.25c-1.22,0-1.63,2.54.5,2.54,2.45,0,3.94-4.34,6.7-11.09a55.09,55.09,0,0,1,3-6c.29-.65.1-1-.62-1.06a31,31,0,0,1-3.84-.53,20.74,20.74,0,0,0-3.79-.48c-2.06,0-2.93,2.62-1.42,4.22a1.29,1.29,0,0,1,0,1.75,1.28,1.28,0,0,1-1.78,0,4.9,4.9,0,0,1-1.15-5.47,4.75,4.75,0,0,1,4.34-3,21.92,21.92,0,0,1,4.25.5c2.57.5,5,.94,7.85-.41a1.28,1.28,0,0,1,1.78,1.13,1.26,1.26,0,0,1-.72,1.13c-1.73.82-3.94,5.09-5.62,9.17-3,7.27-4.94,12.63-9,12.63C757.12,299.84,757.29,292.21,761.73,292.21Z"/><path class="cls-3" d="M787.22,293.48c-1.78,3.84-3.82,5.38-6,5.38a2.91,2.91,0,0,1-1.78-.58,6.12,6.12,0,0,1-1.15.79,5.37,5.37,0,0,1-1.85.67,4.49,4.49,0,0,1-2.74-.38,4.8,4.8,0,0,1-2.3-3.94,9.86,9.86,0,0,1,4.8-8.93,4.72,4.72,0,0,1,4.56-.26,4.85,4.85,0,0,1,2.3,3.91,9.39,9.39,0,0,1-1.73,6.1h.14c1.06,0,1.94-.84,3.41-3.77C785.59,291,787.92,292,787.22,293.48Zm-10.15,3.36a4.57,4.57,0,0,0,.91-.65,3.18,3.18,0,0,1,.22-2.35,2,2,0,0,1,2.09-1.3,5.25,5.25,0,0,0,.24-2.09,2.15,2.15,0,0,0-1-1.9,2.35,2.35,0,0,0-2.16.26,7.26,7.26,0,0,0-3.46,6.43,2.11,2.11,0,0,0,1,1.82A2.14,2.14,0,0,0,777.07,296.84Z"/><path class="cls-3" d="M800.4,293.48c-1.78,3.84-3.82,5.38-6,5.38a2.91,2.91,0,0,1-1.78-.58,6.12,6.12,0,0,1-1.15.79,5.37,5.37,0,0,1-1.85.67,4.49,4.49,0,0,1-2.74-.38,4.8,4.8,0,0,1-2.3-3.94,9.86,9.86,0,0,1,4.8-8.93,4.72,4.72,0,0,1,4.56-.26,4.85,4.85,0,0,1,2.3,3.91,9.39,9.39,0,0,1-1.73,6.1h.14c1.06,0,1.94-.84,3.41-3.77C798.77,291,801.09,292,800.4,293.48Zm-10.15,3.36a4.57,4.57,0,0,0,.91-.65,3.18,3.18,0,0,1,.22-2.35,2,2,0,0,1,2.09-1.3,5.25,5.25,0,0,0,.24-2.09,2.15,2.15,0,0,0-1-1.9,2.35,2.35,0,0,0-2.16.26,7.26,7.26,0,0,0-3.46,6.43,2.11,2.11,0,0,0,1,1.82A2.14,2.14,0,0,0,790.25,296.84Z"/><path class="cls-3" d="M797.35,294l7.22-15.82c.67-1.56,2.88-.43,2.28,1.06L799.75,295c-.48,1-.26,2.23,1.13,2.23s2.78-1,4.39-4.49c.7-1.49,3-.5,2.38,1-1.92,4.37-4.8,6.1-7,6.1C797.57,299.84,796,296.92,797.35,294Z"/><path class="cls-3" d="M819.72,293.48c-1.78,3.84-3.82,5.38-6,5.38a3.19,3.19,0,0,1-1.08-.19,5.48,5.48,0,0,1-3.53,1.18,5.14,5.14,0,0,1-4-2.47,1.16,1.16,0,0,1-1.56-1.7c.26-.29.46-.53.62-.72a3.62,3.62,0,0,1,.55-2.54,1.65,1.65,0,0,1,1.51-.74c1.78-2.79,3.67-5.74,4.2-6.65,1-1.7,3.22-.58,2.38,1.15a1.17,1.17,0,0,0-.1.67c.24,1.25,2.09,3.53,2,7.44a7.12,7.12,0,0,1-.34,1.92c.89-.19,1.73-1.18,3-3.72C818.09,291,820.41,292,819.72,293.48Zm-10.63,4a2.94,2.94,0,0,0,1.68-.48,3.42,3.42,0,0,1-.07-3.12,2.09,2.09,0,0,1,1.66-1.32,9,9,0,0,0-1.18-3.34c-.14-.24-.36-.19-.5,0l-3.89,6.31A2.77,2.77,0,0,0,809.09,297.44Z"/><path class="cls-3" d="M844.2,293.75c-1.94,4.37-4.8,6.1-7,6.1a3.54,3.54,0,0,1-3.29-1.87,8.57,8.57,0,0,1-1.54,1.1,5.36,5.36,0,0,1-1.85.67,4.43,4.43,0,0,1-2.71-.38,4.75,4.75,0,0,1-2.3-3.91,9.81,9.81,0,0,1,4.78-8.88,4.67,4.67,0,0,1,4.54-.26,4.22,4.22,0,0,1,1.8,2l.7-1.49c.67-1.56,2.86-.46,2.26,1L836.28,295c-.48,1-.24,2.26,1.15,2.26s2.78-1,4.39-4.49C842.52,291.25,844.87,292.24,844.2,293.75Zm-9.6-3.24a2.15,2.15,0,0,0-1-1.9,2.81,2.81,0,0,0-1.13-.14,2.85,2.85,0,0,0-1,.41,7.26,7.26,0,0,0-3.46,6.43,1.9,1.9,0,0,0,3.14,1.58A7.31,7.31,0,0,0,834.6,290.51Z"/><path class="cls-3" d="M858.12,293.75c-1.94,4.37-4.8,6.1-7,6.1-2.9,0-3.48-2.83-2.38-5.64a2.83,2.83,0,0,1,.17-.41c1.18-2.62,1.87-3.31,1.87-4.63a.77.77,0,0,0-.77-.77c-1.8,0-5,4.1-7.2,8.52l-1,2.16a1.27,1.27,0,0,1-2.4-.84l.07-.22,5.11-11.59a1.28,1.28,0,0,1,2.42.84,5.71,5.71,0,0,1,3.24-1.34,2.9,2.9,0,0,1,3,3.1c0,1.42-.36,1.75-2.16,5.78a5.47,5.47,0,0,0-.31.86c-.17.79-.07,1.56.5,1.56h.07c1.3,0,2.74-1.1,4.32-4.49C856.44,291.25,858.79,292.24,858.12,293.75Z"/><path class="cls-3" d="M874.27,293.75c-1.94,4.37-4.8,6.1-7,6.1a3.84,3.84,0,0,1-3.31-1.87,7.85,7.85,0,0,1-1.46,1.06,5.36,5.36,0,0,1-1.85.67,4.43,4.43,0,0,1-2.71-.38,4.76,4.76,0,0,1-2.3-3.91,9.81,9.81,0,0,1,4.78-8.88,4.68,4.68,0,0,1,4.54-.26,4.16,4.16,0,0,1,1.73,1.85l4.56-10c.67-1.56,2.86-.46,2.26,1L866.35,295c-.48,1-.24,2.26,1.15,2.26s2.78-1,4.39-4.49C872.59,291.25,874.94,292.24,874.27,293.75Zm-9.55-3.29a2.15,2.15,0,0,0-1-1.9,2.38,2.38,0,0,0-2.16.26,7.26,7.26,0,0,0-3.46,6.43,1.9,1.9,0,0,0,3.14,1.58A7.3,7.3,0,0,0,864.72,290.46Z"/><path class="cls-3" d="M881.32,285.9c2.14-5.79,6.6-10.25,10.63-10.25,6.94,0,5.78,11-1.25,11a1.27,1.27,0,1,1-.26-2.52c4.68,0,4.68-5.93,1.51-5.93-2.57,0-6.31,3.58-8.21,8.88-2.26,6.29-.48,10.27,3,10.27,2.3,0,4.61-1.63,6-4.73a1.29,1.29,0,1,1,2.35,1.06c-1.54,3.5-4.18,6.07-8.38,6.19C880.84,300,878.44,293.7,881.32,285.9Z"/><path class="cls-3" d="M908.37,293.48c-1.78,3.84-3.82,5.38-6,5.38a2.91,2.91,0,0,1-1.78-.58,6.12,6.12,0,0,1-1.15.79,5.37,5.37,0,0,1-1.85.67,4.48,4.48,0,0,1-2.74-.38,4.8,4.8,0,0,1-2.3-3.94,9.86,9.86,0,0,1,4.8-8.93,4.72,4.72,0,0,1,4.56-.26,4.85,4.85,0,0,1,2.3,3.91,9.39,9.39,0,0,1-1.73,6.1h.14c1.06,0,1.94-.84,3.41-3.77C906.74,291,909.07,292,908.37,293.48Zm-10.15,3.36a4.57,4.57,0,0,0,.91-.65,3.18,3.18,0,0,1,.22-2.35,2,2,0,0,1,2.09-1.3,5.25,5.25,0,0,0,.24-2.09,2.15,2.15,0,0,0-1-1.9,2.35,2.35,0,0,0-2.16.26,7.26,7.26,0,0,0-3.46,6.43,2.11,2.11,0,0,0,1,1.82A2.14,2.14,0,0,0,898.22,296.84Z"/><path class="cls-3" d="M921.55,293.48c-1.78,3.84-3.82,5.38-6,5.38a2.91,2.91,0,0,1-1.78-.58,6.12,6.12,0,0,1-1.15.79,5.37,5.37,0,0,1-1.85.67,4.48,4.48,0,0,1-2.74-.38,4.8,4.8,0,0,1-2.3-3.94,9.86,9.86,0,0,1,4.8-8.93,4.72,4.72,0,0,1,4.56-.26,4.85,4.85,0,0,1,2.3,3.91,9.39,9.39,0,0,1-1.73,6.1h.14c1.06,0,1.94-.84,3.41-3.77C919.92,291,922.24,292,921.55,293.48Zm-10.15,3.36a4.57,4.57,0,0,0,.91-.65,3.18,3.18,0,0,1,.22-2.35,2,2,0,0,1,2.09-1.3,5.25,5.25,0,0,0,.24-2.09,2.15,2.15,0,0,0-1-1.9,2.35,2.35,0,0,0-2.16.26,7.26,7.26,0,0,0-3.46,6.43,2.11,2.11,0,0,0,1,1.82A2.14,2.14,0,0,0,911.4,296.84Z"/><path class="cls-3" d="M932.32,293.75c-1.92,4.3-4.68,6.1-7,6.1a4.83,4.83,0,0,1-4.51-4.61L919,299.1c-.62,1.44-3.12.5-2.38-1.1l8.54-18.82a1.32,1.32,0,0,1,1.73-.65,1.29,1.29,0,0,1,.65,1.75l-3.17,7a5.12,5.12,0,0,1,3.29-1.39,2.51,2.51,0,0,1,2.64,2.81c-.36,2.54-3.84,5.47-6.91,5.3a2.59,2.59,0,0,0,2.14,3.26c1.32,0,2.78-1,4.39-4.49C930.64,291.25,933,292.24,932.32,293.75Zm-8.93-2.35c1.15.7,4.49-1,4.56-2.69,0-.67-1.13-.31-2.14.24A7.85,7.85,0,0,0,923.4,291.4Z"/><path class="cls-3" d="M952.27,293.48c-1.78,3.84-3.82,5.38-6,5.38a3.06,3.06,0,0,1-2.11-.84,6.24,6.24,0,0,1-4.13,1.82,3.62,3.62,0,0,1-3.26-1.8,6.21,6.21,0,0,1-4.08,1.8c-3,0-4.63-3-3.26-5.88l3.38-7.18a1.26,1.26,0,0,1,2.28,1.06L931.77,295c-.48,1-.26,2.23,1.13,2.23s2.78-1,4.39-4.49a.09.09,0,0,1,0,0l2.78-5.9a1.26,1.26,0,0,1,2.28,1.06L939.12,295c-.48,1-.26,2.23,1.13,2.23a3.5,3.5,0,0,0,2.69-1.58,3,3,0,0,1,.31-1.8,2.13,2.13,0,0,1,1.49-1.3l2.69-5.76a1.26,1.26,0,0,1,2.28,1.06l-2.69,5.9a13.67,13.67,0,0,1-1.2,2.21.72.72,0,0,0,.67.29c1.06,0,1.94-.84,3.41-3.77C950.64,291,953,292,952.27,293.48Z"/><path class="cls-3" d="M968.35,293.75c-1.94,4.37-4.8,6.1-7,6.1A3.54,3.54,0,0,1,958,298a8.57,8.57,0,0,1-1.54,1.1,5.36,5.36,0,0,1-1.85.67,4.43,4.43,0,0,1-2.71-.38,4.75,4.75,0,0,1-2.3-3.91,9.81,9.81,0,0,1,4.78-8.88,4.67,4.67,0,0,1,4.54-.26,4.22,4.22,0,0,1,1.8,2l.7-1.49c.67-1.56,2.86-.46,2.26,1L960.43,295c-.48,1-.24,2.26,1.15,2.26s2.78-1,4.39-4.49C966.67,291.25,969,292.24,968.35,293.75Zm-9.6-3.24a2.15,2.15,0,0,0-1-1.9,2.81,2.81,0,0,0-1.13-.14,2.85,2.85,0,0,0-1,.41,7.26,7.26,0,0,0-3.46,6.43,1.9,1.9,0,0,0,3.14,1.58A7.31,7.31,0,0,0,958.75,290.51Z"/><path class="cls-3" d="M969.43,294l2.5-5c0-.14,0-.22-.07-.26l-.89-.38a.13.13,0,0,0-.19,0l-2.42,5.42c-.91,1.82-3.24.82-2.38-1l3.55-7.68c.62-1.46,2.93-.67,2.33.79-.07.19,0,.26.1.31l2.66,1.13a.65.65,0,0,1,.36,1l-.67,1.46L971.8,295c-.48.91-.24,2.26,1.15,2.26s2.88-1.25,4.49-4.71c.7-1.49,3-.5,2.38,1-1.94,4.37-4.9,6.31-7.13,6.31C969.64,299.84,968.11,296.92,969.43,294Z"/><path class="cls-3" d="M978.14,298.33a4.91,4.91,0,0,1-1.1-4c.38-3.67,3.7-8.28,7.56-8.26,3.43,0,4.22,3.62,1.94,6.14a6.19,6.19,0,0,1-6,2c-.6-.19-.91.22-1,.82-.12,1.37,1,2.38,2.81,2.38,2.76,0,5.18-2,6.65-5.11a1.29,1.29,0,1,1,2.38,1c-1.7,3.84-4.63,6.53-9,6.53A5.71,5.71,0,0,1,978.14,298.33Zm6.67-7.46c1.1-1.22.79-2.42-.34-2.42-1.42,0-3,2.06-3.48,3-.12.22-.31.53.38.65A3.62,3.62,0,0,0,984.81,290.87Z"/><circle class="cls-3" cx="519.91" cy="152.5" r="100"/><circle class="cls-4" cx="530.09" cy="141.5" r="100"/><circle class="cls-5" cx="530.09" cy="141.5" r="95"/><path class="cls-9" d="M480.68,188.5c6.56-4.86,97-7.42,98.33-5.83,7.18,8.48,16.27,8.29,21.67,18C587,219.33,554.23,234.74,532,234c-20-.67-56.67-4.67-67.14-27.08C464.87,206.92,471.68,195.17,480.68,188.5Z"/><path class="cls-4" d="M516.47,116.13c-5,1.93-26.34-8.63-31.59-7.53s-9.24,4.65-8.76,10c-5.42-3.08-5.28-13.53-1.33-18.35s10.83-4.59,16.2-7.75c12.49-7.37,27-8.19,40.23-4.85,15.33,3.85,26.26,12,43.91,17.57-5.11,1.87-16.5,4-10.15,12.91,10,14,9.44,48.56,11,53.76a40.71,40.71,0,0,0,9.85,16.68C585,191.12,571,188,571,188S555.5,199,549.72,199.13c-4,.07-18.5-3.25-18.5-3.25s-13.07,3.53-18.83,4.33c-4.29.59-12.24-1-14-7.67-3.38.47-13.21,2.07-14.25,1.59-3-1.37-2-13.63,10-23.33,20.44-16.57,23.45-40.71,14.33-45.67s-23-6-29.29-13.35"/><path class="cls-4" d="M533.46,100.46,505,96.1c.13,1.23,3.56,2,7.91,2.57a6.85,6.85,0,0,0,3.83,7.14,4.09,4.09,0,0,0,5-.75,4.3,4.3,0,0,0,.58-5.65C525.44,99.5,532.08,100.51,533.46,100.46Z"/><path class="cls-4" d="M489.43,93.65c2.14,1,3.41,3.22,4.49,5.33s2.2,4.36,4.22,5.59"/><line class="cls-4" x1="530.68" y1="159.63" x2="550.1" y2="198.04"/><line class="cls-4" x1="541.26" y1="157.13" x2="560.68" y2="195.54"/><line class="cls-4" x1="519.26" y1="161.8" x2="538.68" y2="200.21"/><line class="cls-4" x1="507.93" y1="164.47" x2="527.35" y2="202.88"/><line class="cls-4" x1="497.93" y1="167.8" x2="517.35" y2="205.21"/><line class="cls-4" x1="489.85" y1="174.8" x2="509.26" y2="213.21"/><path class="cls-7" d="M518.37,102.64a3.21,3.21,0,0,1,0-4"/><path class="cls-3" d="M489.42,277.09a1.27,1.27,0,0,1-.72,1.1c-1.54.74-3.38,4.56-5.06,8.26h1.42a1.21,1.21,0,0,1,0,2.42h-2.52c-2.64,5.83-5.23,11.06-9,11.06a3.31,3.31,0,0,1-2.62-1.1,3.51,3.51,0,0,1-.79-2.33c0-1.92,1.27-4,3.17-4a1.23,1.23,0,0,1,1.22,1.22,1.26,1.26,0,0,1-1.22,1.22c-.22,0-.72.65-.72,1.54a1.06,1.06,0,0,0,.22.74.89.89,0,0,0,.74.24c2,0,4.3-4.34,6.26-8.62h-2a1.21,1.21,0,1,1,0-2.42h3.14a66.47,66.47,0,0,1,3.58-7.18,19.45,19.45,0,0,1-5.14-.48,18.79,18.79,0,0,0-3.77-.48,2.32,2.32,0,0,0-2.11,1.46,2.41,2.41,0,0,0,.65,2.76,1.26,1.26,0,0,1,0,1.73,1.25,1.25,0,0,1-1.75,0,4.92,4.92,0,0,1-1.15-5.4,4.76,4.76,0,0,1,4.37-3,21.65,21.65,0,0,1,4.2.53c2.59.48,5,.94,7.87-.41a1.2,1.2,0,0,1,1.61.58A1.4,1.4,0,0,1,489.42,277.09Z"/><path class="cls-3" d="M501.93,293.53c-1.94,4.37-4.8,6.1-7,6.1a3.62,3.62,0,0,1-3.26-1.8,6.21,6.21,0,0,1-4.08,1.8c-3,0-4.63-3-3.26-5.88l3.38-7.18a1.26,1.26,0,0,1,2.28,1.06l-3.26,7.15c-.48,1-.26,2.23,1.13,2.23s2.78-1,4.39-4.49a.09.09,0,0,1,0,0l2.78-5.9a1.26,1.26,0,0,1,2.28,1.06L494,294.78c-.48,1-.26,2.23,1.13,2.23s2.78-1,4.39-4.49C500.25,291,502.6,292,501.93,293.53Z"/><path class="cls-3" d="M503,293.75l2.5-5c0-.14,0-.22-.07-.26l-.89-.38a.13.13,0,0,0-.19,0l-2.42,5.42c-.91,1.82-3.24.82-2.38-1l3.55-7.68c.62-1.46,2.93-.67,2.33.79-.07.19,0,.26.1.31l2.66,1.13a.65.65,0,0,1,.36,1l-.67,1.46-2.5,5.26c-.48.91-.24,2.26,1.15,2.26s2.88-1.25,4.49-4.71c.7-1.49,3-.5,2.38,1-1.94,4.37-4.9,6.31-7.13,6.31C503.22,299.63,501.68,296.7,503,293.75Z"/><path class="cls-3" d="M527.22,293.53c-1.94,4.37-4.8,6.1-7,6.1-2.9,0-3.48-2.83-2.38-5.64a2.83,2.83,0,0,1,.17-.41c1.18-2.62,1.87-3.31,1.87-4.63a.77.77,0,0,0-.77-.77c-1.8,0-5,4.1-7.2,8.52l-1,2.16a1.27,1.27,0,0,1-2.4-.84l.07-.22,5.11-11.59a1.28,1.28,0,0,1,2.42.84,5.71,5.71,0,0,1,3.24-1.34,2.9,2.9,0,0,1,3,3.1c0,1.42-.36,1.75-2.16,5.78a5.47,5.47,0,0,0-.31.86c-.17.79-.07,1.56.5,1.56h.07c1.3,0,2.74-1.1,4.32-4.49C525.54,291,527.89,292,527.22,293.53Z"/><path class="cls-3" d="M524.27,293.75l3.38-7.18a1.26,1.26,0,0,1,2.28,1.06l-3.26,7.15c-.48,1-.26,2.23,1.13,2.23s2.78-1,4.39-4.49c.7-1.49,3-.5,2.38,1-1.94,4.37-4.8,6.1-7,6.1C524.48,299.63,522.9,296.68,524.27,293.75ZM529.12,283a1.42,1.42,0,1,1,1.42,1.42A1.42,1.42,0,0,1,529.12,283Z"/><path class="cls-3" d="M541.91,293.53c-1.92,4.37-4.8,6.1-7,6.1-3,0-4.58-2.93-3.26-5.88l2.54-5.52h-.46a1.26,1.26,0,0,1-1.27-1.27,1.25,1.25,0,0,1,1.27-1.27h1.63l1.51-3.31c.67-1.56,2.88-.43,2.28,1.06l-1,2.26h.24A1.25,1.25,0,0,1,539.6,287a1.26,1.26,0,0,1-1.25,1.27H537l-3,6.55c-.48,1-.26,2.23,1.13,2.23s2.78-1,4.39-4.49C540.23,291,542.58,292,541.91,293.53Z"/><path class="cls-3" d="M556.57,293.53c-1.94,4.37-4.8,6.1-7,6.1a3.62,3.62,0,0,1-3.26-1.8,6.21,6.21,0,0,1-4.08,1.8c-3,0-4.63-3-3.26-5.88l3.38-7.18a1.26,1.26,0,0,1,2.28,1.06l-3.26,7.15c-.48,1-.26,2.23,1.13,2.23s2.78-1,4.39-4.49a.09.09,0,0,1,0,0l2.78-5.9a1.26,1.26,0,0,1,2.28,1.06l-3.26,7.15c-.48,1-.26,2.23,1.13,2.23s2.78-1,4.39-4.49C554.89,291,557.25,292,556.57,293.53Z"/><path class="cls-3" d="M557.65,293.75l2.5-5c0-.14,0-.22-.07-.26l-.89-.38a.13.13,0,0,0-.19,0l-2.42,5.42c-.91,1.82-3.24.82-2.38-1l3.55-7.68c.62-1.46,2.93-.67,2.33.79-.07.19,0,.26.1.31l2.66,1.13a.65.65,0,0,1,.36,1l-.67,1.46-2.5,5.26c-.48.91-.24,2.26,1.15,2.26s2.88-1.25,4.49-4.71c.7-1.49,3-.5,2.38,1-1.94,4.37-4.9,6.31-7.13,6.31C557.87,299.63,556.33,296.7,557.65,293.75Z"/><path class="cls-3" d="M566.36,298.12a4.91,4.91,0,0,1-1.1-4c.38-3.67,3.7-8.28,7.56-8.26,3.43,0,4.22,3.62,1.94,6.14a6.19,6.19,0,0,1-6,2c-.6-.19-.91.22-1,.82-.12,1.37,1,2.38,2.81,2.38,2.76,0,5.18-2,6.65-5.11a1.29,1.29,0,1,1,2.38,1c-1.7,3.84-4.63,6.53-9,6.53A5.71,5.71,0,0,1,566.36,298.12Zm6.67-7.46c1.1-1.22.79-2.42-.34-2.42-1.42,0-3,2.06-3.48,3-.12.22-.31.53.38.65A3.63,3.63,0,0,0,573,290.65Z"/><g class="cls-10"><rect class="cls-11" width="1050" height="350"/></g></g></g></svg>