<svg xmlns="http://www.w3.org/2000/svg" xmlns:xlink="http://www.w3.org/1999/xlink" viewBox="0 0 1050 210"><defs><style>.cls-1{isolation:isolate;}.cls-2{fill:#d1d3d4;}.cls-3{fill:#141414;}.cls-4{fill:#fff;}.cls-5{fill:#f1f2f2;}.cls-6{mask:url(#mask);}.cls-7{fill:#99cc67;opacity:0.3;mix-blend-mode:darken;}.cls-8{filter:url(#luminosity-invert-noclip);}</style><filter id="luminosity-invert-noclip" x="0" y="-8297" width="1050" height="32766" filterUnits="userSpaceOnUse" color-interpolation-filters="sRGB"><feColorMatrix values="-1 0 0 0 1 0 -1 0 0 1 0 0 -1 0 1 0 0 0 1 0" result="invert"/><feFlood flood-color="#fff" result="bg"/><feBlend in="invert" in2="bg"/></filter><mask id="mask" x="0" y="-8297" width="1050" height="32766" maskUnits="userSpaceOnUse"><g class="cls-8"/></mask></defs><title>dolla_dolla_biel_icon_set</title><g class="cls-1"><g id="Layer_4" data-name="Layer 4"><rect class="cls-2" width="1050" height="210"/><circle class="cls-3" cx="246.25" cy="89.82" r="65.57"/><circle class="cls-4" cx="252.93" cy="82.6" r="65.57"/><path class="cls-3" d="M252.93,149A66.39,66.39,0,1,1,319.32,82.6,66.46,66.46,0,0,1,252.93,149Zm0-131.14A64.75,64.75,0,1,0,317.68,82.6,64.82,64.82,0,0,0,252.93,17.85Z"/><path class="cls-3" d="M252.93,146A63.44,63.44,0,1,1,316.36,82.6,63.51,63.51,0,0,1,252.93,146Zm0-124.58A61.14,61.14,0,1,0,314.07,82.6,61.21,61.21,0,0,0,252.93,21.46Z"/><path class="cls-3" d="M291.11,117.38c-4-3.86-20.5-3.38-23.87-18.78,0,1.14-.51,14.2-2.9,16.89-3.28,3.69,7.05,20.75,7.17,25.69l14-5,9.4-9.22C294,123.1,294,120.1,291.11,117.38Z"/><path class="cls-3" d="M271.5,141.84a.66.66,0,0,1-.66-.64c0-1.8-1.64-5.57-3.33-9.56-2.92-6.9-5.95-14-3.67-16.59,2-2.28,2.74-14.09,2.73-16.45a.66.66,0,0,1,1.3-.14c2.29,10.48,10.95,13.38,17.27,15.49,2.75.92,5.12,1.71,6.42,3h0c2.44,2.33,2.93,4.84,3.51,7.74.14.69.28,1.4.45,2.14a.66.66,0,0,1-.18.62l-9.4,9.22a.66.66,0,0,1-.24.15l-14,5A.66.66,0,0,1,271.5,141.84Zm-3.79-39.51c-.3,4.45-1.06,11.54-2.88,13.59s1.52,9.61,3.9,15.21c1.58,3.73,3,7,3.34,9.15l13.07-4.7,9-8.86c-.14-.63-.26-1.24-.38-1.82-.56-2.79-1-5-3.13-7h0c-1.08-1-3.33-1.79-5.93-2.66C278.88,113.24,271.13,110.64,267.71,102.33Z"/><path class="cls-3" d="M241.58,124.05c-3.38-4-2.19-8.76-2.79-13.53-5.42-1.64-5.91-6.25-7.6-11.65-1.57-5-3.49-12.95-2.44-18.36-1.81,5.22-4.4,18.08-7.23,22.44-2.11,3.27-16.62,18-16.69,18.12s11.67,12.71,16.61,15.52C227.24,139.88,247,144,247,144,245.69,139,245,128,241.58,124.05Z"/><path class="cls-3" d="M247,144.68h-.13c-.81-.17-20-4.2-25.76-7.5-5-2.83-16.29-15.12-16.77-15.64a.66.66,0,0,1-.1-.74,15.58,15.58,0,0,1,1.74-1.86c3.65-3.77,13.34-13.78,15-16.33,1.82-2.82,3.63-9.6,5.08-15.05.75-2.82,1.46-5.48,2.07-7.25a.66.66,0,0,1,1.26.34c-1.08,5.54,1.05,13.68,2.42,18,.25.79.47,1.55.68,2.3,1.22,4.26,2.19,7.62,6.48,8.92a.65.65,0,0,1,.46.55,38.76,38.76,0,0,1,.23,4.07c.07,3.31.13,6.43,2.41,9.12h0c2.5,2.94,3.55,9.14,4.48,14.61.36,2.14.71,4.16,1.09,5.62a.66.66,0,0,1-.63.82Zm-41.29-23.6c2.11,2.27,11.76,12.51,16,14.95,4.89,2.78,20.26,6.25,24.37,7.14-.3-1.36-.58-3-.87-4.7-.86-5-1.92-11.32-4.19-14-2.59-3-2.66-6.55-2.72-9.94,0-1.16,0-2.35-.17-3.52-4.63-1.59-5.7-5.35-6.95-9.68-.21-.74-.43-1.5-.67-2.27a60,60,0,0,1-2.71-13.18l-.53,2c-1.55,5.83-3.31,12.43-5.25,15.43-1.72,2.65-11.13,12.37-15.14,16.53Z"/><path class="cls-3" d="M236.4,95.75a.82.82,0,0,1-.45-1.51l5.65-3.7a.82.82,0,0,1,.9,1.37l-5.65,3.7A.82.82,0,0,1,236.4,95.75Z"/><path class="cls-3" d="M244.94,109.39a.82.82,0,0,1-.48-1.49l12-8.51a.82.82,0,0,1,.95,1.34l-12,8.51A.82.82,0,0,1,244.94,109.39Z"/><path class="cls-3" d="M230.18,79.4a.82.82,0,0,1-.48-1.49l12-8.51a.82.82,0,0,1,.95,1.34l-12,8.51A.82.82,0,0,1,230.18,79.4Z"/><path class="cls-3" d="M233.72,91.43a.82.82,0,0,1-.47-1.49l11.44-8a.82.82,0,1,1,.94,1.35l-11.44,8A.82.82,0,0,1,233.72,91.43Z"/><path class="cls-3" d="M242.48,104.8a.82.82,0,0,1-.48-1.49l12-8.51a.82.82,0,0,1,.95,1.34l-12,8.51A.82.82,0,0,1,242.48,104.8Z"/><path class="cls-3" d="M239.86,100.21a.82.82,0,0,1-.48-1.49l12-8.51a.82.82,0,0,1,.95,1.34l-12,8.51A.82.82,0,0,1,239.86,100.21Z"/><path class="cls-3" d="M231,86.11a.82.82,0,0,1-.48-1.49l12-8.51a.82.82,0,0,1,.95,1.34l-12,8.51A.82.82,0,0,1,231,86.11Z"/><path class="cls-4" d="M273,43.75c-3.25-6.23-19-9.16-29.9-7-7.33,1.47-9.7,6.87-16,10.85-4.15,2.6-13.82,18.88-13,24.78.4,3,7.26,8.15,10.95,7.17,5.37-1.44,11.82,8.63,13,8,2.56-1.4-4.73-18-1.47-22.4,4.26-5.77-1.17-19.49,2.62-23,9.16-8.51,35.07,1.61,36.22,16.32,1,13.12-.28,16.69.91,23.86,3.93-2.24,8.43-8.34,11.22-10.43C291.63,68.81,277.42,52.14,273,43.75Z"/><path class="cls-3" d="M237.88,88.41c-.78,0-1.65-.88-3.21-2.47-2.52-2.56-6.34-6.42-9.43-5.6-2.61.7-5.84-1.18-7.11-2-2.07-1.38-4.58-3.73-4.86-5.82-.84-6.29,8.9-22.76,13.4-25.58a38.15,38.15,0,0,0,5.79-4.69c2.93-2.73,5.71-5.31,10.52-6.27a46.83,46.83,0,0,1,18.15.34c3.77.82,10.42,2.83,12.64,7.07A113.12,113.12,0,0,0,279.92,53c7,10.23,11.29,17.12,8.08,19.52a37.81,37.81,0,0,0-3.94,3.86c-2.3,2.45-4.9,5.22-7.36,6.62a.82.82,0,0,1-1.21-.58,51,51,0,0,1-.53-10,135.82,135.82,0,0,0-.39-13.92c-.62-8-8.78-13.92-15.57-16.57-7.89-3.08-15.46-2.77-19.28.78-1.54,1.43-1.23,5.35-.91,9.5.39,5,.79,10.17-1.6,13.4-1.56,2.12-.18,8.2.94,13.08,1.29,5.67,1.89,8.66.27,9.55A1.08,1.08,0,0,1,237.88,88.41ZM226.12,78.6c3.6,0,7.23,3.67,9.72,6.2a26.11,26.11,0,0,0,1.89,1.81c.27-1.1-.6-4.92-1.19-7.52-1.25-5.48-2.67-11.7-.66-14.42s1.63-7.82,1.29-12.3c-.37-4.75-.69-8.86,1.43-10.82,4.28-4,12.52-4.41,21-1.11,7.23,2.82,15.92,9.22,16.61,18a137.06,137.06,0,0,1,.4,14.07,54.18,54.18,0,0,0,.32,8.47,46.16,46.16,0,0,0,6-5.66A38.4,38.4,0,0,1,287,71.24c2.19-1.64-4.21-11.06-8.45-17.29a113.87,113.87,0,0,1-6.25-9.82c-2.84-5.44-17.76-8.81-29-6.56-4.36.87-6.85,3.19-9.73,5.86a39.46,39.46,0,0,1-6,4.87c-1.88,1.18-5.2,5.64-8.08,10.86-3.14,5.68-4.89,10.71-4.57,13.12.16,1.21,1.91,3.18,4.15,4.67s4.43,2.17,5.77,1.81A5,5,0,0,1,226.12,78.6Z"/><path class="cls-4" d="M242.56,90.83c3.51,2.66,7.54,7.37,13.71,9.23,6.58,2,11.13-1.43,13.83-3.58,6.57-5.22,6.19-14.16,6.19-14.16"/><path class="cls-3" d="M260.16,101.47a14.17,14.17,0,0,1-4.12-.63c-4.78-1.44-8.35-4.56-11.22-7.06-1-.84-1.88-1.64-2.75-2.3a.82.82,0,0,1,1-1.31c.91.69,1.85,1.51,2.84,2.37,2.9,2.53,6.18,5.39,10.62,6.73,6.35,1.92,10.73-1.57,13.09-3.44,6.15-4.89,5.88-13.4,5.88-13.48a.82.82,0,0,1,1.64-.07c0,.38.32,9.41-6.49,14.83C268.71,98.64,265.15,101.47,260.16,101.47Z"/><path class="cls-5" d="M252.88,88.17c4.64.49,7.66.3,14,.05"/><path class="cls-3" d="M258.68,89.29a54.16,54.16,0,0,1-5.88-.31.82.82,0,0,1,.17-1.63,76.1,76.1,0,0,0,12.27.11l1.57-.06a.82.82,0,1,1,.06,1.64l-1.57.06C262.65,89.21,260.6,89.29,258.68,89.29Z"/><path class="cls-3" d="M247.49,111.33h-.09c-3.24-.16-4.44-3.36-5.49-6.18a19.71,19.71,0,0,0-1.65-3.65A48.32,48.32,0,0,0,236.77,97c-3.83-4.57-8.17-9.75-7.44-16.52a.82.82,0,0,1,1.63.18c-.65,6.08,3.45,11,7.07,15.29a49.46,49.46,0,0,1,3.61,4.65,20.83,20.83,0,0,1,1.8,4c1.17,3.12,2,5,4,5.12,1.3.07,7-3,19.27-11.77a.82.82,0,1,1,1,1.33C256.55,107.27,249.75,111.33,247.49,111.33Z"/><path class="cls-3" d="M275.5,64.91a.81.81,0,0,1-.45-.13c-.06,0-5.69-3.61-10.43-.21a.82.82,0,1,1-1-1.33c4.52-3.23,10-1.3,12.28.17a.82.82,0,0,1-.45,1.51Z"/><path class="cls-3" d="M259.06,77a.82.82,0,0,1-.81-.73c0-.07-.8-7-1.78-11.25-.46-2-5.26-3.82-7.35-3.48-3.14.5-7.42,3.9-7.46,3.94a.82.82,0,0,1-1-1.28c.19-.15,4.66-3.71,8.23-4.28,2.51-.41,8.48,1.58,9.21,4.73,1,4.36,1.77,11.15,1.81,11.44a.82.82,0,0,1-.72.91Z"/><path class="cls-3" d="M255.32,81.75a.82.82,0,0,1-.44-.13,2.61,2.61,0,0,1-1.05-1.85,5.85,5.85,0,0,1,.83-4.14.82.82,0,0,1,1.29,1,4.3,4.3,0,0,0-.5,2.85c0,.07,0,.14,0,.2a3.43,3.43,0,0,1,3.08-.86l.8.24a12.65,12.65,0,0,0,3.35.75c.32-.69.84-2.3.19-3.24a.82.82,0,0,1,1.35-.94c1.41,2-.08,4.95-.15,5.07-.66,1.26-2.67.73-5.23-.08l-.71-.22c-.65-.16-1.24.12-2.28,1.1A.82.82,0,0,1,255.32,81.75Z"/><path class="cls-3" d="M252.76,68.73a1.8,1.8,0,0,1-.53-.08,3.58,3.58,0,0,1-1.58-1.21l0,0a26.65,26.65,0,0,0-3.54.84.82.82,0,1,1-.49-1.56A28.27,28.27,0,0,1,252,65.55c1.37-.14,2.35.4,2.49,1.38a1.46,1.46,0,0,1-.53,1.34A1.94,1.94,0,0,1,252.76,68.73Z"/><path class="cls-3" d="M271.36,68.79a1.8,1.8,0,0,1-.53-.08,3.59,3.59,0,0,1-1.58-1.21l-.05-.06a17.93,17.93,0,0,0-2.59.64.82.82,0,1,1-.49-1.56,19.38,19.38,0,0,1,4.52-.91c1.37-.14,2.35.4,2.49,1.38a1.46,1.46,0,0,1-.52,1.34A1.94,1.94,0,0,1,271.36,68.79Z"/><path class="cls-3" d="M187.68,181.46a.84.84,0,0,1,.85.85.82.82,0,0,1-.85.82c-.8,0-1.07,1.67.33,1.67,1.61,0,2.58-2.85,4.39-7.27a36.13,36.13,0,0,1,2-3.92c.19-.42.06-.64-.41-.69a20.3,20.3,0,0,1-2.52-.35,13.59,13.59,0,0,0-2.49-.31A1.59,1.59,0,0,0,188,175a.85.85,0,0,1,0,1.15.84.84,0,0,1-1.16,0,3.22,3.22,0,0,1-.76-3.59,3.12,3.12,0,0,1,2.85-2,14.37,14.37,0,0,1,2.79.33,7.58,7.58,0,0,0,5.15-.27.84.84,0,0,1,1.16.74.82.82,0,0,1-.47.74c-1.13.53-2.58,3.34-3.68,6-2,4.77-3.24,8.28-5.9,8.28C184.66,186.47,184.77,181.46,187.68,181.46Z"/><path class="cls-3" d="M204.4,182.3c-1.16,2.52-2.5,3.53-4,3.53a1.91,1.91,0,0,1-1.16-.38,4,4,0,0,1-.76.52,3.52,3.52,0,0,1-1.21.44,2.94,2.94,0,0,1-1.79-.25,3.15,3.15,0,0,1-1.51-2.58,6.46,6.46,0,0,1,3.15-5.85,3.09,3.09,0,0,1,3-.17,3.18,3.18,0,0,1,1.51,2.57,6.16,6.16,0,0,1-1.13,4h.09c.69,0,1.27-.55,2.23-2.47C203.33,180.66,204.85,181.31,204.4,182.3Zm-6.66,2.2a3,3,0,0,0,.6-.42,2.09,2.09,0,0,1,.14-1.54,1.28,1.28,0,0,1,1.37-.85,3.43,3.43,0,0,0,.16-1.37,1.41,1.41,0,0,0-.65-1.24,1.54,1.54,0,0,0-1.42.17,4.76,4.76,0,0,0-2.27,4.22,1.38,1.38,0,0,0,.65,1.2A1.4,1.4,0,0,0,197.74,184.5Z"/><path class="cls-3" d="M213.41,182.42c-1.13,2.49-3.73,3.87-6.28,5.26-1.56,3.56-2.66,6.11-5,6.11-1.43,0-2.33-1.67-1.43-3.34.64-1.2,2.66-2.71,5.11-4l.24-.52a3.1,3.1,0,0,1-1.15.22,2.6,2.6,0,0,1-1.15-.24,2.76,2.76,0,0,1-1.1-3.84l2.11-4.67a.85.85,0,0,1,1.12-.42.87.87,0,0,1,.42,1.12l-2.11,4.67c-.36.72-.27,1.39.25,1.62.71.33,2.27-.19,3.56-2.8l1.87-4.09a.86.86,0,0,1,1.57.71c0,.14-1.57,3.54-3.05,6.77a7.25,7.25,0,0,0,3.49-3.24A.84.84,0,1,1,213.41,182.42Zm-8.56,6.48c-1.73.76-3.37,2.49-2.63,3.07s1.89-1.43,2.41-2.55C204.68,189.3,204.77,189.14,204.85,188.91Z"/><path class="cls-3" d="M221.31,182.3c-1.16,2.52-2.5,3.53-4,3.53a2.09,2.09,0,0,1-.71-.13,3.59,3.59,0,0,1-2.31.77,3.37,3.37,0,0,1-2.63-1.62.76.76,0,0,1-1-1.12c.17-.19.3-.35.41-.47a2.38,2.38,0,0,1,.36-1.67,1.08,1.08,0,0,1,1-.49c1.16-1.83,2.41-3.76,2.75-4.36.64-1.12,2.11-.38,1.56.76a.77.77,0,0,0-.06.44c.16.82,1.37,2.31,1.32,4.88a4.69,4.69,0,0,1-.22,1.26c.58-.13,1.13-.77,2-2.44C220.24,180.66,221.77,181.31,221.31,182.3Zm-7,2.6a1.93,1.93,0,0,0,1.1-.32,2.24,2.24,0,0,1,0-2,1.37,1.37,0,0,1,1.09-.87,5.91,5.91,0,0,0-.77-2.19c-.09-.16-.24-.13-.33,0l-2.55,4.14A1.81,1.81,0,0,0,214.34,184.89Z"/><path class="cls-3" d="M237.36,182.47c-1.27,2.86-3.15,4-4.61,4a2.32,2.32,0,0,1-2.16-1.23,5.59,5.59,0,0,1-1,.72,3.52,3.52,0,0,1-1.21.44,2.91,2.91,0,0,1-1.78-.25,3.12,3.12,0,0,1-1.51-2.57,6.43,6.43,0,0,1,3.13-5.82,3.06,3.06,0,0,1,3-.17,2.77,2.77,0,0,1,1.18,1.29l.46-1c.44-1,1.87-.3,1.48.68l-2.14,4.69c-.31.68-.16,1.48.76,1.48s1.83-.68,2.88-2.94C236.26,180.83,237.8,181.48,237.36,182.47Zm-6.3-2.12a1.41,1.41,0,0,0-.65-1.24,1.84,1.84,0,0,0-.74-.09,1.87,1.87,0,0,0-.68.27,4.76,4.76,0,0,0-2.27,4.22,1.24,1.24,0,0,0,2.06,1A4.79,4.79,0,0,0,231.07,180.35Z"/><path class="cls-3" d="M246.49,182.47c-1.27,2.86-3.15,4-4.61,4-1.9,0-2.28-1.86-1.56-3.7a1.86,1.86,0,0,1,.11-.27c.77-1.72,1.23-2.17,1.23-3a.51.51,0,0,0-.5-.5c-1.18,0-3.29,2.69-4.72,5.59L235.8,186a.84.84,0,0,1-1.57-.55l0-.14,3.35-7.6a.84.84,0,0,1,1.59.55,3.75,3.75,0,0,1,2.12-.88,1.9,1.9,0,0,1,2,2c0,.93-.24,1.15-1.42,3.79a3.59,3.59,0,0,0-.2.57c-.11.52,0,1,.33,1h0c.85,0,1.79-.72,2.83-2.94C245.39,180.83,246.93,181.48,246.49,182.47Z"/><path class="cls-3" d="M257.08,182.47c-1.27,2.86-3.15,4-4.61,4a2.52,2.52,0,0,1-2.17-1.23,5.15,5.15,0,0,1-1,.69,3.52,3.52,0,0,1-1.21.44,2.91,2.91,0,0,1-1.78-.25,3.12,3.12,0,0,1-1.51-2.57,6.43,6.43,0,0,1,3.13-5.82,3.07,3.07,0,0,1,3-.17,2.73,2.73,0,0,1,1.13,1.21l3-6.53c.44-1,1.87-.3,1.48.68l-4.66,10.36c-.32.68-.16,1.48.76,1.48s1.83-.68,2.88-2.94C256,180.83,257.52,181.48,257.08,182.47Zm-6.26-2.16a1.41,1.41,0,0,0-.65-1.24,1.56,1.56,0,0,0-1.42.17,4.76,4.76,0,0,0-2.27,4.22,1.24,1.24,0,0,0,2.06,1A4.79,4.79,0,0,0,250.82,180.31Z"/><path class="cls-3" d="M274,182.42c-1.13,2.49-3.73,3.87-6.28,5.26-1.56,3.56-2.66,6.11-5,6.11-1.43,0-2.33-1.67-1.43-3.34.65-1.2,2.66-2.71,5.11-4,.14-.33.28-.65.43-.93a4.6,4.6,0,0,1-1.5.25,3.06,3.06,0,0,1-2.55-1.15,4.22,4.22,0,0,1-.76-2.58,13.73,13.73,0,0,1,1.62-5.76,5.32,5.32,0,0,1-1.61-3.71.89.89,0,0,1,.9-.88.87.87,0,0,1,.87.88,3.68,3.68,0,0,0,.71,2.12c1.78-2.71,3.67-4.19,5.41-4.19a2.88,2.88,0,0,1,2.06.74,2.52,2.52,0,0,1,.69,1.84,5,5,0,0,1-5.08,4.58,6.76,6.76,0,0,1-2.47-.46,11.41,11.41,0,0,0-1.34,4.83,2.63,2.63,0,0,0,.38,1.51,1.34,1.34,0,0,0,1.16.46c1.15,0,2.55-1.13,3.29-2.61a.85.85,0,0,1,.47-.49.88.88,0,0,1,1.2,1.13s0,.13-.11.25L269,185a7.25,7.25,0,0,0,3.49-3.24A.84.84,0,1,1,274,182.42Zm-8.56,6.48c-1.73.76-3.37,2.49-2.63,3.07s1.89-1.43,2.41-2.55C265.26,189.3,265.36,189.14,265.44,188.91Zm.55-13.22a4.85,4.85,0,0,0,1.59.24,3.21,3.21,0,0,0,3.35-2.82.87.87,0,0,0-.19-.61,1.28,1.28,0,0,0-.83-.25C268.81,172.24,267.28,173.58,266,175.69Z"/><path class="cls-3" d="M284.61,182.47c-1.27,2.86-3.15,4-4.61,4a2.32,2.32,0,0,1-2.16-1.23,5.59,5.59,0,0,1-1,.72,3.52,3.52,0,0,1-1.21.44,2.91,2.91,0,0,1-1.78-.25,3.12,3.12,0,0,1-1.51-2.57,6.43,6.43,0,0,1,3.13-5.82,3.06,3.06,0,0,1,3-.17,2.77,2.77,0,0,1,1.18,1.29l.46-1c.44-1,1.87-.3,1.48.68l-2.14,4.69c-.31.68-.16,1.48.76,1.48s1.83-.68,2.88-2.94C283.5,180.83,285,181.48,284.61,182.47Zm-6.3-2.12a1.41,1.41,0,0,0-.65-1.24,1.84,1.84,0,0,0-.74-.09,1.87,1.87,0,0,0-.68.27,4.76,4.76,0,0,0-2.27,4.22,1.24,1.24,0,0,0,2.06,1A4.79,4.79,0,0,0,278.31,180.35Z"/><path class="cls-3" d="M298.12,182.47c-1.27,2.86-3.15,4-4.61,4-1.9,0-2.28-1.86-1.56-3.7a1.86,1.86,0,0,1,.11-.27c.77-1.72,1.23-2.17,1.23-3a.51.51,0,0,0-.5-.5c-1,0-2.31,1.87-3.49,4.16L288,186a.75.75,0,0,1-.58.49.83.83,0,0,1-.58,0,.87.87,0,0,1-.42-1.16l1.31-2.82c.82-1.81,1.89-3.54.72-3.54s-3.29,2.69-4.72,5.59L283,186a.84.84,0,0,1-1.57-.55l0-.14,3.35-7.6a.84.84,0,0,1,1.59.55,3.75,3.75,0,0,1,2.12-.88,1.84,1.84,0,0,1,1.87,1.26,3.12,3.12,0,0,1,2.52-1.26,1.9,1.9,0,0,1,2,2c0,.93-.24,1.15-1.42,3.79a3.58,3.58,0,0,0-.2.57c-.11.52,0,1,.33,1h0c.85,0,1.79-.72,2.83-2.94C297,180.83,298.56,181.48,298.12,182.47Z"/><path class="cls-3" d="M297.08,185.48a3.22,3.22,0,0,1-.72-2.6c.25-2.41,2.42-5.43,5-5.41,2.25,0,2.77,2.38,1.27,4a4.06,4.06,0,0,1-3.9,1.31c-.39-.13-.6.14-.63.54-.08.9.63,1.56,1.84,1.56,1.81,0,3.4-1.29,4.36-3.35a.85.85,0,1,1,1.56.64c-1.12,2.52-3,4.28-5.92,4.28A3.75,3.75,0,0,1,297.08,185.48Zm4.38-4.89c.72-.8.52-1.59-.22-1.59-.93,0-2,1.35-2.28,2-.08.14-.2.35.25.42A2.38,2.38,0,0,0,301.46,180.58Z"/><path class="cls-3" d="M313.61,182.3c-1.16,2.52-2.5,3.53-4,3.53a2.09,2.09,0,0,1-.71-.13,3.59,3.59,0,0,1-2.31.77,3.37,3.37,0,0,1-2.63-1.62.76.76,0,0,1-1-1.12c.17-.19.3-.35.41-.47a2.38,2.38,0,0,1,.36-1.67,1.08,1.08,0,0,1,1-.49c1.16-1.83,2.41-3.76,2.75-4.36.64-1.12,2.11-.38,1.56.76a.77.77,0,0,0-.06.44c.16.82,1.37,2.31,1.32,4.88a4.69,4.69,0,0,1-.22,1.26c.58-.13,1.13-.77,2-2.44C312.54,180.66,314.06,181.31,313.61,182.3Zm-7,2.6a1.93,1.93,0,0,0,1.1-.32,2.24,2.24,0,0,1,0-2,1.37,1.37,0,0,1,1.09-.87,5.91,5.91,0,0,0-.77-2.19c-.09-.16-.24-.13-.33,0l-2.55,4.14A1.81,1.81,0,0,0,306.64,184.89Z"/><circle class="cls-3" cx="796.66" cy="89.82" r="65.57"/><circle class="cls-4" cx="803.33" cy="82.6" r="65.57"/><path class="cls-3" d="M803.33,149A66.39,66.39,0,1,1,869.72,82.6,66.46,66.46,0,0,1,803.33,149Zm0-131.14A64.75,64.75,0,1,0,868.08,82.6,64.82,64.82,0,0,0,803.33,17.85Z"/><path class="cls-3" d="M803.33,146A63.44,63.44,0,1,1,866.77,82.6,63.51,63.51,0,0,1,803.33,146Zm0-124.58A61.14,61.14,0,1,0,864.48,82.6,61.21,61.21,0,0,0,803.33,21.46Z"/><path class="cls-3" d="M745.7,63.55S741.55,77.1,743,95.66c.47,6,12.82,10.57,16,9.39,6.78-2.49,13.71.56,15.64-.69-.38-4.69-3.24-8.3-2.19-13.68C773.34,86.14,756.74,65.4,745.7,63.55Z"/><path class="cls-3" d="M757.7,106c-2.74,0-7.07-1.43-10.38-3.56-2.22-1.42-4.91-3.75-5.14-6.77a97,97,0,0,1,2.74-32.41.82.82,0,0,1,.92-.57c8.39,1.41,19,12.76,23.73,19.58,1.9,2.75,4.09,6.46,3.69,8.5-.6,3.1.17,5.55,1,8.15a23.85,23.85,0,0,1,1.22,5.31.82.82,0,0,1-.37.75c-1,.66-2.67.46-4.95.19-2.95-.35-7-.84-10.86.58A4.73,4.73,0,0,1,757.7,106ZM746.28,64.5a97.54,97.54,0,0,0-2.48,31.09c.14,1.83,1.7,3.79,4.39,5.52,3.86,2.48,8.92,3.76,10.53,3.17,4.25-1.56,8.51-1,11.62-.67a15.72,15.72,0,0,0,3.42.2,25.08,25.08,0,0,0-1.09-4.34c-.84-2.68-1.71-5.45-1-9,.16-.83-.64-3.23-3.43-7.26C762.61,75.15,753,66.15,746.28,64.5Z"/><path class="cls-3" d="M798.88,94.34c-1.58,0-5.34-2.18-5.38-2.21-1.22-.76-1.5-2.15-.77-3.8a2.17,2.17,0,0,1,1.88-1.24,4.69,4.69,0,0,1,4,1.88h0a9.61,9.61,0,0,1,1.12,4.55.82.82,0,0,1-.46.73A1,1,0,0,1,798.88,94.34Zm-3.93-5.62h-.18c-.2,0-.46.09-.54.28-.58,1.29,0,1.63.14,1.74a29.44,29.44,0,0,0,3.68,1.76,6.71,6.71,0,0,0-.75-2.58A3.14,3.14,0,0,0,794.95,88.71Z"/><path class="cls-3" d="M802.62,91.68c-1.68,0-5-1.7-5.84-3.14a1.61,1.61,0,0,1,.3-2.16c1.1-.95,3.9-.56,5.23-.23,2.18.55,2.46,1.3,2.56,1.54h0a3.18,3.18,0,0,1-.21,2.35,2.83,2.83,0,0,1-1.49,1.56A1.57,1.57,0,0,1,802.62,91.68Zm-4.47-4.06a2.29,2.29,0,0,0,.78.82,8.31,8.31,0,0,0,3.7,1.61,1.45,1.45,0,0,0,.53-.69,1.84,1.84,0,0,0,.19-1c-.65-.68-4.56-1.21-5.2-.7Zm5.22.72Zm0-.07Z"/><path class="cls-3" d="M800,99.78a7.44,7.44,0,0,1-3.58-1.56c-1.27-.82-2.59-1.67-3.23-1.17A.82.82,0,0,1,792,96a5.13,5.13,0,0,0,.3-1.06c.2-.94.45-2.11,1.52-2.54,1.58-.64,5.43.72,6.57,1.15h0a2.92,2.92,0,0,1,1.85,2.71c.09,1.21-.32,2.78-1.06,3.19A2.27,2.27,0,0,1,800,99.78Zm.2-1.63Zm-6.34-2.9a8.35,8.35,0,0,1,3.45,1.58c1.08.7,2.29,1.48,2.93,1.26a3.4,3.4,0,0,0,.23-2.14,1.12,1.12,0,0,0-.72-.83h0c-2.67-1-4.83-1.38-5.38-1.16C794.16,94.06,794,94.71,793.9,95.26Z"/><path class="cls-3" d="M793.07,102.53a2.93,2.93,0,0,1-.91-.14c-1.09-.36-3.13-1.8-3.14-3.27h0c0-2,2.56-6.19,3.86-6.33a.89.89,0,0,1,.7.25c.34.35.29.74.14,1.76-.27,1.88-.28,3,0,3.22l.47.36c1,.73,1.75,1.31,1.47,2.42a2.19,2.19,0,0,1-1.1,1.38A3,3,0,0,1,793.07,102.53Zm-2.41-3.42c0,.39,1.14,1.43,2,1.72a1.4,1.4,0,0,0,1-.09.56.56,0,0,0,.3-.34,5.22,5.22,0,0,0-.86-.71l-.49-.37c-.78-.6-.88-1.83-.75-3.28a7.17,7.17,0,0,0-1.26,3.08Zm2.58-4.76Z"/><path class="cls-3" d="M802.85,108.91a10.16,10.16,0,0,1-5.86-2.1,8.35,8.35,0,0,0-2-.24c-2.21-.11-5-.25-5.45-2.35-1.46-6.33,1.1-9.5,2.6-11.24a4.88,4.88,0,0,1-4.19-2.87c-1.72-3.3-.12-5.76.73-7.08,1.78-2.74,4-2.13,5.8-1.65l.18,0a7.16,7.16,0,0,1,3.94,2.45,4.17,4.17,0,0,1,2.77-1.55c2.44-.28,5,1.6,6.14,2.93a8.84,8.84,0,0,0,2.27,1.12c1.68.67,3.41,1.37,4,2.53.64,1.32,1.21,2.87.49,4.3a8.53,8.53,0,0,1-1.92,2.8,4.59,4.59,0,0,1-1.09,6.13,3.41,3.41,0,0,1-3.27.83,4.11,4.11,0,0,1-.91,4.2A5.4,5.4,0,0,1,802.85,108.91ZM793.2,91.35a1.14,1.14,0,0,1,1.11.49,1,1,0,0,1-.06,1.05,8.47,8.47,0,0,1-.8,1c-1.37,1.59-3.67,4.25-2.36,9.94.21.89,2.45,1,3.93,1.08a5.87,5.87,0,0,1,2.95.57c1.93,1.45,5.75,2.88,7.81.58,1-1.08,1-2.23,0-3.74a.82.82,0,0,1,.78-1.25c.54.06,1,.14,1.36.22a2,2,0,0,0,2.19-.43c1.84-1.52,1.18-3.36.44-4.51a16.48,16.48,0,0,1-3.91-1.91c-.54-.32-1.1-.64-1.64-.94a.82.82,0,0,1,.79-1.44c.56.3,1.12.63,1.68,1a21.78,21.78,0,0,0,3.3,1.7.83.83,0,0,1,.43,0,7.34,7.34,0,0,0,1.49-2.27c.4-.8,0-1.89-.5-2.85-.29-.59-2-1.28-3.12-1.73a8,8,0,0,1-2.9-1.57c-.94-1.1-3-2.55-4.7-2.36a2.94,2.94,0,0,0-2.25,1.82.82.82,0,0,1-.73.44h0a.82.82,0,0,1-.73-.46A5.21,5.21,0,0,0,794.18,83L794,83c-1.93-.53-2.91-.71-4,1-.82,1.26-1.94,3-.66,5.43a3.4,3.4,0,0,0,3.61,2Z"/><path class="cls-3" d="M785.89,90.62c-2.15,0-5.08-.06-8.13-.13-4.54-.1-9.24-.2-10.75-.06a.82.82,0,1,1-.15-1.63c1.6-.15,6.13,0,10.93.05,4.54.1,9.24.2,10.75.06a.82.82,0,1,1,.15,1.63C788.11,90.6,787.13,90.62,785.89,90.62Z"/><path class="cls-3" d="M770.54,101.78a.82.82,0,0,1,0-1.64l17.4-.15h0a.82.82,0,0,1,0,1.64l-17.4.15Z"/><path class="cls-3" d="M806.68,103a.82.82,0,0,1-.68-.36,13,13,0,0,0-2.33-.4c-2.14-.26-4.35-.53-5.17-1.67a1.7,1.7,0,0,1-.28-1.38.82.82,0,0,1,1.6.34c0,.06,0,.06,0,.08.4.56,2.76.84,4,1,2,.25,3.27.4,3.58,1.29a.82.82,0,0,1-.77,1.09Z"/><path class="cls-3" d="M801.24,83.46h-.09a.82.82,0,0,1-.73-.9L802.7,61a.82.82,0,0,1,1.63.17l-2.27,21.54A.82.82,0,0,1,801.24,83.46Z"/><path class="cls-3" d="M813,90.08a.82.82,0,0,1-.69-1.27l18.1-27.72a.82.82,0,0,1,1.37.9l-18.1,27.72A.82.82,0,0,1,813,90.08Z"/><path class="cls-3" d="M808.73,87.36a.82.82,0,0,1-.75-1.15l6.77-15.32a.82.82,0,1,1,1.5.66l-6.77,15.32A.82.82,0,0,1,808.73,87.36Z"/><path class="cls-3" d="M806,85a.82.82,0,0,1-.77-1.11L819.15,47a.82.82,0,0,1,1.53.58l-13.9,36.88A.82.82,0,0,1,806,85Z"/><path class="cls-3" d="M811,88.25a.82.82,0,0,1-.73-1.18l21.44-43.15a.82.82,0,1,1,1.47.73L811.74,87.79A.82.82,0,0,1,811,88.25Z"/><path class="cls-3" d="M803.75,83.9l-.2,0a.82.82,0,0,1-.6-1l6.4-25.66a.82.82,0,0,1,1.59.4l-6.4,25.66A.82.82,0,0,1,803.75,83.9Z"/><polygon class="cls-4" points="804.53 51.51 808.17 65.22 803.51 61.81 798.31 64.09 804.53 51.51"/><path class="cls-3" d="M808.17,66a.82.82,0,0,1-.48-.16l-4.28-3.13-4.77,2.09a.82.82,0,0,1-1.06-1.11l6.22-12.58a.81.81,0,0,1,.82-.45.82.82,0,0,1,.71.6L809,65a.82.82,0,0,1-.79,1Zm-4.66-5a.82.82,0,0,1,.48.16l2.79,2-2.49-9.36L800,62.43l3.14-1.38A.82.82,0,0,1,803.51,61Z"/><polygon class="cls-4" points="812.17 47.27 814.46 61.27 810.15 57.42 804.75 59.18 812.17 47.27"/><path class="cls-3" d="M814.45,62.09a.82.82,0,0,1-.55-.21l-4-3.53L805,60a.82.82,0,0,1-.95-1.21l7.42-11.9a.82.82,0,0,1,1.5.3l2.28,14a.82.82,0,0,1-.81,1Zm-4.3-5.49a.82.82,0,0,1,.55.21l2.58,2.3-1.56-9.56-5.08,8.14,3.26-1.06A.81.81,0,0,1,810.15,56.6Z"/><polygon class="cls-4" points="822.14 38.07 823.15 52.22 819.21 48 813.68 49.26 822.14 38.07"/><path class="cls-3" d="M823.15,53a.82.82,0,0,1-.6-.26l-3.62-3.87-5.08,1.16a.82.82,0,0,1-.84-1.29l8.46-11.19A.82.82,0,0,1,823,38l1,14.14a.82.82,0,0,1-.82.88Zm-3.94-5.86a.82.82,0,0,1,.6.26L822.17,50l-.7-9.66L815.69,48,819,47.2Z"/><polygon class="cls-4" points="819.9 61.86 818.75 75.99 815.5 71.22 809.83 71.63 819.9 61.86"/><path class="cls-3" d="M818.75,76.81a.82.82,0,0,1-.68-.36l-3-4.38-5.19.37a.82.82,0,0,1-.63-1.41l10.07-9.77a.82.82,0,0,1,1.39.66l-1.15,14.13a.82.82,0,0,1-.61.73ZM815.5,70.4a.82.82,0,0,1,.68.36l1.95,2.86.79-9.65L812,70.65l3.42-.24Z"/><polygon class="cls-4" points="836.24 52.04 834.13 66.06 831.21 61.08 825.53 61.1 836.24 52.04"/><path class="cls-3" d="M834.13,66.88a.82.82,0,0,1-.71-.41l-2.68-4.57-5.21,0h0a.82.82,0,0,1-.53-1.45l10.71-9.06a.82.82,0,0,1,1.34.75l-2.11,14a.82.82,0,0,1-.66.68Zm-2.92-6.62a.82.82,0,0,1,.71.41l1.75,3,1.44-9.57-7.33,6.2h3.43Z"/><polygon class="cls-4" points="837.19 35.79 835.52 49.87 832.45 44.98 826.77 45.18 837.19 35.79"/><path class="cls-3" d="M835.52,50.69a.82.82,0,0,1-.69-.38L832,45.82l-5.2.18a.82.82,0,0,1-.58-1.43l10.42-9.4a.82.82,0,0,1,1.36.71L836.34,50a.82.82,0,0,1-.63.7Zm-3.08-6.53a.82.82,0,0,1,.69.38L835,47.47l1.14-9.61L829,44.29l3.43-.12Z"/><path class="cls-3" d="M794.06,136.71a.82.82,0,0,1-.58-.24l-.63-.71c-.54-.62-1.78-2-2.48-2.75-.33.32-.73.74-1.09,1.13-1.26,1.36-2,2.18-2.85,1.65a18.61,18.61,0,0,1-2.87-3.22,15.18,15.18,0,0,0-2.1,1.46,18.68,18.68,0,0,1-1.91,1.37.82.82,0,0,1-1.23-.63,20.64,20.64,0,0,0-.64-2.2c-.21-.64-.37-1.16-.49-1.58-.42.1-.95.18-1.59.28a11.21,11.21,0,0,0-2,.42.83.83,0,0,1-.84,0,.82.82,0,0,1-.41-.72,12.54,12.54,0,0,1,1-4.14c-.58,0-1.16-.09-1.77-.14s-1.48-.14-2.23-.17a.82.82,0,0,1-.76-1c.3-1.11.54-1.85.74-2.44.09-.29.18-.54.25-.78-.51,0-1.14-.14-1.91-.25a16.17,16.17,0,0,0-2.6-.26.82.82,0,0,1-.77-1.31c.1-.12,9.28-11.9,13.87-10.74l11.12-11.17a.82.82,0,1,1,1.16,1.16l-11.5,11.55a.82.82,0,0,1-1,.13c-1.23-.72-6.15,2.38-11.39,8.84l1.33.18a15.42,15.42,0,0,0,2.59.26.82.82,0,0,1,.92,1,12.73,12.73,0,0,1-.53,1.94c-.12.38-.27.82-.44,1.39l1.29.11a23.25,23.25,0,0,0,2.82.16.8.8,0,0,1,.71.36.82.82,0,0,1,.07.79,16.83,16.83,0,0,0-1.19,3.49l1.22-.21a11.22,11.22,0,0,0,2-.42.83.83,0,0,1,.79,0,.82.82,0,0,1,.45.65,20.64,20.64,0,0,0,.64,2.2c.16.5.3.93.41,1.3l.81-.62a12.22,12.22,0,0,1,3.14-2,.82.82,0,0,1,1,.44,17.79,17.79,0,0,0,2.37,2.93c.3-.28.74-.75,1.06-1.1a12.31,12.31,0,0,1,1.88-1.79.82.82,0,0,1,.91,0,32.74,32.74,0,0,1,3.08,3.27,12.14,12.14,0,0,1,2.78-3.5.82.82,0,0,1,1.14.28,9.21,9.21,0,0,0,2.81,2.86c.75-3.62,2.13-15.88.31-16.73a.82.82,0,0,1-.47-.81l.63-8a.8.8,0,0,1,.88-.75.82.82,0,0,1,.75.88l-.59,7.51c1.63,1.6,1.79,6.9.47,15.79-.56,3.77-.61,3.78-1.27,3.88-1.34.2-3.27-1.58-4.37-3a26.35,26.35,0,0,0-1.94,2.85l-.32.52a.82.82,0,0,1-.61.38Z"/><path class="cls-3" d="M781.19,115a.82.82,0,0,1-.65-1.32l8.65-11.38a.82.82,0,1,1,1.3,1l-8.65,11.38A.82.82,0,0,1,781.19,115Z"/><path class="cls-3" d="M787.7,113.79a.82.82,0,0,1-.69-1.26l4.78-7.4a.82.82,0,0,1,1.38.89l-4.78,7.4A.82.82,0,0,1,787.7,113.79Z"/><path class="cls-3" d="M789.5,119.59a.81.81,0,0,1-.38-.09.82.82,0,0,1-.34-1.11l6.49-12.29a.82.82,0,0,1,1.45.76l-6.49,12.29A.82.82,0,0,1,789.5,119.59Z"/><path class="cls-3" d="M795.41,119.8a.82.82,0,0,1-.77-1.1l4-11a.82.82,0,1,1,1.54.56l-4,11A.82.82,0,0,1,795.41,119.8Z"/><path class="cls-3" d="M725.73,181.42a.84.84,0,0,1,.85.85.82.82,0,0,1-.85.82c-.8,0-1.07,1.67.33,1.67,1.61,0,2.58-2.85,4.39-7.27a36.13,36.13,0,0,1,2-3.92c.19-.42.06-.64-.41-.69a20.3,20.3,0,0,1-2.52-.35,13.6,13.6,0,0,0-2.49-.31,1.59,1.59,0,0,0-.93,2.77.85.85,0,0,1,0,1.15.84.84,0,0,1-1.16,0,3.22,3.22,0,0,1-.76-3.59,3.12,3.12,0,0,1,2.85-2,14.37,14.37,0,0,1,2.79.33,7.58,7.58,0,0,0,5.15-.27.84.84,0,0,1,1.16.74.82.82,0,0,1-.47.74c-1.13.53-2.58,3.34-3.68,6-2,4.77-3.24,8.28-5.9,8.28C722.71,186.43,722.82,181.42,725.73,181.42Z"/><path class="cls-3" d="M742.44,182.26c-1.16,2.52-2.5,3.53-4,3.53a1.91,1.91,0,0,1-1.16-.38,4,4,0,0,1-.76.52,3.52,3.52,0,0,1-1.21.44,2.94,2.94,0,0,1-1.79-.25,3.15,3.15,0,0,1-1.51-2.58,6.46,6.46,0,0,1,3.15-5.85,3.09,3.09,0,0,1,3-.17,3.18,3.18,0,0,1,1.51,2.57,6.16,6.16,0,0,1-1.13,4h.09c.69,0,1.27-.55,2.23-2.47C741.37,180.62,742.9,181.27,742.44,182.26Zm-6.66,2.2a3,3,0,0,0,.6-.42,2.08,2.08,0,0,1,.14-1.54,1.28,1.28,0,0,1,1.37-.85,3.44,3.44,0,0,0,.16-1.37,1.41,1.41,0,0,0-.65-1.24,1.54,1.54,0,0,0-1.42.17,4.76,4.76,0,0,0-2.27,4.22,1.38,1.38,0,0,0,.65,1.2A1.4,1.4,0,0,0,735.79,184.46Z"/><path class="cls-3" d="M751.08,182.26c-1.16,2.52-2.5,3.53-4,3.53a1.91,1.91,0,0,1-1.16-.38,4,4,0,0,1-.76.52,3.52,3.52,0,0,1-1.21.44,2.94,2.94,0,0,1-1.79-.25,3.15,3.15,0,0,1-1.51-2.58,6.46,6.46,0,0,1,3.15-5.85,3.09,3.09,0,0,1,3-.17,3.18,3.18,0,0,1,1.51,2.57,6.16,6.16,0,0,1-1.13,4h.09c.69,0,1.27-.55,2.23-2.47C750,180.62,751.54,181.27,751.08,182.26Zm-6.66,2.2a3,3,0,0,0,.6-.42,2.08,2.08,0,0,1,.14-1.54,1.28,1.28,0,0,1,1.37-.85,3.44,3.44,0,0,0,.16-1.37A1.41,1.41,0,0,0,746,179a1.54,1.54,0,0,0-1.42.17,4.76,4.76,0,0,0-2.27,4.22,1.38,1.38,0,0,0,.65,1.2A1.4,1.4,0,0,0,744.42,184.46Z"/><path class="cls-3" d="M749.08,182.57l4.74-10.37c.44-1,1.89-.28,1.5.69l-4.66,10.36c-.31.68-.17,1.46.74,1.46s1.83-.68,2.88-2.94c.46-1,2-.33,1.56.66-1.26,2.86-3.15,4-4.61,4C749.22,186.43,748.22,184.51,749.08,182.57Z"/><path class="cls-3" d="M763.75,182.26c-1.16,2.52-2.5,3.53-4,3.53a2.09,2.09,0,0,1-.71-.13,3.59,3.59,0,0,1-2.31.77,3.37,3.37,0,0,1-2.63-1.62.76.76,0,0,1-1-1.12c.17-.19.3-.35.41-.47a2.38,2.38,0,0,1,.36-1.67,1.08,1.08,0,0,1,1-.49c1.16-1.83,2.41-3.76,2.75-4.36.64-1.12,2.11-.38,1.56.76a.77.77,0,0,0-.06.44c.16.82,1.37,2.31,1.32,4.88a4.67,4.67,0,0,1-.22,1.26c.58-.13,1.13-.77,2-2.44C762.68,180.62,764.21,181.27,763.75,182.26Zm-7,2.6a1.93,1.93,0,0,0,1.1-.32,2.24,2.24,0,0,1,0-2,1.37,1.37,0,0,1,1.09-.87,5.9,5.9,0,0,0-.77-2.19c-.09-.16-.24-.13-.33,0l-2.55,4.14A1.81,1.81,0,0,0,756.78,184.86Z"/><path class="cls-3" d="M779.8,182.43c-1.27,2.86-3.15,4-4.61,4A2.32,2.32,0,0,1,773,185.2a5.62,5.62,0,0,1-1,.72,3.51,3.51,0,0,1-1.21.44,2.91,2.91,0,0,1-1.78-.25,3.12,3.12,0,0,1-1.51-2.57,6.43,6.43,0,0,1,3.13-5.82,3.06,3.06,0,0,1,3-.17,2.77,2.77,0,0,1,1.18,1.29l.46-1c.44-1,1.87-.3,1.48.68l-2.14,4.69c-.31.68-.16,1.48.76,1.48s1.83-.68,2.88-2.94C778.7,180.8,780.24,181.44,779.8,182.43Zm-6.3-2.12a1.41,1.41,0,0,0-.65-1.24,1.84,1.84,0,0,0-.74-.09,1.87,1.87,0,0,0-.68.27,4.76,4.76,0,0,0-2.27,4.22,1.25,1.25,0,0,0,2.06,1A4.79,4.79,0,0,0,773.51,180.31Z"/><path class="cls-3" d="M788.93,182.43c-1.27,2.86-3.15,4-4.61,4-1.9,0-2.28-1.86-1.56-3.7a1.86,1.86,0,0,1,.11-.27c.77-1.72,1.23-2.17,1.23-3a.51.51,0,0,0-.5-.5c-1.18,0-3.29,2.69-4.72,5.59l-.63,1.42a.84.84,0,0,1-1.57-.55l0-.14,3.35-7.6a.84.84,0,0,1,1.59.55,3.75,3.75,0,0,1,2.12-.88,1.9,1.9,0,0,1,2,2c0,.93-.24,1.15-1.42,3.79a3.59,3.59,0,0,0-.2.57c-.11.52,0,1,.33,1h0c.85,0,1.79-.72,2.83-2.94C787.83,180.8,789.37,181.44,788.93,182.43Z"/><path class="cls-3" d="M799.52,182.43c-1.27,2.86-3.15,4-4.61,4a2.52,2.52,0,0,1-2.17-1.23,5.15,5.15,0,0,1-1,.69,3.51,3.51,0,0,1-1.21.44,2.91,2.91,0,0,1-1.78-.25,3.12,3.12,0,0,1-1.51-2.57,6.43,6.43,0,0,1,3.13-5.82,3.07,3.07,0,0,1,3-.17,2.73,2.73,0,0,1,1.13,1.21l3-6.53c.44-1,1.87-.3,1.48.68l-4.66,10.36c-.31.68-.16,1.48.76,1.48s1.83-.68,2.88-2.94C798.42,180.8,800,181.44,799.52,182.43Zm-6.26-2.16a1.41,1.41,0,0,0-.65-1.24,1.56,1.56,0,0,0-1.42.17,4.76,4.76,0,0,0-2.27,4.22,1.25,1.25,0,0,0,2.06,1A4.79,4.79,0,0,0,793.26,180.28Z"/><path class="cls-3" d="M804.14,177.29c1.4-3.79,4.33-6.72,7-6.72,4.55,0,3.79,7.19-.82,7.19a.83.83,0,1,1-.17-1.65c3.07,0,3.07-3.89,1-3.89-1.68,0-4.14,2.34-5.38,5.82-1.48,4.12-.32,6.74,2,6.74,1.51,0,3-1.07,4-3.1a.85.85,0,1,1,1.54.69c-1,2.3-2.74,4-5.49,4.06C803.83,186.54,802.26,182.4,804.14,177.29Z"/><path class="cls-3" d="M821.88,182.26c-1.16,2.52-2.5,3.53-4,3.53a1.91,1.91,0,0,1-1.16-.38,4,4,0,0,1-.76.52,3.52,3.52,0,0,1-1.21.44,2.94,2.94,0,0,1-1.79-.25,3.15,3.15,0,0,1-1.51-2.58,6.46,6.46,0,0,1,3.15-5.85,3.09,3.09,0,0,1,3-.17,3.18,3.18,0,0,1,1.51,2.57,6.16,6.16,0,0,1-1.13,4h.09c.69,0,1.27-.55,2.23-2.47C820.81,180.62,822.34,181.27,821.88,182.26Zm-6.66,2.2a3,3,0,0,0,.6-.42,2.08,2.08,0,0,1,.14-1.54,1.28,1.28,0,0,1,1.37-.85,3.44,3.44,0,0,0,.16-1.37,1.41,1.41,0,0,0-.65-1.24,1.54,1.54,0,0,0-1.42.17,4.76,4.76,0,0,0-2.27,4.22,1.38,1.38,0,0,0,.65,1.2A1.4,1.4,0,0,0,815.22,184.46Z"/><path class="cls-3" d="M830.52,182.26c-1.16,2.52-2.5,3.53-4,3.53a1.91,1.91,0,0,1-1.16-.38,4,4,0,0,1-.76.52,3.52,3.52,0,0,1-1.21.44,2.94,2.94,0,0,1-1.79-.25,3.15,3.15,0,0,1-1.51-2.58,6.46,6.46,0,0,1,3.15-5.85,3.09,3.09,0,0,1,3-.17,3.18,3.18,0,0,1,1.51,2.57,6.16,6.16,0,0,1-1.13,4h.09c.69,0,1.27-.55,2.23-2.47C829.45,180.62,831,181.27,830.52,182.26Zm-6.66,2.2a3,3,0,0,0,.6-.42,2.08,2.08,0,0,1,.14-1.54,1.28,1.28,0,0,1,1.37-.85,3.44,3.44,0,0,0,.16-1.37,1.41,1.41,0,0,0-.65-1.24,1.54,1.54,0,0,0-1.42.17,4.76,4.76,0,0,0-2.27,4.22,1.38,1.38,0,0,0,.65,1.2A1.4,1.4,0,0,0,823.86,184.46Z"/><path class="cls-3" d="M837.59,182.43c-1.26,2.82-3.07,4-4.61,4a3.17,3.17,0,0,1-3-3l-1.15,2.53c-.41.94-2,.33-1.56-.72l5.6-12.34a.87.87,0,0,1,1.13-.43.85.85,0,0,1,.43,1.15l-2.08,4.56a3.36,3.36,0,0,1,2.16-.91,1.64,1.64,0,0,1,1.73,1.84,4.82,4.82,0,0,1-4.53,3.48,1.7,1.7,0,0,0,1.4,2.14c.87,0,1.83-.68,2.88-2.94C836.48,180.8,838,181.44,837.59,182.43Zm-5.85-1.54c.76.46,2.94-.65,3-1.76,0-.44-.74-.2-1.4.16A5.15,5.15,0,0,0,831.73,180.89Z"/><path class="cls-3" d="M850.66,182.26c-1.16,2.52-2.5,3.53-4,3.53a2,2,0,0,1-1.39-.55,4.09,4.09,0,0,1-2.71,1.2,2.37,2.37,0,0,1-2.14-1.18,4.07,4.07,0,0,1-2.68,1.18c-2,0-3-1.94-2.14-3.86l2.22-4.71a.82.82,0,0,1,1.5.69l-2.14,4.69c-.32.68-.17,1.46.74,1.46s1.83-.68,2.88-2.94a.06.06,0,0,1,0,0l1.83-3.87a.82.82,0,0,1,1.5.69L842,183.25c-.31.68-.17,1.46.74,1.46a2.29,2.29,0,0,0,1.76-1,2,2,0,0,1,.2-1.18,1.4,1.4,0,0,1,1-.85l1.76-3.78a.82.82,0,0,1,1.49.69l-1.76,3.87a9,9,0,0,1-.79,1.45.47.47,0,0,0,.44.19c.69,0,1.27-.55,2.23-2.47C849.59,180.62,851.12,181.27,850.66,182.26Z"/><path class="cls-3" d="M861.21,182.43c-1.27,2.86-3.15,4-4.61,4a2.32,2.32,0,0,1-2.16-1.23,5.62,5.62,0,0,1-1,.72,3.51,3.51,0,0,1-1.21.44,2.91,2.91,0,0,1-1.78-.25,3.12,3.12,0,0,1-1.51-2.57,6.43,6.43,0,0,1,3.13-5.82,3.06,3.06,0,0,1,3-.17,2.77,2.77,0,0,1,1.18,1.29l.46-1c.44-1,1.87-.3,1.48.68L856,183.23c-.31.68-.16,1.48.76,1.48s1.83-.68,2.88-2.94C860.11,180.8,861.65,181.44,861.21,182.43Zm-6.3-2.12a1.41,1.41,0,0,0-.65-1.24,1.84,1.84,0,0,0-.74-.09,1.87,1.87,0,0,0-.68.27,4.76,4.76,0,0,0-2.27,4.22,1.25,1.25,0,0,0,2.06,1A4.79,4.79,0,0,0,854.91,180.31Z"/><path class="cls-3" d="M861.91,182.57l1.64-3.3c0-.09,0-.14,0-.17l-.58-.25a.08.08,0,0,0-.13,0l-1.59,3.56c-.6,1.2-2.12.53-1.56-.66l2.33-5c.41-1,1.92-.44,1.53.52,0,.13,0,.17.06.2l1.75.74a.43.43,0,0,1,.24.63l-.44,1-1.64,3.45c-.31.6-.16,1.48.76,1.48s1.89-.82,2.94-3.09c.46-1,2-.33,1.56.66-1.27,2.86-3.21,4.14-4.67,4.14C862.05,186.43,861,184.51,861.91,182.57Z"/><path class="cls-3" d="M867.63,185.44a3.22,3.22,0,0,1-.72-2.6c.25-2.41,2.42-5.43,5-5.41,2.25,0,2.77,2.38,1.27,4a4.06,4.06,0,0,1-3.9,1.31c-.39-.13-.6.14-.63.54-.08.9.63,1.56,1.84,1.56,1.81,0,3.4-1.29,4.36-3.35a.85.85,0,1,1,1.56.64c-1.12,2.52-3,4.28-5.92,4.28A3.74,3.74,0,0,1,867.63,185.44Zm4.37-4.89c.72-.8.52-1.59-.22-1.59-.93,0-2,1.35-2.28,2-.08.14-.2.35.25.42A2.38,2.38,0,0,0,872,180.54Z"/><circle class="cls-3" cx="517.68" cy="89.82" r="65.57"/><circle class="cls-4" cx="524.36" cy="82.6" r="65.57"/><path class="cls-3" d="M524.36,149A66.39,66.39,0,1,1,590.75,82.6,66.46,66.46,0,0,1,524.36,149Zm0-131.14A64.75,64.75,0,1,0,589.11,82.6,64.82,64.82,0,0,0,524.36,17.85Z"/><path class="cls-3" d="M524.36,146A63.44,63.44,0,1,1,587.79,82.6,63.51,63.51,0,0,1,524.36,146Zm0-124.58A61.14,61.14,0,1,0,585.5,82.6,61.21,61.21,0,0,0,524.36,21.46Z"/><path class="cls-3" d="M492,113.42c4.3-3.18,63.6-4.86,64.48-3.82,4.71,5.56,10.67,5.44,14.21,11.8-9,12.24-30.45,22.34-45,21.86-13.11-.44-37.16-3.06-44-17.76C481.6,125.5,486.06,117.79,492,113.42Z"/><path class="cls-3" d="M526.63,144.09l-1,0c-30.41-1-41.11-10.47-44.74-18.23a.82.82,0,0,1,0-.76c.19-.32,4.62-7.91,10.58-12.33,2.68-2,22.44-3.14,34-3.66,7.38-.33,15.09-.55,21.14-.62,9.9-.11,10.16.21,10.47.58a22.42,22.42,0,0,0,6.54,5c2.8,1.6,5.7,3.26,7.76,7a.82.82,0,0,1-.06.88C562.64,133.72,541.64,144.09,526.63,144.09Zm-44.11-18.55c6.79,13.66,29.88,16.45,43.12,16.89,14.41.48,35.22-9.52,44-21.09-1.82-3-4.28-4.4-6.88-5.89a24.06,24.06,0,0,1-6.83-5.16c-1.9-.35-15.88-.22-31.33.49-21.79,1-30.91,2.36-32.18,3.3h0C487.48,117.76,483.49,124,482.53,125.54ZM492,113.42h0Z"/><path class="cls-4" d="M515.43,66c-3.28,1.27-17.27-5.66-20.71-4.94s-6.06,3.05-5.75,6.56c-3.55-2-3.46-8.87-.87-12s7.1-3,10.62-5.08c8.19-4.83,17.67-5.37,26.38-3.18,10.05,2.53,17.22,7.86,28.79,11.52-3.35,1.22-10.82,2.64-6.65,8.46,6.56,9.18,6.19,31.84,7.21,35.25a26.69,26.69,0,0,0,6.46,10.94c-.57,1.67-9.74-.39-9.74-.39s-10.14,7.26-13.93,7.32c-2.61,0-12.13-2.13-12.13-2.13s-8.57,2.32-12.35,2.84c-2.81.39-8-.65-9.18-5-2.22.31-8.66,1.36-9.34,1-1.93-.9-1.28-8.94,6.56-15.3,13.4-10.87,15.37-26.69,9.4-29.94S495.1,67.94,491,63.12"/><path class="cls-3" d="M511.55,122c-3.17,0-7.18-1.42-8.55-5l-1,.14c-5.87.87-7.55,1-8.16.74a2.67,2.67,0,0,1-1.34-2.34c-.44-3.53,1.79-9.52,7.73-14.34,6.45-5.23,13-14.76,12.24-23.32-.24-2.57-1.2-4.44-2.72-5.27a44.72,44.72,0,0,0-7.64-2.92c-4.25-1.34-8.63-2.72-11.37-5.56a4.58,4.58,0,0,0-1,3.4.82.82,0,0,1-1.22.79,6.61,6.61,0,0,1-3-4.73A11,11,0,0,1,487.46,55c1.73-2.1,4.19-2.86,6.57-3.59a19.72,19.72,0,0,0,4.26-1.68c7.71-4.55,17.29-5.71,27-3.27A79.33,79.33,0,0,1,540,52.23,110.56,110.56,0,0,0,554.13,58a.82.82,0,0,1,0,1.55c-.42.15-.9.31-1.42.48-2.21.72-5.24,1.7-5.82,3.46-.29.87,0,2,1,3.28,5,6.93,6,21.06,6.69,29.5a46.11,46.11,0,0,0,.64,6,25.85,25.85,0,0,0,6.26,10.6.82.82,0,0,1,.19.84c-.52,1.54-4,1.62-10.34.22-1.93,1.36-10.41,7.2-14.1,7.26-2.5.06-10.7-1.78-12.13-2.11-1.34.36-8.74,2.32-12.25,2.8A9.6,9.6,0,0,1,511.55,122Zm-8-6.74a.82.82,0,0,1,.79.61c1.07,4.06,6,4.73,8.27,4.42,3.69-.51,12.16-2.79,12.25-2.82a.83.83,0,0,1,.4,0c.09,0,9.27,2.11,11.86,2.11h.07c2.9,0,10.71-5.19,13.47-7.17a.82.82,0,0,1,.66-.13,32.46,32.46,0,0,0,8.24,1,27.51,27.51,0,0,1-5.93-10.5,43.48,43.48,0,0,1-.71-6.34c-.64-8.27-1.7-22.11-6.39-28.67-1.25-1.76-1.66-3.35-1.2-4.75.74-2.25,3.53-3.39,5.93-4.19a124.9,124.9,0,0,1-12-5.1,78.09,78.09,0,0,0-14.4-5.62c-9.28-2.33-18.43-1.24-25.76,3.09A21,21,0,0,1,494.52,53c-2.25.69-4.37,1.34-5.79,3.06a9.4,9.4,0,0,0-1.54,7.19,6.21,6.21,0,0,0,1,2.57c.52-2.76,2.84-4.88,6.31-5.61,1.85-.38,5.67.93,10.11,2.44,4,1.38,9,3.09,10.48,2.53a.82.82,0,0,1,.59,1.53c-1.87.72-5.81-.52-11.6-2.51-3.67-1.26-7.84-2.69-9.24-2.39A8.21,8.21,0,0,0,492,63c2.46,2.51,6.62,3.82,10.65,5.09a45.83,45.83,0,0,1,7.93,3c2,1.09,3.28,3.42,3.57,6.56.61,6.64-3.12,16.86-12.84,24.74-5.82,4.72-7.46,10.28-7.14,12.86a1.67,1.67,0,0,0,.37,1,66.39,66.39,0,0,0,7.27-.85l1.65-.24Z"/><path class="cls-4" d="M526.57,55.69l-18.65-2.86c.09.81,2.34,1.34,5.19,1.69a4.49,4.49,0,0,0,2.51,4.68,2.68,2.68,0,0,0,3.29-.49,2.82,2.82,0,0,0,.38-3.71C521.31,55.07,525.66,55.73,526.57,55.69Z"/><path class="cls-3" d="M517,60.36a4.25,4.25,0,0,1-1.74-.42,5.35,5.35,0,0,1-3-4.71c-3.51-.48-5-1.17-5.13-2.31A.82.82,0,0,1,508,52l18.65,2.86a.82.82,0,0,1-.09,1.63,29.37,29.37,0,0,1-3.16-.29c-.95-.11-2-.23-2.86-.31a3.72,3.72,0,0,1-1.12,3.4A3.56,3.56,0,0,1,517,60.36Zm-3.1-5.78v.07a3.69,3.69,0,0,0,2,3.8,1.89,1.89,0,0,0,2.4-.35,2,2,0,0,0,.3-2.58.82.82,0,0,1-.13-.23Z"/><path class="cls-4" d="M497.7,51.22a7.16,7.16,0,0,1,2.94,3.49,8.56,8.56,0,0,0,2.76,3.67"/><path class="cls-3" d="M503.4,59.2a.81.81,0,0,1-.43-.12,9.08,9.08,0,0,1-3-3.9l0-.09A6.48,6.48,0,0,0,497.35,52a.82.82,0,0,1,.7-1.48,7.9,7.9,0,0,1,3.32,3.86l0,.09a7.77,7.77,0,0,0,2.42,3.25.82.82,0,0,1-.43,1.52Z"/><line class="cls-4" x1="524.74" y1="94.49" x2="537.48" y2="119.68"/><path class="cls-3" d="M537.48,120.5a.82.82,0,0,1-.73-.45L524,94.86a.82.82,0,1,1,1.46-.74l12.73,25.19a.82.82,0,0,1-.73,1.19Z"/><line class="cls-4" x1="531.68" y1="92.85" x2="544.42" y2="118.04"/><path class="cls-3" d="M544.42,118.86a.82.82,0,0,1-.73-.45L531,93.22a.82.82,0,1,1,1.46-.74l12.73,25.19a.82.82,0,0,1-.73,1.19Z"/><line class="cls-4" x1="517.26" y1="95.91" x2="529.99" y2="121.1"/><path class="cls-3" d="M530,121.92a.82.82,0,0,1-.73-.45L516.53,96.28a.82.82,0,1,1,1.46-.74l12.73,25.18a.82.82,0,0,1-.73,1.19Z"/><line class="cls-4" x1="509.83" y1="97.66" x2="522.56" y2="122.85"/><path class="cls-3" d="M522.56,123.67a.82.82,0,0,1-.73-.45L509.1,98a.82.82,0,1,1,1.46-.74l12.73,25.19a.82.82,0,0,1-.73,1.19Z"/><line class="cls-4" x1="503.27" y1="99.85" x2="516" y2="124.38"/><path class="cls-3" d="M516,125.2a.82.82,0,0,1-.73-.44l-12.73-24.53a.82.82,0,1,1,1.45-.75L516.73,124a.82.82,0,0,1-.73,1.2Z"/><line class="cls-4" x1="497.97" y1="104.44" x2="510.7" y2="129.62"/><path class="cls-3" d="M510.7,130.44A.82.82,0,0,1,510,130l-12.73-25.18a.82.82,0,1,1,1.46-.74l12.73,25.18a.82.82,0,0,1-.73,1.19Z"/><path class="cls-3" d="M516.68,57.94a.82.82,0,0,1-.63-.29A2.93,2.93,0,0,1,516,54a.82.82,0,1,1,1.27,1,1.28,1.28,0,0,0,0,1.56.82.82,0,0,1-.63,1.35Z"/><path class="cls-3" d="M498.1,171.51a.83.83,0,0,1-.47.72c-1,.49-2.22,3-3.32,5.41h.93a.8.8,0,0,1,0,1.59h-1.65c-1.73,3.82-3.43,7.25-5.87,7.25a2.17,2.17,0,0,1-1.72-.72,2.3,2.3,0,0,1-.52-1.53c0-1.26.83-2.61,2.08-2.61a.81.81,0,0,1,.8.8.83.83,0,0,1-.8.8c-.14,0-.47.42-.47,1a.69.69,0,0,0,.14.49.59.59,0,0,0,.49.16c1.32,0,2.82-2.85,4.11-5.65h-1.34a.8.8,0,1,1,0-1.59h2.06a43.58,43.58,0,0,1,2.34-4.71,12.75,12.75,0,0,1-3.37-.31,12.32,12.32,0,0,0-2.47-.32,1.52,1.52,0,0,0-1.38,1,1.58,1.58,0,0,0,.42,1.81.83.83,0,0,1,0,1.13.82.82,0,0,1-1.15,0,3.22,3.22,0,0,1-.76-3.54,3.12,3.12,0,0,1,2.86-2,14.2,14.2,0,0,1,2.75.35,7.72,7.72,0,0,0,5.16-.27.78.78,0,0,1,1.05.38A.92.92,0,0,1,498.1,171.51Z"/><path class="cls-3" d="M506.3,182.29c-1.27,2.86-3.15,4-4.61,4a2.37,2.37,0,0,1-2.14-1.18,4.07,4.07,0,0,1-2.68,1.18c-2,0-3-1.94-2.14-3.86l2.22-4.71a.82.82,0,0,1,1.5.69l-2.14,4.69c-.32.68-.17,1.46.74,1.46s1.83-.68,2.88-2.94a.06.06,0,0,1,0,0l1.83-3.87a.82.82,0,0,1,1.5.69l-2.14,4.69c-.32.68-.17,1.46.74,1.46s1.83-.68,2.88-2.94C505.2,180.65,506.74,181.3,506.3,182.29Z"/><path class="cls-3" d="M507,182.43l1.64-3.3c0-.09,0-.14,0-.17l-.58-.25a.08.08,0,0,0-.13,0l-1.59,3.56c-.6,1.2-2.12.53-1.56-.66l2.33-5c.41-1,1.92-.44,1.53.52,0,.13,0,.17.06.2l1.75.74a.43.43,0,0,1,.24.63l-.44,1-1.64,3.45c-.31.6-.16,1.48.76,1.48s1.89-.82,2.94-3.09c.46-1,2-.33,1.56.66-1.27,2.86-3.21,4.14-4.67,4.14C507.15,186.29,506.14,184.37,507,182.43Z"/><path class="cls-3" d="M522.89,182.29c-1.27,2.86-3.15,4-4.61,4-1.9,0-2.28-1.86-1.56-3.7a1.86,1.86,0,0,1,.11-.27c.77-1.72,1.23-2.17,1.23-3a.51.51,0,0,0-.5-.5c-1.18,0-3.29,2.69-4.72,5.59l-.63,1.42a.84.84,0,0,1-1.57-.55l0-.14,3.35-7.6a.84.84,0,0,1,1.59.55,3.75,3.75,0,0,1,2.12-.88,1.9,1.9,0,0,1,2,2c0,.93-.24,1.15-1.42,3.79a3.59,3.59,0,0,0-.2.57c-.11.52,0,1,.33,1h0c.85,0,1.79-.72,2.83-2.94C521.78,180.65,523.33,181.3,522.89,182.29Z"/><path class="cls-3" d="M520.95,182.43l2.22-4.71a.82.82,0,0,1,1.49.69l-2.14,4.69c-.32.68-.17,1.46.74,1.46s1.83-.68,2.88-2.94c.46-1,2-.33,1.56.66-1.27,2.86-3.15,4-4.61,4C521.09,186.29,520.05,184.35,520.95,182.43Zm3.18-7a.93.93,0,1,1,.93.93A.93.93,0,0,1,524.13,175.41Z"/><path class="cls-3" d="M532.52,182.29c-1.26,2.86-3.15,4-4.61,4-2,0-3-1.92-2.14-3.86l1.67-3.62h-.3a.83.83,0,0,1-.83-.83.82.82,0,0,1,.83-.83h1.07l1-2.17c.44-1,1.89-.28,1.5.69l-.66,1.48h.16a.82.82,0,0,1,.82.83.83.83,0,0,1-.82.83h-.91l-1.94,4.3c-.32.68-.17,1.46.74,1.46s1.83-.68,2.88-2.94C531.41,180.65,533,181.3,532.52,182.29Z"/><path class="cls-3" d="M542.13,182.29c-1.27,2.86-3.15,4-4.61,4a2.37,2.37,0,0,1-2.14-1.18,4.07,4.07,0,0,1-2.68,1.18c-2,0-3-1.94-2.14-3.86l2.22-4.71a.82.82,0,0,1,1.5.69l-2.14,4.69c-.32.68-.17,1.46.74,1.46s1.83-.68,2.88-2.94a.06.06,0,0,1,0,0l1.83-3.87a.82.82,0,0,1,1.5.69L537,183.11c-.32.68-.17,1.46.74,1.46s1.83-.68,2.88-2.94C541,180.65,542.57,181.3,542.13,182.29Z"/><path class="cls-3" d="M542.84,182.43l1.64-3.3c0-.09,0-.14,0-.17l-.58-.25a.08.08,0,0,0-.13,0l-1.59,3.56c-.6,1.2-2.12.53-1.56-.66l2.33-5c.41-1,1.92-.44,1.53.52,0,.13,0,.17.06.2l1.75.74a.43.43,0,0,1,.24.63l-.44,1-1.64,3.45c-.31.6-.16,1.48.76,1.48s1.89-.82,2.94-3.09c.46-1,2-.33,1.56.66-1.27,2.86-3.21,4.14-4.67,4.14C543,186.29,542,184.37,542.84,182.43Z"/><path class="cls-3" d="M548.55,185.3a3.22,3.22,0,0,1-.72-2.6c.25-2.41,2.42-5.43,5-5.41,2.25,0,2.77,2.38,1.27,4a4.06,4.06,0,0,1-3.9,1.31c-.39-.13-.6.14-.63.54-.08.9.63,1.56,1.84,1.56,1.81,0,3.4-1.29,4.36-3.35a.85.85,0,1,1,1.56.64c-1.12,2.52-3,4.28-5.92,4.28A3.74,3.74,0,0,1,548.55,185.3Zm4.38-4.89c.72-.8.52-1.59-.22-1.59-.93,0-2,1.35-2.28,2-.08.14-.2.35.25.42A2.38,2.38,0,0,0,552.93,180.4Z"/><g class="cls-6"><rect class="cls-7" width="1050" height="210"/></g></g></g></svg>