<svg id="Layer_1" data-name="Layer 1" xmlns="http://www.w3.org/2000/svg" viewBox="0 0 140 140"><defs><style>.cls-1{fill:#ffe5d4;}.cls-2{fill:none;stroke:#ffa1b1;stroke-miterlimit:10;stroke-width:1.25px;}.cls-3{fill:#ffa1b1;}</style></defs><title>feelings_matter_orig</title><rect class="cls-1" width="140" height="140"/><path class="cls-2" d="M84.63,87.34c-6.33,4-23.92,5.4-30,1"/><path class="cls-3" d="M96.5,73.06c-.25-.2-.92-.71-5.36,1.72h0a.62.62,0,0,0-.33.54c0,3.4-3.18,8.13-6.13,11.08a.63.63,0,0,0,.37,1.06,2.74,2.74,0,0,1,2.11,1.12c1,1.52.37,4.07.36,4.09a.63.63,0,0,0,.37.74.61.61,0,0,0,.23,0,.62.62,0,0,0,.55-.33c.26-.47,6.08-11.22,3.57-17.54a21.11,21.11,0,0,1,3.21-1.41,52.37,52.37,0,0,0-.79,12.69c.12,5.25.21,9.39-2.35,10.93a28.15,28.15,0,0,0-6.33,6c-2.66,3.06-5.17,6-8.35,6h-14c-3.14,0-6-2.71-9-5.57a33.08,33.08,0,0,0-6.69-5.35c-3.43-1.84-3.64-8.21-3.86-15a60.76,60.76,0,0,0-1-11.12,23.2,23.2,0,0,1,3.44,1.62c-1.22,1.8-.93,5.59-.41,8.66.66,3.92,2,8.09,3,9.7a.63.63,0,0,0,.52.28l.18,0a.63.63,0,0,0,.44-.6c0-4.36,2.92-4.86,3-4.88a.63.63,0,0,0,.41-1c-.06-.08-5.6-7.56-5.6-12.29a.62.62,0,0,0-.31-.54h0C43,70.83,42.25,71.37,42,71.56a.86.86,0,0,0-.29.94c.84,3.27,1,7.39,1.11,11.37.24,7.11.46,13.83,4.52,16a32.18,32.18,0,0,1,6.42,5.16c3.2,3,6.23,5.92,9.87,5.92h14c3.76,0,6.45-3.1,9.3-6.39a27.23,27.23,0,0,1,6-5.7c3.18-1.91,3.08-6.37,3-12-.09-4-.19-8.48.88-12.89A.85.85,0,0,0,96.5,73.06Z"/><path class="cls-3" d="M99.13,59.72c8.26-11,4.14-25.4,2.17-32.31l-.07-.23C98.57,17.87,88.71,7,69.64,7H69.5C54.23,7.07,42.27,14.59,39,26.17c-.13.45-.27.94-.43,1.48-2,6.68-6,20.58,2.56,30.11.21.24-.21,2.19-1.58,3.6-1.59,1.64-4.4,5.5-2.52,9.26,3,6,9.44,6.77,13.7,7.28,1.32.16,3.13.37,3.3.72.43.87-.06,2.71-.49,4.33s-.89,3.37-.56,4.56c1.11,3.88,8.11,6,14.56,6.28.61,0,1.23,0,1.86,0,6.76,0,14.6-1.86,16.76-7.27.44-1.11,0-2.66-.5-4.31-.41-1.38-.87-2.94-.52-3.64.26-.52,2.54-.82,4.37-1.05,3.68-.48,8.26-1.07,10.55-3.82,3.07-3.68,1.3-6.76-.13-9.24C98.78,62.43,98.1,61.09,99.13,59.72ZM39.8,28c.16-.54.3-1,.43-1.49C42.58,18.13,51.65,8.33,69.51,8.28h.13C88,8.28,97.49,18.63,100,27.51l.07.23C102.16,35,106,48.45,98.13,59a4.07,4.07,0,0,0-.4.65c-1.51-2.57-1.44-5-1.37-7.21a14.4,14.4,0,0,0-.12-3.18C94.88,42.29,89.8,41.77,82.12,41l-2.42-.26c-2-.22-3.9,1.82-5.81,3.79-1.46,1.52-3.15,3.27-4.25,3.21-.91,0-1.94-1.33-3-2.71-1.59-2-3.39-4.29-6-4.29-7.65,0-16.56,1-17.62,8.54-.09.67-.14,1.46-.19,2.29a23.27,23.27,0,0,1-.75,5.35C34,47.89,37.77,35,39.8,28ZM99.15,72.94c-2,2.38-6.29,2.94-9.75,3.38-2.77.36-4.77.62-5.32,1.74s-.08,2.8.44,4.56c.39,1.31.82,2.79.54,3.49-2.12,5.3-10.69,6.78-17.4,6.44-7-.36-12.64-2.62-13.42-5.38-.24-.85.17-2.4.56-3.89.54-2,1-3.93.4-5.21-.48-1-2-1.13-4.28-1.4-4-.47-10-1.19-12.72-6.6-1.52-3,.55-5.63,2.38-7.92a13.66,13.66,0,0,0,2-3.12,23.76,23.76,0,0,0,1.52-7.4c0-.81.09-1.58.18-2.19C45.17,42.82,53.49,42,60.63,42c2,0,3.58,2,5,3.81,1.28,1.62,2.49,3.15,4,3.19,1.7,0,3.38-1.72,5.18-3.59,1.61-1.67,3.44-3.56,4.77-3.42l2.43.26c7.63.79,11.84,1.22,13,7.24a14.71,14.71,0,0,1,.1,2.9A23.94,23.94,0,0,0,98.9,65.13C100.32,67.6,101.66,69.93,99.15,72.94Z"/><path class="cls-3" d="M69.74,81H69.6c-1.36-.07-3-1.15-4.52-2.88S62.86,74.59,63,73.27c.38-3.38,2-14.42,6.6-14.56h0c4.35-.13,6.15,7.09,7.63,14.5.32,1.58-1,3.37-1.77,4.29C74,79.2,71.62,81,69.74,81Zm-.1-21c-2.71.08-4.66,6.81-5.4,13.45-.11,1,.59,2.47,1.78,3.87s2.64,2.39,3.63,2.44c1.21,0,3.32-1.24,4.86-3,1.07-1.24,1.64-2.48,1.49-3.23-.95-4.73-2.7-13.5-6.3-13.5Z"/><path class="cls-1" d="M66.13,87.84c-1.93,0-3.5,2.5-3.5,5,0,1.5,6,1.5,6,0C68.63,90.34,68.06,87.84,66.13,87.84Z"/><path class="cls-3" d="M65.63,94.59a7.43,7.43,0,0,1-2.26-.31c-1.19-.4-1.36-1.07-1.36-1.44,0-2.66,1.69-5.62,4.13-5.62,1.17,0,3.13.73,3.13,5.63C69.25,94.13,67.38,94.59,65.63,94.59Zm.5-6.12c-1.48,0-2.87,2.13-2.87,4.38a4,4,0,0,0,2.38.5A3.66,3.66,0,0,0,68,92.81C68,91.53,67.82,88.47,66.13,88.47Z"/><path class="cls-1" d="M71.13,87.84c-1.93,0-2.5,2.5-2.5,5,0,1.5,6,1.5,6,0C74.63,90.34,73.06,87.84,71.13,87.84Z"/><path class="cls-3" d="M71.63,94.59a7.43,7.43,0,0,1-2.26-.31c-1.19-.4-1.36-1.07-1.36-1.44,0-4.89,2-5.62,3.13-5.62,2.43,0,4.13,3,4.13,5.63C75.25,94.13,73.38,94.59,71.63,94.59Zm-.5-6.12c-1.69,0-1.87,3.06-1.87,4.38a4,4,0,0,0,2.38.5A3.66,3.66,0,0,0,74,92.81C74,90.59,72.61,88.47,71.13,88.47Z"/><path class="cls-1" d="M75.89,87.83c-1.18.36-1.64,2.24-.62,4.63.48,1.11,4.43-.1,4.26-1.3C79.25,89.07,77.07,87.48,75.89,87.83Z"/><path class="cls-3" d="M76.32,93.53a1.6,1.6,0,0,1-1.62-.82,5.42,5.42,0,0,1-.3-4.27,2.14,2.14,0,0,1,1.31-1.2h0a2.74,2.74,0,0,1,2.23.48,5,5,0,0,1,2.22,3.36c.15,1.1-1.24,1.9-2.48,2.24A5.14,5.14,0,0,1,76.32,93.53Zm-.25-5.1a.91.91,0,0,0-.54.53,4.29,4.29,0,0,0,.32,3.25,2.83,2.83,0,0,0,1.67-.15c.9-.29,1.36-.69,1.4-.84a3.74,3.74,0,0,0-1.66-2.45,1.61,1.61,0,0,0-1.19-.34Z"/><path class="cls-1" d="M79.67,86.67c-.94.64-.87,2.37.64,4.12,1.23,1.43,6.05-3.85,5.32-5.44S80.61,86,79.67,86.67Z"/><path class="cls-3" d="M80.87,91.65a1.32,1.32,0,0,1-1-.46,4.8,4.8,0,0,1-1.38-3.56,2.08,2.08,0,0,1,.87-1.48s3.81-2.5,5.81-1.95a1.59,1.59,0,0,1,1.06.88c.75,1.62-2,4.85-3.73,6A3,3,0,0,1,80.87,91.65Zm3.59-6.28A10.93,10.93,0,0,0,80,87.18h0a.83.83,0,0,0-.33.61,3.65,3.65,0,0,0,1.09,2.58c0,.05.36.06,1-.35,1.84-1.19,3.54-3.83,3.27-4.41a.35.35,0,0,0-.26-.2A1.29,1.29,0,0,0,84.46,85.36Z"/><path class="cls-1" d="M61.24,87.33c1.18.36,1.64,2.24.62,4.63-.48,1.11-4.43-.1-4.26-1.3C57.88,88.57,60.06,87,61.24,87.33Z"/><path class="cls-3" d="M60.81,93a5.15,5.15,0,0,1-1.36-.21c-1.24-.34-2.63-1.14-2.48-2.24a5,5,0,0,1,2.22-3.36,2.74,2.74,0,0,1,2.23-.48h0a2.13,2.13,0,0,1,1.31,1.2,5.42,5.42,0,0,1-.31,4.27A1.6,1.6,0,0,1,60.81,93Zm.07-5.12a2,2,0,0,0-1,.36,3.73,3.73,0,0,0-1.66,2.48,3.67,3.67,0,0,0,3.09.94,4.29,4.29,0,0,0,.3-3.23.91.91,0,0,0-.54-.53Z"/><path class="cls-1" d="M57.37,86.09c.94.64.87,2.37-.64,4.12-.7.81-4.1-1.86-3.4-4.32C53.76,84.37,56.43,85.45,57.37,86.09Z"/><path class="cls-3" d="M56.36,91a2.27,2.27,0,0,1-1.07-.32c-1.39-.75-3.16-2.84-2.56-4.94a1.58,1.58,0,0,1,1-1.1c1.27-.46,3.23.44,4,1a2.08,2.08,0,0,1,.87,1.48,4.79,4.79,0,0,1-1.38,3.56A1.09,1.09,0,0,1,56.36,91Zm-1.81-5.24a1.1,1.1,0,0,0-.37.06.35.35,0,0,0-.24.26,3,3,0,0,0,.83,2.56,3.2,3.2,0,0,0,1.56,1.11,3.58,3.58,0,0,0,1-2.51.83.83,0,0,0-.33-.61h0A5.44,5.44,0,0,0,54.54,85.74Z"/><path class="cls-3" d="M86.57,47.41a5,5,0,0,1,4.08.89,6.15,6.15,0,0,1,2.23,4.18c.26,3.52-6.35,11.16-7.11,12a.63.63,0,0,1-.47.21.62.62,0,0,1-.29-.07c-1-.53-9.92-5.3-10.93-8.69a6.16,6.16,0,0,1,.59-4.7A5,5,0,0,1,78.16,49c1.86-.34,3.73,1,4.69,1.84.6-1.13,1.86-3.05,3.72-3.4"/><path class="cls-3" d="M54.7,64.71a.63.63,0,0,1-.47-.21c-.75-.86-7.36-8.5-7.11-12a6.16,6.16,0,0,1,2.23-4.18,5,5,0,0,1,4.08-.89h0c1.86.34,3.13,2.27,3.72,3.4,1-.84,2.84-2.19,4.69-1.84a5,5,0,0,1,3.49,2.29,6.16,6.16,0,0,1,.59,4.7c-1,3.38-9.92,8.15-10.93,8.69A.62.62,0,0,1,54.7,64.71Z"/><path class="cls-3" d="M27.75,116.87a2.19,2.19,0,0,1,2,1.64c.07.18.11.38.17.56s.24.46.56.46a.55.55,0,0,0,.57-.55.43.43,0,0,0,0-.14c-.38-1.65-1.48-3.12-3.32-3.12a4.85,4.85,0,0,0-4.3,3.17c-.73,1.75-1.41,3.53-2.1,5.29a4.74,4.74,0,0,0-1.69-.34,3.74,3.74,0,0,0-3.1,1.18,1.71,1.71,0,0,0-.28.94c0,1.29,1.37,1.95,2.51,1.95a3.55,3.55,0,0,0,3.17-2.12,6.86,6.86,0,0,1,1.53,1.53c.15.21.27.42.41.63a.55.55,0,0,0,.49.29.57.57,0,0,0,.59-.56.59.59,0,0,0-.08-.29,7.74,7.74,0,0,0-2.49-2.68c.69-1.81,1.39-3.6,2.13-5.38A3.76,3.76,0,0,1,27.75,116.87Zm-9,9.89c-.46,0-1.33-.18-1.34-.78,0-.85,1.68-1,2.24-1a3.49,3.49,0,0,1,1.26.25A2.43,2.43,0,0,1,18.74,126.76Z"/><path class="cls-3" d="M30.73,120.37c-2,0-3.5,2.28-3.57,4.1-.06,1.42.69,2.82,2.27,2.82,2,0,3.49-2.28,3.54-4.1C33,121.77,32.29,120.37,30.73,120.37Zm-1.27,5.8c-.85,0-1.19-.92-1.16-1.64,0-1.18,1-3,2.4-3,.85,0,1.19.92,1.16,1.64C31.82,124.32,30.82,126.17,29.45,126.17Z"/><path class="cls-3" d="M37.94,120.34a.54.54,0,0,0-.52.32l-2.14,4.16-.31-4a.53.53,0,0,0-.55-.49.55.55,0,0,0-.6.56V121l.49,5.84a.55.55,0,0,0,.5.57.66.66,0,0,0,.56-.41c.35-.66,3.11-5.74,3.12-6.09A.55.55,0,0,0,37.94,120.34Z"/><path class="cls-3" d="M43.47,120.42h-3.1a.69.69,0,0,0-.59.48c-.28,1-.46,2.13-.7,3.19a24.28,24.28,0,0,0-.57,2.62v.1c0,.29.32.41.59.41h3.14a.56.56,0,0,0,.59-.56.53.53,0,0,0-.55-.56H39.81l.34-1.57h2.19a.58.58,0,0,0,.6-.56.52.52,0,0,0-.56-.56h-2l.39-1.86h2.63A.56.56,0,0,0,44,121,.53.53,0,0,0,43.47,120.42Z"/><path class="cls-3" d="M58.49,117.62c.1-.18.22-.38.32-.57a.66.66,0,0,0,.08-.29.61.61,0,0,0-.62-.56c-.25,0-.34.11-.48.29a6,6,0,0,0-.41.71l-.85,1.56c-.85,1.55-1.74,3.11-2.61,4.66L53.73,122c-.28-1.77-.49-4.89-2.4-5.73a2.62,2.62,0,0,0-1-.21.54.54,0,0,0-.57.57.56.56,0,0,0,.56.57,1.77,1.77,0,0,1,.39.06,1.7,1.7,0,0,1,1.11,1.23,18.11,18.11,0,0,1,.76,3.67c.15,1,.28,2,.41,3-.2.34-.36.69-.57,1-.85,1.29-2.89,3.22-4.52,3.22-.38,0-.7.13-.69.57s.32.57.7.57c2.09,0,4.4-2.09,5.48-3.73.22-.35.39-.74.62-1.09.1-.14,0,0,.11-.15s0-.07,0-.1c.14-.29.32-.57.48-.85l.74-1.32,2.3-4.13Z"/><path class="cls-3" d="M59.82,120.37c-2,0-3.5,2.28-3.57,4.1-.06,1.42.69,2.82,2.27,2.82,2,0,3.49-2.28,3.54-4.1C62.11,121.77,61.39,120.37,59.82,120.37Zm-1.28,5.8c-.85,0-1.19-.92-1.16-1.64,0-1.18,1-3,2.4-3,.85,0,1.19.92,1.16,1.64C60.91,124.32,59.92,126.17,58.54,126.17Z"/><path class="cls-3" d="M67.87,120.35a.54.54,0,0,0-.56.45c-.41,1.34-.62,2.75-1,4.09-.27,1-.73,1.26-1.72,1.26-.55,0-.66-.24-.64-.76a4.77,4.77,0,0,1,.14-.88l.8-3.52v-.11a.52.52,0,0,0-.56-.53.57.57,0,0,0-.57.45l-.88,3.94a4.22,4.22,0,0,0-.1.74c0,1.27.74,1.79,1.93,1.79a2.53,2.53,0,0,0,2.72-2.19,34.47,34.47,0,0,0,1-4.09v-.11A.52.52,0,0,0,67.87,120.35Z"/><path class="cls-3" d="M79.12,120.42H74.88a.6.6,0,0,0-.6.63.46.46,0,0,0,.46.49h1.51l-1.11,5.08,0,.13a.55.55,0,0,0,.57.55.57.57,0,0,0,.56-.48l1.15-5.28H79a.59.59,0,0,0,.53-.63C79.53,120.66,79.4,120.42,79.12,120.42Z"/><path class="cls-3" d="M83,120.37c-2,0-3.5,2.28-3.57,4.1-.06,1.42.69,2.82,2.27,2.82,2,0,3.49-2.28,3.54-4.1C85.31,121.77,84.58,120.37,83,120.37Zm-1.28,5.8c-.85,0-1.19-.92-1.16-1.64,0-1.18,1-3,2.4-3,.85,0,1.19.92,1.16,1.64C84.11,124.32,83.11,126.17,81.74,126.17Z"/><path class="cls-3" d="M98.75,116.6a4.07,4.07,0,0,0-2.49-.88c-.55,0-2.17.29-2.16,1a.61.61,0,0,0,.59.6.58.58,0,0,0,.34-.13,2.16,2.16,0,0,1,1.25-.35h.06a60,60,0,0,1-2.46,7.1,1.59,1.59,0,0,0-1.26-.7c-1.19,0-1.67,1.2-1.65,2.23,0,.8.41,2,1.4,2,.69,0,1.37-.9,1.71-1.41a4.72,4.72,0,0,0,3.26,2,2.9,2.9,0,0,0,1.19-.28c2.07-1,2.87-3.19,2.83-5.36A6.91,6.91,0,0,0,98.75,116.6Zm-6.42,9.69a1.74,1.74,0,0,1-.24-.91c0-.35.08-1,.55-1h.1a3.1,3.1,0,0,1,.55.66A4.27,4.27,0,0,1,92.34,126.29Zm5.69.41a1.87,1.87,0,0,1-.77.17c-1.09,0-2-1.12-2.58-1.91a54.17,54.17,0,0,0,2.77-7.83,2.82,2.82,0,0,1,.62.38,5.77,5.77,0,0,1,2.13,4.86C100.22,124,99.66,126,98,126.7Z"/><path class="cls-3" d="M106.59,120.42h-3.1a.69.69,0,0,0-.59.48c-.28,1-.46,2.13-.7,3.19a24.16,24.16,0,0,0-.57,2.62v.1c0,.29.32.41.59.41h3.14a.56.56,0,0,0,.59-.56.53.53,0,0,0-.55-.56h-2.45l.34-1.57h2.19a.58.58,0,0,0,.6-.56.52.52,0,0,0-.56-.56h-2l.39-1.86h2.63a.56.56,0,0,0,.59-.56A.53.53,0,0,0,106.59,120.42Z"/><path class="cls-3" d="M111,120.28a.68.68,0,0,0-.56.39c-.36.67-3.42,6.11-3.43,6.47a.56.56,0,0,0,.57.55.6.6,0,0,0,.59-.48,11.5,11.5,0,0,1,.56-1.06h2.19c0,.45,0,1.13.6,1.13a.56.56,0,0,0,.6-.55v-.1l-.62-5.79C111.44,120.56,111.27,120.28,111,120.28ZM109.31,125l1.21-2.23.25,2.23Z"/><path class="cls-3" d="M118.24,120.92c0-.25-.13-.49-.41-.49h-4.24a.6.6,0,0,0-.6.63.46.46,0,0,0,.46.49H115l-1.11,5.08,0,.13a.55.55,0,0,0,.57.55.57.57,0,0,0,.56-.48l1.15-5.28h1.6A.59.59,0,0,0,118.24,120.92Z"/><path class="cls-3" d="M123.11,120.42a.57.57,0,0,0-.56.48l-.53,2.45h-2.13a19.64,19.64,0,0,0,.52-2.38.54.54,0,0,0-.57-.55.57.57,0,0,0-.56.48L118,126.62c0,.39.15.67.55.67a.56.56,0,0,0,.56-.48l.5-2.35h2.13a20.18,20.18,0,0,0-.48,2.28.53.53,0,0,0,.57.55.58.58,0,0,0,.56-.48L123,124c.14-.66.62-2.42.64-3A.55.55,0,0,0,123.11,120.42Z"/></svg>