<svg xmlns="http://www.w3.org/2000/svg" viewBox="0 0 144 144"><defs><style>.cls-1{fill:#d5c52a;}.cls-2{fill:none;stroke:#fff;stroke-linecap:round;stroke-linejoin:round;stroke-width:3px;}.cls-3{fill:#f59493;}.cls-4{fill:#808285;}</style></defs><title>fun</title><g id="Layer_3" data-name="Layer 3"><circle class="cls-1" cx="72" cy="28.8" r="20.08"/><path class="cls-2" d="M52.22,27.6c4.15-1,6.35-4.91,9.31-8C72,8.72,82,16.88,84.7,20.25c4.72,5.9,3.29,12.33-2,16.67S70,42.49,65.61,47.79"/><path class="cls-3" d="M61.24,68.35a3.67,3.67,0,0,1,.39.92,4.18,4.18,0,0,1,.17,1.19,2.38,2.38,0,0,1-.51,1.72,1.86,1.86,0,0,1-1.38.51H53.4v3.5h6.79a3.06,3.06,0,0,1,.42.9,4,4,0,0,1,.17,1.18A2.32,2.32,0,0,1,60.27,80a1.86,1.86,0,0,1-1.38.51H53.46V87a8.51,8.51,0,0,1-1.07.19,11.28,11.28,0,0,1-1.44.09,6.45,6.45,0,0,1-1.25-.11,2.23,2.23,0,0,1-.92-.39,1.68,1.68,0,0,1-.56-.78,3.77,3.77,0,0,1-.19-1.3V71.23a2.68,2.68,0,0,1,2.88-2.88Z"/><path class="cls-3" d="M63.48,72.28a7.12,7.12,0,0,1,1-.19A10,10,0,0,1,65.83,72a7.35,7.35,0,0,1,1.22.09,2.1,2.1,0,0,1,.92.37,1.8,1.8,0,0,1,.57.76,3.3,3.3,0,0,1,.2,1.25v6.67A2.3,2.3,0,0,0,69.37,83a2.65,2.65,0,0,0,1.8.54,4.48,4.48,0,0,0,1.16-.12,4,4,0,0,0,.7-.25V72.28a7.12,7.12,0,0,1,1-.19A10,10,0,0,1,75.38,72a7.34,7.34,0,0,1,1.22.09,2.1,2.1,0,0,1,.92.37,1.8,1.8,0,0,1,.57.76,3.3,3.3,0,0,1,.2,1.25v9.42A2.53,2.53,0,0,1,77,86.23a8.51,8.51,0,0,1-2.59,1,14.18,14.18,0,0,1-3.27.36A12.07,12.07,0,0,1,68,87.26a6.87,6.87,0,0,1-2.43-1.15,5.12,5.12,0,0,1-1.58-2,7.11,7.11,0,0,1-.56-3Z"/><path class="cls-3" d="M91.07,77.58a1.73,1.73,0,0,0-.54-1.41A2.24,2.24,0,0,0,89,75.72a4.89,4.89,0,0,0-1.22.16,3.1,3.1,0,0,0-1,.46V87.1a7.18,7.18,0,0,1-1,.19,10,10,0,0,1-1.38.09,7.34,7.34,0,0,1-1.22-.09,2.1,2.1,0,0,1-.92-.37,1.79,1.79,0,0,1-.57-.76,3.28,3.28,0,0,1-.2-1.26V75.6a2.39,2.39,0,0,1,.36-1.36,3.77,3.77,0,0,1,1-1,8.91,8.91,0,0,1,2.65-1.21A12.68,12.68,0,0,1,89,71.6a8.36,8.36,0,0,1,5.39,1.54,5.18,5.18,0,0,1,1.89,4.26v9.7a7.15,7.15,0,0,1-1,.19,10,10,0,0,1-1.38.09,7.34,7.34,0,0,1-1.22-.09,2.1,2.1,0,0,1-.92-.37,1.8,1.8,0,0,1-.57-.76,3.28,3.28,0,0,1-.2-1.26Z"/><path class="cls-4" d="M25.34,111.83q-.25,0-.32-.29l-.1-.64a3.7,3.7,0,0,1-.34.42,2.2,2.2,0,0,1-.39.33,1.78,1.78,0,0,1-.45.21,1.71,1.71,0,0,1-.52.08,1.45,1.45,0,0,1-.79-.23,1.94,1.94,0,0,1-.62-.66,3.58,3.58,0,0,1-.4-1.07,6.78,6.78,0,0,1-.14-1.46,5.69,5.69,0,0,1,.16-1.38,3.73,3.73,0,0,1,.46-1.1,2.32,2.32,0,0,1,.71-.73,1.7,1.7,0,0,1,.93-.26,1.5,1.5,0,0,1,.75.18,2,2,0,0,1,.56.48v-3.52h1.27v9.66Zm-1.69-1.18a1.09,1.09,0,0,0,.67-.21,2.25,2.25,0,0,0,.52-.59v-3a1.34,1.34,0,0,0-.47-.47,1.13,1.13,0,0,0-.55-.14,1,1,0,0,0-.52.14,1.12,1.12,0,0,0-.39.41,2.32,2.32,0,0,0-.25.7,5.07,5.07,0,0,0-.09,1,5.63,5.63,0,0,0,.07,1,2.27,2.27,0,0,0,.21.66.84.84,0,0,0,.78.48Z"/><path class="cls-4" d="M31.61,111.83H31a.5.5,0,0,1-.28-.07.45.45,0,0,1-.15-.28l-.11-.47a4.66,4.66,0,0,1-.39.4,2.35,2.35,0,0,1-.4.29,1.73,1.73,0,0,1-.44.18,2.09,2.09,0,0,1-.51.06,1.64,1.64,0,0,1-.62-.11,1.28,1.28,0,0,1-.48-.34,1.6,1.6,0,0,1-.32-.57,2.5,2.5,0,0,1-.11-.79,1.9,1.9,0,0,1,.16-.75,1.75,1.75,0,0,1,.52-.67,3,3,0,0,1,1-.49,4.93,4.93,0,0,1,1.5-.2v-.39a1.78,1.78,0,0,0-.22-1,.74.74,0,0,0-.65-.32,1.25,1.25,0,0,0-.51.09,1.82,1.82,0,0,0-.36.2l-.28.21a.48.48,0,0,1-.28.09.32.32,0,0,1-.22-.08.64.64,0,0,1-.15-.21l-.23-.51A2.79,2.79,0,0,1,29.66,105a1.73,1.73,0,0,1,.82.19,1.8,1.8,0,0,1,.61.53,2.47,2.47,0,0,1,.38.82,3.92,3.92,0,0,1,.13,1Zm-2.46-1a1.34,1.34,0,0,0,.36,0,1.18,1.18,0,0,0,.31-.13,1.71,1.71,0,0,0,.28-.22,2.92,2.92,0,0,0,.27-.31V109a4.1,4.1,0,0,0-.93.09,2.1,2.1,0,0,0-.6.23.84.84,0,0,0-.32.32.85.85,0,0,0-.1.4.8.8,0,0,0,.2.61A.73.73,0,0,0,29.15,110.83Z"/><path class="cls-4" d="M34.39,103.21a1.12,1.12,0,0,1-.07.39,1.1,1.1,0,0,1-.18.32.85.85,0,0,1-.26.22.65.65,0,0,1-.32.08.62.62,0,0,1-.31-.08.84.84,0,0,1-.25-.22,1.09,1.09,0,0,1-.17-.32,1.16,1.16,0,0,1-.06-.39,1.24,1.24,0,0,1,.06-.4,1.08,1.08,0,0,1,.17-.33.86.86,0,0,1,.25-.22.64.64,0,0,1,.31-.08.66.66,0,0,1,.32.08.87.87,0,0,1,.26.22,1.09,1.09,0,0,1,.18.33A1.2,1.2,0,0,1,34.39,103.21Zm-.19,1.94v6.67H32.94v-6.67Z"/><path class="cls-4" d="M37,102.17v9.66H35.72v-9.66Z"/><path class="cls-4" d="M40.28,113.66a.64.64,0,0,1-.15.26.38.38,0,0,1-.27.09h-.94l1-2.67-2.13-6.17h1.11a.3.3,0,0,1,.24.09.61.61,0,0,1,.12.21l1.12,3.46a3.63,3.63,0,0,1,.1.35q0,.18.07.36c0-.12.06-.25.09-.36l.1-.36,1.06-3.45a.47.47,0,0,1,.14-.21.31.31,0,0,1,.21-.08h1Z"/><path class="cls-4" d="M45.22,105.16h1a.36.36,0,0,1,.24.08.37.37,0,0,1,.12.21l.75,3.56c0,.19.07.39.1.57l.07.56q.06-.28.12-.56l.14-.57.87-3.58a.41.41,0,0,1,.12-.21.31.31,0,0,1,.22-.08h.56a.33.33,0,0,1,.23.08.41.41,0,0,1,.12.21l.86,3.64q.07.28.12.54l.1.53q0-.28.08-.56t.11-.58l.78-3.56a.37.37,0,0,1,.12-.21.34.34,0,0,1,.23-.08h1l-1.67,6.67h-1c-.11,0-.19-.1-.24-.29l-.95-3.85c0-.13-.06-.25-.08-.38s0-.25-.06-.38c0,.13,0,.26-.07.39s-.05.26-.08.39l-1,3.84c0,.19-.14.29-.28.29h-1Z"/><path class="cls-4" d="M58.1,111.83h-.57a.5.5,0,0,1-.28-.07.45.45,0,0,1-.15-.28L57,111a4.66,4.66,0,0,1-.39.4,2.35,2.35,0,0,1-.4.29,1.73,1.73,0,0,1-.44.18,2.09,2.09,0,0,1-.51.06,1.64,1.64,0,0,1-.62-.11,1.28,1.28,0,0,1-.48-.34,1.6,1.6,0,0,1-.32-.57,2.5,2.5,0,0,1-.11-.79,1.9,1.9,0,0,1,.16-.75,1.75,1.75,0,0,1,.52-.67,3,3,0,0,1,1-.49,4.93,4.93,0,0,1,1.5-.2v-.39a1.78,1.78,0,0,0-.22-1,.74.74,0,0,0-.65-.32,1.25,1.25,0,0,0-.51.09,1.82,1.82,0,0,0-.36.2l-.28.21a.48.48,0,0,1-.28.09.32.32,0,0,1-.22-.08.64.64,0,0,1-.15-.21l-.23-.51A2.79,2.79,0,0,1,56.15,105a1.73,1.73,0,0,1,.82.19,1.8,1.8,0,0,1,.61.53,2.47,2.47,0,0,1,.38.82,3.92,3.92,0,0,1,.13,1Zm-2.46-1a1.34,1.34,0,0,0,.36,0,1.18,1.18,0,0,0,.31-.13,1.71,1.71,0,0,0,.28-.22,2.92,2.92,0,0,0,.27-.31V109a4.1,4.1,0,0,0-.93.09,2.1,2.1,0,0,0-.6.23.84.84,0,0,0-.32.32.85.85,0,0,0-.1.4.8.8,0,0,0,.2.61A.73.73,0,0,0,55.64,110.83Z"/><path class="cls-4" d="M60.69,102.17v9.66H59.43v-9.66Z"/><path class="cls-4" d="M63.41,102.17v5.53h.24a.37.37,0,0,0,.2,0,.58.58,0,0,0,.15-.17l1.31-2a.87.87,0,0,1,.18-.21.42.42,0,0,1,.26-.07H66.9l-1.64,2.48a2.65,2.65,0,0,1-.18.25,1.22,1.22,0,0,1-.2.2,1.09,1.09,0,0,1,.19.23l.16.28L67,111.83H65.85a.46.46,0,0,1-.25-.07.56.56,0,0,1-.18-.22L64.08,109a.48.48,0,0,0-.15-.2.47.47,0,0,0-.23,0h-.29v3.05H62.14v-9.66Z"/><path class="cls-4" d="M70.9,106.46a.41.41,0,0,1-.11.15.23.23,0,0,1-.14,0,.38.38,0,0,1-.2-.06l-.24-.15a1.89,1.89,0,0,0-.32-.15,1.22,1.22,0,0,0-.42-.06.83.83,0,0,0-.59.2.69.69,0,0,0-.22.53.58.58,0,0,0,.11.36,1,1,0,0,0,.29.26,2.5,2.5,0,0,0,.41.2L70,108a4.53,4.53,0,0,1,.47.24,1.66,1.66,0,0,1,.41.34,1.59,1.59,0,0,1,.29.49,1.92,1.92,0,0,1,.11.69,2.73,2.73,0,0,1-.14.89,2,2,0,0,1-.41.7,1.83,1.83,0,0,1-.66.46,2.45,2.45,0,0,1-1.43.1,2.65,2.65,0,0,1-.5-.17,2.59,2.59,0,0,1-.44-.26,2.22,2.22,0,0,1-.36-.33l.29-.61a.49.49,0,0,1,.13-.17.31.31,0,0,1,.19-.06.35.35,0,0,1,.22.08l.24.18a1.9,1.9,0,0,0,.33.18,1.15,1.15,0,0,0,.47.08,1,1,0,0,0,.39-.07.76.76,0,0,0,.27-.18.67.67,0,0,0,.15-.26.94.94,0,0,0,0-.3.63.63,0,0,0-.11-.38,1,1,0,0,0-.29-.26,2.47,2.47,0,0,0-.42-.2l-.48-.19a4,4,0,0,1-.48-.24,1.68,1.68,0,0,1-.42-.35,1.64,1.64,0,0,1-.29-.53,2.27,2.27,0,0,1-.11-.75,2.37,2.37,0,0,1,.13-.78,1.86,1.86,0,0,1,.38-.65,1.81,1.81,0,0,1,.62-.44,2.09,2.09,0,0,1,.86-.17,2.15,2.15,0,0,1,1,.23,2.26,2.26,0,0,1,.74.6Z"/><path class="cls-4" d="M78.37,111.83H77.8a.5.5,0,0,1-.28-.07.45.45,0,0,1-.15-.28l-.11-.47a4.66,4.66,0,0,1-.39.4,2.35,2.35,0,0,1-.4.29,1.73,1.73,0,0,1-.44.18,2.09,2.09,0,0,1-.51.06,1.64,1.64,0,0,1-.62-.11,1.28,1.28,0,0,1-.48-.34,1.6,1.6,0,0,1-.32-.57,2.5,2.5,0,0,1-.11-.79,1.9,1.9,0,0,1,.16-.75,1.75,1.75,0,0,1,.52-.67,3,3,0,0,1,1-.49,4.93,4.93,0,0,1,1.5-.2v-.39a1.78,1.78,0,0,0-.22-1,.74.74,0,0,0-.65-.32,1.25,1.25,0,0,0-.51.09,1.82,1.82,0,0,0-.36.2l-.28.21a.48.48,0,0,1-.28.09.32.32,0,0,1-.22-.08.64.64,0,0,1-.15-.21l-.23-.51A2.79,2.79,0,0,1,76.42,105a1.73,1.73,0,0,1,.82.19,1.8,1.8,0,0,1,.61.53,2.47,2.47,0,0,1,.38.82,3.92,3.92,0,0,1,.13,1Zm-2.46-1a1.34,1.34,0,0,0,.36,0,1.18,1.18,0,0,0,.31-.13,1.71,1.71,0,0,0,.28-.22,2.92,2.92,0,0,0,.27-.31V109a4.1,4.1,0,0,0-.93.09,2.1,2.1,0,0,0-.6.23.84.84,0,0,0-.32.32.85.85,0,0,0-.1.4.8.8,0,0,0,.2.61A.73.73,0,0,0,75.9,110.83Z"/><path class="cls-4" d="M79.61,111.83v-6.67h.77q.25,0,.32.29l.09.53a3.24,3.24,0,0,1,.34-.38,2.29,2.29,0,0,1,.37-.29,1.66,1.66,0,0,1,.42-.19,1.79,1.79,0,0,1,.49-.07,1.55,1.55,0,0,1,.76.19,1.59,1.59,0,0,1,.56.52,2.51,2.51,0,0,1,.34.8,4.24,4.24,0,0,1,.12,1v4.24H82.93v-4.24a1.7,1.7,0,0,0-.22-.95.75.75,0,0,0-.67-.33,1.11,1.11,0,0,0-.62.19,2.35,2.35,0,0,0-.54.51v4.82Z"/><path class="cls-4" d="M89.15,111.83q-.25,0-.32-.29l-.1-.64a3.7,3.7,0,0,1-.34.42,2.2,2.2,0,0,1-.39.33,1.78,1.78,0,0,1-.45.21,1.71,1.71,0,0,1-.52.08,1.45,1.45,0,0,1-.79-.23,1.94,1.94,0,0,1-.62-.66,3.58,3.58,0,0,1-.4-1.07,6.78,6.78,0,0,1-.14-1.46,5.69,5.69,0,0,1,.16-1.38,3.73,3.73,0,0,1,.46-1.1,2.32,2.32,0,0,1,.71-.73,1.7,1.7,0,0,1,.93-.26,1.5,1.5,0,0,1,.75.18,2,2,0,0,1,.56.48v-3.52h1.27v9.66Zm-1.69-1.18a1.09,1.09,0,0,0,.67-.21,2.25,2.25,0,0,0,.52-.59v-3a1.34,1.34,0,0,0-.47-.47,1.13,1.13,0,0,0-.55-.14,1,1,0,0,0-.52.14,1.12,1.12,0,0,0-.39.41,2.32,2.32,0,0,0-.25.7,5.07,5.07,0,0,0-.09,1,5.63,5.63,0,0,0,.07,1,2.27,2.27,0,0,0,.21.66.84.84,0,0,0,.78.48Z"/><path class="cls-4" d="M94.62,102.17v9.66H93.35v-9.66Z"/><path class="cls-4" d="M98.29,105.05a2.3,2.3,0,0,1,1.89.92,3.23,3.23,0,0,1,.52,1.08,5.61,5.61,0,0,1,0,2.85,3.31,3.31,0,0,1-.52,1.09,2.28,2.28,0,0,1-1.89.93,2.37,2.37,0,0,1-1.07-.24,2.34,2.34,0,0,1-.82-.69,3.32,3.32,0,0,1-.53-1.09,5.54,5.54,0,0,1,0-2.85A3.24,3.24,0,0,1,96.4,106a2.32,2.32,0,0,1,1.9-.92Zm0,5.64a1,1,0,0,0,1-.56,3.41,3.41,0,0,0,.32-1.64,3.44,3.44,0,0,0-.32-1.64,1,1,0,0,0-1-.57,1.05,1.05,0,0,0-1,.57,3.42,3.42,0,0,0-.32,1.64,3.38,3.38,0,0,0,.32,1.63A1.05,1.05,0,0,0,98.29,110.69Z"/><path class="cls-4" d="M103.61,111.93a1.24,1.24,0,0,1-1.05-.49,2.21,2.21,0,0,1-.37-1.36v-3.72h-.53a.23.23,0,0,1-.18-.08.37.37,0,0,1-.07-.25v-.64l.85-.18.27-1.82a.34.34,0,0,1,.09-.2.26.26,0,0,1,.19-.07h.66v2.1h1.38v1.14h-1.38V110a.84.84,0,0,0,.12.49.38.38,0,0,0,.33.18.47.47,0,0,0,.2,0l.14-.07.1-.08a.15.15,0,0,1,.09,0,.13.13,0,0,1,.09,0l.08.11.38.78a1.85,1.85,0,0,1-.64.44A1.92,1.92,0,0,1,103.61,111.93Z"/><path class="cls-4" d="M109,106.46a.41.41,0,0,1-.11.15.23.23,0,0,1-.14,0,.38.38,0,0,1-.2-.06l-.24-.15a1.89,1.89,0,0,0-.32-.15,1.22,1.22,0,0,0-.42-.06.83.83,0,0,0-.59.2.69.69,0,0,0-.22.53.58.58,0,0,0,.11.36,1,1,0,0,0,.29.26,2.5,2.5,0,0,0,.41.2l.47.19a4.53,4.53,0,0,1,.47.24,1.66,1.66,0,0,1,.41.34,1.59,1.59,0,0,1,.29.49,1.92,1.92,0,0,1,.11.69,2.73,2.73,0,0,1-.14.89,2,2,0,0,1-.41.7,1.83,1.83,0,0,1-.66.46,2.45,2.45,0,0,1-1.43.1,2.65,2.65,0,0,1-.5-.17,2.59,2.59,0,0,1-.44-.26,2.22,2.22,0,0,1-.36-.33l.29-.61a.49.49,0,0,1,.13-.17.31.31,0,0,1,.19-.06.35.35,0,0,1,.22.08l.24.18a1.9,1.9,0,0,0,.33.18,1.15,1.15,0,0,0,.47.08,1,1,0,0,0,.39-.07.76.76,0,0,0,.27-.18.67.67,0,0,0,.15-.26.94.94,0,0,0,0-.3.63.63,0,0,0-.11-.38,1,1,0,0,0-.29-.26,2.47,2.47,0,0,0-.42-.2l-.48-.19a4,4,0,0,1-.48-.24,1.68,1.68,0,0,1-.42-.35,1.64,1.64,0,0,1-.29-.53,2.27,2.27,0,0,1-.11-.75,2.37,2.37,0,0,1,.13-.78,1.86,1.86,0,0,1,.38-.65,1.81,1.81,0,0,1,.62-.44,2.09,2.09,0,0,1,.86-.17,2.15,2.15,0,0,1,1,.23,2.26,2.26,0,0,1,.74.6Z"/><path class="cls-4" d="M114.56,105.05a2.3,2.3,0,0,1,1.89.92,3.23,3.23,0,0,1,.52,1.08,5.61,5.61,0,0,1,0,2.85,3.31,3.31,0,0,1-.52,1.09,2.28,2.28,0,0,1-1.89.93,2.37,2.37,0,0,1-1.07-.24,2.34,2.34,0,0,1-.82-.69,3.32,3.32,0,0,1-.53-1.09,5.54,5.54,0,0,1,0-2.85,3.24,3.24,0,0,1,.53-1.08,2.32,2.32,0,0,1,1.9-.92Zm0,5.64a1,1,0,0,0,1-.56,3.41,3.41,0,0,0,.32-1.64,3.44,3.44,0,0,0-.32-1.64,1,1,0,0,0-1-.57,1.05,1.05,0,0,0-1,.57,3.42,3.42,0,0,0-.32,1.64,3.38,3.38,0,0,0,.32,1.63A1.05,1.05,0,0,0,114.56,110.69Z"/><path class="cls-4" d="M118.36,111.83v-5.46l-.46-.09a.45.45,0,0,1-.24-.13.39.39,0,0,1-.09-.27v-.66h.78v-.49a3.58,3.58,0,0,1,.14-1,2.27,2.27,0,0,1,.39-.77,1.7,1.7,0,0,1,.62-.49,1.93,1.93,0,0,1,.82-.17,1.83,1.83,0,0,1,.68.12l0,.81a.23.23,0,0,1-.14.23.86.86,0,0,1-.3,0,1.22,1.22,0,0,0-.4.06.66.66,0,0,0-.3.21,1,1,0,0,0-.19.4,2.53,2.53,0,0,0-.06.62v.44H121v1.14h-1.33v5.47Z"/><path class="cls-4" d="M15.4,129.6v-8.85h.77a.32.32,0,0,1,.21.07.35.35,0,0,1,.11.22l.1.62a2.9,2.9,0,0,1,.73-.75,1.66,1.66,0,0,1,1-.29,1.44,1.44,0,0,1,.79.23,2,2,0,0,1,.62.66,3.6,3.6,0,0,1,.4,1.07,6.7,6.7,0,0,1,.14,1.45,5.71,5.71,0,0,1-.16,1.38,3.77,3.77,0,0,1-.45,1.1,2.28,2.28,0,0,1-.71.73,1.72,1.72,0,0,1-.94.26,1.53,1.53,0,0,1-.76-.17,1.89,1.89,0,0,1-.56-.48v2.73Zm2.46-7.7a1.09,1.09,0,0,0-.67.21,2.2,2.2,0,0,0-.52.59v3a1.31,1.31,0,0,0,.47.47,1.16,1.16,0,0,0,.55.13,1,1,0,0,0,.52-.14,1.11,1.11,0,0,0,.4-.42,2.37,2.37,0,0,0,.25-.71,5.07,5.07,0,0,0,.09-1,5.6,5.6,0,0,0-.07-1,2.21,2.21,0,0,0-.21-.66,1,1,0,0,0-.34-.37A.86.86,0,0,0,17.86,121.9Z"/><path class="cls-4" d="M22.55,117.77v9.66H21.28v-9.66Z"/><path class="cls-4" d="M28.1,127.43h-.57a.5.5,0,0,1-.28-.07.45.45,0,0,1-.15-.28l-.11-.47a4.66,4.66,0,0,1-.39.4,2.35,2.35,0,0,1-.4.29,1.73,1.73,0,0,1-.44.18,2.09,2.09,0,0,1-.51.06,1.64,1.64,0,0,1-.62-.11,1.28,1.28,0,0,1-.48-.34,1.6,1.6,0,0,1-.32-.57,2.5,2.5,0,0,1-.11-.79,1.9,1.9,0,0,1,.16-.75,1.75,1.75,0,0,1,.52-.67,3,3,0,0,1,1-.49,4.93,4.93,0,0,1,1.5-.2v-.39a1.78,1.78,0,0,0-.22-1,.74.74,0,0,0-.65-.32,1.25,1.25,0,0,0-.51.09,1.82,1.82,0,0,0-.36.2l-.28.21a.48.48,0,0,1-.28.09.32.32,0,0,1-.22-.08.64.64,0,0,1-.15-.21l-.23-.51a2.79,2.79,0,0,1,2.19-1.05,1.73,1.73,0,0,1,.82.19,1.8,1.8,0,0,1,.61.53,2.47,2.47,0,0,1,.38.82,3.92,3.92,0,0,1,.13,1Zm-2.46-1a1.34,1.34,0,0,0,.36,0,1.18,1.18,0,0,0,.31-.13,1.71,1.71,0,0,0,.28-.22,2.92,2.92,0,0,0,.27-.31V124.6a4.1,4.1,0,0,0-.93.09,2.1,2.1,0,0,0-.6.23.84.84,0,0,0-.32.32.85.85,0,0,0-.1.4.8.8,0,0,0,.2.61A.73.73,0,0,0,25.64,126.42Z"/><path class="cls-4" d="M31,129.26a.64.64,0,0,1-.15.26.38.38,0,0,1-.27.09h-.94l1-2.67-2.13-6.17h1.11a.3.3,0,0,1,.24.09.61.61,0,0,1,.12.21l1.12,3.46a3.63,3.63,0,0,1,.1.35q0,.18.07.36c0-.12.06-.25.09-.36l.1-.36,1.06-3.45a.47.47,0,0,1,.14-.21.31.31,0,0,1,.21-.08h1Z"/><path class="cls-4" d="M36.36,127.53a1.24,1.24,0,0,1-1.05-.49,2.21,2.21,0,0,1-.37-1.36V122h-.53a.23.23,0,0,1-.18-.08.37.37,0,0,1-.07-.25V121l.85-.18.27-1.82a.34.34,0,0,1,.09-.2.26.26,0,0,1,.19-.07h.66v2.1h1.38V122H36.21v3.61a.84.84,0,0,0,.12.49.38.38,0,0,0,.33.18.47.47,0,0,0,.2,0l.14-.07.1-.08a.15.15,0,0,1,.09,0,.13.13,0,0,1,.09,0l.08.11.38.78a1.85,1.85,0,0,1-.64.44A1.92,1.92,0,0,1,36.36,127.53Z"/><path class="cls-4" d="M40.14,118.81a1.12,1.12,0,0,1-.07.39,1.1,1.1,0,0,1-.18.32.85.85,0,0,1-.26.22.65.65,0,0,1-.32.08.62.62,0,0,1-.31-.08.84.84,0,0,1-.25-.22,1.09,1.09,0,0,1-.17-.32,1.16,1.16,0,0,1-.06-.39,1.24,1.24,0,0,1,.06-.4,1.08,1.08,0,0,1,.17-.33.86.86,0,0,1,.25-.22.64.64,0,0,1,.31-.08.66.66,0,0,1,.32.08.87.87,0,0,1,.26.22,1.09,1.09,0,0,1,.18.33A1.2,1.2,0,0,1,40.14,118.81ZM40,120.76v6.67H38.69v-6.67Z"/><path class="cls-4" d="M41.38,127.43v-6.67h.77q.25,0,.32.29l.08.49a3.53,3.53,0,0,1,.29-.36,1.92,1.92,0,0,1,.32-.28,1.58,1.58,0,0,1,.37-.19,1.34,1.34,0,0,1,.43-.07,1.07,1.07,0,0,1,.82.34,2.15,2.15,0,0,1,.48.91,2.12,2.12,0,0,1,.31-.57,1.78,1.78,0,0,1,.41-.39,1.64,1.64,0,0,1,.47-.22,1.79,1.79,0,0,1,.5-.07,1.7,1.7,0,0,1,.77.17,1.53,1.53,0,0,1,.57.49,2.39,2.39,0,0,1,.35.79,4.34,4.34,0,0,1,.12,1.07v4.24H47.51v-4.24a1.7,1.7,0,0,0-.22-1,.73.73,0,0,0-.65-.32.78.78,0,0,0-.36.08.88.88,0,0,0-.29.24,1.18,1.18,0,0,0-.2.4,1.94,1.94,0,0,0-.07.55v4.24H44.45v-4.24a1.75,1.75,0,0,0-.21-1,.72.72,0,0,0-.63-.31.85.85,0,0,0-.51.17,1.88,1.88,0,0,0-.44.47v4.88Z"/><path class="cls-4" d="M52.19,120.65a2.07,2.07,0,0,1,.92.2,2,2,0,0,1,.72.59,2.86,2.86,0,0,1,.47.95,4.46,4.46,0,0,1,.17,1.28,2.86,2.86,0,0,1,0,.3.58.58,0,0,1,0,.19.21.21,0,0,1-.09.1.31.31,0,0,1-.14,0H50.93a2.67,2.67,0,0,0,.44,1.51,1.22,1.22,0,0,0,1,.48,1.39,1.39,0,0,0,.53-.09,2.2,2.2,0,0,0,.39-.2l.29-.2a.42.42,0,0,1,.24-.09.23.23,0,0,1,.13,0,.34.34,0,0,1,.1.11l.37.58A2.35,2.35,0,0,1,54,127a2.45,2.45,0,0,1-.55.34,2.52,2.52,0,0,1-.58.18,3.34,3.34,0,0,1-.57.05,2.3,2.3,0,0,1-1-.23,2.33,2.33,0,0,1-.82-.68,3.43,3.43,0,0,1-.55-1.12,5.39,5.39,0,0,1-.2-1.54,4.6,4.6,0,0,1,.17-1.28,3.32,3.32,0,0,1,.5-1,2.43,2.43,0,0,1,.79-.71A2.14,2.14,0,0,1,52.19,120.65Zm0,1.15a1,1,0,0,0-.87.4,2.22,2.22,0,0,0-.4,1.12h2.38a2.52,2.52,0,0,0-.07-.59,1.51,1.51,0,0,0-.21-.48,1,1,0,0,0-.35-.33A1,1,0,0,0,52.22,121.8Z"/><path class="cls-4" d="M59,118.81a1.12,1.12,0,0,1-.07.39,1.1,1.1,0,0,1-.18.32.85.85,0,0,1-.26.22.65.65,0,0,1-.32.08.62.62,0,0,1-.31-.08.84.84,0,0,1-.25-.22,1.09,1.09,0,0,1-.17-.32,1.16,1.16,0,0,1-.06-.39,1.24,1.24,0,0,1,.06-.4,1.08,1.08,0,0,1,.17-.33.86.86,0,0,1,.25-.22.64.64,0,0,1,.31-.08.66.66,0,0,1,.32.08.87.87,0,0,1,.26.22,1.09,1.09,0,0,1,.18.33A1.2,1.2,0,0,1,59,118.81Zm-.19,1.94v6.67H57.56v-6.67Z"/><path class="cls-4" d="M60.26,127.43v-6.67H61q.25,0,.32.29l.09.53a3.24,3.24,0,0,1,.34-.38,2.29,2.29,0,0,1,.37-.29,1.66,1.66,0,0,1,.42-.19,1.79,1.79,0,0,1,.49-.07,1.55,1.55,0,0,1,.76.19,1.59,1.59,0,0,1,.56.52,2.51,2.51,0,0,1,.34.8,4.24,4.24,0,0,1,.12,1v4.24H63.58v-4.24a1.7,1.7,0,0,0-.22-.95.75.75,0,0,0-.67-.33,1.11,1.11,0,0,0-.62.19,2.35,2.35,0,0,0-.54.51v4.82Z"/><path class="cls-4" d="M69.8,127.53a1.24,1.24,0,0,1-1.05-.49,2.21,2.21,0,0,1-.37-1.36V122h-.53a.23.23,0,0,1-.18-.08.37.37,0,0,1-.07-.25V121l.85-.18.27-1.82a.34.34,0,0,1,.09-.2.26.26,0,0,1,.19-.07h.66v2.1H71V122H69.65v3.61a.84.84,0,0,0,.12.49.38.38,0,0,0,.33.18.47.47,0,0,0,.2,0l.14-.07.1-.08a.15.15,0,0,1,.09,0,.13.13,0,0,1,.09,0l.08.11.38.78a1.85,1.85,0,0,1-.64.44A1.92,1.92,0,0,1,69.8,127.53Z"/><path class="cls-4" d="M72,127.43v-9.66h1.27v3.71a2.8,2.8,0,0,1,.68-.6,1.62,1.62,0,0,1,.87-.23,1.55,1.55,0,0,1,.76.19,1.59,1.59,0,0,1,.56.52,2.51,2.51,0,0,1,.34.8,4.24,4.24,0,0,1,.12,1v4.24H75.36v-4.24a1.7,1.7,0,0,0-.22-.95.75.75,0,0,0-.67-.33,1.11,1.11,0,0,0-.62.19,2.35,2.35,0,0,0-.54.51v4.82Z"/><path class="cls-4" d="M80,120.65a2.07,2.07,0,0,1,.92.2,2,2,0,0,1,.72.59,2.86,2.86,0,0,1,.47.95,4.46,4.46,0,0,1,.17,1.28,2.86,2.86,0,0,1,0,.3.58.58,0,0,1,0,.19.21.21,0,0,1-.09.1.31.31,0,0,1-.14,0H78.78a2.67,2.67,0,0,0,.44,1.51,1.22,1.22,0,0,0,1,.48,1.39,1.39,0,0,0,.53-.09,2.2,2.2,0,0,0,.39-.2l.29-.2a.42.42,0,0,1,.24-.09.23.23,0,0,1,.13,0,.34.34,0,0,1,.1.11l.37.58a2.35,2.35,0,0,1-.47.52,2.45,2.45,0,0,1-.55.34,2.52,2.52,0,0,1-.58.18,3.34,3.34,0,0,1-.57.05,2.3,2.3,0,0,1-1-.23,2.33,2.33,0,0,1-.82-.68,3.43,3.43,0,0,1-.55-1.12,5.39,5.39,0,0,1-.2-1.54,4.6,4.6,0,0,1,.17-1.28,3.32,3.32,0,0,1,.5-1,2.43,2.43,0,0,1,.79-.71A2.14,2.14,0,0,1,80,120.65Zm0,1.15a1,1,0,0,0-.87.4,2.22,2.22,0,0,0-.4,1.12h2.38a2.52,2.52,0,0,0-.07-.59,1.51,1.51,0,0,0-.21-.48,1,1,0,0,0-.35-.33A1,1,0,0,0,80.07,121.8Z"/><path class="cls-4" d="M85.35,127.43v-9.66h1.27v3.81a2.64,2.64,0,0,1,.71-.67,1.69,1.69,0,0,1,.92-.25,1.45,1.45,0,0,1,.79.22,1.92,1.92,0,0,1,.62.65,3.55,3.55,0,0,1,.4,1.06,6.7,6.7,0,0,1,.14,1.45,5.71,5.71,0,0,1-.16,1.38,3.76,3.76,0,0,1-.45,1.1,2.27,2.27,0,0,1-.71.73,1.72,1.72,0,0,1-.94.26,1.5,1.5,0,0,1-.44-.06,1.38,1.38,0,0,1-.36-.17,1.57,1.57,0,0,1-.31-.27,3.12,3.12,0,0,1-.27-.35l-.06.45a.44.44,0,0,1-.1.24.28.28,0,0,1-.2.07Zm2.46-5.53a1.09,1.09,0,0,0-.67.21,2.19,2.19,0,0,0-.52.59v3a1.3,1.3,0,0,0,.47.47,1.17,1.17,0,0,0,.55.13,1,1,0,0,0,.52-.14,1.11,1.11,0,0,0,.39-.42,2.37,2.37,0,0,0,.25-.71,5.08,5.08,0,0,0,.09-1,5.65,5.65,0,0,0-.07-1,2.23,2.23,0,0,0-.21-.66.94.94,0,0,0-.34-.37A.86.86,0,0,0,87.81,121.9Z"/><path class="cls-4" d="M95.3,127.43h-.57a.5.5,0,0,1-.28-.07.45.45,0,0,1-.15-.28l-.11-.47a4.66,4.66,0,0,1-.39.4,2.35,2.35,0,0,1-.4.29,1.73,1.73,0,0,1-.44.18,2.09,2.09,0,0,1-.51.06,1.64,1.64,0,0,1-.62-.11,1.28,1.28,0,0,1-.48-.34,1.6,1.6,0,0,1-.32-.57,2.5,2.5,0,0,1-.11-.79,1.9,1.9,0,0,1,.16-.75,1.75,1.75,0,0,1,.52-.67,3,3,0,0,1,1-.49,4.93,4.93,0,0,1,1.5-.2v-.39a1.78,1.78,0,0,0-.22-1,.74.74,0,0,0-.65-.32,1.25,1.25,0,0,0-.51.09,1.82,1.82,0,0,0-.36.2l-.28.21a.48.48,0,0,1-.28.09.32.32,0,0,1-.22-.08.64.64,0,0,1-.15-.21l-.23-.51a2.79,2.79,0,0,1,2.19-1.05,1.73,1.73,0,0,1,.82.19,1.8,1.8,0,0,1,.61.53,2.47,2.47,0,0,1,.38.82,3.92,3.92,0,0,1,.13,1Zm-2.46-1a1.34,1.34,0,0,0,.36,0,1.18,1.18,0,0,0,.31-.13,1.71,1.71,0,0,0,.28-.22,2.92,2.92,0,0,0,.27-.31V124.6a4.1,4.1,0,0,0-.93.09,2.1,2.1,0,0,0-.6.23.84.84,0,0,0-.32.32.85.85,0,0,0-.1.4.8.8,0,0,0,.2.61A.73.73,0,0,0,92.84,126.42Z"/><path class="cls-4" d="M100.24,122.17a.78.78,0,0,1-.11.14.22.22,0,0,1-.16.05.3.3,0,0,1-.19-.08l-.22-.17a1.51,1.51,0,0,0-.31-.17,1.13,1.13,0,0,0-.44-.07,1.11,1.11,0,0,0-.58.15,1.23,1.23,0,0,0-.42.44,2.27,2.27,0,0,0-.25.69,4.68,4.68,0,0,0-.08.92,4.51,4.51,0,0,0,.09.95,2.29,2.29,0,0,0,.26.7,1.22,1.22,0,0,0,.41.43,1,1,0,0,0,.54.15,1.1,1.1,0,0,0,.49-.09,1.44,1.44,0,0,0,.31-.21l.22-.21a.3.3,0,0,1,.21-.09.25.25,0,0,1,.23.15l.36.58a2.58,2.58,0,0,1-.46.52,2.34,2.34,0,0,1-.51.34,2.21,2.21,0,0,1-.55.18,3.12,3.12,0,0,1-.56.05,1.92,1.92,0,0,1-.92-.23,2.24,2.24,0,0,1-.75-.67,3.5,3.5,0,0,1-.51-1.08,5.2,5.2,0,0,1-.19-1.46,5.28,5.28,0,0,1,.17-1.36,3.37,3.37,0,0,1,.49-1.09,2.33,2.33,0,0,1,.8-.72,2.25,2.25,0,0,1,1.1-.26,2.14,2.14,0,0,1,1,.24,2.59,2.59,0,0,1,.8.69Z"/><path class="cls-4" d="M102.72,117.77v5.53H103a.37.37,0,0,0,.2,0,.58.58,0,0,0,.15-.17l1.31-2a.87.87,0,0,1,.18-.21.42.42,0,0,1,.26-.07h1.16l-1.64,2.48a2.65,2.65,0,0,1-.18.25,1.22,1.22,0,0,1-.2.2,1.09,1.09,0,0,1,.19.23l.16.28,1.75,3.24h-1.14a.46.46,0,0,1-.25-.07.56.56,0,0,1-.18-.22l-1.34-2.53a.48.48,0,0,0-.15-.2.47.47,0,0,0-.23,0h-.29v3.05h-1.27v-9.66Z"/><path class="cls-4" d="M110.94,129.26a.64.64,0,0,1-.15.26.38.38,0,0,1-.27.09h-.94l1-2.67-2.13-6.17h1.11a.3.3,0,0,1,.24.09.61.61,0,0,1,.12.21l1.12,3.46a3.63,3.63,0,0,1,.1.35q0,.18.07.36c0-.12.06-.25.09-.36l.1-.36,1.06-3.45a.47.47,0,0,1,.14-.21.31.31,0,0,1,.21-.08h1Z"/><path class="cls-4" d="M118.67,127.43h-.57a.5.5,0,0,1-.28-.07.45.45,0,0,1-.15-.28l-.11-.47a4.66,4.66,0,0,1-.39.4,2.35,2.35,0,0,1-.4.29,1.73,1.73,0,0,1-.44.18,2.09,2.09,0,0,1-.51.06,1.64,1.64,0,0,1-.62-.11,1.28,1.28,0,0,1-.48-.34,1.6,1.6,0,0,1-.32-.57,2.5,2.5,0,0,1-.11-.79,1.9,1.9,0,0,1,.16-.75,1.75,1.75,0,0,1,.52-.67,3,3,0,0,1,1-.49,4.93,4.93,0,0,1,1.5-.2v-.39a1.78,1.78,0,0,0-.22-1,.74.74,0,0,0-.65-.32,1.25,1.25,0,0,0-.51.09,1.82,1.82,0,0,0-.36.2l-.28.21a.48.48,0,0,1-.28.09.32.32,0,0,1-.22-.08.64.64,0,0,1-.15-.21l-.23-.51a2.79,2.79,0,0,1,2.19-1.05,1.73,1.73,0,0,1,.82.19,1.8,1.8,0,0,1,.61.53,2.47,2.47,0,0,1,.38.82,3.92,3.92,0,0,1,.13,1Zm-2.46-1a1.34,1.34,0,0,0,.36,0,1.18,1.18,0,0,0,.31-.13,1.71,1.71,0,0,0,.28-.22,2.92,2.92,0,0,0,.27-.31V124.6a4.1,4.1,0,0,0-.93.09,2.1,2.1,0,0,0-.6.23.84.84,0,0,0-.32.32.85.85,0,0,0-.1.4.8.8,0,0,0,.2.61A.73.73,0,0,0,116.21,126.42Z"/><path class="cls-4" d="M119.92,127.43v-6.67h.74a.34.34,0,0,1,.27.09.6.6,0,0,1,.1.31l.08.81a3.07,3.07,0,0,1,.66-1,1.21,1.21,0,0,1,.85-.36.94.94,0,0,1,.65.23l-.16,1.2a.28.28,0,0,1-.07.17.19.19,0,0,1-.14,0,.7.7,0,0,1-.21,0,1.12,1.12,0,0,0-.35,0,.94.94,0,0,0-.68.28,2.16,2.16,0,0,0-.48.81v4.15Z"/><path class="cls-4" d="M127.81,127.43q-.25,0-.32-.29l-.1-.64a3.7,3.7,0,0,1-.34.42,2.2,2.2,0,0,1-.39.33,1.78,1.78,0,0,1-.45.21,1.71,1.71,0,0,1-.52.08,1.45,1.45,0,0,1-.79-.23,1.94,1.94,0,0,1-.62-.66,3.58,3.58,0,0,1-.4-1.07,6.78,6.78,0,0,1-.14-1.46,5.69,5.69,0,0,1,.16-1.38,3.73,3.73,0,0,1,.46-1.1,2.32,2.32,0,0,1,.71-.73,1.7,1.7,0,0,1,.93-.26,1.5,1.5,0,0,1,.75.18,2,2,0,0,1,.56.48v-3.52h1.27v9.66Zm-1.69-1.18a1.09,1.09,0,0,0,.67-.21,2.25,2.25,0,0,0,.52-.59v-3a1.34,1.34,0,0,0-.47-.47,1.13,1.13,0,0,0-.55-.14,1,1,0,0,0-.52.14,1.12,1.12,0,0,0-.39.41,2.32,2.32,0,0,0-.25.7,5.07,5.07,0,0,0-.09,1,5.63,5.63,0,0,0,.07,1,2.27,2.27,0,0,0,.21.66.84.84,0,0,0,.78.48Z"/></g></svg>