<svg id="ghost_plant_colored_sticker_Image" data-name="ghost_plant_colored_sticker Image" xmlns="http://www.w3.org/2000/svg" viewBox="0 0 267 267"><defs><style>.cls-1{fill:#42b280;}.cls-2{fill:#ae5a19;}.cls-3{fill:#d38f3b;}.cls-4{fill:#b9e2c1;}.cls-5{fill:#97501d;}.cls-6{fill:#b6dac1;}.cls-7{fill:#e7f6e9;}.cls-8{fill:#b5dac1;}.cls-9{fill:#ab5514;}.cls-10{fill:#e5f5e9;}.cls-11{fill:#bcecc1;}.cls-12{fill:#873e0b;}.cls-13{fill:#b7dac2;}.cls-14{fill:#e6f5e9;}.cls-15{fill:#e8f7eb;}.cls-16{fill:#d4995f;}.cls-17{fill:#b3d9bf;}.cls-18{fill:#bbecc0;}.cls-19{fill:#b3d9c0;}.cls-20{fill:#b9ebbf;}.cls-21{fill:#e4f5e8;}.cls-22{fill:#baebc0;}.cls-23{fill:#aa5715;}.cls-24{fill:#42b27f;}.cls-25{fill:#42b480;}</style></defs><title>ghost_plant</title><path class="cls-1" d="M37.25,159.94c-3.83-2.6-7.89-5-10.94-8.52a55.1,55.1,0,0,1-3.9-5.71,1.22,1.22,0,0,1,.2-1.71c6.54-6.5,13.42-12.58,21.47-17.18,1.68-1,3.52-1.66,5.26-2.47-3.64-3-7.29-6-10.86-9.09a13.5,13.5,0,0,1-3.48-5.8c-.33-.87.28-1.45,1-1.82,2.65-1.39,5.31-2.76,8-4.1,3-1.5,6-3,9-4.45a7.57,7.57,0,0,0,.77-.51c-.47-.61-.92-1.16-1.33-1.74C49.71,93,47,89.21,44.26,85.44c-1.37-1.87-2.95-3.58-4.34-5.43a2.73,2.73,0,0,1-.62-2c.13-.44,1.08-.74,1.72-.92,3.48-1,7-1.93,10.45-3,5.64-1.76,11.17-3.89,17.06-4.72a42.3,42.3,0,0,1,19.31,1.41c3.33,1.09,6.62,2.32,9.93,3.48l.74.23c-.14-2.25-.36-4.39-.37-6.52,0-4.67-.34-9.38.17-14,.31-2.8,1.84-5.5,3-8.15,3.57-8,7.82-15.56,13.76-22.08a2.08,2.08,0,0,1,2.65-.63c1.76.74,3.54,1.43,5.42,2.18,1.21-2.79,2.41-5.53,3.58-8.27,1.08-2.53,2.14-5.08,3.21-7.61a9.86,9.86,0,0,1,.52-1.08c1-1.69,2.21-1.89,3.38-.34,2.38,3.16,4.63,6.41,6.92,9.64,3.52,5,7,9.91,10.59,14.94,2.07-1.69,4-3.33,6-4.82,2.2-1.65,4.45-3.27,6.78-4.73,1.83-1.14,2.9-.93,3.89.71,4.56,7.56,9.32,15,12.49,23.31,1.46,3.82,1.7,7.86,2.12,12l6.63-1.27,12.46-2.45c.89-.18,1.37,0,1,1a4.28,4.28,0,0,1-.51,1.32,8.58,8.58,0,0,0-2.07,5.62c0,1.47,0,2.94,0,4.59.85-.27,1.75-.53,2.63-.84,4.06-1.44,8.33-1.85,12.56-2.42,1.58-.21,3.16-.45,4.74-.67,2.4-.34,3.18.27,3.22,2.7A70.24,70.24,0,0,1,216.68,97c-1.91,4.24-4.64,7.91-7.21,11.72l-.52.79c1.44,0,2.7.09,3.95,0a30.66,30.66,0,0,1,16.05,3.1c5.22,2.49,10.23,5.4,15.35,8.1,3.25,1.71,6.52,3.36,10,5.17a10.07,10.07,0,0,1-1.65,2.14c-6.66,5-13,10.51-20.25,14.74a31.66,31.66,0,0,1-14.27,4.49,10.43,10.43,0,0,0-1.32.28c.52.41.87.69,1.22,1,3.2,2.39,6.48,4.68,9.59,7.18,3.66,2.95,5.51,7.21,7.52,11.28,2.23,4.51,4.2,9.15,7.2,13.24a3.32,3.32,0,0,1,.24.42c1,1.83.79,2.32-1.19,2.9q-11,3.26-22.05,6.49l-4,.93c-4.79.23-5.8,1.15-6.49,5.83-.37,2.55-.82,5.1-1.16,7.66-.13,1-.61,1.27-1.53,1.07s-1.56-.28-2.34-.42l-4.8-1a11.75,11.75,0,0,0-1.22-.43q-6.45-1.52-12.91-3c-.37-.09-.76-.1-1.18-.16-.1.5-.15.9-.25,1.28-.66,2.58-.87,5.39-2.08,7.68-4.13,7.83-8.56,15.5-13,23.17-1.61,2.79-3.19,2.86-5.57.64a27.45,27.45,0,0,0-2.84-2.56,1.87,1.87,0,0,0-1.76,0c-3.19,2.84-6.29,5.77-9.42,8.68-1.85,1.25-3.75,2.41-5.53,3.76-2,1.5-3.86,2.18-5.84.08-.67-.63-1.32-1.28-2-1.88-5.2-4.55-9.94-9.49-13.3-15.61-.36-.65-.73-1.3-1.13-2-.34.32-.58.52-.79.75-1.2,1.28-2.38,2.58-3.6,3.85-1.46,1.52-2.2,1.36-3-.62,0-.07,0-.15-.07-.23a74.54,74.54,0,0,1-4.32-22.6,9,9,0,0,0-.23-1.29,3.85,3.85,0,0,0-.58.26c-4.23,3-9.11,4.77-13.79,6.91-3.44,1.58-6.91,3.11-10.36,4.66L79,217l-7.26,1.51-4,.53c-.87,0-1.74-.09-2.61-.1a1.58,1.58,0,0,1-1.74-1.66c-.12-1.22-.34-2.43-.51-3.64l.31-4.28a5.58,5.58,0,0,0,.42-1.19c.25-2.12.45-4.24.68-6.35.09-.83-.21-1.31-1.07-1.35l-5.09-.21L55,200l-7.2-2.22c-1-.31-1.5-.89-1-2,.23-.51.4-1,.6-1.56l3.54-9.4,2.35-4.53c1.3-2.19,2.61-4.37,3.89-6.57,1-1.75,2-3.52,3.17-5.54l-8.23-1.72L47.59,165l-6.24-2.89Zm70.82-18.27,7.17-1.66c.59,1.4-.61,2.13-1.18,3.1l-6.73,6.16c-2,1.29-3.88,2.68-5.91,3.86a91.4,91.4,0,0,0-17.15,13A60.06,60.06,0,0,0,69.2,189.58c-2.35,6.56-4.22,13.21-4.34,20.24.07,2.15.16,4.3.22,6.45,0,.92.51,1.32,1.39,1.21,2.72-.33,5.47-.56,8.16-1.07,7.62-1.45,14.65-4.58,21.55-8a7.43,7.43,0,0,0,4-4.08,82.58,82.58,0,0,0,6-6.84c3.11-4.43,5.92-9.07,8.87-13.61a2.66,2.66,0,0,0,.1-2.63c-1.2-2.82-2.44-5.62-3.66-8.43L110.13,166a23.41,23.41,0,0,0-2,1.35c-1.58,1.34-3.13,2.72-4.68,4.11a22.42,22.42,0,0,0-7.22,11.74,7.54,7.54,0,0,1-1.1,2.61,11.11,11.11,0,0,1-13.12,3.41,3.73,3.73,0,0,1-2.24-3.75,11.13,11.13,0,0,1,.35-2c.44-1.56.94-3.11,1.42-4.67a17.56,17.56,0,0,1,1-1.44q2.22-2.51,4.48-5a54.86,54.86,0,0,1,12.6-10.74c1.64-1,3.17-2.13,4.75-3.2a6.28,6.28,0,0,0,1-.44c2.22-1.48,4.49-2.9,6.59-4.53a10.29,10.29,0,0,0,1.8-2.71c1.26-2.48,2.51-5,3.81-7.42a11.24,11.24,0,0,1,1.15-1.51l.33.13.26,1.36c-1.71,3.65-3.64,7.21-5.07,11-2.06,5.38-2.87,11.05-1.34,16.67a47.43,47.43,0,0,0,4.16,9.76c3.07,5.74,5.79,11.56,6.69,18.08.15,1.1.42,2.19.67,3.51,3.29-3,6.41-5.71,9.32-8.62,5.46-5.45,10.81-11,16.18-16.55a12.8,12.8,0,0,0,3.46-8.1c.34-3.91-.87-7.4-2.69-10.75-2.53-4.66-5.27-9.23-6.94-14.31-.09-.28-.61-.42-.94-.63l-2.17.72a4.6,4.6,0,0,1-3.84-.67c-1.74-1-3.52-1.83-5.28-2.74-.77-.4-1.14-.17-1.55.62a25.72,25.72,0,0,1-2.06,3,5.7,5.7,0,0,1-4.92-1.84c-1.9-1.91-3.91-3.71-5.88-5.55L114.33,134a17.43,17.43,0,0,0-5-4.15c-2.18-1.19-3-2.86-2.19-5.16a13.52,13.52,0,0,1,1.81-3.16q4.28-6.26,8.63-12.47c.49-.7.47-1.15-.24-1.68a25.16,25.16,0,0,1-3.58-2.91c-1.77-1.91-3.36-4-5-6a2.11,2.11,0,0,0-1.58-1.89c-7.23-2.75-14.37-5.85-22.22-6.37-5.31-.35-10.6.09-15.45,2.42-10,4.82-20,9.83-29.93,14.8a14,14,0,0,0-2,1.56c1.05.5,1.81.95,2.62,1.24q2.7,1,5.45,1.81a3.26,3.26,0,0,1,2.46,3.16,5.47,5.47,0,0,0,1.83,3.78c.62.56,1.2,1.17,1.81,1.75,3.92,3.78,8,7.34,13,9.77,4.73,2.31,9.38,4.77,14.61,5.84a36.07,36.07,0,0,0,17.48,1.38c3.95-.6,7.83-1.67,11.74-2.52,1.83-.4,3.62-1.25,5.57-.67.76,1.35.74,1.39-.71,1.76l-1.46.39c-4.14.18-8.92,3-9.48,5.7Zm34.56-30.5,2-2.41c-2.58-.57-4.88-1.14-7.21-1.57a10.1,10.1,0,0,0-5.77.17,1.86,1.86,0,0,0-1.94,1.72c-.65,3-1.33,6-1.93,9-.4,2-1.23,4-.7,6.09.3.5.5,1.2.94,1.45a1.66,1.66,0,0,0,1.46-.39c3.61-3.48,7.22-7,10.73-10.56A26.25,26.25,0,0,0,142.63,111.18Zm5.69,9.82c-.9,0-1.81.1-2.71.06a4.74,4.74,0,0,0-3.78,1.09,1.91,1.91,0,0,0-.1,2.44,2.1,2.1,0,0,0,1.45.94,17.33,17.33,0,0,0,3.47,0c2.58-.24,5.14-.58,7.72-.84,1.18-.12,1.5.28,1.25,1.44-.41,2-.81,4-1.22,6a5.46,5.46,0,0,0,.46,5.66c.47.69.82,1.46,1.3,2.14a1.06,1.06,0,0,1-.11,1.57c-1.81-.83-3.64-1.62-5.42-2.51s-1.65-.86-2.58,1c.15.11.34.26.54.39,2.73,1.79,5.39,3.72,8.22,5.34,6.22,3.56,12.54,3.8,18.88.17,3.15-1.8,6.34-3.55,9.5-5.32l7.65-4.31c-.19-.23-.29-.39-.43-.53-3.91-3.93-7.81-7.88-11.76-11.79a15.4,15.4,0,0,0-8.58-4.67c-1.06-.16-2.15-.2-3.2-.44A14.73,14.73,0,0,0,155.58,122a6.84,6.84,0,0,1-1.85-1.11,27.32,27.32,0,0,1-2.66-3.66,6.5,6.5,0,0,0-4.52-3.2c-2.43-.49-4.94,1.7-4.81,3.91,2,.65,3.87,1.21,5.7,1.91C147.82,120,148,120.6,148.32,121ZM122,103.7c2-.53,2.27-.41,3.13,1.48.38.83.59,1.74,1,2.56a25.5,25.5,0,0,0,1.34,2.22c1.23-3.5,1.29-3.8,5.94-4.73-2.33-5.11-4.58-10.2-7-15.2-.43-.89-1.61-1.42-2.45-2.11-1-.37-2.08-.81-3.15-1.1-1.88-.5-2.78.12-2.57,2.05.51,4.62,1.17,9.23,1.83,13.83C120.25,104.4,120.51,104.48,122,103.7Zm4.12,27.44a14.39,14.39,0,0,1,2.92-1.23c3.52-.65,7.06-1.16,10.61-1.68.78-.12,1-.45.66-1.12a16,16,0,0,0-1.59-2.91c-1.35-1.68-2.36-1.71-4.06-.4-1.48,1.14-2.91,2.37-4.47,3.41a3.31,3.31,0,0,1-4-.09,3.43,3.43,0,0,1-1.37-3.8c.51-2.09,1-4.19,1.46-6.28,1.08-4.64,1.08-4.64-1.94-7.51l-.1-.07c-.18-1-.3-2.05-.54-3.06s-.77-1.1-1.47-.5a11.14,11.14,0,0,0-2,2q-5.39,7.92-10.68,15.91a8.86,8.86,0,0,0-.63,1.88c1.56-.28,2.77-.47,4-.71,2.82-.55,3.9,0,5.09,2.65,1,2.21,1.91,4.47,3.09,6.59,1.39,2.5,3,4.9,4.58,7.28a2.24,2.24,0,0,0,1.67,1c.59-.09,1.11-.82,1.58-1.35.18-.2.14-.61.17-.92.17-1.65-.94-2.68-1.94-3.68C125.42,135,124.81,133.24,126.1,131.14Zm41-41.61a9.2,9.2,0,0,0-4,8.25c.21,3.54.55,7.07,1,10.58a9.23,9.23,0,0,1-1.94,6.93c-.4.53-.72,1.11-1.23,1.9l2-.12a24.67,24.67,0,0,1,3.3-.17c2.22.17,4.43.49,6.65.74,2.13.78,2.61.6,3.57-1.38a25.62,25.62,0,0,0,1.43-3.16,77.39,77.39,0,0,0,2.36-8.12,12.14,12.14,0,0,0-1.54-8.08c-1.55-3-3.08-5.94-4.81-8.8a2.83,2.83,0,0,0-4.25-.92C168.73,87.91,167.92,88.75,167.08,89.53Zm30-10.27,1.07-11.77c.2-2.26.32-4.54.65-6.78A21.13,21.13,0,0,1,200,57.22a4,4,0,0,0-.69,0c-5.11,1.05-10.21,2.16-15.33,3.15a23.81,23.81,0,0,0-12.2,5.92,59.08,59.08,0,0,0-8.65,11.14,6,6,0,0,0-.76,1.48q-1.41,4.69-2.74,9.41a9.9,9.9,0,0,0-.18,1.69l.49.2a8.09,8.09,0,0,0,.94-1.54c1.71-5.08,3.69-10.11,6.82-14.44,3.86-5.34,9.59-6.91,14.55-2.35l.85,1.5c1.19-1.09,2.25-2.11,3.36-3.06a1.33,1.33,0,0,1,2.22.34,33.34,33.34,0,0,1,2,3.42,32.53,32.53,0,0,1,2.94,13.57c0,1.7.28,3.4.43,5.1l.46,0c.36-1.69.75-3.38,1.08-5.08C196.06,84.9,196.57,82.08,197.1,79.26Zm-146.44.94c.73-.39,1.45-.82,2.2-1.17,3.86-1.78,8-2,12.16-2.19,3.27-.15,6.53-.52,9.8-.63a77.19,77.19,0,0,1,10.75,0,11.34,11.34,0,0,1,9.49,6.25,65.61,65.61,0,0,1,3.29,6.25c1.48,4,5.17,3.94,8.36,5.24-.08-.47-.1-.71-.17-.94A39.14,39.14,0,0,1,105,81.32a2.16,2.16,0,0,0-1.22-2.09,59.15,59.15,0,0,0-19.47-7.72,44.14,44.14,0,0,0-19.45.13c-3.74.92-7.35,2.39-11,3.57-4,1.29-8,2.52-12.4,3.89L47.1,81.9c2.35,2.55,4.65,5.15,7.07,7.64,1.52,1.57,3.19,3,4.82,4.44a2.69,2.69,0,0,0,3.23.29c2.69-1.32,5.39-2.62,8.08-3.93a12.63,12.63,0,0,1,6.21-1.5,34.66,34.66,0,0,0,4-.25l.08-.32a16,16,0,0,0-3-1c-3.31-.48-6.63-.91-10-1.21-4.94-.45-9.82-1.06-14.39-3.23A4.2,4.2,0,0,1,50.67,80.21Zm110.39,94.13a23.07,23.07,0,0,0,4.88,7.53,1.31,1.31,0,0,1,.2,2,2.25,2.25,0,0,1-.63-.29q-5.09-4.73-10.16-9.48c-.35-.33-.73-.63-1.17-1a5,5,0,0,0,.16,4.88c2.43,4.76,5.54,9.06,10.26,11.75,6.1,3.47,12.26,6.89,19.12,8.68,4.12,1.07,8.27,2,12.41,3a31.38,31.38,0,0,0,9.33,1.81,1.28,1.28,0,0,0,.93-.77,24.55,24.55,0,0,0,0-13.33c-.13-1.11-.29-2.21-.4-3.32-.91-9.93-4.79-18.71-10.4-26.81-3.48-5-8-9.16-12.25-13.46a3.16,3.16,0,0,0-.88-.61,1.71,1.71,0,0,0-2.16.46c-.65.73-.08,1.28.35,1.77,1.31,1.51,2.68,3,4,4.45,6,6.71,10,14.38,11.21,23.4.37,2.75-.32,4.08-2.81,5.1a18.6,18.6,0,0,1-3.58-.8,43,43,0,0,1-15.18-11.72,26.09,26.09,0,0,0-9.82-7c-1.89-1.19-3.76-2.4-5.68-3.54-.93-.55-1.52-.26-1.72.81a8.8,8.8,0,0,0-.26,2.49A40.84,40.84,0,0,0,161.05,174.33Zm1.44,48.27a21.7,21.7,0,0,1,.16,2.39c0,.54-.08,1.36-.42,1.56-.74.43-1.19-.28-1.59-.85a34.13,34.13,0,0,0-2.46-3.53c-3.73-4.21-7.54-8.36-11.32-12.53-4.17-4.59-6.29-10.19-7.88-16.06-.18-.65-.3-1.32-.46-2.08-1.64.91-2.44,2.08-2.09,3.74a23.38,23.38,0,0,0,1.35,4.81,62.74,62.74,0,0,0,3.83,7.32,46.41,46.41,0,0,0,5.24,7.41c5.2,5.58,10.63,11,16,16.36,2.52,2.53,3.26,2.38,5.08-.67,2.88-4.84,5.75-9.68,8.68-14.49a36.69,36.69,0,0,0,5.49-14.18,2.3,2.3,0,0,0-.14-1.49,3.22,3.22,0,0,0-1.5-1c-.1,0-.59.68-.73,1.1-.72,2.19-1.25,4.45-2.11,6.59a10.61,10.61,0,0,1-4.22,5.14c-.06-.26-.09-.41-.12-.56-.24-1.28-.15-2.77-.79-3.8a54.9,54.9,0,0,0-5.73-7.94c-3.56-3.92-7.46-7.55-11.17-11.33-.78-.79-1.23-.53-1.82.19a15.64,15.64,0,0,0-3.63,8.58c-.35,3.63,0,7.17,2.06,10.35a12.46,12.46,0,0,0,.42,1.73A29.25,29.25,0,0,0,162.49,222.6ZM122.22,51.17a14.3,14.3,0,0,1,1.37,2.32,35.25,35.25,0,0,0,3.68,7.88c1.37,2,2.22,4.4,3.4,6.56a5.72,5.72,0,0,0,1.67,1.93c2.18,1.52,4.54,2.79,6.66,4.38a16.64,16.64,0,0,1,6.51,11.32c.29,2,.53,3.91.8,5.93h3.45c1.57,0,1.81-.16,1.72-1.7-.2-3.58-.35-7.17-.74-10.73-.51-4.62-1.52-9.13-4.09-13.13-1.51-2.35-3-4.7-4.58-7a13.05,13.05,0,0,1-2.36-7.65c0-1.39-.14-2.78-.21-4.17a50.28,50.28,0,0,1,2.36-5.86c2.08-3.78,4.4-3.83,7-.4,3,3.9,4.63,8.45,6.49,12.9a35.55,35.55,0,0,1,2.37,20.17c-.9,5.18-2.12,10.31-3.15,15.47-.1.48,0,1.28.27,1.47a1.68,1.68,0,0,0,1.55-.1,3.07,3.07,0,0,0,1.29-1.69,34.21,34.21,0,0,1,3.15-10.13,14.89,14.89,0,0,0,1.64-7.41c-.23-4-.45-8-1-11.92a50.54,50.54,0,0,0-8.11-21.2c-6.46-9.62-13.29-19-20-28.44-.28-.4-.64-.74-1.11-1.29l-1.2,3.38a11.63,11.63,0,0,0-.7,1.23q-2.69,6.31-5.34,12.63c-.89,2-1.72,4-2.7,6-2,4-4.2,7.89-6.06,11.94-2.61,5.71-3.13,11.82-3,18,0,1.83.66,2.43,2.57,2.4a1.24,1.24,0,0,0,.1-.33,7.79,7.79,0,0,0,0-1.2c-.63-3.94.28-7.69,1.45-11.39.47-1.5,1-1.73,2.51-1.13C120.69,50.52,121.45,50.85,122.22,51.17ZM88.15,145.4c0-1.89-1-2.84-2.79-3.26a27.55,27.55,0,0,0-9.62-.38,15.22,15.22,0,0,0-5.72,1.5,29.46,29.46,0,0,1-11.45,3.48,45.22,45.22,0,0,0-7.91,1.66A13.41,13.41,0,0,1,40,147.86c-1.35-.69-2.74-1.31-4.13-1.89s-1.73-.25-2.1,1c-.55,1.89-.1,3.06,1.71,4.41A73.15,73.15,0,0,0,48.77,159a17.47,17.47,0,0,0,8.72,1.62,17,17,0,0,1,2.85-.17c2,.2,4,.57,6,.84a24.16,24.16,0,0,0,4,.46,45.59,45.59,0,0,0,5-.65c1.72-.25,2-.67,1.3-2.29-1-2.55-.72-3.43,1.74-4.68a25.72,25.72,0,0,0,8-6.13A20.79,20.79,0,0,0,88.15,145.4ZM195.9,149v.36a3,3,0,0,0,.58.26c1.4.3,2.8.62,4.22.85,3.89.63,7.78,1.24,11.68,1.8,1,.15,2.08,0,3.11.11,2.14.23,3.67,1.62,5.25,2.92a25.26,25.26,0,0,1,8.36,12c1.12,3.52-.75,6-4.43,6.07a41.74,41.74,0,0,0-7.72.7,6.48,6.48,0,0,1-6.27-1.61c-.8-.73-1.73-1.32-2.81-2.13,0,2.57.07,4.81,0,7a17.49,17.49,0,0,0,2.36,9c.54,1,1.24,1.42,2.33.88,4.73-2.32,9.56-4.46,14.14-7a8.51,8.51,0,0,1,8-.65c1.93.79,4,1.32,6,2l.22-.26a6.43,6.43,0,0,0-.54-1.09,41.6,41.6,0,0,1-5.26-9.92c-2-5.14-4.49-10-8.5-13.89a53.44,53.44,0,0,0-11.63-8.18,2.3,2.3,0,0,0-1.14-.3c-2.39.1-4.78.25-7.17.37s-5,.21-7.49.35C198,148.7,197,148.85,195.9,149Zm34.41-15.15c-.69-.35-1.07-.56-1.45-.73-8-3.64-16.47-6-24.82-8.65-3.16-1-5.86.34-8.47,1.89a1.78,1.78,0,0,0-.58.74,4.05,4.05,0,0,0,.88,5.12,8.54,8.54,0,0,1,1,1.16,17.82,17.82,0,0,0,5.25,4.82,12.76,12.76,0,0,0,8.72,2.28c2.33-.3,4.67-.46,7-.71,3.53-.37,7-1.09,9.85-3.3A26.67,26.67,0,0,0,230.31,133.8Zm-44.85-21.86c.94-.12,1.59-.19,2.24-.29a32,32,0,0,0,9-2.27,32.52,32.52,0,0,0,14.06-13,7.16,7.16,0,0,0,.93-4.85,2,2,0,0,0-2.39-2,11.13,11.13,0,0,0-2.68.54,13.69,13.69,0,0,1-8.69.32,1.1,1.1,0,0,0-1.52.72,10.94,10.94,0,0,0-.4,1.13,50.25,50.25,0,0,1-7.41,15.08C187.56,108.8,186.61,110.27,185.45,111.94Zm-79-33.52.32.07c.11-.36.25-.72.34-1.09.59-2.52,1.14-5.05,1.76-7.57.32-1.33.94-1.49,1.87-.49a20.58,20.58,0,0,1,1.74,2.28,2,2,0,0,0,2.57.93,12.28,12.28,0,0,1,1.33-.53c1.3-.3,2.7-1,3.91-.72,5.22,1.05,9.71,3.77,14,6.79a4.27,4.27,0,0,1,1.18,1.18c2.34,3.79,5,7.43,5.68,12a1.37,1.37,0,0,0,2.38.79,3,3,0,0,0,.65-2c-.08-1.55-.41-3.08-.61-4.62-.42-3.28-1.3-6.41-3.92-8.63a48.22,48.22,0,0,0-6.73-5,45.74,45.74,0,0,0-13-4.68,99.15,99.15,0,0,1-10.4-3.56c-1-.36-2-.74-3.09-1.13Zm78.41,35.93,0,.61a28,28,0,0,0,2.88.27c2.44,0,4.87-.11,7.31-.16,4.83-.09,9.67-.13,14.5-.25a39.73,39.73,0,0,1,20.51,4.71c6,3.28,12,6.71,19.13,7.11.67,0,1.34,0,2.14,0-.17-.35-.18-.45-.24-.48a49.85,49.85,0,0,0-4.34-2.68c-7.77-3.83-15.55-7.64-23.38-11.34a12.09,12.09,0,0,0-4.59-1.16,116.06,116.06,0,0,0-28.14,1.91C188.71,113.31,186.78,113.86,184.83,114.34ZM139.79,239c1.11-.94,2.41-2,3.64-3.09s2.47-2.15,2.73-3.83a12.54,12.54,0,0,0-1.22-8.48c-3-5-7.5-8.2-12.78-10.38-1.33-.55-2,.09-2,1.59a25.07,25.07,0,0,0,3,11.23C135.26,230.36,137.49,234.59,139.79,239ZM49.24,194.67a9.71,9.71,0,0,0,1.58.26c4.23-.07,8.45-.12,12.67-.26,2.11-.07,3.12-1,3.26-2.93.22-3,.33-6,.55-9.06.14-2-.67-2.79-2.69-2.79a14.69,14.69,0,0,0-12.21,7A68.52,68.52,0,0,0,49.24,194.67ZM199.58,74.24c2.07-.21,4.08-.33,6.07-.63A6.44,6.44,0,0,1,212.24,76,22.58,22.58,0,0,0,217,81a5.65,5.65,0,0,1,1.42,2.41,12,12,0,0,1,.44,2.3,7.74,7.74,0,0,0,.48-1.15c1-5.31,2.4-10.57,2.22-16.06-.1-2.85,0-2.89-2.77-2.67-5.81.46-11.56,1.15-17,3.54a2.85,2.85,0,0,0-2,2.47C199.72,72.58,199.66,73.32,199.58,74.24ZM158.16,229.13l0-.64c-.5-.39-1-.74-1.51-1.17a1.25,1.25,0,0,0-1.91,0c-2.06,2-4.07,4.06-6.17,6-2.62,2.45-5.29,4.85-8,7.25a1,1,0,0,1-1.66-.1c-1-1.16-2.21-2.21-3.17-3.43-2-2.54-3.73-5.3-5.85-7.73-7.28-8.34-10.68-18.28-12.36-29-.17-1.06-.34-2.13-.51-3.19l-.47-.11c-.38.45-1,.88-1.08,1.36a18.16,18.16,0,0,0,.08,4.18,66.13,66.13,0,0,0,5.15,17.25c2.48,5.54,5.34,10.82,9.92,15q4.21,3.82,8.39,7.68a1.64,1.64,0,0,0,2.28.12c1.63-1.14,3.31-2.23,4.85-3.48C150.24,235.81,154.19,232.45,158.16,229.13ZM102.75,76.31c0-.55,0-1.1,0-1.65-.23-2.5-.47-5-.74-7.5a31.06,31.06,0,0,1,1.49-13.92,88.92,88.92,0,0,1,11.68-22.33A3.65,3.65,0,0,1,120,29.39c1.43.49,1.83.31,2.34-1.11.15-.4.27-.82.44-1.33-2-.87-3.91-1.74-5.86-2.53-.22-.09-.73.19-.92.44q-3,4.08-6,8.21c-3.13,4.34-5.19,9.26-7.48,14.05-1.75,3.67-3.21,7.4-3,11.57.11,2.79.12,5.59.33,8.38.19,2.46.56,4.91.91,7.35A2,2,0,0,0,102.75,76.31Zm36.8,66.59.16.22a28.17,28.17,0,0,0,4.52-2.31,23.54,23.54,0,0,0,7.26-9.22c.41-.91,1-2.07.1-2.78a4.23,4.23,0,0,0-2.92-.84c-5,.71-10.07,1.59-15.09,2.46-1.76.31-3.52.7-5.24,1.16-1.29.35-1.87,1.45-1.14,2.35a25.06,25.06,0,0,0,4.46,4.75,58.59,58.59,0,0,0,7,3.86A6.89,6.89,0,0,0,139.55,142.9Zm16.25-24.47.28.19c.61-.49,1.24-.94,1.81-1.46,3-2.73,5-5.74,4.45-10.14-.57-4.58-.69-9.22-1-13.84-.09-1.39-.22-1.55-1.55-1.38l-17.08,2.13c-2.7.34-4.93,1.33-5.91,4.13a4.44,4.44,0,0,0,.09,3.84c.51-.81,1-1.52,1.41-2.22a5.41,5.41,0,0,1,4.15-2.7c4.2-.44,8.4-.92,12.58-1.49,1.14-.16,1.54.29,1.73,1.24.53,2.57,1.12,5.14,1.58,7.72.81,4.54.5,8.91-2.18,12.87A4.38,4.38,0,0,0,155.8,118.42ZM59,132.34a5.28,5.28,0,0,0-.61-.8c-2.18-1.68-4.35-3.39-6.59-5a2.37,2.37,0,0,0-1.77-.27,22.53,22.53,0,0,0-3.93,1.39,62.29,62.29,0,0,0-14.84,10.24c-2.14,1.92-4.31,3.8-6.46,5.72-.59.53-1.07,1.16-.58,2s1.2,1.85,1.9,2.93c2.86-3,5.59-5.83,8.35-8.65a42.78,42.78,0,0,1,4.8-4.66c4.42-3.28,9.34-4.76,14.88-3.51C55.69,132.06,57.23,132.12,59,132.34ZM164.54,70.48a4.2,4.2,0,0,0,.77-.61c1.51-2.11,3.06-4.19,4.46-6.37a4.63,4.63,0,0,0,.65-2.49c-.06-2.43-.21-4.86-.51-7.27a7.53,7.53,0,0,0-3.62-5.66c-1.13-.71-1.71-.53-2.29.63-1.4,2.78-2.21,5.64-1.18,8.75a5,5,0,0,1,.19.93C163.52,62.35,164,66.3,164.54,70.48ZM177.68,45.7l.2-.15a3.36,3.36,0,0,0-.14-.65c-.7-1.61-1.31-3.27-2.16-4.8-2.78-5-5.66-9.91-8.51-14.85-.52-.9-1.19-.87-2-.32A61.38,61.38,0,0,0,153.84,34c-.59.64-.91,1.11-.23,1.92s1.33.65,2,.09c1.8-1.45,3.63-2.87,5.41-4.35,1.45-1.2,2.23-1.27,3.49.06,4.14,4.37,8.24,8.79,12.36,13.19C177.14,45.21,177.41,45.45,177.68,45.7Zm-65.31,155a2.93,2.93,0,0,0-1.2,2.62c-.23,6.61,1.22,13,2.75,19.33a5.24,5.24,0,0,0,.62,1.17h.38a4.31,4.31,0,0,0,.53-1.44,36,36,0,0,0-.35-4.88c-.53-3.26-1.24-6.49-1.79-9.74C112.92,205.48,112.69,203.16,112.37,200.73Z"/><path class="cls-2" d="M37.25,159.94l4.1,2.15c-.34,2.78-1.17,5.48-.79,8.38.65,4.84,1,9.72,1.47,14.59a59.3,59.3,0,0,0,3.43,15.58q2.39,6.37,5.19,12.59a55.69,55.69,0,0,0,3.54,6C57,223.8,60,228.28,64,231.94c2,1.79,3.86,3.71,5.93,5.39A42.14,42.14,0,0,0,76.48,242c5.06,2.71,10.2,5.31,15.46,7.61,4.19,1.84,8.57,3.24,12.92,4.69,1.21.4,2.66.06,3.88.44a62.3,62.3,0,0,0,13.4,2.17c2.14.18,4.3.24,6.42.58a32.36,32.36,0,0,0,10.72,0c4.54-.79,9.05-1.81,13.5-3a79,79,0,0,0,28.47-14c3.63-2.86,7.25-5.75,10.69-8.82a100.32,100.32,0,0,0,7.93-8c3.4-3.81,5.76-8.33,8-12.87,3.15-6.36,6.29-12.74,7.46-19.85l4-.93c-1.51,4.2-2.82,8.49-4.56,12.59-2.54,6-5.16,11.95-8.19,17.68a40.66,40.66,0,0,1-12.07,13.64c-6.2,4.58-12.52,9-18.82,13.44-8.06,5.69-17.16,8.91-26.65,11.22a67.67,67.67,0,0,1-28.41.68,77,77,0,0,0-8.22-.79,62.5,62.5,0,0,1-19.18-4.87,104.31,104.31,0,0,1-21.72-11.84A70.64,70.64,0,0,1,49.28,216a96.12,96.12,0,0,1-10-30.83c-.44-3.32-.54-6.69-.81-10Q37.88,167.52,37.25,159.94Z"/><path class="cls-3" d="M215.34,190.89c-1.17,7.11-4.31,13.49-7.46,19.85-2.25,4.54-4.61,9.06-8,12.87a100.32,100.32,0,0,1-7.93,8c-3.44,3.08-7.06,6-10.69,8.82a79,79,0,0,1-28.47,14c-4.44,1.22-9,2.24-13.5,3a32.36,32.36,0,0,1-10.72,0c-2.11-.34-4.27-.4-6.42-.58a62.3,62.3,0,0,1-13.4-2.17c-1.22-.38-2.67,0-3.88-.44-4.35-1.45-8.73-2.85-12.92-4.69-5.26-2.31-10.4-4.9-15.46-7.61A42.14,42.14,0,0,1,70,237.33c-2.07-1.68-3.95-3.6-5.93-5.39-4.05-3.65-7-8.14-9.86-12.74a55.69,55.69,0,0,1-3.54-6q-2.81-6.2-5.19-12.59A59.3,59.3,0,0,1,42,185.07c-.44-4.87-.82-9.75-1.47-14.59-.39-2.9.45-5.6.79-8.38L47.59,165a4.85,4.85,0,0,0,0,.6c.55,3.4,1.08,6.8,1.67,10.19.53,3,1.12,6.07,1.69,9.1l-3.54,9.4c-.2.52-.37,1.06-.6,1.56-.49,1.09,0,1.67,1,2L55,200a37.84,37.84,0,0,1,2.11,4.33,21.74,21.74,0,0,0,5.75,9.29c.17,1.21.39,2.42.51,3.64a1.58,1.58,0,0,0,1.74,1.66c.87,0,1.74.06,2.61.1A17.61,17.61,0,0,1,69,220.5c2.16,3.16,4.23,6.37,6.45,9.49a18.3,18.3,0,0,0,7.78,6.57,120.53,120.53,0,0,0,11.53,4,24.65,24.65,0,0,1,10,5.12,16.16,16.16,0,0,0,13.58,3.93,56.54,56.54,0,0,1,12.47-.63c1.15.1,2.29.28,3.43.43,1.85.25,3.7.63,5.55.73a27.37,27.37,0,0,0,15.32-3.89,23.21,23.21,0,0,1,8.47-3c2.72-.38,5.32-1,7.38-3,1.29-1.25,2.61-2.47,3.94-3.68,2.39-2.17,4.73-4.4,7.67-5.87a32.32,32.32,0,0,0,10.55-8.83,119.93,119.93,0,0,0,7.23-10,68.35,68.35,0,0,0,3.49-6.79c.78.14,1.56.25,2.34.42s1.4,0,1.53-1.07c.33-2.56.78-5.1,1.16-7.66C209.54,192,210.55,191.12,215.34,190.89Z"/><path class="cls-4" d="M108.74,98.44c1.66,2,3.25,4.09,5,6a25.16,25.16,0,0,0,3.58,2.91c.71.53.73,1,.24,1.68q-4.35,6.21-8.63,12.47a13.52,13.52,0,0,0-1.81,3.16c-.77,2.3,0,4,2.19,5.16a17.43,17.43,0,0,1,5,4.15l-.28.53c-2-.59-3.74.27-5.57.67-3.91.85-7.79,1.92-11.74,2.52a36.08,36.08,0,0,1-17.48-1.38c1.25-.21,2.49-.46,3.74-.64,4.79-.68,9.35-2,13.33-4.84.76-.55,1.43-1.23,2.13-1.85l-.2-.3a11,11,0,0,1-1.33.42,55,55,0,0,1-6,1,27.36,27.36,0,0,1-12.91-2.44c-5.78-2.5-11.26-5.42-14.49-11.3a14.3,14.3,0,0,1-1.78-10.1,4.76,4.76,0,0,1,.83-1.36l.35,1.51c.68,2.94,2.88,4.23,5.77,3.31a16,16,0,0,0,2.53-1.07,10.06,10.06,0,0,1,10.16.09,54.83,54.83,0,0,0,6.15,2.93,14.55,14.55,0,0,0,10.75.44c1.49-.54,2.7-1.52,2.73-3.16.05-3.08-.88-6-3.51-7.75a25.43,25.43,0,0,0-9.45-3.94c-2.93-.57-5.91-.87-8.86-1.3a3.72,3.72,0,0,1,.76-.39,30,30,0,0,1,7.66-.53,69.06,69.06,0,0,1,14.48,1.87C104.34,97.42,106.54,97.94,108.74,98.44Z"/><path class="cls-5" d="M79,217l5.29-1.66a6,6,0,0,0,1.24.23c2.35-.05,4.7-.22,7-.19a4.44,4.44,0,0,1,2.26.82,40.82,40.82,0,0,1,3.86,3c1.65,1.43,3.26,2.9,4.8,4.44,2.1,2.1,3.71,4.66,6.41,6.18,2.26,1.27,4.52,2.52,7.19,2a5.63,5.63,0,0,1,4.44,1.18c4,2.78,7.94,5.59,12,8.28a27.73,27.73,0,0,0,3.92,1.84c2,2.1,3.85,1.42,5.84-.08,1.77-1.34,3.68-2.51,5.53-3.76,1-.16,2-.25,2.92-.5a22.76,22.76,0,0,1,7.38-1.17c1.7.12,3.42.12,5.12.26a6.94,6.94,0,0,0,6.33-3.16c3.78-5,7.45-10.1,11.22-15.12a13.2,13.2,0,0,1,6.53-4.86,30,30,0,0,0,9-4.47,24.16,24.16,0,0,1-1.58,4.46,29.41,29.41,0,0,1-11.47,10.71,30.85,30.85,0,0,0-8.37,6.08c-1.89,2.11-4,4-6,6a8.28,8.28,0,0,1-5.76,2.48,20.25,20.25,0,0,0-8.66,2.39c-2.58,1.4-5.2,2.77-7.89,3.92-2.89,1.24-5.88,2.26-9.13,1.59-.93-.19-1.87-.34-2.81-.48-3.29-.48-6.59-1-9.89-1.39a20.16,20.16,0,0,0-4.51-.21,20.15,20.15,0,0,1-10.83-1.56c-3.32-1.55-6.56-3.29-9.86-4.89a19,19,0,0,0-2.58-.84,4.52,4.52,0,0,0-.52-1.13A19.28,19.28,0,0,1,93.58,231,17.33,17.33,0,0,0,83.4,220,27.56,27.56,0,0,1,79,217Z"/><path class="cls-6" d="M81.58,178.83c-.48,1.56-1,3.1-1.42,4.67a11.13,11.13,0,0,0-.35,2,3.73,3.73,0,0,0,2.24,3.75,11.11,11.11,0,0,0,13.12-3.41,7.54,7.54,0,0,0,1.1-2.61,22.42,22.42,0,0,1,7.22-11.74c1.55-1.38,3.1-2.76,4.68-4.11a23.41,23.41,0,0,1,2-1.35l1.32,6.79a5.5,5.5,0,0,0-.72,1c-1,2.52-1.89,5.08-2.95,7.58-1.53,3.64-3.71,6.8-7.27,8.74-2.59,1.41-5.27,2.66-7.87,4.06a5.43,5.43,0,0,0-3.07,4.42c-.33,3.29,3.19,6.07,6,6.08,1.54,0,3.08-.27,4.62-.42a7.43,7.43,0,0,1-4,4.08c-6.9,3.42-13.92,6.56-21.55,8-2.69.51-5.44.73-8.16,1.07-.87.11-1.36-.29-1.39-1.21-.06-2.15-.15-4.3-.22-6.45A4.81,4.81,0,0,0,67.65,207c1-2.46,1.93-5,2.7-7.51a61.83,61.83,0,0,1,8.5-18.09A19.23,19.23,0,0,1,81.58,178.83Z"/><path class="cls-7" d="M62.61,104.92a4.76,4.76,0,0,0-.83,1.36,14.3,14.3,0,0,0,1.78,10.1c3.24,5.89,8.71,8.8,14.49,11.3A27.36,27.36,0,0,0,91,130.11a55,55,0,0,0,6-1,11,11,0,0,0,1.33-.42l.2.3c-.71.62-1.37,1.3-2.13,1.85-4,2.88-8.54,4.16-13.33,4.84-1.25.18-2.49.42-3.74.64-5.22-1.07-9.88-3.53-14.61-5.84-5-2.43-9-6-13-9.77-.6-.58-1.18-1.19-1.81-1.75a5.47,5.47,0,0,1-1.83-3.78A3.26,3.26,0,0,0,45.6,112q-2.74-.84-5.45-1.81c-.81-.29-1.57-.74-2.62-1.24a14,14,0,0,1,2-1.56c10-5,19.9-10,29.93-14.8,4.85-2.33,10.14-2.77,15.45-2.42,7.85.52,15,3.62,22.22,6.37a2.11,2.11,0,0,1,1.58,1.89c-2.2-.51-4.4-1-6.6-1.51a69.06,69.06,0,0,0-14.48-1.87,30,30,0,0,0-7.66.53,3.72,3.72,0,0,0-.76.39l-.45,0-.31-.06c-1,.1-2,.14-3,.31a31,31,0,0,0-10.3,4.29A5,5,0,0,0,62.61,104.92Z"/><path class="cls-7" d="M196.14,201.44c-4.14-1-8.29-1.93-12.41-3-6.87-1.79-13-5.2-19.12-8.68-4.73-2.69-7.83-7-10.26-11.75a5,5,0,0,1-.16-4.88c.44.38.82.69,1.17,1q5.08,4.74,10.16,9.48a2.25,2.25,0,0,0,.63.29c.11.2.16.48.32.6a29.63,29.63,0,0,0,10.09,5.11c2.13.51,4.3,1.32,6.6.35a3.7,3.7,0,0,0-1.84-2.91c-2.79-2.19-5.62-4.32-8.36-6.57-1.33-1.09-1.59-2.24-1-3.1s1.66-.92,3.18-.27c2,.86,4,1.76,6,2.65a19.14,19.14,0,0,0,8.79,1.94c1.18-.06,2.65.06,3.14-1.56,2.49-1,3.17-2.36,2.81-5.1-1.2-9-5.21-16.68-11.21-23.4-1.33-1.49-2.7-2.95-4-4.45-.43-.49-1-1-.35-1.77a1.71,1.71,0,0,1,2.16-.46,3.16,3.16,0,0,1,.88.61c4.29,4.3,8.77,8.43,12.25,13.46,5.61,8.1,9.5,16.88,10.4,26.81.1,1.11.26,2.21.4,3.32a3.54,3.54,0,0,0-.45.36c-1.35,1.5-2.83,2.62-5.06,2.34a23.58,23.58,0,0,0-4.07,0c-2.09.1-2.63,1-1.64,2.79A9.41,9.41,0,0,1,196.14,201.44Z"/><path class="cls-7" d="M142.87,143.37c.32.21.84.35.94.63,1.67,5.09,4.4,9.65,6.94,14.31,1.82,3.36,3,6.85,2.69,10.75a12.8,12.8,0,0,1-3.46,8.1c-5.36,5.54-10.72,11.1-16.18,16.55-2.91,2.9-6,5.59-9.32,8.62-.26-1.32-.52-2.41-.67-3.51-.9-6.52-3.62-12.34-6.69-18.08A47.43,47.43,0,0,1,113,171c-1.53-5.62-.71-11.29,1.34-16.67,1.43-3.75,3.36-7.31,5.07-11A4,4,0,0,1,122.2,147a24.12,24.12,0,0,1-.23,2.57c-1.91,2.32-2.53,5.21-3.43,8a20.73,20.73,0,0,0-.81,11.44,58.44,58.44,0,0,0,3.35,9.05A14.85,14.85,0,0,0,128,185.1a4.44,4.44,0,0,0,1.93.48,13.31,13.31,0,0,0,9.23-3.37c1.76-1.5,3.43-3.12,5-4.77,4.11-4.21,5-9.27,3.7-14.85a2.87,2.87,0,0,0-2.69-2.33c.09.51.19,1,.26,1.49a9.45,9.45,0,0,1,.24,1.88A11.77,11.77,0,0,1,135.59,175a10.43,10.43,0,0,1-3.08.1c-3.37-.43-5.63-2.61-7.66-5.11.1-.91.14-1.83.33-2.72.48-2.28,1.79-3.28,4.15-3.28,1.8,0,3.6.09,5.39,0a9.75,9.75,0,0,0,3.45-.79A9.53,9.53,0,0,0,144,154C143.94,150.46,143.27,146.92,142.87,143.37Z"/><path class="cls-6" d="M139.51,47.1c.08,1.39.23,2.78.21,4.17a13.05,13.05,0,0,0,2.36,7.65c1.56,2.32,3.07,4.67,4.58,7,2.57,4,3.58,8.51,4.09,13.13.39,3.56.54,7.15.74,10.73.09,1.53-.15,1.7-1.72,1.7h-3.45c-.27-2-.51-4-.8-5.93A16.64,16.64,0,0,0,139,74.25c-2.12-1.59-4.48-2.87-6.66-4.38a5.72,5.72,0,0,1-1.67-1.93c-1.18-2.17-2-4.53-3.4-6.56a35.25,35.25,0,0,1-3.68-7.88,14.3,14.3,0,0,0-1.37-2.32,20.53,20.53,0,0,1,0-3.35c.4-2.38.86-4.75,1.49-7.08s1.71-4.39,2.15-6.66a14.73,14.73,0,0,0-.84-8.18q2.67-6.32,5.34-12.63a11.63,11.63,0,0,1,.7-1.23c.1.07.23.11.29.2,2.55,3.69,5.11,7.37,7.61,11.08A7.62,7.62,0,0,1,140.28,26a10.73,10.73,0,0,1-.21,2.89A23.52,23.52,0,0,0,132.35,18c-1.56-1.22-2.43-.9-2.94,1-.69,2.58-1.32,5.17-1.85,7.78-.45,2.16.19,3.43,1.63,4.38a5.17,5.17,0,0,1,1.89,2c1,2.29,2.46,3.59,5.08,3.16a14.14,14.14,0,0,0,.28,8.64C137,46.54,137.8,47.07,139.51,47.1Z"/><path class="cls-6" d="M88.15,145.4a20.79,20.79,0,0,1-1.7,2.57,25.72,25.72,0,0,1-8,6.13c-2.45,1.25-2.78,2.13-1.74,4.68.66,1.62.42,2-1.3,2.29a45.59,45.59,0,0,1-5,.65,24.16,24.16,0,0,1-4-.46c-2-.28-4-.64-6-.84a17,17,0,0,0-2.85.17A17.47,17.47,0,0,1,48.77,159a73.15,73.15,0,0,1-13.3-7.57c-1.81-1.35-2.26-2.53-1.71-4.41.38-1.3.85-1.57,2.1-1s2.78,1.21,4.13,1.89a13.41,13.41,0,0,0,10.66.54,45.22,45.22,0,0,1,7.91-1.66A29.46,29.46,0,0,0,70,143.27a15.22,15.22,0,0,1,5.72-1.5,27.55,27.55,0,0,1,9.62.38C87.18,142.56,88.17,143.51,88.15,145.4Z"/><path class="cls-7" d="M155.58,122a14.73,14.73,0,0,1,13.32-3.21c1,.23,2.13.28,3.2.44a15.4,15.4,0,0,1,8.58,4.67c3.94,3.9,7.84,7.85,11.76,11.79.13.13.24.3.43.53l-7.65,4.31c-3.17,1.78-6.35,3.52-9.5,5.32-6.34,3.63-12.66,3.38-18.88-.17-2.83-1.62-5.49-3.55-8.22-5.34-.2-.13-.39-.28-.54-.39.93-1.87.94-1.83,2.58-1s3.61,1.68,5.42,2.51c2.3.72,3.32-.08,3.52-1.94a27.42,27.42,0,0,0-.08-4.4c-.11-2-.86-4,.41-5.91a17.62,17.62,0,0,0,2.23-.33,2,2,0,0,0,1.52-2.37,3.81,3.81,0,0,0-2.62-2.86c-1.88-.46-3.79-.79-5.68-1.18Zm28.51,11.47a4,4,0,0,0-1.57-2.57c-2-1.69-3.88-3.44-5.81-5.18a6.17,6.17,0,0,0-4.27-1.91,5.5,5.5,0,0,0-3.19.91c-1,.81-.11,2,.31,3,.75,1.72,1.55,3.41,2.33,5.11-.57,1.39-1.08,2.8-1.73,4.16-.73,1.55-1.63,3-2.36,4.57a2.45,2.45,0,0,0,.53,3,2.19,2.19,0,0,0,2.65.29,36,36,0,0,0,10.27-6.23C182.68,137.25,184.47,135.88,184.09,133.46Z"/><path class="cls-8" d="M152.21,207.66c-2-3.18-2.41-6.72-2.06-10.35a15.64,15.64,0,0,1,3.63-8.58c.59-.72,1-1,1.82-.19,3.72,3.78,7.61,7.41,11.17,11.33a54.9,54.9,0,0,1,5.73,7.94c.64,1,.55,2.52.79,3.8,0,.15.06.3.12.56a10.61,10.61,0,0,0,4.22-5.14c.86-2.13,1.39-4.4,2.11-6.59.14-.42.63-1.14.73-1.1a3.22,3.22,0,0,1,1.5,1,2.3,2.3,0,0,1,.14,1.49A36.69,36.69,0,0,1,176.61,216c-2.93,4.81-5.8,9.65-8.68,14.49-1.81,3-2.56,3.2-5.08.67-5.38-5.41-10.82-10.78-16-16.36a46.41,46.41,0,0,1-5.24-7.41,62.74,62.74,0,0,1-3.83-7.32,23.38,23.38,0,0,1-1.35-4.81c-.34-1.65.45-2.83,2.09-3.74.17.76.29,1.43.46,2.08,1.59,5.86,3.71,11.46,7.88,16.06,3.79,4.17,7.59,8.32,11.32,12.53a34.13,34.13,0,0,1,2.46,3.53c.39.58.85,1.28,1.59.85.34-.2.4-1,.42-1.56a21.73,21.73,0,0,0-.16-2.39,8.93,8.93,0,0,0,2.06-1.73c2.9-4.58,4.32-9.45,2.56-14.87a13.88,13.88,0,0,0-7-8.54c-3-1.53-5.34-.51-6.31,2.68-.16.53-.28,1.08-.4,1.62C153,203.73,152.62,205.7,152.21,207.66Z"/><path class="cls-9" d="M98,238.62a19,19,0,0,1,2.58.84c3.3,1.6,6.54,3.34,9.86,4.89a20.15,20.15,0,0,0,10.83,1.56,20.16,20.16,0,0,1,4.51.21c3.3.41,6.59.91,9.89,1.39.94.14,1.88.29,2.81.48,3.26.68,6.24-.35,9.13-1.59,2.7-1.15,5.31-2.52,7.89-3.92a20.25,20.25,0,0,1,8.66-2.39,8.28,8.28,0,0,0,5.76-2.48c2-2,4.1-3.93,6-6a30.85,30.85,0,0,1,8.37-6.08,29.41,29.41,0,0,0,11.47-10.71,24.16,24.16,0,0,0,1.58-4.46L199,204l4.8,1a68.33,68.33,0,0,1-3.49,6.79,119.93,119.93,0,0,1-7.23,10,32.32,32.32,0,0,1-10.55,8.83c-2.94,1.47-5.28,3.7-7.67,5.87-1.33,1.21-2.65,2.42-3.94,3.68-2.06,2-4.66,2.63-7.38,3a23.21,23.21,0,0,0-8.47,3,27.37,27.37,0,0,1-15.32,3.89c-1.86-.1-3.7-.48-5.55-.73-1.14-.15-2.28-.33-3.43-.43a56.54,56.54,0,0,0-12.47.63,16.16,16.16,0,0,1-13.58-3.93,24.65,24.65,0,0,0-10-5.12,120.53,120.53,0,0,1-11.53-4A18.3,18.3,0,0,1,75.45,230c-2.21-3.12-4.29-6.33-6.45-9.49A17.61,17.61,0,0,0,67.76,219l4-.53a13.21,13.21,0,0,0,.76,1.46c1.7,2.5,3.55,4.91,5.12,7.49a19.77,19.77,0,0,0,11.21,8.61C91.83,237.05,94.93,237.78,98,238.62Z"/><path class="cls-10" d="M139.51,47.1c-1.7,0-2.55-.56-3.06-2.1a14.14,14.14,0,0,1-.28-8.64,12.45,12.45,0,0,0,1.19-1.16c1.47-1.86,2.68-3.83,2.72-6.31a10.73,10.73,0,0,0,.21-2.89A7.62,7.62,0,0,0,139,23.34c-2.51-3.72-5.07-7.39-7.61-11.08-.06-.09-.19-.13-.29-.2l1.2-3.38c.48.54.83.89,1.11,1.29,6.68,9.47,13.51,18.83,20,28.44a50.54,50.54,0,0,1,8.11,21.2c.56,3.94.79,7.94,1,11.92a14.89,14.89,0,0,1-1.64,7.41,34.21,34.21,0,0,0-3.15,10.13,3.07,3.07,0,0,1-1.29,1.69,1.68,1.68,0,0,1-1.55.1c-.29-.19-.37-1-.27-1.47,1-5.16,2.25-10.29,3.15-15.47a35.55,35.55,0,0,0-2.37-20.17c-1.86-4.45-3.52-9-6.49-12.9-2.61-3.42-4.93-3.38-7,.4A50.28,50.28,0,0,0,139.51,47.1Z"/><path class="cls-8" d="M195.9,149c1.07-.11,2.13-.25,3.2-.31,2.5-.14,5-.23,7.49-.35s4.78-.27,7.17-.37a2.3,2.3,0,0,1,1.14.3,53.44,53.44,0,0,1,11.63,8.18c4,3.89,6.48,8.75,8.5,13.89a41.6,41.6,0,0,0,5.26,9.92,6.43,6.43,0,0,1,.54,1.09l-.22.26c-2-.65-4-1.19-6-2a8.51,8.51,0,0,0-8,.65c-4.59,2.57-9.42,4.71-14.14,7-1.09.53-1.79.14-2.33-.88a17.49,17.49,0,0,1-2.36-9c.09-2.23,0-4.47,0-7,1.08.81,2,1.4,2.81,2.13A6.48,6.48,0,0,0,217,174a41.74,41.74,0,0,1,7.72-.7c3.68-.11,5.55-2.55,4.43-6.07a25.26,25.26,0,0,0-8.36-12c-1.58-1.3-3.11-2.68-5.25-2.92-1-.11-2.09,0-3.11-.11-3.9-.56-7.79-1.17-11.68-1.8-1.42-.23-2.82-.55-4.22-.85a3,3,0,0,1-.58-.26Z"/><path class="cls-11" d="M122,149.56a24.12,24.12,0,0,0,.23-2.57,4,4,0,0,0-2.82-3.63l-.26-1.36-.33-.13a11.24,11.24,0,0,0-1.15,1.51c-1.3,2.46-2.54,4.95-3.81,7.42a4.94,4.94,0,0,1-.24-1.22c.13-2.15.31-4.3.47-6.45.57-1,1.77-1.69,1.18-3.1.05-2,.6-2.88,1.93-3.16,2,1.84,4,3.64,5.88,5.55a5.71,5.71,0,0,0,4.92,1.84c1,2.78,2.05,5.56,3.16,8.31a1.88,1.88,0,0,0,1.2,1,5.22,5.22,0,0,0,4.54-1.23c2.48-2.22,3.21-5.2,3.83-8.26l2.17-.72c.4,3.55,1.07,7.09,1.11,10.64a9.53,9.53,0,0,1-5.81,9.15,9.75,9.75,0,0,1-3.45.79c-1.79.13-3.59,0-5.39,0-2.37,0-3.67,1-4.15,3.28-.19.89-.22,1.81-.33,2.72a12.73,12.73,0,0,1-3.69-11c.33-2.63,1.11-5.21,1.67-7.81C123,150.41,123.21,149.59,122,149.56Z"/><path class="cls-12" d="M137.44,243.16a27.73,27.73,0,0,1-3.92-1.84c-4-2.69-8-5.51-12-8.28a5.63,5.63,0,0,0-4.44-1.18c-2.68.48-4.93-.77-7.19-2-2.7-1.52-4.31-4.08-6.41-6.18-1.54-1.54-3.16-3-4.8-4.44a40.82,40.82,0,0,0-3.86-3,4.44,4.44,0,0,0-2.26-.82c-2.35,0-4.7.13-7,.19a6,6,0,0,1-1.24-.23c3.46-1.55,6.92-3.08,10.36-4.66,4.68-2.14,9.56-3.88,13.79-6.91a3.85,3.85,0,0,1,.58-.26,9,9,0,0,1,.23,1.29,74.54,74.54,0,0,0,4.32,22.6c0,.08,0,.15.07.23.77,2,1.51,2.15,3,.62,1.22-1.27,2.4-2.57,3.6-3.85.22-.23.46-.43.79-.75.4.72.77,1.37,1.13,2,3.36,6.12,8.1,11.06,13.3,15.61C136.12,241.88,136.77,242.53,137.44,243.16Z"/><path class="cls-13" d="M193.05,180.14c-.49,1.63-2,1.5-3.14,1.56a19.14,19.14,0,0,1-8.79-1.94c-2-.89-4-1.78-6-2.65-1.52-.65-2.65-.53-3.18.27s-.3,2,1,3.1c2.74,2.25,5.57,4.38,8.36,6.57a3.7,3.7,0,0,1,1.84,2.91c-2.3,1-4.47.16-6.6-.35a29.63,29.63,0,0,1-10.09-5.11c-.17-.12-.22-.39-.32-.6a1.31,1.31,0,0,0-.2-2,23.07,23.07,0,0,1-4.88-7.53c.09-.17.25-.33.27-.5.18-1.81.28-3.64.51-5.44.35-2.77.8-5.51,2.64-7.79a26.09,26.09,0,0,1,9.82,7,43,43,0,0,0,15.18,11.72A18.6,18.6,0,0,0,193.05,180.14Z"/><path class="cls-14" d="M47.1,81.9l-5.69-2.79c4.37-1.37,8.39-2.61,12.4-3.89,3.68-1.18,7.28-2.65,11-3.57a44.14,44.14,0,0,1,19.45-.13,59.15,59.15,0,0,1,19.47,7.72A2.16,2.16,0,0,1,105,81.32,39.14,39.14,0,0,0,106.54,93c.07.22.09.46.17.94-3.19-1.3-6.87-1.27-8.36-5.24a65.61,65.61,0,0,0-3.29-6.25,11.34,11.34,0,0,0-9.49-6.25,77.19,77.19,0,0,0-10.75,0c-3.27.11-6.53.48-9.8.63-4.16.19-8.3.41-12.16,2.19-.75.35-1.47.78-2.2,1.17Z"/><path class="cls-7" d="M81.58,178.83a19.23,19.23,0,0,0-2.74,2.61,61.83,61.83,0,0,0-8.5,18.09c-.77,2.54-1.7,5-2.7,7.51a4.81,4.81,0,0,1-2.79,2.78c.13-7,2-13.68,4.34-20.24a60.06,60.06,0,0,1,15.08-23.46,91.4,91.4,0,0,1,17.15-13c2-1.18,3.95-2.57,5.91-3.86-.12.5-.21,1-.36,1.49-.83,2.57-1.67,5.13-2.51,7.7-1.58,1.07-3.11,2.23-4.75,3.2a54.86,54.86,0,0,0-12.6,10.74q-2.26,2.47-4.48,5A17.56,17.56,0,0,0,81.58,178.83Z"/><path class="cls-6" d="M230.31,133.8a26.67,26.67,0,0,1-2.6,2.63c-2.89,2.2-6.32,2.93-9.85,3.3-2.34.24-4.68.41-7,.71a12.76,12.76,0,0,1-8.72-2.28,17.82,17.82,0,0,1-5.25-4.82,8.54,8.54,0,0,0-1-1.16A4.05,4.05,0,0,1,195,127a1.78,1.78,0,0,1,.58-.74c2.61-1.55,5.31-2.9,8.47-1.89,8.35,2.66,16.81,5,24.82,8.65C229.24,133.24,229.62,133.45,230.31,133.8Z"/><path class="cls-12" d="M199,204l-1.69,6.27a30,30,0,0,1-9,4.47,13.2,13.2,0,0,0-6.53,4.86c-3.77,5-7.44,10.1-11.22,15.12a6.94,6.94,0,0,1-6.33,3.16c-1.7-.14-3.42-.14-5.12-.26a22.76,22.76,0,0,0-7.38,1.17c-1,.25-1.94.34-2.92.5,3.13-2.91,6.23-5.84,9.42-8.68a1.87,1.87,0,0,1,1.76,0,27.45,27.45,0,0,1,2.84,2.56c2.37,2.22,4,2.15,5.57-.64,4.43-7.67,8.86-15.34,13-23.17,1.21-2.29,1.42-5.1,2.08-7.68.1-.38.15-.77.25-1.28.42.05.81.07,1.18.16q6.46,1.49,12.91,3A11.75,11.75,0,0,1,199,204Z"/><path class="cls-7" d="M100.18,204.33c-1.54.15-3.08.42-4.62.42-2.8,0-6.32-2.78-6-6.08a5.43,5.43,0,0,1,3.07-4.42c2.6-1.4,5.27-2.65,7.87-4.06,3.57-1.94,5.74-5.11,7.27-8.74,1.05-2.5,1.95-5.06,2.95-7.58a5.5,5.5,0,0,1,.72-1c1.22,2.81,2.46,5.61,3.66,8.43a2.66,2.66,0,0,1-.1,2.63c-2.94,4.55-5.75,9.19-8.87,13.61A82.58,82.58,0,0,1,100.18,204.33Z"/><path class="cls-8" d="M185.45,111.94c1.15-1.67,2.1-3.13,3.14-4.54A50.25,50.25,0,0,0,196,92.31a10.94,10.94,0,0,1,.4-1.13,1.1,1.1,0,0,1,1.52-.72,13.69,13.69,0,0,0,8.69-.32,11.13,11.13,0,0,1,2.68-.54,2,2,0,0,1,2.39,2,7.16,7.16,0,0,1-.93,4.85,32.52,32.52,0,0,1-14.06,13,32,32,0,0,1-9,2.27C187,111.75,186.39,111.82,185.45,111.94Z"/><path class="cls-10" d="M182.21,71.88c-5-4.57-10.69-3-14.55,2.35-3.13,4.34-5.11,9.36-6.82,14.44a8.09,8.09,0,0,1-.94,1.54l-.49-.2a9.9,9.9,0,0,1,.18-1.69q1.33-4.72,2.74-9.41a6,6,0,0,1,.76-1.48,59.08,59.08,0,0,1,8.65-11.14,23.81,23.81,0,0,1,12.2-5.92c5.12-1,10.22-2.1,15.33-3.15a4,4,0,0,1,.69,0,21.13,21.13,0,0,0-1.14,3.49c-.33,2.24-.44,4.52-.65,6.78L197.1,79.26c-.32-1.34-.75-2.66-.93-4A16.7,16.7,0,0,0,193,67a4,4,0,0,0-4.53-1.48C185.2,66.47,183.43,68.9,182.21,71.88Z"/><path class="cls-15" d="M152.21,207.66c.4-2,.8-3.93,1.21-5.9.11-.54.23-1.09.4-1.62,1-3.2,3.31-4.22,6.31-2.68a13.88,13.88,0,0,1,7,8.54c1.76,5.42.34,10.29-2.56,14.87a8.93,8.93,0,0,1-2.06,1.73,29.25,29.25,0,0,1-9.85-13.21A12.46,12.46,0,0,1,152.21,207.66Z"/><path class="cls-10" d="M106.42,78.42V62.47c1.06.39,2.07.77,3.09,1.13a99.15,99.15,0,0,0,10.4,3.56,45.74,45.74,0,0,1,13,4.68,48.22,48.22,0,0,1,6.73,5c2.62,2.22,3.5,5.35,3.92,8.63.2,1.54.52,3.08.61,4.62a3,3,0,0,1-.65,2,1.37,1.37,0,0,1-2.38-.79c-.67-4.59-3.33-8.23-5.68-12a4.27,4.27,0,0,0-1.18-1.18c-4.3-3-8.79-5.74-14-6.79-1.21-.24-2.61.42-3.91.72a12.28,12.28,0,0,0-1.33.53,2,2,0,0,1-2.57-.93,20.58,20.58,0,0,0-1.74-2.28c-.94-1-1.55-.84-1.87.49-.61,2.52-1.17,5-1.76,7.57-.09.37-.22.73-.34,1.09Z"/><path class="cls-6" d="M167.08,89.53c.85-.79,1.65-1.62,2.55-2.34a2.83,2.83,0,0,1,4.25.92c1.72,2.86,3.26,5.84,4.81,8.8a12.14,12.14,0,0,1,1.54,8.08,77.39,77.39,0,0,1-2.36,8.12,25.62,25.62,0,0,1-1.43,3.16c-1,2-1.43,2.16-3.57,1.38,0-1.18,0-2.36,0-3.53A20.43,20.43,0,0,0,170,103.45a20.74,20.74,0,0,1-2.18-9.66C167.79,92.33,168,90.83,167.08,89.53Z"/><path class="cls-10" d="M184.83,114.34c1.94-.48,3.87-1,5.83-1.44A116.06,116.06,0,0,1,218.81,111a12.09,12.09,0,0,1,4.59,1.16c7.83,3.7,15.61,7.51,23.38,11.34a49.85,49.85,0,0,1,4.34,2.68c.06,0,.07.13.24.48-.8,0-1.47,0-2.14,0-7.1-.41-13.12-3.83-19.13-7.11a39.73,39.73,0,0,0-20.51-4.71c-4.83.12-9.67.16-14.5.25-2.44,0-4.87.15-7.31.16a28,28,0,0,1-2.88-.27Z"/><path class="cls-16" d="M98,238.62c-3.06-.84-6.16-1.57-9.17-2.55a19.77,19.77,0,0,1-11.21-8.61c-1.57-2.58-3.42-5-5.12-7.49a13.21,13.21,0,0,1-.76-1.46L79,217a27.55,27.55,0,0,0,4.4,3,17.33,17.33,0,0,1,10.18,11,19.28,19.28,0,0,0,3.88,6.52A4.52,4.52,0,0,1,98,238.62Z"/><path class="cls-8" d="M139.79,239c-2.3-4.46-4.53-8.69-6.67-13a25.07,25.07,0,0,1-3-11.23c0-1.5.7-2.14,2-1.59,5.28,2.18,9.83,5.36,12.78,10.38a12.54,12.54,0,0,1,1.22,8.48c-.26,1.68-1.53,2.76-2.73,3.83S140.9,238.11,139.79,239Z"/><path class="cls-8" d="M49.24,194.67a68.52,68.52,0,0,1,3.17-7.81,14.69,14.69,0,0,1,12.21-7c2,0,2.83.83,2.69,2.79-.22,3-.32,6-.55,9.06-.14,1.93-1.15,2.86-3.26,2.93-4.22.14-8.45.19-12.67.26A9.71,9.71,0,0,1,49.24,194.67Z"/><path class="cls-8" d="M199.58,74.24c.08-.92.14-1.67.21-2.41a2.85,2.85,0,0,1,2-2.47c5.43-2.39,11.18-3.07,17-3.54,2.76-.22,2.68-.18,2.77,2.67.19,5.49-1.17,10.75-2.22,16.06a7.74,7.74,0,0,1-.48,1.15,12,12,0,0,0-.44-2.3A5.65,5.65,0,0,0,217,81,22.58,22.58,0,0,1,212.24,76a6.44,6.44,0,0,0-6.59-2.42C203.67,73.91,201.65,74,199.58,74.24Z"/><path class="cls-17" d="M158.16,229.13c-4,3.32-7.92,6.68-11.94,10-1.54,1.26-3.22,2.34-4.85,3.48a1.64,1.64,0,0,1-2.28-.12q-4.18-3.86-8.39-7.68c-4.57-4.15-7.44-9.43-9.92-15a66.13,66.13,0,0,1-5.15-17.25,18.16,18.16,0,0,1-.08-4.18c0-.48.7-.91,1.08-1.36l.47.11c.17,1.06.35,2.13.51,3.19,1.68,10.7,5.08,20.65,12.36,29,2.12,2.43,3.85,5.19,5.85,7.73,1,1.22,2.13,2.27,3.17,3.43a1,1,0,0,0,1.66.1c2.67-2.4,5.34-4.79,8-7.25,2.1-2,4.1-4,6.17-6a1.25,1.25,0,0,1,1.91,0c.47.43,1,.78,1.51,1.17Z"/><path class="cls-10" d="M126.1,131.14c-1.29,2.1-.69,3.82.94,5.45,1,1,2.11,2,1.94,3.68,0,.32,0,.72-.17.92-.47.53-1,1.26-1.58,1.35a2.24,2.24,0,0,1-1.67-1c-1.6-2.38-3.19-4.78-4.58-7.28-1.17-2.12-2.09-4.38-3.09-6.59-1.19-2.64-2.27-3.2-5.09-2.65-1.2.24-2.4.43-4,.71a8.86,8.86,0,0,1,.63-1.88q5.3-8,10.68-15.91a11.14,11.14,0,0,1,2-2c.7-.6,1.25-.41,1.47.5s.37,2,.54,3.06c-2.53,3.78-5.07,7.55-7.59,11.34-.91,1.37-.85,2,.65,2.61A18.77,18.77,0,0,1,126.1,131.14Z"/><path class="cls-18" d="M167.08,89.53c1,1.3.71,2.8.75,4.26a20.74,20.74,0,0,0,2.18,9.66,20.43,20.43,0,0,1,2.87,10.67c0,1.18,0,2.35,0,3.53-2.21-.26-4.42-.57-6.65-.74a24.67,24.67,0,0,0-3.3.17l-2,.12c.51-.79.83-1.37,1.23-1.9a9.23,9.23,0,0,0,1.94-6.93c-.42-3.52-.77-7-1-10.58A9.2,9.2,0,0,1,167.08,89.53Z"/><path class="cls-19" d="M102.75,76.31a2,2,0,0,1-2.12-1.89c-.35-2.44-.72-4.89-.91-7.35-.21-2.78-.22-5.58-.33-8.38-.17-4.17,1.29-7.9,3-11.57,2.29-4.79,4.34-9.71,7.48-14.05q3-4.13,6-8.21c.19-.25.7-.53.92-.44,2,.79,3.87,1.66,5.86,2.53-.17.52-.3.93-.44,1.33-.51,1.42-.91,1.6-2.34,1.11a3.65,3.65,0,0,0-4.78,1.53A88.92,88.92,0,0,0,103.5,53.25,31.06,31.06,0,0,0,102,67.17c.27,2.5.51,5,.74,7.5C102.8,75.2,102.75,75.76,102.75,76.31Z"/><path class="cls-20" d="M139.55,142.9a6.89,6.89,0,0,1-.88-.33,58.59,58.59,0,0,1-7-3.86,25.06,25.06,0,0,1-4.46-4.75c-.72-.9-.15-2,1.14-2.35,1.73-.47,3.48-.86,5.24-1.16,5-.87,10-1.74,15.09-2.46a4.23,4.23,0,0,1,2.92.84c.88.71.32,1.86-.1,2.78a23.54,23.54,0,0,1-7.26,9.22,28.17,28.17,0,0,1-4.52,2.31Zm1.92-4.32c2.69-.07,6-3.86,5.67-6.36a1.75,1.75,0,0,0-1.91-1.59,8.42,8.42,0,0,0-1.29.23c-2.26.49-4.52.94-6.77,1.49-1.68.41-2.37,2.11-1.21,3,1.52,1.15,3.2,2.09,4.83,3.09A1.72,1.72,0,0,0,141.47,138.57Z"/><path class="cls-8" d="M47.1,81.9l3.57-1.69a4.2,4.2,0,0,0,2.61,2.57C57.84,85,62.72,85.56,67.67,86c3.33.3,6.65.73,10,1.21a16,16,0,0,1,3,1l-.08.32a34.66,34.66,0,0,1-4,.25,12.63,12.63,0,0,0-6.21,1.5c-2.69,1.31-5.4,2.61-8.08,3.93A2.69,2.69,0,0,1,59,94c-1.63-1.45-3.3-2.88-4.82-4.44C51.75,87,49.45,84.45,47.1,81.9Z"/><path class="cls-18" d="M126.1,131.14a18.77,18.77,0,0,0-8.86-7.72c-1.5-.63-1.56-1.24-.65-2.61,2.52-3.79,5.06-7.56,7.59-11.34l.1.07c3,2.88,3,2.88,1.94,7.51-.49,2.09-.95,4.19-1.46,6.28a3.43,3.43,0,0,0,1.37,3.8,3.31,3.31,0,0,0,4,.09c1.56-1,3-2.26,4.47-3.41,1.7-1.31,2.71-1.28,4.06.4a16,16,0,0,1,1.59,2.91c.33.66.13,1-.66,1.12-3.54.52-7.09,1-10.61,1.68A14.39,14.39,0,0,0,126.1,131.14Z"/><path class="cls-10" d="M125,25.91a14.73,14.73,0,0,1,.84,8.18c-.43,2.27-1.54,4.41-2.15,6.66s-1.09,4.7-1.49,7.08a20.53,20.53,0,0,0,0,3.35c-.77-.32-1.53-.66-2.3-1-1.48-.6-2-.37-2.51,1.13-1.17,3.71-2.08,7.45-1.45,11.39a7.79,7.79,0,0,1,0,1.2,1.24,1.24,0,0,1-.1.33c-1.91,0-2.52-.58-2.57-2.4-.17-6.2.35-12.31,3-18,1.86-4.06,4.07-7.95,6.06-11.94C123.33,29.93,124.15,27.91,125,25.91Z"/><path class="cls-21" d="M155.8,118.42a4.38,4.38,0,0,1,.37-1.11c2.67-4,3-8.34,2.18-12.87-.46-2.59-1.05-5.15-1.58-7.72-.2-1-.59-1.4-1.73-1.24-4.18.57-8.38,1-12.58,1.49a5.41,5.41,0,0,0-4.15,2.7c-.45.7-.89,1.41-1.41,2.22A4.44,4.44,0,0,1,136.8,98c1-2.79,3.21-3.79,5.91-4.13l17.08-2.13c1.34-.16,1.46,0,1.55,1.38.3,4.62.43,9.26,1,13.84.55,4.4-1.5,7.41-4.45,10.14-.57.53-1.21,1-1.81,1.46Z"/><path class="cls-19" d="M59,132.34c-1.82-.22-3.36-.28-4.84-.61-5.55-1.25-10.47.24-14.88,3.51a42.78,42.78,0,0,0-4.8,4.66c-2.76,2.82-5.48,5.68-8.35,8.65-.7-1.08-1.33-2-1.9-2.93s0-1.46.58-2c2.14-1.92,4.32-3.79,6.46-5.72a62.29,62.29,0,0,1,14.84-10.24,22.53,22.53,0,0,1,3.93-1.39,2.37,2.37,0,0,1,1.77.27c2.24,1.6,4.41,3.31,6.59,5A5.28,5.28,0,0,1,59,132.34Z"/><path class="cls-8" d="M182.21,71.88c1.22-3,3-5.41,6.29-6.35A4,4,0,0,1,193,67a16.7,16.7,0,0,1,3.14,8.23c.19,1.36.62,2.68.93,4-.53,2.81-1,5.63-1.59,8.44-.33,1.7-.72,3.39-1.08,5.08l-.46,0c-.15-1.7-.41-3.4-.43-5.1a32.53,32.53,0,0,0-2.94-13.57,33.34,33.34,0,0,0-2-3.42,1.33,1.33,0,0,0-2.22-.34c-1.11,1-2.17,2-3.36,3.06Z"/><path class="cls-13" d="M196.14,201.44a9.41,9.41,0,0,0-1-6.82c-1-1.8-.45-2.68,1.64-2.79a23.58,23.58,0,0,1,4.07,0c2.23.28,3.71-.84,5.06-2.34a3.54,3.54,0,0,1,.45-.36,24.55,24.55,0,0,1,0,13.33,1.28,1.28,0,0,1-.93.77A31.38,31.38,0,0,1,196.14,201.44Z"/><path class="cls-8" d="M164.54,70.48c-.52-4.18-1-8.13-1.52-12.08a5,5,0,0,0-.19-.93c-1-3.11-.22-6,1.18-8.75.58-1.16,1.16-1.34,2.29-.63a7.53,7.53,0,0,1,3.62,5.66c.3,2.41.44,4.84.51,7.27a4.63,4.63,0,0,1-.65,2.49c-1.4,2.18-3,4.26-4.46,6.37A4.2,4.2,0,0,1,164.54,70.48Z"/><path class="cls-19" d="M177.68,45.7c-.26-.25-.54-.49-.79-.75-4.12-4.4-8.22-8.81-12.36-13.19-1.27-1.34-2-1.27-3.49-.06-1.78,1.48-3.6,2.9-5.41,4.35-.7.56-1.31.78-2-.09s-.36-1.28.23-1.92a61.38,61.38,0,0,1,11.23-9.1c.82-.55,1.48-.59,2,.32,2.85,4.94,5.72,9.87,8.51,14.85.85,1.53,1.46,3.19,2.16,4.8a3.36,3.36,0,0,1,.14.65Z"/><path class="cls-22" d="M123.9,87.92c.84.7,2,1.22,2.45,2.11,2.43,5,4.68,10.09,7,15.2-4.65.93-4.71,1.23-5.94,4.73a25.5,25.5,0,0,1-1.34-2.22c-.39-.83-.61-1.73-1-2.56-.85-1.89-1.14-2-3.13-1.48.17-.85.29-1.71.5-2.55.79-3.13,2.18-6.14,1.89-9.48C124.26,90.42,124.06,89.17,123.9,87.92Z"/><path class="cls-6" d="M140.7,144.09c-.62,3.06-1.34,6-3.83,8.26a5.22,5.22,0,0,1-4.54,1.23,1.88,1.88,0,0,1-1.2-1C130,149.82,129,147,128,144.25a25.75,25.75,0,0,0,2.06-3c.41-.79.78-1,1.55-.62,1.76.92,3.54,1.79,5.28,2.74A4.6,4.6,0,0,0,140.7,144.09Z"/><path class="cls-8" d="M155.36,122.45c1.9.39,3.81.72,5.68,1.18a3.81,3.81,0,0,1,2.62,2.86,2,2,0,0,1-1.52,2.37,17.6,17.6,0,0,1-2.23.33,4.1,4.1,0,0,0-3.89,1.55,11.89,11.89,0,0,1-1.62,1.32c.41-2,.8-4,1.22-6,.24-1.17-.07-1.57-1.25-1.44-2.57.27-5.14.6-7.72.84a17.33,17.33,0,0,1-3.47,0,2.1,2.1,0,0,1-1.45-.94,1.91,1.91,0,0,1,.1-2.44,4.74,4.74,0,0,1,3.78-1.09c.9,0,1.8,0,2.71-.06Z"/><path class="cls-8" d="M123.9,87.92c.16,1.25.36,2.5.47,3.75.29,3.34-1.09,6.35-1.89,9.48-.21.84-.34,1.7-.5,2.55-1.47.77-1.73.7-2-1-.66-4.6-1.33-9.21-1.83-13.83-.21-1.93.69-2.55,2.57-2.05C121.82,87.11,122.85,87.55,123.9,87.92Z"/><path class="cls-22" d="M164.47,160.6c-1.83,2.27-2.29,5-2.64,7.79-.23,1.81-.33,3.63-.51,5.44,0,.17-.18.34-.27.5a40.84,40.84,0,0,1-4.25-14,8.8,8.8,0,0,1,.26-2.49c.2-1.07.79-1.37,1.72-.81C160.71,158.2,162.58,159.41,164.47,160.6Z"/><path class="cls-16" d="M52.15,166.5l8.23,1.72c-1.15,2-2.14,3.79-3.17,5.54-1.28,2.2-2.59,4.38-3.89,6.57-.37-.4-1-.75-1.08-1.21a18,18,0,0,1-.53-4.09C51.76,172.18,52,169.34,52.15,166.5Z"/><path class="cls-8" d="M104.47,158.47c.84-2.56,1.68-5.13,2.51-7.7.16-.49.24-1,.36-1.49l6.73-6.16c-.16,2.15-.34,4.3-.47,6.45a4.94,4.94,0,0,0,.24,1.22,10.29,10.29,0,0,1-1.8,2.71c-2.1,1.64-4.38,3-6.59,4.53A6.28,6.28,0,0,1,104.47,158.47Z"/><path class="cls-11" d="M154.41,132.06a11.89,11.89,0,0,0,1.62-1.32,4.1,4.1,0,0,1,3.89-1.55c-1.28,1.89-.52,3.92-.41,5.91a27.42,27.42,0,0,1,.08,4.4c-.2,1.85-1.22,2.66-3.52,1.94a1.06,1.06,0,0,0,.11-1.57c-.49-.67-.83-1.45-1.3-2.14A5.46,5.46,0,0,1,154.41,132.06Z"/><path class="cls-20" d="M155.36,122.45l-7-1.45c-.29-.4-.5-1-.89-1.17-1.83-.69-3.71-1.25-5.7-1.91-.13-2.2,2.38-4.39,4.81-3.91a6.5,6.5,0,0,1,4.52,3.2,27.32,27.32,0,0,0,2.66,3.66,6.84,6.84,0,0,0,1.85,1.11Z"/><path class="cls-23" d="M52.15,166.5c-.16,2.84-.39,5.68-.44,8.52a18,18,0,0,0,.53,4.09c.1.46.7.81,1.08,1.21L51,184.86c-.57-3-1.16-6.06-1.69-9.1-.59-3.39-1.12-6.79-1.67-10.19a4.85,4.85,0,0,1,0-.6Z"/><path class="cls-19" d="M127,124.14c-.53-2.11.3-4.08.7-6.09.6-3,1.28-6,1.93-9a1.86,1.86,0,0,1,1.94-1.72c.81.64,1.62,1.26,2.42,1.91a4.79,4.79,0,0,1,2.15,3c-.39,0-.79,0-1.18.08-1.29.13-2.59.39-3.34,1.55a55.85,55.85,0,0,0-2.8,5,1.61,1.61,0,0,0,.34,2.16C128.91,122.4,128.45,123.61,127,124.14Z"/><path class="cls-20" d="M127,124.14c1.43-.53,1.88-1.74,2.15-3.08a4.37,4.37,0,0,0,1.32-.48c1.91-1.55,3.83-3.09,5.62-4.77a2.83,2.83,0,0,0,.74-3.18l5.77-1.44a26.25,26.25,0,0,1-2.47,3.46c-3.51,3.58-7.11,7.08-10.73,10.56a1.66,1.66,0,0,1-1.46.39C127.53,125.34,127.33,124.65,127,124.14Z"/><path class="cls-17" d="M112.37,200.73c.32,2.43.56,4.75.94,7,.55,3.26,1.26,6.48,1.79,9.74a36,36,0,0,1,.35,4.88,4.31,4.31,0,0,1-.53,1.44h-.38a5.24,5.24,0,0,1-.62-1.17c-1.54-6.36-3-12.72-2.75-19.33A2.93,2.93,0,0,1,112.37,200.73Z"/><path class="cls-10" d="M142.63,111.18l-5.77,1.44-.69-.31a4.79,4.79,0,0,0-2.15-3c-.8-.65-1.61-1.27-2.42-1.91a10.1,10.1,0,0,1,5.77-.17c2.33.43,4.64,1,7.21,1.57Z"/><path class="cls-23" d="M62.9,213.64a21.74,21.74,0,0,1-5.75-9.29A37.84,37.84,0,0,0,55,200l3.12.24c1.2,2.35,2.38,4.71,3.62,7a21.08,21.08,0,0,0,1.43,2.07Z"/><path class="cls-16" d="M63.21,209.36a21.08,21.08,0,0,1-1.43-2.07c-1.24-2.33-2.42-4.69-3.62-7l5.09.21c.86,0,1.16.53,1.07,1.35-.24,2.12-.43,4.24-.68,6.35A5.58,5.58,0,0,1,63.21,209.36Z"/><path class="cls-8" d="M117.17,136.86c-1.33.28-1.88,1.17-1.93,3.16l-7.17,1.66a8.25,8.25,0,0,1,.83-1.67c.94-1.16,2-2.25,3-3.36l1.46-.39c1.45-.37,1.47-.42.71-1.76l.28-.53Z"/><path class="cls-21" d="M111.88,136.65c-1,1.12-2,2.2-3,3.36a8.25,8.25,0,0,0-.83,1.67l-5.67.67C103,139.63,107.74,136.83,111.88,136.65Z"/><path class="cls-24" d="M78.79,95.94l.45,0c3,.42,5.94.73,8.86,1.3a25.43,25.43,0,0,1,9.45,3.94c2.63,1.79,3.56,4.67,3.51,7.75,0,1.64-1.24,2.62-2.73,3.16a14.55,14.55,0,0,1-10.75-.44,54.83,54.83,0,0,1-6.15-2.93,10.06,10.06,0,0,0-10.16-.09,16,16,0,0,1-2.53,1.07c-2.89.92-5.09-.37-5.77-3.31l-.35-1.51a5,5,0,0,1,2.6-4.43,31,31,0,0,1,10.3-4.29c1-.17,2-.21,3-.32Z"/><path class="cls-4" d="M78.79,95.94l-.31-.06Z"/><path class="cls-25" d="M122,149.56c1.24,0,1,.85.86,1.61-.56,2.6-1.34,5.18-1.67,7.81a12.73,12.73,0,0,0,3.69,11c2,2.5,4.28,4.68,7.66,5.11a10.43,10.43,0,0,0,3.08-.1,11.77,11.77,0,0,0,10.11-11.38,9.45,9.45,0,0,0-.24-1.88c-.08-.49-.17-1-.26-1.49a2.87,2.87,0,0,1,2.69,2.33c1.32,5.58.41,10.64-3.7,14.85-1.62,1.66-3.28,3.27-5,4.77a13.31,13.31,0,0,1-9.23,3.37,4.44,4.44,0,0,1-1.93-.48,14.85,14.85,0,0,1-6.89-7.08,58.44,58.44,0,0,1-3.35-9.05,20.73,20.73,0,0,1,.81-11.44C119.44,154.77,120.06,151.88,122,149.56Z"/><path class="cls-1" d="M140.07,28.88c0,2.48-1.25,4.45-2.72,6.31a12.45,12.45,0,0,1-1.19,1.16c-2.62.43-4.08-.87-5.08-3.16a5.17,5.17,0,0,0-1.89-2c-1.44-1-2.07-2.22-1.63-4.38.54-2.61,1.17-5.21,1.85-7.78.51-1.89,1.38-2.21,2.94-1A23.52,23.52,0,0,1,140.07,28.88Z"/><path class="cls-13" d="M184.09,133.46c.38,2.42-1.41,3.79-2.84,5.08A36,36,0,0,1,171,144.76a2.19,2.19,0,0,1-2.65-.29,2.45,2.45,0,0,1-.53-3c.72-1.55,1.63-3,2.36-4.57.64-1.35,1.16-2.77,1.73-4.16a27.26,27.26,0,0,0,3.82,1.78,18.42,18.42,0,0,0,3.67.39A5.27,5.27,0,0,0,184.09,133.46Z"/><path class="cls-25" d="M184.09,133.46a5.27,5.27,0,0,1-4.71,1.49,18.42,18.42,0,0,1-3.67-.39,27.26,27.26,0,0,1-3.82-1.78c-.78-1.7-1.58-3.4-2.33-5.11-.42-1-1.28-2.15-.31-3a5.5,5.5,0,0,1,3.19-.91,6.17,6.17,0,0,1,4.27,1.91c1.92,1.74,3.84,3.49,5.81,5.18A4,4,0,0,1,184.09,133.46Z"/><path class="cls-25" d="M141.47,138.57a1.72,1.72,0,0,1-.68-.14c-1.63-1-3.31-1.94-4.83-3.09-1.16-.88-.47-2.58,1.21-3,2.24-.55,4.51-1,6.77-1.49a8.42,8.42,0,0,1,1.29-.23,1.75,1.75,0,0,1,1.91,1.59C147.46,134.71,144.15,138.51,141.47,138.57Zm2.52-6.14c-1.23.88-2.76,1-3.63,2.27C142.34,135.51,143.94,134.56,144,132.44Z"/><path class="cls-25" d="M136.17,112.31l.69.31a2.83,2.83,0,0,1-.74,3.18c-1.78,1.69-3.71,3.22-5.62,4.77a4.37,4.37,0,0,1-1.32.48,1.61,1.61,0,0,1-.34-2.16,55.85,55.85,0,0,1,2.8-5c.74-1.16,2-1.42,3.34-1.55C135.38,112.35,135.77,112.33,136.17,112.31Z"/><path class="cls-17" d="M144,132.44c-.05,2.12-1.65,3.07-3.63,2.27C141.23,133.4,142.76,133.31,144,132.44Z"/></svg>