<svg xmlns="http://www.w3.org/2000/svg" viewBox="0 0 288 432"><defs><style>.cls-1,.cls-2,.cls-3{fill:none;stroke-width:1.25px;}.cls-1{stroke:#abc038;}.cls-1,.cls-3{stroke-linecap:round;stroke-linejoin:round;}.cls-2{stroke:#ffcb65;}.cls-2,.cls-4{stroke-miterlimit:10;}.cls-3{stroke:#f1865d;}.cls-4,.cls-5{fill:#f171a1;}.cls-4{stroke:#f171a1;stroke-width:2px;}.cls-6{fill:#4bc3cb;}.cls-7{fill:#fff;}.cls-8{fill:#ffcb65;}</style></defs><title>invitation_front</title><g id="Layer_4" data-name="Layer 4"><path class="cls-1" d="M243.43,63.4c0,1.45.86,4.47.58,6.25-1.32,1.39-2.58-.12-3.57-.39"/><path class="cls-1" d="M250.84,60.44a20.34,20.34,0,0,0,.25-4.49c-1,.78-3.79,2.19-3.79,2.82,0,1,1.89,1.81,3,1.93"/><path class="cls-1" d="M247.68,53.62a18.18,18.18,0,0,1,.95-4.35,10.57,10.57,0,0,1,2-1.69"/><path class="cls-1" d="M257.07,46.33c.27.83-.09,4.38-.8,5.22a3.8,3.8,0,0,1-1.56,1"/><path class="cls-1" d="M256.94,46.16c.05,0,.09.08.13.18"/><path class="cls-1" d="M254.71,52.51c-.42-1-.27-1.76-1.28-2.15"/><path class="cls-1" d="M258.77,39.55c.24,1.46.26,3.49-.6,4.07a2.17,2.17,0,0,1-.37.15"/><path class="cls-1" d="M257.8,43.77c-.33.11-.77.21-.93.11S256,43.2,256,43c0-.67,1.57-4.11,2.58-4.41a7.43,7.43,0,0,1,.23,1"/><path class="cls-1" d="M251.57,45.32a3.73,3.73,0,0,1,.79-2"/><path class="cls-1" d="M252.36,43.34c.74-1,1.79-1.09,2.24-1.45a39.21,39.21,0,0,1-.5,4.89c-.1.22-1.29.49-1.63.54a2.77,2.77,0,0,1-.9-2"/><path class="cls-1" d="M253.61,40c-1.19-2,1.66-5.91,2.4-6.36"/><path class="cls-1" d="M258.5,30.91Z"/><path class="cls-1" d="M258.5,30.91a27.51,27.51,0,0,1,1.42,3.42,2.57,2.57,0,0,1-.71,1.68"/><path class="cls-1" d="M249.8,63.13s.18,2.48-.32,3.13c-.22.28-2.85,2.36-2.85,2.36"/><path class="cls-1" d="M252.47,47.32c.34-.06,1.53-.32,1.63-.54"/><path class="cls-1" d="M252.36,43.34c.41-1.07.83-2.19,1.25-3.3a5.15,5.15,0,0,0,1.7-.57c.63-1.13,1.13-4.91.73-5.81l0,0c.8-2,1.45-3.32,1.79-3.24a1.23,1.23,0,0,1,.7.48,15.85,15.85,0,0,1-.69,3.2,5.65,5.65,0,0,0,.36,2.78,2.89,2.89,0,0,0,1.06-.88,30.76,30.76,0,0,1-.45,3.54,7.43,7.43,0,0,0-.23-1c-1,.3-2.62,3.74-2.58,4.41,0,.24.71.8.92.93s.6,0,.93-.11c-.24.9-.49,1.77-.73,2.56-.4-.95-3.53,3-3.65,4,1,.39.86,1.15,1.28,2.15,0,0-2.46,6.07-2.84,6.77-.57,1-1.24,2.32-2.06,3.85-.75.67-3.6,1.65-3.76,2.19-.26.85.59,3.3.59,3.3a48.22,48.22,0,0,1-3.57,7.73c-.81-1.18-4.3,2.06-4.33,2.14a4.15,4.15,0,0,0,0,2.48,13.58,13.58,0,0,0,1.71.08c-2,3.58-5.85,9.57-6.18,9.66-1.55.4-3-1.1-4.58-1.12.05-3.73,4.21-10.11,6.3-13.2a110.77,110.77,0,0,0,7.46-13c1.61-3.29,3.07-6.83,4.39-9.73.71.22,1.52-.73,3-.55.51-1-.24-5.53-.24-5.53.31-.67.65-1.43,1-2.27"/><path class="cls-1" d="M243.06,76.35a8.8,8.8,0,0,1-.95,4.3,2.75,2.75,0,0,1-1.68.4"/><path class="cls-1" d="M44.57,63.4c0,1.45-.86,4.47-.58,6.25,1.32,1.39,2.58-.12,3.57-.39"/><path class="cls-1" d="M37.16,60.44a20.34,20.34,0,0,1-.25-4.49c1,.78,3.79,2.19,3.79,2.82,0,1-1.89,1.81-3,1.93"/><path class="cls-1" d="M40.32,53.62a18.18,18.18,0,0,0-.95-4.35,10.57,10.57,0,0,0-2-1.69"/><path class="cls-1" d="M30.93,46.33c-.27.83.09,4.38.8,5.22a3.8,3.8,0,0,0,1.56,1"/><path class="cls-1" d="M31.06,46.16c-.05,0-.09.08-.13.18"/><path class="cls-1" d="M33.29,52.51c.42-1,.27-1.76,1.28-2.15"/><path class="cls-1" d="M29.23,39.55C29,41,29,43,29.83,43.63a2.17,2.17,0,0,0,.37.15"/><path class="cls-1" d="M30.2,43.77c.33.11.77.21.93.11S32,43.2,32,43c0-.67-1.57-4.11-2.58-4.41a7.43,7.43,0,0,0-.23,1"/><path class="cls-1" d="M36.43,45.32a3.73,3.73,0,0,0-.79-2"/><path class="cls-1" d="M35.64,43.34c-.74-1-1.79-1.09-2.24-1.45a39.21,39.21,0,0,0,.5,4.89c.1.22,1.29.49,1.63.54a2.77,2.77,0,0,0,.9-2"/><path class="cls-1" d="M34.39,40c1.19-2-1.66-5.91-2.4-6.36"/><path class="cls-1" d="M29.5,30.91Z"/><path class="cls-1" d="M29.5,30.91a27.51,27.51,0,0,0-1.42,3.42A2.57,2.57,0,0,0,28.78,36"/><path class="cls-1" d="M38.2,63.13s-.18,2.48.32,3.13c.22.28,2.85,2.36,2.85,2.36"/><path class="cls-1" d="M35.53,47.32c-.34-.06-1.53-.32-1.63-.54"/><path class="cls-1" d="M35.64,43.34c-.41-1.07-.83-2.19-1.25-3.3a5.15,5.15,0,0,1-1.7-.57c-.63-1.13-1.13-4.91-.73-5.81l0,0c-.8-2-1.45-3.32-1.79-3.24a1.23,1.23,0,0,0-.7.48,15.85,15.85,0,0,0,.69,3.2,5.65,5.65,0,0,1-.36,2.78A2.89,2.89,0,0,1,28.78,36a30.76,30.76,0,0,0,.45,3.54,7.43,7.43,0,0,1,.23-1c1,.3,2.62,3.74,2.58,4.41,0,.24-.71.8-.92.93s-.6,0-.93-.11c.24.9.49,1.77.73,2.56.4-.95,3.53,3,3.65,4-1,.39-.86,1.15-1.28,2.15,0,0,2.46,6.07,2.84,6.77.57,1,1.24,2.32,2.06,3.85.75.67,3.6,1.65,3.76,2.19.26.85-.59,3.3-.59,3.3a48.22,48.22,0,0,0,3.57,7.73c.81-1.18,4.3,2.06,4.33,2.14a4.15,4.15,0,0,1,0,2.48,13.58,13.58,0,0,1-1.71.08c2,3.58,5.85,9.57,6.18,9.66,1.55.4,3-1.1,4.58-1.12-.05-3.73-4.21-10.11-6.3-13.2a110.77,110.77,0,0,1-7.46-13c-1.61-3.29-3.07-6.83-4.39-9.73-.71.22-1.52-.73-3-.55-.51-1,.24-5.53.24-5.53-.31-.67-.65-1.43-1-2.27"/><path class="cls-1" d="M44.94,76.35a8.8,8.8,0,0,0,.95,4.3,2.75,2.75,0,0,0,1.68.4"/><path class="cls-2" d="M215.16,385.46c.78-.22,1.11-3.63,1.74-4.13.26-.21,4.6-2.28,5.43-1.75,1.24.8,1.69,9.3-.58,10.67-1.43.86-4.34,2.47-4.91.91-.23-.63-.13-2.47-.68-2.86-1.66-1.17-2.11,3.94-2.48,4.57-.64,1.08-7.08,2.27-9.84,2.14a3.7,3.7,0,0,1-3.32-3.64c-.38-4.11-.47-7,1.71-7.54a62.2,62.2,0,0,1,9.27-1.16C213.55,382.71,212.65,386.18,215.16,385.46Z"/><path class="cls-2" d="M216.24,381.6a71.44,71.44,0,0,0-8.24-2.14c-1.48-.25-4,3.13-6,1.8-2.37-1.6,4.65-3.69,5.8-3.7,2,0,8.64,1.49,11.35,2.4"/><path class="cls-2" d="M200.29,387.88c-2.49-.46-13.54-3.07-15.31-2.72-2,.4-5.63,2.41-5.09,3.55,1.63,3.4,4-1.45,5.72-1.64s11.7,3.2,14.94,4"/><path class="cls-2" d="M206.69,384.74q-1.94,2.47-3.82,5"/><path class="cls-2" d="M210.27,384.63a97.32,97.32,0,0,1-6.06,8.67"/><path class="cls-2" d="M212.73,386.89c-1.76,2.69-2.46,3.52-4.18,6"/><path class="cls-2" d="M219.15,382.52c-.3.85-.59,1.81-1.19,3.61"/><path class="cls-2" d="M221.73,382.94c-.84,2.27-1.4,3.95-2.46,6.64"/><path class="cls-2" d="M72.84,385.46c-.78-.22-1.11-3.63-1.74-4.13-.26-.21-4.6-2.28-5.43-1.75-1.24.8-1.69,9.3.58,10.67,1.43.86,4.34,2.47,4.91.91.23-.63.13-2.47.68-2.86,1.66-1.17,2.11,3.94,2.48,4.57C75,394,81.4,395.14,84.16,395a3.7,3.7,0,0,0,3.32-3.64c.38-4.11.47-7-1.71-7.54a62.2,62.2,0,0,0-9.27-1.16C74.45,382.71,75.35,386.18,72.84,385.46Z"/><path class="cls-2" d="M71.76,381.6A71.44,71.44,0,0,1,80,379.46c1.48-.25,4,3.13,6,1.8,2.37-1.6-4.65-3.69-5.8-3.7-2,0-8.64,1.49-11.35,2.4"/><path class="cls-2" d="M87.71,387.88c2.49-.46,13.54-3.07,15.31-2.72,2,.4,5.63,2.41,5.09,3.55-1.63,3.4-4-1.45-5.72-1.64s-11.7,3.2-14.94,4"/><path class="cls-2" d="M81.31,384.74q1.94,2.47,3.82,5"/><path class="cls-2" d="M77.73,384.63a97.32,97.32,0,0,0,6.06,8.67"/><path class="cls-2" d="M75.27,386.89c1.76,2.69,2.46,3.52,4.18,6"/><path class="cls-2" d="M68.85,382.52c.3.85.59,1.81,1.19,3.61"/><path class="cls-2" d="M66.27,382.94c.84,2.27,1.4,3.95,2.46,6.64"/><path class="cls-3" d="M137.53,388.56c.62.8.06,2.08.51,2.92,1.22,2.22,5.49,8.48,7,8.56,1.78.09,3.7.41,4.78-1-.38-.91-1.23-2.27-2.27-2.1-.71.12-1.23.16-1.23.16s-3.15-4.19-3.23-5.27,3.41-4,4.54-6.18c-2.26.23-4.63.26-6.75.3A11.72,11.72,0,0,1,137.53,388.56Z"/><path class="cls-3" d="M160,379.37a24.79,24.79,0,0,0-1,4.37,27.77,27.77,0,0,0,1.71,6.57c.12-1,1.09-6.89,1.09-6.89s3.74-9.59,3.2-13.41a28.47,28.47,0,0,0-1.54-4.45c-.27-.62.38-3.23.79-5.25a5.75,5.75,0,0,0-.86-3.53,11.32,11.32,0,0,0,0-5.47c-2,0-4.57,4-4.57,4l-4.24,0s-2-3.62-3.86-3.45c-.64,1.73.83,5.22.83,5.22s-.69,2.6-.84,3.9a3.76,3.76,0,0,0,1.31,3.32,8.57,8.57,0,0,1-.08,1.9c-5-.54-16.56,2.62-19.71,4.34-2.48-.75-5.11-7.58-6.17-9.44a20.47,20.47,0,0,0-5.84-6.08c-1.39-.79-3.44-1.64-4.79-.15-1.53,1.7,1,5.81,2.29,5.86,1.16,0,1-2.45.57-3.31,4.16,2,7.08,12.12,9.74,16.35-3.36,5,2.43,11.25,1.9,13.26-.23.87-1.24.77-1.48,1.64-.12.44,1.53,8.6,1.83,10.15.47,2.41,3.8,1.92,4.85,1.46.53-.22-.19-2.39-.62-2.77a4,4,0,0,0-1.51-.75c-.36-1.31-1.58-4.78,2.57-7.22.62-.37,1.32-.59,1.94-.93a11.72,11.72,0,0,0,3.39-2.61c2.12,0,4.49-.07,6.75-.3,1.92-.19,3.26-.06,5-.78,1.66,4.63,1.84,4.47,4.31,8.4a58.81,58.81,0,0,1,2.32,5.82,7.25,7.25,0,0,1,.25.87c.2,1.11,2.65,2,3.73,1s-.25-4.13-.6-4.91a50.22,50.22,0,0,1-2-5.75"/><path class="cls-3" d="M159.28,399.09a1.79,1.79,0,0,1-1.8-.64,9.26,9.26,0,0,1-.52-5.18A58.81,58.81,0,0,1,159.28,399.09Z"/><path class="cls-3" d="M153.62,361.65l.58-.62a2,2,0,0,1,1.51-.85c.6.06,1,.62,1.45,1a2.88,2.88,0,0,0,1.16.6"/><polygon class="cls-3" points="155.71 359.44 155.05 358.3 156.37 358.3 155.71 359.44"/><line class="cls-4" x1="36.47" y1="271.67" x2="118.14" y2="271.67"/><line class="cls-4" x1="36.47" y1="297.86" x2="118.14" y2="297.86"/><path class="cls-5" d="M44.61,319.94h-1.4l.67-1.14h2v8.1H44.61Z"/><path class="cls-5" d="M50.18,325.75h3v1.15H47.75l2.81-3.41q.41-.51.7-.88a6.65,6.65,0,0,0,.43-.62,1.75,1.75,0,0,0,.3-.89,1.26,1.26,0,0,0-.4-1,1.37,1.37,0,0,0-1-.38q-1.23,0-1.41,1.45H48q.29-2.56,2.59-2.56a2.61,2.61,0,0,1,1.86.7,2.28,2.28,0,0,1,.76,1.74,2.65,2.65,0,0,1-.35,1.3,6.4,6.4,0,0,1-.52.78q-.34.45-.87,1.07Z"/><path class="cls-5" d="M56.9,323.14v-1a2.13,2.13,0,0,0,1-.17,1.07,1.07,0,0,0,.48-1,1.11,1.11,0,0,0-.35-.84,1.22,1.22,0,0,0-.89-.33,1.15,1.15,0,0,0-.79.25,1.63,1.63,0,0,0-.4.85H54.79a2.81,2.81,0,0,1,.78-1.68,2.36,2.36,0,0,1,1.64-.53,2.44,2.44,0,0,1,1.74.63,2.1,2.1,0,0,1,.67,1.61,2,2,0,0,1-.88,1.73,2.06,2.06,0,0,1,1,1.93,2.34,2.34,0,0,1-.74,1.79,2.64,2.64,0,0,1-1.88.69A2.42,2.42,0,0,1,54.95,326a2.79,2.79,0,0,1-.37-1.25h1.18a1.44,1.44,0,0,0,.46.9,1.42,1.42,0,0,0,1,.31,1.32,1.32,0,0,0,1-.39,1.42,1.42,0,0,0,.39-1,1.25,1.25,0,0,0-.58-1.17A2.16,2.16,0,0,0,56.9,323.14Z"/><path class="cls-5" d="M65.81,324.64h.86v1.11h-.86v1.15H64.58v-1.15h-4l5.2-7.56Zm-1.22,0v-2.71l-1.87,2.71Z"/><path class="cls-5" d="M76,320l-1,.59a1.72,1.72,0,0,0-.53-.63,1.24,1.24,0,0,0-.68-.17,1.25,1.25,0,0,0-.85.29.89.89,0,0,0-.34.71q0,.59.88,1l.81.33a3.44,3.44,0,0,1,1.44,1,2.19,2.19,0,0,1,.46,1.41,2.48,2.48,0,0,1-.75,1.85,2.56,2.56,0,0,1-1.86.73,2.49,2.49,0,0,1-1.74-.62,2.88,2.88,0,0,1-.85-1.76l1.24-.27a2.1,2.1,0,0,0,.29,1,1.4,1.4,0,0,0,2.05.14,1.32,1.32,0,0,0,.38-1,1.35,1.35,0,0,0-.07-.43,1.08,1.08,0,0,0-.2-.36,1.63,1.63,0,0,0-.36-.31,3.48,3.48,0,0,0-.53-.28l-.78-.33a2.25,2.25,0,0,1-1.66-2.06,2,2,0,0,1,.7-1.53,2.52,2.52,0,0,1,1.74-.62A2.43,2.43,0,0,1,76,320Z"/><path class="cls-5" d="M77.29,322.81a4,4,0,0,1,1.25-2.94,4.13,4.13,0,0,1,3-1.23,4.24,4.24,0,0,1,4.21,4.21,4,4,0,0,1-1.25,3,4.28,4.28,0,0,1-5.85.14A4,4,0,0,1,77.29,322.81Zm1.23,0a2.93,2.93,0,0,0,.9,2.21,3,3,0,0,0,4.23,0,3.15,3.15,0,0,0,0-4.35,3,3,0,0,0-4.27,0A2.92,2.92,0,0,0,78.53,322.83Z"/><path class="cls-5" d="M87,326.9l1.71-8.71,2.78,6.3,2.88-6.3,1.53,8.71H94.67L93.89,322l-2.4,5.27L89.16,322l-.87,4.9Z"/><path class="cls-5" d="M102.11,319.95H98.86v1.95H102V323H98.86v2.71h3.25v1.15H97.64v-8.1h4.47Z"/><path class="cls-5" d="M109.78,323.45l2.51,3.45h-1.5l-2.32-3.32h-.22v3.32H107v-8.1h1.43a3.58,3.58,0,0,1,2.32.6,2.22,2.22,0,0,1,.79,1.77,2.3,2.3,0,0,1-.49,1.48A2.2,2.2,0,0,1,109.78,323.45Zm-1.52-.93h.39q1.74,0,1.74-1.33t-1.69-1.24h-.44Z"/><path class="cls-5" d="M113.5,326.9v-8.1h1.7a6.19,6.19,0,0,1,1.93.24,3.63,3.63,0,0,1,1.38.8,4.19,4.19,0,0,1-.05,6,3.81,3.81,0,0,1-1.37.8,6.27,6.27,0,0,1-1.91.23Zm1.22-1.15h.55a4.61,4.61,0,0,0,1.37-.17,2.78,2.78,0,0,0,1.89-2.73,2.82,2.82,0,0,0-.89-2.16,3.38,3.38,0,0,0-2.37-.74h-.55Z"/><path class="cls-5" d="M121.81,325.38l1,.41-1.5,3-.8-.33Z"/><path class="cls-5" d="M127.95,326.9v-8.66l5.91,6.18V318.8h1.22v8.6l-5.91-6.17v5.67Z"/><path class="cls-5" d="M141.49,319.95h-3.25v1.95h3.15V323h-3.15v2.71h3.25v1.15H137v-8.1h4.47Z"/><path class="cls-5" d="M143.51,318.8l2.24,5.62L148,318.8h1.34l-3.64,8.71-3.55-8.71Z"/><path class="cls-5" d="M154.84,319.95h-3.25v1.95h3.15V323h-3.15v2.71h3.25v1.15h-4.47v-8.1h4.47Z"/><path class="cls-5" d="M159.19,323.45l2.51,3.45h-1.5l-2.32-3.32h-.22v3.32h-1.22v-8.1h1.43a3.58,3.58,0,0,1,2.32.6,2.22,2.22,0,0,1,.79,1.77,2.3,2.3,0,0,1-.49,1.48A2.2,2.2,0,0,1,159.19,323.45Zm-1.52-.93h.39q1.74,0,1.74-1.33t-1.69-1.24h-.44Z"/><path class="cls-5" d="M164.14,318.8v7h2.38v1.15h-3.61v-8.1Z"/><path class="cls-5" d="M172.9,324.93h-3.47l-.9,2h-1.32l4-8.61,3.87,8.61h-1.34Zm-.5-1.15L171.2,321l-1.26,2.76Z"/><path class="cls-5" d="M176.1,326.9v-8.66l5.91,6.18V318.8h1.22v8.6l-5.91-6.17v5.67Z"/><path class="cls-5" d="M185.17,326.9v-8.1h1.7a6.19,6.19,0,0,1,1.93.24,3.63,3.63,0,0,1,1.38.8,4.19,4.19,0,0,1-.05,6,3.81,3.81,0,0,1-1.37.8,6.27,6.27,0,0,1-1.91.23Zm1.22-1.15h.55a4.61,4.61,0,0,0,1.37-.17,2.78,2.78,0,0,0,1.89-2.73,2.82,2.82,0,0,0-.89-2.16,3.38,3.38,0,0,0-2.37-.74h-.55Z"/><path class="cls-5" d="M196.71,318.8l2.24,5.62,2.27-5.62h1.34l-3.64,8.71-3.55-8.71Z"/><path class="cls-5" d="M207.65,324.93h-3.47l-.9,2H202l4-8.61,3.87,8.61H208.5Zm-.5-1.15-1.2-2.76-1.26,2.76Z"/><path class="cls-5" d="M215.89,325.75h3v1.15h-5.44l2.81-3.41q.41-.51.7-.88a6.65,6.65,0,0,0,.43-.62,1.75,1.75,0,0,0,.3-.89,1.26,1.26,0,0,0-.4-1,1.37,1.37,0,0,0-1-.38q-1.23,0-1.41,1.45h-1.22q.29-2.56,2.59-2.56a2.61,2.61,0,0,1,1.86.7,2.28,2.28,0,0,1,.76,1.74,2.65,2.65,0,0,1-.35,1.3,6.4,6.4,0,0,1-.52.78q-.34.45-.87,1.07Z"/><path class="cls-5" d="M225.49,319.94H223l-.4,1.34.17,0h.15a2.55,2.55,0,0,1,1.94.8,3.05,3.05,0,0,1-.1,4.14,3,3,0,0,1-2.17.83,2.85,2.85,0,0,1-2.54-1.51l.92-.78a2.86,2.86,0,0,0,.77.92,1.78,1.78,0,0,0,2.18-.25,1.81,1.81,0,0,0,.5-1.29,1.72,1.72,0,0,0-.49-1.27,1.65,1.65,0,0,0-1.23-.51,1.8,1.8,0,0,0-1.42.72h-.4l1.28-4.26h3.35Z"/><path class="cls-5" d="M230.69,318.51l.9.67-1.94,2.63.27,0h.17a2.28,2.28,0,0,1,1.71.76,2.5,2.5,0,0,1,.71,1.79,2.71,2.71,0,0,1-2.7,2.7,2.73,2.73,0,0,1-1.93-.78,2.49,2.49,0,0,1-.81-1.85,3.49,3.49,0,0,1,.79-2Zm.63,5.89a1.54,1.54,0,1,0-1.53,1.51,1.53,1.53,0,0,0,1.53-1.51Z"/><path class="cls-5" d="M235.8,325.75h3v1.15h-5.44l2.81-3.41q.41-.51.7-.88a6.65,6.65,0,0,0,.43-.62,1.75,1.75,0,0,0,.3-.89,1.26,1.26,0,0,0-.4-1,1.37,1.37,0,0,0-1-.38q-1.23,0-1.41,1.45H233.6q.29-2.56,2.59-2.56a2.61,2.61,0,0,1,1.86.7,2.28,2.28,0,0,1,.76,1.74,2.65,2.65,0,0,1-.35,1.3,6.4,6.4,0,0,1-.52.78q-.34.45-.87,1.07Z"/><path class="cls-5" d="M245,324.64h.86v1.11H245v1.15h-1.22v-1.15h-4l5.2-7.56Zm-1.22,0v-2.71l-1.87,2.71Z"/><path class="cls-5" d="M52.82,288.63a1.78,1.78,0,0,1-1.1.33c-1.12,0-1.65-.75-1.65-1.81v-.54H46.76v2.22H45.58V286.6H44.24v-1.08h1.35v-2a3.64,3.64,0,0,1,1.37-3l.72.9a2.46,2.46,0,0,0-.91,2.12v2h3.31v-3.24a3.2,3.2,0,0,0-3.34-3.19,3.33,3.33,0,0,0-3,1.65,2.31,2.31,0,0,0-.27,1,2.38,2.38,0,0,0,.5,1.54l-.86.72a3.2,3.2,0,0,1-.76-2.26,3.46,3.46,0,0,1,.39-1.53,4.38,4.38,0,0,1,4-2.25,4.3,4.3,0,0,1,4.15,2.49,4.42,4.42,0,0,1,.36,1.75v4.83a.72.72,0,0,0,.72.81,1.15,1.15,0,0,0,.86-.34Z"/><path class="cls-5" d="M60.3,288.66a2,2,0,0,1-1.11.3,1.46,1.46,0,0,1-1.4-1.08,1.76,1.76,0,0,1-1.62,1.1,2,2,0,0,1-2-2.12v-3.33h1.08v3.24A1.11,1.11,0,0,0,56.4,288a1.47,1.47,0,0,0,1.32-1.61v-2.88H58.8v3.69a.69.69,0,0,0,.72.75,1.09,1.09,0,0,0,.78-.3Z"/><path class="cls-5" d="M66.81,289.9a2.38,2.38,0,0,1-1.91,2.4l-.37-.93a1.54,1.54,0,0,0,1.2-1.47v-2a2.29,2.29,0,0,1-2,1,2.79,2.79,0,0,1,0-5.56,2.27,2.27,0,0,1,2,1v-.9h1.08Zm-1.08-4.14a2.86,2.86,0,0,0-.1-.33A1.8,1.8,0,1,0,64,288a1.8,1.8,0,0,0,1.64-1.1,2.14,2.14,0,0,0,.1-.33Z"/><path class="cls-5" d="M75.64,288.66a2,2,0,0,1-1.11.3,1.46,1.46,0,0,1-1.4-1.08,1.76,1.76,0,0,1-1.62,1.1,2,2,0,0,1-2-2.12v-3.33h1.08v3.24A1.11,1.11,0,0,0,71.75,288a1.47,1.47,0,0,0,1.32-1.61v-2.88h1.08v3.69a.69.69,0,0,0,.72.75,1.09,1.09,0,0,0,.78-.3Z"/><path class="cls-5" d="M77.43,289a2.31,2.31,0,0,1-1.19-.29v-1.06a1.41,1.41,0,0,0,.92.39.73.73,0,0,0,.74-.73,1.81,1.81,0,0,0-.54-1.08,2.11,2.11,0,0,1-.63-1.32,1.63,1.63,0,0,1,1-1.53l.6.78a.83.83,0,0,0-.5.75,1.67,1.67,0,0,0,.48,1,2.45,2.45,0,0,1,.67,1.54A1.53,1.53,0,0,1,77.43,289Z"/><path class="cls-5" d="M84.48,284.56H82.84v2.5c0,.5.23.92.77.92a1.32,1.32,0,0,0,.84-.32v1a1.73,1.73,0,0,1-1,.3,1.59,1.59,0,0,1-1.64-1.79v-2.61h-1.6v-1h1.6v-3h1.08v3h1.63Z"/><path class="cls-5" d="M92.91,288.82H91.83v-5.73a3.08,3.08,0,0,1-2.7,1.48v-1.09a2.6,2.6,0,0,0,2.7-2.43h1.08Z"/><path class="cls-5" d="M100.65,288.69a2.65,2.65,0,0,1-1.21.3,2.77,2.77,0,0,1-1-.25,3.23,3.23,0,0,0-1-.24,2.54,2.54,0,0,0-1.46.5l-.51-1c1.38-.81,4-2.61,4-4.44a1.54,1.54,0,0,0-1.67-1.68,1.49,1.49,0,0,0-1.54,1.52,1.26,1.26,0,0,0,.61,1.14l-.64.79a2.31,2.31,0,0,1-1-1.93,2.57,2.57,0,0,1,2.63-2.52,2.51,2.51,0,0,1,2.74,2.69c0,1.63-1.59,3.18-2.85,4l.32,0a2.37,2.37,0,0,1,.79.18,2.37,2.37,0,0,0,.79.18,2,2,0,0,0,1.14-.33Z"/><path class="cls-5" d="M106.17,284.56h-1.63v2.5c0,.5.23.92.77.92a1.32,1.32,0,0,0,.84-.32v1a1.73,1.73,0,0,1-1,.3,1.59,1.59,0,0,1-1.64-1.79v-2.61h-1.6v-1h1.6v-3h1.08v3h1.63Z"/><path class="cls-5" d="M114,288.66a2,2,0,0,1-1.11.3,1.52,1.52,0,0,1-1.47-1.63v-1.74a1.11,1.11,0,0,0-1.16-1.24A1.49,1.49,0,0,0,109,286v2.87h-1.08V278.17H109v6.12a1.79,1.79,0,0,1,1.54-.9,2,2,0,0,1,2,2.1v1.73a.69.69,0,0,0,.72.75,1.09,1.09,0,0,0,.78-.3Z"/><path class="cls-6" d="M142.33,274.79a5.26,5.26,0,0,0-4.43,2.29,11.3,11.3,0,0,0-1.91,6.23q1.91-3.3,6.3-3.3a7.62,7.62,0,0,1,5.39,1.94,6.48,6.48,0,0,1,2.09,5,7,7,0,0,1-2.24,5.33,8.11,8.11,0,0,1-5.76,2.09,7.65,7.65,0,0,1-6.11-2.58,10.39,10.39,0,0,1-2.23-7q0-5.49,2.46-8.71a7.87,7.87,0,0,1,6.61-3.23,7.28,7.28,0,0,1,4.33,1.27,3.72,3.72,0,0,1,1.79,3.09,2,2,0,0,1-.59,1.46,1.87,1.87,0,0,1-1.38.61,1.51,1.51,0,0,1-1.11-.47,1.55,1.55,0,0,1-.47-1.14,1.18,1.18,0,0,1,.85-1.21Q145,274.79,142.33,274.79Zm-.46,7.27a5.42,5.42,0,0,0-3.88,1.35,4.79,4.79,0,0,0-1.42,3.65,5,5,0,0,0,1.44,3.77,5.24,5.24,0,0,0,3.83,1.41,5.17,5.17,0,0,0,3.8-1.46,5.05,5.05,0,0,0,1.47-3.76,4.74,4.74,0,0,0-1.44-3.61A5.3,5.3,0,0,0,141.87,282.07Z"/><path class="cls-6" d="M155.39,283.95a1.79,1.79,0,0,1-1.33-.56,1.94,1.94,0,0,1,0-2.7,1.87,1.87,0,0,1,2.67,0,1.94,1.94,0,0,1,0,2.7A1.79,1.79,0,0,1,155.39,283.95Zm0,10.25a1.79,1.79,0,0,1-1.33-.56,1.94,1.94,0,0,1,0-2.7,1.87,1.87,0,0,1,2.67,0,1.94,1.94,0,0,1,0,2.7A1.79,1.79,0,0,1,155.39,294.19Z"/><path class="cls-6" d="M167.12,281.89l6.3-6.18h-7a5.26,5.26,0,0,0-1.58.15,1.1,1.1,0,0,0-.76,1.18c0,.2,0,.5.06.88s.06.68.06.88q0,1.58-1.06,1.58t-1-1.3c0-.24,0-.61,0-1.11s0-.86,0-1.11v-2.21q0-.82.3-1a3.45,3.45,0,0,1,1.51-.2h7.43q.6,0,2.05-.06.72,0,1.69,0,1.78,0,1.78,1.09a2,2,0,0,1-.76,1.42l-5.58,5.34h.88a5.66,5.66,0,0,1,5.88,5.88,6.61,6.61,0,0,1-2.35,5.24,8.91,8.91,0,0,1-6,2,9.38,9.38,0,0,1-5.67-1.65,5,5,0,0,1-2.27-4.14,3.65,3.65,0,0,1,.82-2.41,2.54,2.54,0,0,1,2-1,1.8,1.8,0,0,1,1.29.47,1.61,1.61,0,0,1,.5,1.23q0,1.52-1.79,1.52h-.33v.21a3.1,3.1,0,0,0,1.65,2.58,6.9,6.9,0,0,0,3.9,1.09,5.94,5.94,0,0,0,4.12-1.44,4.73,4.73,0,0,0,1.61-3.68q0-3.94-4.49-3.94a11.66,11.66,0,0,0-2.46.27,2.4,2.4,0,0,1-.51.06q-.73,0-.73-.79A1.33,1.33,0,0,1,167.12,281.89Z"/><path class="cls-6" d="M188.37,294.34a7.23,7.23,0,0,1-6-2.83q-2.2-2.83-2.2-7.8t2.29-8a7.51,7.51,0,0,1,6.26-2.92,7.2,7.2,0,0,1,6,2.8,12,12,0,0,1,2.2,7.59q0,5.18-2.27,8.17A7.39,7.39,0,0,1,188.37,294.34Zm.24-19.31q-5.58,0-5.79,8.33v.46a11,11,0,0,0,1.46,6.14,4.68,4.68,0,0,0,4.12,2.17,4.85,4.85,0,0,0,4.27-2.36,11.82,11.82,0,0,0,1.55-6.52,10.73,10.73,0,0,0-1.46-6.09A4.74,4.74,0,0,0,188.61,275Z"/><path class="cls-6" d="M211.55,279.4v1a5.41,5.41,0,0,1,4.64-2.36A6,6,0,0,1,221,280.1a8.44,8.44,0,0,1,1.79,5.67,9.33,9.33,0,0,1-1.89,6.14,6.25,6.25,0,0,1-5.08,2.29,5.43,5.43,0,0,1-4.27-1.85v2.52a10.79,10.79,0,0,0,.06,1.49q.18.94.88.94a3.36,3.36,0,0,0,.64-.09,3.36,3.36,0,0,1,.64-.09.87.87,0,0,1,1,1q0,1-1.27,1a11.23,11.23,0,0,1-1.36-.12,16,16,0,0,0-2-.09,10,10,0,0,0-1.21.06q-1.21.15-1.6.15a1.3,1.3,0,0,1-.88-.31,1,1,0,0,1-.36-.73q0-1,1-1a3.31,3.31,0,0,1,.57.08,4.2,4.2,0,0,0,.75.1.67.67,0,0,0,.71-.59,23.12,23.12,0,0,0,.17-3.29v-11.7q0-1.39-.78-1.39a3.06,3.06,0,0,0-.65.11,3.05,3.05,0,0,1-.68.11q-1.11,0-1.11-1t1.33-1l.73,0q.76.06,1.12.06c.18,0,.44,0,.79,0l.76,0Q211.55,278.55,211.55,279.4Zm.46,3.7a14.11,14.11,0,0,0-.3,2.88c0,.08,0,.23,0,.45v.42a9.45,9.45,0,0,0,.33,3,3.59,3.59,0,0,0,1.32,1.65,4.41,4.41,0,0,0,5.82-.86,7.42,7.42,0,0,0,1.2-4.53q0-6.06-4.3-6.06a4.12,4.12,0,0,0-2.59.88A3.8,3.8,0,0,0,212,283.1Z"/><path class="cls-6" d="M229.65,279.43v.88a7.11,7.11,0,0,1,2.06-1.8,5.26,5.26,0,0,1,2.42-.5,4.73,4.73,0,0,1,4.37,2.3,6.38,6.38,0,0,1,2.09-1.79,6.25,6.25,0,0,1,2.73-.52,6.46,6.46,0,0,1,3.09.73A4.38,4.38,0,0,1,248.5,281a9.29,9.29,0,0,1,.39,3.16v5.22q0,1.25,0,1.52.15,1.09.78,1.09a2.82,2.82,0,0,0,.63-.11,2.86,2.86,0,0,1,.63-.11q1,0,1,.91,0,1.06-1.21,1.06a13.38,13.38,0,0,1-1.38-.11,13.28,13.28,0,0,0-1.41-.11,15,15,0,0,0-1.5.11q-1,.11-1.5.11-1.27,0-1.27-1.06,0-.91,1-.91l.61.06a1.56,1.56,0,0,0,.49.06.62.62,0,0,0,.65-.52,14.82,14.82,0,0,0,.17-2.58V285a10.52,10.52,0,0,0-.32-3,2.73,2.73,0,0,0-1.19-1.5,3.68,3.68,0,0,0-2-.55,3.14,3.14,0,0,0-3,1.49,9.08,9.08,0,0,0-.66,4.12v2.15a26.55,26.55,0,0,0,.14,3.56q.14.71.71.71a3.29,3.29,0,0,0,.53-.06,3.41,3.41,0,0,1,.53-.06,1,1,0,0,1,.71.28,1,1,0,0,1,.29.7q0,1-1.42,1a11.09,11.09,0,0,1-1.35-.12,11.13,11.13,0,0,0-1.35-.12,9,9,0,0,0-1.39.12,8.67,8.67,0,0,1-1.33.12q-1.24,0-1.24-1a.82.82,0,0,1,.91-.94,1.25,1.25,0,0,1,.51.08,2.46,2.46,0,0,0,.64.13q.73,0,.76-1.55l.09-1.43v-4.42a6.88,6.88,0,0,0-.71-3.69,2.86,2.86,0,0,0-2.53-1,3.55,3.55,0,0,0-3.06,1.46,7.23,7.23,0,0,0-.88,4.14v4.05q0,1.22,0,1.43.12,1,.67,1a2.57,2.57,0,0,0,.64-.17l.18,0h.21q1.18,0,1.18,1t-1.36,1a11,11,0,0,1-1.27-.09,15.59,15.59,0,0,0-1.76-.12q-.36,0-1.33.09-1.3.12-1.58.12-1.21,0-1.21-1t1.17-.94h.18l.19,0,.77.15a.18.18,0,0,0,.12,0q.83,0,.9-1.49v-6.37a21.57,21.57,0,0,0-.14-3.21.7.7,0,0,0-.74-.64,7.65,7.65,0,0,0-.85.15,2.57,2.57,0,0,1-.49.06q-1.12,0-1.12-1t1.24-1a9,9,0,0,1,.91.06,9.82,9.82,0,0,0,1,.06h.55l.73-.12h.09Q229.65,278.55,229.65,279.43Z"/><path class="cls-5" d="M249.74,150.08q0,.65-1.18.65l-.72,0-.74-.07q-1.17-.07-1.82-.07a5.72,5.72,0,0,1,2.64,4,9.5,9.5,0,0,1,.19,2,5.76,5.76,0,0,1-.68,2.53,7.8,7.8,0,0,1-1.89,2.43,9.92,9.92,0,0,1-6.73,2.31,10.49,10.49,0,0,1-6.78-2,6.94,6.94,0,0,1-2.59-5.71,6.06,6.06,0,0,1,1.39-3.85,7.66,7.66,0,0,1,3.77-2.52,6,6,0,0,1-3.55-3.56,5.21,5.21,0,0,1-.27-1.78,4,4,0,0,1,.61-2.06,5.5,5.5,0,0,1,1.76-1.78,11.73,11.73,0,0,1,6.51-1.59,17.52,17.52,0,0,1,2,.11,10.91,10.91,0,0,1,1.73.33,6.33,6.33,0,0,1,1.23.47q.94.5.94,1.13t-.72.63a1,1,0,0,1-.68-.25,6.09,6.09,0,0,0-.75-.54,5.28,5.28,0,0,0-2.83-.67,18.34,18.34,0,0,0-2.29.09v22.2a6.65,6.65,0,0,0,3.5-.21,9,9,0,0,0,2.72-1.41,5.51,5.51,0,0,0,2.29-4.4,6.55,6.55,0,0,0-1.35-4.3,4.2,4.2,0,0,0-3.37-1.58h-.39q-1.27,0-1.27-.8,0-.57.89-.56l1.71.12q3.63,0,4.84-.1a2.53,2.53,0,0,1,1.55.16A.8.8,0,0,1,249.74,150.08Z"/><path class="cls-5" d="M175.1,183.2l0,3.34-.06,1.83a1.64,1.64,0,0,1-.43,1,2.1,2.1,0,0,1-.93.59,5.15,5.15,0,0,1-1.44.29c-.34,0-.51-.15-.51-.46l0-.25a22.76,22.76,0,0,0,.61-2.29l.11-.53a45.67,45.67,0,0,0,.59-7.85,5.93,5.93,0,0,0-.38-2.48.88.88,0,0,1-.25-.61q0-.92,1.54-1.46a8.22,8.22,0,0,1,2.6-.54,1.17,1.17,0,0,1,1.29.88,16.86,16.86,0,0,1,.44,2q.36,2.2.65,2.21a.38.38,0,0,0,.34-.25q.74-1.87,1-2.54t.28-.84a1.9,1.9,0,0,1,.42-.53,2.14,2.14,0,0,1,.9-.53,5.12,5.12,0,0,1,1.85-.31q1.7,0,1.7.73a1.45,1.45,0,0,1-.19.61,7.15,7.15,0,0,0-.73,3q-.21,2.25-.21,4.43,0,4.39.61,4.81a.93.93,0,0,1,.4.75,1.13,1.13,0,0,1-.59.85,4.37,4.37,0,0,1-1.28.63,4.24,4.24,0,0,1-1.19.21,1.24,1.24,0,0,1-.77-.21.76.76,0,0,1-.31-.42l0-.21a5.46,5.46,0,0,1-.11-1.32q0-1.55.21-4.07l.06-.76a25,25,0,0,0,.19-2.64c0-.64-.06-1-.17-1q-.42,0-1.53,3.93a20.25,20.25,0,0,1-.78,2.31l-.13.29a1,1,0,0,1-1,.76.56.56,0,0,1-.38-.12.62.62,0,0,1-.19-.38,47.77,47.77,0,0,1-1.28-5.08l-.29-1.34q-.11-.34-.27-.34Q175.1,179.37,175.1,183.2Z"/><path class="cls-5" d="M192.81,182.71l-.06,2.92q0,1.74.44,2a.66.66,0,0,1,.27.55,1.43,1.43,0,0,1-.81,1.13,3,3,0,0,1-1.65.52,1,1,0,0,1-.63-.18.51.51,0,0,1-.21-.39q0-.57-.15-.57a1.76,1.76,0,0,0-.26.24,2.83,2.83,0,0,1-.71.48,2.62,2.62,0,0,1-1.2.24,2.33,2.33,0,0,1-1.28-.36,1.84,1.84,0,0,1-.77-.92,4.77,4.77,0,0,1-.38-1.76,4.58,4.58,0,0,1,.25-1.53,3.61,3.61,0,0,1,.63-1.15,4.53,4.53,0,0,1,.88-.79,4.14,4.14,0,0,1,.95-.5,7.8,7.8,0,0,1,.9-.26,5.63,5.63,0,0,1,.9-.12l.21-.27q0-.71-1-.71a3.16,3.16,0,0,0-1.67.4.91.91,0,0,1-.5.17q-.5,0-.5-.76,0-2,3.11-2,2.39,0,3,1.6A5.72,5.72,0,0,1,192.81,182.71Zm-4.51,3.34q0,.88.63.88a1.16,1.16,0,0,0,1-.65,2.33,2.33,0,0,0,.39-1.16q0-.94-.67-.95a1.13,1.13,0,0,0-1,.61A2.36,2.36,0,0,0,188.29,186.05Z"/><path class="cls-5" d="M197.09,187.84l0,.53a1.17,1.17,0,0,1-.48,1,3.58,3.58,0,0,1-2.08.57q-.8,0-.8-.69l.06-.36a31,31,0,0,0,.5-6.07,1.77,1.77,0,0,0-.65-1.55.53.53,0,0,1-.23-.48q0-.65,1-1.27a3.57,3.57,0,0,1,1.67-.62q.63,0,.71.69a4.71,4.71,0,0,1,.08.72c0,.16.06.24.17.24a.17.17,0,0,0,.16-.09l.11-.19a3.1,3.1,0,0,1,.24-.34,2.46,2.46,0,0,1,.4-.41,1.79,1.79,0,0,1,1.22-.48,1.67,1.67,0,0,1,.88.27,2.16,2.16,0,0,1,.82,2,3.38,3.38,0,0,1-.38,1.64,1.29,1.29,0,0,1-1.22.69q-1.05,0-1.05-1.16l0-.31c0-.24-.1-.36-.29-.36q-1.11,0-1.11,3.21Q196.92,185.88,197.09,187.84Z"/><path class="cls-5" d="M209.06,179.23a62.62,62.62,0,0,0-.38,6.92,24.24,24.24,0,0,1-.37,5.05,4.92,4.92,0,0,1-1.43,2.52,3.59,3.59,0,0,1-2.53,1,2.42,2.42,0,0,1-1.49-.47,1.55,1.55,0,0,1-.63-1.31,1.17,1.17,0,0,1,.28-.83,1.15,1.15,0,0,1,.58-.37l.29,0a2.44,2.44,0,0,0,1.27-.4,2,2,0,0,0,.72-.88,4.34,4.34,0,0,0,.34-1.62v-.17q0-.15-.15-.15l-.21.1a1.92,1.92,0,0,1-.68.62,2.19,2.19,0,0,1-.7.26l-.27,0a2.44,2.44,0,0,1-2.42-1.7,7.81,7.81,0,0,1-.44-2.46,10.3,10.3,0,0,1,.21-2.13,8.59,8.59,0,0,1,.66-1.94,3.88,3.88,0,0,1,1.29-1.53,3,3,0,0,1,1.76-.59,2.09,2.09,0,0,1,1.41.42.2.2,0,0,0,.19.13.25.25,0,0,0,.21-.13,2.28,2.28,0,0,1,1.83-1A.59.59,0,0,1,209.06,179.23Zm-4.13,6.68a1,1,0,0,0,.84-.55,2.79,2.79,0,0,0,.32-1.47,3.38,3.38,0,0,0-.38-1.6q-.37-.67-.87-.67a1,1,0,0,0-.83.56,2.84,2.84,0,0,0-.33,1.45,3.33,3.33,0,0,0,.37,1.59Q204.42,185.91,204.93,185.9Z"/><path class="cls-5" d="M217,182.71l-.06,2.92q0,1.74.44,2a.66.66,0,0,1,.27.55,1.43,1.43,0,0,1-.81,1.13,3,3,0,0,1-1.65.52,1,1,0,0,1-.63-.18.51.51,0,0,1-.21-.39q0-.57-.15-.57a1.76,1.76,0,0,0-.26.24,2.83,2.83,0,0,1-.71.48,2.62,2.62,0,0,1-1.2.24,2.33,2.33,0,0,1-1.28-.36,1.84,1.84,0,0,1-.77-.92,4.77,4.77,0,0,1-.38-1.76,4.58,4.58,0,0,1,.25-1.53,3.61,3.61,0,0,1,.63-1.15,4.53,4.53,0,0,1,.88-.79,4.14,4.14,0,0,1,.95-.5,7.8,7.8,0,0,1,.9-.26,5.63,5.63,0,0,1,.9-.12l.21-.27q0-.71-1-.71a3.16,3.16,0,0,0-1.67.4.91.91,0,0,1-.5.17q-.5,0-.5-.76,0-2,3.11-2,2.39,0,3,1.6A5.72,5.72,0,0,1,217,182.71Zm-4.51,3.34q0,.88.63.88a1.16,1.16,0,0,0,1-.65,2.33,2.33,0,0,0,.39-1.16q0-.94-.67-.95a1.13,1.13,0,0,0-1,.61A2.36,2.36,0,0,0,212.5,186.05Z"/><path class="cls-5" d="M221.3,187.84l0,.53a1.17,1.17,0,0,1-.48,1,3.58,3.58,0,0,1-2.08.57q-.8,0-.8-.69l.06-.36a31,31,0,0,0,.5-6.07,1.77,1.77,0,0,0-.65-1.55.53.53,0,0,1-.23-.48q0-.65,1-1.27a3.57,3.57,0,0,1,1.67-.62q.63,0,.71.69a4.71,4.71,0,0,1,.08.72c0,.16.06.24.17.24a.17.17,0,0,0,.16-.09l.11-.19a3.1,3.1,0,0,1,.24-.34,2.46,2.46,0,0,1,.4-.41,1.79,1.79,0,0,1,1.22-.48,1.67,1.67,0,0,1,.88.27,2.16,2.16,0,0,1,.82,2,3.38,3.38,0,0,1-.38,1.64,1.29,1.29,0,0,1-1.22.69q-1.05,0-1.05-1.16l0-.31c0-.24-.1-.36-.29-.36q-1.11,0-1.11,3.21Q221.14,185.88,221.3,187.84Z"/><path class="cls-5" d="M226,182.59a1.31,1.31,0,0,0-.16-.63,2,2,0,0,0-.41-.52.68.68,0,0,1-.25-.5q0-.71,1.09-1.27a4.25,4.25,0,0,1,1.84-.56.68.68,0,0,1,.77.76q0,.53-.09,1.88t-.09,2.51q0,2.79.5,3.51a.56.56,0,0,1,.29.53,1.21,1.21,0,0,1-.77,1.09,3.7,3.7,0,0,1-1.73.4q-1.28,0-1.28-.86s0-.19.06-.48a21.87,21.87,0,0,0,.29-3.76Zm3.09-6.68a1.43,1.43,0,0,1-.75,1.25,2.7,2.7,0,0,1-1.44.47,1.91,1.91,0,0,1-1.08-.26.81.81,0,0,1-.39-.7,1.49,1.49,0,0,1,.76-1.29,2.65,2.65,0,0,1,1.44-.49,1.84,1.84,0,0,1,1.07.27A.87.87,0,0,1,229.12,175.91Z"/><path class="cls-5" d="M233.06,176.16l0,1q0,.55.24.61a1.87,1.87,0,0,0,.47.06l.69,0q.44,0,.44.57,0,1.07-1.53,1.66a.53.53,0,0,0-.29.38q-.13,1.28-.13,3a12.66,12.66,0,0,0,.13,2.27.8.8,0,0,0,.76.61.36.36,0,0,1,.27.15.84.84,0,0,1,.23.54,2.91,2.91,0,0,1,0,.5,4.2,4.2,0,0,1-.2.67,3.88,3.88,0,0,1-.4.8,2.05,2.05,0,0,1-.72.64,2.19,2.19,0,0,1-1.09.27,1.59,1.59,0,0,1-1.51-1.24,3.52,3.52,0,0,1-.17-1.16l.17-5.65a10,10,0,0,0-.12-1.68,2.08,2.08,0,0,0-.81-1.22.68.68,0,0,1-.29-.59,1.09,1.09,0,0,1,.38-.76,6.87,6.87,0,0,0,2.12-2.25.88.88,0,0,1,.74-.4Q233.06,174.92,233.06,176.16Z"/><path class="cls-5" d="M242.18,182.71l-.06,2.92q0,1.74.44,2a.66.66,0,0,1,.27.55,1.43,1.43,0,0,1-.81,1.13,3,3,0,0,1-1.65.52,1,1,0,0,1-.63-.18.51.51,0,0,1-.21-.39q0-.57-.15-.57a1.76,1.76,0,0,0-.26.24,2.83,2.83,0,0,1-.71.48,2.62,2.62,0,0,1-1.2.24,2.33,2.33,0,0,1-1.28-.36,1.84,1.84,0,0,1-.77-.92,4.77,4.77,0,0,1-.38-1.76,4.58,4.58,0,0,1,.25-1.53,3.61,3.61,0,0,1,.63-1.15,4.53,4.53,0,0,1,.88-.79,4.14,4.14,0,0,1,.95-.5,7.8,7.8,0,0,1,.9-.26,5.63,5.63,0,0,1,.9-.12l.21-.27q0-.71-1-.71a3.16,3.16,0,0,0-1.67.4.91.91,0,0,1-.5.17q-.5,0-.5-.76,0-2,3.11-2,2.39,0,3,1.6A5.72,5.72,0,0,1,242.18,182.71Zm-4.51,3.34q0,.88.63.88a1.16,1.16,0,0,0,1-.65,2.33,2.33,0,0,0,.39-1.16q0-.94-.67-.95a1.13,1.13,0,0,0-1,.61A2.36,2.36,0,0,0,237.66,186.05Z"/><path class="cls-5" d="M246.86,178.93q2.77,0,2.77,1.64a1.08,1.08,0,0,1-.3.78.94.94,0,0,1-.69.31,1.45,1.45,0,0,1-.75-.21,1.55,1.55,0,0,0-.8-.21q-1.07,0-1.07.61a.54.54,0,0,0,.34.46,8.45,8.45,0,0,1,3,2,3.78,3.78,0,0,1,.61,2.16,3.74,3.74,0,0,1-.21,1.11,3.49,3.49,0,0,1-.57,1.1,3.21,3.21,0,0,1-1.13.83,4.19,4.19,0,0,1-1.85.38,5.77,5.77,0,0,1-1.62-.25,2.07,2.07,0,0,1-1.74-2.08,2,2,0,0,1,.42-1.27,1.29,1.29,0,0,1,1-.54,1,1,0,0,1,.9.38l.13.19a1.49,1.49,0,0,0,.19.25,1,1,0,0,0,.71.27,1,1,0,0,0,.69-.22.76.76,0,0,0,.25-.6q0-.38-.59-.78a7.35,7.35,0,0,0-1.29-.69,3.67,3.67,0,0,1-1.29-.93,2.15,2.15,0,0,1-.59-1.5,3,3,0,0,1,1-2.34A3.55,3.55,0,0,1,246.86,178.93Z"/><polygon class="cls-5" points="248.15 244.85 39.85 244.85 48.12 233.36 39.85 221.88 248.15 221.88 238.97 233.36 248.15 244.85"/><path class="cls-7" d="M102.71,232.22h-2.15v3.88H99.32v-3.88h-1.6V231h1.6v-1.67h1.24V231h2.15Z"/><path class="cls-7" d="M105,236.1h-1.23v-7.27H105Zm4.43,0h-1.23v-3.39a.5.5,0,0,0-.12-.37.49.49,0,0,0-.37-.12h-2.22V231h2.22a1.84,1.84,0,0,1,.37,0,1.89,1.89,0,0,1,.39.13,1.82,1.82,0,0,1,.37.22,1.46,1.46,0,0,1,.31.33,1.68,1.68,0,0,1,.21.44,1.86,1.86,0,0,1,.08.57Z"/><path class="cls-7" d="M116.31,232.68a1.91,1.91,0,0,1-.09.55,1.66,1.66,0,0,1-.29.55,1.62,1.62,0,0,1-.52.42,1.68,1.68,0,0,1-.79.17H112.4v-1.17h2.22a.49.49,0,0,0,.39-.15.55.55,0,0,0,.14-.38.48.48,0,0,0-.15-.38.54.54,0,0,0-.37-.14H112.4a.49.49,0,0,0-.39.15.55.55,0,0,0-.14.38v1.71a.49.49,0,0,0,.15.38.55.55,0,0,0,.38.14h2.21v1.17H112.4a1.9,1.9,0,0,1-.55-.09,1.66,1.66,0,0,1-.55-.29,1.63,1.63,0,0,1-.42-.53,1.67,1.67,0,0,1-.17-.79v-1.72a1.91,1.91,0,0,1,.09-.55,1.65,1.65,0,0,1,.29-.55,1.63,1.63,0,0,1,.53-.42,1.67,1.67,0,0,1,.79-.17h2.22a1.88,1.88,0,0,1,.55.09,1.62,1.62,0,0,1,.55.29,1.61,1.61,0,0,1,.42.52A1.68,1.68,0,0,1,116.31,232.68Z"/><path class="cls-7" d="M126.4,234.37a1.91,1.91,0,0,1-.08.57,1.67,1.67,0,0,1-.21.44,1.42,1.42,0,0,1-.31.33,1.77,1.77,0,0,1-.37.22,1.92,1.92,0,0,1-.38.13,1.78,1.78,0,0,1-.37,0h-2.22v-1.23h2.22a.49.49,0,0,0,.37-.13.51.51,0,0,0,.12-.37v-1.65a.51.51,0,0,0-.13-.38.5.5,0,0,0-.37-.12h-2.21a.52.52,0,0,0-.38.13.49.49,0,0,0-.13.37v5h-1.23v-5a1.86,1.86,0,0,1,.08-.57,1.6,1.6,0,0,1,.21-.44,1.49,1.49,0,0,1,.31-.33,1.77,1.77,0,0,1,.37-.22,1.91,1.91,0,0,1,.75-.17h2.22a1.85,1.85,0,0,1,.57.08,1.69,1.69,0,0,1,.44.21,1.45,1.45,0,0,1,.33.31,1.77,1.77,0,0,1,.22.37,1.86,1.86,0,0,1,.13.38,1.84,1.84,0,0,1,0,.37Z"/><path class="cls-7" d="M133,234.4a1.91,1.91,0,0,1-.09.55,1.61,1.61,0,0,1-.82,1,1.67,1.67,0,0,1-.79.17h-2.22a1.91,1.91,0,0,1-.55-.09,1.66,1.66,0,0,1-.55-.29,1.62,1.62,0,0,1-.42-.53,1.67,1.67,0,0,1-.17-.79,1.94,1.94,0,0,1,.09-.55,1.66,1.66,0,0,1,.29-.55,1.62,1.62,0,0,1,.52-.42,1.68,1.68,0,0,1,.79-.17h2.22v1.17h-2.22a.5.5,0,0,0-.39.15.56.56,0,0,0-.14.38.47.47,0,0,0,.16.38.56.56,0,0,0,.38.13h2.21a.49.49,0,0,0,.39-.15.54.54,0,0,0,.14-.38v-1.72a.5.5,0,0,0-.15-.38.52.52,0,0,0-.37-.14h-2.7V231h2.7a1.87,1.87,0,0,1,.55.09,1.61,1.61,0,0,1,1,.81,1.68,1.68,0,0,1,.17.79Z"/><path class="cls-7" d="M138.73,232.22H136a.52.52,0,0,0-.38.13.49.49,0,0,0-.13.37v3.39h-1.23v-3.39a1.86,1.86,0,0,1,.08-.57,1.6,1.6,0,0,1,.21-.44,1.49,1.49,0,0,1,.31-.33,1.77,1.77,0,0,1,.37-.22A1.91,1.91,0,0,1,136,231h2.77Z"/><path class="cls-7" d="M144.42,232.22h-2.15v3.88H141v-3.88h-1.6V231H141v-1.67h1.24V231h2.15Z"/><path class="cls-7" d="M149.38,236.1h-2.22a2,2,0,0,1-.57-.09,1.65,1.65,0,0,1-.56-.3,1.6,1.6,0,0,1-.43-.53,1.73,1.73,0,0,1-.17-.81V231h1.23v3.38a.5.5,0,0,0,.13.37.51.51,0,0,0,.38.13h2.21Zm1.72.49a1.91,1.91,0,0,1-.08.57,1.67,1.67,0,0,1-.21.44,1.44,1.44,0,0,1-.31.33,1.77,1.77,0,0,1-.37.22,1.84,1.84,0,0,1-.75.17h-2.22v-1.23h2.22a.49.49,0,0,0,.37-.13.51.51,0,0,0,.12-.37V231h1.23Z"/><path class="cls-7" d="M160.85,234.37a1.88,1.88,0,0,1-.08.57,1.64,1.64,0,0,1-.21.44,1.42,1.42,0,0,1-.31.33,1.83,1.83,0,0,1-.37.22,1.93,1.93,0,0,1-.39.13,1.82,1.82,0,0,1-.37,0h-3.33v-1.23h3.32a.52.52,0,0,0,.38-.13.5.5,0,0,0,.13-.37.45.45,0,0,0-.5-.49h-1.9a1.53,1.53,0,0,1-.69-.14,1.4,1.4,0,0,1-.46-.35,1.36,1.36,0,0,1-.26-.46,1.53,1.53,0,0,1-.08-.46,1.48,1.48,0,0,1,.15-.69,1.39,1.39,0,0,1,.37-.46,1.44,1.44,0,0,1,.48-.25,1.68,1.68,0,0,1,.49-.08h3v1.23h-3l-.15,0a.17.17,0,0,0-.08.06.16.16,0,0,0,0,.08.72.72,0,0,0,0,.08.27.27,0,0,0,0,.12.15.15,0,0,0,.06.06l.08,0h2a1.73,1.73,0,0,1,.8.17,1.6,1.6,0,0,1,.53.43,1.7,1.7,0,0,1,.29.56A1.94,1.94,0,0,1,160.85,234.37Z"/><path class="cls-7" d="M166.51,232.22h-2.15v3.88h-1.24v-3.88h-1.6V231h1.6v-1.67h1.24V231h2.15Z"/><path class="cls-7" d="M172.54,234.4a1.91,1.91,0,0,1-.09.55,1.61,1.61,0,0,1-.82,1,1.67,1.67,0,0,1-.79.17h-2.22a1.91,1.91,0,0,1-.55-.09,1.66,1.66,0,0,1-.55-.29,1.62,1.62,0,0,1-.42-.53,1.67,1.67,0,0,1-.17-.79,1.94,1.94,0,0,1,.09-.55,1.66,1.66,0,0,1,.29-.55,1.62,1.62,0,0,1,.52-.42,1.68,1.68,0,0,1,.79-.17h2.22v1.17h-2.22a.5.5,0,0,0-.39.15.56.56,0,0,0-.14.38.47.47,0,0,0,.16.38.56.56,0,0,0,.38.13h2.21a.49.49,0,0,0,.39-.15.54.54,0,0,0,.14-.38v-1.72a.5.5,0,0,0-.15-.38.52.52,0,0,0-.37-.14h-2.7V231h2.7a1.87,1.87,0,0,1,.55.09,1.61,1.61,0,0,1,1,.81,1.68,1.68,0,0,1,.17.79Z"/><path class="cls-7" d="M178.3,232.22h-2.76a.52.52,0,0,0-.38.13.49.49,0,0,0-.13.37v3.39H173.8v-3.39a1.86,1.86,0,0,1,.08-.57,1.6,1.6,0,0,1,.21-.44,1.49,1.49,0,0,1,.31-.33,1.77,1.77,0,0,1,.37-.22,1.91,1.91,0,0,1,.75-.17h2.77Z"/><path class="cls-7" d="M184,232.22h-2.15v3.88h-1.24v-3.88H179V231h1.6v-1.67h1.24V231H184Z"/><path class="cls-7" d="M190,234.37a1.88,1.88,0,0,1-.08.57,1.64,1.64,0,0,1-.21.44,1.42,1.42,0,0,1-.31.33,1.83,1.83,0,0,1-.37.22,1.93,1.93,0,0,1-.39.13,1.82,1.82,0,0,1-.37,0h-3.33v-1.23h3.32a.52.52,0,0,0,.38-.13.5.5,0,0,0,.13-.37.45.45,0,0,0-.5-.49h-1.9a1.53,1.53,0,0,1-.69-.14,1.4,1.4,0,0,1-.46-.35,1.36,1.36,0,0,1-.26-.46,1.53,1.53,0,0,1-.08-.46,1.48,1.48,0,0,1,.15-.69,1.39,1.39,0,0,1,.37-.46,1.44,1.44,0,0,1,.48-.25,1.68,1.68,0,0,1,.49-.08h3v1.23h-3l-.15,0a.17.17,0,0,0-.08.06.16.16,0,0,0,0,.08.72.72,0,0,0,0,.08.27.27,0,0,0,0,.12.15.15,0,0,0,.06.06l.08,0h2a1.73,1.73,0,0,1,.8.17,1.6,1.6,0,0,1,.53.43,1.7,1.7,0,0,1,.29.56A1.94,1.94,0,0,1,190,234.37Z"/><path class="cls-5" d="M175.16,114.26a1,1,0,0,1,.36-.79,1.3,1.3,0,0,1,1.74,0,1,1,0,0,1,.36.79,1,1,0,0,1-.36.8,1.22,1.22,0,0,1-.87.33,1.25,1.25,0,0,1-.87-.33A1.05,1.05,0,0,1,175.16,114.26Zm2.18,3.12V129h-1.89v-11.6Z"/><path class="cls-5" d="M179.34,121.08a3.59,3.59,0,0,1,1.27-2.77,4.77,4.77,0,0,1,6.2,0,3.79,3.79,0,0,1,0,5.65,4.55,4.55,0,0,1-3.13,1.13,4.36,4.36,0,0,1-3.08-1.16A3.73,3.73,0,0,1,179.34,121.08Zm1.93,0a2.51,2.51,0,0,0,4.2,1.79,2.64,2.64,0,0,0,0-3.5,2.68,2.68,0,0,0-3.53,0A2.3,2.3,0,0,0,181.27,121.12Z"/><path class="cls-5" d="M189.78,114.26a1,1,0,0,1,.36-.79,1.3,1.3,0,0,1,1.74,0,1,1,0,0,1,.36.79,1,1,0,0,1-.36.8,1.22,1.22,0,0,1-.87.33,1.25,1.25,0,0,1-.87-.33A1.05,1.05,0,0,1,189.78,114.26Zm2.18,3.12v7.51h-1.89v-7.51Z"/><path class="cls-5" d="M194.35,117.38h1.9v.69a3.24,3.24,0,0,1,2.24-.9,3,3,0,0,1,2.23.83,3.19,3.19,0,0,1,.69,2.29v4.6h-1.9V120.7a2.57,2.57,0,0,0-.34-1.53,1.42,1.42,0,0,0-1.19-.43,1.51,1.51,0,0,0-1.34.57,3.65,3.65,0,0,0-.39,2v3.62h-1.9Z"/><path class="cls-5" d="M211,117.38v4.31q0,1.87,1.6,1.87t1.6-1.87v-4.31h1.89v4.35a4.48,4.48,0,0,1-.24,1.56,2.64,2.64,0,0,1-.82,1.06,4.26,4.26,0,0,1-4.87,0,2.69,2.69,0,0,1-.83-1.06,4,4,0,0,1-.24-1.56v-4.35Z"/><path class="cls-5" d="M223.23,118.66l-1.56.76a1.07,1.07,0,0,0-.92-.69.66.66,0,0,0-.45.16.51.51,0,0,0-.18.4q0,.43,1.09.86a6.67,6.67,0,0,1,2,1.1,1.78,1.78,0,0,1,.52,1.35,2.28,2.28,0,0,1-.87,1.82,3.14,3.14,0,0,1-2.05.69,3,3,0,0,1-2.92-1.84l1.61-.69a3.2,3.2,0,0,0,.51.69,1.23,1.23,0,0,0,.82.29q1,0,1-.8c0-.31-.25-.6-.74-.86l-.57-.25-.58-.25a3.59,3.59,0,0,1-1.16-.74,1.73,1.73,0,0,1-.43-1.21,2.06,2.06,0,0,1,.73-1.62,2.7,2.7,0,0,1,1.82-.64A2.48,2.48,0,0,1,223.23,118.66Z"/><path class="cls-5" d="M232.73,119v5.89h-1.9V119h-.67v-1.62h.67v-2.9a3,3,0,0,1,.54-2,2.75,2.75,0,0,1,2.15-.82,4,4,0,0,1,1.27.27v1.77l-.19-.09a2.52,2.52,0,0,0-1-.29.7.7,0,0,0-.68.33,3,3,0,0,0-.18,1.25v2.47h2.06V119Z"/><path class="cls-5" d="M235.7,121.08a3.59,3.59,0,0,1,1.27-2.77,4.77,4.77,0,0,1,6.2,0,3.79,3.79,0,0,1,0,5.65,4.55,4.55,0,0,1-3.13,1.13,4.36,4.36,0,0,1-3.08-1.16A3.73,3.73,0,0,1,235.7,121.08Zm1.93,0a2.51,2.51,0,0,0,4.2,1.79,2.64,2.64,0,0,0,0-3.5,2.68,2.68,0,0,0-3.53,0A2.3,2.3,0,0,0,237.64,121.12Z"/><path class="cls-5" d="M246.43,117.38h1.89v.67a3.58,3.58,0,0,1,.92-.69,2.29,2.29,0,0,1,1-.19,3.25,3.25,0,0,1,1.56.45l-.87,1.59a1.91,1.91,0,0,0-1-.36q-1.55,0-1.55,2.14v3.89h-1.89Z"/><path class="cls-5" d="M66.51,116.38a.59.59,0,0,0,.28.35,1.17,1.17,0,0,0,.53.1v.34q-1.72-.06-2.27-.06l-2.4.06v-.34a1.17,1.17,0,0,0,.53-.1.59.59,0,0,0,.28-.35,2.21,2.21,0,0,0,.09-.7v-5.08a2.14,2.14,0,0,0-.2-1.07.75.75,0,0,0-.7-.33v-.34c.34,0,.67,0,1,0a14.84,14.84,0,0,0,2.78-.22v7A2.21,2.21,0,0,0,66.51,116.38ZM66.18,105a1.39,1.39,0,0,1,0,2.05,2.57,2.57,0,0,1-2.59,0,1.41,1.41,0,0,1,0-2.06,2.55,2.55,0,0,1,2.59,0Z"/><path class="cls-5" d="M69,115.6a2.64,2.64,0,0,0,.72,1,1.54,1.54,0,0,0,1,.37,1,1,0,0,0,.67-.22.81.81,0,0,0,.26-.65,1.72,1.72,0,0,0-.18-.8,2.69,2.69,0,0,0-.45-.63q-.27-.28-.85-.81t-1-1a3.69,3.69,0,0,1-.6-.86,2.34,2.34,0,0,1-.25-1.08,1.89,1.89,0,0,1,.41-1.21,2.69,2.69,0,0,1,1.1-.81,3.85,3.85,0,0,1,1.49-.29,4.82,4.82,0,0,1,1.18.14,3.6,3.6,0,0,1,.84.3.6.6,0,0,0,.29.09q.32,0,.4-.52h.32q-.06.84-.06,2.88h-.32a4.12,4.12,0,0,0-.6-1.78A1.53,1.53,0,0,0,72,109a1,1,0,0,0-.68.24.83.83,0,0,0-.27.65,1.4,1.4,0,0,0,.36.95,6.08,6.08,0,0,0,.85.79l.71.57q.59.49.95.85a3,3,0,0,1,.57.82,2.4,2.4,0,0,1,.21,1,2,2,0,0,1-.43,1.28,2.82,2.82,0,0,1-1.17.88,4.12,4.12,0,0,1-1.62.31,3.06,3.06,0,0,1-1.65-.41,2,2,0,0,0-.8-.27q-.3,0-.45.55h-.32q.06-.91.06-3.2h.32A5.56,5.56,0,0,0,69,115.6Z"/><path class="cls-5" d="M84.15,108.88v.32H82.58v6.63a.71.71,0,0,0,.11.45.46.46,0,0,0,.38.13,1,1,0,0,0,.43-.11,1.26,1.26,0,0,0,.43-.36l.24.2a2.45,2.45,0,0,1-2.27,1.27,2.24,2.24,0,0,1-1.65-.55,1.64,1.64,0,0,1-.44-.83,6.88,6.88,0,0,1-.11-1.4V109.2H78.49v-.32H79.7V107a6.65,6.65,0,0,0,1.56-.17,4.83,4.83,0,0,0,1.32-.54v2.61Z"/><path class="cls-5" d="M93.11,116.5a.75.75,0,0,0,.7.33v.34q-.5,0-1,0a14.14,14.14,0,0,0-2.78.23v-1.16a2.73,2.73,0,0,1-2.55,1.2,2.23,2.23,0,0,1-1.8-.64,1.84,1.84,0,0,1-.36-.77,5.9,5.9,0,0,1-.11-1.29v-4.09a2.18,2.18,0,0,0-.2-1.07.74.74,0,0,0-.69-.33v-.34q.5,0,1,0a14.92,14.92,0,0,0,2.78-.22v6.86a1.26,1.26,0,0,0,.19.76.7.7,0,0,0,.59.25,1.14,1.14,0,0,0,.56-.15,1.18,1.18,0,0,0,.43-.41,1.09,1.09,0,0,0,.16-.59v-4.8a2.14,2.14,0,0,0-.2-1.07.75.75,0,0,0-.7-.33v-.34q.5,0,1,0a14.84,14.84,0,0,0,2.78-.22v6.73A2.14,2.14,0,0,0,93.11,116.5Z"/><path class="cls-5" d="M100.27,108.64a1.29,1.29,0,0,1,1.13.48,1.9,1.9,0,0,1,.34,1.14,1.6,1.6,0,0,1-.4,1.14,1.4,1.4,0,0,1-1.07.43,1.61,1.61,0,0,1-1.06-.31,1,1,0,0,1-.37-.84,1.69,1.69,0,0,1,.82-1.49,1.17,1.17,0,0,0-.52.11,1.54,1.54,0,0,0-.68.57,1.5,1.5,0,0,0-.27.86v4.8a1.82,1.82,0,0,0,.14.79.8.8,0,0,0,.44.4,2.22,2.22,0,0,0,.8.12v.34q-2-.06-2.59-.06l-2.56.06v-.34a1.17,1.17,0,0,0,.53-.1.59.59,0,0,0,.28-.35,2.21,2.21,0,0,0,.09-.7v-5.08a2.14,2.14,0,0,0-.2-1.07.75.75,0,0,0-.7-.33v-.34c.34,0,.67,0,1,0a14.84,14.84,0,0,0,2.78-.22v1.15A2.16,2.16,0,0,1,100.27,108.64Z"/><path class="cls-5" d="M108.45,108.64a2.23,2.23,0,0,1,1.8.64,1.84,1.84,0,0,1,.36.78,6,6,0,0,1,.11,1.29v4.34a2.21,2.21,0,0,0,.09.7.59.59,0,0,0,.28.35,1.14,1.14,0,0,0,.53.1v.34l-2.23-.06q-.56,0-2.27.06v-.34a.8.8,0,0,0,.44-.1.58.58,0,0,0,.23-.35,2.68,2.68,0,0,0,.07-.7v-5.2a1.26,1.26,0,0,0-.19-.76.7.7,0,0,0-.59-.25,1.14,1.14,0,0,0-.56.15,1.18,1.18,0,0,0-.43.41,1.09,1.09,0,0,0-.16.59v5.06a2.69,2.69,0,0,0,.07.7.58.58,0,0,0,.23.35.82.82,0,0,0,.44.1v.34q-1.62-.06-2.12-.06l-2.4.06v-.34a1.17,1.17,0,0,0,.53-.1.59.59,0,0,0,.28-.35,2.21,2.21,0,0,0,.09-.7v-5.08a2.14,2.14,0,0,0-.2-1.07.75.75,0,0,0-.7-.33v-.34c.34,0,.67,0,1,0a14.84,14.84,0,0,0,2.78-.22v1.15A2.73,2.73,0,0,1,108.45,108.64Z"/><path class="cls-5" d="M116,116.38a.59.59,0,0,0,.28.35,1.17,1.17,0,0,0,.53.1v.34q-1.72-.06-2.27-.06l-2.4.06v-.34a1.17,1.17,0,0,0,.53-.1.59.59,0,0,0,.28-.35,2.21,2.21,0,0,0,.09-.7v-5.08a2.14,2.14,0,0,0-.2-1.07.75.75,0,0,0-.7-.33v-.34c.34,0,.67,0,1,0a14.84,14.84,0,0,0,2.78-.22v7A2.21,2.21,0,0,0,116,116.38ZM115.66,105a1.39,1.39,0,0,1,0,2.05,2.57,2.57,0,0,1-2.59,0,1.41,1.41,0,0,1,0-2.06,2.55,2.55,0,0,1,2.59,0Z"/><path class="cls-5" d="M123.73,108.64a2.23,2.23,0,0,1,1.8.64,1.84,1.84,0,0,1,.36.78,6,6,0,0,1,.11,1.29v4.34a2.21,2.21,0,0,0,.09.7.59.59,0,0,0,.28.35,1.14,1.14,0,0,0,.53.1v.34l-2.23-.06q-.56,0-2.27.06v-.34a.8.8,0,0,0,.44-.1.58.58,0,0,0,.23-.35,2.68,2.68,0,0,0,.07-.7v-5.2a1.26,1.26,0,0,0-.19-.76.7.7,0,0,0-.59-.25,1.14,1.14,0,0,0-.56.15,1.18,1.18,0,0,0-.43.41,1.09,1.09,0,0,0-.16.59v5.06a2.69,2.69,0,0,0,.07.7.58.58,0,0,0,.23.35.82.82,0,0,0,.44.1v.34q-1.62-.06-2.12-.06l-2.4.06v-.34a1.17,1.17,0,0,0,.53-.1.59.59,0,0,0,.28-.35,2.21,2.21,0,0,0,.09-.7v-5.08a2.14,2.14,0,0,0-.2-1.07.75.75,0,0,0-.7-.33v-.34c.34,0,.67,0,1,0a14.84,14.84,0,0,0,2.78-.22v1.15A2.73,2.73,0,0,1,123.73,108.64Z"/><path class="cls-5" d="M135.24,115.37a1.61,1.61,0,0,1,.65,1.43,2.82,2.82,0,0,1-.53,1.63,3.79,3.79,0,0,1-1.6,1.26,6.24,6.24,0,0,1-2.61.49,10.41,10.41,0,0,1-2.22-.19,2.87,2.87,0,0,1-1.19-.49.85.85,0,0,1-.35-.65.57.57,0,0,1,.32-.58,4.34,4.34,0,0,1,1.17-.24,1.7,1.7,0,0,0,1.14-.45h-.52a2.8,2.8,0,0,1-.84-.14,1.64,1.64,0,0,1-.75-.51,1.51,1.51,0,0,1-.32-1,2.05,2.05,0,0,1,.2-.93,2.23,2.23,0,0,1,.64-.75,6.61,6.61,0,0,1,1.23-.71,3,3,0,0,1-1.43-.86,2.35,2.35,0,0,1,0-2.89,2.85,2.85,0,0,1,1.32-.86,6.18,6.18,0,0,1,2-.28,7,7,0,0,1,1,.06c0-.11,0-.22,0-.33a2.44,2.44,0,0,1,.45-1.54,1.61,1.61,0,0,1,1.36-.58,1.64,1.64,0,0,1,1,.29.92.92,0,0,1,.39.79.88.88,0,0,1-.18.54,1.19,1.19,0,0,1-.47.38,1.57,1.57,0,0,1-.66.14,1.65,1.65,0,0,1-.88-.21,1.56,1.56,0,0,1-.55-.63,2.64,2.64,0,0,0-.11.84,3,3,0,0,0,0,.38,3.51,3.51,0,0,1,1.8.84,2.12,2.12,0,0,1,.65,1.62,2.15,2.15,0,0,1-.48,1.43,2.85,2.85,0,0,1-1.32.86,6.18,6.18,0,0,1-2,.28,6.76,6.76,0,0,1-1.52-.16,2.25,2.25,0,0,0-.48.39.61.61,0,0,0-.14.41q0,.52.57.52h3.63A3,3,0,0,1,135.24,115.37Zm-5,2.75a3.37,3.37,0,0,0,0,.5,1.22,1.22,0,0,0,.37.95,1.55,1.55,0,0,0,1.08.34,2.48,2.48,0,0,0,1.09-.23,1.75,1.75,0,0,0,.73-.64,1.71,1.71,0,0,0,.26-.94.46.46,0,0,0-.17-.39,1,1,0,0,0-.57-.13h-2.59A2,2,0,0,0,130.19,118.12Zm.68-8.67a7.52,7.52,0,0,0,0,3.5q.21.52.61.52c.27,0,.48-.17.61-.52a7.53,7.53,0,0,0,0-3.51c-.14-.35-.34-.52-.61-.52S131,109.1,130.86,109.45Z"/><path class="cls-8" d="M36.61,159.74a25.24,25.24,0,0,1,2.16-10.52,22.6,22.6,0,0,1,5.87-8,27.08,27.08,0,0,1,8.69-4.94,31.56,31.56,0,0,1,10.62-1.76,36.92,36.92,0,0,1,12.67,2.13,27.4,27.4,0,0,1,9.83,5.94l-2.11,1.56A24.77,24.77,0,0,0,75.42,139a35,35,0,0,0-11.47-1.84,29.85,29.85,0,0,0-9.6,1.51A24.6,24.6,0,0,0,46.5,143a19.25,19.25,0,0,0-5.33,7.11,23.32,23.32,0,0,0-1.94,9.67v15.78a22,22,0,0,0,1.31,7.69,18.7,18.7,0,0,0,3.64,6.13,22.09,22.09,0,0,0,5.51,4.4,25.86,25.86,0,0,0,7,2.71,35,35,0,0,0,8,.89A28.63,28.63,0,0,0,73.56,196a23.26,23.26,0,0,0,7.29-3.8,17.88,17.88,0,0,0,4.91-6,16.79,16.79,0,0,0,1.82-7.74,17.29,17.29,0,0,0-1.74-7.71,17.49,17.49,0,0,0-4.6-5.91,21.72,21.72,0,0,0-6.49-3.65,21.94,21.94,0,0,0-7.49-1.31,31.78,31.78,0,0,0-10.32,1.64V158.8a38.05,38.05,0,0,1,10.47-1.42,24.84,24.84,0,0,1,8.6,1.51,23.68,23.68,0,0,1,7.27,4.18,19.62,19.62,0,0,1,5,6.67,20.08,20.08,0,0,1,1.89,8.69,19.43,19.43,0,0,1-2,8.78A20.24,20.24,0,0,1,82.71,194a26,26,0,0,1-8.12,4.34,31,31,0,0,1-9.91,1.56,35.41,35.41,0,0,1-10.92-1.64,27.89,27.89,0,0,1-8.91-4.69,21.3,21.3,0,0,1-6-7.72,24.06,24.06,0,0,1-2.2-10.38Zm5.23,0a20.45,20.45,0,0,1,1.75-8.56,17,17,0,0,1,4.76-6.29,22,22,0,0,1,7-3.78,27.1,27.1,0,0,1,8.58-1.33,32.69,32.69,0,0,1,10.4,1.6,22.46,22.46,0,0,1,8,4.51l-2,1.64a20.16,20.16,0,0,0-7.18-3.8,30.91,30.91,0,0,0-9.21-1.33,24.34,24.34,0,0,0-7.56,1.15,19.33,19.33,0,0,0-6.2,3.29,14.81,14.81,0,0,0-4.2,5.47,17.62,17.62,0,0,0-1.53,7.43v15.78A16.38,16.38,0,0,0,46,182.84a13.79,13.79,0,0,0,4.36,5.22,20.24,20.24,0,0,0,6.4,3,29,29,0,0,0,7.87,1,20.7,20.7,0,0,0,12.6-3.73,11.73,11.73,0,0,0,5.07-9.94,12.59,12.59,0,0,0-2.16-7.34,13,13,0,0,0-5.54-4.62A18.26,18.26,0,0,0,67.18,165a31,31,0,0,0-10.25,1.71V164a35.25,35.25,0,0,1,10.32-1.56,19.54,19.54,0,0,1,8.89,2,16.16,16.16,0,0,1,6.43,5.71A14.78,14.78,0,0,1,85,178.43a14.22,14.22,0,0,1-2.74,8.6,17.26,17.26,0,0,1-7.34,5.73,25.72,25.72,0,0,1-10.2,2,30.46,30.46,0,0,1-8.85-1.24,23.23,23.23,0,0,1-7.23-3.58,16.31,16.31,0,0,1-4.94-6,18.78,18.78,0,0,1-1.8-8.34Zm5.24,0a14.18,14.18,0,0,1,2.31-8.16,13.55,13.55,0,0,1,6.05-5A21.67,21.67,0,0,1,63.95,145q9.23,0,14.32,4.14l-2.07,1.6q-4.33-3.13-12.25-3.13a16.1,16.1,0,0,0-10.23,3.15q-4,3.14-4,9v15.78a11.57,11.57,0,0,0,1.15,5.31,8.66,8.66,0,0,0,3.25,3.54,15.66,15.66,0,0,0,4.73,1.89,26.22,26.22,0,0,0,5.85.6,16.45,16.45,0,0,0,8.91-2.22,7,7,0,0,0,3.53-6.22,7.36,7.36,0,0,0-2.94-6.27A11.63,11.63,0,0,0,67,170a26.42,26.42,0,0,0-10.07,1.93v-2.76A31.74,31.74,0,0,1,67,167.49a14,14,0,0,1,9,2.93,9.68,9.68,0,0,1,3.69,8,9.33,9.33,0,0,1-4.29,8.09,18.5,18.5,0,0,1-10.76,3,27,27,0,0,1-6.83-.82,18.08,18.08,0,0,1-5.56-2.45,11.29,11.29,0,0,1-3.82-4.36,13.81,13.81,0,0,1-1.38-6.33Zm5.23,0a8.24,8.24,0,0,1,3.25-7.11,13.84,13.84,0,0,1,8.38-2.38q6.73,0,10.25,2.18L72.09,154q-2.36-1.16-8.14-1.16a11.79,11.79,0,0,0-6.54,1.62,5.81,5.81,0,0,0-2.47,5.25v15.78a6.52,6.52,0,0,0,.53,2.74,4.84,4.84,0,0,0,1.35,1.8,5.69,5.69,0,0,0,2.18,1,16.42,16.42,0,0,0,2.62.45q1.26.11,3.07.11,7.2,0,7.2-3.2a2.87,2.87,0,0,0-1.45-2.69,7.46,7.46,0,0,0-3.75-.84,23.39,23.39,0,0,0-9.74,2v-2.62a25.65,25.65,0,0,1,9.78-1.85,10,10,0,0,1,5.56,1.44,5,5,0,0,1,2.22,4.53,4.67,4.67,0,0,1-2.74,4.36,15.06,15.06,0,0,1-7.07,1.45,29,29,0,0,1-3.89-.24,15.71,15.71,0,0,1-3.36-.84,8.52,8.52,0,0,1-2.71-1.56A6.84,6.84,0,0,1,53,179.1a9.13,9.13,0,0,1-.65-3.58Z"/><path class="cls-8" d="M98.3,184.35a40.5,40.5,0,0,1,0-34.17,28.13,28.13,0,0,1,50.6,0,40.5,40.5,0,0,1,0,34.17,28.13,28.13,0,0,1-50.6,0ZM99.14,155a38.88,38.88,0,0,0,0,24.61,28,28,0,0,0,5.51,9.54,24.74,24.74,0,0,0,8.4,6.07,26.65,26.65,0,0,0,21.12,0,24.75,24.75,0,0,0,8.4-6.07,28,28,0,0,0,5.51-9.54,38.88,38.88,0,0,0,0-24.61,28,28,0,0,0-5.51-9.54,24.75,24.75,0,0,0-8.4-6.07,26.65,26.65,0,0,0-21.12,0,24.74,24.74,0,0,0-8.4,6.07A28,28,0,0,0,99.14,155Zm45.24-2.15a35.52,35.52,0,0,1,0,28.9,23,23,0,0,1-8.49,9.65,24,24,0,0,1-24.58,0,23,23,0,0,1-8.49-9.65,35.52,35.52,0,0,1,0-28.9,23,23,0,0,1,8.49-9.65,24,24,0,0,1,24.58,0A23,23,0,0,1,144.38,152.82Zm-36.1-3.62q-5.91,6.8-5.91,18.07t5.91,18.07a20.67,20.67,0,0,0,30.65,0q5.91-6.8,5.91-18.07t-5.91-18.07a20.67,20.67,0,0,0-30.65,0Zm28.79,1.85q5.14,6,5.14,16.21t-5.14,16.21a18,18,0,0,1-26.94,0q-5.14-6-5.14-16.21t5.14-16.21a18,18,0,0,1,26.94,0ZM112,152.89q-4.38,5.25-4.38,14.38T112,181.64a15.47,15.47,0,0,0,23.23,0q4.38-5.25,4.38-14.38t-4.38-14.38a15.47,15.47,0,0,0-23.23,0Zm21.38,1.85q3.62,4.49,3.62,12.52t-3.62,12.52a12.86,12.86,0,0,1-19.52,0q-3.62-4.49-3.62-12.52t3.62-12.52a12.86,12.86,0,0,1,19.52,0Zm-17.67,1.84q-2.85,3.71-2.85,10.69T115.7,178a10.28,10.28,0,0,0,15.81,0q2.85-3.71,2.85-10.69t-2.85-10.69a10.28,10.28,0,0,0-15.81,0Z"/><path class="cls-5" d="M177.47,143.07l-.05,1.27c0,.46.1.71.3.77a2.35,2.35,0,0,0,.59.08c.19,0,.48,0,.87-.05s.55.24.55.71q0,1.35-1.93,2.09a.66.66,0,0,0-.37.47q-.16,1.61-.16,3.78a15.93,15.93,0,0,0,.16,2.85,1,1,0,0,0,1,.77.46.46,0,0,1,.34.18,1.06,1.06,0,0,1,.29.67,3.69,3.69,0,0,1-.05.63,5.29,5.29,0,0,1-.25.84,4.85,4.85,0,0,1-.5,1,2.57,2.57,0,0,1-.91.81,2.74,2.74,0,0,1-1.37.34,2,2,0,0,1-1.9-1.56,4.41,4.41,0,0,1-.21-1.45l.21-7.11a12.52,12.52,0,0,0-.15-2.11,2.62,2.62,0,0,0-1-1.53.85.85,0,0,1-.37-.74,1.37,1.37,0,0,1,.48-1,8.66,8.66,0,0,0,2.67-2.83,1.11,1.11,0,0,1,.92-.5Q177.47,141.52,177.47,143.07Z"/><path class="cls-5" d="M188.93,151.31l-.08,3.67q0,2.19.55,2.54a.83.83,0,0,1,.34.69,1.8,1.8,0,0,1-1,1.43,3.77,3.77,0,0,1-2.07.66,1.2,1.2,0,0,1-.79-.22.64.64,0,0,1-.26-.49c0-.47-.06-.71-.19-.71a2.22,2.22,0,0,0-.33.3,3.61,3.61,0,0,1-.9.61,3.32,3.32,0,0,1-1.51.3,2.92,2.92,0,0,1-1.61-.45,2.31,2.31,0,0,1-1-1.16,6,6,0,0,1-.48-2.22,5.75,5.75,0,0,1,.32-1.93,4.54,4.54,0,0,1,.79-1.45,5.69,5.69,0,0,1,1.11-1,5.27,5.27,0,0,1,1.19-.63,9.71,9.71,0,0,1,1.14-.33,7.15,7.15,0,0,1,1.14-.16l.26-.34q0-.9-1.31-.9a4,4,0,0,0-2.1.5,1.14,1.14,0,0,1-.63.21q-.63,0-.63-1,0-2.46,3.91-2.46,3,0,3.78,2A7.19,7.19,0,0,1,188.93,151.31Zm-5.68,4.2q0,1.11.79,1.11a1.46,1.46,0,0,0,1.28-.82,2.93,2.93,0,0,0,.49-1.45q0-1.19-.85-1.19a1.42,1.42,0,0,0-1.24.77A3,3,0,0,0,183.25,155.51Z"/><path class="cls-5" d="M197.88,154.77q1.43,0,1.43,1.74a4,4,0,0,1-.45,1.83,3.5,3.5,0,0,1-.94,1.16,3.9,3.9,0,0,1-1.25.59,7.5,7.5,0,0,1-2.14.29,4,4,0,0,1-2.1-.55,3.76,3.76,0,0,1-1.44-1.5,9.15,9.15,0,0,1-1-4.33,9.47,9.47,0,0,1,1.24-4.89,4.51,4.51,0,0,1,1.7-1.72,5.11,5.11,0,0,1,2.6-.63,4.25,4.25,0,0,1,2.58.78,2.79,2.79,0,0,1,1.07,2.42q0,2-1.77,2a1.09,1.09,0,0,1-1.06-1,3.26,3.26,0,0,0,0-.55,1.65,1.65,0,0,0-.32-.61.83.83,0,0,0-.7-.38q-1.66,0-1.66,3.33a10.65,10.65,0,0,0,.18,2q.4,1.85,1.48,1.85a1.1,1.1,0,0,0,1.11-.84,1.06,1.06,0,0,1,.5-.65A1.65,1.65,0,0,1,197.88,154.77Z"/><path class="cls-5" d="M204.75,146.61a3.85,3.85,0,0,1,3.5,2,9.41,9.41,0,0,1,1.2,4.91,7.43,7.43,0,0,1-2.19,5.81,4,4,0,0,1-2.69,1.08,4.51,4.51,0,0,1-2.44-.61,4,4,0,0,1-1.47-1.61,8.82,8.82,0,0,1-1-4.17,10.32,10.32,0,0,1,1.19-4.86,5,5,0,0,1,1.61-1.85A4,4,0,0,1,204.75,146.61Zm1.21,4.2a1.08,1.08,0,0,0-1-.63q-.73,0-1.4,1a4.37,4.37,0,0,0-.67,2.47q0,2,1.35,2a1.83,1.83,0,0,0,1.41-.92,4.22,4.22,0,0,0,.67-2.54A3.13,3.13,0,0,0,206,150.81Z"/><path class="cls-5" d="M214.52,146.56q3.49,0,3.49,2.06a1.35,1.35,0,0,1-.38,1,1.19,1.19,0,0,1-.87.4,1.81,1.81,0,0,1-.94-.26,2,2,0,0,0-1-.26q-1.35,0-1.35.77a.68.68,0,0,0,.42.58q3.12,1.56,3.75,2.54a4.75,4.75,0,0,1,.77,2.72,4.7,4.7,0,0,1-.26,1.4,4.4,4.4,0,0,1-.71,1.39,4.05,4.05,0,0,1-1.43,1,5.26,5.26,0,0,1-2.32.48,7.26,7.26,0,0,1-2-.32,2.6,2.6,0,0,1-2.19-2.62,2.51,2.51,0,0,1,.53-1.6,1.61,1.61,0,0,1,1.32-.67,1.3,1.3,0,0,1,1.14.48l.16.24a1.8,1.8,0,0,0,.24.32,1.21,1.21,0,0,0,.9.34,1.28,1.28,0,0,0,.87-.28,1,1,0,0,0,.32-.75q0-.48-.74-1a9.22,9.22,0,0,0-1.62-.87,4.62,4.62,0,0,1-1.62-1.17,2.7,2.7,0,0,1-.74-1.89,3.79,3.79,0,0,1,1.2-2.94A4.46,4.46,0,0,1,214.52,146.56Z"/><path class="cls-6" d="M87.89,75.85c.82-8.33,1.27-12.49,2.24-20.82a23.5,23.5,0,0,0-4.29-1,25.48,25.48,0,0,0-3.89-.16q-1.28,3.62-2.21,7.4t-1.49,7.31a63.26,63.26,0,0,0-.71,6.58,28.56,28.56,0,0,0,.14,5.23,6.8,6.8,0,0,0,.51,2,3.63,3.63,0,0,0,.68,1q-1.13.15-2.44.22a7,7,0,0,1-2.54-.32,4.76,4.76,0,0,1-2.15-1.48,6.41,6.41,0,0,1-1.26-3.26,20.17,20.17,0,0,1-.06-4.53,43,43,0,0,1,.91-5.82q.7-3.15,1.82-6.63a67.32,67.32,0,0,1,2.67-6.93,16.35,16.35,0,0,0-4.49,1.43,3.72,3.72,0,0,0-2.06,2.42q.23,0,.59.49a2.69,2.69,0,0,1,.45,1.15,1.81,1.81,0,0,1-.73,1.73,4.48,4.48,0,0,1-2.25.93,4.91,4.91,0,0,1-1.46,0,3.44,3.44,0,0,1-1.24-.42,2.84,2.84,0,0,1-.93-.88,3.38,3.38,0,0,1-.51-1.38,4.49,4.49,0,0,1,.49-2.81,7.9,7.9,0,0,1,2.2-2.57,14.75,14.75,0,0,1,3.64-2,19.9,19.9,0,0,1,4.78-1.22q1.23-.17,3.15-.25a65.21,65.21,0,0,1,4.07-7,41,41,0,0,1,4.73-5.86,26.17,26.17,0,0,1,5.19-4.16,12.62,12.62,0,0,1,5.4-1.84,19.63,19.63,0,0,1,2.45,0,9.21,9.21,0,0,1,2.52.43q-3.12,21-5.7,42.15C92.81,75.31,91.17,75.48,87.89,75.85Zm4.53-39a12.54,12.54,0,0,0-2.6,2.24,23.93,23.93,0,0,0-2.49,3.31A44.19,44.19,0,0,0,85,46.57q-1.12,2.27-2.1,4.77,1.85.11,3.77.39a33.05,33.05,0,0,1,3.74.75C91.18,46.24,91.57,43.11,92.41,36.87Z"/><path class="cls-6" d="M120.91,63.09a23.39,23.39,0,0,1-1.64,4,17,17,0,0,1-1.94,2.94,11.6,11.6,0,0,1-2.11,2,11.74,11.74,0,0,1-2.13,1.23,10.4,10.4,0,0,1-2,.65,12.64,12.64,0,0,1-1.71.25A7.46,7.46,0,0,1,107,74a5.08,5.08,0,0,1-2-1.06,5.85,5.85,0,0,1-1.47-2,8.68,8.68,0,0,1-.73-3,13.93,13.93,0,0,1,0-1.7q0-.93.18-2,2-14.35,4.29-28.65c3.61-.7,5.42-1,9.06-1.68q-2.77,15.36-5.1,30.8a4.63,4.63,0,0,0-.12.93q0,.46,0,.9a2,2,0,0,0,.67,1.6,2.85,2.85,0,0,0,1.81.34,3.94,3.94,0,0,0,1.63-.47,5.37,5.37,0,0,0,1.43-1.11,7.48,7.48,0,0,0,1.14-1.65,10,10,0,0,0,.78-2Z"/><path class="cls-6" d="M136.51,62.62a23.4,23.4,0,0,1-1.77,4,17,17,0,0,1-2,2.88,11.6,11.6,0,0,1-2.17,1.93,11.73,11.73,0,0,1-2.17,1.17,10.39,10.39,0,0,1-2,.59,12.64,12.64,0,0,1-1.71.2,7.45,7.45,0,0,1-2.42-.29,5.08,5.08,0,0,1-2-1.12,5.85,5.85,0,0,1-1.41-2,8.69,8.69,0,0,1-.64-3,13.94,13.94,0,0,1,0-1.7q.07-.93.24-2,2.39-14.28,5.16-28.5c3.63-.59,5.45-.87,9.1-1.4q-3.24,15.26-6,30.63a4.63,4.63,0,0,0-.15.93q0,.46,0,.9a2,2,0,0,0,.62,1.62,2.85,2.85,0,0,0,1.8.4,3.94,3.94,0,0,0,1.64-.42A5.37,5.37,0,0,0,132,66.28a7.48,7.48,0,0,0,1.18-1.61,10,10,0,0,0,.84-2Z"/><path class="cls-6" d="M152.12,62.62a23.4,23.4,0,0,1-1.89,3.94,17,17,0,0,1-2.12,2.81,11.6,11.6,0,0,1-2.23,1.86,11.73,11.73,0,0,1-2.2,1.1,10.39,10.39,0,0,1-2,.53,12.63,12.63,0,0,1-1.72.15,7.45,7.45,0,0,1-2.41-.36,5.08,5.08,0,0,1-2-1.18,5.85,5.85,0,0,1-1.35-2.07,8.69,8.69,0,0,1-.54-3,13.94,13.94,0,0,1,.08-1.7q.09-.92.3-2c1.44-7.27,2.19-10.9,3.75-18.15,3.49,0,5.23,0,8.72,0-1.77,7.66-2.62,11.49-4.27,19.16a4.64,4.64,0,0,0-.18.92q0,.46,0,.9a2,2,0,0,0,.57,1.64,2.85,2.85,0,0,0,1.78.45,3.94,3.94,0,0,0,1.65-.37,5.37,5.37,0,0,0,1.49-1,7.48,7.48,0,0,0,1.23-1.57,10,10,0,0,0,.9-2ZM148.71,37a4,4,0,0,1-.4,1.74,4.39,4.39,0,0,1-1.07,1.4,5.2,5.2,0,0,1-3.44,1.27,5.16,5.16,0,0,1-1.89-.34,5,5,0,0,1-1.54-.93,4.3,4.3,0,0,1-1-1.4,4.26,4.26,0,0,1,0-3.5,4.55,4.55,0,0,1,1-1.44,4.94,4.94,0,0,1,1.55-1,5.15,5.15,0,0,1,5.4,1,4.63,4.63,0,0,1,1.06,1.44A4,4,0,0,1,148.71,37Z"/><path class="cls-6" d="M174.43,63.45a31,31,0,0,1-4.79,4A49.76,49.76,0,0,1,165.21,70a9.38,9.38,0,0,1-2.07,1.5,12.59,12.59,0,0,1-2.33,1,14.35,14.35,0,0,1-2.42.5,16.43,16.43,0,0,1-2.31.12,10,10,0,0,1-3.72-.72,8,8,0,0,1-2.6-1.72,6.63,6.63,0,0,1-1.51-2.33,7.12,7.12,0,0,1-.48-2.58A5.94,5.94,0,0,1,148,64a6.25,6.25,0,0,1,.71-1.49,5.3,5.3,0,0,1,1-1.13,4.89,4.89,0,0,1,1.17-.74,75,75,0,0,0,4.33-8.31q1.81-4.11,3.34-8.25c3.6-.34,5.4-.5,9-.78q0,3.67.06,6.35t.1,4.66q.06,2,.11,3.35t.1,2.44Q168,61.13,168,62c0,.58,0,1.18,0,1.8q0,.63-.1,1.15a4.79,4.79,0,0,1-.23,1q1.31-.66,2.38-1.3A20.33,20.33,0,0,0,172,63.31Zm-23.56,1.19a4.59,4.59,0,0,0,.77,3,3.37,3.37,0,0,0,2.71,1,6.74,6.74,0,0,0,1.87-.22,4.21,4.21,0,0,0,1.63-.84A4.45,4.45,0,0,0,159,66a6.31,6.31,0,0,0,.5-2.46q0-.72,0-1.39t-.06-1.43q0-.76-.11-1.7t-.17-2.18Q159.1,55.59,159,54t-.21-3.81a49.26,49.26,0,0,1-2.26,5.28q-1.28,2.56-2.79,5.26a3.09,3.09,0,0,1,.94.79,1.8,1.8,0,0,1,.36,1.19,3.1,3.1,0,0,1-.19,1,2.76,2.76,0,0,1-.53.88,2.57,2.57,0,0,1-.82.62,2.36,2.36,0,0,1-1.07.22,2.94,2.94,0,0,1-.91-.15A1.1,1.1,0,0,1,150.87,64.64Z"/><path class="cls-6" d="M206.08,54.93a15.16,15.16,0,0,1-4.82,2.41c-1.92.6-5.6.59-6.18,1.1-.76.67-1.24,4.86-2.24,6.86a19.29,19.29,0,0,1-3.53,5,13.38,13.38,0,0,1-4.47,3,11.2,11.2,0,0,1-5.06.8,13.77,13.77,0,0,1-3.64-.73,7.62,7.62,0,0,1-2.82-1.72,7.21,7.21,0,0,1-1.76-2.86,10.93,10.93,0,0,1-.47-4.15,22.55,22.55,0,0,1,.56-3.73A25.48,25.48,0,0,1,173,56.7a24.44,24.44,0,0,1,2.31-4.24,16.42,16.42,0,0,1,3.34-3.61,14.58,14.58,0,0,1,4.44-2.41,13.65,13.65,0,0,1,5.6-.59c5.17.44,7.46,3.7,6.87,9.67v.05a.77.77,0,0,0,.27.08l.36,0a9.91,9.91,0,0,0,2.27-.06,20.23,20.23,0,0,0,2.5-.49,22.49,22.49,0,0,0,2.5-.81q1.23-.48,2.27-1Zm-15.92,3.21a1.78,1.78,0,0,1-1.18-1,3.24,3.24,0,0,1-.2-1.52,3.4,3.4,0,0,1,.68-1.89,3,3,0,0,1,1.45-1,9.4,9.4,0,0,0-.07-1.54,3.16,3.16,0,0,0-.32-1.05,1.47,1.47,0,0,0-.61-.62,2.66,2.66,0,0,0-1-.25,3.32,3.32,0,0,0-2.15.61,9.28,9.28,0,0,0-2,1.92,18.1,18.1,0,0,0-1.85,2.83A27.1,27.1,0,0,0,181.35,58a28.85,28.85,0,0,0-1.05,3.42,19.06,19.06,0,0,0-.5,3.1,13.51,13.51,0,0,0,0,2.29,3.5,3.5,0,0,0,.41,1.42,1.81,1.81,0,0,0,.87.77,4.37,4.37,0,0,0,1.37.3,3.28,3.28,0,0,0,2.17-.74,9.59,9.59,0,0,0,2.17-2.31,19.78,19.78,0,0,0,1.93-3.57A27.14,27.14,0,0,0,190.16,58.13Z"/><path class="cls-6" d="M194.34,75.18q4.43-13.74,9.21-27.37c3.47.39,5.2.6,8.67,1.05l-1,2.81a10.65,10.65,0,0,1,2.13-1.37,9.18,9.18,0,0,1,2-.69,8.39,8.39,0,0,1,1.78-.2,11.19,11.19,0,0,1,1.53.1,9.55,9.55,0,0,1,2.62.74,5.62,5.62,0,0,1,2,1.43,5.12,5.12,0,0,1,1.09,2.17,7.54,7.54,0,0,1,.05,2.93,14.85,14.85,0,0,1-.59,2.37q-.42,1.26-.94,2.56t-1.08,2.58q-.56,1.28-1.06,2.46T219.8,69a9.54,9.54,0,0,0-.49,1.81,2.77,2.77,0,0,0,.24,1.76,2.17,2.17,0,0,0,1.71.93,3.56,3.56,0,0,0,2-.06A7.5,7.5,0,0,1,222,75.87a6.32,6.32,0,0,1-1.7,1.56,5.43,5.43,0,0,1-2,.75,7.46,7.46,0,0,1-2.21,0,6.49,6.49,0,0,1-2.67-.92,4.83,4.83,0,0,1-1.59-1.66,5.58,5.58,0,0,1-.68-2.15,9.79,9.79,0,0,1,0-2.37,16,16,0,0,1,.85-3.26q.66-1.84,1.42-3.77t1.43-3.72a15.14,15.14,0,0,0,.86-3.13q.4-2.86-1.75-3.16a3,3,0,0,0-1.57.21,4.9,4.9,0,0,0-1.42.94,8.18,8.18,0,0,0-1.25,1.5,15.29,15.29,0,0,0-1.06,1.91c-2.5,7-3.73,10.47-6.12,17.48C199.28,75.69,197.63,75.51,194.34,75.18Z"/></g></svg>