<svg xmlns="http://www.w3.org/2000/svg" viewBox="0 0 360 576"><defs><style>.cls-1,.cls-3,.cls-33,.cls-4{fill:none;stroke-linecap:round;stroke-linejoin:round;}.cls-1,.cls-3{stroke:#abc038;}.cls-1,.cls-4{stroke-width:1.5px;}.cls-2{fill:#ffcb65;}.cls-3,.cls-33{stroke-width:1.25px;}.cls-33,.cls-4{stroke:#f1865d;}.cls-16,.cls-18,.cls-19,.cls-21,.cls-26,.cls-28,.cls-5,.cls-6{fill:#f171a1;}.cls-5{stroke:#f171a1;stroke-miterlimit:10;stroke-width:2px;}.cls-6{font-size:11.58px;}.cls-26,.cls-6{font-family:Futura-Medium, Futura;}.cls-7{letter-spacing:-0.08em;}.cls-8{letter-spacing:-0.02em;}.cls-9{letter-spacing:0em;}.cls-10{letter-spacing:-0.01em;}.cls-11{letter-spacing:-0.04em;}.cls-12{letter-spacing:-0.07em;}.cls-13{letter-spacing:-0.01em;}.cls-14{letter-spacing:-0.06em;}.cls-15{letter-spacing:-0.02em;}.cls-16{font-size:18.53px;font-family:Coquette, Coquette;}.cls-17{font-size:35.11px;font-family:AmericanTypewriter, American Typewriter;}.cls-17,.cls-31,.cls-32,.cls-34,.cls-35{fill:#4bc3cb;}.cls-18{font-size:40.64px;font-family:Limelight-Regular, Limelight;}.cls-19{font-size:38.23px;}.cls-19,.cls-28{font-family:Chicle-Regular, Chicle;}.cls-20{letter-spacing:0.02em;}.cls-22{font-size:11.21px;fill:#fff;font-family:Audiowide-Regular, Audiowide;letter-spacing:0.02em;}.cls-23{letter-spacing:0.02em;}.cls-24{letter-spacing:-0.01em;}.cls-25{letter-spacing:0.02em;}.cls-26{font-size:15.06px;}.cls-27{letter-spacing:0.01em;}.cls-28{font-size:30.12px;}.cls-29{letter-spacing:-0.01em;}.cls-30{letter-spacing:0em;}.cls-31{font-size:37.07px;}.cls-31,.cls-32,.cls-34,.cls-35{font-family:Lobster-Regular, Lobster;}.cls-32{font-size:41.7px;}.cls-34{font-size:20.85px;}.cls-35{font-size:23.17px;}</style></defs><title>invitation_front</title><g id="Layer_2" data-name="Layer 2"><path class="cls-1" d="M117.83,237.72c-2.45-2.68-6.6-3.44-8.67-2.8,0,0,3.05,3.69,4.43,5.16-3.49-.55-24.11-1.83-27.3.52,0,5,2.35,8.71,9.4,9.89v0c0,3.47,1.4,6.44,3.38,7.65a75.9,75.9,0,0,1-.91,16.57c-4.42.3-7.72,1.47-7.72,2.87,0,1.63,4.47,3,10,3s10-1.32,10-3c0-1.41-3.36-2.59-7.84-2.88,0-4.2-.36-10.38-.09-16.27,2.28-1,4-4.14,4-7.94,0,0,0-.06,0-.09,6-1.09,8.67-4.14,9.19-8.26.05.05,2.66,4.12,3.62,5.16C120.15,244.55,120.58,240.73,117.83,237.72Z"/><path class="cls-1" d="M87.51,241.57c5.09,1.71,9.7,1.82,15.06,1.72s9.53.18,12.75-1.14"/><path class="cls-2" d="M305.85,108.92c-2.43-5.72-7-10.9-10.05-12.6-2.23-1.25-23-4-33.12-2.71,0-.38,0-.76-.07-1.14-.17-3-.32-5.85-3.13-9.52-2.16-2.82-6-6.18-8.31-6.69-1.19-.25-2.31.7-3.39,1.62A5.31,5.31,0,0,1,246,79.08c-.52.06-1.61-1.14-2.29-1.93A7.9,7.9,0,0,0,242,75.49c-2.6-1.48-4.07.12-5.63,1.81-.38.41-.79.85-1.25,1.3-3.86,3.73-6.18,13.49-6.18,20.78,0,3.2.43,7.42,2.48,9.41,1.65,1.59,2.16,4.8,2.57,7.38.34,2.13.6,3.8,1.42,4.59s1.36,1.24,1.89,1.7a11.94,11.94,0,0,1,3.31,4,25.48,25.48,0,0,0,1.72,2.6c1.28,1.76,2.29,3.15,2.08,5.44a.75.75,0,0,0,.6.81c.67.13,1.69.27,2.9.4l.11,0h.14c4.75.48,12.19.75,13.61-.49,1-.92.9-4,.68-6A46.89,46.89,0,0,0,276,133c1.38.16,9.69-4.13,10.65-4,2.65.42,10,3.58,10,3.61a30.3,30.3,0,0,1,1.57,3.48.69.69,0,0,0,0,.06l0,.1a.73.73,0,0,0,.09.14l.07.08a.74.74,0,0,0,.15.1l.08,0a.74.74,0,0,0,.27.05h9a1.28,1.28,0,0,0,1.08-.64C310.92,133.33,309.35,117.16,305.85,108.92Zm-45.08,25.16c-.84.69-7.07.66-11.87.2.16-2.25.46-9-1.62-10.85l-.59-.52c-1.71-1.49-5.25-4.58-5.25-7.48a.75.75,0,1,0-1.5,0c0,3.59,3.9,7,5.77,8.61l.57.5c1.24,1.14,1.41,6.11,1.14,9.58-.53-.06-1-.13-1.49-.21,0-2.45-1.16-4.07-2.39-5.77a24.37,24.37,0,0,1-1.63-2.45,13.41,13.41,0,0,0-3.64-4.39c-.51-.44-1.11-1-1.83-1.65-.45-.43-.73-2.19-1-3.74-.45-2.8-1-6.28-3-8.23-1.29-1.25-2-4.29-2-8.33,0-7.82,2.57-16.66,5.72-19.7.48-.46.91-.93,1.31-1.36,1.65-1.79,2.3-2.37,3.78-1.52a7.73,7.73,0,0,1,1.33,1.34c1,1.2,2.22,2.56,3.57,2.43A5.42,5.42,0,0,0,248.73,79c.7-.59,1.65-1.39,2.11-1.3a12.13,12.13,0,0,1,4.27,2.76,8.74,8.74,0,0,0-1.4,2,12.23,12.23,0,0,1-1.09,1.69A9.58,9.58,0,0,1,252,83c-.52-1.09-1.17-2.44-2.67-2.44a.75.75,0,0,0,0,1.5c.5,0,.8.51,1.31,1.59a6.76,6.76,0,0,0,1.4,2.15.77.77,0,0,0,.5.2c.46,0,1.89-1.7,2.48-2.74a7.18,7.18,0,0,1,1.18-1.73,23.71,23.71,0,0,1,2.08,2.35c2.53,3.31,2.67,5.8,2.83,8.69,0,.49,0,1.66,0,1.76C260.44,99,259,104.81,254,108.9a.74.74,0,0,0-.23.33c-.24.68-2.32,6.74-2.18,9.09a3.4,3.4,0,0,0,1.23,2.49c1.69,1.43,4.74,1.43,7,1.17.25,0,.32,0,.35.06C260.54,122.37,261.05,133.78,260.77,134.08Zm47.09,1.17h-8.3c-.53-1.6-2-5.31-2.6-6.87,1,.47,2.06.95,3.16,1.41l.84.36a.75.75,0,0,0,.64-1.36l-.9-.39c-17.42-7.34-20.24-14.68-19.54-19.54a.75.75,0,1,0-1.48-.21c-1,6.93,4.29,13.3,15.7,19a14.9,14.9,0,0,0,1,3.29c-2.12-.89-7.18-2.95-9.44-3.31-1.44-.22-9.77,4.08-10.71,4a45.63,45.63,0,0,1-13.77-4,.7.7,0,0,0,0-.07,13.55,13.55,0,0,1-.28-2.74c-.06-1.63-.11-3-1-3.78a1.88,1.88,0,0,0-1.5-.41c-2.78.31-4.86,0-5.87-.83a1.92,1.92,0,0,1-.7-1.43c-.1-1.68,1.37-6.39,2-8.31,5.06-4.22,6.63-10,7.38-14.77,9.65-1.35,30.8,1.48,32.56,2.47,2.75,1.55,7.13,6.53,9.41,11.88C308.27,118.45,309,133.61,307.86,135.25Z"/><path class="cls-2" d="M246.3,95.1c-1.53-.48-2.45.76-3.2,1.77a5.61,5.61,0,0,1-1.2,1.33,6,6,0,0,1-3.48.31c-.79-.15-2.59-2.37-2.59-2.37a16.72,16.72,0,0,1,1.91-2.64c1.79-2.21,2.86-3.62,2.72-4.74a1.3,1.3,0,0,0-.52-.9c-.2-.15-.25-.25-.25-.26,0-.17.47-.72.76-1.05l.27-.31c2.16-2.5,1.08-3.85,0-5.17l-.09-.09c-.64-.57-1.36,0-1.89.38a4.29,4.29,0,0,1-1,.62l.71-1.64a.75.75,0,0,0-1.37-.6l-1.06,2.43a.75.75,0,0,0,.2.87c1.3,1.12,2.67.07,3.41-.49l.2-.15c.76,1,.91,1.47-.29,2.86l-.26.29c-.62.71-1.21,1.37-1.13,2.2A1.85,1.85,0,0,0,239,89c0,.63-1.57,2.52-2.4,3.55-1.74,2.15-2.79,3.44-2,4.37,0,0,2.22,2.78,3.59,3a8.92,8.92,0,0,0,1.62.14,5.71,5.71,0,0,0,3-.67,6.76,6.76,0,0,0,1.58-1.69c.77-1,1.1-1.37,1.53-1.23a.75.75,0,1,0,.46-1.43Z"/></g><g id="Layer_4" data-name="Layer 4"><path class="cls-3" d="M69,112.24c0,1.68-1,5.17-.67,7.24,1.53,1.61,3-.14,4.14-.45"/><path class="cls-3" d="M60.4,108.81a23.56,23.56,0,0,1-.29-5.2c1.13.91,4.39,2.54,4.39,3.27,0,1.21-2.19,2.1-3.43,2.24"/><path class="cls-3" d="M64.07,100.92s-.44-3.93-1.1-5a12.24,12.24,0,0,0-2.27-2"/><path class="cls-3" d="M53.19,92.48c-.31,1,.1,5.07.93,6a4.4,4.4,0,0,0,1.81,1.11"/><path class="cls-3" d="M53.34,92.27c-.06,0-.11.09-.15.21"/><path class="cls-3" d="M55.93,99.63c.49-1.15.32-2,1.49-2.49"/><path class="cls-3" d="M51.22,84.62c-.28,1.69-.3,4,.69,4.72a2.51,2.51,0,0,0,.42.17"/><path class="cls-3" d="M52.34,89.51c.38.12.89.25,1.07.13s1.06-.8,1.07-1.08c0-.77-1.81-4.77-3-5.11a8.61,8.61,0,0,0-.27,1.17"/><path class="cls-3" d="M59.56,91.31a4.32,4.32,0,0,0-.91-2.3"/><path class="cls-3" d="M58.64,89c-.85-1.16-2.07-1.27-2.6-1.68A45.42,45.42,0,0,0,56.63,93c.12.26,1.5.56,1.89.63a3.21,3.21,0,0,0,1-2.32"/><path class="cls-3" d="M57.2,85.18c1.37-2.35-1.92-6.84-2.78-7.37"/><path class="cls-3" d="M51.54,74.61Z"/><path class="cls-3" d="M51.54,74.61a31.86,31.86,0,0,0-1.65,4,3,3,0,0,0,.82,1.95"/><path class="cls-3" d="M61.61,111.93s-.21,2.87.37,3.62c.25.32,3.3,2.74,3.3,2.74"/><path class="cls-3" d="M58.52,93.62c-.39-.06-1.77-.37-1.89-.63"/><path class="cls-3" d="M58.64,89c-.48-1.24-1-2.53-1.44-3.82a6,6,0,0,1-2-.66c-.73-1.3-1.31-5.68-.84-6.73l0,0c-.93-2.31-1.68-3.85-2.07-3.76a1.43,1.43,0,0,0-.81.56,18.36,18.36,0,0,0,.8,3.71,6.55,6.55,0,0,1-.41,3.22,3.35,3.35,0,0,1-1.22-1,35.63,35.63,0,0,0,.52,4.1,8.61,8.61,0,0,1,.27-1.17c1.18.34,3,4.34,3,5.11,0,.28-.83.92-1.07,1.08s-.69,0-1.07-.13c.28,1,.57,2,.85,3,.46-1.1,4.09,3.53,4.23,4.67-1.17.45-1,1.34-1.49,2.49,0,0,2.85,7,3.29,7.84.66,1.19,1.44,2.69,2.39,4.46.87.78,4.17,1.91,4.36,2.54.3,1-.68,3.82-.68,3.82a55.85,55.85,0,0,0,4.13,9c.94-1.37,5,2.39,5,2.48a4.81,4.81,0,0,1,0,2.87,15.73,15.73,0,0,1-2,.09c2.35,4.14,6.77,11.09,7.16,11.19,1.79.46,3.46-1.28,5.31-1.29-.06-4.32-4.88-11.72-7.3-15.29A128.31,128.31,0,0,1,69,112.24c-1.87-3.81-3.56-7.91-5.08-11.27-.82.26-1.76-.85-3.49-.63-.59-1.22.28-6.41.28-6.41-.36-.77-.75-1.66-1.14-2.63"/><path class="cls-3" d="M69.42,127.25a10.19,10.19,0,0,0,1.1,5,3.19,3.19,0,0,0,1.94.46"/><path class="cls-4" d="M245.83,484.27c.83,1.07.07,2.77.69,3.89,1.62,3,7.33,11.32,9.39,11.42,2.37.12,4.93.55,6.37-1.33-.51-1.22-1.64-3-3-2.8-.94.16-1.64.22-1.64.22s-4.19-5.59-4.31-7c-.11-1.28,4.54-5.37,6.05-8.25-3,.31-6.18.34-9,.41A15.63,15.63,0,0,1,245.83,484.27Z"/><path class="cls-4" d="M275.79,472c-.54.94-1.15,4.83-1.33,5.83-.14.74,1.3,6.63,2.27,8.76.16-1.37,1.45-9.19,1.45-9.19s5-12.8,4.26-17.89a38,38,0,0,0-2.05-5.94c-.36-.83.5-4.31,1.05-7,.45-2.17-1.14-4.71-1.14-4.71s1.09-4.21,0-7.3c-2.71,0-6.1,5.29-6.1,5.29l-5.66,0s-2.72-4.82-5.14-4.6c-.86,2.31,1.1,7,1.1,7s-.92,3.46-1.12,5.21a5,5,0,0,0,1.75,4.43,11.43,11.43,0,0,1-.11,2.53c-6.64-.72-22.09,3.49-26.28,5.79-3.31-1-6.81-10.11-8.23-12.6-1.25-2.18-4.89-6.45-7.79-8.11-1.85-1.05-4.59-2.19-6.39-.19-2,2.27,1.27,7.75,3.06,7.82,1.55.06,1.33-3.26.76-4.42,5.55,2.69,9.44,16.16,13,21.8-4.48,6.66,3.24,15,2.54,17.69-.31,1.16-1.66,1-2,2.18-.16.59,2,11.47,2.44,13.54.62,3.21,5.07,2.56,6.47,2,.71-.3-.25-3.18-.82-3.7a5.32,5.32,0,0,0-2-1c-.48-1.75-2.1-6.38,3.43-9.63.82-.49,1.75-.79,2.59-1.24a15.63,15.63,0,0,0,4.53-3.48c2.82-.06,6-.1,9-.41,2.56-.26,4.35-.08,6.64-1,2.21,6.18,2.46,6,5.74,11.2a78.43,78.43,0,0,1,3.1,7.76,9.67,9.67,0,0,1,.34,1.15c.26,1.48,3.54,2.73,5,1.35s-.34-5.51-.8-6.55a67,67,0,0,1-2.61-7.67"/><path class="cls-4" d="M274.83,498.32a2.38,2.38,0,0,1-2.4-.86,12.36,12.36,0,0,1-.7-6.91A78.43,78.43,0,0,1,274.83,498.32Z"/><path class="cls-4" d="M267.29,448.38l.77-.82a2.68,2.68,0,0,1,2-1.14c.8.08,1.32.83,1.93,1.35a3.85,3.85,0,0,0,1.55.79"/><polygon class="cls-4" points="270.07 445.44 269.19 443.91 270.95 443.91 270.07 445.44"/><line class="cls-5" x1="55.61" y1="349.4" x2="150.21" y2="349.4"/><line class="cls-5" x1="55.61" y1="383.2" x2="150.21" y2="383.2"/><text class="cls-6" transform="translate(60.8 416.53)"><tspan class="cls-7">1</tspan><tspan x="6.23" y="0">2</tspan><tspan class="cls-8" x="13.38" y="0">3</tspan><tspan class="cls-9" x="20.27" y="0">40 BI</tspan><tspan class="cls-10" x="48.41" y="0">R</tspan><tspan x="55.28" y="0">TH</tspan><tspan class="cls-11" x="69.36" y="0">D</tspan><tspan class="cls-12" x="77.34" y="0">A</tspan><tspan class="cls-9" x="85.16" y="0">Y RD, SUBUR</tspan><tspan class="cls-13" x="155.91" y="0">B</tspan><tspan class="cls-9" x="162.63" y="0">AN </tspan><tspan class="cls-14" x="184.57" y="0">V</tspan><tspan class="cls-9" x="191.67" y="0">A </tspan><tspan class="cls-7" x="203.83" y="0">1</tspan><tspan x="210.06" y="0">2</tspan><tspan class="cls-15" x="217.21" y="0">3</tspan><tspan x="224.09" y="0">45</tspan></text><text class="cls-16" transform="translate(58.36 372.74)">August 12th</text><text class="cls-17" transform="translate(166.22 377.21)">6:00 pm</text><text class="cls-18" transform="translate(269.32 231.75)">&amp;</text><text class="cls-19" transform="translate(148.04 270.88)">Marga<tspan class="cls-20" x="82.68" y="0">r</tspan><tspan x="96.18" y="0">itas</tspan></text><polygon class="cls-21" points="300.82 322.44 59.52 322.44 69.1 309.13 59.52 295.82 300.82 295.82 290.18 309.13 300.82 322.44"/><text class="cls-22" transform="translate(126.29 312.3)">the party <tspan class="cls-23" x="67" y="0">s</tspan><tspan class="cls-24" x="73.9" y="0">t</tspan><tspan class="cls-25" x="80.16" y="0">arts</tspan></text><text class="cls-26" transform="translate(73.7 218.23) scale(1.09 1)">join us <tspan class="cls-27" x="48.42" y="0">f</tspan><tspan x="53.07" y="0">or</tspan></text><text class="cls-28" transform="translate(188.39 229.7)">di<tspan class="cls-29" x="19.67" y="0">nn</tspan><tspan class="cls-30" x="45.57" y="0">er</tspan></text><text class="cls-31" transform="translate(94.78 130.57)">Allison’s</text><text class="cls-32" transform="translate(126.75 180.53)">Birthday!</text><path class="cls-33" d="M102.6,157.49c4.4,2.52,6.49,9,6.21,12.35-.33,4-4.36,12.46-8.15,13-2.36.36-.9,2.34-3.5,4.2a68,68,0,0,1-9.48,4.78c-.87.17-3.61,0-4.31-.84-.93-2.4,8.19-11.08,11.07-10.9,1.68.1,5.34-10.18,5.14-12.34-.22-2.4-3.72-3.79-5.47-3.36-2.58.63-2.56,7.07-5.05,8-1.39.52-4.09-2.79-4.83-5.25-1.1-3.65,3.06-8.18,5.48-9.64C93,155.53,99,155.42,102.6,157.49Z"/><path class="cls-33" d="M96.64,182.54a7.7,7.7,0,0,0-2.18,2.78,20.35,20.35,0,0,1-5,5.64"/><path class="cls-33" d="M90.66,184.26c-2.07,1.4-3.93,6-5.49,7.53"/><path class="cls-33" d="M94.46,180.46c2.18,2.08,3.61,3,5.12,2.72"/><path class="cls-33" d="M98.75,173.13a4.12,4.12,0,0,1,3.26-.05,5.73,5.73,0,0,0,3.22,1,15.77,15.77,0,0,0,2.42-.93"/><path class="cls-33" d="M99.89,167.9c.42-.64,1.94-1.22,4.18-1.74,2.4-.56,2.67-2.57,3-3.08"/><path class="cls-33" d="M98.8,156.73a3.54,3.54,0,0,1-.61,3.49,9.63,9.63,0,0,0-2.43,3.88"/><path class="cls-33" d="M87.46,160.06c.54,1.37,1.14,3,2.51,3.52s2.31,1,2.52,1.44"/><text class="cls-34" transform="translate(74.6 91.97)">it’s</text><text class="cls-35" transform="translate(74.37 455.23)">Hosted by <tspan x="0" y="27.8">Alex and John</tspan></text></g></svg>