<svg id="Layer_1" data-name="Layer 1" xmlns="http://www.w3.org/2000/svg" viewBox="0 0 450 450"><defs><style>.cls-1,.cls-10,.cls-11{fill:#d0c3f1;}.cls-1{stroke:#d0c3f1;}.cls-1,.cls-11,.cls-2{stroke-miterlimit:10;}.cls-1,.cls-3{stroke-width:5px;}.cls-2,.cls-3,.cls-9{fill:none;}.cls-2,.cls-3{stroke:#fff;}.cls-10,.cls-11,.cls-2,.cls-8,.cls-9{stroke-width:3px;}.cls-10,.cls-3,.cls-8,.cls-9{stroke-linecap:round;stroke-linejoin:round;}.cls-4{fill:#7437f5;}.cls-5,.cls-8{fill:#fff;}.cls-6{fill:#f13a5b;}.cls-7{fill:#ab66f4;}.cls-10,.cls-11,.cls-8,.cls-9{stroke:#ab66f4;}</style></defs><title>jelly_thoughts</title><path class="cls-1" d="M73.5,447.5l374.32.13.18-41.55c-18.46-13.36-62.57-19.6-84.71-25-18.22-4.44-25-11.9-39.27-28.56-12.21-14.24-23.81-36.34-21.45-54.95s6.66-28.36,16.77-44.29c8.9-14,25.71-57.82,29.28-81.62,2.69-17.9,10.49-45.73-8.33-70.82-14.28-19-37.67-49.05-49-54.87C253.5,26.5,170.71,35,147.2,37.51c-5.75.61-9.25,1.52-14.89.19s-9.87-5.55-10.55-11.29C87.24,43.17,86.32,82.28,104.71,100c-12.69,12.1-29,45-29.21,56.53-.16,10.35,8.17,13.92,14.23,20.93C86.05,193.1,59,207.41,49,222.37c-4.79,7.14-5.75,13.56-.11,21.62,3.93,5.63,26.23,1.31,30.05,7,3.69,5.51-5.45,13.8-1.63,19.21,5.2,7.36,8.77,6.17,23.05,5,9.93-.83,24.44,5.22,25.33,9.26.85,3.83-25.33,13.35-31.64,19.08a14.58,14.58,0,0,0-4.65,9.37c-.14,5.76,7.8,10.2,9.49,13.73,3.85,8.05-4.66,18.36,2.82,29.24,6.42,9.34,15.35,6.91,26.66,6.15,17.21-1.16,31.53-1.77,33.86-1.16,8.47,2.21,5,11.36,10.37,18.3,8,10.4,19.92,9.82,24.19,22.21-21,20.47-75.51,32.58-112.09,42.43C74.24,446.63,76.5,444.5,73.5,447.5Z"/><path class="cls-2" d="M380.46,147.42c-4.29-5.07-9.82-9-13.72-14.4-3.06-4.21-5-9.12-7.49-13.68-6.08-11.12-18.53-62.53-55.75-60.83-9,.41-26.54,14.25-32.5,16.5-10.34,3.91-51.5,5.5-55,39-2,18.94,1.09,25.8,10,30,26.5,12.5,5.5,48.5,20.5,61.5,14.52,12.58,26.76,3.06,38.5,3.5,11.42.42,19.24,22.81,29.08,28.63,22,13,58.53,1.54,67.18-23,3.17-9,3.67-19.22,6.25-28.46C391.32,172.6,389.87,158.55,380.46,147.42Z"/><path class="cls-3" d="M219.55,368.17c-7,11.62-16,20.33-26.87,30.32"/><path class="cls-4" d="M121,140.33c.06,9,.87,17.44,5.24,24a1.5,1.5,0,0,0,2.71-1.14,1.49,1.49,0,0,0,2.36-1.4c-1.56-12.19-3.81-23.49-14.2-27.83a1.5,1.5,0,0,0-1.75.45c-7.83,9.88-7.89,18.48-7.95,28.45l0,2.13a1.5,1.5,0,0,0,1.48,1.52h0a1.5,1.5,0,0,0,1.5-1.48l0-2.14c0-2.42,0-4.72.15-6.94a30.39,30.39,0,0,0,4.11,10.88,1.5,1.5,0,1,0,2.54-1.59c-3.4-5.42-4.75-12-4.23-20.63a31.58,31.58,0,0,1,1.84-4.11c.29,9,1,22.41,6.64,26.55a1.5,1.5,0,0,0,1.78-2.42c-4.79-3.52-5.5-26.6-5.51-27m6,6.41c2.62,4.85,3.7,11.25,4.56,18A32.33,32.33,0,0,1,123.77,144Z"/><path class="cls-5" d="M212.82,143.49c-.79-4.36-2.79-7.48-5.79-9-3.33-1.71-7.81-1.38-12.94.95-10.4,4.72-21.86,17-24,25.72-.55,2.21-.58,5.64-.62,9.61,0,5.07-.1,10.83-1.34,14.24-.69,1.9-1.55,4.69-2.63,8.24-4.56,14.87-14,45.49-23.93,44-1-3,.51-13.17,3.27-17.94,7.17-12.39,8.92-30.86,10.32-45.7.76-8,1.42-15,2.78-18.52a70.81,70.81,0,0,1,6.4-12.38c4.44-7.22,7.64-12.43,2.61-24.58a1.5,1.5,0,0,0-1.23-.92c-5.51-.59-8-.84-10.53-1.08s-5-.49-10.5-1.08a1.49,1.49,0,0,0-1.44.71c-6.22,10.11-4.9,17.85-3.37,26.81.52,3,1.05,6.17,1.32,9.6.76,9.79-.8,23.12-4.3,36.58-2.77,10.65-5.68,17.22-7.44,19.64-.16-1.52-.36-2.91-.55-4.19-.76-5.28-1.26-8.77,1.73-14,5.59-9.83,4.1-16.8,2.38-24.87-.28-1.31-.57-2.66-.84-4.07-.1-.51-1-2.05-2.39-.91C123,166,118,166.08,109.22,165l-1.7-.21a1.5,1.5,0,0,0-1.63,1.11c-2.12,8.08.71,13.62,3.71,19.48,1.89,3.7,3.85,7.52,4.73,12.33.93,5.06-2.49,10.55-6.12,16.36-3.06,4.91-6.22,10-6.66,15-.21,2.46.77,5,1.73,7.49,1.84,4.77,3.43,8.88-1.65,13-8.38,6.78-16.84,4.47-27.55,1.55l-.18,0a1.5,1.5,0,1,0-.79,2.89l.18,0c11.08,3,20.65,5.63,30.23-2.11,6.79-5.49,4.45-11.54,2.57-16.41-.87-2.25-1.69-4.38-1.54-6.15.38-4.33,3.35-9.09,6.22-13.69,3.77-6,7.66-12.29,6.52-18.49-1-5.24-3.11-9.44-5-13.15-2.67-5.22-5-9.77-3.77-16.07l.35,0c8.4,1.05,12.92,1.62,20.83-3.9l.39,1.82c1.66,7.78,3,13.92-2.05,22.76-3.5,6.15-2.87,10.47-2.09,15.94.27,1.85.57,3.95.73,6.32a1.5,1.5,0,0,0,1,1.3,2.75,2.75,0,0,0,2.72-.52c5.92-4.44,15.51-38.29,13.83-59.78-.28-3.56-.83-6.77-1.35-9.87-1.44-8.45-2.59-15.17,2.49-23.92,4.86.52,7.21.75,9.57,1s4.72.46,9.6,1c4,10.13,1.43,14.28-2.72,21A73.36,73.36,0,0,0,155.1,154c-1.51,3.92-2.15,10.71-3,19.31-1.38,14.55-3.09,32.65-9.94,44.48-2.89,5-5.48,17.78-2.95,21.58a1.5,1.5,0,0,0,.84.61,7.78,7.78,0,0,0,2.15.31c11.95,0,20.73-28.64,26.09-46.15,1-3.36,1.92-6.27,2.58-8.09,1.42-3.9,1.47-9.93,1.52-15.24,0-3.62.06-7,.53-8.91,2-7.86,12.84-19.39,22.37-23.71,3-1.35,7.18-2.62,10.33-1,2.7,1.38,3.78,4.51,4.21,6.89,1.41,7.81-1.91,19.68-7.12,25.39A120.13,120.13,0,0,1,191,180.1c-5.49,4.55-8.63,7.23-9.35,9.4-.41,1.24-.85,2.67-1.34,4.26-2.16,7-5.41,17.5-11.08,28-2.77,5.14-7.49,10.19-12.06,15.06-6.25,6.68-12.16,13-13.11,19.43a1.5,1.5,0,0,0,.28,1.12c8.06,10.75.52,18.82-3.09,21.79-7.39,6.08-17.68,7.65-21.59,3.3a1.5,1.5,0,1,0-2.23,2c2.16,2.4,5.36,3.43,8.93,3.43,5.59,0,12.08-2.55,16.79-6.43,6.77-5.56,11.29-15.11,4-25.38,1.1-5.35,6.51-11.13,12.22-17.23,4.7-5,9.55-10.2,12.51-15.69,5.81-10.79,9.12-21.49,11.31-28.57.48-1.57.92-3,1.33-4.2.48-1.45,4.7-4.95,8.42-8a122.16,122.16,0,0,0,12.1-11C210.8,165,214.4,152.23,212.82,143.49Z"/><path class="cls-5" d="M172,319.09c-9.25-3.36-34-3-54.53,6.4-.15.07-.57.26-1.39-.72-2.5-3-3.77-10.92-2.14-13.27l.16-.23c1.1-1.57,3.4-4.83,2.22-8.75S104.78,294.11,97,291.1a1.5,1.5,0,0,0-1.94.85c-.3.77,2.08,1.64,2.85,1.94,6.63,2.58,14.62,6.51,15.51,9.49.76,2.52-.78,4.71-1.8,6.16l-.17.24c-2.6,3.73-.88,13.12,2.3,16.91,2.07,2.47,4.14,1.89,4.94,1.52,20.49-9.4,44.54-9.11,52.25-6.31a8.47,8.47,0,0,1,5.48,9.44c-1,6.23-8.62,13.09-27,13.65-10.94.33-20.38-2.16-27.33-7.2a50.07,50.07,0,0,1-5.26-4.62c-1.34-1.29-2.72-2.62-4.21-3.84-3.75-3.06-12.48-4.16-16.83-3.57a1.5,1.5,0,1,0,.4,3c4.22-.58,11.76.66,14.53,2.92,1.39,1.13,2.73,2.42,4,3.67a53.1,53.1,0,0,0,5.58,4.89c7.06,5.12,16.42,7.8,27.18,7.8.66,0,1.33,0,2,0,13.25-.4,28.06-4.86,29.88-16.17A11.44,11.44,0,0,0,172,319.09Z"/><path class="cls-4" d="M259.64,200.41a4.52,4.52,0,0,1-3.39-1.41c-1.82-2-1.63-5-.8-7.28l-.19-.07c-2.46-.87-4.58-1.61-4.67-3.45a6.68,6.68,0,0,1,.12-1.42,2.47,2.47,0,0,0,0-1.13c-.14-.3-.67-.53-1.24-.76a6.16,6.16,0,0,1-1.91-1.09c-2.11-1.95-1.09-7.13-.87-8.15a1.22,1.22,0,0,1,2.37.52c-.5,2.29-.57,5.18.14,5.84a4.27,4.27,0,0,0,1.19.63,4.19,4.19,0,0,1,2.53,2,4.25,4.25,0,0,1,.14,2.51,5.53,5.53,0,0,0-.1.83,11.43,11.43,0,0,0,3.05,1.36c3.36,1.18,8.43,3,7.6,7.88a3.5,3.5,0,0,1-2.54,2.93A4.88,4.88,0,0,1,259.64,200.41Z"/><circle class="cls-6" cx="268.5" cy="232.5" r="2.5"/><path class="cls-5" d="M268.58,245.35a7.32,7.32,0,0,1-4.51-1.51c-2.2-1.7-3.59-4.71-4.13-8.94-.58-4.53,0-8.18,1.7-10.84h0c2.69-4.19,5.8-4.27,7.41-3.94,4.38.89,7.94,6.45,8.74,11.08.72,4.23-.36,8.54-2.82,11.25A8.68,8.68,0,0,1,268.58,245.35Zm-4.42-19.67c-1.32,2.05-1.74,5-1.25,8.83.44,3.41,1.45,5.75,3,7,1.92,1.48,5,1,6.83-1a10.56,10.56,0,0,0,2.08-8.73c-.62-3.6-3.47-8.06-6.38-8.65-1.52-.31-3,.57-4.28,2.62Z"/><path class="cls-7" d="M250.92,275.41a4,4,0,0,0-.47,2.86,3.3,3.3,0,0,0,1.14,2.31,2.3,2.3,0,0,0,2.85-.35,3.28,3.28,0,0,0,.79-2.91C254.87,275.44,252.59,273.05,250.92,275.41Z"/><path class="cls-7" d="M239.85,272.27a4,4,0,0,0-.47,2.86,3.3,3.3,0,0,0,1.14,2.31,2.3,2.3,0,0,0,2.85-.35,3.28,3.28,0,0,0,.79-2.91C243.79,272.3,241.52,269.91,239.85,272.27Z"/><path class="cls-7" d="M264.85,271.7a4,4,0,0,0-.47,2.86,3.3,3.3,0,0,0,1.14,2.31,2.3,2.3,0,0,0,2.85-.35,3.28,3.28,0,0,0,.79-2.91C268.79,271.72,266.52,269.34,264.85,271.7Z"/><path class="cls-5" d="M273.19,270.88c-.93-5.46-4.37-12.29-9.12-14.8a7.42,7.42,0,0,0-5.65-.67c-2.7-2.9-5.74-4.41-8.69-4.22s-5.78,2.08-8.07,5.62a14.94,14.94,0,0,0-1.16,2.2c-2.68-.88-5.24,0-7.2,2.6-2.82,3.73-2.27,10.18-1.48,15.38s2.77,8.89,5.88,10.94a13.92,13.92,0,0,0,7,2.07,10.6,10.6,0,0,0,2.34,2.67,8.75,8.75,0,0,0,5.46,1.86,10.51,10.51,0,0,0,7.78-3.61c.07-.08.14-.18.21-.27h0a11.9,11.9,0,0,0,8.74-4C272.71,282.87,274.21,276.82,273.19,270.88Zm-29-12.45c1.75-2.7,3.68-4.13,5.73-4.26,1.85-.11,3.83.82,5.73,2.66l-.12.1q-.34.27-.67.57l-.13.12c-.26.25-.52.52-.77.8l-.19.22q-.3.35-.59.73l-.2.27c-.25.33-.49.68-.72,1a5.21,5.21,0,0,0-.37.69l0,.07-.28,0-.33,0a5.77,5.77,0,0,0-.63,0h-.25a5.26,5.26,0,0,0-.85.12l-.1,0a5.1,5.1,0,0,0-.7.23l-.24.11a5.34,5.34,0,0,0-.53.29l-.25.16a6,6,0,0,0-.5.39l-.21.18a7,7,0,0,0-.65.7h0l0,0q-.36-.46-.73-.87l-.17-.18c-.19-.21-.38-.42-.58-.61l-.26-.25-.49-.46-.29-.24-.48-.39-.14-.12A12,12,0,0,1,244.18,258.43Zm-4.82,27c-2.37-1.56-3.91-4.55-4.56-8.88-.41-2.71-1.51-9.92.9-13.12a3.62,3.62,0,0,1,2.84-1.75,4.1,4.1,0,0,1,2.05.65,8.45,8.45,0,0,1,.9.62l.12.09c.29.23.58.5.88.78l.15.15q.44.44.88,1l.14.16c.3.36.61.75.91,1.16v0c-.1.19-.18.38-.27.57s-.28.56-.4.85-.29.7-.43,1.06-.22.58-.32.88-.23.73-.33,1.09-.17.58-.24.88-.17.74-.24,1.12-.12.57-.17.85-.11.75-.16,1.13-.07.54-.1.81-.06.76-.08,1.14,0,.49,0,.72c0,.41,0,.8,0,1.2,0,.18,0,.38,0,.56,0,.56.05,1.1.1,1.61a6.53,6.53,0,0,0,.07.71h0v0c.09.69.2,1.35.32,2l.09.43c.13.63.28,1.24.44,1.82l0,.15c.1.34.2.68.31,1A10.34,10.34,0,0,1,239.36,285.41Zm9.53,4.88a8.07,8.07,0,0,1-2-2.51,19.74,19.74,0,0,1-1.92-6.79,4.58,4.58,0,0,1,0-.5c0-.47-.08-1-.09-1.49a22.78,22.78,0,0,1,2.83-12.06,14.32,14.32,0,0,1,1-1.51,4.36,4.36,0,0,1,.32-.35l.1-.09a2.76,2.76,0,0,1,.33-.26l.09-.07a2.25,2.25,0,0,1,.49-.22l.13,0a2.38,2.38,0,0,1,.47-.07h.21a3.21,3.21,0,0,1,.41,0l.24,0a4.82,4.82,0,0,1,.73.24h0c3.54,1.5,7.4,7,8.45,12.14,0,.15.07.31.09.46a14.64,14.64,0,0,1-2.21,10.92v0l-.11.15a6.54,6.54,0,0,1-.4.54C255.55,291.7,251.45,292.32,248.89,290.29ZM267,284.65h0a9.18,9.18,0,0,1-4.57,2.73l.05-.14c.05-.12.1-.25.15-.38.14-.35.27-.7.39-1.06l.15-.49c.11-.36.2-.73.29-1.11,0-.14.07-.28.1-.42.1-.51.19-1,.25-1.55,0-.11,0-.22,0-.33,0-.43.07-.85.08-1.29,0-.18,0-.36,0-.53q0-.58,0-1.16c0-.17,0-.34,0-.51,0-.55-.11-1.09-.2-1.64,0-.21-.08-.41-.12-.59-.07-.36-.16-.72-.26-1.08,0-.13-.08-.25-.11-.38s-.14-.47-.21-.7l-.16-.45c-.07-.21-.15-.42-.23-.63l-.19-.47-.25-.6-.22-.47-.28-.58-.24-.46-.31-.57-.25-.44-.35-.57-.26-.41-.41-.6-.24-.35c-.17-.24-.35-.47-.52-.69l-.16-.2q-.35-.44-.72-.86l-.06-.07q-.33-.37-.68-.72l-.21-.2-.55-.53-.26-.22-.52-.43-.28-.21-.51-.37-.3-.19-.24-.16,0,0,.12-.22q.23-.36.46-.69a9,9,0,0,1,3.38-3.11,4.34,4.34,0,0,1,4.06.21c3.39,1.79,6.64,7.23,7.57,12.66C271.1,276.44,269.88,281.53,267,284.65Z"/><path class="cls-6" d="M205,87c-.47-1.31-1.83-1.88-3.65-1.55a35,35,0,0,1-5.69.41l-1,0a9.65,9.65,0,0,0-.77-4.07,1.5,1.5,0,0,0-2.5-.23,21.7,21.7,0,0,0-2.71,5,14.42,14.42,0,0,0-2.81,1c-1.07.53-9.13,5.43-10.54,7.07a47.79,47.79,0,0,0-4.44,6c-.67,1-1.44,2.22-2.57,3.81l-.09.13-.46.64c1.06-3.69,3.26-7.07,5.58-10.6a69,69,0,0,0,4.34-7.24,68.77,68.77,0,0,0,3.16-8.07c1.73-5,3.36-9.78,6.9-13.21a1.5,1.5,0,0,0-1.29-2.55c-5.39.91-10.28,4.92-13.42,11a59.87,59.87,0,0,0-4.33,12.82c-.28,1.09-.55,2.18-.85,3.26-1.3,4.8-3.13,10.23-6.87,14.09a1.42,1.42,0,0,0-.1.16,29.43,29.43,0,0,0-11-27.58c-1.5-1.13-3.1-2.11-4.65-3.06-1.09-.67-2.22-1.35-3.27-2.07a35.94,35.94,0,0,1-7.3-6.64,1.5,1.5,0,0,0-2.65.87c-.18,3.12,1.22,6.37,3.94,9.14a36.69,36.69,0,0,0,5.84,4.56l1.54,1.05c4.84,3.38,8,6.65,10,10.28a14.47,14.47,0,0,1,.24,12.18,1.49,1.49,0,0,0-.29-.32,35.46,35.46,0,0,1-5.07-5.71c-2.21-2.84-4.5-5.79-7-7.37-4.41-2.78-9.88-2.68-14.71-2.59h-.3c-1.57,0-3.32,0-4.18-1l-.21-.23c-.6-.69-2-2.31-3.76-1.35A2.66,2.66,0,0,0,116.63,87c-.66,3.2,2.2,6.06,5.28,6.73a17.24,17.24,0,0,0,5.2.08c.79-.07,1.54-.13,2.28-.14a14.7,14.7,0,0,1,11.1,4.88c.57.64,1.11,1.35,1.69,2.09a16.05,16.05,0,0,0,5,4.82,4.64,4.64,0,0,0-.42.31l0,0c-3.67-1.71-9.94,0-12.87,2.6a38.5,38.5,0,0,0-3.24,3.38,28.21,28.21,0,0,1-3.75,3.76,28.72,28.72,0,0,1-6.27,3.34c-2.87,1.24-5.84,2.53-8.19,4.85a3.22,3.22,0,0,0-1.07,2,2.5,2.5,0,0,0,.63,1.87,3.06,3.06,0,0,0,2.12,1h.18a5.36,5.36,0,0,0,2.52-.79c6.65-3.51,13.53-7.14,19.53-12l.7-.57a20.87,20.87,0,0,1,3.55-2.55,12.1,12.1,0,0,1,5.81-.69,35.38,35.38,0,0,0-7,4.48c-5.59,4.72-8.71,11.58-11.46,17.63a22.24,22.24,0,0,0-1.68,4.58,1.5,1.5,0,0,0,.9,1.7,2.87,2.87,0,0,0,1.09.21,4.37,4.37,0,0,0,3.21-1.75,23.9,23.9,0,0,0,3.54-6.41c.35-.83.7-1.66,1.09-2.47A27.4,27.4,0,0,1,154,115.44q.73.23,1.49.42a76.38,76.38,0,0,0-5.73,10.36c-.56,1.16-1.13,2.31-1.71,3.45-2.5,4.91-6.08,10.92-11.71,13.91l-.23.12a5.93,5.93,0,0,0-2.77,2.34,3.31,3.31,0,0,0,.18,3.26,2.56,2.56,0,0,0,2.15,1.2h.18a3.47,3.47,0,0,0,1.66-.65,58.36,58.36,0,0,0,20.57-23.29c.28-.58.56-1.17.84-1.77a36.25,36.25,0,0,1,2.88-5.35,11.3,11.3,0,0,1,.77,4.92,33.3,33.3,0,0,1-1.51,7.28c-.17.59-.33,1.17-.49,1.76-2.47,9.1-1.8,16.2,2,21.1a6.21,6.21,0,0,0,3.2,2.37,3.86,3.86,0,0,0,1,.13,3.54,3.54,0,0,0,3.37-2.2c.76-2.15-.91-3.78-2-4.86-.21-.2-.42-.4-.6-.6-1.5-1.6-1.77-4.18-1.92-6.9a44.79,44.79,0,0,1,.23-10.55c.21-1.18.52-2.33.85-3.55s.69-2.58.93-3.92a10.51,10.51,0,0,0,.11-2.19,23.29,23.29,0,0,1,3.55,6.19c.34,1.17.63,2.39.92,3.58a34.23,34.23,0,0,0,2.68,8.15c1.79,3.41,5.5,6.75,9.76,6.75a8.14,8.14,0,0,0,1.39-.12,3.49,3.49,0,0,0,2.14-1.11,3.11,3.11,0,0,0-.22-3.95,6.27,6.27,0,0,0-2.05-1.45l-.22-.11a16.48,16.48,0,0,1-8.62-12.65c-.06-.59-.09-1.19-.12-1.79a13.14,13.14,0,0,0-1.29-6c-1.22-2.17-4.23-3.87-6.76-5h.19a33.54,33.54,0,0,0,6.91-.93c3.75-.79,7.64-1.8,10.46-4.53a21.25,21.25,0,0,0,4-6.09,36.24,36.24,0,0,0,3.17-8s.09-.41.21-1.05c.49-.15,1-.32,1.5-.51.76-.29,1.54-.56,2.31-.83a30.21,30.21,0,0,0,5.7-2.41C204.76,89.54,205.41,88.23,205,87Zm-56.05,22.91c-.34-.5-.64-1-.52-1.4.2-.63,1.27-1.06,2.94-1.18,4.33-.3,7.77.15,10.5,1.37,1.83.82,3.44,2,3.37,2.83C165,114,151,113,148.91,109.89Zm29-2c-1.64,1-5.29,1.41-8.05,1.64,2.37-4.26,6.18-7.7,9.65-10.64a13.67,13.67,0,0,1,5.81-2.84c-.26.78-.5,1.5-.72,2.11C183.32,101.61,181.43,105.83,177.87,107.9Z"/><path class="cls-8" d="M193.91,168.44a12.75,12.75,0,0,0-4.9,2.93,11.28,11.28,0,0,0-2.62,3.12c-1,2-.16,3.56,1.45,3.6C194.08,178.26,200.43,166.87,193.91,168.44Z"/><path class="cls-9" d="M198.54,143.64c.6,1.16,3,3.86,5.92,3.44a2.57,2.57,0,0,0,2.25-3.13C205.49,138.42,196,138.76,198.54,143.64Z"/><path class="cls-10" d="M184.4,181.93c7.49-9.74,19.49-17.29,21.14-29.47a12.34,12.34,0,0,0-1.37-8.15,7.15,7.15,0,0,0-7.12-3.48c-2.21.44-3.95,2.11-5.54,3.71l-10.29,10.31a24.13,24.13,0,0,0-4.43,5.4,24.16,24.16,0,0,0-2.15,8.11c-.62,4.34-7.06,31-4,33.17C175,204.54,182.08,184.63,184.4,181.93Z"/><path class="cls-10" d="M187.83,155.38a9.52,9.52,0,0,0-4.13,4,7.41,7.41,0,0,0-1.25,3.71,3.46,3.46,0,0,0,4,3.43C194.13,165.46,194.78,152.51,187.83,155.38Z"/><path class="cls-10" d="M181.44,176.94a9.34,9.34,0,0,0-2.07,4.21c-.27,1.08-.87,5.35,2.83,5.07C187.7,185.78,185.48,172.91,181.44,176.94Z"/><path class="cls-10" d="M203,150.66a9.3,9.3,0,0,0-3.35,3.92c-.55,1.08-2.12,6.91,2.39,6.2C208.46,159.76,208.67,147.48,203,150.66Z"/><path class="cls-10" d="M174.44,161.94c-2.94,2.56-2.51,6.48-2.32,7.51.35,1.85,1.84,2.47,3.08,1.77C180,168.49,178.74,158.19,174.44,161.94Z"/><path class="cls-10" d="M195.19,139.69a10.93,10.93,0,0,0-4.93,2.57,9.27,9.27,0,0,0-2.53,3c-.94,2,.08,3.68,1.77,3.89C196,149.93,201.91,138.7,195.19,139.69Z"/><path class="cls-6" d="M362.92,198.84c-3.3-2.27-6.19-1.64-9.24-1-.89.2-1.82.4-2.81.54-1.29.19-2.35,0-2.5-.38a1.47,1.47,0,0,0-.38-.54,26.34,26.34,0,0,0,1.71-4,26.32,26.32,0,0,0,5.46-2.26l.77-.44a13.58,13.58,0,0,1,2.36-1.16,3.17,3.17,0,0,1,2.47,0,4,4,0,0,1,1.55,2.08,1.65,1.65,0,0,0,1.7,1c2.17-.24,3.09-5.27,3.1-5.32.58-3.24-.72-4.43-1.56-4.85-2.61-1.31-5.6-.59-7.92.19a54.61,54.61,0,0,0-6.4,2.59,35.8,35.8,0,0,0-.76-9,38.39,38.39,0,0,0-5.07-12.56,22.12,22.12,0,0,0-8.05-7.92c-1.94-1-6.44-3.28-6.62-3.58-1.09-1.83-.78-5.39-.57-7.73l0-.28a53.62,53.62,0,0,1,1.63-5.85c2.7-8.81,3.17-11,1.62-12a1.92,1.92,0,0,0-1.54-.2c-.72.2-2.05.58-6,8.76l-.07.16a26.3,26.3,0,0,0-3,16.09,41.81,41.81,0,0,0-7.58-.52c.87-4.51,1.32-12.71.73-14.94-.91-3.46-2.43-9.26-5.7-11.16-4.26-2.5-6.41-1-7.14-.22a3.45,3.45,0,0,0-.38,4.24,14.47,14.47,0,0,0,1.16,1.41c1.86,2.1,5.71,6.46,5.7,9.87,0,4.28-1.45,8.46-2.95,12.52a11.64,11.64,0,0,0-1.16.59l-.26.16c-1.25-.74-2.65-1.59-4.13-2.49-11.77-7.17-20.4-12.15-24.21-11a2.84,2.84,0,0,0-1.83,1.51c-1.14,2.36,1.47,3.78,2.89,4.55.29.15.58.31.81.46a64.09,64.09,0,0,0,6.49,3.46,48.83,48.83,0,0,1,7.64,4.29,47.72,47.72,0,0,1,3.84,3.24c1.25,1.12,2.52,2.27,3.9,3.3,0,.19,0,.39,0,.59-6.22-1.15-12.47,1.71-16.8,4.08l-2.36,1.32c-4.51,2.55-8.78,5-13.72,5.38a11.23,11.23,0,0,1-2-.36c-1.92-.45-3.57-.84-4.66,0a2,2,0,0,0-.77,1.58c0,2,3.69,4.73,7,5.43a7.2,7.2,0,0,0,.93.14c5.28.47,10.16-1.69,14.9-3.78a62.58,62.58,0,0,1,6.81-2.7c4.32-1.31,8.17-2.28,11.56-.94l.07,0a35.28,35.28,0,0,0,1.49,4.8c-6.88,4.47-11.26,5.74-20.46,7.15-7.33,1.12-13.71,11.32-15.14,15.39-.4,1.16-.76,2.62.12,3.56a1.76,1.76,0,0,0,1,.55,2,2,0,0,0,1,0c2.86-.75,4.86-3.48,7-6.39,1.58-2.15,3.21-4.38,5.14-5.65,4.16-2.71,13.95-5.39,26.44-5.23l.13.19a27.45,27.45,0,0,1-8,15.06c-1.3,1.25-2.72,2.35-4.23,3.53a50.06,50.06,0,0,0-5.22,4.5c-3.13,3.23-4.8,5.58-5.86,10.24-1,4.46.39,8.16,3.77,9.93a1.83,1.83,0,0,0,.38.13,1.52,1.52,0,0,0,.83-.06,1.47,1.47,0,0,0,.87-.84,29.76,29.76,0,0,0,1.23-4.29,31.65,31.65,0,0,1,4.64-11.5,30,30,0,0,1,5.88-6.26c1.33-1.15,2.69-2.35,4.14-3.87a39.1,39.1,0,0,0,7-10.18c1.22,1.21,2.48,2.34,3.75,3.38a1.32,1.32,0,0,0-.21.35,25.32,25.32,0,0,0-1.4,7.14,28.25,28.25,0,0,1-.84,5.32c-1,3.35-3.21,6.14-5.57,9.1-.94,1.18-1.92,2.41-2.81,3.67-1.52,2.15-3.15,6.4-4.35,9.49-.2.51-.38,1-.55,1.39a1.51,1.51,0,0,0,.84,1.94,2.71,2.71,0,0,0,.39.12c1.13.24,2.72-.51,6.14-6.68,1.62-2.95,4.12-5.29,6.76-7.75,1.05-1,2.15-2,3.17-3.06a16,16,0,0,0,3.49-4.87,18.52,18.52,0,0,0,1.09-5.31l.61-6.17c.39.23.78.45,1.17.65,0,.09,0,.17.08.26a23.33,23.33,0,0,1,1,13.85c-.27,1.09-.61,2.16-1,3.3-.41,1.3-.84,2.64-1.14,4a25.69,25.69,0,0,0,.18,11.17c.35,1.5,2.44,5.65,4.73,6.56a4.42,4.42,0,0,0,.67.2,2.47,2.47,0,0,0,2.26-.54c.4-.36,1.65-1.48.39-6a34.46,34.46,0,0,1-.18-17.93c.19-.71.4-1.4.6-2.1a34.5,34.5,0,0,0,1.16-4.76,13.23,13.23,0,0,0-.1-4.72l.26.07c1.26,1.28,2.32,3.76,3.13,5.71a7.66,7.66,0,0,1,.39,2.83c.09,6.58.39,12.46,3.07,17.86a7.73,7.73,0,0,0,5.2,3.62l.3.06a6,6,0,0,0,5.3-1.5,2.79,2.79,0,0,0,1-2.35c-.17-1.35-1.37-2.07-2.77-2.88-2.34-1.38-5.24-3.09-5.51-7.77-.15-2.46-.9-8.27-1.25-10.61a14.29,14.29,0,0,0-1.68-5,6.55,6.55,0,0,0,1.37-.54,8.57,8.57,0,0,0,2.39,1.72,9.44,9.44,0,0,0,2.16.73,11.46,11.46,0,0,0,4.83-.07c.8-.18,1.58-.43,2.34-.67a12.24,12.24,0,0,1,3.36-.79c.95,0,5.73-.29,6.44-2.67C364.61,201.06,364.53,199.94,362.92,198.84Zm-19.27-.05c-.26.37-.56.75-.86,1.13A3.92,3.92,0,0,1,341.2,201l-2.53.46-.29.05-2.72-.22a23.23,23.23,0,0,1-2.4-.57c-.72-.2-1.47-.45-2.22-.74a38.64,38.64,0,0,1-6.52-3.29q-.94-.57-1.89-1.22A49.65,49.65,0,0,1,315,189c-.78-.81-1.54-1.66-2.28-2.54-.44-.53-.88-1.07-1.3-1.64-.75-1-1.47-2-2.14-3.12a35.82,35.82,0,0,1-5.65-18.13c0-.39,0-.78,0-1.18,0-.13,0-.25,0-.38,0-.28,0-.56,0-.84a6.61,6.61,0,0,1,.39-2.08,6,6,0,0,1,2.09-2.85h0a1.74,1.74,0,0,1,.27-.22,6.79,6.79,0,0,1,.64-.41,5.72,5.72,0,0,1,.54-.28,9.68,9.68,0,0,1,1.36-.58c3.95-1.42,21.34,9.54,19.13,11.66-1.2,1.16-3.27,1.92-4.74,3a15.31,15.31,0,0,0-6.36,8.09c-.8,2.13.37,4.91,3.11,7.44a13.35,13.35,0,0,0,5.93,3.31,5.73,5.73,0,0,0,3.64-.32c2.86-1.34,3.38-4.47,3.85-7.22a13.49,13.49,0,0,1,1.14-4.2,6,6,0,0,1,4-3.11c2.44-.56,9.94,9.7,9.45,13.75,0,.48-.12,1-.21,1.47a23.07,23.07,0,0,1-.53,2.43,24.18,24.18,0,0,1-1.14,3.24A22.93,22.93,0,0,1,343.65,198.78Z"/><path class="cls-5" d="M188.69,293.24c-3.19,8.24-1.17,17.6,2.21,25.76,3,7.3,7.67,14.64,15.07,17.4,8.73,3.26,19.2-1.38,24-9.37s4.37-18.41.41-26.84C223.1,284.69,198,269.17,188.69,293.24Z"/><path class="cls-4" d="M346.42,92.75c-1.2-3.24-10.1-3.19-11.25-3a14.13,14.13,0,0,0-5.36,2.59l-.26.18a84.29,84.29,0,0,1-11.82,6.68c-1.9.88-4.11,1.81-6.24,1.68-1.44-.09-2.83-1.2-4.13-3.3a1.45,1.45,0,0,0-.16-.31,14.3,14.3,0,0,0-1.89-5.15,13.41,13.41,0,0,1,.78-1.38c.72-1.11,1.32-2.25,1.89-3.34a16.31,16.31,0,0,0,6-.45A1.51,1.51,0,0,0,315,85.64a1.49,1.49,0,0,0-.87-1.47l-3.32-1.55a10,10,0,0,1,1.33-1.33,4.51,4.51,0,0,1,1.44-.9,3.75,3.75,0,0,1,1.65,0,14.84,14.84,0,0,1,6.63,3l.2.16A5.62,5.62,0,0,0,324.83,85a3.22,3.22,0,0,0,2.72-.94,2.51,2.51,0,0,0,.68-2.24,3.33,3.33,0,0,0-.74-1.44,16.93,16.93,0,0,0-5.22-4.86c-3.52-1.84-8.17-1.49-12.12.94a20.21,20.21,0,0,0-4.44,3.76c-3.46-1.54-7.77-3.14-12.07-2.16a13,13,0,0,0-5.91,3.2,45.53,45.53,0,0,0-7.81-1.1c-9.55-.5-19.76,4.35-25.87,11.91l-.19-.09c-4.79-2.36-9.18-2.39-12-.09-2.64,2.14-4.07,5.47-5.34,8.41l-.09.22c-.45,1-1,2.1-1.52,3.11-1.51,3-3.08,6-2.94,9.63a1.51,1.51,0,0,0,1.18,1.41,1.54,1.54,0,0,0,.94-.11c3.08-1.44,4.73-4.45,6.19-7.12a40,40,0,0,1,5.81-8c1.24-1.15,1.87-1,3.94-.7h0a42.17,42.17,0,0,0-3.71,16.09,12,12,0,0,0-3.93.1,30,30,0,0,0-3.81,1.22c-.66.24-1.32.49-2,.71-1.7.55-6.87,1.39-11.44,2.13-1.71.28-3.37.55-4.75.79a33.12,33.12,0,0,1-3.49-.44c-.61-.09-1.12-.17-1.42-.21a4,4,0,0,0-2.92.8,2.86,2.86,0,0,0-1.09,1.93c-.09.82.07,2.83,3.49,3.84,1.74.51,3.52,1,5.3,1.38,4.08.86,8.18,1.1,12-.47a26.58,26.58,0,0,0,3.91-2.13,19.63,19.63,0,0,1,4.24-2.18,13,13,0,0,1,6.54,0l.44.11c.21,1,.45,1.92.75,2.87a15.19,15.19,0,0,0-9.27,13,5.94,5.94,0,0,0,.19,2,6.8,6.8,0,0,0,1.19,2.15c.68.91,1.37,1.77,2.06,2.55a52.74,52.74,0,0,0-4,7.26c-1,2.16-1.93,4.72-1.41,7.35a3.46,3.46,0,0,0,2.41,2.84,2.35,2.35,0,0,0,.86,0,3.22,3.22,0,0,0,2.45-2.22,40.67,40.67,0,0,0,1.55-4.49,25.28,25.28,0,0,1,2.31-5.87c.14-.24.29-.46.45-.68a16.75,16.75,0,0,0,6.36,2.87l.17,0a1.5,1.5,0,0,0,1.58-.7c.77-1.3.43-2.94-.94-4.5a18.3,18.3,0,0,0-3-2.77A47.58,47.58,0,0,0,258.64,130c1.69.17,3.44.3,5.22.36h0c2.4,3,4.52,5.95,4.45,9.14-.06,2.55-1.49,4.9-3,7.38-.35.58-.7,1.16-1,1.73a38.17,38.17,0,0,0-2.68,5.72c-1.84,5-.74,7.77.49,9.25a1.46,1.46,0,0,0,1.4.52,1.49,1.49,0,0,0,1.16-1,26.72,26.72,0,0,0,.78-2.66c.14-.54.28-1.09.44-1.61a36.66,36.66,0,0,1,3.93-7.89c.58-1,1.16-1.92,1.7-2.9,1.76-3.14,4-7.92,3.1-12.91a23.11,23.11,0,0,0-.66-2.58,14.79,14.79,0,0,1-.65-2.72,40.85,40.85,0,0,0,4.33-.84l.07,0c2.39,1,4.85,4.5,5.17,7.39.11,1.07.14,2.15.16,3.3a21.36,21.36,0,0,0,.87,6.74c2,5.77,8,8.69,13.48,11a12.44,12.44,0,0,0,2.21.73,4.68,4.68,0,0,0,4-.72,1.51,1.51,0,0,0,.57-1.23,1.55,1.55,0,0,0-.66-1.19l-9.16-6.27a12.44,12.44,0,0,1-3.32-2.87c-1.25-1.82-1.33-4.26-1.42-6.84l0-1a49.62,49.62,0,0,0-2.25-12.88,35,35,0,0,0,5.22-3.75,20.72,20.72,0,0,0,8.75,3.54c.71.11,1.43.19,2.15.26a14.22,14.22,0,0,1,4.55.95c1.89.89,3.27,2.65,4.73,4.52.48.6.94,1.21,1.43,1.78a26.49,26.49,0,0,0,6.83,5.73,12.23,12.23,0,0,0,3.65,1.52,6.91,6.91,0,0,0,2.9,0,1.5,1.5,0,0,0,.82-2.44A34.57,34.57,0,0,0,321,131l-.6-.38a10.14,10.14,0,0,1-2.93-2.38,10.25,10.25,0,0,1-1-2.29,12.15,12.15,0,0,0-1.41-3c-2.26-3.24-6.51-3.78-9.93-4.2-3.67-.47-5.92-1.47-6.85-3.09,1-1.14,1.87-2.32,2.71-3.53,2.22,1.3,5.06,1.85,7.81,2.37s5.62,1.08,7.46,2.35,3,3.29,4.25,5.42c.62,1,1.26,2.14,2,3.17a20.41,20.41,0,0,0,7.59,6.41,1.55,1.55,0,0,0,.35.12,1.49,1.49,0,0,0,1.47-.52c1-1.22,1.65-3.46-.91-7.17l-5.11-7.37a21,21,0,0,0-3.8-4.49c-2.56-2.08-5.69-2.82-8.72-3.54a21.26,21.26,0,0,1-6.91-2.47c-.66-.44-.78-.75-.78-.79a.79.79,0,0,0,0-.23,30.76,30.76,0,0,1,4.16,1c1,.3,2.1.6,3.21.84.59.12,1.18.23,1.79.29,3.3.38,6.83-.93,10.48-3.89.94-.75,1.81-1.59,2.66-2.38a21.19,21.19,0,0,1,5-3.91,22.91,22.91,0,0,1,6.3-1.35,27.28,27.28,0,0,0,6.3-1.28A1.5,1.5,0,0,0,346.42,92.75Zm-45.19-6.32q-.23.35-.42.71c-.41-.32-.85-.64-1.3-.94C300.07,86.26,300.65,86.34,301.23,86.43Zm-8.37.56a8.43,8.43,0,0,1,1.07-.43,24.34,24.34,0,0,1,5.33,3.22c-1.06,1.92-2,3.88-2.93,5.88a45.91,45.91,0,0,0-9.1,1.66C287.63,93.22,289.77,88.51,292.86,87Zm-22.11,2.17c1.57-4,10.24-4.82,14.3-4.79a28.07,28.07,0,0,0-2.82,5,57.45,57.45,0,0,0-3.41,11v0c-1.72.73-3.23,1.46-4.47,2.07a17.61,17.61,0,0,1-1.49-2.06l-.17-.27C270.89,97.21,268.87,94,270.75,89.16Zm-18.94,13c.08-.17,1.54-2.25,1.62-2.4a25.42,25.42,0,0,1,2.83,1.93c1.25.95,4,7,4.62,9.35a49.64,49.64,0,0,0-5.05,4.69c-.27.28-.52.56-.77.85-.9-.17-1.94-.41-3-.68-.88-.22-1.81-.44-2.74-.64A30.36,30.36,0,0,1,251.81,102.2Zm-6.25,33.34a13.43,13.43,0,0,1,3.35-4.11,21,21,0,0,1,2.35-1.49l0,0a7.56,7.56,0,0,1,.35.72,4.26,4.26,0,0,1-.56,3.55,16.32,16.32,0,0,1-2.51,3l-.51.55c-.79.83-1.54,1.67-2.26,2.54a3.32,3.32,0,0,1-.3-.44A5,5,0,0,1,245.56,135.53Zm38.73-12.08c-10.92,5.33-22.93,4.19-32.24,2.57,2.8-5.33,7.31-10.26,13.45-14.72.48,3.93.94,6.9,1.47,8.14a7.08,7.08,0,0,0,5.19,3.93,8.22,8.22,0,0,0,1.29.17c2.31.15,14.49-4.34,15.34-8.35.74-3.53-2.07-6.05-5.23-6.72a16.47,16.47,0,0,1-7-3.79c8.44-4.14,19-7.31,27-5.63l.62.14C301.53,108.37,292.57,119.43,284.29,123.45Z"/><path class="cls-7" d="M213.66,293.42a3.41,3.41,0,0,0,.22,2.48,2.83,2.83,0,0,0,1.44,1.68,2,2,0,0,0,2.29-.9,2.81,2.81,0,0,0,0-2.58C216.94,292.61,214.54,291.11,213.66,293.42Z"/><path class="cls-7" d="M193.32,300.4a3.41,3.41,0,0,0,.22,2.48,2.83,2.83,0,0,0,1.44,1.68,2,2,0,0,0,2.29-.9,2.81,2.81,0,0,0,0-2.58C196.6,299.59,194.21,298.09,193.32,300.4Z"/><path class="cls-7" d="M217.88,323.58a3.41,3.41,0,0,0-1.52,2,2.83,2.83,0,0,0-.07,2.21,2,2,0,0,0,2.29.89,2.81,2.81,0,0,0,1.77-1.88C220.85,325.21,220.1,322.48,217.88,323.58Z"/><path class="cls-11" d="M196.13,299.54c-2,5.28-.75,11.27,1.42,16.5,1.94,4.67,4.91,9.38,9.65,11.15,5.59,2.09,12.3-.88,15.36-6s2.8-11.79.26-17.19C218.17,294.06,202.11,284.12,196.13,299.54Z"/><path class="cls-7" d="M204.14,301.17a3.41,3.41,0,0,0,.22,2.48,2.83,2.83,0,0,0,1.44,1.68,2,2,0,0,0,2.29-.9,2.81,2.81,0,0,0,0-2.58C207.42,300.35,205,298.86,204.14,301.17Z"/><path class="cls-7" d="M212.25,301.75a3.41,3.41,0,0,0,.22,2.48,2.83,2.83,0,0,0,1.44,1.68,2,2,0,0,0,2.29-.9,2.81,2.81,0,0,0,0-2.58C215.53,300.93,213.14,299.43,212.25,301.75Z"/><path class="cls-7" d="M210.22,311.12a3.41,3.41,0,0,0,.22,2.48,2.83,2.83,0,0,0,1.44,1.68,2,2,0,0,0,2.29-.9,2.81,2.81,0,0,0,0-2.58C213.51,310.3,211.11,308.8,210.22,311.12Z"/><path class="cls-7" d="M205.76,293.68a3.41,3.41,0,0,0,.22,2.48,2.83,2.83,0,0,0,1.44,1.68,2,2,0,0,0,2.29-.9,2.81,2.81,0,0,0,0-2.58C209,292.86,206.64,291.36,205.76,293.68Z"/><path class="cls-7" d="M194.06,311a3.41,3.41,0,0,0,.48,2.44,2.83,2.83,0,0,0,1.62,1.51,2,2,0,0,0,2.18-1.14,2.81,2.81,0,0,0-.25-2.57C197.24,309.86,194.69,308.63,194.06,311Z"/><path class="cls-7" d="M197.7,303.7a3.41,3.41,0,0,0,.22,2.48,2.83,2.83,0,0,0,1.44,1.68,2,2,0,0,0,2.29-.9,2.81,2.81,0,0,0,0-2.58C201,302.89,198.59,301.39,197.7,303.7Z"/><path class="cls-7" d="M217.7,309.2a3.41,3.41,0,0,0,.22,2.48,2.83,2.83,0,0,0,1.44,1.68,2,2,0,0,0,2.29-.9,2.81,2.81,0,0,0,0-2.58C221,308.39,218.59,306.89,217.7,309.2Z"/><path class="cls-7" d="M219.72,299.83a3.41,3.41,0,0,0,.22,2.48,2.83,2.83,0,0,0,1.44,1.68,2,2,0,0,0,2.29-.9,2.81,2.81,0,0,0,0-2.58C223,299,220.61,297.52,219.72,299.83Z"/><path class="cls-7" d="M206.56,324.45a3.41,3.41,0,0,0,.22,2.48,2.83,2.83,0,0,0,1.44,1.68,2,2,0,0,0,2.29-.9,2.81,2.81,0,0,0,0-2.58C209.84,323.63,207.45,322.13,206.56,324.45Z"/><path class="cls-7" d="M213,318.38a3.41,3.41,0,0,0,.22,2.48,2.83,2.83,0,0,0,1.44,1.68,2,2,0,0,0,2.29-.9,2.81,2.81,0,0,0,0-2.58C216.25,317.56,213.86,316.07,213,318.38Z"/><path class="cls-7" d="M199.5,292a3.41,3.41,0,0,0-1.75,1.77,2.83,2.83,0,0,0-.35,2.18,2,2,0,0,0,2.16,1.17,2.81,2.81,0,0,0,2-1.64C202.25,294,201.84,291.22,199.5,292Z"/><path class="cls-7" d="M202.34,314.9a3.41,3.41,0,0,0,.22,2.48,2.83,2.83,0,0,0,1.44,1.68,2,2,0,0,0,2.29-.9,2.81,2.81,0,0,0,0-2.58C205.63,314.09,203.23,312.59,202.34,314.9Z"/><path class="cls-7" d="M222.72,315a3.41,3.41,0,0,0,.22,2.48,2.83,2.83,0,0,0,1.44,1.68,2,2,0,0,0,2.29-.9,2.81,2.81,0,0,0,0-2.58C226,314.18,223.61,312.68,222.72,315Z"/><path class="cls-7" d="M166.32,331.59c.79-1.08,1-2.45-.73-3.19a2.86,2.86,0,0,0-1.23-.22,17.15,17.15,0,0,0-10.71-5,60.63,60.63,0,0,0-11.5.39h0a2.81,2.81,0,0,0-1.3-.26,5.6,5.6,0,0,0-2.76.9,60.59,60.59,0,0,0-9.57,2.67,7.69,7.69,0,0,0-3.64,2.42,2.18,2.18,0,0,0-.44.11,2.3,2.3,0,0,0-1.17,2.62,2.94,2.94,0,0,0,1.2,1.68h0a4.62,4.62,0,0,0,.33.67c1.23,2.08,3.41,3.09,5.58,3.88,1.49.53,3,1,4.54,1.43a2.45,2.45,0,0,0,1,1.38,3.27,3.27,0,0,0,3,.19,3.9,3.9,0,0,0,.81-.46,62.89,62.89,0,0,0,11.76,1.13c.94,0,1.89,0,2.83-.06,2.65-.13,5.42-.46,7.75-2,4.45-3,4.8-6.12,4.28-8.23Zm-2.85,1.64c-.08,1.38-1.11,2.76-3.11,4.11A6.37,6.37,0,0,1,159,338a1.79,1.79,0,0,0-1.28-2,4,4,0,0,0-2.9.1,3.38,3.38,0,0,0-2,1.58,1.94,1.94,0,0,0-.12,1.14,59.47,59.47,0,0,1-11.52-.89c-1.58-.27-3.16-.61-4.71-1-1.72-.45-3.42-1-5.08-1.57a11.82,11.82,0,0,1-2.9-1.4,1.76,1.76,0,0,0,.71-2.52,3,3,0,0,0-1-1.21,9,9,0,0,1,1.38-.62,59.38,59.38,0,0,1,5.73-1.78,2.07,2.07,0,0,0,1.75,1.45,5.16,5.16,0,0,0,3.68-1.11,6.21,6.21,0,0,0,1.53-1.69,58.36,58.36,0,0,1,7.58-.5c1.21,0,2.43,0,3.63.12l.21,0a5.71,5.71,0,0,0-.59.17,3.29,3.29,0,0,0-2,1.58,2.3,2.3,0,0,0,.91,2.72,3.27,3.27,0,0,0,3,.2c1.5-.61,3.07-2.63,1.94-4-.49-.17-1-.31-1.48-.43a13.75,13.75,0,0,1,1.48.43,14.55,14.55,0,0,1,4.37,2.4,6.21,6.21,0,0,1,2.13,2.94A2.94,2.94,0,0,1,163.47,333.23Z"/><path class="cls-7" d="M144,332.16a4,4,0,0,0-2.9.1,3.29,3.29,0,0,0-2,1.58,2.29,2.29,0,0,0,.91,2.72,3.27,3.27,0,0,0,3,.2C144.72,336,146.61,333.33,144,332.16Z"/></svg>