<svg id="Layer_1" data-name="Layer 1" xmlns="http://www.w3.org/2000/svg" viewBox="0 0 400 100"><defs><style>.cls-1{fill:#231f20;}.cls-2{fill:#fff;}</style></defs><title>monogram</title><circle class="cls-1" cx="47.45" cy="50" r="45.5"/><path class="cls-2" d="M65.58,50l13.3-23L60.19,40.71,47.45,18.64,34.7,40.71,16,27l13.3,23L16,73.09,34.7,59.38,47.45,81.46,60.19,59.38l18.69,13.7Z"/><circle class="cls-1" cx="47.06" cy="36.22" r="3.54"/><path class="cls-1" d="M66.15,50,79.22,27.37A.83.83,0,0,0,78,26.29L60.06,39.45,47.78,18.17a.83.83,0,0,0-1.43,0L34.06,39.45,16.11,26.29a.83.83,0,0,0-1.2,1.08L28,50,14.91,72.63a.83.83,0,0,0,1.2,1.08L34.06,60.55,46.35,81.83a.83.83,0,0,0,1.43,0L60.06,60.55,78,73.71a.83.83,0,0,0,1.2-1.08ZM18.31,29.95,33,40.73l-4.24,7.34Zm0,40.1L29.66,50.4s0,0,0,0v0l5.4-9.35h0l12-20.81L58.58,40.18,33.83,58.66h0Zm28.76,9.71-11.52-20L60.2,41.39l.1-.06L75.82,29.95,64.48,49.59h0l-5.39,9.34h0ZM61.12,59.27l4.24-7.34L75.82,70.05Z"/><path class="cls-1" d="M235,39.8l-6.92,7.64-3.44-7.64a2,2,0,0,0-3.8-.2l-5.26,10.88-.07.11c-2.44,5.24-6.48,8.52-11.08,8.52-3.08,0-4.88-1.68-4.68-4,.08-1,.6-1.68,1.6-1.36,2.36.76,6.88.08,9.92-3.32,3.8-4.2,2.48-10.2-3.24-10.24-5.43,0-10.2,5.43-11.94,10.81a2.31,2.31,0,0,0-.14.23c-2.68,5.76-5.12,7.48-7.32,7.48s-2.68-2-1.88-3.72l11.84-26.32c1-2.48-2.68-4.36-3.8-1.76l-11,24.17s-.06.09-.09.14c-2.68,5.76-5.12,7.48-7.32,7.48s-2.72-2.24-1.92-3.76c3.88-9.28,12.24-30.44,11.92-29.31a1.86,1.86,0,0,0-.56-2.6,2.49,2.49,0,0,0-2.88.56c-34.31,32.31-39.67,35-44.63,35-2.36,0-4.08-1.92-4.08-5.16,0-3,2.92-6.12,6.68-6.12a2.85,2.85,0,0,0,2.64-2.24,1.86,1.86,0,0,0-1.88-2.24,11.82,11.82,0,0,0-11.92,11.32c0,4.88,3.52,8.88,8.44,8.88,5.12,0,10.6-2.76,23.64-14.52h10.76l-2.08,4.72c-2.2,4.92.36,9.8,5.44,9.8a10.34,10.34,0,0,0,6.85-3,6,6,0,0,0,5.44,3c2.45,0,5.36-1.26,8-4.18a7.06,7.06,0,0,0,1.11,1.66c1.6,1.68,4,2.52,7.16,2.52,7,0,11.72-4.06,14.61-10,0-.06.08-.12.11-.18l3.32-7.12,2.36,5.2-7.6,8.36a2.24,2.24,0,1,0,3.36,3l6.24-6.92,2.8,6.16a2.2,2.2,0,0,0,2.12,1.52,2.69,2.69,0,0,0,.72-.12,2.18,2.18,0,0,0,1.36-2.84l-3.76-8.28,8.24-9.12a2.22,2.22,0,1,0-3.32-3Zm-33,9.28c.84-1.52,3.44-5,5.8-5,1.88,0,2.4,2,.56,4a6,6,0,0,1-5.72,2C201.56,50,201.88,49.44,202.08,49.08Zm-35.48-4.84c4-3.68,8.48-8,13.76-13.2l-5.84,13.2h-7.92Z"/><path class="cls-1" d="M292.59,26.84a2.25,2.25,0,0,0,2.24-2.2,2.21,2.21,0,0,0-2.24-2.24c-6.68.12-12,6.36-18.48,19.48-1.16,2.24-2.24,4.52-3.16,6.64.6-14,.4-26.6-9.56-26.6-4.36,0-8.64,4.08-10.24,8.44-1.16,3.08-.92,8.44,1.32,10.2a2.06,2.06,0,0,0,3-.24,2.11,2.11,0,0,0-.16-2.88,7.47,7.47,0,0,1-.24-5.56c1.36-3.4,4.28-6.2,6.88-6.2,6.52,0,5.08,23.68,4.28,35.43a2.22,2.22,0,0,0,4.32.68,167.37,167.37,0,0,1,7.52-18C283.47,33,288.83,26.84,292.59,26.84Z"/><path class="cls-1" d="M386.55,51.28c-2.68,5.76-5.12,7.48-7.32,7.48s-2.68-2-1.88-3.72l4.92-10.92h2.32A2.1,2.1,0,0,0,386.67,42a2.07,2.07,0,0,0-2.08-2.12h-.4l1.68-3.76c1-2.48-2.68-4.36-3.8-1.76l-2.52,5.52h-2.72A2.08,2.08,0,0,0,374.72,42a2.11,2.11,0,0,0,2.12,2.12h.76l-3.36,7.29c-2.6,5.38-5.11,7.35-7.24,7.35-2.32,0-2.72-2.24-1.92-3.76l4.16-8.76,1.12-2.44a1.08,1.08,0,0,0-.6-1.6l-4.44-1.88c-.2-.08-.28-.2-.16-.52,1-2.44-2.84-3.76-3.88-1.32l-5.64,12.2c-2.44,5.19-6.46,8.44-11,8.44-3.08,0-4.88-1.68-4.68-4,.08-1,.6-1.68,1.6-1.36,2.36.76,6.88.08,9.92-3.32,3.8-4.2,2.48-10.2-3.24-10.24-5.35,0-10.06,5.27-11.87,10.58v0c-2.36,4.76-3.84,6.2-5.52,6.28A15.65,15.65,0,0,0,333.67,47a8.08,8.08,0,0,0-3.84-6.52,7.42,7.42,0,0,0-6.52-.08,2.08,2.08,0,0,0-1.16-1.48A2.11,2.11,0,0,0,319.32,40l-5.6,12.3c-2.49,5-4.78,6.5-6.84,6.5-2.32,0-2.68-2-1.88-3.72l11.84-26.32c1-2.48-2.68-4.36-3.8-1.76L302.17,50.75l-.06.09c-2.44,4.88-3.92,6.28-5.68,6.28h-.24A15.64,15.64,0,0,0,299.07,47a8.08,8.08,0,0,0-3.84-6.52,7.86,7.86,0,0,0-7.6.44c-4.84,2.68-8.56,9.08-8,14.88.28,3,1.68,5.44,3.84,6.56A7.48,7.48,0,0,0,288,63a9,9,0,0,0,3.08-1.12A10.35,10.35,0,0,0,293,60.52a4.86,4.86,0,0,0,3,1,7.85,7.85,0,0,0,4.86-1.71,5.93,5.93,0,0,0,5.59,3.35,8.27,8.27,0,0,0,2.54-.43L303.36,75a2.16,2.16,0,0,0,1,2.84,2.75,2.75,0,0,0,.88.2,2.23,2.23,0,0,0,2-1.28l8-17.52a6.56,6.56,0,0,0,2.84,3,7.48,7.48,0,0,0,4.56.64,9,9,0,0,0,3.08-1.12,11.83,11.83,0,0,0,1.72-1.16,5,5,0,0,0,2.76.8,8.31,8.31,0,0,0,6-2.75,7.06,7.06,0,0,0,1.2,1.87c1.6,1.68,4,2.52,7.16,2.52,7,0,11.72-4.06,14.61-10,0-.06.08-.12.11-.18l4-9a.21.21,0,0,1,.32-.08l1.48.64c.16.08.2.2.12.44l-4.16,8.4c-2.2,4.92.36,9.8,5.44,9.8a10.41,10.41,0,0,0,6.77-3.1,6,6,0,0,0,5.47,3.1c3.72,0,8.52-2.88,11.72-10.16C391.63,50.44,387.71,48.8,386.55,51.28Zm-44.36-2.2c.84-1.52,3.44-5,5.8-5,1.88,0,2.4,2,.56,4a6,6,0,0,1-5.72,2C341.68,50,342,49.44,342.2,49.08ZM294.52,51c-1.12-.24-2.6.32-3.48,2.16a5.3,5.3,0,0,0-.36,3.92,7.5,7.5,0,0,1-1.52,1.08c-1.44.8-2.64,1-3.6.4a3.51,3.51,0,0,1-1.64-3c-.4-3.88,2.2-8.72,5.76-10.72a3.92,3.92,0,0,1,3.6-.44c.88.4,1.48,1.48,1.64,3.16A8.74,8.74,0,0,1,294.52,51Zm34.56.12c-1.12-.48-2.88,0-3.84,2a5.43,5.43,0,0,0-.28,4.2c-.4.28-.8.56-1.2.8-1.44.8-2.64,1-3.6.4a3.67,3.67,0,0,1-1.64-3c-.4-3.88,2.2-8.72,5.76-10.72a3.91,3.91,0,0,1,3.6-.44c.88.4,1.48,1.48,1.64,3.16A8.66,8.66,0,0,1,329.07,51.08Z"/></svg>