<svg xmlns="http://www.w3.org/2000/svg" viewBox="0 0 1050 210"><defs><style>.cls-1{fill:#f8f3e9;}.cls-2{fill:#ffcd34;}.cls-3{fill:#cb9932;}</style></defs><title>nina_icon_set</title><g id="Layer_3" data-name="Layer 3"><rect class="cls-1" width="1050" height="210"/><ellipse class="cls-2" cx="945" cy="96.04" rx="59.52" ry="54.23"/><path class="cls-3" d="M979.81,61.36l-4.6-.33-3.14-.23c-9.3-.7-24.87-1.87-32.48-.64-2.28.37-4.51,2.78-18.95,26.84-2.17,3.62-4,6.75-4.85,7.93l-1.64,2.43,2.62,1.32c1.36.69,2.79,1.42,4.22,2.16,2.36,1.22,4.77,2.46,7,3.54-1.91,3.24-4,6.56-6,9.8-1.93,3.08-3.92,6.26-5.7,9.26l-1.37,2.31,2.36,1.28,2.9,1.56c2,1,3.29,1.76,4.83,2.67-7,12.84-20.81,39.52-26.24,50.29l-6.23,12.36,10.27-9.28c16.8-15.18,48.18-45.67,63.28-60.84l2.52-2.54-3.2-1.6c-1.94-1-3.21-1.62-4.4-2.23s-2.32-1.19-3.93-2l6.91-8.94c2.82-3.65,5.57-7.22,8.07-10.43l2.18-2.8-3.34-1.21c-3-1.08-7.34-2.84-10.25-4,3.81-5.28,12.34-17.11,16.49-22.93ZM954.53,87.67l-1.91,2.64,3,1.26c.28.12,5.57,2.32,10.18,4.12l-5.93,7.68c-3,3.84-6,7.76-8.84,11.43l-2,2.52,2.87,1.4c3.34,1.63,4.89,2.42,6.69,3.35l1.25.64C947.18,135.38,926,156,909.94,171c7.14-13.88,16.31-31.38,20.77-39.42l1.19-2.15-2.09-1.3c-2.77-1.73-4.45-2.62-7.22-4.11l-.5-.27c1.35-2.22,2.77-4.48,4.25-6.85,2.56-4.09,5.21-8.33,7.54-12.4l1.41-2.47-2.59-1.17c-2.72-1.22-6.08-3-9.34-4.64l-1.73-.89c.92-1.51,2.1-3.47,3.44-5.71,4.35-7.25,13.26-22.1,15.81-24.47,6.83-1,20.41,0,29.36.65C964.14,74.36,954.65,87.51,954.53,87.67Z"/><ellipse class="cls-3" cx="312.11" cy="143.66" rx="59.52" ry="54.23"/><path class="cls-2" d="M369.23,75.45c-6.89-7.3-15.14-6.64-22.76-4.59,0-5.74-.45-10.28-4.93-13.08-8-5-24.62-7.25-36.73-7.25h0c-3.14,0-30.71.29-36.39,10.29-2.65,4.67-2.89,37.2-2.9,38.59-.07,10.43.13,35.33,3.32,41.19,3.63,6.66,13,10.12,20.24,11.84a91.16,91.16,0,0,0,20.69,2.28c12.08,0,24.23-2.22,31.62-7.3l.19-.14c4.23-3.51,4.51-6.12,4.6-13.11a21.13,21.13,0,0,0,13.53-.4c6.84-2.5,12.36-8.19,15.54-16C379.2,108.07,378,84.79,369.23,75.45Zm1.24,40.35c-2.63,6.47-7.08,11.12-12.53,13.11a16,16,0,0,1-13.1-.86l-3.73-2-.06,4.21c0,.85,0,1.64,0,2.38-.08,8-.18,8.49-2.65,10.55-9.45,6.4-31,8.28-48.09,4.19-8.65-2.07-14.81-5.46-16.9-9.29-1.43-2.62-2.82-15.45-2.7-38.2.11-20.95,1.38-34.71,2.22-36.55,2.83-5,18.55-7.68,31.9-7.68h0c11.75,0,27.2,2.22,34,6.46,2.38,1.49,2.49,4.26,2.51,10.39q0,.86,0,1.76l0,3.49,3.33-1c9.15-2.86,15.49-3.41,20.8,2.23C372.53,86.48,373.76,107.72,370.47,115.8Z"/><path class="cls-2" d="M354,78.36c-5.37.27-10.08,4-12,9.55l-.16.46,0,.49a214.19,214.19,0,0,1-.28,27.18l-.1,1.82.53.74A15.93,15.93,0,0,0,353.37,125q.53,0,1,0a9,9,0,0,0,6.51-2.41c9.26-9.32,8.54-26.64,3.16-38.21A10.22,10.22,0,0,0,354,78.36ZM357.24,119a4.52,4.52,0,0,1-3.47.86,10.83,10.83,0,0,1-7-3.59A218,218,0,0,0,347,89.17a8.45,8.45,0,0,1,7.22-5.65,5.14,5.14,0,0,1,5.14,3.07C364.09,96.71,364.58,111.59,357.24,119Z"/><path class="cls-2" d="M334.23,64c-7,4.14-42.92,4.88-55.27-1.33a2.58,2.58,0,1,0-2.32,4.62c7,3.53,20.53,5.16,33.17,5.16,11.69,0,22.65-1.4,27.05-4A2.58,2.58,0,1,0,334.23,64Z"/><ellipse class="cls-3" cx="735" cy="143.66" rx="59.52" ry="54.23"/><path class="cls-2" d="M773.79,153.39c-1.79-7.23-9.58-17.48-17.12-27.4-6.44-8.47-13.73-18.08-14-22.16-.26-3.86-.34-11.63-.42-19.85-.16-15.39-.31-24.9-1.06-27.32-1-3.08-.64-6.06-.25-9.83a51.88,51.88,0,0,0,.22-12l-.27-2.32-2.34,0-4.6.06c-10.7.13-19.16.24-30.35,1.79-5.15.72-4.34,8.67-3.47,17.08a48.48,48.48,0,0,1,.44,6.94c-2.22,3.55-2.26,12.36-2.13,26.23.07,7,.13,14.3-.35,19.39h0a27.24,27.24,0,0,1-1.76,7.15,33,33,0,0,0-2.27,12.49c0,6.81,7,9.85,13.08,12.54l.17.07c1.6.74,6.48,7.36,10.41,12.68,7.17,9.71,15.3,20.71,22.23,24.86,4.33,2.6,11.35,3.26,16.86,3.26a59.63,59.63,0,0,0,6.73-.35,11.53,11.53,0,0,0,7.76-5.25C774.56,166.74,775.47,160.15,773.79,153.39Zm-68.87-114C715.5,38,723.69,37.87,734,37.74l2.2,0a54.16,54.16,0,0,1-.42,8.57,40.46,40.46,0,0,0-.3,8c-8.44-.2-22.27.9-29.74,2.6,0-1.5-.23-3.43-.5-6C704.95,47.75,704.29,41.36,704.92,39.4Zm-5.69,84.24a27.8,27.8,0,0,1,2-10.76l.38-1.08A128.48,128.48,0,0,1,718.09,118a74.66,74.66,0,0,0-8.35,13.7l-.35-.18-.17-.08C703.18,128.81,699.22,126.84,699.22,123.64ZM767,168.52a6.57,6.57,0,0,1-4.12,3.05c-5.75.69-15.85.47-20.31-2.21-6-3.62-14.18-14.64-20.73-23.5-3.45-4.67-6-8.13-8.12-10.53a69.54,69.54,0,0,1,10.37-16.61l2.14-2.54-3-1.45a133.53,133.53,0,0,0-20.37-7.92c.13-.72.24-1.49.32-2.32h0c.51-5.36.44-12.77.38-19.93-.07-7.41-.17-18.12.83-22.14l.07.2c5.16-1.86,22.67-3.51,31.94-3.1.41,4.17.53,15.74.62,24.51.09,8.3.17,16.13.43,20.14.37,5.63,7.17,14.58,15,24.95,5.39,7.09,11.32,14.91,14.39,20.95L756.21,152a39.51,39.51,0,0,0-8.7,2.23l2,4.76A35.59,35.59,0,0,1,757.1,157L768.85,155C770.06,160.17,769.41,165.09,767,168.52Z"/><ellipse class="cls-2" cx="525" cy="96.04" rx="59.52" ry="54.23"/><path class="cls-3" d="M551.21,72.55c-7.74-7.7-20.38-11.81-30.73-10a36.76,36.76,0,0,0-12.3,4.78c-7.22,4.28-14.75,11.89-19.66,19.84-7.86,12.76-6.84,22.06-4.61,27.62,3.53,8.77,10,9.8,15.79,10.7,3,.48,5.93.93,8.56,2.41,4.27,2.39-.63,16-4.22,25.89-3.9,10.79-7.27,20.11-4.91,25.39,1.37,3.06,4.27,5.44,8.62,7.06a45.37,45.37,0,0,0,15.3,2.33c7.65,0,15.64-1.4,21.37-4.07,7.24-3.38,10.53-8.32,8.81-13.23-.29-.84-1.06-2.38-2.62-5.5-3.31-6.63-9.48-19-10.56-25.35-1-5.78,2.59-7.78,9.52-11.11,4.75-2.28,10.14-4.87,13.58-9.91C576.67,99.57,555.58,76.9,551.21,72.55ZM535,141.28c1.21,7.14,7.36,19.45,11,26.8,1.11,2.23,2.17,4.33,2.37,4.9,1.17,3.32-5.37,6.48-6.12,6.83-8.58,4-24.16,4.76-32.68,1.58-2.06-.77-4.73-2.14-5.7-4.33-1.51-3.37,2.13-13.44,5.05-21.52,5.13-14.2,10-27.61,1.88-32.15h0c-6.82-3.81-7.16-5.75-7.18-5.75.78-1.66,10.54-3.89,25.65-2,12.26,1.51,18.26,4.68,18.6,6.44.1.52-.74,2.07-4.64,4.23a2.56,2.56,0,0,0-1,1C537.49,130.1,533.72,134,535,141.28Zm18-19.57a6,6,0,0,0-.16-1c-2.32-9-25.71-11-34.53-11h-.1c-11.88,0-18.47,2.21-19.61,6.56a5.36,5.36,0,0,0,.48,3.84c-4.7-.78-8.15-1.79-10.37-7.3a17.54,17.54,0,0,1-1.15-7.6,5.61,5.61,0,1,0,1.75-7.94c3.83-10.34,13.14-20.57,21.5-25.53a31.66,31.66,0,0,1,10.55-4.13c8.66-1.52,19.68,2.09,26.2,8.57,2.73,2.71,12.87,13.5,14.61,25.4a8,8,0,0,0-3.55,15.23A18.78,18.78,0,0,1,553,121.71Z"/><circle class="cls-3" cx="511.87" cy="87.3" r="5.77"/><circle class="cls-3" cx="536.28" cy="81.58" r="8.68"/><circle class="cls-3" cx="530.55" cy="101.06" r="4.82"/><ellipse class="cls-2" cx="105" cy="96.04" rx="59.52" ry="54.23"/><path class="cls-3" d="M153.19,20.47a8.52,8.52,0,0,0-5-5.64,11.83,11.83,0,0,0-7.48-.7A2.59,2.59,0,0,0,139,15.49C134.79,24,121.85,46,109.33,67.33,90.7,99,79.11,118.93,77.53,123.74c-.36.63-1,1.8-1.89,3.22C67.58,140.65,62.08,150.49,61.47,154a4.75,4.75,0,0,0,0,1.4c-4.06,3-9,7.11-11.06,11.91-3,7-5.19,18.93-3.22,27.13a2.59,2.59,0,0,0,4.05,1.47,60.57,60.57,0,0,0,7.58-6.53,58.15,58.15,0,0,1,7.71-6.59c6.7-4.9,9.74-8.87,10.3-19.69.73-.34,2-1.34,7.6-10.38,2.32-3.74,6.83-11.23,11-19.49.78-1.16,2.65-4.49,8.54-15.46,5.2-9.67,11.81-22.16,18.15-34.25,7.94-15.15,26.85-51.48,31-61.5A2.58,2.58,0,0,0,153.19,20.47ZM63.46,178.65a63.34,63.34,0,0,0-8.3,7.09c-1.07,1.06-2.1,2.08-3.53,3.3a49.49,49.49,0,0,1,3.5-19.65c1.67-3.89,6.37-7.61,9.24-9.7a24.58,24.58,0,0,0,7.27,3.13C71.2,172.1,68.93,174.65,63.46,178.65Zm11.14-20.47A24.15,24.15,0,0,1,70.44,157c-2.61-1-3.62-1.91-3.84-2.25.77-3.49,9.6-18.56,13.1-24.49a14.38,14.38,0,0,0,2.18,1.67,22.93,22.93,0,0,0,6.95,2.82A216.26,216.26,0,0,1,74.59,158.18Zm16.87-28.31a14.71,14.71,0,0,1-7.57-2.81c-1.21-.92-1.46-1.56-1.46-1.67.88-3.56,17.77-32.32,31.35-55.43C126.35,48.56,138.26,28.3,143,19a6.67,6.67,0,0,1,3,.55A4,4,0,0,1,147.9,21C140,39.36,96,122,91.46,129.87Z"/></g></svg>