<svg id="Layer_1" data-name="Layer 1" xmlns="http://www.w3.org/2000/svg" viewBox="0 0 400 350"><defs><style>.cls-1,.cls-14,.cls-6{fill:#fca7a7;}.cls-13,.cls-2,.cls-4{fill:#f1f4f2;}.cls-12,.cls-14,.cls-15,.cls-16,.cls-2,.cls-3,.cls-4,.cls-5,.cls-6,.cls-7,.cls-8,.cls-9{stroke:#891b1b;}.cls-12,.cls-16,.cls-2,.cls-5,.cls-6,.cls-7,.cls-8{stroke-linecap:round;stroke-linejoin:round;}.cls-16,.cls-3,.cls-7{fill:none;}.cls-14,.cls-15,.cls-3,.cls-4,.cls-9{stroke-miterlimit:10;}.cls-11,.cls-5,.cls-9{fill:#f5cece;}.cls-10,.cls-8{fill:#891b1b;}.cls-12{fill:#fff;}.cls-15{fill:#efefef;}.cls-16{stroke-width:3px;}</style></defs><title>octapus</title><rect class="cls-1" width="400" height="350"/><polyline class="cls-2" points="24.5 206.61 24.5 21 399.5 21 399.5 349.5 24.5 349.5"/><polygon class="cls-1" points="297 348 399 348 399 231 297 228 297 348"/><line class="cls-3" x1="212" y1="171" x2="399.5" y2="175.97"/><polyline class="cls-4" points="65 349.5 0.5 349.5 0.5 223 55.71 201.17 71.64 204.5"/><polyline class="cls-5" points="399.5 128.5 149.5 127.22 138.55 132.09 68.34 163.29 71.95 208.38 79.16 208.38 75.55 163.29 149.5 132.63 149.5 127.5"/><polygon class="cls-5" points="212.5 170.5 158.22 169.55 79.16 208.38 127.83 184.49 161.58 179.63 210.5 184.5 212.5 170.5"/><path class="cls-6" d="M118.1,67.72c3.44-2.72,38.4-2.44,39.51.89,1.48,4.44,3.36,22.86,0,28.86a46.8,46.8,0,0,1-7.21,9c-3.48,3.48-1.8,7.21-.79,10.19,4,.07,15.43-1,17,.63,3.61,3.61,1.84,19.6,1.8,21.64-.05,2.89-4.84,13.73-5.41,14.43a5.34,5.34,0,0,1-6.54,1.2c-2.16-1.15-3.68,4-5.11,2-1.28,5,8.95,13.9,9.85,18.41.71,3.54-.46,8.5-1.18,8.83-8.79,4-23,7.61-32.18,4.7-2.86-.9-6-55.74-10.16-73C116.49,110.56,116.41,69.07,118.1,67.72Z"/><path class="cls-6" d="M95.39,141.65h5.41a6.27,6.27,0,0,1,1.8-5.41c1.8-1.8,5.41-1.8,8.12-2.71-2.71-4.51-16.23-12.62-18-18-1.28-3.83.64-22.74,0-28.86,9-3.61,42.42-2.66,45.09,0,1.8,1.8,1,29.31-.09,31-2.13,3.37-8.93,11.17-11.12,14.5,2.73,1.37,7.09-.91,8.58,1.75.24.43,3.62,5,4.43,5,4.85,0,11.9-.72,15.33,2.71,1.8,1.8,1.8,16.23,0,19.84s-5.6,15.2-6.31,15.33a20.94,20.94,0,0,1-5.41,0c-1.8-1.8-6.31-11.72-8.12-15.33-3.61,3.61-5.82,4.91-3.61,7.21s7,11.41,9,14.43c2.43,3.72,8,16.78-1.8,27.05-6.16,6.46-43,8.25-45.09,3.61C84.57,194,95.39,141.65,95.39,141.65Z"/><path class="cls-6" d="M382.95,191.18c.15-2.15,10.55-24.68-4.77-31.5l-3.67,4.82,4.22,6.54c.38,1.73-3.19,8.06-4.23,8.87Z"/><path class="cls-2" d="M372.41,152.75c1.46.15,5.38.27,6.19,1.84,1.21,2.33-2.69,10.46-4.18,11.22-1,.51-1.47.2-2.56-.07"/><path class="cls-7" d="M375.64,153.21c2.46,2-.91,11.22-4,9.51"/><path class="cls-2" d="M357.5,147.79c.59,2.73-6.32,16.57-3,20.13,2.94,3.18,11.83,5.21,15.44,1.84,2.31-2.16,2.49-16.73,2.54-19.25"/><path class="cls-5" d="M357.71,147.3c-.94.64,2.26,1.31,3.12,2.06,1.56,1.38,9.85,3.92,11.39,1.64C374.27,148,361.7,144.6,357.71,147.3Z"/><path class="cls-6" d="M375.6,158.5c-1.81-1-4.1,0-4.59,2.65-1.16,6.29,3.07,8.78,6.16,9.66,2.14.61,13.13-1.09,13.13-3.28-4.38,0-15.32,0-16-6.2"/><path class="cls-5" d="M337.41,124.75s14.3,7.14,16.8,9c2.78,2,3.63,11,5.6,14.56.69,1.23,6.21,3.45,5.6,2.24-2.24-4.48-4.48-16.8-6.72-19-1-1-12.32-6.72-12.32-6.72"/><path class="cls-8" d="M208,178c-.52,6-1.69,16.55,1.45,16.19,3.86-.44,7.37-12.32,9.7-15.82"/><polyline class="cls-5" points="198.99 161.49 198.99 177.72 355.58 184.3 355.58 165.63"/><polyline class="cls-6" points="209.81 150.67 198.99 161.49 355.58 165.63 344.23 152.47"/><polyline class="cls-2" points="204.39 123.46 210.13 150.51 343.25 152.31 350 124.62"/><path class="cls-6" d="M238.6,124.22c-.87,3.88,3.61,6.12,5.85,6.12.56.84,0,5.48,2.24,5.48,3.08,0,3.49,2.59,2.24,3.48s-3.36,2.24-3.36,4.48c3.36-3.36,6.37-1.75,12.32,0-.35-2.87-3.29-4.92-3.82-5.4-1.09-1-1.54-2.56.46-3.56,2.24-1.12,1.36-2.62,1.18-4.46,2.39-.83,5.54-1.14,5.54-5.62"/><path class="cls-9" d="M222,140.85c-.63,2.6,2.63,4.52,6.3,2.91,4.46-2,19.32-9.84,20.69-12,.77-1.24-.59-4.44-4.25-2.83C243.14,129.58,222.44,138.88,222,140.85Z"/><path class="cls-6" d="M298,124.22c-.87,3.88,3.61,6.12,5.85,6.12.56.84,1.12,5.6,3.36,5.6,3.08,0,2.37,2.47,1.12,3.36s-3.36,2.24-3.36,4.48c2.24-1.12,6.72-4.48,12.32,0-.35-2.87-3.29-4.92-3.82-5.4-1.09-1-1.54-2.56.46-3.56,2.24-1.12,1.36-2.62,1.18-4.46,2.39-.83,5.54-1.14,5.54-5.62"/><path class="cls-9" d="M283.56,140.85c-.63,2.6,2.63,4.52,6.3,2.91,4.46-2,17.08-9.84,18.45-12,.77-1.24-.59-4.44-4.25-2.83C302.5,129.58,284,138.88,283.56,140.85Z"/><polyline class="cls-6" points="196.5 101.5 214.5 94.5 349.5 92.5 362.5 101.5"/><polygon class="cls-5" points="196.5 101.5 362.5 101.5 362.36 124.78 196.39 123.62 196.5 101.5"/><rect class="cls-10" x="196.39" y="101.97" width="4.51" height="21.64"/><rect class="cls-10" x="358.12" y="101.34" width="4.51" height="23.45"/><circle class="cls-2" cx="207.21" cy="113.48" r="3.61"/><circle class="cls-2" cx="350.64" cy="113.96" r="3.61"/><path class="cls-1" d="M213,265s-15.88,26.82-18,37c-2.4,11.53,2,47,2,47h6l11-26Z"/><path class="cls-5" d="M145.32,349.42s.18-45.32-2.18-54.84l52.44,5.18c-3.08,7.34,1,49.66,1,49.66Z"/><path class="cls-2" d="M168.88,249.08s44.39,2.43,44.39,8.13c0,9-13.82,41.07-19.23,44.68s-50.14-1.76-52.69-9.41c-1.8-5.41,12.33-27.93,12.33-27.93"/><path class="cls-7" d="M203.14,349.26s10.37-23.68,10.36-26.76c-.08-23.28-.68-67.16-.68-67.16L181.5,294.5"/><path class="cls-7" d="M190.27,290.65c-.77,7.85-41.77,4.85-43.77-1.15"/><path class="cls-6" d="M159.5,316.5c-.66.86,4.66,2.82,5.69,2.49.67-.21,3.31-3.49,5.5-4a11.18,11.18,0,0,1,2.58,2.59c-.78.93-.78.93-3.29,2.61,4.19.58,4.42,1,8.65,1.14a66.17,66.17,0,0,1,1.86-7.81,20.37,20.37,0,0,0-2.8,1.54C174.5,309.5,169.5,303.5,159.5,316.5Z"/><path class="cls-6" d="M182.86,324.23c-.49-1-5.21,1.58-5.66,2.57-.29.64,1.3,4.7,1.3,6.7a18,18,0,0,1-4.64.27c-.17-1.2-.17-1.2.26-4.19-3.24,2.73-3.67,2.64-6.62,5.67a66.17,66.17,0,0,1,4.57,6.6,20.37,20.37,0,0,0,.73-3.12c4.82,1,8.71.76,11.71-6.24C185.36,330.5,184.5,327.5,182.86,324.23Z"/><path class="cls-6" d="M163.73,339.88c1.08,0,.59-5.41-.14-6.22-.47-.52-5.56-1.53-7-3.3.14-.95,1.62-2.28,2.26-3.43,1.17.31.17.31,2.75,1.88-.14-1.32-.14-4.32-.61-8.32a79.35,79.35,0,0,1-8.87,1.6,20.37,20.37,0,0,0,2.58,1.89C149.5,329.5,151.5,339.5,163.73,339.88Z"/><polygon class="cls-5" points="399.5 219.5 209.01 206.58 72.5 349.5 59.5 349.5 207.21 199.36 399.5 209.5 399.5 219.5"/><polygon class="cls-11" points="352 349 399 349 399 265 355 259 352 349"/><polyline class="cls-5" points="234.75 208.44 225.24 228.22 356.9 242.65 353.31 216.62"/><polyline class="cls-5" points="225.68 348.55 229.28 233.63 355.53 248.06 351.92 348.85"/><line class="cls-7" x1="355.24" y1="259.28" x2="399.5" y2="265.5"/><path class="cls-5" d="M184.35,208.93a41.09,41.09,0,0,0-13.94-.95c-3.26.29-7,1.32-8.21,4.37-.58,1.5-.41,3.24-1.14,4.67-1.64,3.18-7.7,2.9-8.31,6.42-1.45,8.38,11.17,13.8,16.58,13.8l6.89-6.38"/><polygon class="cls-6" points="130.07 349.66 129.74 289.59 72.5 349.5 130.07 349.66"/><path class="cls-2" d="M44.69,211.82c-.62-4.44-11.32-6.75-22.66-5.17S3,213.13,3.61,217.56s10.32,6.75,21.66,5.17S45.31,216.26,44.69,211.82Z"/><path class="cls-6" d="M46.7,246.45s-.2-23.95-1.8-33.46C36.5,206.5,7.5,210.5,4.41,219.4c-.07,6.1.8,19.64.8,19.64"/><path class="cls-7" d="M44.69,211.82c-.62-4.44-11.32-6.75-22.66-5.17S3,213.13,3.61,217.56s10.32,6.75,21.66,5.17S45.31,216.26,44.69,211.82Z"/><path class="cls-7" d="M7.24,231.12A81.63,81.63,0,0,1,18,230.76"/><path class="cls-7" d="M12.5,240.5c1-4,0-6,0-9"/><path class="cls-7" d="M21.31,230.77c-.08,2.52.1,8.93,0,10.24"/><path class="cls-7" d="M26.75,242.74a55.35,55.35,0,0,1,.61-12.19c1.73-.4,5.3,1.59,4.51,4.57-.37,1.38-4.89,1-4.89,1"/><path class="cls-7" d="M39.26,229.56c-3.76-.06-4.76,4.94-.76,5.94s4,7-2,6.08"/><polyline class="cls-6" points="86.37 253.47 88.18 275.11 21.45 319.39 17.5 293.5"/><line class="cls-12" x1="21.45" y1="319.39" x2="0.5" y2="313.5"/><polygon class="cls-5" points="0 238.26 0.5 289.5 17.84 293.14 86.37 253.47 0 238.26"/><path class="cls-13" d="M294.17,337.79A22.21,22.21,0,0,1,286.1,336c-6.33-2.78-21.06-11.1-23.54-13.13-1.87-1.53-2.46-5.18-3-8.71-.62-3.81-1.27-7.74-3.56-9.46a4.86,4.86,0,0,1-2.3-3.4c-.14-2,1.64-4.08,3.42-5.87a4.58,4.58,0,0,1,.92-.06c.8,0,1.91.06,3,.12s2,.11,2.74.11a2.46,2.46,0,0,0,1.12-.14c1.24-.64,2.38-1.29,3.46-1.89,3.5-2,6.27-3.53,9.5-3.53a12.15,12.15,0,0,1,4.55,1c.83.33,1.67.64,2.5.95,4.64,1.72,9,3.34,11.8,8.89,1.29,2.57,3.53,4.08,5.9,5.68A22.67,22.67,0,0,1,307.9,311c4.17,5.22-2.58,18.76-9.18,25.35a6.24,6.24,0,0,1-4.55,1.47Z"/><path class="cls-10" d="M277.8,290.51a11.66,11.66,0,0,1,4.36.92c.84.34,1.69.65,2.51,1,4.74,1.76,8.84,3.27,11.53,8.64,1.35,2.69,3.75,4.31,6.07,5.87a22.3,22.3,0,0,1,5.24,4.39c3.95,4.93-2.83,18.38-9.14,24.69a5.77,5.77,0,0,1-4.2,1.32,22.15,22.15,0,0,1-7.88-1.79c-6.31-2.76-21-11-23.42-13.06-1.72-1.41-2.3-5-2.87-8.4-.64-3.9-1.3-7.94-3.75-9.78a4.41,4.41,0,0,1-2.1-3c-.12-1.76,1.5-3.69,3.16-5.37.12,0,.33,0,.68,0,.79,0,1.89.06,3,.12s2,.11,2.77.11a2.89,2.89,0,0,0,1.35-.2c1.25-.65,2.38-1.28,3.47-1.9,3.44-1.93,6.16-3.46,9.25-3.46m0-1c-4.37,0-7.88,2.71-13.19,5.47a2.69,2.69,0,0,1-.89.08c-1.42,0-4.14-.23-5.73-.23a2.64,2.64,0,0,0-1.22.15c-3.36,3.36-5.6,6.72-1.12,10.08,4.21,3.16,2.51,14.83,6.58,18.16,2.53,2.07,17.17,10.36,23.66,13.2a22.9,22.9,0,0,0,8.28,1.87,6.79,6.79,0,0,0,4.9-1.61c6.46-6.45,13.7-20.42,9.22-26-3.5-4.37-9-5.6-11.2-10.08-3.36-6.72-9-7.84-14.56-10.08a12.62,12.62,0,0,0-4.73-1Z"/><path class="cls-5" d="M288.12,297.8c1,1.34,1.81,3.46,1.5,4.37-3.53,1-19.54-5.07-14.64-7.7C277.62,293.06,286.13,295.21,288.12,297.8Z"/><path class="cls-6" d="M292.61,277.06c1.12-4.48,10.41-4.81,14.56-4.48.38,1.41-6.35,4.36-7.84,6.72-2.55,4-3.36,13.44-9,14.56"/><path class="cls-2" d="M237.19,320.88c-5.69,1.62-4.38,11.06-1,9.94l.22,2.93c-1.11.07-2.64.29-3.53-.39-1.33-1-3.7-9.71-2.09-11.79,1.09-1.4,5-.81,6.42-.69"/><path class="cls-2" d="M237.55,318.66c-.41,2.49-2.85,16.86-1,19.4,2.94,4,12,3.57,15.52,1,3.88-2.91-.42-17.77.65-20.35Z"/><path class="cls-5" d="M252.63,318.16c.81.8-2.46.88-3.44,1.47-1.78,1.07-10.39,2.08-11.5-.44C236.22,315.83,249.19,314.78,252.63,318.16Z"/><path class="cls-6" d="M188.57,236.33c.92.74,1.67,2.8,1,3.77-.89-1.45-7.08-3.6-10.08,5.6-1.35-.2-1.79-5.54-1.12-6.72.82-1.44-4.12-.94-4.48-1.12-.71-.35.51-3.91.11-4.59l8.85-3.25Z"/><path class="cls-6" d="M166.06,219.94v6.16c0,4,5,7.28,11.2,7.28s11.2-3.26,11.2-7.28v-6.16"/><ellipse class="cls-6" cx="177.26" cy="219.38" rx="11.2" ry="7.28"/><path class="cls-5" d="M180.5,230.21s21.4,15.49,24.76,15.49c2.88,0,7.84-1.12,5.6-7.84-1.12-3.36-24.64-10.36-24.64-10.36Z"/><path class="cls-5" d="M204.14,240.1c-.94,2.29-.93,4.92,1.12,5.6,3.36,1.12,7.84-3.36,5.6-7.84C209.89,235.93,205.08,237.82,204.14,240.1Z"/><path class="cls-6" d="M172.54,210.51c-5,0-13.08-5.6-11.88-15.47,1.19.41,10.84,9.47,14,5.63"/><path class="cls-5" d="M177.26,224.42c5.71,0,10.08-3.36,10.08-6.72,0-2.86-3.54-4.54-4.48-5.48-2.24-2.24,1.21-12.06,0-16.92-1.12-4.48-6.72-6.72-10.1-1.69-2.88,4.28,3.45,15-1.26,18.89-1.29,1.08-3.69,3-4,4.89C167.18,219.94,170.54,224.42,177.26,224.42Z"/><path class="cls-6" d="M229.5,220.5c-3.8.07-11.81-4.21-17.52-8.39-3.77-2.76-17.4-17.18-30-9l2.12,7.51c9-4.16,25.28,12.36,26.4,16.84"/><path class="cls-6" d="M185.24,204.43c-.74-1.93-4.74-2.93-7-3.2-2.85-.34-5.77.26-6.57,3.12-1.43,5.09-2.2,10.15,5.56,10C187.14,214.15,188.23,212.26,185.24,204.43Z"/><path class="cls-6" d="M227.22,140.18c.67.73,3.79,8.09,4.92,8.73,1.11-.64,2.54-3.51,2.23-5"/><path class="cls-6" d="M264.6,162.75c-3.62-2.47-11.66-1.4-15.66-4.41-4.48-3.36-5.6-30.24-17.92-25.76,0,0-5.6,2.24-5.6,5.6,4.48,4.48,11.2,5.6,11.2,12.32,0,14.73,9.12,25.2,13.44,24.64"/><line class="cls-7" x1="365.5" y1="229.5" x2="399.5" y2="230.5"/><path class="cls-6" d="M103.78,262.69c8.28,6.54,19.23,8.64,29.77,9.23s21.2-.12,31.59,1.72c11.46,2,22.83,7.14,34.29,5.08,7-1.26,13.71-9.68,20.81-9,7.69.77.12,18.36,6.3,23,9.71,7.27,5.6,24.64,7.35,29.72,1.7,4.92,19.53,11.72,22.89,8.36-2.24-4.48-17.88-8.72-16.8-13.44,2.55-11.2,7.73-18.38,0-26.88-5.49-6,2.24-15.68,2.24-26.88,13.58-5.1,22-.33,34.72,6.72,10.08,5.6,4.69,19.17,4.17,21.21-.62,2.46,2.38,6.47,4.79,5.67,6.72-2.24,9.68-21.26,4.45-27.9S269,253.93,268,251.3s2.24-5.6,13.44-5.6c40.57,0,45.92,30.24,49.28,42.56,2.33,8.53,14.92,14.55,23.54,16.5,2.26-.67,1.88-4.27,0-5.73s-4.38-1.73-6.41-2.91c-5.61-3.26-5.23-11.24-5.71-17.71a40.44,40.44,0,0,0-15.5-28.71c-4.61-3.54-20.58-16.31-20.11-25.41,10.69-4.7,54.83,24.19,72.33,18.06,22.4-7.84,12.69-38.64,7.84-48.16s-29.1-47-62.72-47c-15.68,0-73.92,9-76.16,37-6.72-1.12-13.6,1.74-14.56,12.32-3.36,37-22.4,26.88-37.12,30.82a12,12,0,0,0-7.73,7.76c-1.82,5.55,5.09,11.42,10.13,8.46,0,0,.79-9.51,5.8-9.62,4.65-.1,8.76,2.9,14.36,11.86,2,3.14-19.31,20.92-45.08,14.56C164.38,258,103.78,262.69,103.78,262.69Z"/><circle class="cls-10" cx="251.18" cy="209.87" r="6.72"/><path class="cls-9" d="M251.18,196.43c-5.57,0-10.08,5.26-10.08,11.76h20.16C261.26,201.69,256.74,196.43,251.18,196.43Z"/><path class="cls-5" d="M98.15,261.13c8.55,4.73,30.71,1.9,36.55-10.95,5.6-12.32-14.32-11-18.41-10.28C109.55,241.07,84.08,253.35,98.15,261.13Z"/><path class="cls-2" d="M119.1,247.05c3-.23,6.4-5.55,6.4-9.55,0-2.17-3.65-4.38-8.6-.6l.7,1.6s3.9-2,4.9-1-.43,5-3.4,6.29A6.6,6.6,0,0,0,119.1,247.05Z"/><path class="cls-2" d="M109.7,253.66c3.8.84,8.8-2.16,9.8-5.16s0-8-2.12-12.71c-4.88-4.29-16.88,1.71-17.2,7.4C100.5,247.5,106.67,253,109.7,253.66Z"/><path class="cls-1" d="M117,236c0-1.74-6-2.51-9-1-6,3-6.71,6.24-7.8,8.57-.2.43,4.19,2.07,7.53,1.5C114,244,117,237,117,236Z"/><path class="cls-7" d="M109.7,253.66c3.8.84,8.8-2.16,9.8-5.16s0-8-2.12-12.71c-4.88-4.29-16.88,1.71-17.2,7.4C100.5,247.5,106.67,253,109.7,253.66Z"/><path class="cls-7" d="M100.5,243.5c6,6,17-2,16.28-7.88"/><path class="cls-2" d="M207.16,72.79c-2-3.25-5.8-6.52-5.91-6.87-.23-.77,1.46-2.43,2.85-1.73.83.42,4.65,6.23,6,8.34"/><path class="cls-2" d="M217.46,72.9a32.24,32.24,0,0,1,4-6.17c1.28-1.64,2.55,1.8,2.07,2.77a18.66,18.66,0,0,1-3,4"/><path class="cls-2" d="M212.75,72.08a83.87,83.87,0,0,1,4.11-10.81c.51-.95,1.23-2,2.3-2,.86,0,1.21,1.53.69,3.46-.58,2.16-5.08,9.31-5.08,9.31"/><path class="cls-6" d="M205.5,75.5c0,4,1,19,2,22,.95,2.85,11.27,2.91,12,0a191.92,191.92,0,0,0,3-22C222.5,71.5,205.5,71.5,205.5,75.5Z"/><path class="cls-2" d="M169.5,153.5s1,13,3,19c1.26,3.79,12.74,4.79,14,1,2-6,3-20,3-20"/><path class="cls-5" d="M189.5,153c0,1.93-7,2.5-10.5,2.5-2.5,0-9.5-.57-9.5-2.5,0-2.5,6-3.5,9.5-3.5S189.5,150.5,189.5,153Z"/><path class="cls-2" d="M183.5,173.5c4-2,3-4,3-8,0-2-4-7-4-7l4.44-.71s3.56,4.91,3.56,6.71C190.5,168.5,191.5,175.5,183.5,173.5Z"/><polygon class="cls-6" points="334.47 60.28 334.47 92.52 349.44 92.52 349.44 59.12 348.29 53.37 335.62 53.37 334.47 60.28"/><polygon class="cls-6" points="339.84 53.37 341.38 43 343.68 43 344.83 53.37 339.84 53.37"/><path class="cls-6" d="M330.94,66.16s-.8,20.4,0,27.77c.35,3.2,12.89,3.22,12.89,0V65.17l-1-5h-9.91Z"/><polygon class="cls-6" points="336.57 60.19 337.89 51.26 339.87 51.26 340.87 60.19 336.57 60.19"/><path class="cls-6" d="M341.53,64.88V97.13c0,3.74,15,3.74,15,0V63.73L355.35,58H342.68Z"/><polygon class="cls-6" points="346.9 57.97 348.44 47.61 350.74 47.61 351.89 57.97 346.9 57.97"/><path class="cls-5" d="M242.5,93.5c0,4.12,17,4,17,0,0-3-1.05-12.15-2-15-1-3-11-3-13,0C243.26,80.36,242.5,91.5,242.5,93.5Z"/><path class="cls-5" d="M228.5,95.5c0,6,17,5,17,1,0-3-.05-12.15-1-15-1-3-11-3-13,0C230.26,83.36,228.5,93.5,228.5,95.5Z"/><path class="cls-5" d="M262.5,96.5c0,4.12,18,4,18,0,0-3-2.05-12.15-3-15-1-3-10-3-12,0C264.26,83.36,262.5,94.5,262.5,96.5Z"/><path class="cls-5" d="M242.5,83.5c0,4.12,17,3,17-1a69.56,69.56,0,0,0-2-14c-1-3-11-3-13,0C243.26,70.36,242.5,81.5,242.5,83.5Z"/><path class="cls-5" d="M242.5,73.5c0,4.12,17,5,17,1,0-3-.05-12.15-1-15-1-3-11-3-13,0C244.26,61.36,242.5,71.5,242.5,73.5Z"/><path class="cls-5" d="M228.5,87.5c0,4.12,18,4,18,0,0-3-1.05-12.15-2-15-1-3-11-3-13,0C230.26,74.36,228.5,85.5,228.5,87.5Z"/><path class="cls-14" d="M36.16,63.85c-4.84-3.28-1.24-23.36,9.26-27.31,10.09-3.8,33.35-3.89,37.48,3"/><path class="cls-14" d="M39.07,72.54c-1.91.76-5.1,5.36-2.16,9.72C47,97.27,67,93.85,84.64,77.5"/><path class="cls-9" d="M16.35,61.85c-8.06-2.85.54,28,7.46,23.86,3.07-1.84,6.83-9.13,13.75-13.27,10-.19,12.12,11.92,38.17,8.27C91.5,78.5,95.54,62.93,100.35,62.24c5.15-.74,8.94-3.17,8.86-7.17s-9.72-.57-13.06-3.75c-4.38-4.17-9.31-15.82-27.26-13.48C45,41,40.49,62.81,37.4,63.49,32.42,64.58,23.08,64.23,16.35,61.85Z"/><circle class="cls-4" cx="86.64" cy="52.01" r="4.49" transform="translate(-0.98 1.68) rotate(-1.1)"/><circle class="cls-10" cx="86.16" cy="52.51" r="1.5" transform="translate(-0.99 1.67) rotate(-1.1)"/><path class="cls-14" d="M82.15,52.1a4.49,4.49,0,0,1,9-.17"/><path class="cls-3" d="M72.68,58.07c-1.37-.51-9.14-4.71-11-2.67C54.5,63.5,70.59,73.87,74.9,70.52a10.34,10.34,0,0,0,3.44-4.63c.69-1.87,4.81-3.42,2.81-5.64C79.91,58.88,74.53,58.75,72.68,58.07Z"/><path class="cls-7" d="M108.41,56.68s-2.91-.18-4.4,1.57"/><line class="cls-15" x1="82.5" y1="52.5" x2="91.5" y2="51.5"/><rect class="cls-16" width="400" height="350"/></svg>