<svg id="Layer_1" data-name="Layer 1" xmlns="http://www.w3.org/2000/svg" viewBox="0 0 650 650"><defs><style>.cls-1,.cls-14,.cls-6{fill:#fca7a7;}.cls-13,.cls-2,.cls-4{fill:#f1f4f2;}.cls-12,.cls-14,.cls-15,.cls-2,.cls-3,.cls-4,.cls-5,.cls-6,.cls-7,.cls-8,.cls-9{stroke:#891b1b;}.cls-12,.cls-2,.cls-5,.cls-6,.cls-7,.cls-8{stroke-linecap:round;stroke-linejoin:round;}.cls-3,.cls-7{fill:none;}.cls-14,.cls-15,.cls-3,.cls-4,.cls-9{stroke-miterlimit:10;}.cls-11,.cls-5,.cls-9{fill:#f5cece;}.cls-10,.cls-8{fill:#891b1b;}.cls-12{fill:#fff;}.cls-15{fill:#efefef;}</style></defs><title>octapus_print</title><rect class="cls-1" width="650" height="650"/><polyline class="cls-2" points="62.6 356.73 62.6 80 621.69 80 621.69 569.76 62.6 569.76"/><polygon class="cls-1" points="468.87 567.53 620.95 567.53 620.95 393.09 468.87 388.62 468.87 567.53"/><line class="cls-3" x1="342.15" y1="303.64" x2="621.69" y2="311.05"/><polyline class="cls-4" points="122.98 569.76 26.82 569.76 26.82 381.16 109.14 348.61 132.87 353.58"/><polyline class="cls-5" points="621.69 240.27 248.96 238.37 232.64 245.62 127.96 292.15 133.34 359.37 144.09 359.37 138.72 292.15 248.96 246.44 248.96 238.78"/><polygon class="cls-5" points="342.89 302.89 261.97 301.47 144.09 359.37 216.65 323.74 266.98 316.5 339.91 323.76 342.89 302.89"/><path class="cls-6" d="M202.16,149.66c5.12-4.06,57.25-3.63,58.9,1.32,2.2,6.61,5,34.08,0,43a69.77,69.77,0,0,1-10.76,13.44c-5.19,5.19-2.69,10.76-1.18,15.2,6,.1,23-1.44,25.38.93,5.38,5.38,2.75,29.22,2.69,32.27-.08,4.32-7.22,20.48-8.07,21.51a8,8,0,0,1-9.75,1.79c-3.23-1.71-5.48,6-7.62,3-1.9,7.44,13.34,20.72,14.69,27.44,1.05,5.27-.69,12.67-1.76,13.16-13.11,6-34.24,11.34-48,7-4.27-1.35-8.93-83.1-15.15-108.88C199.75,213.53,199.63,151.66,202.16,149.66Z"/><path class="cls-6" d="M168.29,259.88h8.07c-.69-2.67.74-6.12,2.69-8.07,2.69-2.69,8.07-2.69,12.1-4-4-6.72-24.2-18.82-26.89-26.89-1.9-5.7.95-33.91,0-43,13.44-5.38,63.25-4,67.22,0,2.69,2.69,1.47,43.7-.13,46.25-3.17,5-13.31,16.66-16.57,21.62,4.07,2,10.57-1.36,12.79,2.61.36.64,5.39,7.49,6.61,7.49,7.23,0,17.74-1.08,22.86,4,2.69,2.69,2.69,24.2,0,29.58s-8.35,22.66-9.41,22.86c-2.84.53-5.18.17-8.07,0-2.69-2.69-9.41-17.48-12.1-22.86-5.38,5.38-8.67,7.32-5.38,10.76s10.5,17,13.44,21.51c3.62,5.54,11.92,25-2.69,40.33-9.19,9.63-64.07,12.3-67.22,5.38C152.16,337.86,168.29,259.88,168.29,259.88Z"/><path class="cls-6" d="M597,333.72c.22-3.21,15.73-36.79-7.11-47l-5.48,7.18,6.29,9.76c.57,2.58-4.76,12-6.31,13.23Z"/><path class="cls-2" d="M581.3,276.43c2.18.22,8,.4,9.23,2.74,1.81,3.47-4,15.6-6.23,16.73-1.48.75-2.2.29-3.81-.11"/><path class="cls-7" d="M586.13,277.11c3.67,3-1.36,16.73-6,14.18"/><path class="cls-2" d="M559.07,269c.87,4.07-9.42,24.71-4.51,30,4.39,4.75,17.64,7.77,23,2.74,3.44-3.21,3.71-24.94,3.78-28.7"/><path class="cls-5" d="M559.39,268.31c-1.41,1,3.37,1.95,4.65,3.07,2.33,2.05,14.68,5.84,17,2.45C584.08,269.3,565.34,264.27,559.39,268.31Z"/><path class="cls-6" d="M586.06,285c-2.7-1.56-6.11,0-6.84,3.95-1.72,9.38,4.58,13.1,9.19,14.41,3.19.91,19.58-1.63,19.58-4.89-6.53,0-22.84,0-23.91-9.25"/><path class="cls-5" d="M529.12,234.68s21.32,10.64,25,13.36c4.14,3,5.41,16.45,8.35,21.71,1,1.84,9.25,5.15,8.35,3.34-3.34-6.68-6.68-25-10-28.39-1.51-1.51-18.37-10-18.37-10"/><path class="cls-8" d="M336.14,314c-.77,9-2.51,24.67,2.16,24.14,5.75-.65,11-18.36,14.46-23.58"/><polyline class="cls-5" points="322.75 289.46 322.75 313.66 556.21 323.46 556.21 295.63"/><polyline class="cls-6" points="338.89 273.32 322.75 289.46 556.21 295.63 539.28 276.01"/><polyline class="cls-2" points="330.8 232.75 339.35 273.08 537.83 275.77 547.89 234.49"/><path class="cls-6" d="M381.81,233.9c-1.29,5.79,5.39,9.13,8.73,9.13.83,1.26,0,8.17,3.34,8.17,4.59,0,5.21,3.86,3.34,5.19s-5,3.34-5,6.68c5-5,9.5-2.62,18.37,0-.52-4.28-4.9-7.33-5.69-8-1.63-1.47-2.3-3.82.68-5.31,3.34-1.67,2-3.91,1.77-6.65,3.56-1.23,8.25-1.7,8.25-8.38"/><path class="cls-6" d="M470.3,233.9C469,239.69,475.69,243,479,243c.83,1.26,1.67,8.35,5,8.35,4.59,0,3.54,3.69,1.67,5s-5,3.34-5,6.68c3.34-1.67,10-6.68,18.37,0-.52-4.28-4.9-7.33-5.69-8-1.63-1.47-2.3-3.82.68-5.31,3.34-1.67,2-3.91,1.77-6.65,3.56-1.23,8.25-1.7,8.25-8.38"/><path class="cls-9" d="M448.83,258.69c-.94,3.87,3.92,6.74,9.39,4.33,6.65-2.93,25.47-14.67,27.51-18,1.15-1.85-.88-6.62-6.34-4.21C477.07,241.88,449.55,255.75,448.83,258.69Z"/><polyline class="cls-6" points="319.04 200.02 345.87 189.58 547.14 186.6 566.53 200.02"/><polygon class="cls-5" points="319.04 200.02 566.53 200.02 566.32 234.73 318.87 232.99 319.04 200.02"/><rect class="cls-10" x="318.87" y="200.73" width="6.72" height="32.27"/><rect class="cls-10" x="559.99" y="199.78" width="6.72" height="34.95"/><circle class="cls-2" cx="335" cy="217.88" r="5.38"/><circle class="cls-2" cx="548.84" cy="218.6" r="5.38"/><path class="cls-1" d="M343.64,443.78s-23.68,40-26.84,55.16c-3.58,17.19,3,70.07,3,70.07h8.95l16.4-38.76Z"/><path class="cls-5" d="M242.73,569.64s.27-67.57-3.24-81.75l78.18,7.72c-4.59,10.94,1.49,74,1.49,74Z"/><path class="cls-2" d="M277.85,420S344,423.66,344,432.17c0,13.44-20.61,61.23-28.67,66.61s-74.76-2.62-78.56-14c-2.69-8.07,18.39-41.64,18.39-41.64"/><path class="cls-7" d="M328.93,569.4s15.46-35.31,15.45-39.9c-.12-34.71-1-100.12-1-100.12l-46.69,58.38"/><path class="cls-7" d="M309.75,482c-1.15,11.7-62.28,7.23-65.26-1.72"/><path class="cls-6" d="M263.87,520.56c-1,1.28,6.94,4.2,8.49,3.72,1-.31,4.93-5.21,8.21-6a16.67,16.67,0,0,1,3.85,3.86c-1.16,1.39-1.16,1.39-4.9,3.89,6.25.87,6.58,1.44,12.89,1.69,1.28-5.68,1.28-7.17,2.77-11.64a30.37,30.37,0,0,0-4.18,2.3C286.24,510.13,278.78,501.18,263.87,520.56Z"/><path class="cls-6" d="M298.7,532.09c-.72-1.45-7.77,2.36-8.44,3.83-.44,1,1.94,7,1.94,10a26.78,26.78,0,0,1-6.91.4c-.26-1.79-.26-1.79.38-6.24-4.83,4.07-5.47,3.94-9.87,8.46,3.37,4.75,4.48,5.74,6.81,9.84a30.37,30.37,0,0,0,1.09-4.64c7.19,1.52,13,1.13,17.46-9.3C302.42,541.43,301.15,537,298.7,532.09Z"/><path class="cls-6" d="M270.18,555.43c1.62.05.88-8.07-.2-9.27-.7-.78-8.29-2.28-10.38-4.92.21-1.41,2.42-3.39,3.37-5.11,1.75.47.26.47,4.1,2.81-.21-2-.21-6.44-.91-12.41a118.3,118.3,0,0,1-13.22,2.39,30.37,30.37,0,0,0,3.84,2.83C249,539.95,251.95,554.85,270.18,555.43Z"/><polygon class="cls-5" points="621.69 375.94 337.69 356.68 134.16 569.76 114.78 569.76 335 345.92 621.69 361.04 621.69 375.94"/><polygon class="cls-11" points="550.87 569.02 620.95 569.02 620.95 443.78 555.35 434.84 550.87 569.02"/><polyline class="cls-5" points="376.07 359.46 361.89 388.94 558.17 410.45 552.82 371.65"/><polyline class="cls-5" points="362.54 568.34 367.92 397.01 556.13 418.52 550.76 568.79"/><line class="cls-7" x1="555.71" y1="435.26" x2="621.69" y2="444.53"/><path class="cls-5" d="M300.92,360.19a61.26,61.26,0,0,0-20.78-1.42c-4.86.44-10.47,2-12.24,6.51-.87,2.23-.61,4.83-1.71,7-2.44,4.73-11.48,4.33-12.39,9.58-2.16,12.5,16.66,20.57,24.73,20.57l10.27-9.52"/><polygon class="cls-6" points="219.99 570 219.5 480.44 134.16 569.76 219.99 570"/><path class="cls-2" d="M92.71,364.5c-.93-6.62-16.88-10.07-33.79-7.7s-28.38,9.65-27.46,16.26,15.39,10.07,32.3,7.7S93.63,371.11,92.71,364.5Z"/><path class="cls-6" d="M95.69,416.12S95.4,380.42,93,366.24c-12.51-9.67-55.75-3.71-60.35,9.56-.1,9.1,1.2,29.28,1.2,29.28"/><path class="cls-7" d="M92.71,364.5c-.93-6.62-16.88-10.07-33.79-7.7s-28.38,9.65-27.46,16.26,15.39,10.07,32.3,7.7S93.63,371.11,92.71,364.5Z"/><path class="cls-7" d="M36.86,393.27a121.71,121.71,0,0,1,16-.53"/><path class="cls-7" d="M44.71,407.25c1.49-6,0-8.95,0-13.42"/><path class="cls-7" d="M57.85,392.75c-.12,3.75.15,13.32,0,15.27"/><path class="cls-7" d="M66,410.59a82.52,82.52,0,0,1,.92-18.17c2.58-.6,7.9,2.37,6.72,6.81-.55,2.06-7.3,1.43-7.3,1.43"/><path class="cls-7" d="M84.61,391c-5.61-.1-7.1,7.36-1.14,8.85s6,10.44-3,9.07"/><polyline class="cls-6" points="154.85 426.59 157.54 458.85 58.05 524.88 52.16 486.27"/><line class="cls-12" x1="58.05" y1="524.88" x2="26.82" y2="516.09"/><polygon class="cls-5" points="26.89 403.91 26.82 480.31 52.67 485.74 154.85 426.59 26.89 403.91"/><path class="cls-13" d="M464.66,552.55a33.35,33.35,0,0,1-12.14-2.75c-9.45-4.14-31.44-16.57-35.15-19.61-2.86-2.34-3.75-7.83-4.62-13.14-.92-5.63-1.87-11.45-5.21-13.95-2.24-1.68-3.4-3.4-3.53-5.25-.22-3.1,2.53-6.3,5.25-9h0a9.05,9.05,0,0,1,1.47-.08c1.2,0,2.86.09,4.46.18s3,.17,4.07.17a3.51,3.51,0,0,0,1.55-.18c1.85-1,3.53-1.9,5.15-2.82,5.26-3,9.41-5.29,14.28-5.29a18.35,18.35,0,0,1,6.87,1.45c1.24.5,2.49,1,3.72,1.41,7,2.58,13.55,5,17.73,13.37,1.89,3.78,5.21,6,8.72,8.37a34,34,0,0,1,8,6.74c6.3,7.88-3.81,28.24-13.7,38.13-1.5,1.5-3.84,2.26-7,2.26Z"/><path class="cls-10" d="M440.25,481.32a17.86,17.86,0,0,1,6.68,1.41c1.25.5,2.51,1,3.73,1.42,6.87,2.55,13.37,4.95,17.45,13.13,1.95,3.9,5.32,6.17,8.89,8.57a33.62,33.62,0,0,1,7.93,6.64c2.76,3.45,2.44,9.81-.9,17.92a63.61,63.61,0,0,1-12.77,19.54c-1.4,1.4-3.63,2.11-6.61,2.11a32.83,32.83,0,0,1-11.94-2.71c-9.42-4.13-31.34-16.52-35-19.54-2.71-2.22-3.59-7.61-4.45-12.83-.94-5.73-1.9-11.65-5.4-14.27-2.12-1.59-3.21-3.19-3.33-4.89-.2-2.85,2.38-5.89,5-8.5a8.21,8.21,0,0,1,1.25-.06c1.19,0,2.84.09,4.44.18s3,.17,4.1.17a3.84,3.84,0,0,0,1.79-.24c1.86-1,3.54-1.91,5.16-2.82,5.19-2.92,9.29-5.22,14-5.22m0-1c-6.52,0-11.74,4-19.66,8.16a4,4,0,0,1-1.32.13c-2.12,0-6.17-.35-8.54-.35a3.94,3.94,0,0,0-1.82.22c-5,5-8.35,10-1.67,15,6.28,4.71,3.74,22.1,9.81,27.07,3.77,3.08,25.6,15.44,35.27,19.68a34.14,34.14,0,0,0,12.34,2.79c2.86,0,5.54-.63,7.31-2.4,9.62-9.61,20.42-30.44,13.74-38.79-5.22-6.52-13.36-8.35-16.7-15-5-10-13.36-11.69-21.71-15a18.81,18.81,0,0,0-7.06-1.48Z"/><path class="cls-5" d="M455.63,492.69c1.54,2,2.7,5.16,2.24,6.51-5.27,1.51-29.14-7.55-21.82-11.48C440,485.61,452.67,488.82,455.63,492.69Z"/><path class="cls-6" d="M462.33,461.77c1.67-6.68,15.52-7.18,21.71-6.68.56,2.1-9.47,6.5-11.69,10-3.8,6-5,20-13.36,21.71"/><path class="cls-2" d="M379.7,527.09c-8.48,2.42-6.54,16.49-1.53,14.82l.33,4.36c-1.66.1-3.94.43-5.26-.58-2-1.51-5.52-14.48-3.12-17.57,1.62-2.08,7.39-1.21,9.58-1"/><path class="cls-2" d="M380.25,523.78c-.61,3.71-4.25,25.14-1.45,28.92,4.38,5.91,18,5.33,23.13,1.45,5.78-4.34-.62-26.49,1-30.34Z"/><path class="cls-5" d="M402.72,523c1.21,1.19-3.67,1.31-5.12,2.19-2.66,1.6-15.49,3.1-17.14-.65C378.25,519.57,397.6,518,402.72,523Z"/><path class="cls-6" d="M307.21,401c1.37,1.1,2.5,4.17,1.51,5.63-1.33-2.16-10.56-5.37-15,8.35-2-.29-2.67-8.25-1.67-10,1.22-2.15-6.14-1.4-6.68-1.67-1.06-.53.76-5.82.16-6.85l13.2-4.84Z"/><path class="cls-6" d="M273.65,376.61v9.18c0,6,7.48,10.85,16.7,10.85s16.7-4.86,16.7-10.85v-9.18"/><ellipse class="cls-6" cx="290.35" cy="375.77" rx="16.7" ry="10.85"/><path class="cls-5" d="M295.18,391.91S327.09,415,332.1,415c4.3,0,11.69-1.67,8.35-11.69-1.67-5-36.73-15.45-36.73-15.45Z"/><path class="cls-5" d="M330.43,406.66C329,410.08,329,414,332.1,415c5,1.67,11.69-5,8.35-11.69C339,400.44,331.83,403.25,330.43,406.66Z"/><path class="cls-6" d="M283.32,362.54c-7.52,0-19.5-8.35-17.71-23.07,1.77.61,16.16,14.11,20.87,8.4"/><path class="cls-5" d="M290.35,383.29c8.51,0,15-5,15-10,0-4.27-5.28-6.77-6.68-8.17-3.34-3.34,1.81-18,0-25.22-1.67-6.68-10-10-15.05-2.53-4.29,6.39,5.15,22.31-1.88,28.16-1.93,1.6-5.5,4.54-5.9,7.3C275.32,376.61,280.33,383.29,290.35,383.29Z"/><path class="cls-6" d="M368.24,377.44c-5.66.1-17.6-6.28-26.12-12.52-5.62-4.12-25.94-25.62-44.73-13.36l3.17,11.2c13.35-6.19,37.68,18.43,39.35,25.11"/><path class="cls-6" d="M302.25,353.48c-1.1-2.88-7.07-4.37-10.39-4.77-4.25-.5-8.61.39-9.8,4.65-2.13,7.59-3.28,15.13,8.29,14.9C305.09,368,306.71,365.15,302.25,353.48Z"/><path class="cls-6" d="M364.84,257.69c1,1.08,5.66,12.06,7.34,13,1.66-1,3.79-5.24,3.33-7.45"/><path class="cls-9" d="M357,258.69c-.94,3.87,3.92,6.74,9.39,4.33,6.65-2.93,28.81-14.67,30.85-18,1.15-1.85-.88-6.62-6.34-4.21C388.57,241.88,357.71,255.75,357,258.69Z"/><path class="cls-6" d="M420.57,291.34c-5.39-3.69-17.38-2.09-23.35-6.57-6.68-5-8.35-45.08-26.72-38.4,0,0-8.35,3.34-8.35,8.35,6.68,6.68,16.7,8.35,16.7,18.37,0,22,13.59,37.58,20,36.73"/><line class="cls-7" x1="571" y1="390.85" x2="621.69" y2="392.35"/><path class="cls-6" d="M180.8,440.34c12.35,9.75,28.66,12.88,44.38,13.76s31.6-.18,47.1,2.56c17.09,3,34,10.65,51.12,7.58,10.48-1.88,20.44-14.44,31-13.37,11.46,1.16.17,27.37,9.39,34.27,14.48,10.84,8.35,36.73,11,44.31,2.53,7.33,29.12,17.47,34.12,12.46-3.34-6.68-26.65-13-25-20,3.8-16.7,11.53-27.4,0-40.07-8.18-9,3.34-23.38,3.34-40.07,20.25-7.6,32.85-.49,51.76,10,15,8.35,7,28.57,6.22,31.62-.93,3.66,3.55,9.65,7.14,8.46,10-3.34,14.43-31.7,6.64-41.6s-31.78-22.94-33.36-26.86,3.34-8.35,20-8.35c60.48,0,68.46,45.08,73.47,63.45,3.47,12.71,22.24,21.69,35.09,24.6,3.37-1,2.8-6.37,0-8.54s-6.52-2.58-9.56-4.34c-8.36-4.86-7.8-16.75-8.51-26.4A60.29,60.29,0,0,0,513.05,421c-6.87-5.27-30.68-24.32-30-37.89,15.94-7,81.74,36.06,107.83,26.93,33.39-11.69,18.92-57.6,11.69-71.8-7.32-14.38-43.39-70.13-93.51-70.13-23.38,0-110.2,13.36-113.54,55.1-10-1.67-20.27,2.59-21.71,18.37-5,55.1-33.39,40.07-55.34,45.95-5.35,1.43-9.79,6.3-11.52,11.56-2.72,8.28,7.59,17,15.1,12.62,0,0,1.18-14.18,8.65-14.34,6.94-.15,13.06,4.33,21.41,17.68,2.92,4.67-28.8,31.19-67.21,21.71C271.15,433.32,180.8,440.34,180.8,440.34Z"/><circle class="cls-10" cx="400.55" cy="361.58" r="10.02"/><path class="cls-9" d="M400.55,341.54c-8.3,0-15,7.85-15,17.53h30.06C415.58,349.39,408.85,341.54,400.55,341.54Z"/><path class="cls-5" d="M172.41,438c12.75,7.05,45.78,2.84,54.49-16.33,8.35-18.37-21.36-16.37-27.44-15.32C189.4,408.1,151.43,426.41,172.41,438Z"/><path class="cls-2" d="M203.64,417c4.42-.34,9.54-8.28,9.54-14.24,0-3.23-5.45-6.53-12.82-.89l1,2.39s5.81-3,7.31-1.5-.64,7.45-5.07,9.38A9.84,9.84,0,0,0,203.64,417Z"/><path class="cls-2" d="M189.63,426.88c5.66,1.25,13.11-3.23,14.61-7.7s0-11.93-3.15-18.95c-7.28-6.4-25.17,2.55-25.65,11C175.91,417.69,185.11,425.88,189.63,426.88Z"/><path class="cls-1" d="M200.51,400.55c0-2.6-8.9-3.75-13.42-1.49-8.95,4.47-10,9.31-11.63,12.78-.3.64,6.25,3.08,11.22,2.23C196,412.47,200.51,402,200.51,400.55Z"/><path class="cls-7" d="M189.63,426.88c5.66,1.25,13.11-3.23,14.61-7.7s0-11.93-3.15-18.95c-7.28-6.4-25.17,2.55-25.65,11C175.91,417.69,185.11,425.88,189.63,426.88Z"/><path class="cls-7" d="M175.91,411.73c8.95,8.95,25.35-3,24.28-11.74"/><path class="cls-2" d="M334.93,157.22c-3-4.84-8.65-9.72-8.81-10.25-.34-1.15,2.18-3.62,4.25-2.57,1.24.63,6.93,9.29,9,12.43"/><path class="cls-2" d="M350.29,157.38a48.07,48.07,0,0,1,5.92-9.19c1.91-2.45,3.8,2.69,3.08,4.13a27.82,27.82,0,0,1-4.47,6"/><path class="cls-2" d="M343.27,156.16s3.39-11,6.13-16.11c.76-1.41,1.84-3,3.43-3,1.29,0,1.81,2.28,1,5.16-.87,3.22-7.57,13.88-7.57,13.88"/><path class="cls-6" d="M332.45,161.25c0,6,1.49,28.33,3,32.8,1.41,4.24,16.81,4.34,17.89,0,1.49-6,4.47-28.33,4.47-32.8C357.8,155.29,332.45,155.29,332.45,161.25Z"/><path class="cls-2" d="M278.78,277.55s1.49,19.38,4.47,28.33c1.89,5.66,19,7.15,20.87,1.49,3-8.95,4.47-29.82,4.47-29.82"/><path class="cls-5" d="M308.6,276.8c0,2.88-10.44,3.73-15.65,3.73-3.73,0-14.16-.85-14.16-3.73,0-3.73,8.95-5.22,14.16-5.22S308.6,273.07,308.6,276.8Z"/><path class="cls-2" d="M299.65,307.36c6-3,4.47-6,4.47-11.93,0-3-6-10.44-6-10.44l6.62-1.06s5.31,7.32,5.31,10C310.09,299.91,311.58,310.35,299.65,307.36Z"/><polygon class="cls-6" points="524.73 138.56 524.73 186.63 547.05 186.63 547.05 136.84 545.34 128.25 526.45 128.25 524.73 138.56"/><polygon class="cls-6" points="532.74 128.25 535.03 112.8 538.47 112.8 540.18 128.25 532.74 128.25"/><path class="cls-6" d="M519.47,147.33s-1.19,30.41,0,41.4c.52,4.78,19.22,4.8,19.22,0V145.86l-1.48-7.39H522.44Z"/><polygon class="cls-6" points="527.87 138.43 529.84 125.12 532.79 125.12 534.27 138.43 527.87 138.43"/><path class="cls-6" d="M535.26,145.42V193.5c0,5.58,22.32,5.58,22.32,0v-49.8l-1.72-8.59H537Z"/><polygon class="cls-6" points="543.27 135.12 545.56 119.67 549 119.67 550.71 135.12 543.27 135.12"/><path class="cls-5" d="M387.62,188.09c0,6.15,25.35,6,25.35,0,0-4.47-1.57-18.12-3-22.36-1.49-4.47-16.4-4.47-19.38,0C388.75,168.5,387.62,185.11,387.62,188.09Z"/><path class="cls-5" d="M366.75,191.07c0,8.95,25.35,7.45,25.35,1.49,0-4.47-.08-18.12-1.49-22.36-1.49-4.47-16.4-4.47-19.38,0C369.37,173,366.75,188.09,366.75,191.07Z"/><path class="cls-5" d="M417.44,192.56c0,6.15,26.84,6,26.84,0,0-4.47-3.06-18.12-4.47-22.36-1.49-4.47-14.91-4.47-17.89,0C420.06,173,417.44,189.58,417.44,192.56Z"/><path class="cls-5" d="M387.62,173.18c0,6.15,25.35,4.47,25.35-1.49,0-4.47-1.57-16.63-3-20.87-1.49-4.47-16.4-4.47-19.38,0C388.75,153.59,387.62,170.2,387.62,173.18Z"/><path class="cls-5" d="M387.62,158.27c0,6.15,25.35,7.45,25.35,1.49,0-4.47-.08-18.12-1.49-22.36-1.49-4.47-16.4-4.47-19.38,0C390.24,140.17,387.62,155.29,387.62,158.27Z"/><path class="cls-5" d="M366.75,179.15c0,6.15,26.84,6,26.84,0,0-4.47-1.57-18.12-3-22.36-1.49-4.47-16.4-4.47-19.38,0C369.37,159.56,366.75,176.16,366.75,179.15Z"/><path class="cls-14" d="M80,143.88c-7.21-4.89-1.85-34.82,13.81-40.71,15-5.66,49.72-5.81,55.89,4.51"/><path class="cls-14" d="M84.32,156.84c-2.84,1.13-7.6,8-3.22,14.49,15.09,22.39,44.79,17.28,71.16-7.08"/><path class="cls-9" d="M50.45,140.91c-12-4.24.8,41.74,11.12,35.57,4.58-2.74,10.18-13.62,20.5-19.78C97,156.42,100.13,174.48,139,169c23.52-3.3,29.55-26.52,36.72-27.55,7.68-1.1,13.33-4.73,13.21-10.69s-14.48-.84-19.46-5.59c-6.53-6.22-13.87-23.59-40.65-20.09-35.6,4.65-42.35,37.23-47,38.24C74.41,145,60.48,144.45,50.45,140.91Z"/><circle class="cls-4" cx="155.25" cy="126.23" r="6.7" transform="translate(-2.4 3.01) rotate(-1.1)"/><circle class="cls-10" cx="154.53" cy="126.98" r="2.24" transform="translate(-2.42 3) rotate(-1.1)"/><path class="cls-14" d="M148.56,126.36a6.7,6.7,0,0,1,13.39-.26"/><path class="cls-3" d="M134.44,135.27c-2-.75-13.62-7-16.34-4-10.77,12.08,13.22,27.54,19.65,22.55a15.41,15.41,0,0,0,5.13-6.9c1-2.79,7.17-5.1,4.19-8.4C145.21,136.47,137.19,136.28,134.44,135.27Z"/><path class="cls-7" d="M187.7,133.19s-4.34-.26-6.56,2.35"/><line class="cls-15" x1="149.07" y1="126.96" x2="162.49" y2="125.47"/></svg>