<svg id="Layer_1" data-name="Layer 1" xmlns="http://www.w3.org/2000/svg" viewBox="0 0 220 180"><defs><style>.cls-1{fill:#fff4de;}.cls-2{fill:#ffb380;}.cls-10,.cls-19,.cls-22,.cls-3{fill:#f76234;}.cls-11,.cls-14,.cls-15,.cls-17,.cls-20,.cls-21,.cls-4,.cls-6,.cls-9{fill:none;}.cls-10,.cls-16,.cls-19,.cls-4,.cls-5,.cls-6,.cls-8{stroke:#f76234;}.cls-10,.cls-11,.cls-16,.cls-18,.cls-20,.cls-21,.cls-22,.cls-4,.cls-5,.cls-8,.cls-9{stroke-linecap:round;}.cls-10,.cls-11,.cls-16,.cls-18,.cls-21,.cls-22,.cls-4,.cls-5,.cls-8,.cls-9{stroke-linejoin:round;}.cls-5{fill:#ffe783;}.cls-14,.cls-15,.cls-17,.cls-19,.cls-20,.cls-6{stroke-miterlimit:10;}.cls-16,.cls-7{fill:#fbb03b;}.cls-8{fill:#f9cb4b;}.cls-15,.cls-9{stroke:#f9cb4b;}.cls-11,.cls-17{stroke:#fbb03b;}.cls-12{fill:#0e9100;}.cls-13{fill:#ff9852;}.cls-14{stroke:#ff9852;}.cls-18{fill:#f7eed7;stroke:#0e9100;}.cls-20{stroke:#ffb380;}.cls-21,.cls-22{stroke:#ffe783;}</style></defs><title>peaches</title><rect class="cls-1" width="220" height="180"/><path class="cls-2" d="M97,115.41C90.18,118.12,73.95,127.8,81,149c10.29,30.86,49.55,26.54,58.4,0,3-9,1.77-30.08-14.16-37.16C112.23,106.08,105.8,111.87,97,115.41Z"/><path class="cls-3" d="M101.56,123.71c-1.1-1.13-4.13-3.94-4.61-6.16s.47-7.91,3.13-5.27c.79.79,5.47,4.76,6.72,6.43"/><path class="cls-4" d="M89.75,125c2.54.6,9.88.34,12.87-2.25,4.83-4.17,6.15-7.9,14.93-9"/><circle class="cls-3" cx="98.3" cy="139.77" r="3.54"/><circle class="cls-3" cx="122.61" cy="139.3" r="3.54"/><path class="cls-5" d="M122.61,127.8c-3.42,0-6.19,5.15-6.19,11.5H128.8C128.8,132.95,126,127.8,122.61,127.8Z"/><path class="cls-5" d="M98.3,128.26c-3.42,0-6.19,5.15-6.19,11.5H104.5C104.5,133.41,101.72,128.26,98.3,128.26Z"/><line class="cls-4" x1="127.97" y1="133.55" x2="133.23" y2="128.68"/><line class="cls-4" x1="128.8" y1="135.76" x2="135.88" y2="133.11"/><line class="cls-4" x1="128.8" y1="138.41" x2="135" y2="138.41"/><line class="cls-4" x1="92.65" y1="134.02" x2="87.4" y2="129.15"/><line class="cls-4" x1="91.82" y1="136.23" x2="84.75" y2="133.57"/><line class="cls-4" x1="91.82" y1="138.88" x2="85.63" y2="138.88"/><path class="cls-5" d="M116.29,152.91l-11.17-.09s2.22-14.37,5.71-14.35"/><ellipse class="cls-4" cx="110.68" cy="160.12" rx="10.47" ry="3.74"/><circle class="cls-4" cx="93.58" cy="153.02" r="5.21"/><circle class="cls-4" cx="127.42" cy="151.72" r="5.21"/><circle class="cls-3" cx="94.23" cy="153.67" r="1.3"/><circle class="cls-3" cx="128.07" cy="152.37" r="1.3"/><line class="cls-6" x1="104.5" y1="163.13" x2="105.25" y2="156.92"/><line class="cls-6" x1="108.55" y1="156.45" x2="108.55" y2="163.13"/><line class="cls-6" x1="112.81" y1="156.45" x2="112.81" y2="163.13"/><line class="cls-6" x1="116.11" y1="156.92" x2="116.86" y2="163.13"/><path class="cls-7" d="M179,114.68l.55,1a16.93,16.93,0,0,0-2.75-2.08c-5.51-3.31-18.73,1.1-23.94,13.84-8.31,20.32,7.37,37,12.85,38.23,17.71,4.13,33.57,2.41,42.2-17.44C214.27,133.5,202.1,108.07,179,114.68Z"/><path class="cls-3" d="M186.94,124c.09-1.74,2.35-3.39,4-4.07s4.21.22,5.21,1.15c1.6,1.5-4.86,3.85-5.21,5.71"/><path class="cls-4" d="M163.52,128.24a9,9,0,0,1,8.3.14,6.94,6.94,0,0,1,3.31,7.36"/><path class="cls-4" d="M184.38,140.11c2.08-.88,5.61-2.29,8.91-.09s3.09,5.84,3.31,6.61"/><path class="cls-8" d="M179.51,139.27s1.48,15.22-1.13,16.4-10.86-7.87-10.3-10.68"/><path class="cls-4" d="M179.51,139.27s1.48,15.22-1.13,16.4-10.86-7.87-10.3-10.68c.21-1.08,4.91-3,4.91-3l2,4"/><path class="cls-4" d="M161.27,146.34c1.34,4.6,3.35,8.67,7.45,11.15a22.62,22.62,0,0,0,14.94,2.44"/><path class="cls-9" d="M185,166.67c.53-11.22,12.65-17.83,21.17-15.69"/><path class="cls-9" d="M200.14,150.3a30,30,0,0,0-1-3.85"/><path class="cls-9" d="M194,153c-1.34-1.37-4-5-4-5"/><path class="cls-9" d="M188.38,157.33l-4.55-3.73"/><path class="cls-9" d="M185.47,163.74l-6.79-.21"/><path class="cls-9" d="M204.57,150.28l1.16-4.53"/><path class="cls-10" d="M190.46,165.67a65.19,65.19,0,0,0,7-3.7,79.42,79.42,0,0,0,6.09-6C198.3,154.62,190.79,158.71,190.46,165.67Z"/><path class="cls-11" d="M165.66,165.65c17.71,4.13,33.57,2.41,42.2-17.44,6.4-14.71-5.76-40.14-28.9-33.53"/><path class="cls-11" d="M152.42,150c3.34,8.93,10,14.93,13.24,15.68"/><path class="cls-9" d="M152.52,149.94c6.54-5.45,8.52-19.17,1.61-25.26"/><path class="cls-9" d="M156.49,127.08a32.79,32.79,0,0,1,5.41-2.81"/><path class="cls-9" d="M158.39,133c1.72-.08,6.34-.81,6.34-.81"/><path class="cls-9" d="M158.56,137.45c2.25.48,6.65,1.86,6.65,1.86"/><path class="cls-9" d="M155.19,147.89A57.12,57.12,0,0,1,160,152"/><path class="cls-9" d="M158,142.92c1.31.44,3.84,1.51,3.84,1.51"/><path class="cls-10" d="M151.94,130.21l-.86,13.47C154.27,140.2,155.2,133.54,151.94,130.21Z"/><path class="cls-9" d="M197.7,129c-12.12-1.1-13.32-10.86-20.94-15.43-5.51-3.31-18.73,1.1-23.94,13.84a30.28,30.28,0,0,0-.4,22.55"/><path class="cls-12" d="M205.45,140c1.12-1.16,1.44-8-.08-9.54-2.39-2.39-10.92-6-12.1-5.72.21,1.72.26,4.76,1.21,6.72C197.65,138,203.38,142.15,205.45,140Z"/><path class="cls-13" d="M12.27,146.88c3.53,23,21,24.14,31.79,23,13.6-1.49,29.88-16.6,25.32-35.32-3.74-15.39-15.27-23.27-35.92-19.43C26.25,116.43,8.88,124.84,12.27,146.88Z"/><path class="cls-4" d="M33.94,120.38c1.69,2.57,9.51,5,12,3.7,3.65-1.94,3.5-4.66,8.16-4.66"/><path class="cls-3" d="M43.85,123.94a6.2,6.2,0,0,0-.33-3,2,2,0,0,0-2.64-.11,4.27,4.27,0,0,0-1.35,2.53"/><path class="cls-9" d="M12.35,142.34c7.94,1.56,13.77-21.77,24.27-3.11,1.81,3.21-3.5,10.5-3.49,12.47,0,2.92,9.32,3.85,11.38,1.51,2.31-2.62-1.95-9.65-.33-13,9.93-20.78,15.76,6,25.25.84"/><path class="cls-14" d="M12.27,146.88c3.53,23,21,24.14,31.79,23,13.6-1.49,29.88-16.6,25.32-35.32-3.74-15.39-15.27-23.27-35.92-19.43C26.25,116.43,8.88,124.84,12.27,146.88Z"/><path class="cls-12" d="M28.81,119.81c-5.94,2.34-13,.58-16.8-3.4,3.8-3.09,4.89-5.34,8-5.86,1.87-.32,9.19-1.27,10.74-.18,3.23,2.27,9.76,7.77,9.17,10.3S32.29,118.44,28.81,119.81Z"/><circle class="cls-3" cx="29.62" cy="141.57" r="2.33"/><circle class="cls-3" cx="50.03" cy="142.15" r="2.33"/><path class="cls-3" d="M29.92,157.34c-.39,2.09,2.63,4.41,6.75,5.17s7.77-.32,8.16-2.41Z"/><path class="cls-15" d="M34.37,148.59c3.41,0,2.24,3.67,1.74,5.23"/><path class="cls-15" d="M44.71,148.75c-3.43,1-4.59,2.15-3.6,5.34"/><path class="cls-9" d="M36.54,157.18a5.45,5.45,0,0,0,2.48.42"/><path class="cls-9" d="M33.93,165.28c1.52-1.55,5-.39,5.44,1"/><path class="cls-9" d="M26.25,138.85a3.46,3.46,0,0,0-1.06,4.65"/><path class="cls-9" d="M54.25,139.94a3.46,3.46,0,0,1,.28,4.77"/><path class="cls-7" d="M81.32,41.18C85,70.71,118.19,70.21,130.41,61c11.59-8.7,13.53-40.58-7.13-49.51-9.24-4-20.26-1.38-24.41,0C95.95,12.52,78.34,17.21,81.32,41.18Z"/><path class="cls-3" d="M106.69,19.84s1.2-5.44,1.24-5.66c.15-1,2.35-.68,2.8-.33,1.31,1,.35,3.46,1.59,4.56"/><path class="cls-4" d="M96,16.76c6.87-2.29,9.38,3.41,10.76,3.37,1.78-.06,6.83-2.82,9.59-2.82"/><path class="cls-8" d="M89.83,58.63c2.29-10.3,15.34-18,20-20.31,3.21,1.11,21.88,7.06,25.1,16.9"/><circle class="cls-16" cx="111.93" cy="55.36" r="4.15"/><path class="cls-3" d="M109.61,38.68c3.74-.14,4.84,8.78,4.84,8.78l-9.12.33S105.34,38.85,109.61,38.68Z"/><path class="cls-4" d="M109.53,61.53c2.25,1.82,7.72.15,8.94-2.48"/><path class="cls-4" d="M90.89,32.37a8.64,8.64,0,0,0,6.56,4.25,9.1,9.1,0,0,0,7.26-3.29"/><line class="cls-4" x1="92.73" y1="25.78" x2="103.88" y2="28.34"/><path class="cls-4" d="M126.93,32.37a8.64,8.64,0,0,1-6.56,4.25,9.1,9.1,0,0,1-7.26-3.29"/><line class="cls-4" x1="125.09" y1="25.78" x2="113.94" y2="28.34"/><path class="cls-12" d="M122.84,15.34c-2.5-1.88-6.07-3.58-7.32-2.17-2.52,2.83,9.15,18,2.53,28,5.23-.31,11.74-9.06,11.58-13.95C129.5,23.23,123.4,15.76,122.84,15.34Z"/><path class="cls-8" d="M87.22,49.51l8.08-8.72s-8-3.63-9.76-1.91S87.22,49.51,87.22,49.51Z"/><path class="cls-8" d="M126.28,38.62l8.59,8.22s3.09-9,1-10.71C134,34.52,126.28,38.62,126.28,38.62Z"/><path class="cls-17" d="M81.32,41.18C85,70.71,118.19,70.21,130.41,61c11.59-8.7,13.53-40.58-7.13-49.51-9.24-4-20.26-1.38-24.41,0C95.95,12.52,78.34,17.21,81.32,41.18Z"/><line class="cls-18" x1="113" y1="16" x2="116" y2="13.4"/><path class="cls-13" d="M208.54,46.24c-4.8,21.12-21,24.14-31.79,23-13.6-1.49-29.88-16.6-25.32-35.32,3.74-15.39,15.27-23.27,35.92-19.43C194.56,15.8,213.48,24.5,208.54,46.24Z"/><path class="cls-4" d="M188.87,16.74c-2.14,7.62-11.65,9.26-14,7.7-3.13-2.08-3.13-5.08-8.16-3.66"/><path class="cls-19" d="M177.29,24.72c-.19-1.23-.29-3.7,0-4.3.55-1,1.84-.83,2.69.11a8.47,8.47,0,0,1,1.64,3.76"/><path class="cls-12" d="M192,18.17c5.94,2.34,12.73-.82,14.8-5.4.59-1.3-4.91-5.22-8-5.86C186.73,4.36,180.35,17.5,180.93,20S188.52,16.8,192,18.17Z"/><path class="cls-8" d="M157.73,35.36c-1-4,11-7,20-1,9-6,22-3,21,1-6,0-21,3-21,3s9.26,11.66,7,15c-1.82,2.69-11.1,2.64-13,0-2.31-3.21,6-15,6-15S161.73,34.36,157.73,35.36Z"/><circle class="cls-3" cx="165.73" cy="46.16" r="2.5"/><circle class="cls-3" cx="189.73" cy="46.36" r="2.5"/><path class="cls-4" d="M169.73,43.86c0,2.49-1.57,4.5-3.5,4.5s-3.5-2-3.5-4.5,1.57-5.5,3.5-5.5"/><path class="cls-4" d="M193.73,44.06c0,2.49-1.57,4.5-3.5,4.5s-3.5-2-3.5-4.5,1.57-5.5,3.5-5.5"/><path class="cls-3" d="M175,52.89a2,2,0,0,0-2.47,1.38l3.85,1.09A2,2,0,0,0,175,52.89Z"/><path class="cls-3" d="M181,52.89a2,2,0,0,1,2.47,1.38l-3.85,1.09A2,2,0,0,1,181,52.89Z"/><path class="cls-4" d="M174.73,63.36c0-5.34,21-4,21-4"/><path class="cls-8" d="M187.07,58.78A4.08,4.08,0,0,1,186,57c-.27-2.44,3.73-3.61,5.87-1.63a6.76,6.76,0,0,1,1.61,3.1"/><path class="cls-4" d="M189,56.84a14.46,14.46,0,0,0,1.09,2.2"/><path class="cls-9" d="M155,39.55a41.45,41.45,0,0,0,4.89,2.21"/><line class="cls-9" x1="155.14" y1="45.86" x2="159.89" y2="45.1"/><line class="cls-9" x1="160.86" y1="48.04" x2="157.9" y2="50.36"/><path class="cls-9" d="M201.86,39.55A41.45,41.45,0,0,1,197,41.76"/><line class="cls-9" x1="201.76" y1="45.86" x2="197.01" y2="45.1"/><line class="cls-9" x1="196.04" y1="48.04" x2="199" y2="50.36"/><path class="cls-3" d="M26.59,80,25.43,85.4H22.79L23.94,80l-.35,0h-.37a6.5,6.5,0,0,0-1.51.18,7.94,7.94,0,0,0-1.46.5,7.76,7.76,0,0,0-1.31.76,6.1,6.1,0,0,0-1.06,1,4.46,4.46,0,0,0-.71,1.1,2.86,2.86,0,0,0-.26,1.18,2.41,2.41,0,0,0,.12.83,1.22,1.22,0,0,0,.37.54,1.54,1.54,0,0,0,.61.29,3.34,3.34,0,0,0,.83.09.26.26,0,0,0,0-.12,1.53,1.53,0,0,1-.09-.2,2,2,0,0,1-.09-.34,3.19,3.19,0,0,1,0-.56,4.32,4.32,0,0,1,.66-2.45,4,4,0,0,1,1.86-1.5L18.49,93.5h2.59l1.44-6.77h2.65L23.73,93.5h2.59L29.18,80Z"/><path class="cls-3" d="M45.06,84.62a1,1,0,0,0-.89-.48,1.14,1.14,0,0,0-.85.28,1,1,0,0,0-.27.7,1.35,1.35,0,0,0,0,.32,1,1,0,0,0,.12.29.72.72,0,0,0,.21.21.49.49,0,0,0,.28.08h.14L44,86l.16-.06a.17.17,0,0,0,.09-.08A6.73,6.73,0,0,1,44.17,87a11.47,11.47,0,0,1-.31,1.31,11.13,11.13,0,0,1-.48,1.31,7.16,7.16,0,0,1-.62,1.15,3.42,3.42,0,0,1-.75.81,1.38,1.38,0,0,1-.84.31.6.6,0,0,1-.47-.16.63.63,0,0,1-.15-.43,1.82,1.82,0,0,1,0-.29c0-.11,0-.23.07-.36l1.29-6.12H39.35l-1.22,5.77h0a4.68,4.68,0,0,1-.24.65,2.48,2.48,0,0,1-.33.54,1.58,1.58,0,0,1-.41.36.92.92,0,0,1-.49.14q-.74,0-.74-.77a2.38,2.38,0,0,1,0-.29,1.81,1.81,0,0,1,.06-.29L37.3,84.5H34.71l-.19,1v-.13a.79.79,0,0,0-.35-.65,1.85,1.85,0,0,0-1.11-.26,3.43,3.43,0,0,0-1.43.29,4.1,4.1,0,0,0-1.16.79,5.41,5.41,0,0,0-.9,1.14A8,8,0,0,0,28.92,88a8.34,8.34,0,0,0-.38,1.41,7.67,7.67,0,0,0-.12,1.32,4,4,0,0,0,.2,1.35,2.48,2.48,0,0,0,.54.9,2,2,0,0,0,.76.49,2.72,2.72,0,0,0,.9.15,2.57,2.57,0,0,0,.88-.15,3,3,0,0,0,.73-.38,3.61,3.61,0,0,0,.59-.53,7,7,0,0,0,.48-.6,1.92,1.92,0,0,0,.55,1.23,1.73,1.73,0,0,0,1.22.42,3.55,3.55,0,0,0,.53,0,2.86,2.86,0,0,0,.61-.17,3.24,3.24,0,0,0,.65-.35,3.49,3.49,0,0,0,.65-.6A4.5,4.5,0,0,0,38,92a1.75,1.75,0,0,0,.54,1,2.35,2.35,0,0,0,1.61.52,3.51,3.51,0,0,0,1.65-.39,4.64,4.64,0,0,0,1.31-1,6.52,6.52,0,0,0,1-1.46,11.05,11.05,0,0,0,.68-1.7,11.55,11.55,0,0,0,.39-1.75,11.34,11.34,0,0,0,.12-1.59,2.91,2.91,0,0,0-.06-.58A1.57,1.57,0,0,0,45.06,84.62ZM33.48,90.27a2.46,2.46,0,0,1-.26.69,2.19,2.19,0,0,1-.38.5,1.54,1.54,0,0,1-.43.3,1,1,0,0,1-.43.1l-.28,0a.54.54,0,0,1-.29-.16,1.08,1.08,0,0,1-.23-.42,2.57,2.57,0,0,1-.1-.8,6.55,6.55,0,0,1,.08-1,9,9,0,0,1,.61-2.15,5.24,5.24,0,0,1,.5-.93,2.66,2.66,0,0,1,.62-.65,1.2,1.2,0,0,1,.72-.25.77.77,0,0,1,.36.07.67.67,0,0,1,.22.18.71.71,0,0,1,.12.23.73.73,0,0,1,0,.2Z"/><path class="cls-3" d="M48,89.86a4.9,4.9,0,0,0,1.56-.36,4.76,4.76,0,0,0,1.32-.81,3.88,3.88,0,0,0,.92-1.17,3.15,3.15,0,0,0,.34-1.45,2.49,2.49,0,0,0-.08-.65,1.26,1.26,0,0,0-.31-.55,1.6,1.6,0,0,0-.61-.38,2.83,2.83,0,0,0-1-.14,3.91,3.91,0,0,0-1.64.33,4.23,4.23,0,0,0-1.26.87,5.51,5.51,0,0,0-.91,1.23,7.88,7.88,0,0,0-.61,1.4,9.16,9.16,0,0,0-.33,1.39,7.87,7.87,0,0,0-.11,1.2,3.73,3.73,0,0,0,.2,1.3,2.29,2.29,0,0,0,.57.88,2.26,2.26,0,0,0,.88.5,3.79,3.79,0,0,0,1.15.16,4.37,4.37,0,0,0,1-.12,2.52,2.52,0,0,0,.91-.43,2.71,2.71,0,0,0,.71-.82,3.93,3.93,0,0,0,.44-1.29,3.62,3.62,0,0,1-.47.36,4.7,4.7,0,0,1-.54.3,3.45,3.45,0,0,1-.56.21,2.06,2.06,0,0,1-.55.08,1.33,1.33,0,0,1-.44-.07.82.82,0,0,1-.35-.24,1.24,1.24,0,0,1-.24-.46,2.52,2.52,0,0,1-.09-.72c0-.08,0-.17,0-.26Zm.5-2.16A8.72,8.72,0,0,1,49,86.5a3.82,3.82,0,0,1,.62-.87,1,1,0,0,1,.67-.34.35.35,0,0,1,.35.2,1.25,1.25,0,0,1,.1.54,2.86,2.86,0,0,1-.22,1.09,3.22,3.22,0,0,1-.58.94,3.13,3.13,0,0,1-.84.67,2.2,2.2,0,0,1-1,.28A10.93,10.93,0,0,1,48.53,87.7Z"/><path class="cls-3" d="M64.08,91.87a.88.88,0,0,1-.56-.15.64.64,0,0,1-.18-.52,2.38,2.38,0,0,1,0-.29,1.81,1.81,0,0,1,.06-.29l1.29-6.12H62.12l-.19,1v-.13a.79.79,0,0,0-.35-.65,1.85,1.85,0,0,0-1.11-.26,3.43,3.43,0,0,0-1.43.29,4.1,4.1,0,0,0-1.16.79,5.41,5.41,0,0,0-.9,1.14A8,8,0,0,0,56.34,88,8.34,8.34,0,0,0,56,89.4a7.67,7.67,0,0,0-.12,1.32,4,4,0,0,0,.2,1.35,2.48,2.48,0,0,0,.54.9,2,2,0,0,0,.76.49,2.72,2.72,0,0,0,.9.15,2.59,2.59,0,0,0,.88-.15,3,3,0,0,0,.73-.38,3.81,3.81,0,0,0,.6-.54,5.23,5.23,0,0,0,.47-.61,2,2,0,0,0,.56,1.23,1.67,1.67,0,0,0,1.2.44,1.56,1.56,0,0,0,.61-.11,1.31,1.31,0,0,0,.46-.33,2.43,2.43,0,0,0,.37-.57q.17-.34.35-.81a.57.57,0,0,1-.18.06ZM60.9,90.27a2.49,2.49,0,0,1-.26.69,2.22,2.22,0,0,1-.38.5,1.55,1.55,0,0,1-.43.3,1,1,0,0,1-.43.1l-.28,0a.55.55,0,0,1-.29-.16,1.1,1.1,0,0,1-.23-.42,2.57,2.57,0,0,1-.1-.8,6.55,6.55,0,0,1,.08-1,8.93,8.93,0,0,1,.61-2.15,5.24,5.24,0,0,1,.5-.93,2.65,2.65,0,0,1,.62-.65,1.19,1.19,0,0,1,.72-.25.77.77,0,0,1,.36.07.68.68,0,0,1,.22.18.76.76,0,0,1,.15.43Z"/><path class="cls-2" d="M126,85.9l0-.1h-.12l0-.1h-.12l0-.1h-.12l0-.1h-.12l0-.1h-.12l0-.1h-.12l0-.1h-.12l0-.1h-.12l0-.1h-.12l0-.1H125l0-.1h-.12l0-.1h-.12l0-.1h-.12l0-.1h-.12l0-.1h-.12l0-.1h-.12l0-.1h-.12l0-.1h-.12l0-.1h-.12l0-.1h-.12l0-.1h-3.84l-.12.57h-.05l0-.1H120l0-.1h-.12l0-.1h-.12l0-.1h-.12l0-.1h-.12l0-.1H115.8l-.49,2.34-.05-.06,0,0-.06-.07,0,0-.06-.07,0,0-.06-.07,0,0-.06-.07,0,0-.06-.07,0,0-.06-.07,0,0-.06-.07,0,0-.06-.07,0,0-.06-.07,0,0-.06-.07,0,0-.06-.07,0,0-.06-.07,0,0-.06-.07,0,0-.06-.07,0,0-.06-.07,0,0-.06-.07,0,0-.06-.07,0,0-.06-.07a2.2,2.2,0,0,0-.61-.38l.4-1.89-.12,0,0-.11-.12,0,0-.11L113,82l0-.11-.12,0,0-.11-.12,0,0-.11-.12,0,0-.11-.12,0,0-.11-.12,0,0-.11-.12,0,0-.11-.12,0,0-.11-.12,0,0-.11-.12,0,0-.11-.12,0,0-.11L112,81l0-.11-.12,0,0-.11-.12,0,0-.11-.12,0,0-.11-.12,0,0-.11-.12,0,0-.11-.12,0,0-.11-.12,0,0-.11-3.93.53-1,4.47,0,0,0-.05-.06,0,0-.05-.06,0,0-.05-.06,0,0-.05-.06,0,0-.05-.06,0,0-.05-.06,0,0-.05-.06,0,0-.05a2.27,2.27,0,0,0-.83-.52,3.4,3.4,0,0,0-1.19-.18,4.44,4.44,0,0,0-1.88.38,5,5,0,0,0-1.42,1l-.11.12h-.07l0-.1h-.12l0-.1H100l0-.1h-.12l0-.1h-.12l0-.1h-.12l0-.1h-.12l0-.1h-.12l0-.1h-.12l0-.1h-.12l0-.1h-.12l0-.1h-.12l0-.1h-.12l0-.1H99l0-.1H95.16l0,.11A2.89,2.89,0,0,0,94,83.81a4,4,0,0,0-1.68.35,4.74,4.74,0,0,0-1.33.91,5.87,5.87,0,0,0-.49.54h0l-.06-.05,0,0-.06-.05,0,0-.06-.05,0,0-.06-.05,0,0L90,85.17l0,0L90,85.07l0,0L89.86,85l0,0-.06-.05,0,0-.06-.05,0,0-.06-.05,0,0-.06-.05,0,0-.06-.05,0,0a2.2,2.2,0,0,0-.83-.53,3.36,3.36,0,0,0-1.2-.18,4.52,4.52,0,0,0-1.89.38h0s0-.1,0-.15a3.65,3.65,0,0,0-.92-1.35l0,0-.06-.07,0,0-.06-.07,0,0-.06-.07,0,0-.06-.07,0,0L84,82.17l0,0-.06-.07,0,0L83.78,82l0,0-.06-.07,0,0-.06-.07,0,0-.06-.07,0,0-.06-.07,0,0-.06-.07,0,0-.06-.07,0,0-.06-.07,0,0L83,81.22l0,0-.06-.07,0,0L82.82,81l0,0-.06-.07,0,0-.06-.07,0,0-.06-.07,0,0-.06-.07a4.45,4.45,0,0,0-1.53-.91,6.14,6.14,0,0,0-2.11-.33,7.19,7.19,0,0,0-1.65.2,8.42,8.42,0,0,0-3,1.36A6.84,6.84,0,0,0,73,82a5,5,0,0,0-.81,1.25,3.46,3.46,0,0,0-.31,1.42,2.9,2.9,0,0,0,.17,1,1.87,1.87,0,0,0,.54.78h0l.07.08h0l.07.08h0l.07.08h0l.07.08h0l.08.08h0l.07.08h0l.07.08h0l.08.08h0l.07.08h0l.07.08h0l.07.08h0l.07.08h0l.08.08h0l.07.08h0l.07.08h0l.08.08h0l.07.08h0l.07.08h0l.07.08h0l.07.08h0l0,0L73.33,94.1h.12l0,.1h.12l0,.1h.12l0,.1h.12l0,.1h.12l0,.1h.12l0,.1H74l0,.1h.12l0,.1h.12l0,.1h.12l0,.1h.12l0,.1h.12l0,.1h.12l0,.1h.12l0,.1h.12l0,.1h.12l0,.1H75l0,.1h.12l0,.1h.12l0,.1h.12l0,.1h.12l0,.1h3.81L80.24,91a5.78,5.78,0,0,0,1.62-.34s0,.09,0,.13a4.34,4.34,0,0,0,.23,1.51,2.81,2.81,0,0,0,.72,1.12l0,0,.05.07,0,0,.05.07,0,0,.05.07,0,0,.05.07,0,0,.05.07,0,0,.05.07,0,0,.05.07,0,0,.05.07,0,0,.05.07,0,0,.05.07,0,0,.05.07,0,0,.05.07,0,0,.05.07,0,0,.05.07,0,0,.05.07,0,0,.05.07,0,0,.05.07,0,0,.05.07,0,0,.05.07,0,0,.05.07,0,0,.05.07a2.89,2.89,0,0,0,1.12.64,4.47,4.47,0,0,0,1.34.19,5.11,5.11,0,0,0,1.85-.33,6.05,6.05,0,0,0,1.5-.83c.14-.1.26-.22.39-.33l.05,0,0,.05.05,0,0,.05.05,0,0,.05.05,0,0,.05.05,0,0,.05.05,0,0,.05.05,0,0,.05a2.55,2.55,0,0,0,1,.64,3.3,3.3,0,0,0,1.09.18A3.19,3.19,0,0,0,94.85,96a3.6,3.6,0,0,0,.87-.46,4.07,4.07,0,0,0,.44-.37l0,0,0,0,0,.06,0,0,0,.06,0,0,0,.06,0,0,0,.06a2.31,2.31,0,0,0,1.62.58,4,4,0,0,0,.62-.05,3.42,3.42,0,0,0,.73-.2,3.85,3.85,0,0,0,.77-.42,3.81,3.81,0,0,0,.55-.47l0,0,0,0,.07.08,0,0,.07.08,0,0,.07.08a2.89,2.89,0,0,0,1.12.64,4.47,4.47,0,0,0,1.34.19,5.11,5.11,0,0,0,1.85-.33,6.22,6.22,0,0,0,.59-.26h.11l0,.1h.12l0,.1h.12l0,.1h.12l0,.1h.12l0,.1h3.82l.48-2.25.07.07,0,0L111,94l0,0,.08.07,0,0,.08.07,0,0,.08.07,0,0,.08.07,0,0,.08.07,0,0,.08.07,0,0,.08.07,0,0,.08.07,0,0,.08.07,0,0L112,95l0,0,.08.07,0,0,.08.07,0,0,.08.07,0,0,.08.07,0,0a2.34,2.34,0,0,0,.87.62,3.18,3.18,0,0,0,1.24.22,3.74,3.74,0,0,0,.69-.08,2.34,2.34,0,0,0,.24,1,2.61,2.61,0,0,0,.62.79h0l.08.08h0l.08.08h0l.08.08h0l.08.08h0l.08.08h0l.08.08h0l.08.08h0l.08.08h0l.08.08h0l.08.08h0l.08.08h0l.08.08h0l.08.08h0l.08.08h0l.08.08h0l.08.08h0l.08.08h0l.08.08h0l.08.08h0l.08.08h0l.08.08a2.78,2.78,0,0,0,.86.5,2.86,2.86,0,0,0,1,.18,4.87,4.87,0,0,0,1.07-.13,3.19,3.19,0,0,0,1.17-.55,4,4,0,0,0,1-1.1,5.31,5.31,0,0,0,.64-1.76l2.35-11.17ZM105.43,90l-.55.57a4,4,0,0,1-.57.46c0-.18.07-.36.12-.54a9.75,9.75,0,0,1,.36-1.07c.07-.16.13-.31.2-.46l.1.06v0l.11.07v0l.11.07v0l.11.07v0l.18.12Z"/><path class="cls-1" d="M83,83.54a3.67,3.67,0,0,0-.25-1.33A3,3,0,0,0,82,81.08a3.83,3.83,0,0,0-1.32-.79A5.53,5.53,0,0,0,78.8,80a6.56,6.56,0,0,0-1.52.18,7.82,7.82,0,0,0-2.77,1.26,6.21,6.21,0,0,0-1.06,1,4.37,4.37,0,0,0-.71,1.1,2.85,2.85,0,0,0-.26,1.18,2.33,2.33,0,0,0,.13.83A1.27,1.27,0,0,0,73,86a1.51,1.51,0,0,0,.6.29,3.34,3.34,0,0,0,.83.09.25.25,0,0,0,0-.12,1.37,1.37,0,0,1-.08-.2,2.33,2.33,0,0,1-.08-.34,3.09,3.09,0,0,1,0-.56,5,5,0,0,1,.32-1.84A3.7,3.7,0,0,1,75.39,82a4,4,0,0,1,1.46-.86,6,6,0,0,1,2-.3,2.44,2.44,0,0,1,1,.19,1.85,1.85,0,0,1,.7.53,2.26,2.26,0,0,1,.39.78,3.41,3.41,0,0,1,.13.95,4.83,4.83,0,0,1-.11,1,5.58,5.58,0,0,1-.78,1.89,4.13,4.13,0,0,1-.63.76,3.39,3.39,0,0,1-.76.54,2.25,2.25,0,0,1-.87.25l1.27-6L76.52,82,74.07,93.5h2.58l1.1-5.13h.1a5.21,5.21,0,0,0,3.81-1.55,4.88,4.88,0,0,0,1-1.55A4.5,4.5,0,0,0,83,83.54Z"/><path class="cls-1" d="M120.73,84.5l-1.22,5.77a5.05,5.05,0,0,1-.24.64,2.19,2.19,0,0,1-.32.51,1.4,1.4,0,0,1-.4.33,1,1,0,0,1-.48.12.47.47,0,0,1-.26-.07.49.49,0,0,1-.16-.18.81.81,0,0,1-.09-.25,1.62,1.62,0,0,1,0-.3,2,2,0,0,1,.05-.46l1.29-6.12h-2.59l-1.22,5.77c-.09.23-.19.45-.29.65a2.59,2.59,0,0,1-.32.51,1.29,1.29,0,0,1-.4.33,1.09,1.09,0,0,1-.51.11.66.66,0,0,1-.57-.21.9.9,0,0,1-.15-.54,3.08,3.08,0,0,1,.07-.59c0-.23.1-.47.16-.73l.21-.83c.07-.29.14-.58.21-.87s.12-.57.16-.85a5.12,5.12,0,0,0,.07-.78,2.56,2.56,0,0,0-.15-.92,1.59,1.59,0,0,0-1.05-1,2.69,2.69,0,0,0-.8-.11,3.14,3.14,0,0,0-.45,0,2.37,2.37,0,0,0-.51.14,2.67,2.67,0,0,0-.56.3,3.28,3.28,0,0,0-.58.52l1-4.54-2.66.36-1.92,9h0q-.34.38-.68.71a4.57,4.57,0,0,1-.72.58,3.38,3.38,0,0,1-.81.39,3.14,3.14,0,0,1-1,.14,2.16,2.16,0,0,1-.57-.07.86.86,0,0,1-.4-.23,1,1,0,0,1-.25-.46,2.77,2.77,0,0,1-.08-.75,7.11,7.11,0,0,1,.09-1.09,10.64,10.64,0,0,1,.26-1.17,10.3,10.3,0,0,1,.38-1.13,6.37,6.37,0,0,1,.48-1,3.06,3.06,0,0,1,.54-.68.84.84,0,0,1,.56-.25.41.41,0,0,1,.38.2,1,1,0,0,1,.12.54,3,3,0,0,1-.22,1.06,1.16,1.16,0,0,0,.63.21.89.89,0,0,0,.37-.08.82.82,0,0,0,.31-.25,1.27,1.27,0,0,0,.21-.41,2,2,0,0,0,.07-.58,2.11,2.11,0,0,0-.09-.6,1.26,1.26,0,0,0-.32-.53,1.67,1.67,0,0,0-.62-.38,2.84,2.84,0,0,0-1-.14,3.83,3.83,0,0,0-1.63.33,4.39,4.39,0,0,0-1.25.87,5.27,5.27,0,0,0-.91,1.22,8.25,8.25,0,0,0-.61,1.4,8.72,8.72,0,0,0-.34,1.39,8,8,0,0,0-.11,1.2c0,.05,0,.1,0,.15v0a2.48,2.48,0,0,1-.33.54,1.57,1.57,0,0,1-.41.36.92.92,0,0,1-.49.14q-.74,0-.74-.77a2.38,2.38,0,0,1,0-.29,1.81,1.81,0,0,1,.06-.29l1.29-6.12H95.65l-.19,1v-.13a.79.79,0,0,0-.35-.65A1.85,1.85,0,0,0,94,84.41a3.43,3.43,0,0,0-1.43.29,4.11,4.11,0,0,0-1.17.79,5.47,5.47,0,0,0-.9,1.14A8.07,8.07,0,0,0,89.87,88a8.34,8.34,0,0,0-.38,1.41,7.82,7.82,0,0,0-.11,1.12l-.45.47a4.57,4.57,0,0,1-.72.58,3.38,3.38,0,0,1-.81.39,3.14,3.14,0,0,1-1,.14,2.16,2.16,0,0,1-.57-.07.86.86,0,0,1-.4-.23,1,1,0,0,1-.25-.46,2.77,2.77,0,0,1-.08-.75c0-.11,0-.22,0-.34s0-.25,0-.38a4.9,4.9,0,0,0,1.56-.36A4.75,4.75,0,0,0,88,88.69,3.88,3.88,0,0,0,89,87.52a3.15,3.15,0,0,0,.34-1.45,2.49,2.49,0,0,0-.08-.65,1.27,1.27,0,0,0-.31-.55,1.6,1.6,0,0,0-.61-.38,2.83,2.83,0,0,0-1-.14,3.91,3.91,0,0,0-1.64.33,4.23,4.23,0,0,0-1.26.87,5.51,5.51,0,0,0-.91,1.23,7.88,7.88,0,0,0-.61,1.4,9.16,9.16,0,0,0-.33,1.39,7.87,7.87,0,0,0-.11,1.2,3.78,3.78,0,0,0,.2,1.3,2.21,2.21,0,0,0,.57.88,2.29,2.29,0,0,0,.89.5,3.87,3.87,0,0,0,1.16.16,4.5,4.5,0,0,0,1.63-.29,5.44,5.44,0,0,0,1.35-.75,6.55,6.55,0,0,0,1.1-1.06l.06-.09a3.21,3.21,0,0,0,.15.65,2.48,2.48,0,0,0,.54.9,2,2,0,0,0,.76.49,2.72,2.72,0,0,0,.9.15,2.57,2.57,0,0,0,.88-.15,3,3,0,0,0,.73-.38,3.61,3.61,0,0,0,.59-.53,7,7,0,0,0,.48-.6A1.92,1.92,0,0,0,95,93.19a1.72,1.72,0,0,0,1.22.42,3.55,3.55,0,0,0,.53,0,2.86,2.86,0,0,0,.61-.17A3.24,3.24,0,0,0,98,93a3.52,3.52,0,0,0,.66-.6A4.78,4.78,0,0,0,99,92s0,.06,0,.09a2.21,2.21,0,0,0,.57.88,2.29,2.29,0,0,0,.89.5,3.87,3.87,0,0,0,1.16.16,4.5,4.5,0,0,0,1.63-.29,5.44,5.44,0,0,0,1.35-.75,6.55,6.55,0,0,0,1.09-1l-.42,2h2.59l1.22-5.77a5.1,5.1,0,0,1,.25-.65,2.67,2.67,0,0,1,.32-.53,1.51,1.51,0,0,1,.39-.36.85.85,0,0,1,.46-.13q.65,0,.65.92a5.11,5.11,0,0,1-.13,1q-.13.6-.28,1.24t-.28,1.25a5.32,5.32,0,0,0-.13,1.07,2.59,2.59,0,0,0,.11.75,1.77,1.77,0,0,0,.36.65,1.73,1.73,0,0,0,.65.46,2.57,2.57,0,0,0,1,.17,3.29,3.29,0,0,0,.79-.11,2.36,2.36,0,0,0,.87-.45,4.22,4.22,0,0,0,.86-1,2.28,2.28,0,0,0,.09.36,1.84,1.84,0,0,0,.41.67,1.57,1.57,0,0,0,.61.39,2.27,2.27,0,0,0,.76.12,3.39,3.39,0,0,0,.5,0,2.53,2.53,0,0,0,.54-.15,2.76,2.76,0,0,0,.57-.31,3.22,3.22,0,0,0,.58-.54l-.18.79q-.65.19-1.22.4a4.19,4.19,0,0,0-1,.5A2.21,2.21,0,0,0,116,95a2.13,2.13,0,0,0-.24,1.06,1.74,1.74,0,0,0,.18.8,2,2,0,0,0,.47.61,2.16,2.16,0,0,0,.68.4,2.25,2.25,0,0,0,.79.14,4.2,4.2,0,0,0,.94-.12,2.57,2.57,0,0,0,.95-.45,3.36,3.36,0,0,0,.83-.93,4.72,4.72,0,0,0,.57-1.56l2.2-10.44ZM85.66,87.67a7.26,7.26,0,0,1,.51-1.19,3.82,3.82,0,0,1,.62-.86,1,1,0,0,1,.67-.33.35.35,0,0,1,.35.2,1.25,1.25,0,0,1,.1.54,2.84,2.84,0,0,1-.21,1.08,3.32,3.32,0,0,1-.58.93,3,3,0,0,1-.83.66,2.41,2.41,0,0,1-1,.29A10.38,10.38,0,0,1,85.66,87.67Zm8.77,2.61a2.49,2.49,0,0,1-.26.69,2.22,2.22,0,0,1-.38.5,1.55,1.55,0,0,1-.43.3,1,1,0,0,1-.43.1l-.28,0a.54.54,0,0,1-.29-.16,1.07,1.07,0,0,1-.23-.42,2.57,2.57,0,0,1-.1-.8,6.55,6.55,0,0,1,.08-1,9.05,9.05,0,0,1,.61-2.15,5.24,5.24,0,0,1,.5-.93,2.65,2.65,0,0,1,.62-.65,1.19,1.19,0,0,1,.72-.25.77.77,0,0,1,.36.07.68.68,0,0,1,.22.18.76.76,0,0,1,.15.43ZM118.52,95a3.43,3.43,0,0,1-.21.68,1.7,1.7,0,0,1-.27.44.86.86,0,0,1-.3.23.71.71,0,0,1-.29.07.74.74,0,0,1-.29-.06.94.94,0,0,1-.23-.14.62.62,0,0,1-.15-.19.47.47,0,0,1-.05-.21,1.33,1.33,0,0,1,.15-.65,1.71,1.71,0,0,1,.42-.51,3,3,0,0,1,.64-.4,7.14,7.14,0,0,1,.79-.32Z"/><path class="cls-3" d="M140.14,80,139,85.4h-2.65L137.5,80l-.35,0h-.37a6.5,6.5,0,0,0-1.51.18,7.94,7.94,0,0,0-1.46.5,7.72,7.72,0,0,0-1.31.76,6.07,6.07,0,0,0-1.06,1,4.47,4.47,0,0,0-.71,1.1,2.86,2.86,0,0,0-.26,1.18,2.41,2.41,0,0,0,.12.83A1.22,1.22,0,0,0,131,86a1.54,1.54,0,0,0,.61.29,3.34,3.34,0,0,0,.83.09.27.27,0,0,0,0-.12,1.3,1.3,0,0,1-.09-.2,1.87,1.87,0,0,1-.09-.34,3.09,3.09,0,0,1,0-.56,4.32,4.32,0,0,1,.66-2.45,4,4,0,0,1,1.86-1.5L132,93.5h2.59l1.44-6.77h2.65l-1.44,6.77h2.59L142.74,80Z"/><path class="cls-3" d="M180.58,84.62a1,1,0,0,0-.89-.48,1.13,1.13,0,0,0-.85.28,1,1,0,0,0-.27.7,1.3,1.3,0,0,0,0,.32.93.93,0,0,0,.12.29.71.71,0,0,0,.21.21.49.49,0,0,0,.28.08h.14l.18,0,.16-.06a.17.17,0,0,0,.09-.08,6.83,6.83,0,0,1-.11,1.13,11.48,11.48,0,0,1-.31,1.31,11,11,0,0,1-.48,1.31,7.16,7.16,0,0,1-.62,1.15,3.42,3.42,0,0,1-.75.81,1.38,1.38,0,0,1-.84.31.6.6,0,0,1-.47-.16.63.63,0,0,1-.14-.43,3.26,3.26,0,0,1,.1-.65l1.29-6.12h-2.59l-1.22,5.77a5.05,5.05,0,0,1-.24.64,2.19,2.19,0,0,1-.32.51,1.4,1.4,0,0,1-.4.33,1,1,0,0,1-.48.12.47.47,0,0,1-.26-.07.49.49,0,0,1-.16-.18.81.81,0,0,1-.09-.25,1.62,1.62,0,0,1,0-.3,2,2,0,0,1,.05-.46L173,84.5h-2.59l-.51,2.41h0a5.65,5.65,0,0,1-.73.24,2.78,2.78,0,0,1-.68.09h-.11l-.08,0v0q0-2.87-2.31-2.87a3.91,3.91,0,0,0-1.64.33,4.46,4.46,0,0,0-1.27.87,5.37,5.37,0,0,0-.93,1.22,8.28,8.28,0,0,0-.62,1.39,8.54,8.54,0,0,0-.35,1.38,7.54,7.54,0,0,0-.11,1.2s0,.08,0,.12l0,.06a2.35,2.35,0,0,1-.38.51,1.64,1.64,0,0,1-.46.33,1.18,1.18,0,0,1-.51.12.86.86,0,0,1-.55-.15.65.65,0,0,1-.18-.52c0-.09,0-.19,0-.29a1.61,1.61,0,0,1,.06-.29l2.07-9.72-2.66.36-1.92,9a3.18,3.18,0,0,1-.27.64,2.35,2.35,0,0,1-.38.51,1.64,1.64,0,0,1-.46.33,1.18,1.18,0,0,1-.51.12.86.86,0,0,1-.55-.15.65.65,0,0,1-.18-.52c0-.09,0-.19,0-.29a1.61,1.61,0,0,1,.06-.29l2.07-9.72-2.66.36-1.92,9a4.68,4.68,0,0,1-.24.65,2.48,2.48,0,0,1-.33.54,1.57,1.57,0,0,1-.41.36.92.92,0,0,1-.49.14q-.74,0-.74-.77a2.38,2.38,0,0,1,0-.29,1.81,1.81,0,0,1,.06-.29l1.29-6.12h-2.59l-.19,1v-.13a.79.79,0,0,0-.35-.65,1.85,1.85,0,0,0-1.11-.26,3.43,3.43,0,0,0-1.43.29,4.11,4.11,0,0,0-1.17.79,5.47,5.47,0,0,0-.9,1.14,8.07,8.07,0,0,0-.64,1.35,8.34,8.34,0,0,0-.38,1.41,7.67,7.67,0,0,0-.12,1.32,4,4,0,0,0,.2,1.35,2.48,2.48,0,0,0,.54.9,2,2,0,0,0,.76.49,2.72,2.72,0,0,0,.9.15,2.57,2.57,0,0,0,.88-.15,3,3,0,0,0,.73-.38,3.61,3.61,0,0,0,.59-.53,7,7,0,0,0,.48-.6,1.92,1.92,0,0,0,.55,1.23,1.72,1.72,0,0,0,1.22.42,3.55,3.55,0,0,0,.53,0,2.86,2.86,0,0,0,.61-.17,3.24,3.24,0,0,0,.65-.35,3.52,3.52,0,0,0,.66-.6,4.64,4.64,0,0,0,.32-.43,2.28,2.28,0,0,0,.1.41,1.84,1.84,0,0,0,.41.67,1.57,1.57,0,0,0,.61.39,2.27,2.27,0,0,0,.76.12,3.8,3.8,0,0,0,.54,0,3.15,3.15,0,0,0,.64-.17,3.52,3.52,0,0,0,1.38-.95,4.58,4.58,0,0,0,.36-.46,2.29,2.29,0,0,0,.11.44,1.84,1.84,0,0,0,.41.67,1.57,1.57,0,0,0,.61.39,2.27,2.27,0,0,0,.76.12,3.8,3.8,0,0,0,.54,0,3.15,3.15,0,0,0,.64-.17,3.52,3.52,0,0,0,1.38-.95,4.68,4.68,0,0,0,.39-.51s0,.07,0,.11a2.25,2.25,0,0,0,.6.88,2.32,2.32,0,0,0,.91.49,4.14,4.14,0,0,0,1.16.15,3.39,3.39,0,0,0,1.56-.38,4.08,4.08,0,0,0,1.31-1.08,6,6,0,0,0,.95-1.71,8.51,8.51,0,0,0,.48-2.25,7.25,7.25,0,0,0,1.52-.44l-.54,2.55q-.07.34-.11.64a4.59,4.59,0,0,0,0,.54,2.82,2.82,0,0,0,.15,1,1.84,1.84,0,0,0,.41.67,1.57,1.57,0,0,0,.61.39,2.27,2.27,0,0,0,.76.12,3.47,3.47,0,0,0,.58-.05,2.35,2.35,0,0,0,.64-.22,3.28,3.28,0,0,0,.67-.46,3.76,3.76,0,0,0,.67-.79,1.72,1.72,0,0,0,.72,1.14,2.53,2.53,0,0,0,1.44.37,3.51,3.51,0,0,0,1.65-.39,4.64,4.64,0,0,0,1.31-1,6.55,6.55,0,0,0,1-1.46,11.15,11.15,0,0,0,.68-1.7,11.55,11.55,0,0,0,.39-1.75,11.34,11.34,0,0,0,.12-1.59,2.91,2.91,0,0,0-.06-.58A1.57,1.57,0,0,0,180.58,84.62ZM147,90.27a2.49,2.49,0,0,1-.26.69,2.22,2.22,0,0,1-.38.5,1.55,1.55,0,0,1-.43.3,1,1,0,0,1-.43.1l-.28,0a.54.54,0,0,1-.29-.16,1.07,1.07,0,0,1-.23-.42,2.57,2.57,0,0,1-.1-.8,6.55,6.55,0,0,1,.08-1,9.05,9.05,0,0,1,.61-2.15,5.24,5.24,0,0,1,.5-.93,2.65,2.65,0,0,1,.62-.65,1.19,1.19,0,0,1,.72-.25.77.77,0,0,1,.36.07.68.68,0,0,1,.22.18.76.76,0,0,1,.15.43Zm19.36-3.44a1.14,1.14,0,0,0-.15.62,1.07,1.07,0,0,0,.1.48.54.54,0,0,0,.38.28,8.91,8.91,0,0,1-.32,1.48,6.32,6.32,0,0,1-.5,1.19,3,3,0,0,1-.61.79,1,1,0,0,1-.66.29,1.31,1.31,0,0,1-.43-.06.56.56,0,0,1-.29-.22,1.1,1.1,0,0,1-.16-.44,4.35,4.35,0,0,1,0-.73,6.37,6.37,0,0,1,.09-1,9.85,9.85,0,0,1,.25-1.11,9.13,9.13,0,0,1,.38-1.09,5.88,5.88,0,0,1,.49-.94,2.94,2.94,0,0,1,.57-.66,1,1,0,0,1,.62-.25.76.76,0,0,1,.3.05.45.45,0,0,1,.2.18,1,1,0,0,1,.12.33,3.19,3.19,0,0,1,.06.49A.92.92,0,0,0,166.4,86.83Z"/><path class="cls-3" d="M202.49,91.87a.66.66,0,0,1-.57-.21.9.9,0,0,1-.15-.54,3.08,3.08,0,0,1,.07-.59c0-.23.1-.47.16-.73l.21-.83c.07-.29.14-.58.21-.87s.12-.57.16-.85a5.12,5.12,0,0,0,.07-.78,2.56,2.56,0,0,0-.15-.92,1.59,1.59,0,0,0-1.05-1,2.69,2.69,0,0,0-.8-.11,3.14,3.14,0,0,0-.45,0,2.37,2.37,0,0,0-.51.14,2.67,2.67,0,0,0-.56.3,3.28,3.28,0,0,0-.58.52l.19-.93h-2.59l-1.22,5.78q-.34.38-.68.71a4.57,4.57,0,0,1-.72.58,3.38,3.38,0,0,1-.81.39,3.14,3.14,0,0,1-1,.14,2.16,2.16,0,0,1-.57-.07.86.86,0,0,1-.4-.23,1,1,0,0,1-.25-.46,2.77,2.77,0,0,1-.08-.75c0-.11,0-.22,0-.34s0-.25,0-.38A4.9,4.9,0,0,0,192,89.5a4.75,4.75,0,0,0,1.32-.81,3.88,3.88,0,0,0,.92-1.17,3.15,3.15,0,0,0,.34-1.45,2.49,2.49,0,0,0-.08-.65,1.27,1.27,0,0,0-.31-.55,1.6,1.6,0,0,0-.61-.38,2.83,2.83,0,0,0-1-.14,3.91,3.91,0,0,0-1.64.33,4.23,4.23,0,0,0-1.26.87,5.51,5.51,0,0,0-.91,1.23,7.88,7.88,0,0,0-.61,1.4,9.16,9.16,0,0,0-.33,1.39,8.33,8.33,0,0,0-.09,1l-.46.48a4.57,4.57,0,0,1-.72.58,3.38,3.38,0,0,1-.81.39,3.14,3.14,0,0,1-1,.14,2.16,2.16,0,0,1-.57-.07.86.86,0,0,1-.4-.23,1,1,0,0,1-.25-.46,2.77,2.77,0,0,1-.08-.75c0-.11,0-.22,0-.34s0-.25,0-.38a4.9,4.9,0,0,0,1.56-.36,4.75,4.75,0,0,0,1.32-.81,3.88,3.88,0,0,0,.92-1.17,3.15,3.15,0,0,0,.34-1.45,2.49,2.49,0,0,0-.08-.65,1.27,1.27,0,0,0-.31-.55,1.6,1.6,0,0,0-.61-.38,2.83,2.83,0,0,0-1-.14,3.91,3.91,0,0,0-1.64.33,4.23,4.23,0,0,0-1.26.87,5.51,5.51,0,0,0-.91,1.23,7.88,7.88,0,0,0-.61,1.4,9.16,9.16,0,0,0-.33,1.39,7.87,7.87,0,0,0-.11,1.2,3.78,3.78,0,0,0,.2,1.3,2.21,2.21,0,0,0,.57.88,2.29,2.29,0,0,0,.89.5,3.87,3.87,0,0,0,1.16.16,4.5,4.5,0,0,0,1.63-.29,5.44,5.44,0,0,0,1.35-.75,6.55,6.55,0,0,0,1.1-1.06l.06-.08a3.1,3.1,0,0,0,.15.63,2.21,2.21,0,0,0,.57.88,2.29,2.29,0,0,0,.89.5,3.87,3.87,0,0,0,1.16.16,4.5,4.5,0,0,0,1.63-.29,5.44,5.44,0,0,0,1.35-.75,6.55,6.55,0,0,0,1.08-1l-.42,2h2.59L198,87.73a5.1,5.1,0,0,1,.25-.65,2.67,2.67,0,0,1,.32-.53,1.51,1.51,0,0,1,.39-.36.85.85,0,0,1,.46-.13q.65,0,.65.92a5.11,5.11,0,0,1-.13,1q-.13.6-.28,1.24t-.28,1.25a5.32,5.32,0,0,0-.13,1.07,3.19,3.19,0,0,0,.09.75,1.79,1.79,0,0,0,.3.65,1.5,1.5,0,0,0,.56.46,2,2,0,0,0,.87.17,2.26,2.26,0,0,0,.69-.11,1.67,1.67,0,0,0,.6-.33,2,2,0,0,0,.45-.58,2.42,2.42,0,0,0,.25-.84A1.07,1.07,0,0,1,202.49,91.87ZM191,87.67a7.26,7.26,0,0,1,.51-1.19,3.82,3.82,0,0,1,.62-.86,1,1,0,0,1,.67-.33.35.35,0,0,1,.35.2,1.25,1.25,0,0,1,.1.54,2.84,2.84,0,0,1-.21,1.08,3.32,3.32,0,0,1-.58.93,3,3,0,0,1-.83.66,2.41,2.41,0,0,1-1,.29A10.38,10.38,0,0,1,191,87.67Zm-6.91,0a7.26,7.26,0,0,1,.51-1.19,3.82,3.82,0,0,1,.62-.86,1,1,0,0,1,.67-.33.35.35,0,0,1,.35.2,1.25,1.25,0,0,1,.1.54,2.84,2.84,0,0,1-.21,1.08,3.32,3.32,0,0,1-.58.93,3,3,0,0,1-.83.66,2.41,2.41,0,0,1-1,.29A10.38,10.38,0,0,1,184.07,87.67Z"/><path class="cls-2" d="M64.44,18.1c-3.85-4.55-12.84-7.81-20.21-6l2,10.36L52.37,24c-1.24.09-5.68-3.28-6-5.81-1.81-14.88-16.2-9.69-23.56-4.51C10.94,22.06,9.47,35.94,14.31,50.59,17.07,59,29.41,69.11,40.58,67.41,72.74,62.52,75.41,31,64.44,18.1Z"/><path class="cls-20" d="M43.94,11.49c-4.85-6.1-15.23-2-21.11,2.19C10.94,22.06,9.47,35.94,14.31,50.59,17.07,59,29.41,69.11,40.58,67.41,72.74,62.52,75.41,31,64.44,18.1c-3.85-4.55-12.84-7.81-20.21-6"/><path class="cls-21" d="M27.61,52.2c5.89,10.3,12.89,11.3,22,3.75"/><path class="cls-4" d="M52.37,24c-6.87-3.5-6.26-7.86-8-12"/><path class="cls-10" d="M51.06,14.81c-.45.23-2.9,1.83-4.52,2.89L50,22.38C51.25,20.89,55,17,54.9,15.87,54.8,14.54,51.74,14.47,51.06,14.81Z"/><path class="cls-3" d="M34.5,31.62A4.2,4.2,0,0,1,26.26,30"/><path class="cls-3" d="M64.18,33.49a4.2,4.2,0,0,1-8.37-.72"/><path class="cls-21" d="M25.66,35.49c4.67.77,9.26-3.42,9.26-3.42L17.8,29.36S21,34.72,25.66,35.49Z"/><path class="cls-21" d="M55.9,37.91c4.72.37,8.91-3.83,8.91-3.83L47.55,32.71S51.18,37.53,55.9,37.91Z"/><path class="cls-10" d="M27.19,26.26c-4.67-.77-9.39,3.1-9.39,3.1l17.12,2.71S31.86,27,27.19,26.26Z"/><path class="cls-10" d="M56.64,28.58c-4.72-.37-9.09,4.13-9.09,4.13l17.26,1.37S61.37,29,56.64,28.58Z"/><path class="cls-21" d="M17.8,29.36l17.12,2.71s2.12.63,2.42,1.24c1.39,2.81-4.14,9.86-2.23,12.34,1.52,2,8.13,2.5,10,.79,2.28-2.15-2-9.9-.26-12.54.41-.63,2.75-1.19,2.75-1.19l17.26,1.37"/><path class="cls-22" d="M35.69,50.14a3.9,3.9,0,0,1,3.39,2.68c1.15-1.33,3.35-2.05,4.52-1.47,1.79.89,2.9,3.15,6,4.59-6.14,2.56-18.14.56-22-3.75C31.5,51.5,33.55,50.14,35.69,50.14Z"/><line class="cls-4" x1="19.67" y1="27.33" x2="18.5" y2="25.94"/><line class="cls-4" x1="23.97" y1="27" x2="22.72" y2="24.06"/><line class="cls-4" x1="29.8" y1="26.96" x2="31.18" y2="24.73"/><line class="cls-4" x1="32.27" y1="29.48" x2="35.1" y2="27.88"/><line class="cls-4" x1="27.04" y1="26.24" x2="26.79" y2="23.38"/><line class="cls-4" x1="62.59" y1="31.92" x2="65.05" y2="29.81"/><line class="cls-4" x1="59.47" y1="30" x2="61.17" y2="27.29"/><line class="cls-4" x1="52.73" y1="28.96" x2="51.71" y2="26.54"/><line class="cls-4" x1="49.89" y1="31.06" x2="47.34" y2="29.03"/><line class="cls-4" x1="56.56" y1="28.76" x2="56.26" y2="25.9"/><path class="cls-21" d="M49.64,55.95A6.73,6.73,0,0,0,54,53"/><path class="cls-21" d="M27.61,52.2a5.61,5.61,0,0,1-3.11-3.7"/><line class="cls-4" x1="49.49" y1="43.58" x2="60.59" y2="44.23"/><line class="cls-4" x1="51.43" y1="47.43" x2="58.98" y2="47.93"/><line class="cls-4" x1="30.05" y1="42.23" x2="19.19" y2="39.82"/><line class="cls-4" x1="27.14" y1="45.4" x2="19.73" y2="43.82"/></svg>