<svg id="Layer_1" data-name="Layer 1" xmlns="http://www.w3.org/2000/svg" viewBox="0 0 158 158"><defs><style>.cls-1{fill:#ffb380;}.cls-16,.cls-2{fill:#f76234;}.cls-10,.cls-14,.cls-3,.cls-5,.cls-7,.cls-8{fill:none;}.cls-12,.cls-13,.cls-16,.cls-3,.cls-4,.cls-5{stroke:#f76234;}.cls-12,.cls-13,.cls-15,.cls-3,.cls-4,.cls-7{stroke-linecap:round;stroke-linejoin:round;}.cls-4{fill:#ffe783;}.cls-10,.cls-14,.cls-16,.cls-5,.cls-8{stroke-miterlimit:10;}.cls-6{fill:#ff9852;}.cls-10,.cls-7{stroke:#f9cb4b;}.cls-8{stroke:#ff9852;}.cls-9{fill:#0e9100;}.cls-11,.cls-13{fill:#fbb03b;}.cls-12{fill:#f9cb4b;}.cls-14{stroke:#fbb03b;}.cls-15{fill:#f7eed7;stroke:#0e9100;}</style></defs><title>peaches_preview</title><path class="cls-1" d="M101.25,88.39c-6.77,2.71-23,12.39-15.93,33.62,10.29,30.86,49.55,26.54,58.4,0,3-9,1.77-30.08-14.16-37.16C116.53,79.06,110.1,84.85,101.25,88.39Z"/><path class="cls-2" d="M105.86,96.69c-1.1-1.13-4.13-3.94-4.61-6.16s.47-7.91,3.13-5.27c.79.79,5.47,4.76,6.72,6.43"/><path class="cls-3" d="M94,98c2.54.6,9.88.34,12.87-2.25,4.83-4.17,6.15-7.9,14.93-9"/><circle class="cls-2" cx="102.6" cy="112.75" r="3.54"/><circle class="cls-2" cx="126.91" cy="112.28" r="3.54"/><path class="cls-4" d="M126.91,100.78c-3.42,0-6.19,5.15-6.19,11.5H133.1C133.1,105.93,130.33,100.78,126.91,100.78Z"/><path class="cls-4" d="M102.6,101.25c-3.42,0-6.19,5.15-6.19,11.5H108.8C108.8,106.4,106,101.25,102.6,101.25Z"/><line class="cls-3" x1="132.27" y1="106.53" x2="137.53" y2="101.66"/><line class="cls-3" x1="133.1" y1="108.74" x2="140.18" y2="106.09"/><line class="cls-3" x1="133.1" y1="111.4" x2="139.29" y2="111.4"/><line class="cls-3" x1="96.95" y1="107" x2="91.7" y2="102.13"/><line class="cls-3" x1="96.12" y1="109.21" x2="89.04" y2="106.56"/><line class="cls-3" x1="96.12" y1="111.86" x2="89.93" y2="111.86"/><path class="cls-4" d="M120.59,125.89l-11.17-.09s2.22-14.37,5.71-14.35"/><ellipse class="cls-3" cx="114.98" cy="133.1" rx="10.47" ry="3.74"/><circle class="cls-3" cx="97.88" cy="126" r="5.21"/><circle class="cls-3" cx="131.72" cy="124.7" r="5.21"/><circle class="cls-2" cx="98.53" cy="126.65" r="1.3"/><circle class="cls-2" cx="132.37" cy="125.35" r="1.3"/><line class="cls-5" x1="108.8" y1="136.11" x2="109.55" y2="129.9"/><line class="cls-5" x1="112.84" y1="129.44" x2="112.84" y2="136.11"/><line class="cls-5" x1="117.11" y1="129.44" x2="117.11" y2="136.11"/><line class="cls-5" x1="120.4" y1="129.9" x2="121.16" y2="136.11"/><path class="cls-6" d="M13.41,119.86c3.53,23,21,24.14,31.79,23,13.6-1.49,29.88-16.6,25.32-35.32C66.78,92.1,55.25,84.23,34.6,88.07,27.39,89.41,10,97.83,13.41,119.86Z"/><path class="cls-3" d="M35.08,93.36c1.69,2.57,9.51,5,12,3.7,3.65-1.94,3.5-4.66,8.16-4.66"/><path class="cls-2" d="M45,96.93a6.2,6.2,0,0,0-.33-3A2,2,0,0,0,42,93.79a4.27,4.27,0,0,0-1.35,2.53"/><path class="cls-7" d="M13.49,115.32c7.94,1.56,13.77-21.77,24.27-3.11,1.81,3.21-3.5,10.5-3.49,12.47,0,2.92,9.32,3.85,11.38,1.51,2.31-2.62-1.95-9.65-.33-13,9.93-20.78,15.76,6,25.25.84"/><path class="cls-8" d="M13.41,119.86c3.53,23,21,24.14,31.79,23,13.6-1.49,29.88-16.6,25.32-35.32C66.78,92.1,55.25,84.23,34.6,88.07,27.39,89.41,10,97.83,13.41,119.86Z"/><path class="cls-9" d="M29.94,92.79c-5.94,2.34-13,.58-16.8-3.4,3.8-3.09,4.89-5.34,8-5.86,1.87-.32,9.19-1.27,10.74-.18,3.23,2.27,9.76,7.77,9.17,10.3S33.43,91.42,29.94,92.79Z"/><circle class="cls-2" cx="30.76" cy="114.55" r="2.33"/><circle class="cls-2" cx="51.17" cy="115.13" r="2.33"/><path class="cls-2" d="M31.06,130.32c-.39,2.09,2.63,4.41,6.75,5.17s7.77-.32,8.16-2.41Z"/><path class="cls-10" d="M35.51,121.57c3.41,0,2.24,3.67,1.74,5.23"/><path class="cls-10" d="M45.84,121.73c-3.43,1-4.59,2.15-3.6,5.34"/><path class="cls-7" d="M37.67,130.16a5.45,5.45,0,0,0,2.48.42"/><path class="cls-7" d="M35.07,138.26c1.52-1.55,5-.39,5.44,1"/><path class="cls-7" d="M27.39,111.83a3.46,3.46,0,0,0-1.06,4.65"/><path class="cls-7" d="M55.39,112.92a3.46,3.46,0,0,1,.28,4.77"/><path class="cls-11" d="M14.16,45.16C17.83,74.69,51,74.2,63.24,65c11.59-8.7,13.53-40.58-7.13-49.51-9.24-4-20.26-1.38-24.41,0C28.78,16.5,11.17,21.19,14.16,45.16Z"/><path class="cls-2" d="M39.53,23.82s1.2-5.44,1.24-5.66c.15-1,2.35-.68,2.8-.33,1.31,1,.35,3.46,1.59,4.56"/><path class="cls-3" d="M28.84,20.74c6.87-2.29,9.38,3.41,10.76,3.37,1.78-.06,6.83-2.82,9.59-2.82"/><path class="cls-12" d="M22.66,62.62c2.29-10.3,15.34-18,20-20.31,3.21,1.11,21.88,7.06,25.1,16.9"/><circle class="cls-13" cx="44.77" cy="59.34" r="4.15"/><path class="cls-2" d="M42.44,42.67c3.74-.14,4.84,8.78,4.84,8.78l-9.12.33S38.17,42.83,42.44,42.67Z"/><path class="cls-3" d="M42.36,65.51c2.25,1.82,7.72.15,8.94-2.48"/><path class="cls-3" d="M23.72,36.35a8.64,8.64,0,0,0,6.56,4.25,9.1,9.1,0,0,0,7.26-3.29"/><line class="cls-3" x1="25.56" y1="29.76" x2="36.71" y2="32.32"/><path class="cls-3" d="M59.76,36.35A8.64,8.64,0,0,1,53.2,40.6a9.1,9.1,0,0,1-7.26-3.29"/><line class="cls-3" x1="57.92" y1="29.76" x2="46.77" y2="32.32"/><path class="cls-9" d="M55.67,19.32c-2.5-1.88-6.07-3.58-7.32-2.17-2.52,2.83,9.15,18,2.53,28,5.23-.31,11.74-9.06,11.58-13.95C62.33,27.21,56.23,19.74,55.67,19.32Z"/><path class="cls-12" d="M20.05,53.49l8.08-8.72s-8-3.63-9.76-1.91S20.05,53.49,20.05,53.49Z"/><path class="cls-12" d="M59.12,42.6l8.59,8.22s3.09-9,1-10.71C66.86,38.5,59.12,42.6,59.12,42.6Z"/><path class="cls-14" d="M14.16,45.16C17.83,74.69,51,74.2,63.24,65c11.59-8.7,13.53-40.58-7.13-49.51-9.24-4-20.26-1.38-24.41,0C28.78,16.5,11.17,21.19,14.16,45.16Z"/><line class="cls-15" x1="45.83" y1="19.98" x2="48.83" y2="17.38"/><path class="cls-6" d="M143.36,47.59C138.51,68.9,122.17,72,111.28,70.76,97.55,69.26,81.13,54,85.72,35.11,89.5,19.58,101.14,11.63,122,15.51,129.26,16.86,148.35,25.65,143.36,47.59Z"/><path class="cls-3" d="M123.51,17.81c-2.16,7.69-11.76,9.35-14.14,7.77-3.16-2.1-3.16-5.13-8.24-3.7"/><path class="cls-16" d="M111.83,25.87c-.2-1.24-.29-3.73,0-4.34.55-1,1.86-.84,2.71.11a8.54,8.54,0,0,1,1.66,3.8"/><path class="cls-9" d="M126.67,19.26c6,2.36,12.85-.82,14.94-5.45.59-1.31-5-5.27-8-5.92-12.23-2.58-18.67,10.68-18.08,13.24S123.16,17.87,126.67,19.26Z"/><path class="cls-12" d="M92.09,36.61c-1-4,11.1-7.07,20.19-1,9.08-6.06,22.2-3,21.2,1-6.06,0-21.2,3-21.2,3s9.35,11.76,7.07,15.14c-1.84,2.72-11.2,2.66-13.12,0-2.33-3.24,6.06-15.14,6.06-15.14S96.12,35.6,92.09,36.61Z"/><circle class="cls-2" cx="100.16" cy="47.51" r="2.52"/><circle class="cls-2" cx="124.38" cy="47.71" r="2.52"/><path class="cls-3" d="M104.2,45.19c0,2.51-1.58,4.54-3.53,4.54s-3.53-2-3.53-4.54,1.58-5.55,3.53-5.55"/><path class="cls-3" d="M128.42,45.39c0,2.51-1.58,4.54-3.53,4.54s-3.53-2-3.53-4.54,1.58-5.55,3.53-5.55"/><path class="cls-2" d="M109.52,54.31A2,2,0,0,0,107,55.7l3.88,1.1A2,2,0,0,0,109.52,54.31Z"/><path class="cls-2" d="M115.56,54.31a2,2,0,0,1,2.49,1.39l-3.88,1.1A2,2,0,0,1,115.56,54.31Z"/><path class="cls-3" d="M109.24,64.87c0-5.39,21.2-4,21.2-4"/><path class="cls-12" d="M121.7,60.24a4.12,4.12,0,0,1-1.08-1.83c-.27-2.46,3.77-3.65,5.92-1.65a6.82,6.82,0,0,1,1.63,3.13"/><path class="cls-3" d="M123.67,58.29a14.6,14.6,0,0,0,1.1,2.22"/><path class="cls-7" d="M89.37,40.84a41.84,41.84,0,0,0,4.93,2.23"/><line class="cls-7" x1="89.47" y1="47.21" x2="94.27" y2="46.44"/><line class="cls-7" x1="95.24" y1="49.41" x2="92.26" y2="51.75"/><path class="cls-7" d="M136.62,40.84a41.84,41.84,0,0,1-4.93,2.23"/><line class="cls-7" x1="136.52" y1="47.21" x2="131.73" y2="46.44"/><line class="cls-7" x1="130.75" y1="49.41" x2="133.74" y2="51.75"/></svg>