<svg id="Layer_1" data-name="Layer 1" xmlns="http://www.w3.org/2000/svg" viewBox="0 0 400 400"><defs><style>.cls-1{fill:#d6bfa7;}.cls-2{fill:#f4e6d3;}.cls-3{fill:#f7931e;}.cls-4,.cls-7{fill:#754c24;}.cls-5{fill:none;}.cls-6{fill:#f4b3b3;}.cls-7{font-size:62.27px;font-family:AmaticSC-Bold, Amatic SC;font-weight:700;}</style></defs><title>proud_pig2</title><rect class="cls-1" x="-0.32" width="400" height="400"/><path class="cls-2" d="M323.79,158.32l-.14.07c0-16.53-3.35-32.91-14.3-39,.1-11.28-4.12-16.43-8.36-21.47,2-.51,4.74-2.37,6.3-3.52,3.14,1.61,5.62,3,7.95,3.07l.59-.21c1.06-6.34,19-8.45-2.32-16.17l0,.18c-5.73-13-20.66-21.75-28.34-21-35.92-39.09-89.42-43.87-123.25.49C127,76.42,71.09,112.12,76.69,188.29,81.23,250,132,252.59,132,252.59c27.47,12.68,107.59,17.68,132.36,6.12,6.75-3.15,11.83-9.18,18.67-8.48,12.72,1.3,23,1.09,28.15-5.25C326.4,226.17,333.86,199.31,323.79,158.32Z"/><path class="cls-3" d="M229.19,204.2c6.82-2.89,15.9-2.6,14,.25C238,212.31,228,214.31,214.32,214c-11.48,2.49-12.31,13.3-21.07,16.89-20,2.4-24-20.29-27.17-25.09-4.16-6.24-8.7,2.32-14.39,13.63-30.52-18.67-2.8-51.33-6.94-67.2-6-23.15,6.13-42,2.67-48.26-17.48,1.71-18.2,101.71-26.26,88C91.91,142.26,127,76.42,161.95,60.81c33.83-44.36,87.34-39.58,123.25-.49,10.56-1.06,34.86,15.85,30,37.19-4.69-.21-10-5.49-20-7.68,4.76,9.58,14.26,12.75,14.11,29.6C328.52,130,324.29,172.3,320,191.57c-13.71,23-21.11,38.83-38,49.39,9.51-18-3.46-31.43.63-39,12-22.28-5.42-16.09-3.92-20.25,11.19-31.17-15.16-77.49-17.55-95.87-8-15.18-40-36-27.17-16.78,7.86,11.78-8.8,21.2-12.79,28,4,15.18,7.19,20.78-11.19,46.35-6.89,9.58-1.6,22.38,7.19,24-3.22,8.94-17.45,11.77-15.18,24.58C204.44,205.54,219,208.5,229.19,204.2Z"/><path class="cls-4" d="M288.3,118.38c.31,2.15,1,6.62.4,9.72-.79,4-3.94,5.06-5.34,4.54-1.68-.63-3.68-2.63-8.08-12.16-1.82-3.95-2.73-18.41,3.28-17.25C282.68,104,286.84,108.33,288.3,118.38Z"/><path class="cls-4" d="M211.52,119.57c-.53,8.81-9.43,13.35-15,11.95s-7.26-8.49-5.09-17,4.58-11.16,12.94-11.95C210.08,102,212,111.31,211.52,119.57Z"/><path class="cls-4" d="M196.56,83.84a1,1,0,0,0-1.33-.49c-4.76,2.2-12.73.58-19.77-.85-2.31-.47-4.51-.91-6.54-1.22,5.37-1.39,12.94-3.22,15.54-3.22a1,1,0,0,0,0-2c-4.45,0-21.13,4.65-21.85,4.83-1.6.41-3.34,1.45-3.88,3a11,11,0,0,0-.43,1.76c-2.52.23-13.27,1.57-17.12,7.84A1,1,0,0,0,142.41,95c3.61-1.39,5,.53,7.08,4,1.8,3,4,6.69,9,6.69h.33a8.53,8.53,0,0,0,4.12-1.7,43,43,0,0,1,14.42-6.89c5.24-1.37,9.59-3.33,11.05-5,1.65-1.85.65-2.85-1.41-1.41-1.44,1-5.86,2.9-10.32,4.51-5.12,1.84-10.36,3.73-13.38,5.81-.16-1.44-1.87-8-2.27-9.89-2-8.86,6-7.86,14.09-5.71,7.23,1.93,15.65,2.18,21-.29A1,1,0,0,0,196.56,83.84ZM161,102.95c-.33.47-1.12.73-2.34.77-4,.14-5.7-2.71-7.5-5.72-1.54-2.57-3.25-5.41-6.54-5.47,4-3.51,11.12-4.55,13.49-4.81a29.76,29.76,0,0,0,1.92,9.07C160.94,99.44,161.76,101.94,161,102.95Z"/><path class="cls-5" d="M323.79,158.32c10.07,41,2.61,67.85-12.6,86.66-5.13,6.34-15.43,6.55-28.15,5.25-6.83-.7-11.91,5.33-18.67,8.48-24.77,11.56-104.89,6.55-132.36-6.12"/><path class="cls-2" d="M202.44,120.38a3.77,3.77,0,0,1-3.76-3.76c0-2.07,1.69-5.76,3.76-5.76s3.76,2.69,3.76,4.76S204.52,120.38,202.44,120.38Zm0-6.93a2.17,2.17,0,1,0,2.17,2.17A2.17,2.17,0,0,0,202.44,113.44Z"/><path class="cls-2" d="M281.15,120.53c-2.07,0-3.76-2.69-3.76-4.76s1.69-4.76,3.76-4.76,3.76,3.69,3.76,5.76A3.77,3.77,0,0,1,281.15,120.53Zm0-6.93a2.17,2.17,0,1,0,2.17,2.17A2.17,2.17,0,0,0,281.15,113.6Z"/><path class="cls-4" d="M268.88,164.57s-9.62,4.68-13.06,4.58c-4-.12-13.13-5.15-15.88-5.56s-2.43,1.33-1.19,2.79c5.72,6.74,9.1,8.44,10.78,7.87,1.29-.44,2.22-2.16,2.83-3.75l1.93.65c-.6,6.42-2.17,15.46-4,17C246.69,191,239.16,193,233,190.52c-1.28-.52-5.28-.52-1.73,1.84,2.35,1.56,9.37,3,12.11,3.31,6.78.66,13.85.66,17.13-.68.7-.29,4.24-1.68,4.24-2.32a1.31,1.31,0,0,0-1.41-1.16c-.09,0-8.94-1-9.55-3.71-.2-.89,3-13.31,3.35-16.55L258,171c.33,1.55,1,3.33,2.1,4a2.39,2.39,0,0,0,1.69.25c3.11-.68,7.54-6.23,8.75-7.94C271.34,166.14,271.34,164,268.88,164.57Zm-20.45,7.48c-.92.25-4.75-2.05-6.16-5.39,1.41.33,6.44,1.79,7.44,3C250.54,170.62,249,171.91,248.43,172.05Zm13.08.74a1.87,1.87,0,0,1-.8-2.54c.7-1,6-2.25,7.13-2.41C266.68,170,262.71,173.09,261.51,172.8Z"/><path class="cls-4" d="M324.76,158.08a1,1,0,0,0-.11-.27c0-1.86-.07-3.74-.18-5.62,0-.38-.05-.74-.08-1.11l0-.38c-1-13.45-4.33-23.09-10.07-28.78l-.16-.15c-.4-.39-.82-.77-1.24-1.12-.25-.21-.5-.41-.76-.6l-.48-.35c-.43-.3-.86-.6-1.31-.87,0-.67,0-1.32-.06-1.95,0-.48-.06-.93-.11-1.39,0-.13,0-.27,0-.4a27.09,27.09,0,0,0-5.69-14.44l-.42-.56-.21-.27-.56-.7-.25-.3-.35-.42a27.84,27.84,0,0,0,4.71-2.81l.11.05a38.09,38.09,0,0,0,5,2.3c.54.18,4.17,1.35,4.33-.5.19-2.15,2.21-3.13,4.07-4.55,2.22-1.68,4.31-3.27,4-5.49-.36-2.38-3.56-4.51-10.69-7.12l-.08-.15a35.64,35.64,0,0,0-5.61-8.43c-.56-.63-1.14-1.24-1.74-1.83l-.17-.17q-.72-.71-1.47-1.39l-.45-.41q-.68-.59-1.37-1.15c-.42-.34-.85-.67-1.28-1l-.58-.44c-.4-.29-.81-.57-1.22-.85l-.37-.25a38.3,38.3,0,0,0-4.06-2.33l-.41-.2-1.12-.51-.71-.29-1-.37c-.53-.19-1.06-.37-1.58-.52l-.45-.11c-.43-.12-.86-.22-1.28-.3l-.53-.1q-.6-.1-1.17-.16l-.45,0a12.73,12.73,0,0,0-1.48,0h0C270,42.4,250.75,31.79,231.32,29q-3.36-.48-6.73-.65-2.24-.11-4.48-.08-1.12,0-2.23.07-2.05.09-4.08.3c-20.24,2.1-38.32,12.89-52.49,31.37A195,195,0,0,0,130,77.45c-46,28.85-69.61,93.08-55.19,132.19C83,231.82,97.76,234.42,104,248c3,6.51,11.34,4.72,18.76,4a50,50,0,0,0,9,1.64c16.81,7.68,53.27,12.71,84.91,12.71,20,0,38.16-2,48.12-6.67a50.12,50.12,0,0,0,6.5-3.86c3.84-2.55,7.46-5,11.64-4.54,13.57,1.39,23.7,1,29-5.62C329.67,223.73,333.85,195.1,324.76,158.08ZM322.9,87.72c.16,1-1.55,2.34-3.21,3.6a26.23,26.23,0,0,0-2.9,2.44,26.85,26.85,0,0,0-1.56-10.92C321.25,85.2,322.76,86.78,322.9,87.72Zm-21.57,9.07a46.18,46.18,0,0,1-4.1-5.44,46.29,46.29,0,0,1,8.13,3.22A20.22,20.22,0,0,1,301.33,96.79ZM144.07,73.63c6.94-5.32,15.87-9.28,18.28-10.9,3.59-2.41,12.66-15.41,23.52-22,5.25-3.2,25.14-10.49,34.81-10.43,8.33.05,28.74,5,39.93,11.63C268,46.31,279,56.31,285,62.31c9-1,22.46,9.25,26.52,17.17,2.48,4.83,4.53,15.91,2.92,16.92-1.44.91-13.75-6.92-19-7.55-4.44-.54,5.56,10.46,7.37,13,4.94,6.82,4.34,15.09,4.89,17.11a1,1,0,0,0,0,.26c.06.36,4.16,41.64,3,48.59-1,6.24-10,25.24-10.95,27.85s-2.08,9.39-.16,6.79c.67-.9,10.87-25.39,13.05-34.15,2.76-11.09-3.37-40.57-2-44.24.76-2,3,.75,4.26,2.46,5.07,6.85,6.33,25.82,6.71,31.95,1.36,21.9-1.7,32-9.14,42.3-5.5,7.6-12.72,25.67-25.07,34.45,2.57-10.85-1.29-15-3.11-21.79-1.24-4.62-2.22-8.28-.79-10.92,4-7.35,5.22-12.48,3.83-15.7-1.2-2.76-4-3.48-6-4a10.08,10.08,0,0,1-1.76-.55.45.45,0,0,1,0-.13c7.93-22.08-2.73-51.74-10.51-73.4-3.37-9.38-4.13-18-7.1-23.28-4.93-8.83-24.16-25.6-30.06-27.08-4-1-7-1-7.71,1.16-.52,1.59,5.09,6,7.87,10.16,5.26,7.9-.43,14.65-6.34,20.6C223.61,92.47,219.68,95,221,100c3.44,13.2,5.19,19.18-11.77,42.77-3.55,4.94-5.33,11.22-3.08,16.8,1.72,4.25,7.89,6.39,7.71,8.46s-1.85,4.92-4.48,7.21c-4.59,4-9.78,8.5-8.31,16.84a17,17,0,0,0,8.73,12.44c5.71,3.1,14.22,2.75,19.79.56,5.9-2.32,11.67-2.84,11.88-.39.55,6.58-19.78,8.27-27.34,8.31-4.11,0-10,5.61-13.08,9.61-2.3,3-4.31,5.3-8,6.28C181.33,232,172.37,218.13,169.11,210c-.84-2.09-2.1-9.73-6.22-9.32-3.63.36-9.88,5.59-12.6,15.29-11.28-3.7-12.28-22.7-6.69-43.27,2.14-7.88,3.56-16.21,2.12-21.75-3.58-13.75-.62-25,1.54-34,1.5-6.22,2.59-10.72,1-13.54a1,1,0,0,0-1-.51c-5.87.57-13.32,22.33-13.94,27.47-1.45,11.93-2.33,24.6-3.94,32.64-2.47,12.34-6.83,25.46-7.42,25.4-2-.18-16.78-32.78-5.81-68.29C122.14,101.07,136.91,79.11,144.07,73.63ZM310.42,244.35c-4.76,5.88-14.34,6.21-27.27,4.89-4.9-.5-8.81,2.1-13,4.86A48.37,48.37,0,0,1,264,257.8c-24.81,11.58-105.19,6-131.52-6.13a1,1,0,0,0-.37-.09,33.73,33.73,0,0,1-15.86-4c-15.83-8.44-32.35-36.34-27.22-58.55,4.39-19,10-9.76,13.74-26,1.25-5.46-7.89-3.3-9.72-17.75-1.13-8.89,8.83-14.77,7.69-25-1.46-13.17,27.92-44.69,33.87-41.72,1.45.72-18.89,24.41-22.24,43-3.24,17.94-4.25,50.1,8,70.91.8,1.35,1.73,2.05,2.67,1.75,6-1.94,13-54.94,13.17-62.66.16-8.48,7.93-25.49,9.67-24.48,2.09,1.22,1.6,4.7-.5,9.45-4.31,9.74-5.31,29.74-3.53,34.93,1.67,4.88,1.16,13.12-1.1,20.67-4.71,15.71-10.57,35.26,10.49,48.13a1,1,0,0,0,1.42-.4c3.36-6.68,7.54-15,10.43-15.18.75-.06,1.47.51,2.23,1.66a30,30,0,0,1,2,4.42c3.26,8.08,8.76,22.52,26.38,21,4.43-.37,6.59-4.87,9-8,3-3.87,5.84-7.52,11.81-8.86,15.91.34,24.76-1.67,29.62-9a3.68,3.68,0,0,0,0-3.47c-1.89-2.27-9.95-1.49-15.21.74-5.87,2.49-13.44,2.05-18.06-1.47-13.73-10.5-4.65-21-.06-25,3-2.62,6.14-5.33,7.49-9.08a1,1,0,0,0-.76-1.32c-3.63-.66-6.77-3.47-8.41-7.53A15.46,15.46,0,0,1,210.85,144c17.51-24.36,16.86-31.13,13.08-44.46-.91-3.21,20.09-18.21,11.92-30-3.43-5-3.78-7.09-3.78-7.1s.23-.15,1,0c5.71,1.18,22.92,17.88,26.13,23.73,1.32,5.25,15.91,39.08,20.17,65.37a54.14,54.14,0,0,1-1.58,23.85c-1.79,5.92-2.4,9.1,3.11,11.29,4.1,1.63,4.49,8.14.88,14.82-1.81,3.34-.68,7.53.62,12.39,1.92,7.17,4.31,16.1-1.25,26.61a1,1,0,0,0,1.41,1.32c14.64-9.15,22.2-22.13,32.68-40.09,1.79-3.06,4.21-6,5.66-9.64,1.11-2.78,2.93-7,3.56-19.18,1.12,8,3.16,15.16,3,21.74C327,210.31,322.55,229.35,310.42,244.35Z"/><path class="cls-6" d="M275.28,255.47c2.54,3,1.12,9.24-1.82,8.76-.31-.05-1.16-1.88-2.64-2.54s-6.21,5.51-10.69-1.34C254.67,252,271.49,251,275.28,255.47Z"/><path class="cls-6" d="M265,260.93c-.49-2.12-2.73-3.35-4.89-3.59-2.93-.32-7.67-.53-11,5.55,2.23,2.37,4.45.11,6.53.86C259.85,265.26,267.24,270.54,265,260.93Z"/><path class="cls-5" d="M259.29,260.89a7.47,7.47,0,0,1-1.15-2.68c-2.77,0-5.49.85-7.7,4.46a3.15,3.15,0,0,0,2.55.14,8.65,8.65,0,0,1,1.72-.22,3.82,3.82,0,0,1,1.32.22c.78.28,1.64.68,2.54,1.1,1.85.85,4.63,2.14,5.45,1.48a1.29,1.29,0,0,0,.35-.82C262.75,264.41,261,263.47,259.29,260.89Z"/><path class="cls-5" d="M266,260.71h0c.14.6.23,1.14.31,1.66a12.76,12.76,0,0,0,2-.91,5.26,5.26,0,0,1,2.24-.82,1.66,1.66,0,0,1,.69.15,6.86,6.86,0,0,1,2.51,2.29l.13.18a1.66,1.66,0,0,0,1.06-.93,6,6,0,0,0-.43-6.2h0c-2.26-2.64-10.26-3.1-13.37-.77a2.7,2.7,0,0,0-.88,1C262.68,256.63,265.38,258.08,266,260.71Z"/><path class="cls-4" d="M276,254.82c-2.94-3.44-12.12-4-16.09-1.07a4.72,4.72,0,0,0-1.74,2.45c-2.84,0-7,.76-9.92,6.21a1,1,0,0,0,.15,1.16c1.73,1.85,3.59,1.47,5,1.2a3.79,3.79,0,0,1,2-.08c.7.26,1.52.63,2.39,1,2,.91,4,1.84,5.63,1.84.72,0,2.31.43,2.92-1.62.29-1,.39-1.94,2.94-2.72a2.25,2.25,0,0,1,2.91,1c.38.51.65.87,1.16,1a3,3,0,0,0,.48,0,3.39,3.39,0,0,0,2.91-2C277.95,261.06,278.06,257.18,276,254.82Zm-12,10.57c-1,.92-7.21-2.29-8-2.58a3.82,3.82,0,0,0-1.32-.22c-.6,0-4.12.93-4.27.08-.43-2.37,4.93-4.47,7.7-4.46a8,8,0,0,1,1.87.12c4,1,4.23,3.8,4.29,4.2C264.45,263.49,264.56,264.91,264,265.39Zm9.86-2.14c-.06,0-1.87-2.94-3.34-2.62-.68.15-3.55,1.51-4.25,1.73.39-2.37-3.61-5.74-6-6,3.74-4,12-2.88,14.25-.23h0C275.91,257.75,274.33,263.44,273.88,263.25Z"/><path class="cls-6" d="M164.1,258.88c-.65,2.1.18,7.94,2.23,8.72,1.8-.22,2-4.83,2.92-5.93,1.83-2.23,5.61-1.29,8-2.93,1.18-.82,2.91-2.27,2.84-3.71C179.75,248.36,164.76,256.78,164.1,258.88Z"/><path class="cls-6" d="M170,260.07a9.14,9.14,0,0,0-2.15,8.41c.25,1,2.36-.05,4.15-1.17,1.44-.9,6.66,1.12,8.8.38,3.58-1.23,9.48-10.89,5-15C181,248.17,171.2,258.82,170,260.07Z"/><path class="cls-5" d="M169.39,259.3a45.48,45.48,0,0,1,6.49-5.83c-4.06.51-10.33,4.51-10.82,5.73-.57,1.42.45,6.68,1.63,5.9a10,10,0,0,1,2.61-5.7Z"/><path class="cls-6" d="M177.06,268.29a12.18,12.18,0,0,0,9.5.22c3.26-1.32,10.12-7.61,6-11.1a6.34,6.34,0,0,0-6.08-1.53C181.81,257.49,176.74,263.45,177.06,268.29Z"/><path class="cls-5" d="M169.39,259.3a45.48,45.48,0,0,1,6.49-5.83c-4.06.51-10.33,4.51-10.82,5.73-.57,1.42.45,6.68,1.63,5.9a10,10,0,0,1,2.61-5.7Z"/><path class="cls-5" d="M186.17,255a3.72,3.72,0,0,0-1-1.52,3.24,3.24,0,0,0-2.28-.85,6.56,6.56,0,0,0-2.39.53,14.34,14.34,0,0,0-2.18,1.13,36.44,36.44,0,0,0-6,4.84c-.63.62-1.17,1.17-1.55,1.58l-.09.09a8.07,8.07,0,0,0-2.13,5.78c0,.44,1.33.9,2.88-.07,1-.63,2.7-.37,4.67,0C177,261.5,181.77,256.47,186.17,255Z"/><path class="cls-6" d="M196.64,258.4c-1.92.23-6,2.68-6.82,3.62s-1.05,4-1.33,5.21c-.76,3.29,5.23,2.05,9.12-1.14C200.26,263.92,198.44,258.19,196.64,258.4Z"/><path class="cls-5" d="M186.17,255c-.16-1.64-2.4-2.37-3.26-2.37a6.56,6.56,0,0,0-2.39.53,14.34,14.34,0,0,0-2.18,1.13,36.44,36.44,0,0,0-6,4.84c-.63.62-1.17,1.17-1.55,1.58l-.09.09a8.07,8.07,0,0,0-2.13,5.78c0,.44,1.33.9,2.88-.07,1-.63,3.51-.16,4.67-1S181,256.31,186.17,255Z"/><path class="cls-5" d="M169.39,259.3a45.48,45.48,0,0,1,6.49-5.83c-4.06.51-10.33,4.51-10.82,5.73-.57,1.42.45,6.68,1.63,5.9a10,10,0,0,1,2.61-5.7Z"/><path class="cls-5" d="M192.63,261.21a10.63,10.63,0,0,0-2.05,1.46,6.8,6.8,0,0,0-.69,2.34A10.73,10.73,0,0,0,192.63,261.21Z"/><path class="cls-5" d="M189.06,261.37a15.35,15.35,0,0,1,3.51-2.43,2.71,2.71,0,0,0-.61-.76,6.31,6.31,0,0,0-3.5-1.55,4.15,4.15,0,0,0-1.61.21l-.4.16c-3.64,1.45-8.38,8.32-8.4,9.64,0,2.68,6.76,1.51,8.14,1a8.56,8.56,0,0,0,1.35-.72c.06-.29.12-.65.19-1.07C188,263.79,188.34,262.2,189.06,261.37Z"/><path class="cls-5" d="M194.8,260.82c-.44,2.71-2.95,5.53-5.26,7.21,1,.57,4.55-.34,7.43-2.7,1-.83,1.1-2.48.84-3.75a3.41,3.41,0,0,0-1.09-2.17,7.45,7.45,0,0,0-1.87.63A5,5,0,0,1,194.8,260.82Z"/><path class="cls-4" d="M199.32,259.69c-.67-1.58-1.69-2.41-2.8-2.28a8.45,8.45,0,0,0-2.13.64,4.72,4.72,0,0,0-1.13-1.4,8.14,8.14,0,0,0-5.09-2,5.77,5.77,0,0,0-1.62-2.64c-2.17-2-5-1.65-7.84-.23a4.51,4.51,0,0,0-.82-.19c-4.58-.6-14,4.72-14.74,7s.86,8.73,2.83,9.95a7.78,7.78,0,0,0,6.58-.37c1.45-.85,2.4.25,4.08,1,2.37,1.11,7.37,1.11,10.29.24a6,6,0,0,0,.88-.36,2.19,2.19,0,0,0,.66.63,3.6,3.6,0,0,0,1.91.46c2.36,0,5.59-1.45,7.86-3.31C200.26,265.22,200.31,262,199.32,259.69Zm-32.63,5.41c-1.18.79-2.2-4.48-1.63-5.9.49-1.22,6.76-5.22,10.82-5.73a45.48,45.48,0,0,0-6.49,5.83l-.09.09A10,10,0,0,0,166.69,265.09Zm9.49.33c-1.16.88-3.65.4-4.67,1-1.55,1-2.86.51-2.88.07a8.07,8.07,0,0,1,2.13-5.78l.09-.09c.38-.41.91-1,1.55-1.58a36.44,36.44,0,0,1,6-4.84,14.34,14.34,0,0,1,2.18-1.13,6.56,6.56,0,0,1,2.39-.53c.85,0,3.1.73,3.26,2.37C181,256.31,177.29,264.58,176.17,265.43Zm12.89-4.06c-.72.83-1,2.43-1.33,4.42-.07.42-.13.78-.19,1.07a8.56,8.56,0,0,1-1.35.72c-1.38.56-8.18,1.73-8.14-1,0-1.32,4.76-8.19,8.4-9.64l.4-.16a4.15,4.15,0,0,1,1.61-.21,6.31,6.31,0,0,1,3.5,1.55,2.71,2.71,0,0,1,.61.76A15.35,15.35,0,0,0,189.06,261.37Zm7.92,4c-2.88,2.37-4.3,3-6,3-1,0-1.4-1.67-1.31-2.2,0-.31.31-2.8.87-3.43a24.37,24.37,0,0,1,4.28-2.64c2.15-.72,2.68.17,3,1.54S198,264.49,197,265.32Z"/><path class="cls-6" d="M115.79,252.93a7.34,7.34,0,0,0,1.75,7.38.94.94,0,0,0,.54.35c.34,0,.6-.26.8-.54,2-3,2.65-6.69,2.88-10.3A5.14,5.14,0,0,0,115.79,252.93Z"/><path class="cls-6" d="M121.66,255.49c-.07,2.61,1.75,4.85,3.48,6.81,1.61-.33,2.29-2.2,2.7-3.79.54-2.11,2.08-8.44-1.39-9.31C123.62,248.51,121.71,253.38,121.66,255.49Z"/><path class="cls-4" d="M128.87,249.87a3.5,3.5,0,0,0-2.2-1.64,3.37,3.37,0,0,0-2.92.67c-.37.28-1.26.09-1.7,0a6.11,6.11,0,0,0-7.19,3.71,8.26,8.26,0,0,0,1.95,8.41,1.89,1.89,0,0,0,1.16.67h.17a1.89,1.89,0,0,0,1.56-1,14.4,14.4,0,0,0,1.41-2.63,16.43,16.43,0,0,0,3.26,4.91,1,1,0,0,0,.75.34l.2,0c2.44-.5,3.18-3.42,3.46-4.52C129.49,256,130.25,252.18,128.87,249.87Zm-10.75,9.58c-2.11-.14-2.13-4.26-1.4-6.16.62-1.6,3.29-4,4-2.65C121.47,252.15,120,259.58,118.12,259.45Zm8.74-1.19c-.44,1.5-.82,3.2-1.44,2.85-1.41-.8-2.82-3.6-2.77-5.59,0-1.33,1-4,2.31-5,.56-.42,1,0,1.19.4A9,9,0,0,1,126.86,258.26Z"/><path class="cls-6" d="M128.21,254.4a9,9,0,0,0,4.59,7,4,4,0,0,1,1-4.67,19.33,19.33,0,0,0,2.47-1.76C140.13,250.51,127.59,243.69,128.21,254.4Z"/><path class="cls-4" d="M132.8,262.39a1,1,0,0,1-.5-.14,10,10,0,0,1-5.08-7.79h0c-.27-4.69,1.84-6.11,3.12-6.54,2.55-.86,5.56.76,6.88,2.74a3.91,3.91,0,0,1-.19,5,6.38,6.38,0,0,1-1.65,1.26,7.13,7.13,0,0,0-.92.61,3,3,0,0,0-.74,3.47,1,1,0,0,1-.9,1.44ZM131,249.82c-1.64.79-1.84,3.09-1.76,4.53h0c.1,1.73.81,5,2.27,4.77,1.21-.16.52-2.75,1.68-3.16,1.86-.65,3-3.25,2.39-4.18C134.72,250.54,132,249.31,131,249.82Z"/><path class="cls-6" d="M299.48,251.78c-.54-2.36-4-2.21-6.81-1.11,0,0,1,5.09,4,8.37C298.69,256.79,300.16,254.74,299.48,251.78Z"/><path class="cls-4" d="M295.9,259.71c-1.22-.71-3.22-3.71-4.21-5.86-.2-.44-.84-3.34.62-4.12a10.43,10.43,0,0,1,6.5-.31c3.87,1.58.57,8.1-1.44,10.29A1.21,1.21,0,0,1,295.9,259.71Zm-2-8.4c-.84,1,1.16,7,2.81,6.18,1.22-.6,2.31-3.44,1.84-5.5h0C298,250.31,294.85,250.15,293.86,251.31Z"/><path class="cls-6" d="M309,249.34c-.52-2-5.8-1-7.84.55,0,0,3.09,5.86,5.48,8.53C309.54,256,309.91,253.06,309,249.34Z"/><path class="cls-4" d="M306.6,259.42c-2.92-.42-7.92-9.42-6.08-10.33,2-1,5.67-2.37,7.8-1.62a2.37,2.37,0,0,1,1.6,1.63h0c1.14,4.46.31,7.58-2.69,10.09A1,1,0,0,1,306.6,259.42Zm-4.15-9.18c-.44,1.06,2.56,6.06,4.24,6.72,1.27.5,2.32-4.66,1.3-7.38C307.43,248.08,302.87,249.24,302.46,250.24Z"/><text class="cls-7" transform="translate(116.11 353.24)">Proud Pig</text></svg>