<svg xmlns="http://www.w3.org/2000/svg" viewBox="0 0 144 144"><defs><style>.cls-1{fill:#ffcb65;stroke:#ffcb65;stroke-miterlimit:10;stroke-width:10px;}.cls-2{fill:#fff1c5;}</style></defs><title>sheltie</title><g id="Layer_2" data-name="Layer 2"><path class="cls-1" d="M128.76,76.82c-3.79-8.9-10.93-17-15.65-19.62-3.47-2-35.77-6.2-51.57-4.22,0-.6-.07-1.19-.1-1.77-.26-4.68-.5-9.1-4.88-14.82C53.2,32,47.29,26.77,43.61,26c-1.85-.4-3.59,1.09-5.28,2.52-.94.8-2.12,1.79-2.75,1.86-.81.09-2.5-1.77-3.57-3a12.31,12.31,0,0,0-2.68-2.58c-4-2.3-6.33.18-8.76,2.81-.59.64-1.23,1.33-1.94,2-6,5.8-9.62,21-9.62,32.35,0,5,.67,11.56,3.87,14.65,2.57,2.48,3.36,7.48,4,11.49.52,3.31.94,5.92,2.22,7.14S21.2,97.17,22,97.88a18.58,18.58,0,0,1,5.15,6.2,39.66,39.66,0,0,0,2.68,4c2,2.74,3.56,4.9,3.23,8.47a1.17,1.17,0,0,0,.94,1.25c1,.2,2.63.42,4.52.62a1.11,1.11,0,0,0,.18.06h.12l.1,0c7.4.75,19,1.17,21.18-.77,1.63-1.44,1.41-6.27,1.07-9.38a73,73,0,0,0,21.11,6c2.15.25,15.09-6.43,16.58-6.18,4.12.66,15.53,5.58,15.64,5.63a47.18,47.18,0,0,1,2.44,5.42,1.08,1.08,0,0,0,0,.1,1.11,1.11,0,0,0,.07.16,1.13,1.13,0,0,0,.14.21l.11.12a1.14,1.14,0,0,0,.23.16l.12.07a1.15,1.15,0,0,0,.42.09h14a2,2,0,0,0,1.68-1C136.65,114.82,134.22,89.64,128.76,76.82Z"/><path class="cls-2" d="M128.76,76.82c-3.79-8.9-10.93-17-15.65-19.62-3.47-2-35.77-6.2-51.57-4.22,0-.6-.07-1.19-.1-1.77-.26-4.68-.5-9.1-4.88-14.82C53.2,32,47.29,26.77,43.61,26c-1.85-.4-3.59,1.09-5.28,2.52-.94.8-2.12,1.79-2.75,1.86-.81.09-2.5-1.77-3.57-3a12.31,12.31,0,0,0-2.68-2.58c-4-2.3-6.33.18-8.76,2.81-.59.64-1.23,1.33-1.94,2-6,5.8-9.62,21-9.62,32.35,0,5,.67,11.56,3.87,14.65,2.57,2.48,3.36,7.48,4,11.49.52,3.31.94,5.92,2.22,7.14S21.2,97.17,22,97.88a18.58,18.58,0,0,1,5.15,6.2,39.66,39.66,0,0,0,2.68,4c2,2.74,3.56,4.9,3.23,8.47a1.17,1.17,0,0,0,.94,1.25c1,.2,2.63.42,4.52.62a1.11,1.11,0,0,0,.18.06h.12l.1,0c7.4.75,19,1.17,21.18-.77,1.63-1.44,1.41-6.27,1.07-9.38a73,73,0,0,0,21.11,6c2.15.25,15.09-6.43,16.58-6.18,4.12.66,15.53,5.58,15.64,5.63a47.18,47.18,0,0,1,2.44,5.42,1.08,1.08,0,0,0,0,.1,1.11,1.11,0,0,0,.07.16,1.13,1.13,0,0,0,.14.21l.11.12a1.14,1.14,0,0,0,.23.16l.12.07a1.15,1.15,0,0,0,.42.09h14a2,2,0,0,0,1.68-1C136.65,114.82,134.22,89.64,128.76,76.82ZM58.58,116c-1.31,1.07-11,1-18.48.32.25-3.5.71-13.94-2.52-16.89l-.93-.82c-2.65-2.31-8.18-7.12-8.18-11.65a1.17,1.17,0,0,0-2.34,0c0,5.59,6.07,10.87,9,13.41l.88.78c1.93,1.77,2.2,9.52,1.78,14.91-.82-.1-1.61-.21-2.32-.32,0-3.82-1.8-6.33-3.72-9a38,38,0,0,1-2.53-3.81,20.89,20.89,0,0,0-5.66-6.83c-.8-.69-1.72-1.48-2.85-2.56-.71-.67-1.14-3.41-1.52-5.82-.69-4.36-1.55-9.78-4.68-12.81-2-1.94-3.16-6.67-3.16-13,0-12.18,4-25.93,8.91-30.67.75-.72,1.42-1.44,2-2.12,2.57-2.79,3.58-3.69,5.89-2.37a12,12,0,0,1,2.08,2.09c1.63,1.87,3.45,4,5.56,3.79,1.36-.13,2.66-1.23,4-2.4,1.08-.92,2.56-2.17,3.28-2,1.57.34,4.12,2.05,6.64,4.3a13.6,13.6,0,0,0-2.17,3.12A19,19,0,0,1,45.9,38.3a14.92,14.92,0,0,1-1-1.85c-.81-1.69-1.82-3.8-4.15-3.8a1.17,1.17,0,0,0,0,2.34c.78,0,1.24.79,2,2.47A10.53,10.53,0,0,0,45,40.81a1.2,1.2,0,0,0,.79.3c.72,0,2.95-2.64,3.85-4.27a11.18,11.18,0,0,1,1.84-2.69,36.91,36.91,0,0,1,3.24,3.66c3.94,5.15,4.16,9,4.4,13.53,0,.76,0,2.58,0,2.74C58.06,61.31,55.85,70.42,48,76.79a1.15,1.15,0,0,0-.36.52c-.37,1.06-3.61,10.5-3.39,14.16a5.29,5.29,0,0,0,1.91,3.88c2.64,2.22,7.38,2.22,10.9,1.83.39,0,.5.06.55.09C58.22,97.75,59,115.52,58.58,116Zm73.31,1.82H119c-.82-2.49-3.09-8.27-4-10.7,1.58.74,3.2,1.47,4.91,2.19.6.25,1.05.44,1.31.57a1.17,1.17,0,0,0,1-2.11c-.28-.13-.76-.33-1.4-.61C93.62,95.71,89.23,84.29,90.32,76.72A1.17,1.17,0,1,0,88,76.38c-1.56,10.79,6.67,20.71,24.44,29.53-.19.3.94,3.68,1.5,5.12-3.31-1.39-11.18-4.59-14.7-5.15C97,105.54,84,112.24,82.57,112a71,71,0,0,1-21.45-6.29,1.09,1.09,0,0,0,0-.11,21.1,21.1,0,0,1-.44-4.27c-.09-2.54-.17-4.73-1.51-5.88a2.93,2.93,0,0,0-2.33-.65c-4.32.48-7.57,0-9.13-1.29a3,3,0,0,1-1.09-2.23c-.16-2.61,2.13-9.95,3.16-12.94,7.87-6.57,10.33-15.6,11.49-23,15-2.1,47.95,2.31,50.7,3.85,4.28,2.41,11.1,10.17,14.64,18.5C132.54,91.65,133.69,115.25,131.89,117.81Z"/><path class="cls-2" d="M36,55.3c-2.39-.75-3.82,1.19-5,2.76a8.73,8.73,0,0,1-1.87,2.07c-1.05.69-3.7.81-5.42.48-1.23-.24-4-3.68-4-3.68a26,26,0,0,1,3-4.1c2.78-3.43,4.45-5.64,4.24-7.37a2,2,0,0,0-.81-1.4c-.31-.23-.39-.38-.39-.41,0-.27.73-1.13,1.19-1.64l.42-.48c3.37-3.89,1.68-6,0-8.06l-.13-.14c-1-.89-2.12,0-2.94.59a6.68,6.68,0,0,1-1.52,1l1.11-2.55a1.17,1.17,0,0,0-2.14-.93l-1.65,3.79a1.17,1.17,0,0,0,.31,1.35c2,1.74,4.16.11,5.31-.77l.31-.24c1.19,1.54,1.41,2.3-.46,4.46l-.4.46c-1,1.1-1.89,2.14-1.76,3.43a2.88,2.88,0,0,0,1.21,2c-.07,1-2.44,3.92-3.74,5.52-2.71,3.34-4.34,5.36-3.16,6.81,0,0,3.46,4.33,5.59,4.74a13.89,13.89,0,0,0,2.52.22,8.9,8.9,0,0,0,4.63-1,10.53,10.53,0,0,0,2.47-2.64c1.2-1.63,1.71-2.13,2.39-1.92A1.17,1.17,0,1,0,36,55.3Z"/></g></svg>