<svg id="Layer_2" data-name="Layer 2" xmlns="http://www.w3.org/2000/svg" viewBox="0 0 350 350"><defs><style>.cls-1{fill:#141414;}.cls-2{fill:#fff;}</style></defs><title>stocking</title><rect class="cls-1" x="96.55" y="71.66" width="147.4" height="75.84"/><rect class="cls-2" x="106.05" y="61.84" width="147.4" height="75.84"/><path class="cls-1" d="M254.7,138.92H104.8V60.58H254.7Zm-147.4-2.5H252.2V63.08H107.3Z"/><path class="cls-1" d="M132.66,108.05a1.39,1.39,0,0,1-.62-1.82l7.39-17q-.54.19-1,.3c-1.58.4-1.7.5-1.7,1.62a1.35,1.35,0,0,1-1.32,1.35,1.32,1.32,0,0,1-1.29-1.35c0-3.3,2.15-3.87,3.66-4.27a5.11,5.11,0,0,0,4-3,1.28,1.28,0,0,1,1.7-.65,1.44,1.44,0,0,1,.65,1.8l-9.68,22.37a1.33,1.33,0,0,1-1.2.8A1.63,1.63,0,0,1,132.66,108.05Z"/><path class="cls-1" d="M155.62,102.05c-1.94,4.55-4.78,6.35-7,6.35-2.89,0-3.47-2.95-2.37-5.87a3.13,3.13,0,0,1,.17-.42c1.17-2.72,1.86-3.45,1.86-4.82a.79.79,0,0,0-.77-.8c-1.79,0-5,4.27-7.17,8.87l-1,2.25a1.27,1.27,0,0,1-1.15.8,1.31,1.31,0,0,1-1.24-1.67l.07-.22,5.09-12.07a1.28,1.28,0,1,1,2.42.88,5.55,5.55,0,0,1,3.23-1.4,3,3,0,0,1,3,3.22c0,1.47-.36,1.82-2.15,6a5.87,5.87,0,0,0-.31.9c-.17.82-.07,1.62.5,1.62h.07c1.29,0,2.73-1.15,4.3-4.67A1.29,1.29,0,0,1,155.62,102.05Z"/><path class="cls-1" d="M184.34,86.33c-.62,1.87-1.75,2.92-3.25,4.42,0,.6.07,1.23.12,1.87.26,3.5.45,7.12-.65,9.85-1.48,3.67-4.38,6.22-8.2,6.22a7.12,7.12,0,0,1-6.24-4.3,9.58,9.58,0,0,0-2.3,3.25,1.23,1.23,0,0,1-1.65.65,1.3,1.3,0,0,1-.62-1.7,12.43,12.43,0,0,1,3.8-4.92c-.12-5.4,4.3-8.85,9.06-7.4,1.55-1.47,2.82-2.92,4.16-4.45a12.66,12.66,0,0,1,.45-5.15C180.56,80.51,185.89,81.61,184.34,86.33ZM168.06,100l4.33-3.65A4.73,4.73,0,0,0,168.06,100Zm10.71-6.67c-.77.82-1.58,1.65-2.44,2.45a1.27,1.27,0,0,1-.12.77,1.21,1.21,0,0,1-1.36.62c-1.46,1.32-2.92,2.6-4.3,3.8-.55.47-1.67,1.4-2.22,1.9.77,1.6,1.79,3.22,4.3,3.22,2.27,0,4.57-2,5.67-4.62C179.13,99.45,179,96.38,178.77,93.3Zm2.34-7.8a7.16,7.16,0,0,0-.38,2.47A11,11,0,0,0,182,86C182.76,84.06,181.8,83.81,181.11,85.51Z"/><path class="cls-1" d="M192.28,102.05c-1.91,4.55-4.78,6.35-7,6.35-3,0-4.57-3-3.25-6.12l2.53-5.75h-.45a1.29,1.29,0,0,1-1.27-1.32,1.27,1.27,0,0,1,1.27-1.32h1.63l1.51-3.45c.67-1.62,2.87-.45,2.27,1.1l-1,2.35h.24A1.27,1.27,0,0,1,190,95.2a1.29,1.29,0,0,1-1.24,1.32h-1.39l-2.94,6.82c-.48,1.07-.26,2.32,1.12,2.32s2.77-1.07,4.38-4.67A1.29,1.29,0,0,1,192.28,102.05Z"/><path class="cls-1" d="M205.53,101.78c-1.77,4-3.8,5.6-6,5.6a2.82,2.82,0,0,1-1.77-.6,6.14,6.14,0,0,1-1.15.82,5.21,5.21,0,0,1-1.84.7,4.3,4.3,0,0,1-2.73-.4,5,5,0,0,1-2.3-4.1,10.39,10.39,0,0,1,4.78-9.3,4.53,4.53,0,0,1,4.54-.28,5.09,5.09,0,0,1,2.3,4.07,10.11,10.11,0,0,1-1.72,6.35h.14c1.05,0,1.94-.87,3.4-3.92A1.29,1.29,0,0,1,205.53,101.78Zm-10.11,3.5a4.52,4.52,0,0,0,.91-.67,3.45,3.45,0,0,1,.22-2.45,1.93,1.93,0,0,1,2.08-1.35,5.69,5.69,0,0,0,.24-2.17,1.89,1.89,0,0,0-3.13-1.7,7.65,7.65,0,0,0-3.44,6.7,2.22,2.22,0,0,0,1,1.9A2.05,2.05,0,0,0,195.42,105.28Z"/><path class="cls-1" d="M202.83,102.63c0-3.9,3.71-8.52,7.58-8.52,2.56,0,3.85,1.87,2.85,4.37-.79,1.67-3.08.77-2.18-.92.29-.57,0-1-.67-1-2.3,0-5,3.52-5,6.35a2.74,2.74,0,0,0,2.85,2.82c2.06,0,4.73-1.9,6.24-5.3a1.29,1.29,0,1,1,2.34,1.1c-2,4.57-5.48,6.92-8.58,6.92S202.83,106.33,202.83,102.63Z"/><path class="cls-1" d="M227.46,102.05c-1.91,4.47-4.66,6.35-7,6.35s-4.3-2.12-4.5-4.8l-1.75,4a1.32,1.32,0,0,1-2.37-1.15l8.51-19.6a1.29,1.29,0,0,1,1.72-.67,1.37,1.37,0,0,1,.65,1.82l-3.16,7.25a5,5,0,0,1,3.28-1.45,2.56,2.56,0,0,1,2.63,2.92c-.36,2.65-3.83,5.7-6.89,5.52-.41,1.87.93,3.4,2.13,3.4s2.77-1.07,4.38-4.67A1.29,1.29,0,0,1,227.46,102.05Zm-8.89-2.45c1.15.72,4.47-1,4.54-2.8,0-.7-1.12-.33-2.13.25A8,8,0,0,0,218.57,99.6Z"/><polygon class="cls-1" points="76.91 296.49 76.91 228 278.48 228 250.06 262.25 278.48 296.49 76.91 296.49"/><path class="cls-1" d="M278.48,297.74H76.91a1.25,1.25,0,0,1-1.25-1.25V228a1.25,1.25,0,0,1,1.25-1.25H278.48a1.25,1.25,0,0,1,1,2l-27.76,33.45,27.76,33.45a1.25,1.25,0,0,1-1,2Zm-200.32-2.5H275.82L249.09,263a1.25,1.25,0,0,1,0-1.6l26.72-32.2H78.16Z"/><polygon class="cls-2" points="266.83 282.46 169.18 282.46 71.52 282.46 71.52 252.65 71.52 222.84 169.18 222.84 266.83 222.84 242.09 252.65 266.83 282.46"/><path class="cls-1" d="M266.83,283.71H71.52a1.25,1.25,0,0,1-1.25-1.25V222.84a1.25,1.25,0,0,1,1.25-1.25H266.83a1.25,1.25,0,0,1,1,2l-24.08,29,24.08,29a1.25,1.25,0,0,1-1,2Zm-194.06-2.5h191.4l-23-27.76a1.25,1.25,0,0,1,0-1.6l23-27.76H72.77Z"/><path class="cls-1" d="M128.89,240.42c-.62,1.88-1.75,2.92-3.25,4.42,0,.6.07,1.23.12,1.88.26,3.5.45,7.12-.65,9.85-1.48,3.67-4.38,6.22-8.2,6.22a7.12,7.12,0,0,1-6.24-4.3,9.57,9.57,0,0,0-2.3,3.25,1.23,1.23,0,0,1-1.65.65,1.3,1.3,0,0,1-.62-1.7,12.42,12.42,0,0,1,3.8-4.92c-.12-5.4,4.3-8.85,9.06-7.4,1.55-1.47,2.82-2.92,4.16-4.45a12.66,12.66,0,0,1,.45-5.15C125.11,234.6,130.44,235.7,128.89,240.42Zm-16.28,13.65,4.33-3.65A4.73,4.73,0,0,0,112.61,254.07Zm10.71-6.67c-.77.83-1.58,1.65-2.44,2.45a1.27,1.27,0,0,1-.12.78,1.21,1.21,0,0,1-1.36.62c-1.46,1.33-2.92,2.6-4.3,3.8-.55.47-1.67,1.4-2.22,1.9.77,1.6,1.79,3.22,4.3,3.22,2.27,0,4.57-2,5.67-4.62C123.68,253.54,123.51,250.47,123.32,247.39Zm2.34-7.8a7.16,7.16,0,0,0-.38,2.47,11,11,0,0,0,1.31-2C127.31,238.14,126.35,237.89,125.66,239.59Z"/><path class="cls-1" d="M142.76,255.87c-1.77,4-3.8,5.6-6,5.6a2.82,2.82,0,0,1-1.77-.6,6.16,6.16,0,0,1-1.15.83,5.2,5.2,0,0,1-1.84.7,4.3,4.3,0,0,1-2.73-.4,5,5,0,0,1-2.3-4.1,10.39,10.39,0,0,1,4.78-9.3,4.52,4.52,0,0,1,4.54-.28,5.09,5.09,0,0,1,2.3,4.07,10.11,10.11,0,0,1-1.72,6.35H137c1.05,0,1.94-.87,3.4-3.92A1.29,1.29,0,0,1,142.76,255.87Zm-10.11,3.5a4.51,4.51,0,0,0,.91-.67,3.45,3.45,0,0,1,.22-2.45,1.93,1.93,0,0,1,2.08-1.35,5.69,5.69,0,0,0,.24-2.17A1.89,1.89,0,0,0,133,251a7.65,7.65,0,0,0-3.44,6.7,2.22,2.22,0,0,0,1,1.9A2.05,2.05,0,0,0,132.65,259.36Z"/><path class="cls-1" d="M139.73,256.37l7.2-16.47c.67-1.62,2.87-.45,2.27,1.1l-7.08,16.45c-.48,1.07-.26,2.32,1.12,2.32s2.77-1.08,4.38-4.67a1.29,1.29,0,0,1,2.37,1c-1.91,4.55-4.78,6.35-7,6.35C139.95,262.49,138.42,259.44,139.73,256.37Z"/><path class="cls-1" d="M166.08,256.14c-1.94,4.55-4.78,6.35-7,6.35a3.8,3.8,0,0,1-3.3-2,7.8,7.8,0,0,1-1.46,1.1,5.18,5.18,0,0,1-1.84.7,4.25,4.25,0,0,1-2.7-.4,5,5,0,0,1-2.3-4.07,10.33,10.33,0,0,1,4.76-9.25,4.48,4.48,0,0,1,4.52-.27,4.26,4.26,0,0,1,1.72,1.92L163,239.89c.67-1.62,2.85-.47,2.25,1.07l-7.08,16.45c-.48,1.08-.24,2.35,1.15,2.35s2.77-1.08,4.38-4.67A1.29,1.29,0,0,1,166.08,256.14Zm-9.52-3.42a1.89,1.89,0,0,0-3.13-1.7,7.65,7.65,0,0,0-3.44,6.7,2.25,2.25,0,0,0,1,1.9,2.05,2.05,0,0,0,2.15-.25A7.69,7.69,0,0,0,156.57,252.72Z"/><path class="cls-1" d="M192.7,255.87c-1.77,4-3.8,5.6-6,5.6a3.09,3.09,0,0,1-2.56-1.4,9,9,0,0,1-5.88,2.42c-4,0-6.34-2.8-6.34-7.5a22,22,0,0,1,3.66-11.32,15.08,15.08,0,0,1,5.09-5,7.59,7.59,0,0,1,4.14-1.15c3.78,0,6,2.8,6,7.45a24.73,24.73,0,0,1-4.16,12.27c-.17.25-.36.48-.53.73a.73.73,0,0,0,.81.8c1.05,0,1.94-.87,3.4-3.92A1.29,1.29,0,0,1,192.7,255.87ZM178.23,260a7.42,7.42,0,0,0,5.14-2.37,3.09,3.09,0,0,1,.33-1.4,2,2,0,0,1,1.82-1.37,20.25,20.25,0,0,0,2.89-9.92c0-3.27-1.22-4.95-3.63-4.95a6.32,6.32,0,0,0-3.25,1,17.51,17.51,0,0,0-4.88,5.5,19.22,19.22,0,0,0-2.37,8.5C174.29,258.32,175.6,260,178.23,260Z"/><path class="cls-1" d="M207.2,256.14c-1.94,4.55-4.78,6.35-7,6.35a3.58,3.58,0,0,1-3.25-1.87,6.06,6.06,0,0,1-4.06,1.88c-3,0-4.61-3.07-3.25-6.12l3.37-7.47c.72-1.6,2.87-.45,2.27,1.1L192,257.44c-.48,1.07-.26,2.32,1.12,2.32s2.77-1.08,4.38-4.67a.09.09,0,0,1,0,0l2.77-6.15c.72-1.6,2.87-.45,2.27,1.1l-3.25,7.45c-.48,1.07-.26,2.32,1.12,2.32s2.77-1.08,4.38-4.67A1.29,1.29,0,0,1,207.2,256.14Z"/><path class="cls-1" d="M214.52,256.14c-1.91,4.55-4.78,6.35-7,6.35-3,0-4.57-3-3.25-6.12l2.53-5.75h-.45a1.29,1.29,0,0,1-1.27-1.33,1.27,1.27,0,0,1,1.27-1.32H208l1.51-3.45c.67-1.62,2.87-.45,2.27,1.1l-1,2.35H211a1.27,1.27,0,0,1,1.24,1.32,1.29,1.29,0,0,1-1.24,1.33h-1.39l-2.94,6.82c-.48,1.07-.26,2.32,1.12,2.32s2.77-1.08,4.38-4.67A1.29,1.29,0,0,1,214.52,256.14Z"/></svg>